<?xml version="1.0" encoding="UTF-8"?><svg id="a" xmlns="http://www.w3.org/2000/svg" width="1173" height="368" viewBox="0 0 1173 368"><path d="m393.83,140.38c-15.15,0-22.48,10.26-22.48,24.8v37.63c0,11.36,4.4,24.8,22.48,24.8,15.15,0,22.6-10.39,22.6-24.8v-3.79h-12.83v3.79c0,3.54-.12,12.22-9.77,12.22s-9.77-8.67-9.77-12.22v-37.63c0-3.54.12-12.22,9.77-12.22s9.77,8.67,9.77,12.22v3.67h12.83v-3.67c0-11.48-4.4-24.8-22.6-24.8Z" fill="#112378" stroke-width="0"/><path d="m437.08,141.97l-13.2,84.06h12.83l2.44-16.49h16.86l2.44,16.49h12.83l-13.2-84.06h-21.01Zm4.03,55.59l6.48-43.25,6.48,43.25h-12.95Z" fill="#112378" stroke-width="0"/><path d="m501.22,140.38c-15.27,0-22.48,8.92-22.48,23.58,0,15.52,7.52,19.3,22.11,25.66,9.13,3.98,10.51,10.51,10.51,13.93,0,2.93-.98,11.61-10.14,11.61s-10.14-8.31-10.14-12.34v-7.57h-12.34v7.57c0,11.36,4.4,24.8,22.48,24.8,15.15,0,22.6-9.65,22.6-24.07,0-17.1-10.63-22.36-21.38-26.63-9.16-3.54-11.36-8.06-11.36-12.1,0-2.57-.61-12.1,10.14-12.1,9.16,0,10.14,8.8,10.14,12.46v2.93h12.46v-2.93c0-11.48-4.4-24.8-22.6-24.8Z" fill="#112378" stroke-width="0"/><path d="m555.1,140.38c-15.15,0-22.48,10.26-22.48,24.8v37.63c0,11.36,4.4,24.8,22.48,24.8,15.15,0,22.6-10.39,22.6-24.8v-3.79h-12.83v3.79c0,3.54-.12,12.22-9.77,12.22s-9.77-8.67-9.77-12.22v-37.63c0-3.54.12-12.22,9.77-12.22s9.77,8.67,9.77,12.22v3.67h12.83v-3.67c0-11.48-4.4-24.8-22.6-24.8Z" fill="#112378" stroke-width="0"/><path d="m598.35,141.97l-13.2,84.06h12.83l2.44-16.49h16.86l2.44,16.49h12.83l-13.2-84.06h-21.01Zm4.03,55.59l6.48-43.25,6.48,43.25h-12.95Z" fill="#112378" stroke-width="0"/><path d="m660.78,141.97h-20.65v84.06h20.65c17.23.37,24.44-11.36,24.44-23.58v-36.78c0-12.58-7.21-23.7-24.44-23.7Zm11.85,60.11c0,3.42-1.34,11.61-11.61,11.61h-8.43v-59.38h8.43c10.26,0,11.61,8.19,11.61,11.73v36.04Z" fill="#112378" stroke-width="0"/><polygon points="723.33 154.31 738.73 154.31 738.73 141.97 694.38 141.97 694.38 154.31 709.77 154.31 709.77 213.69 693.89 213.69 693.89 226.03 738.97 226.03 738.97 213.69 723.33 213.69 723.33 154.31" fill="#112378" stroke-width="0"/><path d="m759.62,141.97l-13.2,84.06h12.83l2.44-16.49h16.86l2.44,16.49h12.83l-13.2-84.06h-21.01Zm4.03,55.59l6.48-43.25,6.48,43.25h-12.95Z" fill="#112378" stroke-width="0"/><path d="m805.07,154.31h28.83v48.14c0,4.4-.49,12.95-10.14,12.95s-10.14-8.06-10.14-12.58v-8.31h-12.34v8.31c0,15.52,7.33,24.8,22.48,24.8,15.27-.12,22.6-9.29,22.6-24.8v-60.84h-41.3v12.34Z" fill="#112378" stroke-width="0"/><path d="m877.52,140.38c-15.27,0-22.48,8.92-22.48,23.58,0,15.52,7.52,19.3,22.11,25.66,9.13,3.98,10.51,10.51,10.51,13.93,0,2.93-.98,11.61-10.14,11.61s-10.14-8.31-10.14-12.34v-7.57h-12.34v7.57c0,11.36,4.4,24.8,22.48,24.8,15.15,0,22.6-9.65,22.6-24.07,0-17.1-10.63-22.36-21.38-26.63-9.16-3.54-11.36-8.06-11.36-12.1,0-2.57-.61-12.1,10.14-12.1,9.16,0,10.14,8.8,10.14,12.46v2.93h12.46v-2.93c0-11.48-4.4-24.8-22.6-24.8Z" fill="#112378" stroke-width="0"/><path d="m.12,367.68h329.19V.32H.12v367.36ZM12.56,12.76h304.31v342.48h-146.48v-126.93l26.99,26.99,8.17-8.17-40.84-40.84-40.84,40.84,8.17,8.17,26.8-26.8v126.74H12.56V12.76Z" fill="#112378" stroke-width="0"/><polygon points="164.71 91.94 197.39 124.61 205.55 116.45 164.71 75.61 123.87 116.45 132.04 124.61 164.71 91.94" fill="#112378" stroke-width="0"/><polygon points="164.71 124.61 221.89 181.79 230.06 173.62 164.71 108.28 99.37 173.62 107.54 181.79 164.71 124.61" fill="#112378" stroke-width="0"/><polygon points="246.39 238.96 254.56 230.8 164.71 140.95 74.87 230.8 83.04 238.96 164.71 157.29 246.39 238.96" fill="#112378" stroke-width="0"/><polygon points="221.89 247.13 230.06 238.96 164.71 173.62 99.37 238.96 107.54 247.13 164.71 189.96 221.89 247.13" fill="#112378" stroke-width="0"/><path d="m993.91,188.84c8.91-9.52,13.54-15.98,13.54-24.76,0-10.25-4.39-23.67-22.57-23.67-15.13,0-22.45,10.37-22.45,24.76v4.88h12.32v-4.88c0-3.54-.24-12.32,10.13-12.32s9.76,7.81,9.76,12.32c0,6.71-5.86,11.47-9.76,15.37-11.1,11.47-22.45,20.13-22.45,37.21v8.17h45.02v-23.3h-12.08v10.61h-19.88c0-7.93,9.64-15.62,18.42-24.4Z" fill="#112378" stroke-width="0"/><path d="m1038.68,140.41c-15.13,0-22.57,10.49-22.57,24.89v37.45c0,14.52,7.44,24.76,22.57,24.76s22.45-10.25,22.45-24.76v-37.45c0-14.15-7.32-24.89-22.45-24.89Zm-10.13,24.89c0-3.54,0-12.69,10.13-12.69,7.32,0,9.52,5.12,9.88,9.03l-20.01,25.62v-21.96Zm20.25,37.45c0,3.54,0,12.57-10.13,12.57-7.56,0-9.39-4.76-10-8.78l20.13-25.74v21.96Z" fill="#112378" stroke-width="0"/><path d="m1101.27,188.84c8.91-9.52,13.54-15.98,13.54-24.76,0-10.25-4.39-23.67-22.57-23.67-15.13,0-22.45,10.37-22.45,24.76v4.88h12.32v-4.88c0-3.54-.24-12.32,10.13-12.32s9.76,7.81,9.76,12.32c0,6.71-5.86,11.47-9.76,15.37-11.1,11.47-22.45,20.13-22.45,37.21v8.17h45.02v-23.3h-12.08v10.61h-19.88c0-7.93,9.64-15.62,18.42-24.4Z" fill="#112378" stroke-width="0"/><path d="m1163.48,214.71c-2.07,0-3.78-1.71-3.78-3.78v-11.96h8.17v-12.08h-8.17v-26.96l-12.69,26.96h-11.35l21.84-44.89h-12.81l-21.84,44.89v12.08h24.03v11.96c0,2.07-1.59,3.78-3.66,3.78h-5.25v11.22h30.01v-11.22h-4.51Z" fill="#112378" stroke-width="0"/></svg>