<?xml version="1.0" encoding="UTF-8"?><svg id="a" xmlns="http://www.w3.org/2000/svg" width="900" height="368" viewBox="0 0 900 368"><g><path d="M416.31,202.82c0,14.42-7.45,24.8-22.6,24.8-18.08,0-22.48-13.44-22.48-24.8v-37.63c0-14.54,7.33-24.8,22.48-24.8,18.2,0,22.6,13.32,22.6,24.8v3.67h-12.83v-3.67c0-3.54-.12-12.22-9.77-12.22s-9.77,8.67-9.77,12.22v37.63c0,3.54,.12,12.22,9.77,12.22s9.77-8.67,9.77-12.22v-3.79h12.83v3.79Z" fill="#112378"/><path d="M458.34,226.03l-2.44-16.49h-16.86l-2.44,16.49h-12.83l13.2-84.06h21.01l13.2,84.06h-12.83Zm-17.35-28.47h12.95l-6.48-43.25-6.48,43.25Z" fill="#112378"/><path d="M490.96,202.82c0,4.03,.73,12.34,10.14,12.34s10.14-8.67,10.14-11.61c0-3.42-1.37-9.95-10.51-13.93-14.59-6.36-22.11-10.14-22.11-25.66,0-14.66,7.21-23.58,22.48-23.58,18.2,0,22.6,13.32,22.6,24.8v2.93h-12.46v-2.93c0-3.67-.98-12.46-10.14-12.46-10.75,0-10.14,9.53-10.14,12.1,0,4.03,2.2,8.55,11.36,12.1,10.75,4.28,21.38,9.53,21.38,26.63,0,14.42-7.45,24.07-22.6,24.07-18.08,0-22.48-13.44-22.48-24.8v-7.57h12.34v7.57Z" fill="#112378"/><path d="M577.58,202.82c0,14.42-7.45,24.8-22.6,24.8-18.08,0-22.48-13.44-22.48-24.8v-37.63c0-14.54,7.33-24.8,22.48-24.8,18.2,0,22.6,13.32,22.6,24.8v3.67h-12.83v-3.67c0-3.54-.12-12.22-9.77-12.22s-9.77,8.67-9.77,12.22v37.63c0,3.54,.12,12.22,9.77,12.22s9.77-8.67,9.77-12.22v-3.79h12.83v3.79Z" fill="#112378"/><path d="M619.61,226.03l-2.44-16.49h-16.86l-2.44,16.49h-12.83l13.2-84.06h21.01l13.2,84.06h-12.83Zm-17.35-28.47h12.95l-6.48-43.25-6.48,43.25Z" fill="#112378"/><path d="M640.01,141.97h20.65c17.23,0,24.44,11.12,24.44,23.7v36.78c0,12.22-7.21,23.95-24.44,23.58h-20.65v-84.06Zm12.46,71.72h8.43c10.26,0,11.61-8.19,11.61-11.61v-36.04c0-3.54-1.34-11.73-11.61-11.73h-8.43v59.38Z" fill="#112378"/><polygon points="738.85 213.69 738.85 226.03 693.77 226.03 693.77 213.69 709.65 213.69 709.65 154.31 694.26 154.31 694.26 141.97 738.61 141.97 738.61 154.31 723.21 154.31 723.21 213.69 738.85 213.69" fill="#112378"/><path d="M780.88,226.03l-2.44-16.49h-16.86l-2.44,16.49h-12.83l13.2-84.06h21.01l13.2,84.06h-12.83Zm-17.35-28.47h12.95l-6.48-43.25-6.48,43.25Z" fill="#112378"/><path d="M846.24,153.94v48.87c0,15.52-7.33,24.68-22.6,24.8-15.15,0-22.48-9.29-22.48-24.8v-8.31h12.34v8.31c0,4.52,.73,12.58,10.14,12.58s10.14-8.55,10.14-12.95v-48.14h-28.83v-12.34h41.3v11.97Z" fill="#112378"/><path d="M867.26,202.82c0,4.03,.73,12.34,10.14,12.34s10.14-8.67,10.14-11.61c0-3.42-1.37-9.95-10.51-13.93-14.59-6.36-22.11-10.14-22.11-25.66,0-14.66,7.21-23.58,22.48-23.58,18.2,0,22.6,13.32,22.6,24.8v2.93h-12.46v-2.93c0-3.67-.98-12.46-10.14-12.46-10.75,0-10.14,9.53-10.14,12.1,0,4.03,2.2,8.55,11.36,12.1,10.75,4.28,21.38,9.53,21.38,26.63,0,14.42-7.45,24.07-22.6,24.07-18.08,0-22.48-13.44-22.48-24.8v-7.57h12.34v7.57Z" fill="#112378"/></g><g><path d="M0,.32V367.68H329.19V.32H0ZM316.75,355.24H170.27v-126.93l26.99,26.99,8.17-8.17-40.84-40.84-40.84,40.84,8.17,8.17,26.8-26.8v126.74H12.44V12.76H316.75V355.24Z" fill="#112378"/><polygon points="164.59 91.94 197.26 124.61 205.43 116.45 164.59 75.61 123.75 116.45 131.92 124.61 164.59 91.94" fill="#112378"/><polygon points="164.59 124.61 221.77 181.79 229.94 173.62 164.59 108.28 99.25 173.62 107.42 181.79 164.59 124.61" fill="#112378"/><polygon points="164.59 157.29 246.27 238.96 254.44 230.8 164.59 140.95 74.75 230.8 82.91 238.96 164.59 157.29" fill="#112378"/><polygon points="99.25 238.96 107.42 247.13 164.59 189.96 221.77 247.13 229.94 238.96 164.59 173.62 99.25 238.96" fill="#112378"/></g></svg>