<?xml version="1.0" encoding="UTF-8"?><svg id="a" xmlns="http://www.w3.org/2000/svg" width="16.29in" height="5.11in" viewBox="0 0 1173 368"><path d="M.12,367.68h329.19V.32H.12v367.36ZM12.56,12.76h304.31v342.48h-146.48v-126.93l26.99,26.99,8.17-8.17-40.84-40.84-40.84,40.84,8.17,8.17,26.8-26.8v126.74H12.56V12.76Z" fill="#112378"/><polygon points="164.71 91.94 197.39 124.61 205.55 116.45 164.71 75.61 123.87 116.45 132.04 124.61 164.71 91.94" fill="#112378"/><polygon points="164.71 124.61 221.89 181.79 230.06 173.62 164.71 108.28 99.37 173.62 107.54 181.79 164.71 124.61" fill="#112378"/><polygon points="246.39 238.96 254.56 230.8 164.71 140.95 74.87 230.8 83.04 238.96 164.71 157.29 246.39 238.96" fill="#112378"/><polygon points="221.89 247.13 230.06 238.96 164.71 173.62 99.37 238.96 107.54 247.13 164.71 189.96 221.89 247.13" fill="#112378"/><path d="M416.35,202.86c0,14.4-7.44,24.76-22.57,24.76-18.06,0-22.45-13.42-22.45-24.76v-37.57c0-14.52,7.32-24.76,22.45-24.76,18.18,0,22.57,13.3,22.57,24.76v3.66h-12.81v-3.66c0-3.54-.12-12.2-9.76-12.2s-9.76,8.66-9.76,12.2v37.57c0,3.54.12,12.2,9.76,12.2s9.76-8.66,9.76-12.2v-3.78h12.81v3.78Z" fill="#112378"/><path d="M458.31,226.04l-2.44-16.47h-16.84l-2.44,16.47h-12.81l13.18-83.93h20.98l13.18,83.93h-12.81ZM440.99,197.61h12.93l-6.47-43.19-6.47,43.19Z" fill="#112378"/><path d="M490.89,202.86c0,4.03.73,12.32,10.13,12.32s10.13-8.66,10.13-11.59c0-3.42-1.34-10-10.49-13.91-14.52-6.47-22.08-10.12-22.08-25.62,0-14.64,7.2-23.54,22.45-23.54,18.18,0,22.57,13.3,22.57,24.76v2.93h-12.44v-2.93c0-3.66-.98-12.44-10.13-12.44-10.74,0-10.13,9.52-10.13,12.08,0,4.03,2.2,8.54,11.35,12.08,10.74,4.27,21.35,9.52,21.35,26.59,0,14.4-7.44,24.03-22.57,24.03-18.06,0-22.45-13.42-22.45-24.76v-7.56h12.32v7.56Z" fill="#112378"/><path d="M577.38,202.86c0,14.4-7.44,24.76-22.57,24.76-18.06,0-22.45-13.42-22.45-24.76v-37.57c0-14.52,7.32-24.76,22.45-24.76,18.18,0,22.57,13.3,22.57,24.76v3.66h-12.81v-3.66c0-3.54-.12-12.2-9.76-12.2s-9.76,8.66-9.76,12.2v37.57c0,3.54.12,12.2,9.76,12.2s9.76-8.66,9.76-12.2v-3.78h12.81v3.78Z" fill="#112378"/><path d="M619.35,226.04l-2.44-16.47h-16.84l-2.44,16.47h-12.81l13.18-83.93h20.98l13.18,83.93h-12.81ZM602.03,197.61h12.93l-6.47-43.19-6.47,43.19Z" fill="#112378"/><path d="M639.72,142.11h20.62c17.2,0,24.4,11.1,24.4,23.67v36.72c0,12.2-7.2,23.91-24.4,23.54h-20.62v-83.93ZM652.17,213.72h8.42c10.25,0,11.59-8.17,11.59-11.59v-35.99c0-3.54-1.34-11.71-11.59-11.71h-8.42v59.29Z" fill="#112378"/><path d="M738.42,213.72v12.32h-45.02v-12.32h15.86v-59.29h-15.37v-12.32h44.28v12.32h-15.37v59.29h15.62Z" fill="#112378"/><path d="M780.39,226.04l-2.44-16.47h-16.84l-2.44,16.47h-12.81l13.18-83.93h20.98l13.18,83.93h-12.81ZM763.06,197.61h12.93l-6.47-43.19-6.47,43.19Z" fill="#112378"/><path d="M845.65,154.06v48.8c0,15.49-7.32,24.64-22.57,24.76-15.13,0-22.45-9.27-22.45-24.76v-8.3h12.32v8.3c0,4.51.73,12.57,10.13,12.57s10.13-8.54,10.13-12.93v-48.07h-28.79v-12.32h41.23v11.96Z" fill="#112378"/><path d="M866.64,202.86c0,4.03.73,12.32,10.13,12.32s10.13-8.66,10.13-11.59c0-3.42-1.34-10-10.49-13.91-14.52-6.47-22.08-10.12-22.08-25.62,0-14.64,7.2-23.54,22.45-23.54,18.18,0,22.57,13.3,22.57,24.76v2.93h-12.44v-2.93c0-3.66-.98-12.44-10.13-12.44-10.74,0-10.13,9.52-10.13,12.08,0,4.03,2.2,8.54,11.35,12.08,10.74,4.27,21.35,9.52,21.35,26.59,0,14.4-7.44,24.03-22.57,24.03-18.06,0-22.45-13.42-22.45-24.76v-7.56h12.32v7.56Z" fill="#112378"/><path d="M1006.69,202.74v23.3h-45.02v-8.17c0-17.08,11.35-25.74,22.45-37.21,3.9-3.9,9.76-8.66,9.76-15.37,0-4.51.12-12.32-9.76-12.32-10.37,0-10.13,8.78-10.13,12.32v4.88h-12.32v-4.88c0-14.4,7.32-24.76,22.45-24.76,18.18,0,22.57,13.42,22.57,23.67,0,8.78-4.64,15.25-13.54,24.76-8.78,8.78-18.42,16.47-18.42,24.4h19.88v-10.61h12.08Z" fill="#112378"/><path d="M1060.37,165.41v37.45c0,14.52-7.32,24.76-22.45,24.76s-22.57-10.25-22.57-24.76v-37.45c0-14.4,7.44-24.89,22.57-24.89s22.45,10.74,22.45,24.89ZM1027.79,165.41v21.96l20.01-25.62c-.37-3.9-2.56-9.03-9.88-9.03-10.13,0-10.13,9.15-10.13,12.69ZM1048.05,202.86v-21.96l-20.13,25.74c.61,4.03,2.44,8.78,10,8.78,10.13,0,10.13-9.03,10.13-12.57Z" fill="#112378"/><path d="M1114.05,202.74v23.3h-45.02v-8.17c0-17.08,11.35-25.74,22.45-37.21,3.9-3.9,9.76-8.66,9.76-15.37,0-4.51.12-12.32-9.76-12.32-10.37,0-10.13,8.78-10.13,12.32v4.88h-12.32v-4.88c0-14.4,7.32-24.76,22.45-24.76,18.18,0,22.57,13.42,22.57,23.67,0,8.78-4.64,15.25-13.54,24.76-8.78,8.78-18.42,16.47-18.42,24.4h19.88v-10.61h12.08Z" fill="#112378"/><path d="M1167.72,198.35c0,24.4-14.88,29.28-23.3,29.28s-21.71-4.15-21.71-24.76h12.32c0,7.81,3.66,12.44,9.39,12.44,4.88,0,10.13-2.93,10.13-16.96s-4.88-16.96-10.13-16.96c-3.78,0-6.22,1.59-7.69,3.42-.85.98-1.59,2.07-2.07,3.42h-11.96v-46.11h42.7v11.96h-30.38v19.15c2.2-2.2,4.88-4.15,11.71-4.15,15.13,0,20.98,15.74,20.98,29.28Z" fill="#112378"/></svg>