<?xml version="1.0" encoding="UTF-8"?><svg id="a" xmlns="http://www.w3.org/2000/svg" width="1024.42" height="1024" viewBox="0 0 1024.42 1024"><rect width="1024" height="1024" fill="#17c37b"/><g id="b"><path d="M459.92,715.43c-1.95-2.15-3.9-4.3-5.86-6.46-3.79-3.17-8.04-5.36-12.73-6.58-.49-.24-.97-.49-1.45-.75-3.64-2.59-7.12-5.42-10.51-8.33-5.45-4.66-10.72-9.52-15.81-14.57-2.24-2.22-4.43-4.49-6.59-6.79-.42-.48-.85-.95-1.26-1.43-1.13-1.78-2.43-3.36-3.89-4.75-.05-.2-.09-.4-.14-.6-.68-5.1-2.47-9.81-5.4-14.11-1.34-2.11-2.92-3.94-4.72-5.51-.22-1.03-.45-2.07-.67-3.1-1.28-3.55-3.07-6.74-5.38-9.58-.03-.28-.06-.56-.08-.84.67-5.21,2.97-10.1,3.39-15.36.37-1.75.29-3.46-.22-5.14-.23-1.75-.88-3.35-1.95-4.81-1.01-1.59-2.33-2.8-3.96-3.65-1.43-1.1-3.05-1.77-4.87-2.01-3.4-.44-7.12.04-9.94,2.17-2.74,2.07-5.38,5.26-5.66,8.83-.24,3.01-1.09,5.9-1.9,8.79-.93,0-1.86.02-2.8.1-4.32.21-8.28,1.43-11.88,3.66-1.83.75-3.52,1.69-5.09,2.82-3.02-.62-6.12-.82-9.29-.56-4.32.21-8.28,1.43-11.88,3.66-1.39.56-2.69,1.25-3.93,2.03-2.3-.1-4.6-.19-6.89-.28-5.04-.2-10.09-.24-15.14-.16-5.42.09-10.84.32-16.25.74l-8.12,1.75c-4.22,1.32-7.8,3.57-10.74,6.75-2.45,1.7-4.3,3.9-5.57,6.6-.1.13-.19.27-.29.4-5.87.31-11.74.73-17.62.72-1.66-.15-3.3-.37-4.94-.67-.02,0-.03-.01-.05-.02-2.68-.83-5.36-1.67-8.05-2.5-3.56-.74-7.05-.73-10.48.04-1.54-.47-3.09-.91-4.58-1.32-.32-.09-.63-.18-.96-.24-3.92-.81-8.12-.65-12.06-.68-3.27-.03-6.55.26-9.81.41-3.53.17-7.07.36-10.59.75-6.17.69-12.38,1.92-18.32,3.69-1.58.47-3.13,1.04-4.61,1.76-3.1,1.5-6.26,2.99-9.22,4.74-.7.41-1.37.87-2.01,1.36-.35.27-.68.56-1.02.86-2.39,2.11-4.89,4.21-7.12,6.5-.58.6-1.11,1.24-1.59,1.93-2.88,4.21-5.43,7.73-6.95,12.4-1.43,4.41-2.77,8.71-3.79,13.17-1.55.64-3.1,1.26-4.66,1.87-6.11,2.42-11.88,5.34-17.71,8.41-7.19,3.78-13.89,8.38-20.74,12.72-2.79,1.77-5.61,3.48-8.49,5.1-1.52.68-3.06,1.29-4.64,1.79-5.17.91-10.37,1.72-15.36,3.37-.96.32-1.89.71-2.8,1.15-2.78,1.36-5.7,2.69-8.36,4.3-.5.3-.98.64-1.43,1.01-1.25,1.03-2.58,2.32-3.66,3.3-.67.61-1.54,1.34-2.37,2.11-.19.01-.37.01-.56.04-1.12.24-2.25.49-3.37.73-2.29.82-4.22,2.16-5.8,4.02-4.11,4.09-8.11,8.81-9.95,14.4-1.11,3.37-1.93,6.54-2.21,10.06-.36,4.46-.47,8.95-.62,13.42-.12,3.62-.15,7.24-.03,10.85.13,3.71.53,7.4.78,11.11.48,7.23.5,14.47.7,21.71.17,6.54.5,13.09,1.4,19.57-.39,2.51-.49,5.08-.28,7.7-.7,6.62-2.15,13.15-2.85,19.77-.48,4.63-.59,9.3-.74,13.94-.07,1.98-.06,3.95,0,5.93.12,4.15.49,8.29.99,12.4.94,7.71,2.44,15.33,3.57,23-.51,5.95-.74,11.93-.92,17.91-.18,6.24-.04,12.49.56,18.7.31,3.24.76,6.48,1.38,9.68,1.09,5.53,2.15,11.25,4,16.62,1.32,4.22,3.57,7.8,6.75,10.74,2.68,3.52,6.11,6.16,10.28,7.91,2.68.83,5.36,1.67,8.05,2.5,4.21.88,8.33.71,12.37-.52,2.85-.25,5.45-1.18,7.82-2.79,4.05-1.65,7.45-4.24,10.21-7.77,1.56-2.45,3.12-4.9,4.68-7.35,2.37-5.2,3.32-10.65,2.85-16.35.01-12.81-.3-25.63-1.39-38.39-.33-3.9-.75-7.8-1.24-11.69.37-2.19.81-4.37,1.33-6.51,1.37-3.57,2.97-7.05,4.48-10.56.99-2.31,1.93-4.65,2.71-7.05,1.06-3.26,2.15-6.53,3.05-9.84,1.99-2.71,4.05-5.35,5.87-8.18,2.62-4.06,6.04-8.58,7.71-13.34,1.56-4.43,2.8-8.46,3.41-12.67.23-.26.46-.51.68-.77,3.33-3.84,5.96-8.14,8.59-12.5.44-.72.85-1.46,1.25-2.2.59-.77,1.22-1.51,1.86-2.23,3.42-2.52,7.1-4.65,10.76-6.83,8.01-4.77,14.75-10.9,21.6-17.2,11.46-10.54,20.05-23.58,28.05-36.83,3.7-6.13,7.05-12.46,10.19-18.89.83-2.68,1.67-5.36,2.5-8.05.14-.67.24-1.34.33-2,1.22.38,2.44.76,3.65,1.13,5.6.94,11.07.47,16.43-1.4,2.5-1.27,5.01-2.55,7.51-3.82,2.83-1.97,5.24-4.28,7.28-6.91.47-.15.94-.29,1.41-.42,10.61-1.71,21.46-1.72,32-3.92,2.81-.59,5.78-1.11,8.71-1.82,3.78.13,7.5-.41,11.17-1.6,7.32-1.41,14.69-2.54,22.07-3.57,9.26-1.29,18.6-2.29,27.82-3.9,6.22-1.09,12.38-2.49,18.54-3.86,4.71-.96,9.46-1.77,14.25-2.14,6.79,7.44,13.9,14.59,21.36,21.34,6.27,5.67,12.74,11.28,19.85,15.89,4.13,2.68,8.48,5.74,13,7.91.66.32,1.33.62,2.01.91.5,3.34,1.94,6.69,4.69,8.81,1.02.65,2.04,1.3,3.05,1.94,2.16.98,4.42,1.38,6.79,1.18,3.28,0,7.13-2.33,9.17-4.75,1.11-1.31,2.01-3.01,2.58-4.81,3.18-.78,6.14-2.17,8.88-4.19,3.82-2.43,6.75-5.61,8.8-9.53,2.64-3.43,4.25-7.34,4.84-11.72.12-2.77.24-5.54.35-8.3-.5-5.69-2.36-10.9-5.58-15.63Z" fill="#ccf1db"/><path d="M463.2,981.11c-.55-4.22-2.12-8.08-4.7-11.57-1.95-2.15-3.9-4.3-5.86-6.46-4.5-3.77-9.63-6.16-15.4-7.18-1.05-.04-3.05-.22-5.16-.33-1.35-2.89-2.83-6.03-4.81-8.51-2.18-2.72-4.62-5.34-7.07-7.82-.51-.52-1.06-1.01-1.63-1.47-3.29-2.64-6.96-4.87-10.67-6.86-1.03-.55-2.12-1.01-3.21-1.43-1.14-1.85-2.21-3.76-3.21-5.7-2.43-3.82-5.61-6.75-9.53-8.8-3.43-2.64-7.34-4.25-11.72-4.84-4.21-.88-8.33-.71-12.37.52-4.22.55-8.08,2.11-11.57,4.7-2.15,1.95-4.3,3.9-6.46,5.86-1.72,2.05-3.14,4.25-4.29,6.56-1.25.31-2.5.62-3.74.96-2.52.68-5.02,1.48-7.43,2.49-6.34,2.66-12.51,5.92-18.38,9.52-4.42,2.71-8.67,5.71-12.7,8.97-4.07,3.29-7.92,6.87-11.74,10.42-1.72,1.6-3.37,3.26-4.92,5.02-1.56,2.45-3.12,4.9-4.68,7.35-.83,2.68-1.67,5.36-2.5,8.05-.12,2.77-.24,5.54-.35,8.3.21,4.32,1.43,8.28,3.66,11.88.99,2.76,2.6,5.08,4.84,6.98,1.7,2.45,3.9,4.3,6.6,5.57,2.25,1.88,4.81,3.08,7.7,3.59,3.92,1.59,8.03,2.13,12.33,1.6,31.54-.21,63.08.57,94.61,1.28,4.42.1,8.85.2,13.27.29,1.08.02,2.17.06,3.26.1,2.24.37,4.53.43,6.87.16.74,0,1.49,0,2.22-.02,4.32-.21,8.28-1.43,11.88-3.67,4.05-1.65,7.45-4.24,10.21-7.77,1.56-2.45,3.12-4.9,4.68-7.35,1.96-3.88,2.85-7.95,2.68-12.2.47-2.8.24-5.54-.7-8.21Z" fill="#ccf1db"/><path d="M1017.41,867.34c-.37-7.68-1.14-15.33-1.79-22.99-.68-8.01-1.21-16.05-1.01-24.1.05-.94.1-1.88.18-2.82.29-3.59-.07-6.88-2.17-9.94-1.9-2.76-5.44-5.23-8.83-5.66-2.44-.31-5.05-.14-7.37.76-.32-.44-.63-.88-.98-1.3.94-2.67,1.75-5.44,2.53-8.15.09-.3.17-.59.24-.89.12-.53.18-1.07.23-1.61.24-2.89.44-6.02.36-8.92,0-.29-.03-.58-.07-.87-.22-1.6-.71-3.39-1.02-4.83-.31-1.43-.59-3.19-1.05-4.72-.2-.67-.47-1.31-.77-1.94-2-4.25-4.05-8.31-6.71-12.14-1.26-1.81-2.42-3.69-3.56-5.58-2.32-3.84-4.57-7.74-7.37-11.26-1.95-2.15-3.9-4.3-5.86-6.46-2.45-1.56-4.9-3.12-7.35-4.68-1.44-.45-2.89-.9-4.33-1.35-.95-3.29-2.42-6.4-4.4-9.33-3.41-4.9-7.81-8.61-13.21-11.14-3.82-1.74-7.78-2.71-11.86-2.92-.04-.05-.08-.1-.12-.15-3.83-4.72-7.92-9.24-12.1-13.66-2.45-1.56-4.9-3.12-7.35-4.68-3.88-1.96-7.95-2.85-12.2-2.68-2.77-.47-5.49-.24-8.14.68-.16-.09-.31-.18-.47-.27-3.43-2.64-7.34-4.25-11.72-4.84-2.03-.09-4.07-.17-6.1-.26.14-1.7.12-3.44-.1-5.2l-1.75-8.12c-1.98-5.51-5.21-10.17-9.68-13.96-2.45-1.56-4.9-3.12-7.35-4.68-5.2-2.37-10.65-3.32-16.35-2.85-4.32.21-8.28,1.43-11.88,3.66-4.05,1.65-7.45,4.24-10.21,7.77-2.34,2.57-4.05,5.44-5.14,8.59-2.45,2.03-4.55,4.35-6.3,6.96-4.78,2.01-8.88,5.01-12.28,9.01-1.56,2.45-3.12,4.9-4.68,7.35-2.37,5.2-3.32,10.65-2.85,16.35,0,1.36.02,2.72.03,4.08-2.46,4.32-4.97,8.61-7.53,12.87-1.74,2.89-3.51,5.76-5.3,8.62-4.74,7.33-9.64,14.56-14.72,21.66-1.77,2.47-3.52,4.98-5.36,7.41-.86-.91-1.76-1.79-2.74-2.62-2.45-1.56-4.9-3.12-7.35-4.68-5.2-2.37-10.65-3.32-16.35-2.85-3.89.19-7.49,1.2-10.79,3.04-.77-1.7-1.69-3.34-2.77-4.93-2.43-3.82-5.61-6.75-9.53-8.8-3.43-2.64-7.34-4.25-11.72-4.84-5.6-.94-11.07-.47-16.43,1.4-3.5.99-7.38,3.42-10.16,4.91-1.21.65-2.36,1.38-3.48,2.17-2.24,1.58-4.36,3.32-6.48,5.05-1.93,1.58-3.93,3.06-5.89,4.59-.69.54-1.36,1.1-2.03,1.65-2.49-2.31-5.31-4.21-8.48-5.7-1.67-.84-3.38-1.48-5.12-1.92-.1-.4-.2-.8-.31-1.2-.33-1.2-.73-2.37-1.25-3.5-1.34-2.89-2.75-5.88-4.41-8.6-.28-.46-.6-.87-.95-1.29-.95-1.13-4.89-5.52-5.93-6.53-.08-.07-.15-.16-.23-.23-.18-.16-.37-.32-.56-.46-.08-.06-.17-.11-.25-.17-.72-.52-6.69-4.34-7.44-4.73-.24-.12-.47-.24-.71-.34-.99-.43-3.98-1.29-4.43-1.4-.71-.25-3.1-1.06-4.18-1.28-.22-.05-.44-.08-.67-.11-.96-.14-7.41-.37-8.42-.36-.11,0-.22-.01-.33,0-.3.01-.59.05-.89.1-1.16.18-7.07,1.45-8.23,1.78-.11.03-.22.05-.33.09-.22.07-.44.14-.66.23-3.04,1.26-6.05,2.73-8.82,4.53-.49.32-.95.68-1.39,1.06-2.59,2.22-5.23,4.5-7.61,6.96-1.93,2-3.52,4.32-5.05,6.64-3.75,5.68-7.75,11.18-11.56,16.83-5.17,7.67-10.22,15.44-15.69,22.9-3.01,3.31-4.99,7.1-5.93,11.38-1.59,3.92-2.13,8.03-1.6,12.33.21,4.32,1.43,8.28,3.66,11.88,1.65,4.05,4.24,7.45,7.77,10.21,2.45,1.56,4.9,3.12,7.35,4.68,4.03,1.83,8.21,2.81,12.54,2.94-.97,3.25-1.26,6.61-.83,10.1l1.75,8.12c1.98,5.51,5.21,10.17,9.68,13.96,2.45,1.56,4.9,3.12,7.35,4.68.62.28,1.24.54,1.86.78-3.33,4.59-6.31,9.45-9.13,14.37-2.33,4.07-4.46,8.27-6.78,12.35-6.53,8.84-15.31,15.53-22.97,23.39-4.45,4.58-8.14,9.76-11.89,14.92-3.89,5.35-7.75,10.73-11.94,15.85-2.58,3.15-5.29,6.18-8.17,9.05-.55.44-1.11.88-1.67,1.3-2.63.6-5.11,1.61-7.44,3.06-4.05,1.65-7.45,4.24-10.21,7.77-3.01,3.31-4.99,7.1-5.93,11.38-1.59,3.92-2.13,8.03-1.6,12.33l1.75,8.12c1.98,5.51,5.21,10.17,9.68,13.96,2.45,1.56,4.9,3.12,7.35,4.68,5.2,2.37,10.65,3.32,16.35,2.85.71,0,1.38-.09,2.08-.22,2.88-.54,6.92-1.15,10.06-2.33,2.03-.76,4.01-1.91,5.9-2.87,2-1.02,4.04-1.97,5.95-3.17,5.64-3.54,10.63-8.51,15.41-13.01,6.25-5.89,11.62-12.59,16.73-19.47,6.02-8.13,11.56-16.68,18.78-23.82,6.17-6.09,13.03-11.57,18.64-18.2,2.1.23,4.23.27,6.41.09l8.12-1.75c3.15-1.13,6-2.68,8.59-4.62.82-.12,1.64-.31,2.46-.58,5.01-1.67,9.18-4.77,13.45-7.73,2.45-1.7,4.98-3.29,7.57-4.76l4.36-.94c2.88-1.04,5.53-2.42,7.94-4.14,12.02-3.94,24.63-6.52,34.56-14.88,1.59-1.01,2.8-2.33,3.65-3.96.49-.64.88-1.32,1.2-2.03,5.33,1.15,10.61,2.66,15.95,3.65,4.76.88,9.61,1.08,14.43,1.43,5.29.38,10.59.8,15.85,1.48,4.16.54,8.31,1.25,12.39,2.23,4.88,2.08,9.31,5.16,13.86,7.84,2.66,1.57,5.4,3.06,8.31,4.12,3.95,1.44,8,2.88,12.15,3.64.69.13,1.39.22,2.09.28,3.44.27,6.97.49,10.43.4,4.32-.21,8.28-1.43,11.88-3.66,4.05-1.65,7.45-4.24,10.21-7.77,3.01-3.31,4.99-7.1,5.93-11.38,1.59-3.92,2.13-8.03,1.6-12.33-.35-1.62-.7-3.25-1.05-4.87,1.2-1.09,2.4-2.17,3.59-3.26,3.77-4.5,6.16-9.63,7.18-15.4.12-1.21.22-2.43.31-3.65l2.62.11c-2.58,7.56-3.8,15.57-2.78,23.52.67,5.24,2.03,10.36,3.3,15.48.04.29.09.58.13.88.58,2.71,1.17,5.42,1.75,8.12,1.32,4.22,3.57,7.8,6.75,10.74.92,1.32,1.99,2.45,3.2,3.43-.94,2.82-1.36,5.72-1.24,8.72-.53,4.18,0,8.27,1.58,12.28,1.27,2.5,2.55,5.01,3.82,7.51,3.41,4.9,7.81,8.61,13.21,11.14,4.02,2.36,9.19,3.5,13.44,4.73.04.01.07.02.11.03,2.41,2.17,4.58,4.6,6.78,6.97,3.04,3.28,6.29,6.23,9.82,8.99,3.73,2.91,7.6,5.63,11.58,8.18,6.43,4.12,12.82,8.31,19.69,11.69,6.72,3.3,13.98,5.79,21.26,7.5.53.33,1,.61,1.34.8.16.09.32.19.48.27.22.11.44.2.66.29,1.31.53,4.22,1.32,4.3,1.34,1.23.38,2.92,1,4.39,1.34,4.21.88,8.33.71,12.37-.52,4.22-.55,8.08-2.11,11.57-4.7l6.46-5.86c3.77-4.5,6.16-9.63,7.18-15.4,1.08-3.78,1.76-7.65,2.02-11.58.43-6.3.74-12.66.22-18.97-.46-5.47-1.41-10.88-2.43-16.27.77-14.62,2.39-29.19,3.37-43.8.58-8.65.95-17.3.54-25.96ZM715.89,826.02c.18,1.24.39,2.48.63,3.71-7.15-1.49-14.2-2.23-21.66-2.12-4.84.07-9.65,1.47-14.32,2.49-2.23.49-4.42,1.12-6.58,1.86-7.32,2.51-14.25,6.18-21.05,9.79-2.21,1.17-4.37,2.44-6.5,3.76,4-3.58,7.89-7.29,11.52-11.25,6.19-6.75,11.8-14,17.82-20.89,1.28-1.46,2.58-2.89,3.9-4.31,3.58,1.25,7.3,1.65,11.18,1.18l8.12-1.75c2.67-.96,5.14-2.22,7.41-3.76.2.17.38.35.58.52,2.45,1.56,4.9,3.12,7.35,4.68.81.37,1.63.69,2.45.99-.21.92-.39,1.83-.51,2.74-.44,3.33-.43,6.73-.49,10.08-.01.76.04,1.52.15,2.28Z" fill="#ccf1db"/><rect y="750.67" width="14.67" height="245.46" fill="#ccf1db"/><rect y="750.67" width="14.67" height="245.46" fill="#ccf1db"/><rect x="1009.33" y="796.97" width="14.67" height="203.6" fill="#ccf1db"/><path d="M450.83,827.73c-1.9-2.76-5.44-5.23-8.83-5.66-3.4-.44-7.12.04-9.94,2.17-.89.81-1.79,1.62-2.68,2.43-1.36,1.63-2.27,3.47-2.76,5.5-1.29,3.55-2.95,6.96-4.89,10.2-.35.52-.72,1.03-1.1,1.54-1.46-.18-2.92-.41-4.36-.62-2.02-.3-4.03-.66-6.01-1.16-.71-.27-1.41-.58-2.09-.92-.41-.34-.81-.7-1.18-1.1-2.23-2.34-6.75-3.39-9.84-3.13-3.3.28-7.12,2.08-9.17,4.75-2.13,2.77-3.59,6.28-3.13,9.84.24,1.12.49,2.25.73,3.37.82,2.29,2.16,4.22,4.02,5.8,3.98,4.17,9.62,6.16,15.01,7.7,3.57,1.02,7.27,1.48,10.94,1.97,2.76.37,5.57.64,8.36.55,3.16-.1,6.13-1.06,8.91-2.47,6.12-3.11,9.66-8.61,13.13-14.29,3.19-5.21,5.29-10.71,7.07-16.53.92-3-.48-7.48-2.17-9.94Z" fill="#112378"/></g><path d="M1024,823.14v27l-47.4,16.87c-.74,6.23.21,6.77-2.58,1.14-1.7,4.88-12.44,3.06-12.03,8.98l-1-2.99c-4.46,5.05-2.64.22-6-1.51.61-1.1,2.47-.05,3.75-.81,10.79-6.38,31.15-43.68,65.26-48.69Z" fill="#112378"/><path d="M875,963.14c4.12.3,10.83,2.32,14.59,3.86,2,.82,4.15,4.05,4.45,4.11.86.2,1.68-2.03,3.28-1.85.44.05,6.82,3.29,7.97,3.89,3.32,1.72,9.39,7.44,12.28,9.92,5.16,4.42,4.78,7.73,9.43,12.58l-1.99,1.47c3.92.4,6.76,9.56,6.99,13.01-2.61.01-2.27-.51-.99,1.99-1-.4,0,0-21.51,0-.51,0-1.78-2.86-1.49.99,1.32.1,2.68-.11,3.99,0,.74,4.44-5.8.72-5.99.99-.67,6.36-.46.69-1.07.08-.9-.89-5.11,1.88-3.94-3.07-3.11-.78-1.53,2.83-4.49,3.08-2.34.19-3.31-.8-3.52-3.07-1.87-.35-.47,2.04-1.16,2.77-1.98,2.08-10.49-1.28-10.81-.79-.46.69.96,3.32-1,3.01,1.03-6.43-6.69.41-6.51-6.01-1.04,0-.15,2.89-.94,4.07-1.08,1.61-29.94-.04-35.03,0-2.7.03-7.29,1.91-9.1,1.8-.56-.03-.37-1.74-1.66-2.17-7.16-2.4-5.55.24-6.45.29-31.13,1.4-62.98.14-95.33.02,74.4-32.12,59.38-28.08,101.42-22.08,1.14.16,4.96-3.09,4.6,1.07l1.97-1.98c-.37,3.86,1.88.88,3.44.98.65.04,8.33,1.55,11.93,1.98.76.09.77,2.15,1.89,2.33,6.09.97,34.97.5,40-1.31,1.39-.5,2.87-5.86,5.78-6.59,1.03-8.25-14.73-21.17-21.02-25.39Z" fill="#cfd3e4"/><path d="M90,911.14c1.78,8.24-.47,11.65.1,19.37.73,9.94,7.42,31.67,14.29,38.72,16.05,16.49,47.14-9.02,57.26-25.43,2.8-4.54,5.79-15.23,8.35-18.66,2.86-3.84,4.45-.15,4.76-.07,2.38.6,6.73,1.84,8.89,2.01,3.41.27,10.1-1.72,12.67-1,5.11,1.43-5.56,23.92-7.86,27.02-1.33,1.79-3.37,1.88-3.46,2.06-.34.64,1.74,1.34,1.59,3.05-.52,6.05-22.03,30.13-52.5,38.31-2.31.62-12.02.61-13.44,1.55-1.32.88-.36,2.69-.66,3.07-.45.58-11.79-1.39-14.4,1.01-1.52-3.3-8.11-9.27-9.11-12.06-.63-1.75.8-3.22.51-3.96-.05-.14-1.58,1.34-2.92-.57-1.7-2.42-1.28-9.2-3.08-11.7-.88-1.22-7.33-2.77-2-6.72-2.71.06-3.87-4.38-4.08-6.59-.3-3.23,2.99-1.91,2.08-5.42-4.05,2.69-2.59,6.58-5-21,3.8-1.26,3.95-.68.02-1.99,3.29.56.62-2.31,1.21-5.19.88-4.25,2.78-13.88,6.78-15.82Z" fill="#cfd3e4"/><path d="M792,843.15c2.14,2.18-24.99,33.4-28.37,36.62-6.46,6.16-13.77,14.83-23.63,13.36l51.99-49.98Z" fill="#fffbeb"/><path d="M208,970.15c.96,1.96-16.85,6.73-19,6.97,5.07-10.83,7.7-14.95,19-6.97Z" fill="#cfd3e4"/><path d="M932,1010.14c.09,1.32-.05,2.68,0,4-7.76-1.37-22.6-.9-23.98-1.01-.29-3.85.98-.99,1.49-.99,21.42,0,20.53-.4,21.51,0-1.27-2.5-1.61-1.98.99-1.99Z" fill="#fffbeb"/><path d="M896.02,988.53c-2.91.72-4.39,6.09-5.78,6.59-5.03,1.81-33.91,2.28-40,1.31-1.12-.18-1.13-2.24-1.89-2.33-3.6-.43-11.28-1.94-11.93-1.98-1.56-.1-3.81,2.88-3.44-.98l-1.97,1.98c.37-4.15-3.46-.9-4.6-1.07-36.49-5.21-30.48-9.97-86.22,15.98-15.93,7.42-12.12,6.25-55.19,6.09-.65-.57,6.65-13.03,7.31-13.68,11.57-11.32,55.81-26.75,57.21-46.3-12.45-.43-7.33,6.37-26.52,13.98-20.49,8.13-40.97,20.76-56.13,40.35-4.04,5.23-4.18,4.69-23.87,4.65-15.66-.03-16.01.29-14.48-.99,7.55-5.21,10.73-16.77,15.81-24.22,18.14-26.62,51.93-24.81,67.18-53.82,1.21-6.69-18.87,6.03-21.5,7.04l-.56-.9c-.97,2.17.51,1.01-15.69,7.86-6.67,7.26-30.06,12.71-42.75,33.04h-2c2.93,2.91,2.28,1.66,0,3.99-6.3,6.43-5.91,6.57-10.92,13.32-1.01,1.36-3.14,1.07-4.05,2.22-1.49,1.88-7.13,12.11-7.77,12.45-3.17,1.68-27.95,1.66-28.23-1.49,32.96-52.01,34.83-48.04,45.85-62.09.9-1.15.79-3.38,1.66-4.38.79-.92,19.16-8.11,22.21-9.74,50.92-27.3,46.91-34.79,73.68-32.2,57.77,5.6,177.68,60.78,174.61,85.31Z" fill="#fffbeb"/><path d="M723,968.14c-7.36,11.74-31.2,11.68-44.75,36.75-.83,1.53-1.09,5.05-1.26,5.26-.06.08-1.6-1.06-1.82-.84-.94.97-1.13,3.42-3.18,4.32-2.92,1.28-12.75.94-15.98-.48,5.79-.68,6.77.65,10.87-4.65,15.15-19.58,35.63-32.21,56.13-40.35Z" fill="#cfd3e4"/><path d="M690,941.14c.25,4.52-31.58,18.71-46.93,30.57-4.17,3.22-7.61,14.99-12.07,8.43,8.11-12.4,26.94-23.12,40.24-29.29,3.36-3.66.08-1.71,17.53-9.09.73-1.63.45-1.89,1.24-.62Z" fill="#cfd3e4"/><path d="M629,985.14c1.82,1.21,2.24.61,1.58,3-1.54,5.62-6.76,10.8-8.54,16.41l-3.03-.41c5.33,4.81.12,3.24-1.51,4.97-.99,1.04-.98,3.26-1.72,3.81-.26.19-6,1.34-6.28,1.19-1.1-.57.12-3.34-1.5-3.98,2.83-3.37,3.61-6.43,6.02-9.46.91-1.15,3.05-.86,4.05-2.22,5.01-6.74,4.62-6.89,10.92-13.32Z" fill="#cfd3e4"/><path d="M134.99,791.13c-1.29,0-.98.47-.98-1.99,1.29,0,.98-.47.98,1.99Z" fill="#112378"/><path d="M344,808.14c1.16,2.72.86-1.01,1.52-1.05,2.32-.17,4.95,2.3,5.73,4.31,2.13,5.52,1.24,55.51-.37,60.12-.57,1.64-2.8,1.24-2.89,2.12s1.78.03,2.03,1.15c.53,2.4-.18,5-.89,7.26l1.86,1.07c-3.46-.43-1.44,3.09-2.01,5.34-.19.76-1.61.52-1.79,1.16-.36,1.29.68,4.77-.92,8.26-.93,2.04-9.13,9.62-11.34,11.77-.67.65-.01,2.14-.2,2.31-2.4,2.2-9.33,3.56-10.73,7.7-2.83,1.59-1.71-7.4.98-8.5-4.85-.61-1.77-7.63-3.99-11l4.01-.51c-5.91-2.28-1.54-13.21-2-20.92-.12-2.05-2.33-13.99-3.01-18.58,3.05-1.2,3.96,2.93,4.48,3.01,3.65.54,2.21-7.53,2.51-9.33.13-.77,1.97-.65,2.02-1.26.38-4.79-.89-13.41-1.1-19-.02-.64-2.21.26-1.78-1.76.97-4.59,4.07-4.42,5.54-6.01,4.18-4.5,12.22-11.94,12.33-17.65Z" fill="#cfd3e4"/><path d="M272,901.83c1.85,7.12-.49,17.07,1.2,23.86.2.79,2.23.11,1.81.95l-3.01.51c2.65,1.98,2.42,1.21-2,4,4.09,2.81,1.43,4.79-.99,7.96l3.97,4.01c-5.02,1.24-7.64,9.51-11.22,11.66-.83.5-5.24.82-6.07,1.36-1.19.78-.38,2.18-.94,2.75-.92.93-3.89-1.26-2.76,4.25-3.33.87-1.49-2.56-2-3.01-1.91-1.69-5.1,3.85-5.44,3.87-1.88.13-5.96-2.22-9,.18-.74-2.66-.31-2.56-1.56-.05-7.71-2.19-23.92-4.3-24.02-15.44-.08-9.51,8.39-18.13,18.02-17.56,1.65,2.51-2.67,3.25-1.98,3.97.07.08,1.62-.2,1.95.74.57,1.65.81,5.74,1.12,6.19.06.09,1.44-.7,1.94-.33.94.69,1.68,4.65,5.47.37,1.74-1.97.5-6.17.73-8.49.05-.48,1.65-.37,1.66-.9.08-3.89-.38-11.72-3.88-13.57,23.56,7.59,35.06-24.75,37-17.31Z" fill="#cfd3e4"/><path d="M304,851.14c.68,1.02,2.42,1.13,3.41,3.89s2.58,12.64-.4,14.09c4.96,1.4,2.71,11.6,3.29,16.24.31,2.5,2.6,5.46,2.71,6.29.09.69-1.91.35-1.92.89-.03,1.25,1.35,3.04.88,5.83-.22,1.31-3.83,2.56-3.95,2.77-.74,1.32,1.69.59,1.97,1.7,1.45,5.74-.69,6.51-.95,9.86s1.62,5.33-1.08,8.91l2.04,1.51c-4.46-.9-2.33,1.95-3.55,3.91-4.97,7.94-10.9,11.98-20.44,13.1-1.08-12.97-.99-11.51-1-13,1.7-2.22,1.69-7.8,0-10,.09-4.2-.81-10.79,2-12.98-3.32.19-4.97-9.54-5-12.02,0-.67,3.17-12.38,3.54-12.94,5.62-8.5,13.39-7.05,17.42-20.33.17-.57,1.99-.65,2.08-1.38.2-1.67-1.54-4.3-1.04-6.35Z" fill="#cfd3e4"/><path d="M90,911.14c-2.06-9.54,36.86-48.81,74.97-99.53,8.72-11.6,27.1-43.68,38.3-48.7,4.73-2.12,9.57-1.43,15.41-4.58,4.91-2.65,6.84-6.98,10.37-9.63,11.25-8.45,30.3-5.54,44.52-8.48,21.59-4.48,59.73-18.53,80.86-15,12.7,2.12,42,33.98,49.57,44.93.68,4.65-5.91,7.52-7.29,10.29-4.39,8.82-.25,30.77,3.46,39.99,2.87,7.13,12.7,13.25,20.39,12.57.5-.04.4-1.55,1.14-1.83.83-.32,2.04.14,2.3-.02,3.57,9.33-15.54,6.1-19.74,4.71-10.07-3.31-38.69-44.51-53.69-57.78-1.95-1.73-6.48-1.82-8.56-2.94-.08-.04.14-1.49-.28-1.68-8.19-3.76-7.87-2.03-16.22-2.35-4.33-.17-12.24-3.34-15.51,1.03-18.49-6.5-43.84-21.23-51.37-18.92-8.47,2.6,12.01,13.76,14.01,14.78,18.83,9.57,42.21,15.93,60.54,26.23,12.64,7.1,10.94,7.04,10.81,13.91-.11,5.71-8.15,13.15-12.33,17.65-1.47,1.58-4.56,1.41-5.54,6.01-.43,2.02,1.75,1.11,1.78,1.76.22,5.59,1.49,14.21,1.1,19-.05.61-1.89.49-2.02,1.26-.3,1.79,1.14,9.87-2.51,9.33-.52-.08-1.43-4.21-4.48-3.01-.05-.33.05-.68,0-1,4.94.61-1.7-7.52-2-8-14.02-22.36-29.62-25.93-51.24-37.99-8.28-4.62-17.59-14.56-28.22-15.06-1.35-.06-4.15-.72-3.52,1.53,5.19,18.57,72.44,37.51,70.03,57.88-.09.73-1.9.81-2.08,1.38-4.03,13.28-11.81,11.83-17.42,20.33-.37.56-3.55,12.27-3.54,12.94-7.81-9.18-18.03-19.04-28.79-24.77-2.05-1.09-4.71-.32-5.75-1.14-1.61-1.26-1.79-4.03-2.73-4.82-5.75-4.82-17.26-8.88-23.64-12.9-2.33-1.47-11.69-12.69-15.08-9.37-1.56,18.84,53.61,37.09,63.23,56.35.77,1.53.18,3.81.76,5.65-9.57,10.76-18.7,23.25-35,18-12.4-4-28.7-17.81-43.74-20.78-4.86-.96-2.62.69-3.26,1.78-6.34,10.85-8.16,8.6-17,16-.37.31-2.71.19-3,1.54l2,7.46c-2.56,3.43-5.56,14.13-8.35,18.66-9.84,15.95-40.95,42.18-57.26,25.43-6.86-7.05-13.55-28.77-14.29-38.72-.57-7.72,1.68-11.14-.1-19.37Z" fill="#fffbeb"/><path d="M404,770.14c6.3,9.12,11.34,17.12,13.08,28.55-5.47,5.36-5.88,16.72-12.08,20.47-.27.27,5.6,4.61,1,5.48,5.5,4.27,4.34,4.16,5.01,1.51,1.95,2.66,4.33,3.16,6.97.5-4.76-6.84-5.46-15.05,1.52-20.48,2.57,1.26.46,3.58,1.08,5.02,2.52,5.88,2.39,7.74,4.12,12.71.53,1.54,2.22,1.14,2.28,1.26,1.24,2.28-1.71,1.95-1.76,2.13-.42,1.35,2.27,1.64-1.22,3.86-.26.17-1.47-.3-2.3.02-.75.29-.64,1.79-1.14,1.83-7.69.68-17.52-5.44-20.39-12.57-3.71-9.22-7.84-31.17-3.46-39.99,1.38-2.77,7.96-5.64,7.29-10.29Z" fill="#cfd3e4"/><path d="M188,900.14c3.76,6.06,12.07,8.61,12.99,16h-29.99c8.84-7.4,10.66-5.15,17-16Z" fill="#cfd3e4"/><path d="M310,772.14c3.26-4.37,11.18-1.19,15.51-1.03,8.35.32,8.03-1.41,16.22,2.35.42.19.2,1.64.28,1.68-7.17,9.68-10.61,4.7-27-1v-1.99c-2.4,1.2-1.47,1.23-5,0Z" fill="#cfd3e4"/><path d="M286,940.14c-1.58,1.6-.86,3.13-1-12l1,12Z" fill="#fffbeb"/><path d="M285,927.14c-.01-3.32-.07-6.68,0-10,1.69,2.2,1.7,7.78,0,10Z" fill="#fffbeb"/><path d="M313,773.14c2.51-1.25,1.98-1.59,2,1-1-.35-1.74-.91-2-1Z" fill="#fffbeb"/><path d="M437,826.14c-2.24-11.21-4.38-22.38-7.87-33.29,9.2-8,13.89-25.75,26.89-27.27,13.19,5.64,71.7,60.61,79.97,68.07,19.79,17.84,33.8,24.93,29.48,35.47-4.98,4.89-8.1,11.13-12.49,16.51-4.55,5.56-17.16,15.53-20.06,19.19-13.2,16.7-25.48,34.26-39.92,50.83-1.6,1.84-3.08,5.98-5.32,8.17-2.79,2.73-9.66,5.09-12.29,8.34-9.44-3.59-1.51,1.71-111.28-94.65-4.14-8.24.27-8.67,3.52-12.74,21.75-27.25,19.57-29.02,26.36-21.64,1.11,1.21,1.51,3.12,4.09,5.41,1.3,1.16,9.85,6.92,10.95,7.1,1.62.26,2.47-2.01,2.95-1.51.19.19-.29,1.99.28,2.68,3.67,4.37,6.47.02,6.72.32.33.41-.67,2.67.56,3.08,4.62,1.53,12.64-1.51,16-5.03,6.75-7.06,4.69-18.29,2.99-27.12-.19-.97-1.5-1.71-1.54-1.92ZM495,836.13c-1.81-8.71.6-17.3-11.3-12.79-6.53,2.47-14.97,10.57-18.21,16.79-9.43,18.12,6.44,40.28,35.58,28.57,2.28-.92,5.21-5.78,8.42-6.11,1.07-.11,9.73,3.02,10.06,3.49,4.78,6.72-7.44,13.68-12.39,15.73-3.75,1.55-7.55.31-10.13,3.95,2.55,4.25-1.84,13.27,4.3,13.32,8.04.06,23.68-8.82,28.68-15.71,9.61-13.25,4.86-33.73-12.76-35.98-13.65-1.74-18.05,4.96-29.23,7.26-3.59.74-10.23-.81-10.74-5.13-.96-8.04,11.17-12.94,17.71-13.38ZM460.09,939.05c21.03,4.79,40.98-9.31,31.63-32.14-4.04-9.87-14.73-14.21-22.15-20.85-2.66-2.38-5.96-8.01-8.66-10.34-1.09-.95-16.12-12.24-16.91-11.58.25,5.45-8.6,10.02-6.52,14.97,3.95,9.36,70,45.19,24.62,46.15l-2.02,13.8Z" fill="#ffd007"/><path d="M495,836.13c-6.54.45-18.67,5.34-17.71,13.38.52,4.32,7.15,5.87,10.74,5.13,11.17-2.3,15.57-9,29.23-7.26,17.62,2.25,22.37,22.72,12.76,35.98-5,6.89-20.64,15.77-28.68,15.71-6.14-.04-1.75-9.07-4.3-13.32,2.58-3.64,6.38-2.4,10.13-3.95,4.94-2.04,17.16-9,12.39-15.73-.33-.47-8.99-3.6-10.06-3.49-3.22.34-6.14,5.2-8.42,6.11-28.94,11.63-45.04-10.41-35.58-28.57,3.24-6.22,11.68-14.31,18.21-16.79,11.9-4.51,9.49,4.08,11.3,12.79Z" fill="#112378"/><path d="M460.09,939.05l2.02-13.8c45.4-.96-20.66-36.77-24.62-46.15-2.09-4.95,6.77-9.52,6.52-14.97.79-.66,15.81,10.64,16.91,11.58,2.7,2.33,6,7.96,8.66,10.34,7.42,6.65,18.1,10.98,22.15,20.85,9.34,22.83-10.61,36.92-31.63,32.14Z" fill="#112378"/><path d="M905,898.13c-2.6,0-2,.78-1.99-2.99l1.99,2.99Z" fill="#112378"/><path d="M917.5,878.14c.63.63.63.37,0,1v-1Z" fill="#112378"/><path d="M680.5,783.14c.63.63.63.37,0,1v-1Z" fill="#112378"/><path d="M385.99,659.15c-.64,2.59-.1,2.5-1.99,0h1.99Z" fill="#112378"/><path d="M475,179.14c14.22,4.89,20.71,11.14,53.44,16.08,6.95,1.05,18.33-2.93,25.11-4.23.62-.12.45-1.87.9-1.84,2.14.13,10.13,5.91,12.48,7.57,66.32,46.71,39.24,107.34,39.63,128.98.02.9-1.8,1.71-1.54,2.43.03.08,1.6-.08,1.67.18,1.27,4.78,2.62,8.13,6.42,12.28l3.89,13.56c-13.52-8.41-79.97-3.62-87.95,13.77-.51,1.11.42,3.42-.17,4.18-.35.45-2.41-.2-2.89.07-.08.04.91,1.24.66,1.73-1.3,2.47-.82,1.77-1.69,4.53-.09.3-5.61,4.92,1.04,3.73-1.61,3.98-2.09,16.39-2,21,.05,2.62,3.03,1.99-.99,3.99l-1.01-4.99c-.04-3.4,2.29-9.99-.99-12,1.04,8.45-2.34,19.63,1.99,27-.61,18.69,5.44,29.3,8.58,42.47,4.93,20.75-6.92,31.56-23.58,31.53-3.62-2.63-5.62-3.33-7.51-8l-1.48,1.98c-4.36-9.47-26.29,2.91-14.04,6.54,3.89,1.15,2.77-.43,8.02,2.47-4.07,3.28-4.74,1.26-7,0-12.56-6.97-12.68-8.09-12.04-23.53.14-3.31,1.1-7.26,2.03-10.45-.61.05-1.76-.17-1.98,0-3.88,3-8.92,21.73-7.78,27.26,1.22,5.95,10.41,10.76,15.76,9.73,2.51,3.76,2.75,2.68-.52,4.02l-.97-2.01c-12.81,4.37-29.04,2.22-40.36,5.58-11.73,3.48-23.28,13.48-24.06,24.97-.13,1.93-2.01,1.27-2.12,2.08-.19,1.39,1.02,4.52.78,6.86-.05.46-1.81.25-1.87,1.97s1.31,4.38,1.12,4.51c-4.32,3.14-3.86-9.43-4.03-10.39-.14-.79-1.77-.5-1.86-1.03-.29-1.6,2.48-7.96-1.61-10.55-2.55.02-4.62,15.98-7.49,12.97.78-3.41-2.39-9.13-2.56-11.54s2.82-11.42.57-12.98c-4.1-.04-2.15-1.81-8.03,9.52-.32.31-1.99-1.3-1.99-1.5v-19c0-.89,2.93-6.07-1.53-5.22-2.57.49-3.37,8.3-6.45,5.72-2.28-1.9-3.48-30.21-7.52-33.99-.02,5.45-.48,15.33.49,20.34.21,1.09,2.21.27,2.03,1.15-.2,1.01-1.72.2-1.92.56-.28.49,1.28,2.29.9,2.94-.21.37-1.85-1.06-1.99-1-.65-3.92,1.9-12.24-3-13.02-.21-1.78,2-.03,2.11-2.44.21-4.43-2.11-12.23-2.19-17.03-.06-3.46,1.2-7.46,1.08-10.51-.48-11.56-3.19-22.27-4-33-.61-8.08.45-16.84,0-25,.3-.11.82.16.99-.5.16-5.06-.7-11.06-.42-16,1.16-20.39,10.81-38.85,9.48-58.05-4.96-71.88,9.65-93.9,69.7-127.23,1.05-.58,3.35.22,4.15-.38.36-.27-.3-2.15.7-2.95,1.07-.86,4.47.32,6.41-.28,5.69-1.77,14.22-3.7,18.99-5.6ZM485,362.14c-1.02-1-1.4-3.16-2.72-4.04-.8-.53-11.2-4.9-11.87-4.95-1.24-.1-3.62,1.27-5.94,1.11-1.81-.13-1.05-1.96-2.9-2.2-25.11-3.18-56.98-6.17-69.85,20.36-1.02,2.1.24,6.29-1.71,8.71,10.95,3.72,7.53-17.05,55.37-11.86,2.8.3,9.19,3.1,9.63,2.87,1.91,1.08.58,3.9,1,5-2.67,6.78-17.86,1.99-24.53,2.49-3.98.3-19.95,5.94-22.14,8.76-.27.35.76,1.7.68,1.74-.61.31-2.65-.34-3.99.53-3.66,2.36-6.95,11.83.52,12.42s6.51-4.62,11.52-8.37c4.03-3.01,9.08-3.38,13.44-5.56-6.41,23.57,26.59,24.07,25.49,4,6.66-2.71,13.54,6.83,17.54,7.09s2.98-3.05,4.46-5.1c3.2-4.45,13.36-2.2,11.01,4,5.53-1.03.75-3.8,1.07-7.58.23-2.73,4.37-4.22,2.89-11.72-3.02-15.28-2.77-11.64-8.97-17.7ZM473.73,412.92c.44-.8.96-3.05-.71-2.76.14,2.13.43.93-18.8,8.95-1.82.76-8,1.03-8.21,5.03,8.4.83,23.43-3.37,27.72-11.22Z" fill="#fffbeb"/><path d="M434,640.14c3.73-.86,6.98,7.25,9,5.99,2.58-5.17-3.43.35,14.78,12.7,1.9,1.29,9.82,3.93,10.15,4.4.37.54-.2,2.27.14,2.84.17.29,6.02.11,6.74.36.19.07.31,1.62,1.43,2.01,3.83,1.31,18.86,5.73,22.12,5.48.97-.07,2.08-2.17,2.62-1.78.14.1.02,2.33,1.67,2.92,1.33.48,3.43-.75,5.17-.24,9.97,2.93,5.07,1.08,13.68,1.34,22.51.67,19.42,3.77,22.83,3.73,2.03-.02,8.66-3.07,8.69-5.73l1.5,2.01c3.39-1.25,5.16-4.31,8.47-1.03.62-4,8.89-6.62,10.36-7.9.91-.79,6.71-9.39,7.78-9.98.42-.23,3.13,1.49,3.88.87.25-.2-1.19-2.02-.85-3.27,2.51-9.11,12.18-7.44,10.84-15.72,5.45,1.18,3.39-1.96,4.27-2.74,1.68-1.49,1.11-.37,3.44-3.18.98-1.19,3.79-2.79,4.3-3.92.77-1.67-.17-4.35.47-5.15.76-.95,3.74-1.58,5.59-3.46,3.57-3.63,4.88-11.89,11.94-11.57-2.66-1.97-2.52-1.01,2-4.99,1.7,4.15-.84,6.55-1.27,9.19-.75,4.56-2.04,16.77-3.66,20.17-.59,1.24-2.07.55-3.05.65-.29,1.9,2.27-.05,1.89,2.3-.19,1.2-4.86,13.43-5.7,15.39-18.46,43.3-52.46,62.57-77.83,97.67-2.09,2.9-3.06,8.29-3.46,8.56-.51.35-2.15-.53-2.97.72-1.83,2.79-4.47,13.69-6.37,17.09-.39.69-2.85,1.37-2.61,3.26-6.76-8.24-11-18.31-18.98-26,.25-1.09,3.81-6.21,3.97-6.68.52-1.62-.41-3.9.07-5.64,2.67-9.67,6.58-18.34,8.85-26.49,3.7-13.26-23.69-4.73-81.89-74.19Z" fill="#cfd3e4"/><path d="M503,753.14c-24.49-23.61-93.05-81.97-102.91-111.59-5.15-15.49-5.22-37.13-9.08-53.41,17.4,19.76,25.09,30.63,42.99,52,57.3,68.38,85.54,61.09,81.89,74.19-2.28,8.15-6.18,16.82-8.85,26.49-.48,1.74.45,4.02-.07,5.64-.15.47-3.72,5.59-3.97,6.68Z" fill="#fffbeb"/><path d="M401,218.14c-28.84,29.48-28.65,58.22-25.94,97.45,1.33,19.2-8.32,37.65-9.48,58.05-.28,4.94.58,10.94.42,16-.17.66-.69.4-.99.5-.07.02-.56-.87-.98-1.01.4.7.09,7.61-2.01,5.01-1.68-2.08,1.26-9.58-5-9.01l2.99-1.97c-7,.87-2.68-2.18-3.1-3.57-.18-.58-1.77-.02-1.98-1.88-2.22-19.88-.41-40.96.74-60.64.22-3.83-3.54-10.72,1.34-10.95l-2.03-1.48c-.94-4.38,6.21-3.2,1.04-4.51,4.3-3.06.26-1.19-.04-2.65-1.2-5.84,6.9-28.03,6.94-28.13,1.8-5.22,1.74-14.9,9.09-15.22-4.8-3.31,0-2.78.07-3.54.07-.83-1.47-2.77-1.07-3.43.13-.21,3.42-.38,4.45-1.98.4-.62-.48-2.56.65-4.35,2.49-3.95,18.34-23.79,24.9-22.69Z" fill="#cfd3e4"/><path d="M355.98,423.14c-1.53,1.02-8.57-9.8-10-11.52-.74-.89-2.16-1.04-2.75-1.74-.97-1.16-.21-6.83-7.66-5.76-6.69.96-1.81,6.52-1.57,8.61s-2.45,23.11,2.5,23.39c4.07.23.69-12.5,5.02-13.97,1.44-.49,5.42,6.82,5.81,8.16,3.02,10.47-6.44,27.62-.02,36.54,1.1,1.52,7.84,6.94,9.61,4.19,1.45-2.25-5.83-13.23-.23-20.66,2.92-3.88,2.03-6.8,5.31,57.76-1.4,1.54-9.48-6.68-10.56-7.96-18.68-22.07-27.48-68.32-24.42-96.52,3.73-34.34,35.98-2.43,28.97,19.48Z" fill="#fffbeb"/><path d="M659.01,504.13c-1.51-1.71,1.7-27.45,1.11-32.52-.28-2.44-2.29-.66-2.11-2.46,6.68-1.41,1.47,4.27,7.25,2.75,3.79-1,8.27-8.7,11.74-11.26l-2.98.5c-1.37-3.09,2.84-5.11,2.86-5.44.19-3.64-.65-12.38-3.86-14.55l2.98-.49c-2.3-6.12-2.42-4.73,0-6.51-10.69.37,5.8-20.78,8.02-19.54,12.44,21.71-11.1,86.9-25.01,89.53Z" fill="#cfd3e4"/><path d="M683.73,389.46c1.17.38,5.06,6.78,4.24,8.64-4.92.12-14.77,9.79-13.9,11l1.93.05c-1.97,2.68.51.9-13.99,8.98-1.77-3.97,1.76-6.11,1.8-6.48.2-1.7-1.17-4.68-.17-7.31,1.12-2.93,2.63-2.68,3.11-3.47.7-1.17-.03-3.43.25-3.73.4-.42,3.25.37,4.01-.01.11-.06-1.02-1.55-.14-2.55.18-.2,4.11-3.16,4.37-3.27.99-.42,2.48,1.17,2.76.83.53-.62-1.84-5.16,5.74-2.69Z" fill="#cfd3e4"/><path d="M666.99,446.14c-2.14,4.29,1.04,4.16,1.01,4.47-.08,1.04-1.99,4.74-3,5.51,6.32.78-1.16,11.34-5,12.01l1.03-4.98c6.19,1.96,1.03-2.34.96-2.69-.41-2,1.84-9.87,2.75-12.14.6-1.51-.57-2.7,2.26-2.18Z" fill="#cfd3e4"/><path d="M617,354.14c5.14,3.2,7.34,9.72,12.99,11.01-2.9,3.51-2.75.61,4.01,17.98-.37.3-8.29-1.34-9.31-1.92-2.81-1.62-9.84-13.01-14.69-8.06v-3.01c-3.96.13-7.34,3.04-9.99-.98.39,4.08-5.08.41-7.02,2.99-2.74-.89-9-1.2-12-1-2.83-4.75-.7.92-4,0-1.11-4.41-1.31.63-4,0-4.32-.99-4.19,2.05-4.48,2.01-.78-.11-2.21-2-4.98-2.02-6.29-.04-17.51,5.25-22.78,2.74-6.29-3,.14-10.02-1.76-14.73,14.58-7.36,64.37-13.48,78-5Z" fill="#112378"/><path d="M455,372.14c-.44.24-6.84-2.56-9.63-2.87-47.72-5.18-44.41,15.58-55.37,11.86,1.95-2.43.7-6.62,1.71-8.71,12.87-26.53,44.74-23.54,69.85-20.36,1.86.24,1.1,2.07,2.9,2.2,2.32.16,4.71-1.21,5.94-1.11.66.05,11.07,4.42,11.87,4.95,1.33.88,1.7,3.04,2.72,4.04-2.18,3.12,2.19,11.41-1.66,12.9-3.07,1.18-22.85-4.94-27.87-4.88-1.02.01-.2,1.83-.48,1.98Z" fill="#112378"/><path d="M456,377.14c2.73,7.17,5.16,3.2,10.21,4.23,6.74,1.37,9.87,8.32,12.79,13.77-1.47,2.05-.61,5.35-4.46,5.1s-10.88-9.81-17.54-7.09c1.1,20.07-31.9,19.57-25.49-4-4.36,2.18-9.41,2.55-13.44,5.56-5.02,3.75-3.8,8.98-11.52,8.37s-4.18-10.06-.52-12.42c1.34-.86,3.38-.22,3.99-.53.08-.04-.95-1.38-.68-1.74,2.19-2.82,18.16-8.46,22.14-8.76,6.67-.51,21.86,4.29,24.53-2.49Z" fill="#112378"/><path d="M508,491.14c12.83,9.32,9.81,1.48,17.31-1.3,2.09-.77,4.35.54,4.7.29.18-.13-2.07-2.55,1.01-2.49-2.72-1.34-3.7.05,6.46-6.22,3.09.04,2.07,2.88,3.18,3.77,3.63,2.93,8.76,2,10.84-2.09,2.72-5.35-7.17-25.11-5.48-26.96,5.91-.19,11.28,7.26,12.5,12.46,7.82,33.51-18.14,26.3-22.75,27.78-2.6.83-5.86,5.22-8.49,6.52-18.99,9.39-23.63-2.91-34.26-8.76-5.26-2.9-4.14-1.32-8.02-2.47-12.25-3.63,9.68-16.01,14.04-6.54l1.48-1.98c1.89,4.67,3.88,5.37,7.51,8ZM526.5,491.14c0,1.01-.21,1.21.5.5l-.5-.5Z" fill="#112378"/><path d="M485,362.14c6.2,6.06,5.95,2.42,8.97,17.7,1.48,7.5-2.66,8.99-2.89,11.72-.31,3.78,4.46,6.55-1.07,7.58,2.35-6.19-7.8-8.44-11.01-4-2.93-5.45-6.06-12.4-12.79-13.77-5.05-1.03-7.47,2.94-10.21-4.23-.42-1.1.91-3.92-1-5,.28-.15-.55-1.97.48-1.98,5.02-.06,24.8,6.06,27.87,4.88,3.85-1.48-.52-9.77,1.66-12.9Z" fill="#cfd3e4"/><path d="M531.51,376.14c7.51.86-1.17,15.61.48,16.99.54.46,3.33-.97,3.01.99l-4.98,1.99c6.25,1.42-2.02,13.61,4.98,15.03-5.11,3.7.86,18.77,1.69,27.6.36,3.82-2.02,8.79,1.33,12.86-12.02,9.05-11.67-43.79-14.01-48.47-.54-28.47,5.41-21.24,7.51-27Z" fill="#112378"/><path d="M482,497.14c-5.35,1.03-14.54-3.78-15.76-9.73-1.13-5.53,3.9-24.26,7.78-27.26.21-.17,1.37.05,1.98,0-.93,3.19-1.9,7.14-2.03,10.45-.64,15.45-.53,16.57,12.04,23.53-.76.57-3.56,2.92-4,3Z" fill="#112378"/><path d="M473.73,412.92c-4.29,7.85-19.32,12.04-27.72,11.22.21-4,6.39-4.27,8.21-5.03,19.23-8.02,18.94-6.82,18.8-8.95,1.67-.29,1.15,1.96.71,2.76Z" fill="#cfd3e4"/><path d="M523.99,410.15c-3.74,2.3-.87,3.49-.99,6.98-4.33-7.37-.95-18.55-1.99-27,4.73,2.9-2.67,20.98,2.98,20.02Z" fill="#112378"/><path d="M550,401.14c5.81-2.64,7.33-11.06,15.48-12,1.62.31,1.34,8.42,2.84,10.7,3.86,5.87,14.4,7.7,20.21,3.33,3.33-2.5,3.1-7.08,4.46-9.34.96-1.6,4.42-2.88,6.1-.97,2.64,3.01,2.68,3.32,6.92,6.29-.55,5.95,4.42,7.8-9,19-1.36,1.14-3.49,1.2-4,2.99,7.82,2.43,14.26-.95,22-.99,6.51,2.43,5.07,2.04,8.95,7.5,3.6,5.05,6.76,8.17,6.15,15.04-.17,1.93-2.06,1.33-2.16,2.09-2.06,16.12-10.7,36.46-11.98,54.83-.98,14.11.34,18.96-2.94,30.14-.24.83.99,7.33-4.02,7.4-2.8-29.07-12.53-28.48-12.94-29.11-.29-.44.15-5.34-2.73-9.74-2.64-4.03-6.08-4.92-7.25-6.73-1.08-1.68-.66-4.4-1.32-5.19-.42-.5-2.56-.3-3.23-1.23-2.79-3.91-13.53-19.27-15.13-22.88-1.72-3.89-3.57-15.35-4.34-16.48s-1.99-.59-3.06-.65c3.5-2.71,2.93-5.72-1-7.49l2.02-.99c.8-2.73-1.66-2.31-1.8-3-.5-2.57-.08-5.78-1.07-9.17-2.15-7.37-6.91-15.4-7.16-23.33Z" fill="#fffbeb"/><path d="M543,547.14c1.4,6.93-1.18,15.61-8,18-11.76,4.12-36.55,4.12-49,2-1.79-.31-3.89-2.16-5.99-2-.76,2.95,3.21,2.33,3.98,4.51.68,1.93-2.68,1.57-3.6,4.45-2.13,6.68,13.76,12.13,16.86,16.63,12.69,4.21,24.28.77,29.74,3.41.19-.8-.26-2.65.01-3.02.36-.48,10.59.19,11.99.02-2.43,4.71,3.31,7,4.47,8.97.95,1.62,1.69,8.52,1.64,10.65-.11,4.07,2.42,2.36-1.08,4.37l2,.49-2.5,2.51c-2.14-3.19-6.06-6.29-8.16-9.33-.96-1.4.09-5.23-3.34-4.66,1.46,3.26-2.07,4-2.09,5.42-.04,3,3.45,7.91-.93,9.07l3.01,1.49c-3-.54-2.83,3.94-3.49,4.01-4.85-1.53.75-7.44-6.5-6.01l1.97-1.44-5.96-10.53c-2.91,3.18-.81,3.64-.99,5.41-.03.33-2.66,3.46-2.96,4.31-.28.8-1.01,10.64-3.56,9.25-.94-.51-5.59-11.4-4.63-13.54l-2.88-.46c-.53-1.41,4-.86,1.99-2.97-5.76-6.05-6.76,14.77-13.01,11.41.64-5.72-.84-9.69-1.99-14.42l-10.5,9.99c-1.65-.81.51-2.92.51-3.49v-19.5l-12.49,12.01c1-4.58-2.52-6.12-2.53-6.51,0-.94,1.71-.06,2.04-1.11,1.11-3.51-2.08-3.55-2.07-3.9.06-1.66,3.38-4.52,2.03-7.49h-2.99c.78,3.22-5.18,8.4-9,6.98,3.08-2,2.27-15.32.98-18.48-3.27-8.03-5.79,7.71-7.98,4.5-.65-5.14-3.57-9.69-4.89-14.62-9.52-35.63,8.85-21.27,30.52-18.52,23.42,2.97,46.2,2.24,69.37,2.13Z" fill="#fffbeb"/><path d="M442,542.14c-9.43-2.56,3.2-19.02,5.01-8.01,2.48-3.67,5.33-1.71,8.99-.99,16.61,3.27,20.74,1.61,36.43,2.14,9.87.33,16.81,4.66,27.94,3.73,5.48-.46,12.53-3.43,17.63-3.87,7.19-.62,17.45,1.73,25.53,1.03,7.64-.66,22.78-7.14,19.75.67-.15.38-4.93,6.16-5.32,6.27-.6.18-6.42-4.57-6.97,1.02-3.95-5.27-18.48,2.96-27.98,3.01-23.17.11-45.95.84-69.37-2.13-8.55-1.09-29.29-8.91-31.63-2.87Z" fill="#112378"/><path d="M600,382.14c.67.32,10.23,7.18,11.71,8.3,1.72,1.3,4.63,6.78,7.29,8.2l-1.99.5c9.33,14.55-11.32,1.21-17.92-6.3-1.68-1.91-5.14-.63-6.1.97-1.36,2.26-1.13,6.84-4.46,9.34-5.81,4.37-16.35,2.54-20.21-3.33-1.5-2.28-1.21-10.39-2.84-10.7-8.14.94-9.66,9.36-15.48,12s-4-.1-4.3-.81c-.12-.27-1.79-.07-1.71-.67.22-1.65,4.58-7.19,5.39-9.74.82-2.59-.55-4.6-.39-4.78,1.41-1.63,6.71.2,6.99,0,.24-.17.27-3.09,1.24-3.8,6.28-4.57,41-.06,42.78.79Z" fill="#112378"/><path d="M456,533.14c3.96-5.13,10.23,5.44,12.5-2l.5,1.99c1.87.02,1.29.42,2.47-2l4.52,2.02c.02-6.25,1.01-1.11,1.66-1,4.62.84,9.36-2.43,13.7-1.66,2.23.39,3.57,2.18,6.1,2.48,2.31.27,6.84-1.39,9.89.21l1.65-2.04c.53,5.46,6.08-1.18,6.51-1.02,1.47.54-1.36,4.26,3.25,2.63.19-.07.16-1.43.68-1.51.4-.06,1.86,1.02,3.03.9,4.9-.51,15.61-4.12,15.53,3-5.1.44-12.14,3.42-17.63,3.87-11.13.93-18.07-3.4-27.94-3.73-15.7-.53-19.82,1.13-36.43-2.14Z" fill="#fffbeb"/><path d="M535,565.14l4.99,2.49c-2.88,1.62-2.69,5.35-2.99,5.5-1.1.54-5.04-.61-5.94.13-.42.35.18,2.62-.07,2.88-1.58,1.72-3.14-1.93-4.46-2.1-14.1-1.77-25.05,6.17-40.54-6.9,12.45,2.12,37.24,2.12,49-2Z" fill="#112378"/><path d="M574,371.14c.1.03-.42,1.94.55,2.04,1.59.16,5.32-1.97,6.45-2.04,15.41-1.04,22.06,6.75,19,11-2.48-1.18-28.99-3.33-33-3-3.15-3.75,7.73-3.08,6-8,.33.07.71-.09,1,0Z" fill="#fffbeb"/><path d="M647.77,496.93c-.33.61-2.3.78-2.77,1.71-.19.37,6.1,3.22-1,5.49.94-6.37-4.04-13.54.51-18.99,3.53-.87,4.35,9.75,3.26,11.79Z" fill="#112378"/><path d="M602.99,586.13c-3.67-5.28-4.27-10.72-1.97-16.98,3.87,4.62,3.28,11.58,1.97,16.98Z" fill="#112378"/><path d="M639.99,520.14h-2.99c-.26-5.95-3.18-10.75-1.99-17,2.32,3.74,5.42,12.36,4.98,17Z" fill="#112378"/><path d="M615.99,564.14v12h-5.98c-1.05-3.08,3.71-2.51,4-3.02.26-.46-3.33-9.32,1.98-8.99Z" fill="#112378"/><path d="M654.03,423.61c-.44-4.24.75-10.1-.01-13.82-.22-1.08-1.95-.24-2.03-1.15-.09-.96,1.76.4,2.11-1.96.66-4.44-2.17-3.35-2.11-4.04.09-.96,1.75-.03,1.97-1.11.06-.28.16-5.45.1-5.73-.28-1.16-1.96-.22-2.07-1.16-.11-.95,1.82.38,2.11-1.93.7-5.68.2-30.14-1.43-35.12-.49-1.51-2.34-1.18-2.66-1.47-.46-.41,2.8-1.64,2.71-4.66-.07-2.2-2.6-8.53-2.75-10.77-.81-12.19.22-24.78.11-37l-3.07-.56c3.34-2.54,2.89-13.57-1-15.01v-.97c4.19-.04-.98,0,.07-8.47-5.3-.6-.33-2.63-4.06-2.56,6.46-3.61-8.24-24.91-6.99-26.97.2-.33,2.42.74,1.97-1-5.99.18-8.13-10.44-14.34-17.61-9.54-11.01-27.59-25.82-42.1-33.98-.13-6.08-4.9-10.16-9.1-10.7-4.53-.58-6.12.9-6.37.76-9.41-5.21-38.43-5.51-39.11-9.47-3.25,4.93-42.45-18.48-47.68,2.08-.24-.02-.99-.74-1.3-1.03-.34-1.68-.92-1.25-1.02-.97-1.17-1.13-2.02-1.17-3.32-2.05-9.17-6.19-16.45-3.54-19.33,5.72-1.67,9.93,12.99,16.98,21.93,22.33,24.14,16.32,32.12,27.9,66.44,18,7.28-2.1,17.55-3.72,25.91-10.51,2.71-1.34,7.35-3.97,9.52-6.09,53.25,45.51,29.07,101.1,29.43,121.06.02.9-1.8,1.71-1.54,2.43.03.08,1.6-.08,1.67.18,1.27,4.78,2.62,8.13,6.42,12.28l3.89,13.56c5.14,3.2,7.34,9.72,12.99,11.01-2.9,3.51-2.74.63,4.01,17.98-.37.3-8.29-1.34-9.31-1.92-2.81-1.62-9.84-13.01-14.69-8.06v-3.01c-3.96.13-7.34,3.04-9.99-.98.39,4.08-5.08.41-7.02,2.99,3.15,1.02,10.04,5.78,7,10,.67.32,10.23,7.18,11.71,8.3,1.72,1.3,4.63,6.78,7.29,8.2l-1.99.5c8.23,12.84-5.85,3.59-11.01,0-.55,5.89,4.38,7.83-9,19-1.36,1.14-3.49,1.2-4,2.99,7.82,2.43,14.26-.95,22-.99,6.51,2.43,5.07,2.04,8.95,7.5,3.6,5.05,6.76,8.17,6.15,15.04-.17,1.93-2.06,1.33-2.16,2.09-2.06,16.12-10.7,36.46-11.98,54.83-.98,14.11.34,18.96-2.94,30.14-.24.83.99,7.33-4.02,7.4-2.87-29.76-12.38-28.25-12.94-29.11-.29-.44.15-5.34-2.73-9.74-2.64-4.03-6.08-4.92-7.25-6.73-1.08-1.68-.66-4.4-1.32-5.19-.42-.5-2.56-.3-3.23-1.23-2.79-3.91-13.53-19.27-15.13-22.88-1.72-3.89-3.57-15.35-4.34-16.48-.75-1.1-1.99-.59-3.06-.65,3.5-2.71,2.93-5.72-1-7.49l2.02-.99c.8-2.73-1.66-2.31-1.8-3-.5-2.57-.08-5.78-1.07-9.17-2.15-7.37-6.91-15.4-7.16-23.33-5.93,2.69-4-.1-4.3-.81-.12-.27-1.79-.07-1.71-.67.22-1.65,4.57-7.19,5.39-9.74.82-2.59-.55-4.6-.39-4.78,1.41-1.63,6.71.2,6.99,0,.24-.17.27-3.09,1.24-3.8.83-.61,8.09-2.07,9.78-2.21-3.15-3.75,7.73-3.08,6-8-4.32-.99-4.19,2.05-4.48,2.01-.78-.11-2.21-2-4.98-2.02-6.29-.04-17.51,5.25-22.78,2.74-6.29-3,.14-10.02-1.76-14.73-3.12,1.57-8.51,5.63-9.95,8.77-.51,1.11.42,3.42-.17,4.18-.35.45-2.41-.2-2.89.07-.08.04.91,1.24.66,1.73-1.3,2.47-.82,1.77-1.69,4.53-.09.3-5.61,4.92,1.04,3.73.69-1.69,4.67-3.7,5.51-6,7.51.86-1.17,15.61.48,16.99.54.46,3.33-.97,3.01.99l-4.98,1.99c6.25,1.42-2.02,13.61,4.98,15.03-5.1,3.69.87,18.87,1.69,27.6.36,3.82-2.02,8.79,1.33,12.86-10.74,8.09-12.19-35.06-13.01-45.47l-1.99.99-1.01-4.99c.03,2.72-1.29,8.57,1.99,8.02-3.74,2.3-.87,3.49-.99,6.98-.81,24.82,11.52,39.98,9.74,55.23-1.44,12.38-13.18,18.79-24.74,18.77,12.83,9.32,9.81,1.48,17.31-1.3,2.09-.77,4.35.54,4.7.29.18-.13-2.07-2.55,1.01-2.49-2.71-1.34-3.7.05,6.46-6.22,3.09.04,2.07,2.88,3.18,3.77,3.63,2.93,8.76,2,10.84-2.09,2.72-5.35-7.17-25.11-5.48-26.96,13.1-.42,23.64,35.01,1.26,39.76-3.15.67-9.39-.2-11.51.49-2.6.83-5.86,5.22-8.49,6.52-19.01,9.4-23.59-2.88-34.26-8.76-4.07,3.28-4.74,1.26-7,0-.76.57-3.56,2.92-4,3,2.51,3.76,2.76,2.68-.52,4.02l-.97-2.01c-12.81,4.37-29.04,2.22-40.36,5.58-11.73,3.48-23.28,13.48-24.06,24.97-.13,1.93-2.01,1.27-2.12,2.08-.19,1.39,1.02,4.52.78,6.86-.05.46-1.81.25-1.87,1.97-.06,1.73,1.31,4.38,1.12,4.51-4.32,3.14-3.86-9.43-4.03-10.39-.14-.79-1.77-.5-1.86-1.03-.29-1.6,2.48-7.96-1.61-10.55-2.55.02-4.62,15.98-7.49,12.97.78-3.41-2.39-9.13-2.56-11.54-.16-2.38,2.82-11.42.57-12.98-4.1-.04-2.16-1.81-8.03,9.52-.32.31-1.99-1.3-1.99-1.5v-19c0-.89,2.93-6.07-1.53-5.22-2.57.49-3.37,8.3-6.45,5.72-2.28-1.9-3.48-30.21-7.52-33.99-.02,5.45-.48,15.33.49,20.34.21,1.09,2.21.27,2.03,1.15-.2,1.01-1.72.2-1.92.56-.28.49,1.28,2.29.9,2.94-.21.37-1.85-1.06-1.99-1-.16.08-1.14,2.39-1.99,2.99,9.06-2.31-2.14,10.73,6,10.02-1.84,2.86-3.2,9.61-2.79,12.83.02.13,1.94.33,2.12,1.38.48,2.81-.24,7.02.61,10.15,6.48,1.35-.2.04,1.12,5.55,3.42.1,3.68-.48.93,1.57l2.99,1.52c-4.35,2.9,1.65,9.73,3.1,13.47,1.34,3.48,1.72,8.21,4.33,11.59,1.82,2.36,5.25,2.82,5.42,3.07.38.54.26,4.94,2.76,8.76,11.64,17.81,43.31,48.44,43.91,49.09l1.48-1.99c-.87,5.41,4.67,7.35,7.74,10.33.6.58.12,2.51.28,2.67.11.1,1.93-1.12,2.97-.57,2.13,1.11,1.8,4.28,2.07,4.54.11.1,1.84-1.04,2.87-.46,2.72,1.53,5.69,5.17,7.32,6.12,2.75,1.6,9.82,4.05,13.25,5.65.64.3.52,1.13.52,1.7,3.73-3.75,2.5-3.88,4.49.01,1.32-2.66.86-2.79,1.5,1.01l2.98-2c2.71,8.3,7.59,3.59,11.54,2.99.31-.05.64,2.28,5.08,2.86,6.95.91,6.5-1.93,6.9-1.88.99.12-.03,1.8,1.09,2.01,17.62,3.19,15.86-1.56,25.4-3.56,2.54-.53,3.39,2.46,3.02-2.45,3.47,2.18,15.45-1.25,15-5.98l1.97,1.99c.99-3.28,8.03-5.4,10.49-8.02.75-.79.36-2.78.53-2.99.18-.22,2.47,1.37,2.98,1.03.16-.11.26-2.37,1.41-3.66,4.14-4.64,3.99,1.27,29.56-26.86,2.86-3.15,20.38-24.1,20.86-26.25.27-1.23-.97-3.11-.82-3.24.18-.16,1.93.48,3.06-.68,3.13-3.25,1.78-5.94,1.99-6.22.32-.43,2.77-.36,3.69-1.38,1.37-1.51,5.31-7.53,5.18-9.31-4.02-2.96-.32-.2,1.21-2.01,1.54-1.82,6.89-18.46,6.9-21.04,0-2-1.77-1.17-1.92-1.44-1.2-2.18,1.29-1.82,2.31-3.01,1.02-1.19-.3-3.79,3.58-2.92-3.99-1.33-3.46,0-.02-7.49-5.29-3.31-5.15-1.89,2.02-5.52-4.92-3.24.74-25.41,1-28.57.31-3.69-3.13-7.88,1.01-10.92-4.17-1.16-.48-2.73-.46-4.94.02-3.3-.49-22.02-.15-24.1.2-1.18,2.15-1.86,2.36-3.06.19-1.08-.45-8.66-2.74-7.41l2-2.47c-2.14-1.6-2.68-1.49-.01-1.52-2.65-2.63-3.02-1.97,2-2l-.92-2.55c3.89-.87.23-1.29-.05-3.97ZM598.56,419.34c.72.42,1.47.69,2.24.84-.77-.16-1.52-.43-2.24-.84ZM601.97,420.34c.2.01.39.02.59.02-.2,0-.39,0-.59-.02ZM609.6,418.96c-7.71,2.26,2.35-.93,4.42-.86-1.33-.04-3.05.46-4.42.86ZM615,419.82c.01-.18.03-.42.02-.66.01.24,0,.48-.02.66ZM583.28,536.84c-.15.38-4.93,6.16-5.32,6.27-.6.18-6.42-4.57-6.97,1.02-3.91-5.22-18.6,2.97-27.98,3.01,1.4,6.93-1.18,15.61-8,18l4.99,2.49c-2.88,1.62-2.69,5.35-2.99,5.5-1.1.54-5.04-.61-5.94.13-.42.35.18,2.62-.07,2.88-1.58,1.72-3.14-1.93-4.46-2.1-14.13-1.77-25,6.21-40.54-6.9-1.79-.31-3.89-2.16-5.99-2-.76,2.95,3.21,2.33,3.98,4.51.68,1.93-2.68,1.57-3.6,4.45-2.13,6.68,13.76,12.13,16.86,16.63,13.36,4.43,23.82.55,29.74,3.41.19-.8-.26-2.65.01-3.02.36-.48,10.59.19,11.99.02-2.43,4.71,3.31,7,4.47,8.97.95,1.62,1.69,8.52,1.64,10.65-.11,4.07,2.42,2.36-1.08,4.37l2,.49-2.5,2.51c-2.14-3.19-6.06-6.29-8.16-9.33-.96-1.4.09-5.23-3.34-4.66,1.46,3.26-2.07,4-2.09,5.42-.04,3,3.45,7.91-.93,9.07l3.01,1.49c-3-.54-2.83,3.94-3.49,4.01-4.85-1.53.75-7.44-6.5-6.01l1.97-1.44-5.96-10.53c-2.91,3.18-.81,3.64-.99,5.41-.03.33-2.66,3.46-2.96,4.31-.28.8-1.01,10.64-3.56,9.25-.94-.51-5.59-11.4-4.63-13.54l-2.88-.46c-.53-1.41,4-.86,1.99-2.97-5.76-6.05-6.76,14.77-13.01,11.41.64-5.72-.84-9.69-1.99-14.42l-10.5,9.99c-1.65-.81.51-2.92.51-3.49v-19.5l-12.49,12.01c1-4.58-2.52-6.13-2.53-6.51,0-.94,1.71-.06,2.04-1.11,1.11-3.51-2.08-3.55-2.07-3.9.06-1.66,3.38-4.52,2.03-7.49h-2.99c.78,3.22-5.18,8.4-9,6.98,3.08-2,2.27-15.32.98-18.48-3.27-8.03-5.79,7.71-7.98,4.5-.65-5.14-3.57-9.69-4.89-14.62-.59-2.22-3.13-15.74-2.94-16.91.04-.27,1.39-3.34,1.82-4.47-9.43-2.56,3.2-19.02,5.01-8.01,2.48-3.67,5.33-1.71,8.99-.99,3.96-5.13,10.23,5.44,12.5-2l.5,1.99c1.87.02,1.29.42,2.47-2l4.52,2.02c.02-6.25,1.01-1.11,1.66-1,4.62.84,9.36-2.43,13.7-1.66,2.23.39,3.57,2.18,6.1,2.48,2.31.27,6.84-1.39,9.89.21l1.65-2.04c.53,5.46,6.08-1.18,6.51-1.02,1.47.54-1.36,4.26,3.25,2.63.19-.07.16-1.43.68-1.51.4-.06,1.86,1.02,3.03.9,4.9-.51,15.61-4.12,15.53,3,7.19-.62,17.45,1.73,25.53,1.03,7.68-.66,22.78-7.16,19.75.67ZM602.99,586.13c-3.67-5.28-4.27-10.72-1.97-16.98,3.87,4.62,3.28,11.58,1.97,16.98ZM610.01,576.14c-1.05-3.08,3.71-2.51,4-3.02.26-.46-3.33-9.32,1.98-8.99v12h-5.98ZM630.01,539.13c.92-2.37-2.38-16.13,1.99-13.98-.9,5.64,2.03,9.51-1.99,13.98ZM639.99,520.14h-2.99c-.26-5.95-3.18-10.75-1.99-17,2.31,3.72,5.42,12.35,4.98,17ZM647.77,496.93c-.33.61-2.3.78-2.77,1.71-.19.37,6.1,3.22-1,5.49.94-6.37-4.04-13.54.51-18.99,3.53-.87,4.35,9.75,3.26,11.79Z" fill="#cfd3e4"/><path d="M632,525.15c-.9,5.64,2.03,9.51-1.99,13.98.92-2.37-2.38-16.13,1.99-13.98Z" fill="#112378"/><path d="M574,371.14c3-2.41,2.33-2.68,3,0,3.3.93,1.17-4.74,4,0-1.13.08-4.86,2.21-6.45,2.04-.97-.1-.45-2.01-.55-2.04Z" fill="#cfd3e4"/><path d="M510.05,202.69c-14.68-1.78-44.2-27.28-48.06-28.97-6-2.63-12.55.38-14.59,5.39-.63,1.54-.07,1.29-1.22.82-2.54-1.04-5.68-1.52-8.28-.37-21.84,9.67-73.75,47.07-82.26,75.12-2.18,7.17,8.12,19.05,19.24,8.96,5.33-6.36-4.14-6.58,34.24-38.74,34.16-28.62,38.84-22.54,42.45-30.38.69-1.49.1-1.31,1.22-.82.13.06,36.77,32.21,59.74,30.89,13.78-.79,13.73-22.33-2.49-21.91Z" fill="#cfd3e4"/><path d="M520.66,200.07c-9.84-10.85-12.62-4.52-33.03-11.55-4.71-1.62-12.25-3.56-18.78-7.16-2.98-2.2-5.4-6.79-12.12-7.95-18.81-3.25-33.04,26.02,7.08,40.73,21.17,7.76,56.45,20.77,59.41-2.28.52-4.03-.05-8.44-2.57-11.78Z" fill="#cfd3e4"/><g id="c"><path d="M0,1024h1024v-40.86c-2.98.65-8.76,2.29-11.51,2.09-3.15-.22-4.61-3.05-4.99-3.05-.41,0-4.93,4.76-6.49,4.95.74-4.23-6.35-9.3-6.85-11.71-.33-1.59,1.37-4.63.82-5.28-.23-.28-2.5.72-6.46-2.04-11.35-7.9-15.4-18.83-27.54-24.47.2-4.28,42.69,11.1,54,24,12.4,14.13,9.01,32.57,9.01-24.5-23.67-8.98-18.88-9.56-70.62-15.87-4.23-.52-8.39,1.14-12.39-.64-.42-3.31,17.05-9.47,19.97-11.04,1.57-.84,1.81-3.02,2.2-3.24.85-.49,10.56-3.77,12.19-4.29.72-.23,1.33-3.98,5.18-.94-1.12-4.56,1.16.64,11.66-8.69l11.8-2.28c-5.16,3.21,2.37,6.01,6,4.98l-3.99-1c4.96-5,4.91-3.39,1-5.98l16.99-3.01v-25c-39.99,11.69-66.19,27.82-102.7,47.89-1.29.24-3.38-4.76-7.21-2.05l-1.08-1.83c-.02,4.81.49,3.88-1.99,4.47l2.97,3.51-6.99,1c10.31-19.71,22.69-38.07,37.29-54.7.82-.94,2.95-.75,3.49-1.5.75-1.03.26-4.27,1.38-5.58.15-.18,1.48.81,2.29-.16,1.56-1.88,10.96-17.37,14.48-13.97.55.53-.86,3.27,1.06,2.92,1.09-2.45.55-5.7,1.55-7.96,1.33-3.01,27.41-23.38,41.19-26.02,3.58-.69,10.43,2.94,14.28,2.98v-51l-14.02-14.48c-33.89-47.73-48.12-41.36-54.63-43.89-4.78-1.86-3.54-5.09-4.62-6.85-9.19-14.93-27.05-19.56-42.46-27.49-17.43-8.98-9.46-7.95-16.37-21.68-12.39-24.62-36.32-31.37-130.48-38.52-7.52-.57-9.16,1.19-13.85,1.99-3.88.65-8.64-1.26-10.98-1.08-.58.05-.69,3.26-4.89,2.81-2.48-.27-2.41-2.39-3.47-2.73-17.79-5.69-35.68-11.26-53.27-17.53l-24.59-41.05c6.51-8.64,3.47-30.05,7.12-37.51,1.32-2.69,7.29-2.6,10.04-3.96,22.36-11.04,51.79-128.55,14.69-133.79-3.03-.43-8.56,4.13-10.07.11-.55-32.61,1.51-65.35-4.43-97.56-11.6-62.83-75.07-100.58-132.34-116.66-54.36-15.26-135.53,24.12-170.89,69.87-27.86,36.06-21.89,109.64-22.49,144.01-46.48-8.22-24.22,117.44,15.32,140.17,1.65.95,6.15,1.63,6.49,2.02,1.11,1.27,2.96,20.26,4.14,24.36,2.87,9.92,9.42,19.92,13.9,29.2.9,3.35-3.46,4.09-4.54,5.56-3.69,5.03-13.91,21.18-17.63,24.37-3.52,3.03-26.4,8.34-32.68,10.82-6.73,2.66-15.13,9.49-21.78,10.24-11.66,1.32-22.87-6.99-42.47.26-4.28,1.58-7.74,9.97-17.17,8.98-.6-.06-.57-1.91-1.27-1.97-44.62-3.72-55.48-.9-96.51,13.27-8.9,3.08-14.46,1.7-22.85,9.15-10.93,9.7-9.61,21.03-14.95,33.05-12.8,5.11-74.63,33.69-85.33,39.67-8.16,4.56-16.18,10.7-24.67,13.83v18c1.21-1.23,5.7-.92,5.89-1.15.27-.33-.21-2.19.38-2.58,2.65-1.75,12.82-9.11,14.06-9.56,3.37-1.22,3.37,4.55,3.61-2.2l49.16-26.93c14.39-1.91,26.77-13.64,41.78-10.45-.08,3.86,3.37,6.1,4.55,8.94,1.3,3.15,8.83,26.58,8.63,28.3-.08.65-2,.81-2.07,1.12-.93,3.87,2.15,1.75,3.52,3.48,1.02,1.28,4.79,21.53,4.29,23.57-.21.86-2.22-.18-1.79,1.44,6.81.49,1.25,1.85,1.09,2.08-1.36,1.98,1.59,1.53,2.41,3.87,1.22,3.48,2.49,23.81,1.45,27.36-.26.91-1.75.68-1.82.81-1.4,2.5,2.67,2.13,2.83,3.38.03.26-1.35,1.44-1.4,2.38-.22,4.37-.38,11.66-2.57,15.13-7.67-41.79-21.72-52.63-28.89-69.4-4.07-.8-3.86.14-.13-3.6-7.39,1.56-10.08-11.35-18.48-12.02l16.52,58.54c3.94.65,4.1-.26-1.41,3.39-.77,2.61-1.4,1.57,3.32,4.59l-1.94,2.49,6,1.02c-.45,1.2-1.36,1.55-1.55,3.06-.48,4.02,1.46,12.4,1.45,13.34-.02,4.08-2.56,9.89-.91,14.58-2.88.57-1.6-.84-2.27-2.17-14.83-29.51-17.95-60.14-45.23-82.81-2.06-1.71-16.87-12.36-14.04-4.96,3.43,8.94,13.75,17.48,31.64,79.17.25.87,1.81.79,2.26,2.9,1,4.73-2.39,5.07-2.37,5.39.06.93,1.72.03,2.03,1.16,1.11,4.06-.62,6.2-4.05,2.88-10.04-9.71-12.57-30.08-57.64-60.38-1.1-.74-3.18.52-3.28,1.32-.31,2.43,14.69,19.41,16.51,23.58.61,1.38.33,2.3-.51,3.46l2.96.49c-4.34,2.76.58,1.88,2.88,4.61,3.5,4.15,5.14,12.29,7.12,17.37l-21.99-13.5c-2.76-2.17,1.4-1.13.99-1.98-.59-1.23-3.97-.36-4.5-3.5l-1.48,2.99c.13-3.42-3.83-2.24-5.94-3.57-2.88-1.81-6.2-7.13-7.58-7.42-.6-.13-1.04,3.68-3.49,3v37l32.01,7.51c-.65,3.44-5.97,1.49-7-.51-.02,2.51.5,1.99-2.01,1.99.81-4.24-5.02,4.07-8.99-1.98,1.11,5.83-5.35,1.93-8.58,1.91-.86,0-2.85,2.96-5.43,2.08v17c4,2.49,4.09-.85,4.43-.9,1.08-.19,4.99,3.06,4.59-1.08,3.36,4.7,2.12.19,4.41-.1,2.42-.31,18.64-.85,19.58.1-2.82,6.41-18.82,13.17-27.06,61.36-.13.77-2.05.52-1.95,1.11.12.71,2.09,2.21,2.06,3.95,0,.48-1.9.53-2.24,1.96-3.2,13.25.41,33.07,2.19,46.61H0v33.87ZM663.81,411.66c.2-1.7-1.17-4.68-.17-7.31,1.12-2.93,2.63-2.68,3.11-3.47.7-1.17-.03-3.43.25-3.73.4-.42,3.25.37,4.01-.01.11-.06-1.02-1.55-.14-2.55.18-.2,4.11-3.16,4.37-3.27.99-.42,2.48,1.17,2.76.83.53-.62-1.84-5.16,5.74-2.69,1.17.38,5.06,6.78,4.24,8.64-4.83.12-14.78,9.77-13.9,11,5.16.12-3.18,4.08-12.06,9.03-1.77-3.97,1.76-6.11,1.8-6.48ZM661.03,463.15c6.19,1.96,1.03-2.34.96-2.69-.41-2,1.84-9.87,2.75-12.14.6-1.51-.57-2.7,2.26-2.18-2.14,4.29,1.04,4.16,1.01,4.47-.08,1.04-1.99,4.74-3,5.51,6.32.78-1.16,11.34-5,12.01l1.03-4.98ZM658.01,469.15c6.68-1.41,1.47,4.27,7.25,2.75,3.79-1,8.27-8.7,11.74-11.26l-2.98.5c-1.37-3.09,2.84-5.11,2.86-5.44.19-3.64-.65-12.38-3.86-14.55l2.98-.49c-2.3-6.12-2.42-4.73,0-6.51-10.69.37,5.8-20.78,8.02-19.54,12.43,21.69-11,86.88-25.01,89.53-1.51-1.71,1.7-27.45,1.11-32.52-.28-2.44-2.29-.66-2.11-2.46ZM3.01,813.13c0-1.29-.48-.98,1.99-.98,0,1.29.48.98-1.99.98ZM189,977.13c5.07-10.83,7.7-14.95,19-6.97.96,1.96-16.85,6.73-19,6.97ZM310.09,982.72l1.92.91c-5.28,1.43,1.85,8.08-4.01,8.52l2.01,1.48c.03.9-1.83.07-2.03,1.15-2.05,11.36,6.59,16.47-10.98,20.34l11.11-46.88,4.88-.1c-3.92,3.15-.46,9.87-2.9,14.58ZM353.5,1013.14h-26.5c.01-9.12-.99-7.99,3-8-3.09-5.16-.7-10.49.08-16.23.11-.79,1.96-.74,1.91-1.24-1.09-10.8,2.55-30.44,6.37-39.81,1.59-3.91,2.32-3.99,5.15-6.72,2.62-.67,5.17,28.83,5.43,31.56.36,3.81,1.93,9.41-.93,11.43l2.99,1.52c1.17,3.02-2.14,2.29-2.01,3,.15.88,1.62.09,1.99,1.25,1.01,3.16.1,7.66,1.94,10.84l-1.91,1.39c3.94-.61,4.65,11.02,2.49,11.02ZM385.99,1011.13c-.78-3.55,3.07-.67,5-2.01.32-2.03-2.62-.11-3.07-1.54-.36-1.16-.39-20.72.06-22.8.25-1.15,4.43-.25.01-2.31.03-12.71-2.18-25.26-3.02-37.9-.26-3.95,1.86-6.19,1.98-7.98.02-.37-1.82-.26-2.09-1.94-1.03-6.45-1.83-13.03-2.86-19.51,1.93-2.12,16.13,13.33,17.48,14.51.1.09,22.58,16.52,23.3,17.72.61,1.01-.16,3.15.3,3.66.24.26,4.99.25,6.59,2.41,1.9,2.56-.35,7.14,4.09,5.36.37-.15-.14-1.96.72-1.66,1.07.37,2.13,3.07,3.27,4.02,15.02,12.48,10.43.48,13.24,51.96-64.92.07-54.37.93-65.01-2ZM475.4,972.16c-9.44-3.59-1.49,1.73-111.28-94.65-4.14-8.24.27-8.67,3.52-12.74,21.74-27.25,19.58-29.02,26.36-21.64,4.87,2.85,8.51,3.27,14.02,4.48,2.07.45,3.66,2.2,5.42,2.39.97.1,12.17-2.76,13.59-3.33,9.68-3.86,7.43-12.48,9.97-20.54-2.24-11.21-4.38-22.38-7.87-33.29,9.2-7.99,13.89-25.75,26.89-27.27,13.18,5.63,71.58,60.5,79.97,68.07,21.76,19.61,33.71,25.16,29.48,35.47-4.98,4.89-8.1,11.13-12.49,16.51-4.55,5.56-17.16,15.53-20.06,19.19-13.2,16.7-25.48,34.26-39.92,50.83-1.6,1.84-3.08,5.98-5.32,8.17-2.79,2.73-9.66,5.09-12.29,8.34ZM422,689.64c-6.54,3.35,11.35,5.52,6,11.49l2.98-1.98,29.01,34.01-1.98,1.97c3.84-.15,5.18,2.73,6.99,5.52-7.61-.96-3.71.62-5.21,2.2-2.72,2.86-20.85,11.17-28.8,30.29-26.25-81.88-27.1-80.16-23.94-82.55-8.45-39.25-7.41-22.79,14.95-.94ZM468.06,666.07c.17.29,6.02.11,6.74.36.19.07.31,1.62,1.43,2.01,3.83,1.31,18.86,5.73,22.12,5.48.97-.07,2.08-2.17,2.62-1.78.14.1.02,2.33,1.67,2.92,1.33.48,3.43-.75,5.17-.24,12.38,3.64.05-.56,31.27,2.94,1.65.19,3.06,2.15,5.24,2.12,2.03-.02,8.66-3.07,8.69-5.73l1.5,2.01c3.39-1.25,5.16-4.31,8.47-1.03.62-4,8.89-6.62,10.36-7.9.91-.79,6.71-9.39,7.78-9.98.42-.23,3.13,1.49,3.88.87.25-.2-1.19-2.02-.85-3.27,2.51-9.11,12.18-7.44,10.84-15.72,5.45,1.18,3.39-1.96,4.27-2.74,1.68-1.49,1.11-.37,3.44-3.18.98-1.19,3.79-2.79,4.3-3.92.77-1.67-.17-4.35.47-5.15.76-.95,3.74-1.58,5.59-3.46,3.57-3.63,4.88-11.89,11.94-11.57-2.66-1.97-2.52-1.01,2-4.99,1.7,4.15-.84,6.55-1.27,9.19-.75,4.56-2.04,16.77-3.66,20.17-.59,1.24-2.07.55-3.05.65-.29,1.9,2.27-.05,1.89,2.3-.19,1.2-4.86,13.43-5.7,15.39-18.46,43.3-52.46,62.57-77.83,97.67-2.09,2.9-3.06,8.29-3.46,8.56-.51.35-2.15-.53-2.97.72-1.83,2.79-4.47,13.69-6.37,17.09-.39.69-2.85,1.37-2.61,3.26-6.76-8.24-11-18.31-18.98-26-24.49-23.61-93.05-81.97-102.91-111.59-5.15-15.49-5.22-37.13-9.08-53.41,17.61,20,24.72,30.19,42.99,52,3.73-.86,6.98,7.25,9,5.99,2.57-5.14-3.38.37,14.78,12.7,1.9,1.29,9.82,3.93,10.15,4.4.37.54-.2,2.27.14,2.84ZM600.85,766l-3.8,1.13c-3.52-10.82-6.91-27.05-21.51-25.94-1.14.09-11.57,7.41-12.26,8.22-2.64,3.08-8.64,9.91-10.93,13.07-1.15,1.59-.7,4.9-3.34,5.66-1.89-13.08,7.56-16.48,15.04-24.49,4.62-4.95,19.56-23.6,25.54-24.51,1.12-.17,6.98.66,7.42,1.01.07.06-1.01,1.47-.71,1.76,9.84,9.57,3.29,10.13,4.73,20.62.1.73,2.01.54,2.01,1.11,0,1.35-1.93,2.54-2.1,4.94-.2,2.89.63,16.52-.09,17.42ZM582.02,833.12c3.5-.04,2.96,5.34-1.01,4.03,4.25,2.86-.08,9.83-.91,14.39-4.87,2.98-3.72-4.23-4.08-4.39-1.15-.51-6.18,1.3-3.71-3.81.25-.51,2.65-.98,2.68-1.69.01-.34-1.94-1.53-2.32-2.49-2.29-5.73,1.65-3.47,2.2-4.1.54-.63-.11-3.48.58-4.97.83-1.79,2.28-2.92,3.25-4.61.28-.49-.76-2.14-.65-2.27.63-.73,7.42-.67,5.97-5.05,1.91-.33.41,2.04,1.16,2.86.44.48,2.04.11,2.82.14.93,2.59-1.56,1.6-1.95,2.74-1.14,3.29.52,8.38-4.05,7.26l.02,1.98ZM540.01,778.15c4.55,3.25.76,2.35.07,3.76-2.67,5.51-9.2,24.25-13.07,23.23.7-2.06-1.1-4.99-.99-6.4.05-.61,1.72-.68,1.91-1.36,1.27-4.53,4.77-14.28,7.25-17.94.14-.21,1.3.44,1.8.25-2.96-2.72,6.1-14.67,8.01-13.53,2.53,3.77,1.71,3.89,3.01,0,1.33,5.87-2.64,6.67-5.07,9.46-1.11,1.27,1.7,3.25-2.91,2.55ZM538.94,961.19c1.01,1-3.16,14.18-3.69,16.69-.9,4.26,1.27,11.93-4.24,11.27,3.57,2.5,2.76,6.11-2,6,6.03,3.69-3.14,6.79-1.88,8.89.08.14,1.81-.04,1.94.71.37,2.12-2.45,6.73-2.08,9.39-7-1.54-11.02-.51-17.99-3,1.15,3.87-3.88.38-2.99,0h2.99c-.42-.15-3.61-2.49-3.99-2.01-.16.66.19,4-.01,4h-15l.65-39.01c8.3-8.27,17.16-16.09,25.38-24.47,3.36-3.43,8.73-11.62,11.93-14.15,2.1-1.66,3.48-.47,4.08-.85,1.24-.78-1.62-3.38,2.97-2.53l-2-2.49,29.01-35.5,1.89,1.39-16.01,40.84c-3.84,6.22-5.09,15.77-7.77,23.2l-4.12.58c-.34,1.94,2.37.49,2.93,1.04ZM542.52,1002.91c1.01-3.06-1.58-3.01-1.52-3.27.09-.35,1.59-1.08,1.7-2.15.48-4.45,1.17-16.52,7.29-16.36-.59,6.57.71,2.3-7.47,21.77ZM931.99,1014.14c-4.91-.86-10-.75-14.99-1-1.02,4.04-.92.37-5,0,.74,4.44-5.8.72-5.99.99-.67,6.36-.46.69-1.07.08-.9-.89-5.11,1.88-3.94-3.07-3.11-.78-1.53,2.83-4.49,3.08-2.34.19-3.31-.8-3.52-3.07-1.87-.35-.47,2.04-1.16,2.77-1.98,2.08-10.49-1.28-10.81-.79-.46.69.96,3.32-1,3.01,1.03-6.43-6.69.41-6.51-6.01-1.04,0-.15,2.89-.94,4.07-1.08,1.61-29.94-.04-35.03,0-2.7.03-7.29,1.91-9.1,1.8-.56-.03-.37-1.74-1.66-2.17-7.16-2.4-5.55.24-6.45.29-26.96,1.21-33.85.39-135.32.01-.65-.57,6.65-13.03,7.31-13.68,11.47-11.22,55.82-26.78,57.21-46.3-12.46-.43-7.32,6.36-26.52,13.98-4.58,7.31-16.21,10.54-23.31,15.19-22.86,14.98-22.58,26.66-22.7,26.81-.06.08-1.6-1.06-1.82-.84-.94.97-1.13,3.42-3.18,4.32-5.38,2.36-14.08-.71-20.98-.48-1.61,1.68-6.43,1.67-8,0-4.91,0-2.87,2.89-13,0-.59-.17-3.16.42-1.48-.99,7.55-5.21,10.73-16.77,15.81-24.22,18.15-26.63,51.92-24.8,67.18-53.82,1.21-6.69-18.87,6.03-21.5,7.04.25,4.52-31.58,18.71-46.93,30.57-4.17,3.22-7.61,14.99-12.07,8.43-.06.1.1,2.79,0,3-.69,1.47-1.35,1.34-2,2,1.82,1.21,2.24.61,1.58,3-1.54,5.62-6.76,10.8-8.54,16.41l-3.03-.41c5.33,4.81.12,3.24-1.51,4.97-.99,1.04-.98,3.26-1.72,3.81-.26.19-6,1.34-6.28,1.19-1.1-.57.12-3.34-1.5-3.98-.6.72-.34,2.24-1.75,2.99-3.17,1.68-27.95,1.66-28.23-1.49,32.76-51.71,35.3-48.65,45.85-62.09.9-1.15.79-3.38,1.66-4.38.79-.92,19.16-8.11,22.21-9.74,50.6-27.13,46.96-34.79,73.68-32.2,44.43,4.31,116.35,34.91,153.58,59.92,4.12.3,10.83,2.32,14.59,3.86,2,.82,4.15,4.05,4.45,4.11.86.2,1.68-2.03,3.28-1.85.44.05,6.82,3.29,7.97,3.89,3.32,1.72,9.39,7.44,12.28,9.92,5.16,4.42,4.78,7.73,9.43,12.58l-1.99,1.47c3.92.4,6.76,9.56,6.99,13.01.09,1.32-.05,2.68,0,4ZM618.71,935.97c15.77-46.12,40.54-72.29,42.28-74.84.1.46-8.78,38.52-20.3,60.7-.68,1.31-3.73,3.78-4.09,7.41-6.49,2.81-13.32,4.65-19.11,8.88-2.19-2.08,1.16-1.98,1.22-2.15ZM968.67,968.39c.26.46-.76,1.69-.67,1.74.52.29,2.7-.25,3.98.54,2.03,1.25,12.84,16.62,11.04,18.47l-35.83,1.83c-1.25-4.14-4.83-8.4-6.42-12.12-.64-1.49.5-3.43.25-3.7-.26-.28-2.81,1.42-4.94-.5-2.47-2.23-6.77-9.82-9.02-12.04-4-3.95-34.19-21.91-57.04-19.46-.78-1.37,4.14-4.02,4.44-4.07,2.77-.47,7.06-.56,4.54,2.07,4.91.2,4.8-1.1,5.02-5.99,1.26,3.76.55,3.59,2.48,1,5.51,6.46,62.23-2.75,82.17,32.25ZM956.01,759.38c2.76-3.87,9.11-17.95,12.44-20.34,7.42-5.32,10.24,19.05,3.55,20.12-.43,1.64,1.83.46,2.06,1.61,1.12,5.58-18.13,29.71-20.08,36.37-2.19,1.58-2.11-3.2-2.97-1.99-2.29,3.19,1.04,3.23,1.06,3.52.22,3.24-30.72,41.55-28.99,47.82,1.42,5.13,4.73-2.24,6.13-3.69,7.79-8.05,14.77-19.73,23.79-26.03.48-.33,1.9.57,1.99.37.32-.76-1.16-2.47-.92-2.91.09-.16,2.32-.59,3-1.49,4.99-6.63,9.18-10.66,15.11-16.42,7.4,2.31,6.65,2.45,3.73.24.4-6.39,5.57-6.53,9.43-8.58,2.92-1.56,3.41-3.75,3.67-3.82.89-.25,1.53,1.93,3.48,2.02.75.03-.12-3.13,2.49-2.02-2.3,8.74-5.13,12.52-11.06,18.74-.55.58-.45,2.34-1.16,3.05-.5.5-4.58.76-5.77,2.22,4.64,3.4.32,2-2,4.97v-3.9c-.44,3.16-4.54,7.04-4,7.91l1.99.98c-3.86-.9-2.63,1.91-3.97,3.49-2.86,3.39-7.38,8.75-10.53,11.59-.91.82-2.38-.14-2.44-.03-1.97,3.55-.69,2.56-4.07,6.74-.89,1.1-2.88,4.99-3.14,5.13-.81.43-2.42-.94-3.43-.86-2.66.21-5.35,5.47-.41,3.96-5.71,6.29-10.95,14.69-16.48,21.01-3.52,4.02-5.39,2.67-5.52,2.99-.31.78,1.12,2.18.83,2.86-.16.37-4.82,4.72-5.65,5.77-2.89,3.65-3.27,9.18-8.17,6.38l2.04,1.5c.8,1.49-2.59,5.04-3.04,4.49,2.05-8.36.7-1.07-3-1.99l1.98,1.97c-2.49.57-2.86,7.04-4.62,10.88-.59,1.29-8.68,17.16-11.36,14.14-2.21-21.91,1.62-49.62,11.52-69.29,2.33-4.64-3.45-1.15,8.59-26.1.9-1.86,7.34-14.02,8.05-14.45.97-.58,2.66-.06,3.83-.18-4.55-6.25,21.11-33.49,32.01-48.75ZM946.45,729.08l5.55-.94c.16,6.54-3.99,11.81-6.99,17.23-.53.96-2.26,1.28-2.86,2.37-1.45,2.63-7.44,17.81-8.29,18.35-.64.4-2.01-.94-2.38-.92-.45.03.41,2.09-.34,3.49-1.06,1.98-3.65,3.31-3.86,3.74-54.79,113.52-55.47,127.82-47.28,84.74l3.99.98c-1.33-3.69-.48-3.22-2.99-1.98.14-9.21,17.03-53.4,19.01-54.51,1.1-.61,2.72-.49,3.98-.5-.64-2.57.16-2.23-3-1-1.02-1.25,6.62-18.42,8.04-21.18.55-1.08,2.13-1.31,2.74-2.48,1.36-2.59.88-6.53,3.16-8.89,3-3.1,8.77-.7,4.13-6.85,7.22-12.43,16.76-22.1,27.37-31.65ZM884.17,756.81c.18-.48,6.44-7.26,6.63-7.9.83-2.76-1.82-10.22,3.71-11.78l1.47,2c1.35-2.59-2.05-3.28-2.03-3.5.14-1.29,1.7-3.13,2.37-4.71.43-1.01-.43-2.67-.31-2.74.6-.37,2.48.24,2.99-.06.08-.05-.96-1.43-.71-1.76,4.96-6.58.41-2.63.82-5.53.15-1.08,8.83-18.73,9.47-19.61,2.35-3.23,5.79-2.54,6.43-6.08,1.52-.39.61,1.13,1.36,1.62,5.01,3.35,5.35,6.38,3.8,12.95-3.21,13.57-16.16,39.46-22.96,53.17-.57,1.15.2,3.54-.34,4.18-.39.46-2.55-.17-2.88.08-.17.13,1.18,2.26.84,4.21-.71,4.09-2.77,4.66-3.6,6.28-.73,1.42,1.21,7.23-4.23,4.51-.98,2.54,1.61,1.78,1.79,2.47.21.84-4.08,16.06-4.81,16.53-.6.39-3.57-1.48-3.98-1-2.4,2.74,2.96,3.24,3.01,3.51.63,3.42-7.09,19.18-6.22,24.33l-2.79,1.15c.36-4.94-1.18-11.82-.95-16.48.27-5.49,2.62-16.07,3.39-21.03.31-2,3.41-1.92-.45-2.98,4.22-1.53,4.86-22.98,8.17-31.83ZM847.94,714.8c.28-1.17,2.04-.21,2.07-1.16.03-.91-1.81-.06-2.03-1.15-.28-1.38-.33-14.82-.05-15.8.48-1.68,5.63.72,1.08-1.54,2.51-5.04,2.6-4.01,0-4.01,0-2.51-.52-1.87,2-2.5-2.15.52-2.12-7.05-1.96-8.95.31-3.64,4.02-10.55,3.99-13.04,0-.71-2.13-.39-2.05-.99.17-1.21,3.49-10.88,6-8.53.92.86,2.42,19.98,2.1,22.58-.27,2.13-2.5,1.15-2.09,1.92.65,1.2,2.69.55,3.08,2.98.61,3.79-1.17,8.13-.05,11.98-3.83,1.32-4.02.72-.02,2.05l-3.02,1c6.02,3.08.47,15.35,2.17,19.83,1.3,3.42,3.51,1.42,4.83-.34l1,2c-.53-6.86,4.92-11.84,9.52-16,1.98-.58,2.08,3.59,2.24,4.85,1.19,9.6-.68,11.95-2.75,19.67-.21.77,1.84.21,2.02,1.16.22,1.19-2.54,20.22-3.03,21.58-.5,1.39-2.53,1.23-2.99,2.26-.2.44,2.9-.72.92,4.73-.38,1.05-1.68.45-1.94,1.27-.46,1.5,5.88,3.38-.98,3.51,3.07,2.11,3.13,5.27-1,6.01,3.25,3.77,2.45.33-8.5,63.99-.39-1.13-2.33-2.21-2.45-2.77-4.06-19.06-7.09-62.49-7.07-62.59.2-.91,2.23-.26,2.07-2.07-.22-2.44-2.79-3.92-2.85-5.93-.07-2.44,3.63-2.78,2.78-3.64-.27-.27-1.83.52-1.86-.48-.03-1.11,2.56-2.89-1.12-2.54l1.98-1.97c-4.32-1.55-1.17-14.08-1.15-18.65.02-4.5-1.72-15.35-.9-18.71ZM739.5,776.13c-1.05,3.78,2.97,17.34.29,19.75-1.36,1.23-3.93,1.41-5.55.63-5.52-2.66,3.66-16.69,5.26-20.37ZM722,842.14c.15-1.18-.57-3.37.49-3.99,2.1,1.72,2.69,4.55-.49,3.99-.23,1.87.17,7.61-.07,7.92-.35.45-3.78.86-3.94,1.1-.18.27,1.24,4.33.99,6.38-.4,3.32-7.42,16.34-5.98,26.6l13.57-16.48c2.38-2.92,4.32-8.45,6.4-11.07,1.27-1.6,6.41-3.01,6.83-5.02.25-1.17-1.18-3.04-.68-4.7,1.81-5.99,7.54-13.86,10.17-20.96.39-1.04-.37-2.64-.25-2.71.5-.3,2.37.33,2.81-.16.66-.74,1.4-9.31,6.13-7.91l-2-2.98c3.87-.65,3.61-.22.98-1.5v-2c5.03-2.52,1.24-16.12,11.02-13.51v-4c-.92,1.73-7.08,3.1-4.97.02.06-.09,1.65.14,1.95-.74.83-2.51,4.35-18.56,5.14-19.16.85-.65,4.43.19,5.89-.12.03-2.01-3.14-.34-3.93-2.61-.77-2.21,1.59-5.52,1.87-7.94.21-1.79-1.46-4.15-.89-5.81.65-1.9,3.34-.86,3.98-2.31,1.47-3.34,1.92-14.36,3.23-18.56.65-2.08,2.95-3.82,3.78-6.22.55-1.57,7.98-27.46,11.96-23.53-2.28,4.25,1.12,2.52,1.85,4.6,1.05,2.96.55,5.68-1.84,7.38l3.07.57c.48,9.61,1.7,19.22,2.96,28.74.09.71,1.74.67,1.91,1.37.4,1.57-1.52,3.97-1.49,4.82.08,2.92,4.13,5.7-.45,8.5,3.78.02,3.61-.59,1,2.02,4.82,2.36-2.67,8.7,5,6.98-1-3.98-.14-10.39.9-14.56.53-2.13,2.21-1.09,2.12-1.93-.1-.96-1.69-.16-1.82-.95-.66-4.03-.11-10.78.87-14.81.24-1,4.31-.64-.07-4.25l1.9-.91c-1.5-3.16-.9-6.64-1.27-9.92-.11-1.01-1.78-1.87-1.62-2.65.02-.09,1.67.13,1.76-.48.48-3.25-1.91-6.67,1.24-7.04.16-.91-1.71,0-2.01-1.18-.57-2.34-2.87-24.05-2.57-26.38.2-1.58,1.52-4.17,2.54-5.47,1.68-2.15,22.8-17.18,25.27-18.11,1.04-.39,3.41.07,4.75-.36-1.24,3.25-.82,8.43-2.2,11.33-.9,1.89-3.98,1.27-2.69,3.59.11.19,1.8-.47,2.01,1.54.46,4.44-2.76,10.24-2.23,15.1.25,2.3,2.09.98,2.13,1.95.03.81-1.65.03-2.21,1.86-1.26,4.09.29,6.4,0,9.14-.06.57-1.8.23-1.88,1.94-.3,6.04,2.16,14.85-.57,19.6-.7,1.22-6.42,1.81.67,3.48-2.5,11.93.49,25.32-.93,37.06-.28,2.3-2.1.95-2.11,1.93,0,.39,3.46.59,2.02,6.85-5.33,1.94,3.95,1.59-2.02,4.15,2.76.21,2.93,10.83,0,11,3.54.58.22,5.47,2.09,8.88-5.49,1.85,3.9,1.58-2.09,4.12,5.49,2.67,0,4.63,0,5,0,.91,1.84.07,2.03,1.15.28,1.63.71,13.4.52,14.9-.45,3.51-6.02,5.09-1.51,5.94-2.57,3.79-2.6,2.59-.03,4.5-2.55.65-2.57.3-.25,1.19.64,1.99-.12,12.36-3.74,11.84,2.66,1.02,1.78,7.01.82,9.34-.77,1.87-4.12,1.23-2.72,3.57.08.13,1.88-.06,1.95.63.57,5.27-13.65,38.56-14.89,42.08-.68,1.92-.22,7.89-4.68,8.37-.23.02-2.7-3.07-3.47-3l-1.48,2.97c-3.9-2.88-8.72-4.01-12.95-6.09-1.17-.57-1.52-2.66-1.71-2.74-.43-.18-2.58,1.15-4.21.81-6.54-1.36-12.75-4.36-19.66-3.97,2.45-2.62,16.95-20.24,18.26-20.67,5.46-1.8,6.24,1.79,5.26-2.3l-3.51.49c3.84-6.77,9.29-13.45,12.52-20.48,6.63-14.39,9.42-31.3-11-16-3.58,2.68-27.23,21.72-28.35,23.17-2.13,2.78-3.23,7.67-8.32,11.12-2.24,1.53-7.01,2.42-7.62,2.93-.6.5-1.4,4.67-4.78,5.72l-2.46-1.97c.34,2.58-4.15,8.39-6.01,9.36-.77.4-16.26-1.06-17.35-1.35-.91-.25-.59-1.9-.69-1.96-.68-.43-12.36,4.02-14.32,5.09-2.41,1.33-5.13,4.91-7.73,6.34-.77.42-7.46,1.44-7.78,1.67-.36.27-.03,2.44-1.16,3.29-3.06,2.31-8.85,3.64-11.97,6.55-.56-12.44,42.71-58.1,53.01-70.99,1.74-.35.3,1.7,1.98,1.99ZM654.48,802.17c.22-.03,1.37,1.22,2.26.77.35-.18,4.95-4.35,5.93-5.19,13.98-11.95,23.75-26.55,36.02-40.95.49-.57.26-1.86.31-2.66,4.41,2.97,8.4,10.23,10.49,15.07.52,1.19-.63,2.84-.51,2.93.42.32,2.63-.32,3.02.01.21.18-1.27,3.69.99,4.98l-3.78.23c-18.43,18.47-17.12,17.81-19.15,17.68-3.8-6.2-1.81,2.72-2.08,3.07-.11.14-2.17.1-3.46,1.01-17.64,12.44-33.21,26.61-51.36,37.23-1.35.79-19.29,18.04-22.84,21.11-.34.29-2.58,4.96-3.53,5.52-.93.54-2.64-2.33-4.79,2.66l1.99.99c-1.23,4.84-9.45,6.29-10.82,7.64-.54.54-1.24,9.47-5.13,14.13-1.23,1.47-3.82,1.49-4.59,2.68-.76,1.16,2.75,3.85-2.45,3.06l1.99,1.98c-4.86,1.85-4.65.86-2.01,3.49-28.55,44.2-25.37,79.46-32.98,80.51,1.38-12.56,12.15-48.86,16.2-59.29,1.31-3.37,3.47-3.46,3.7-3.88,2.95-5.41-2.28-7.5,2.07-9.3,1.28-.53,6.63,2.07,1.03-3.51,4.67-.42,1.36-3.22,2.18-6.24,1.87-6.93,6.44-21.3,13.81-22.79-2.83-2.25-2.35-2.17-1.21-5.71,1.44-4.48,23.59-47.49,25.7-49.38.68-.61,1.75-.12,2.5.1,1.9-2.11-5.09-2.48-.22-3.13-.2-1.27-.64-2.22-.05-3.54,1.13-2.5,21.67-46.57,23.27-44.34,1.29,15.62-7.61,30.45-5.99,45.99-3.47.66-3.1-.24-4.99-1.98-1.24,4.46,2.42,2.4,2.84,3.08.61.98.07,5.44,1.16,6.91.81,1.08,2.92-.11.98-1.97,3.93-.46,7.45-4.09,11-5.41.99-.37,2.84.61,3,.4.19-.26-.33-2.57.58-3.97,1.36-2.08,8.71-6.17,9.2-7.31.43-1-1.33-2.54-.3-2.7ZM351.43,500.17c-18.68-22.07-27.48-68.32-24.42-96.52,3.74-34.48,35.95-2.36,28.97,19.48-1.53,1.02-8.57-9.8-10-11.52-.74-.89-2.16-1.04-2.75-1.74-.97-1.16-.21-6.83-7.66-5.76-6.69.96-1.81,6.52-1.57,8.61.24,2.1-2.45,23.11,2.5,23.39,4.07.23.69-12.5,5.02-13.97,1.44-.49,5.42,6.82,5.81,8.16,3.02,10.47-6.44,27.62-.02,36.54,1.1,1.52,7.84,6.94,9.61,4.19,1.45-2.25-5.83-13.23-.23-20.66,2.97-3.94,2.04-6.66,5.31,57.76-1.4,1.54-9.48-6.68-10.56-7.96ZM379.99,537.15c-3.76-1.91-3.59-1.07-1-3l-2.92-.08c-1.32-5.5,5.33-4.21-1.12-5.55-.85-3.13-.13-7.34-.61-10.15-.18-1.05-2.1-1.26-2.12-1.38-.41-3.22.95-9.98,2.79-12.83-8.14.71,3.06-12.33-6-10.02.85-.6,1.83-2.91,1.99-2.99-.65-3.92,1.9-12.24-3-13.02-.21-1.78,2-.03,2.11-2.44.21-4.43-2.11-12.23-2.19-17.03-.06-3.46,1.2-7.46,1.08-10.51-2.96.59-1.82-1.44-2.15-3.29-1.44-7.98-3.23-18.82-3.39-26.77-.03-1.54-.34-2.32,1.54-2.94-.85-11.27,1.41-25.19-.98-26.01.4.7.09,7.61-2.01,5.01-1.68-2.08,1.26-9.58-5-9.01l2.99-1.97c-7,.87-2.68-2.18-3.1-3.57-.18-.58-1.77-.02-1.98-1.88-2.22-19.88-.41-40.96.74-60.64.22-3.83-3.54-10.72,1.34-10.95l-2.03-1.48c-.94-4.39,6.2-3.2,1.04-4.51,4.3-3.06.26-1.19-.04-2.65-1.23-5.96,6.9-28.03,6.94-28.13,1.8-5.22,1.74-14.9,9.09-15.22-4.8-3.31,0-2.78.07-3.54.07-.83-1.47-2.77-1.07-3.43.13-.21,3.42-.38,4.45-1.98.4-.62-.48-2.56.65-4.35,2.57-4.09,18.42-23.78,24.9-22.69,13.86-14.16,26.88-20.42,43.75-29.78,1.05-.58,3.35.22,4.15-.38.36-.27-.3-2.15.7-2.95,1.07-.86,4.47.32,6.41-.28,5.69-1.77,14.22-3.7,18.99-5.6.69-.27.92-1.92,1.01-1.99,1.24-.89.65,1.88,1.55,2,3.84.52,4.61-1.24,24.98-1.52,3.26-.04,11-4.61,10.95,1.52l.55-2.99c3.86-.86,4.83,1.63,5.13,1.7.85.18,1.9-.78,3.07-.54,2.5.49,1.27,3.57,3.72-.16.57,3.28,6.66,1.92,10.77,3.67,1.53.65,1.16,2.25,1.29,2.29.64.21,1.99-1.64,4.05-1.5,1.71.12,29.04,10.33,32.21,11.76,15.14,6.82,37.37,24.51,48.35,37.18,6.3,7.27,8.3,17.78,14.34,17.61.44,1.74-1.77.67-1.97,1-1.3,2.15,13.51,23.34,6.99,26.97,3.73-.07-1.24,1.96,4.06,2.56-.42,3.37-.34,5.83,1.93,8.45-2.46.02-2-.29-1.99.99,3.88,1.44,4.33,12.46,1,15.01l3.07.56c.11,12.22-.92,24.81-.11,37,.15,2.24,2.69,8.56,2.75,10.77.09,3.02-3.17,4.25-2.71,4.66.32.29,2.17-.04,2.66,1.47,1.63,4.98,2.13,29.45,1.43,35.12-.29,2.31-2.22.97-2.11,1.93.11.94,1.79,0,2.07,1.16.07.28-.04,5.45-.1,5.73-.22,1.08-1.88.15-1.97,1.11-.07.69,2.77-.41,2.11,4.04-.35,2.36-2.19,1-2.11,1.96.08.91,1.81.07,2.03,1.15.76,3.71-.43,9.58.01,13.82.28,2.68,3.94,3.09.05,3.97,1.19,3.32,1.95,2.55-3.08,2.57l1.99,1.98-2,.02c2.54,1.9,2.53.86.02,3.97,2.3-1.25,2.94,6.33,2.74,7.41-.22,1.2-2.17,1.88-2.36,3.06-.34,2.07.17,20.79.15,24.1-.02,2.21-3.71,3.78.46,4.94-4.14,3.04-.7,7.23-1.01,10.92-.22,2.71-5.84,25.38-1,28.57l-5.99,3.03c5,3.13,4.74.8.99,8.98l2.99,1c-3.88-.87-2.56,1.73-3.58,2.92-1.02,1.19-3.51.83-2.31,3.01.15.27,1.92-.55,1.92,1.44-.01,2.57-5.36,19.22-6.9,21.04-1.53,1.81-5.23-.95-1.21,2.01.13,1.79-3.81,7.8-5.18,9.31-.92,1.02-3.36.95-3.69,1.38-.21.28,1.14,2.97-1.99,6.22-1.12,1.16-2.87.52-3.06.68-.15.13,1.09,2.01.82,3.24-.33,1.48-17.7,24.87-41.25,46.8-2.94,2.74-6.67,3.52-9.16,6.31-1.15,1.29-1.25,3.55-1.41,3.66-.5.34-2.79-1.25-2.98-1.03-.17.21.22,2.2-.53,2.99-2.47,2.62-9.5,4.74-10.49,8.02l-1.97-1.99c.45,4.74-11.53,8.16-15,5.98.37,4.91-.48,1.92-3.02,2.45-9.54,1.99-7.78,6.75-25.4,3.56-1.12-.2-.1-1.89-1.09-2.01-.4-.05.05,2.79-6.9,1.88-4.44-.58-4.77-2.91-5.08-2.86-3.94.6-8.83,5.31-11.54-2.99-3.75,2.52-2.83,2.91-3.49-1.02-1.42,2.87-.88,2.24-2.52-.98l-2.96,2.98c0-.57.12-1.4-.52-1.7-3.44-1.6-10.51-4.05-13.25-5.65-1.63-.95-4.6-4.6-7.32-6.12-1.03-.58-2.76.56-2.87.46-.27-.26.05-3.42-2.07-4.54-1.04-.55-2.86.68-2.97.57-.16-.15.32-2.09-.28-2.67-3.07-2.98-8.61-4.92-7.74-10.33l-1.48,1.99c-.79-.84-32.38-31.45-43.91-49.09-2.5-3.82-2.37-8.21-2.76-8.76-.18-.25-3.61-.71-5.42-3.07-2.61-3.38-2.99-8.11-4.33-11.59-1.44-3.74-7.44-10.57-3.1-13.47ZM352.01,684.13l1.98,1.01c-2.26-5.67-2.99-4.99,1.01-5.02-2.53-4.38-2.92-3.32.99-4l-1.73-1.13c.65-1.47-.31-3.23-.21-4.26.05-.47,2.85-6.74,2.93-7.2.32-1.92-.65-7.48.07-10.7.1-.44,3.15-4.45,4.94-3.72l-4.01-1.48c3.83-.95.76-3.12,1.45-5.55.82-2.92,3.98-7.59,4.14-8.41,1.45-7.42.6-10.17,3.72-17.79,2.08-5.07,4.06-14.19,10.69-13.75l-2.99,2.98c1.08.05,2.29-.44,3.06.66,1.98,2.8,2.83,31.24,6.02,36.93-.08,2.7-4.39.38-.09,3.41l-3.96,1.07c-1.43,3.16,2.7,2.51,1.98,4.44-.14.38-5.77,4.8.7,5.26,4.21.3,4.35-2.73,5.85,5.21.43,2.27,2.19,11.24,2.23,12.39.1,3.17-4.08.58-1.43,7.31.16.41,1.71.54,2.22,2.22,1.51,4.99-.07,7.16-.23,10.61-.08,1.79,3.55,1.12-.34,3.49,5.68,1.65,3.76,13.26,4.5,17.53.71,4.14,6.07,7.34.5,10.47,3.83-1.26,4.36,10.13,4.01,11.4-.33,1.18-2.43-.07-2.01,1.61,8.58-.04,3.51,7.72,6.99,13-2.32,2.48-18.86-25.73-35.3-35.68-3.48-2.1-12.2-3.77-16.58-5.93-8.32-4.1.98-3.1-4.14-4.9,2.4-6.29,1.04-14.45,3.03-21.49ZM167,653.14c.28.23-.24,2.29,0,3,1.95-.04.26-4.09,2.52-5,8.15,3.77,7.13,4.29,4.48-.99,7.32-1.98,16.32-1.3,22.5-6,.67,2.66,0,2.39,3,0,1.72,4.09,9.35,1.19,13.77,2.05.69.13.82,1.75,1.54,1.88,4.85.87,15.84.11,14.23,7.59,2.54-2.69,6.28,6.37,6.04,7.91-.17,1.07-2.54-.1-2.07,1.56.67-.12,1.74.11,1.95.75,1.87,5.68-.19,34.17-1.09,41.66-.24,1.97-.44,4.91-2.86,4.63-.43,1.71,1.58.61,1.92,1.07.77,1.06-2.68,3.14.48,2.83,5.04-.49,2.49-2.46,3.84-6.1,5.5-14.79,19.11-49.55,19.98-50.56.91-1.05,3.63-1.08,3.76-1.27.14-.2-1.21-2.16-.38-4.77,1.81-5.68,5.34-10.25,8.4-15.22,4.36,2.53,3.63,2.67,2.97,0,6.38-1.42,19.64-2.45,22.26,5.26.46,1.35-1.58,14.78-2.2,16.09-.7,1.47-3.21-.01-3.07,1.14.03.96,1.83,0,2.07,1.13,1.47,6.9-5.61,15.7.96,36.88,1.53,4.92,3.26-4.87,3.81-6.14,1.41-3.22,3.3-6.32,4.61-10.14.16-.47,3.47.58-.43-2.73,3.88-.86.64-2.73.99-3.91,2.58-8.54,6.63-7.94,7.61-11.56.82-3.04-.82-4.53-.64-6.37.03-.34,2.3-1.37,3.08-3.06,3.05-6.66,3.75-12.08,8.35-17.7.75-.92.52-2.77.64-2.87.73-.61,3.78,1.21,3.96,1,.17-.2-.2-2.18.96-3.45.57-.63,8.3-4.09,9.09-.02,1.78,9.17-10,31.73-9.04,42.46l-2.98-1c-.86,2.93,2.06,1.16,2.07,3.42.05,10.12-7.28,24.81-5.21,35.94-1.46.43-6.2,4.48-6.59,4.61-6.13,2.04-14.65,3.11-20.61,4-.48.07-3.73,4.28-8.67,1.04,1.33,3.97,2.21,2.78-5,3.99,3.77-3.79,3.78-1.98,0-6.98,5.19-1.34,4.72-.18,1.15-4.29,3.41-21.74,2.57-42.47-.15-64.22-6.35-2.53-3.13,7.53-8.01,5.49l-.99-1.99c-1.49,3.32,2.12,3.99,2.1,5.45-.01.89-3.77,16.62-4.3,17.34-.75,1.01-5.23.23-6.79,2.23.36,2.71,4.73-1.05,4.99,2.46.06.87-1.87,10.84-2.21,11.3-.77,1.04-3.6.5-3.88,1.86-.34,1.66,1.32,5.52,1.01,8.72-.66,6.72-4.5,14.9-4.98,22.08-8.36,3.79-17.92,3.3-26.64,7.36-6.97,3.24-11.8,9.16-18.29,12.2,3.01-3.46-.31-6.74.08-8.43.31-1.34,4.11-.5,2.88-5.88-.17-.77-1.74-.58-1.81-1.15-.24-1.75.86-7-.15-9.54l2.98,1c0-5.03.89-4.3-3-3v-22.4c-5.25-6.89-3.1-23.36-10.98-26.6l-1.02,10-2.98-1c-.95,3.56,2.41,2.12,1.98,5.34-.06.43-.7-.1-4.95,25.1-1.26,7.45-2.99,28.61-5.2,33.9-.86,2.06-4.47,1.73-4.82,3.15-.28,1.16,3.01,2.87,3.02,3.09.12,5.01-6.19,10.1-4.04,15.41-7.79-.25-2.72-8.33-2.32-12.62.67-7.28-.38-15.08.36-22.85.22-2.36,4.08-3.81-.01-3.53-1.19-2.43,1.67-1.73,1.78-2.46.13-.85.28-7.85.19-8.83-.07-.73-1.87-.66-1.93-1.33-.61-7.32.67-16.87-1.53-23.95-1.01-3.24-3.02-2.93-3.5-4.1-1.71-4.14-1.19-14.88-5.78-24.09-1-2.01-2.16-1.08-3.24-4.23-5.04.1-2.71-5.24,0-3ZM131.01,702.15c-5.79.94-1.84-3.63-2.18-5.55-.06-.35-3.75-3.31-3.87-5.96-.01-.32,5.98-3.23-.95-1.51-2.87-13.55,8.04-30.18,22.64-29.97,3.77.05,2.82,2.49,3.47,2.84.37.2,2.39-1.4,4.84-.39,3.15,1.29,2.85,5.72,5.89,7.19-1.33,4.03,2.24,7.12,2.25,10.91,0,2.25-2.95.51-2.08,3.43l2.98-1c-.01,4.86,11.73,66.45-8.49,124.01-3.71-4.6.12-8.82.51-11.53.05-.37-5.15-1.64-.01-5.47-5.56-1.01-1.61.38-4.35-18.33-.2-1.39-1.89-3.14-2.35-5.45-.88-4.46,1.57-4.38,1.58-4.67.23-6.59-3.56-5.39-3.91-6.2-.55-1.27-14.86-39.7-15.95-52.37ZM164.97,811.6c8.72-11.6,27.1-43.68,38.3-48.7,4.73-2.12,9.57-1.43,15.41-4.58,4.91-2.65,6.84-6.98,10.37-9.63,11.25-8.45,30.3-5.54,44.52-8.48,21.59-4.48,59.73-18.53,80.86-15,11.81,1.97,58.08,43.57,62.65,73.48-5.47,5.36-5.88,16.72-12.08,20.47-.27.27,5.6,4.61,1,5.48,5.54,4.3,4.34,4.15,5.01,1.51,1.95,2.66,4.33,3.16,6.97.5-4.76-6.84-5.46-15.05,1.52-20.48,2.57,1.26.46,3.58,1.08,5.02,2.52,5.88,2.39,7.74,4.12,12.71.53,1.54,2.22,1.14,2.28,1.26,1.24,2.28-1.71,1.95-1.76,2.13-.42,1.35,2.27,1.64-1.22,3.86,3.57,9.33-15.54,6.1-19.74,4.71-10.01-3.29-39.29-45.05-53.69-57.78-1.95-1.73-6.48-1.82-8.56-2.94-7.81,10.54-12.55,3.66-29-2-22.21-7.65-46.78-22.25-54.37-19.92-8.47,2.6,12.01,13.76,14.01,14.78,12.99,6.6,67.2,26.21,70.84,33.15.97,1.85.55,4.86.51,6.99,1.16,2.72.86-1.01,1.52-1.05,2.32-.17,4.95,2.3,5.73,4.31,2.13,5.53,1.24,55.51-.37,60.12-.57,1.64-2.8,1.24-2.89,2.12-.09.91,1.78.03,2.03,1.15.53,2.4-.18,5-.89,7.26l1.86,1.07c-3.46-.43-1.44,3.09-2.01,5.34-.19.76-1.61.52-1.79,1.16-.36,1.29.68,4.77-.92,8.26-.93,2.04-9.13,9.62-11.34,11.77-.67.65-.01,2.14-.2,2.31-2.4,2.2-9.33,3.56-10.73,7.7-2.83,1.59-1.71-7.4.98-8.5-4.85-.61-1.77-7.63-3.99-11l4.01-.51c-5.94-2.3-1.53-13.04-2-20.92-2.61-43.39-21.72-46.32-56.25-65.57-8.28-4.62-17.59-14.56-28.22-15.06-1.35-.06-4.15-.72-3.52,1.53,4.57,16.33,56.11,32.15,68.98,51.52.68,1.02,2.42,1.13,3.41,3.89,1,2.8,2.58,12.64-.4,14.09,4.96,1.4,2.71,11.6,3.29,16.24.31,2.5,2.6,5.46,2.71,6.29.09.69-1.91.35-1.92.89-.03,1.25,1.35,3.04.88,5.83-.22,1.31-3.83,2.56-3.95,2.77-.74,1.32,1.69.59,1.97,1.7,1.45,5.74-.69,6.51-.95,9.86-.25,3.24,1.62,5.33-1.08,8.91l2.04,1.51c-4.46-.9-2.33,1.95-3.55,3.91-8.89,14.21-18.85,11.49-21.43,14.1-.4-32.73-.4-35.12,1.98-36.98-3.32.19-4.97-9.54-5-12.02-7.81-9.18-18.03-19.04-28.79-24.77-2.05-1.09-4.71-.32-5.75-1.14-1.61-1.26-1.79-4.03-2.73-4.82-5.75-4.82-17.26-8.88-23.64-12.9-2.33-1.47-11.69-12.69-15.08-9.37-1.56,18.8,53.63,37.14,63.23,56.35.77,1.53.18,3.81.76,5.65.03.1,1.69-.48,2,.69,1.85,7.12-.49,17.07,1.2,23.86.2.79,2.23.11,1.81.95-3.69.63-3.65.03-1.02,1.99l-3.99,2.52c4.09,2.81,1.43,4.79-.99,7.96l3.97,4.01c-5.02,1.24-7.64,9.51-11.22,11.66-.83.5-5.24.82-6.07,1.36-1.2.78-.38,2.18-.94,2.75-.92.93-3.89-1.26-2.76,4.25-3.33.87-1.49-2.56-2-3.01-1.91-1.69-5.09,3.85-5.44,3.87-1.88.13-5.96-2.22-9,.18-.74-2.66-.31-2.56-1.56-.05-7.71-2.19-23.92-4.3-24.02-15.44-.08-9.51,8.39-18.13,18.02-17.56,1.65,2.51-2.67,3.25-1.98,3.97.07.08,1.62-.2,1.95.74.57,1.65.81,5.74,1.12,6.19.06.09,1.44-.7,1.94-.33.94.69,1.68,4.65,5.47.37,1.74-1.97.5-6.17.73-8.49.05-.48,1.65-.37,1.66-.9.08-3.89-.38-11.72-3.88-13.57-12.4-4-28.7-17.81-43.74-20.78-4.86-.96-2.62.69-3.26,1.78,3.76,6.06,12.07,8.61,12.99,16-27.04,0-32.51-.7-32.99,1.54l2,7.46c2.86-3.84,4.45-.15,4.76-.07,2.38.6,6.73,1.84,8.89,2.01,3.41.27,10.1-1.72,12.67-1,5.11,1.43-5.56,23.92-7.86,27.02-1.33,1.79-3.36,1.88-3.46,2.06-.34.64,1.74,1.34,1.59,3.05-.05.63-6.28,9.85-6.91,10.61-10.22,12.29-30.17,23.56-45.59,27.7-2.31.62-12.02.61-13.44,1.55-1.32.88-.36,2.69-.66,3.07-.45.58-11.79-1.39-14.4,1.01-1.52-3.3-8.11-9.27-9.11-12.06-.63-1.75.8-3.22.51-3.96-.05-.14-1.58,1.34-2.92-.57-1.7-2.42-1.28-9.2-3.08-11.7-.88-1.22-7.33-2.77-2-6.72-2.71.06-3.87-4.38-4.08-6.59-.3-3.23,2.99-1.91,2.08-5.42-4.04,2.68-2.59,6.58-5-21,3.94-1.3,3.8-.73.02-1.99,3.29.56.62-2.31,1.21-5.19,6.48-31.43,32.96-50.42,81.75-115.35ZM16.37,929.79c.77-3.88,7.02-15.57,6.69-18.06-.07-.54-3.94-.42-.96-4.01,1.33-1.6,3.2-1.28,3.97-2.25,6.91-8.69,9.24-20.87,19.92-30.96,1.42-1.34,2.85-.36,2.92-.49.41-.66-.18-2.62.08-2.89.6-.62,4.4-.49,1.99,1.99,3.61-.49,3.76-2.34,5.99,1-.41-1.9,4.24-3.77,5.62-3.94,3.85-.47,6.91,2.33,7.87-.87,42.84-3.38,24.31-2.24,20.58,1.37-11.28,10.89-18.86,31.95-23.12,46.69-.24.82-1.97.78-1.96,1.27.04,1.6,2.49,3.13,2.04,3.48-.41.32-2.23-.72-3.06.66-1.84,3.05,4.04,12.27-2.94,11.37,4.89,4.38.25,12.08,1.98,18.34.29,1.06,4.75.3.02,3.64l3.05.63c-1.01,3.47,4.41,17.88,3.71,19.2-.09.16-3.71.4-1.76,2.18.42.39,4.82-2.37,5.03,8.29,4.31,3.74,3.42.2-26.55,1.89-2.42.14-5.27,3.2-9.49.81l.52-2.99c-2.37,5.45-12.84,5.99-15.72.7-3.95-7.26-3.96-16.61-4.77-24.14-.06-.54-4.55-.66,1-4.07l-3.08-1.05.44-27.79Z" fill="#112378"/><path d="M975.01,808.15v1.09c.05-.37.06-.74,0-1.09Z" fill="#112378"/></g></svg>