<?xml version="1.0" encoding="UTF-8"?><svg id="a" xmlns="http://www.w3.org/2000/svg" width="1024.35" height="1024.26" viewBox="0 0 1024.35 1024.26"><path d="M.16,828V0h1024v735c-70.52-66.79-236.16-86.5-269.25-106-37.53-22.12-46.66-12.92-51.29-19.96-2.91-4.42-1.41-27.04-3.51-33.49l3.05-39.55c42.34,6.03,42.56-36.28,48.71-58.78,11.13-40.72,39.32-80.78,16.22-128.72,5.64-6.23,12.66-12.3,15.02-21.04l-8.95-13.44c20.88-5.84,19.12-4.47,17.02-7.54-7.41-10.83-13.94-5.26-25.02-61.47,14.18,3.14,7.64,4.21,6.9-12.51-4.02-91.29-48.7-106.82-54.6-114.81-1.18-1.6-2.2-6.63-3.46-9.05-8.2-15.79-30.88-31.16-48.52-31.57-9.09-.21-18.62,2.8-27.33,4.93-1.97-11.69-14.09-38.63-50.32-47.03-.77-.18-.62-1.79-1.37-1.96-1.67-.38-15.7-1.55-16.31-1.01,1.15,3.49,23.49,19.35,21.99,38.51-.48,6.12-3.27-.23-5.1-1.91-39.52-36.31-72.49-44.97-124.89-43.59,23.92,14.33,19.12,6.75-13.38,10.12-26.13,2.71-64.3,13.24-88.34,23.66-13.77,5.97-26.25,14.76-41.25,17.75-20.61,4.1-33.95-2.56-35.03-2.53-.1,11.09,5.1,16.48,12.99,22.98-58.58,30.46-82.32,76.45-80.99,121.01l5.99-2.99c-.01,52.59,10.56,54.99,11.78,60.72,2.68,12.59,1.7,24.66,5.73,38.27,2.01,6.8,8.25,16.73,9.27,21.73,1.22,5.97-.95,13.12,1.3,19.2,15.15-3.84,10.03,10.99,11.94,19.42.17.77,1.91.63,1.88,1.09-.76,14.97,3.92,20.5,5.12,33.06,1.22,12.76-2.82,34.84-3.09,49-.03,1.79,1.8,5.22-.4,5.46-.18.02-1.75-.95-2.99-.98-28.2-.73-47.86,12.8-72,24.05-11.13,5.19-23.33,7.37-31.98,18.02-16.46,20.28,3.39,66.51,7.98,89.91,6.77,34.57-10.92,59.68,13.49,91.51,13.34,17.41,18.35,7.37-37.57,22.44-72.46,19.53-79.56,39.14-143.45,120.08Z" fill="#17c37b"/><path d="M676.16,1024c63.42-215.42,62.17-227.39,81.77-254.73,24.4-34.05,73.93-66.15,115.83-72.24,17.37-2.53,25.05.68,41.05,2.94,1.7.24,3.76-.96,4.21-.8.12.04.03,1.53,1.38,2.13,17.29,7.68,13.83,3.02,61.76,25.19-11.3,6.61-23.58,12.76-33.46,21.54-46.78,41.58-77.48,133.75-88.06,194.94-3.14,18.14-1.46,33.37-6.47,33.04,2.97,3.45,2.19,0,0,47.99h-178Z" fill="#ccf1db"/><path d="M903.16,1024c1.68-.98,2.55-2.47,3.2-4.25,26.47-72.47,77.58-199.67,66.81-197.74-.33,3.78-4.79,5.24-6.66,7.34-25.35,28.51-55.98,86.22-62.82,113.76l-2.49.34c1.12,5.71-3.84,13.76-5.75,19.34-19.05,55.77-13.5,63.1-17.39,39.64l2.09-1.92c-9.6-19.38,13.18-216.49,112.45-257.58,1.15,4.16,1.25.36,4.08.04,8.62-.95,20.88,22.94,24.63,29.41,4.14,7.16,2.83-.03,2.83,251.62h-71l20.88-35.62c28.76-64.86,33.71-67-.23-30.73-38.94,41.62-43.54,52.21-51.65,66.35h-19Z" fill="#ccf1db"/><path d="M571.16,1024c12.32-19.87,27.07-28.57,77.89-122.85,20.77-38.54,38.87-83.16,64.28-119.47,3.85-5.51,8.87-9.95,12.34-15.68,11.05-3.28-70.97,214.63-80.51,258.01h-74Z" fill="#ccf1db"/><path d="M507.16,1024c10.89-31.14,102.66-116.73,126.99-139l-12.14,29.8c-5.35-.99,2.35,1.18-45.75,91.01-2.46,4.59-4.05,10.14-8.1,13.7,2.66.67,2.25,0,0,4.5h-61Z" fill="#ccf1db"/><path d="M.16,857c2.15.04,4.3-4.37,5.42-6.09,23.58-36.31,63.7-81.57,63.8-81.63.38-.23,1.64.79,1.73.7.17-.19.09-2.31,1.01-3.51,3.16-4.14,8.98-8.26,14.01-9.48,2.09,6.07,49.62,62.85,63.91,186.63,9.49,82.25-10.06-51.46-98.68-94.53-9.74-4.73-10.43-3.98-4.19,5.4,3.47,5.21,9.36,10.65,12.99,16.01-3.63,2.71-1.35-.05,2.05,2.95,5.86,5.19,21.08,27.19,26.37,34.63,15.49,21.78,25.51,39.94,37.28,63.68.63,1.28,2.09,1.26,2.13,1.38.21.58-1.09,2.57-.87,4.2.09.66,1.79.71,2.35,1.9,4.74,10,7.88,22.98,10.69,33.76-11.19-12.56-43.91-56.21-93.25-79.27-37.62-17.58-9.1-4.33,60.26,81.03l6.01,9.24H.16v-167Z" fill="#ccf1db"/><path d="M213.56,721.61c63.4,89.83,42.8,93.56,31.43,119.72-12.35,28.41-27.64,63.79-46.25,88.78-.83,1.11.02,2.49-2.58,1.89,6.52-68.56-14-129.54-43.69-168.75-10.32-10.17-1.04-3.51,9.31,40.42,9.02,38.27,15.45,93.91,8.39,131.33.02-10.88.69-8.97-2.02-10.49l1.93-.91c-3.09-11.04-3.8-22.64-6.19-33.81-7.28-33.98-28.8-91.79-49.72-120.01-4.49-6.06-13.41-13.62-17.45-19.81-10.4-15.93,106.23-41.73,109.45-40.34,2.71,3.64,4.79,8.32,7.39,12Z" fill="#ccf1db"/><path d="M217.66,510c-12.44,11.53-13.7,52.75-16.8,70.2-3.77,21.2-10.16,35.43-15.97,55.03-6.65,22.46,3.6,29.57,16.26,45.76l8.51,5.04c3.22-.64,4.37,6.07,7.46,2.46-1.06-3.86-5.28-5.96-6.7-7.79-5.25-6.79-12.18-19.13-14.28-27.71-6.7-27.33,4.37-34.13,16.17-55.33,36.84-66.17,38.81-83.68,73.25-88.68,2.15-3.85-7.77-9.19-10.99-9.92-16.93-3.81-43.74-1.29-56.92,10.93Z" fill="#fffbeb"/><path d="M182.17,597c8.29-1.42,5.89-75.55,26.09-95.4,14.9-14.64,39.69-16.5,59.33-16.53.94,0,2.34,1.2,2.56.93-.24-15.48-25.62-9.69-35.39-6.9-12.44,3.55-23.26,10.77-34.71,16.27-13.15,6.31-37.59,8.38-33.79,37.02l15.91,64.6Z" fill="#fffbeb"/><path d="M662.05,411.6c-5.78-5.93-16.76-8.06-21.9-15.6-5.3,21.73-11.19,33.37-32.96,41.54-20.34,7.63-64.64,6.89-86.24,3.17-3.65-.63-7.14-2.13-10.79-2.7,1.66,4.5,5.92,3.98,9.42,8.07,30.02,35.02-37.89,90.2-50.81,85.84-1.41,2.78-14.59,1.84-18.04,1-8.78-2.14-20.67-14.62-28.02-20.53-7.13-5.73-10.09-6.11-16.55-14.39-3.29-4.22-7.59-2.77-13.32-6.18-27.21-16.19-3.81-47.65-23.01-16.15-10.48,9.37-21.45,24.67-33.67,35.33l-7,12c4.38,3.51,9.81,10.45,14.02,14.55,2.48-.77,5.78-1.58,6.64-2.78.38-.54-2.01-1.27,2.47-3.11,10.48-4.31,15.42.89,23.4,6.37,1.25.86,2.96.76,2.47,2.98,17.72,3.18,37.06,1.67,54.38,4.94,3.71,6.92,52.11-1.42,64.13-2.92,6.7-.84,12.26-1.06,18.49-2.01.11-.02.3-.72,2-1,5.66-.92,11.47-1.45,17.17-2.35,1.46-.23,3.87-1.57,4.83.35,3.64-1.2,7.49-2.64,11-4,18.56-14.77,25.98-12.39,37.01-.29.33,5.84-1.79,5.66-5.01,8.29-.54.44-.91,1.75-2,2.45-4.46,2.89-9.7.05-15.4.66-7.35.79-6.17,5.41-102.21,16.79-21.46,2.54-63.79-5.74-85.61-11.18-6.08-1.52-17.15-8.2-20.65-.4,21.29,24.32,31.4,67.35,30.85,76.18-1.35,21.44-14.22,17.39-7.97,26,18.31,25.24,32.49,42.35,66.49,43.58,5.37.19,26.03.57,30.07.01,1.86-.26,1.33-1.89,2.12-2.07,2.65-.59,4.89.96,6.88.87,47.42-2.22,73.62-61.52,91.95-82.85-1.18,10.73-5.14,21.86-9.01,31.98-1.29,3.37-5.28,7.09-4,11,11.64-10.88,63.3-86.24,67.5-129,3.09-31.43-1.22-24.39-2.62-34.71-.16-1.19.13-6.76.58-7.53,5.07-3.81,12.29-6.58,17.08-11.22,7.57-7.32,10.82-20.43,9.4-30.64-.3-2.16-9.26-19.51-11.04-22.79-.88-1.61-2.6-2.88-3.37-4.61,1.14-1.3,1.19-1.78,2.98-1.01,1.02.44,9.96,7.42,11.22,8.58,3.78,3.48,6.3,8.17,9.78,11.94,6.79,7.35,5.55,6.78,1-16-1.43-2.07-2.15-4.39-4.1-6.4ZM430.16,619.49l5.52-4.16c24.97-5.92,28.58-4,45.47,2.67.54.21,1.85.03,3,.45,1.51.56,5.23,2.1,5.99,3.54-44.25-6.31-15.57-1.08-59.99-2.51ZM515.82,582.66c-27.29,31.77-96.13,31.29-114.66-4.65,1.49-.47,2.07.67,3,.99,25.55,8.72,26.39,5.14,30.32,5.98.79.17.23,1.85,2.11,2.09,2.22.29,45.34-2.92,47.57-3.08,3.55-.99,3.84-2.83,7.45-.94l.99-1.95c8.67,2.06,16.32-5.24,22.97-7.31,2.8-.87,4.39,1.14,5.09-1.8l1.46,2.94c-3.84.4-4.65,5.81-6.29,7.72ZM613.16,524c-1.41,13.01-15.26,35.93-17.5,35.98-3.7-3.17.09-2.89.23-3.14.58-1,4.13-19.48,4.24-21.38.12-2.16-1.79-16.55-2.61-18.46-2.95-6.83-65.04-51.4-67.31-59.56.64-4.29,2.06.17,2.7.5,39.38,20.73,40.02,19.13,40.12,19.18.22.13.46,2.2,2.4,3.18,2.2,1.11,6.47,1.04,10.47,3.48,17.15,10.45,29.42,20.26,27.25,40.22Z" fill="#fffbeb"/><path d="M295.58,324c71.7-10.11,71.91-2.1,72.01-2.11,13-1.14,37.91,2.81,50.29,8.89,4.5,2.21,5.2,7.94,9.78,8.31,4.36.35,23.16-5.79,46.92-.26,11.08-15.59,30.95-21.58,49.36-23.57,73.67-7.97,90.66,3.65,121.23,9.74-.19-3.29-1.49-6.43-1.94-9.65-6.59-47.2,1.2-31.54-30.98-92.14-1.15-2.16-2.14-5.8-3.09-8.21-1.65-1.27-14.71,25.89-50.99,28-9.46.55-24.36-.07-31-6.99,16.2,3.81,36.04-15.68,46-29.01-21.1,9.98-29.15,8.21-41.32,11.02-.75.17-.62,1.8-1.36,1.96-4.13.93-5.54-1.31-10.32,2.02.04,3.95-37.52,36.98-53,43-4.61,3.25-9.39,7.21-8.96,3.56,1.14-9.48,3.86-22.53,6.96-31.56-2.36,2.13-5.55,2.71-8.15,4.35-18.25,11.54-26.15,17.6-64.32,21.68-3.69.4-10.07.49-13.53-1.03-16.63.64-31-5.39-30.99-5.49,1.44-.84,3.95-3.92,4.99-4.51-1.58-5.16-12.53,1.76-29-7-10.39-5.53-12.3-10.67-16-21-1.06-2.96-2.83-5.76-3.01-9-2.04-1.84-7.12,10.11-7.75,11.74-11.86,30.4-10.73,65.16-13.24,97.27,3.29-1.07,8.76.38,11.42,0Z" fill="#fffbeb"/><path d="M578.7,429.04c26.45-1.22,38.56-5.51,45.54-32.29.2-.75,1.58-.81,1.63-.95.19-.51.34-9.41.28-10.8-1.34-35.64-37.16-60.98-89.78-41.08-6.5,2.46-15.53,1.88-16.22,11.08,16.21-8.02,50.01-2.62,67.06,2.44,17.66,5.25,28.88,21.23,32.94,21.57,1.01,9.66-27.83-8.59-29.99-9.52-2.92-1.25-15.69-5.56-17.81-4.31-1.7,4.21-4.98,7.38-8.64,9.87-4.92-.92-14.32,1.28-18.53-.59-4.55-2.02-2.09-10.4-7.55-11.46-3.11-.6-13.63,1.9-16.71,3.24-4.36,1.89-8.89,8.44-15.75,6.74.51-1.26.57-4.14,1-4.99-4.27,2.15-8.73,3.86-13,6,2.06,7.95.34,17.32,1,24,.62,6.22,7.48,17.23,12.51,20.99,15.26,11.4,52.97,10.93,72.04,10.05ZM583.15,406.01c-.81,4.03-27.57,12.26-43.99-.01-14.18-10.59,22.32,3.28,43.99.01Z" fill="#fffbeb"/><path d="M301.25,425.41c23.09,10.54,78.59,8.84,95.85-2.96,1.81-1.24,7.36-10.02,8.58-12.42,4.99-9.8,5.43-16.86,6.46-25.49.53-4.48,1.61-9.05,2.02-13.53-4.5-2.45-9,.81-13-1,.39.84.29,3.24.9,4.42l-2.35,1.58c-7.37-2.89-14.29-7.8-22.52-7.97-.8,12.16-10.68,11.9-20.53,10.96-10.57-1.02-8.18-12.03-9.02-12-15.87.6-40.28,20.53-46.52,16.54-1.15-.98-1.2-1.2-.49-2.54.77-1.47,16.54-14.89,18.77-16.23,17.8-10.71,48.53-12.89,67.75-5.75-3-12.35-65.02-27.23-93,2-.98,1.52-.28,3.64-2.99,2.99-1.69-3.74,1.92-5.28,1.96-5.61.09-.77-.86-2.06-.54-3.42,1.3-5.41,3.67-10.47,4.57-15.96-10.22,2.18-12.15.87-14.38,12.93-3.83,20.71-4.25,63.1,18.48,73.48ZM350.16,412c4.38-.13,8.6-.83,13-1-1.79-2.73-2.56-.76,14-4.99-1.74,3.73-7.17,6.47-11,7.99-3.73,1.48-3.36.74-6.39.93-.75.05-.09,2.03-2.09,2.16-5.22.34-11.57-.37-16.52-1.1-6.73-.98-.48,1.56-12.99-3.99,7.31-.17,14.69.2,21.99-.01Z" fill="#fffbeb"/><path d="M409.17,434c.29,4.8-6.01,5.81-8.95,8.56-2.72,2.55-8.06,12.73-8.78,16.22-1.29,6.3.08,12.09,3.72,17.22,5.17-1.89,7.27-5.33,13.3-3.96.73.17.78,1.65,1.48,1.89,3.17,1.07,6.95,1.63,9.92,2.89,7.99,3.39,16.22,10.54,25.69,9.25.7-.1.51-1.97,1.22-2.04,14.87-1.44,21.95-10.45,25.43-23.32.23-.84,1.96-.67,1.99-1.27.21-4.2-6.16-33.41-7.02-40.42-4.33-35.24,2.6-43.59,1-48-.04-.12-1.25-.18-1.8-1.69-.46-1.23.18-3.22-.37-4.14-.37-.62-11.94-5.37-13.37-5.68-1.02-.22-8.66-.5-9.82-.42-4.12.28-5.86,3.74-9.64,3.93-7.33,27.51-10.17,58.58-21.81,84.69-3.17,7.12-.86-3.46.63-12.09l-2.81-1.6Z" fill="#fffbeb"/><path d="M287.13,486.53c.81,1.83,14.2,20.27,15.26,21.23,1.95,1.77,9.45,3.87,11.77,5.24,5.46-6.56-1.81-8.87,18.86-23.64,12.97-9.27,26.72-16.64,40.04-27.96,1.86-1.58,2.65-6.09,5.1-1.4,1.26-12.53,6.21-14.52,8.51-18.98-27.21,7.2-80.01,7.9-103.5-11.02-1.04,17.76-3.47,39.81,3.96,56.53Z" fill="#fffbeb"/><path d="M503.56,467c.1,0,7.42-4.45,7.59-8-2.19-7.59-7.82-18.6-15-19-13.71-.77-11.19,20.06-11,29,4.25,1.86,6.29-1.97,6.67-2.04,2.19-.42,5.21,1.67,7.67,1.06,1.85-.46-1.82-1.25,4.07-1.03Z" fill="#fffbeb"/><path d="M642.16,386c-.39,2.52-.58,6.04-1,8l30.99,7c-1.38-6.23-7.34-8.66-11.45-12.52l-18.54-2.48Z" fill="#fffbeb"/><path d="M643.15,376.01c3.11-.2,20.39.72,22-5l-22-1.01c-.11,1.99.07,4.02,0,6.01Z" fill="#fffbeb"/><path d="M660.16,505.34c-.81-3.67-.36-11.16-.12-14.91.02-.38-3.69-1.89-1.89-6.43-18.13,18.32-12.28,46.44-21.99,79-6.89,23.09-24.55,43.86-29.99,63.99,3.17.65,27.58-26.69,35.67-40.96l1.32-1.03c1.59-5.73,5.29-10.57,7.49-16.01,3.37-8.34,4.42-17.3,8.51-24.99.74-5.51.52-11.53.88-16.5.49-6.74,1.66-14,2-21.07.02-.47-1.71-.32-1.88-1.09Z" fill="#fffbeb"/><path d="M385.15,693.51c-13.67-14.25-53.39-47.56-71.01-53.99-12.87-4.7-23.87-1.56-36.98-.52,23.04-18.24,21.05-15.82,22.01-19.41-.53-2.61-8.45-8.86-10.96-10.14-14.26-7.27-23.67-.96-32.04-.93,3.82-3.9,8.73-6.29,13.98-7.51,10.71-2.49,1.31,2.61,22.9-11.11-.53-3.01,3.58-9.02,4.1-12.89.92-6.92-3.76-14.24-4.99-21,5.58,3.87,18.3,15.01,17.99,21,2.43,4.34,5.9,3.18,9.32,4.03.29.07,1.33,1.93,4.68,1.97,4.86.06,5.21-3.3,12-4l7.99-6c2.55,8.04-14.57,18.14.01,45,4.79,4.76,14.55,10.4,21.42,10.01.6-.03.43-1.76,1.27-1.98,1.85-.5,4.44.49,6.31-1.03-.21-6.99-9.17-35.5-11.95-43.55-4.13-11.98-11-21.17-20.58-29.42-47.3-40.75-61.14-46.54-92.29,5.67-35.79,59.98-49.34,78.19-42.19,95.31,5.08,12.17,27.27,28.64,36.67,39.33,30.12,34.24,54.54,97.2,59.31,104.17-2.16,3.92-13.93-.57-14.98.49l-1.22,12.79c-5.62,2.66-8.26,8.19-11.83,12.69-.48.6-1.85.39-1.95.52-15.75,20.67-22.03,51.62-34.49,75.01-27.15,50.99-47.22,76.98-75.51,125.99h156c.72-15.91,58.63-172.36,61.57-187.49.8-4.11.24-10.26,1.01-14.56-2.25-3.03-22.68-3.29-25.58-8.93,6.79.58,10.13-2.96,15.62-5.89,4.53-2.42,10.03-3.14,12.37-9.11l-20.46-1.06c-11.03-4.1-6.75-1.22,3.85-7.1,25.89-14.36,37.4-37.52,32.61-68.85-2.03-13.3-4.78-17.88-14.01-27.49Z" fill="#fffbeb"/><path d="M973.81,957.65c-39.53,42.25-43.9,52.84-51.65,66.35h31l20.88-35.62c28.76-64.86,33.7-66.99-.23-30.73Z" fill="#112378"/><path d="M1024.16,735c-69.93-66.23-239.3-88.35-269.25-106-37.09-21.86-46.79-13.12-51.29-19.96-2.91-4.42-1.41-27.04-3.51-33.49l3.05-39.55c42.48,6.05,42.83-37.27,48.71-58.78,11.12-40.7,39.32-80.78,16.22-128.72,5.64-6.23,12.66-12.3,15.02-21.04l-8.95-13.44,17.99-5.03c.67-2.47-7.21-8.58-10.62-13.85-8.79-13.6-12.26-34.34-15.36-50.12l8.99,1.99c-5-37.54-1.88-79.95-42.48-118.04-3.57-3.35-11.89-8.13-14.21-11.27-1.18-1.6-2.2-6.63-3.46-9.05-8.2-15.79-30.88-31.16-48.52-31.57-9.09-.21-18.62,2.8-27.33,4.93-2.56-15.16-17.39-39.4-50.32-47.03-.77-.18-.62-1.79-1.37-1.96-1.67-.38-15.7-1.55-16.31-1.01,1.12,3.41,23.49,19.39,21.99,38.51-.48,6.12-3.27-.23-5.1-1.91-39.69-36.47-72.79-44.96-124.89-43.59l14.99,8.98c-45.26.28-86.33,11.63-116.71,24.8-25.6,11.09-35.57,23.44-70.74,17.17-2.21-.39-3.39-2.02-5.54-1.95-.1,11.09,5.1,16.48,12.99,22.98-48.99,25.47-82.61,66.7-80.99,121.01l5.99-2.99c-.01,52.57,10.56,54.95,11.78,60.72,2.68,12.59,1.7,24.66,5.73,38.27,2.01,6.8,8.25,16.73,9.27,21.73,1.22,5.97-.95,13.12,1.3,19.2,15.15-3.84,10.03,10.99,11.94,19.42.17.77,1.91.63,1.88,1.09-.76,14.97,3.92,20.5,5.12,33.06,1.22,12.76-2.82,34.84-3.09,49-.03,1.79,1.8,5.22-.4,5.46-.18.02-1.75-.95-2.99-.98-28.2-.73-47.86,12.8-72,24.05-11.13,5.19-23.33,7.37-31.98,18.02-16.46,20.28,3.39,66.51,7.98,89.91,6.77,34.57-10.92,59.68,13.49,91.51,1.81,2.36,10.51,8.86,8.05,11.93-116.46,25.41-111.7,32.56-189.07,130.59,0,32.15-1.61,33.73,5.42,22.91,23.58-36.32,63.7-81.57,63.8-81.63.38-.23,1.64.79,1.73.7.17-.19.09-2.31,1.01-3.51,3.16-4.14,8.98-8.26,14.01-9.48,1.53,4.45,49.7,63.5,63.91,186.63,9.49,82.21-10.25-51.55-98.68-94.53-20.48-9.95,3.21,13.16,8.8,21.4-3.63,2.71-1.35-.05,2.05,2.95,6.5,5.75,39.22,49.01,63.65,98.31.63,1.28,2.09,1.26,2.13,1.38.21.58-1.09,2.57-.87,4.2.09.66,1.79.71,2.35,1.9,4.74,10,7.88,22.98,10.69,33.76-12.21-13.7-44.31-56.39-93.25-79.27-37.68-17.61-9.33-4.61,60.26,81.03l6.01,9.24h49c28.22-48.89,48.32-74.91,75.51-125.99,12.46-23.39,18.74-54.34,34.49-75.01,3.41-32.06-12.89-61.85-29.59-87.91-41.69-65.05-67.43-66.89-57.67-99.85,5.81-19.6,12.2-33.83,15.97-55.03,3.1-17.45,4.36-58.67,16.8-70.2,13.18-12.22,39.99-14.73,56.92-10.93,3.23.73,13.14,6.06,10.99,9.92-34.47,5-36.52,22.72-73.25,88.68-11.8,21.2-22.87,28-16.17,55.33,3.25,1.68,6.12,3.62,10,3,0-10.86-8.9-12.83,13.65-49.86,53.25-87.43,52.57-112.92,120.83-54.12,9.58,8.25,16.45,17.44,20.58,29.42,2.77,8.06,11.73,36.57,11.95,43.55.6,19.79-24.61,15.96-37.98.48-3.28-3.8-10.47-16.14-10-20.94.37-3.79,12.04-14,14.98-17.54,1.04-2.97,2.11-4.39,3-8-1.92-.35-3.81.85-5.54.87-1.78.03-.17-2.03-4.45.13.73,4.64-1.31,2.28-3.26,3.02-1,.38-.73,1.92-1.23,1.9-.48-.02-1.12-.88-1.52-.92.55,2.49-1.3,2.04-2.64,2.81-7.03,4.03-11.97,9.55-14.72-1.93-1.1-4.6.22-5.23.36-7.87.31-6.01-12.67-17.31-17.99-21,1.23,6.76,5.91,14.08,4.99,21,2.13.61,1.85,2.61,2.2,4.3,1.66,7.96,1.48,13.75-.21,21.7-7.79-3.9-21.4-3.76-28.99-2v3.01c2.58-1.32,1.98-1.79,1.99,1.99,16.5-.45,26.57,11.32,27.02,13.58-.97,3.6,1.03,1.17-22.01,19.41,13.11-1.04,24.11-4.18,36.98.52,17.61,6.44,57.33,39.74,71.01,53.99,9.23,9.62,11.97,14.19,14.01,27.49l1.83.14c1.42,5.21,1.85,4.17-.83,4.86.08.99-.04,2.01,0,3,2.79-.81,3.27,3.97,3,6,5.9,11.96,3.28,19.33,6.99,38.99,8.29-18.06,7.8-35.7,5.02-54.99,16.29,2.73,22.79,39.57,10.51,66.97-13.29,29.65-15.47,56.33-25.49,86.54-28.1,84.68-17.18,36.61-47.02,151.48h154c10.65-30.46,103.18-117.22,126.99-139-12.32,30.24-11.14,29.99-13.96,29.47-17.27,42.16-48.77,102.17-52.03,105.04,2.66.67,2.25,0,0,4.5h3c6.47-10.43,14.8-19.64,21.83-29.67,61.64-87.9,83.37-159.83,120.34-212.66,34.01-48.59,2.96,19.37-60.66,215.34-2.87,8.83-5.52,17.91-7.52,26.98h31c63.43-215.46,62.17-227.38,81.77-254.73,24.4-34.05,73.93-66.15,115.83-72.24,17.37-2.53,25.05.68,41.05,2.94,1.7.24,3.76-.96,4.21-.8.12.04.03,1.53,1.38,2.13,18.39,8.17,12.42,2.37,61.76,25.19-11.3,6.61-23.58,12.76-33.46,21.54-46.78,41.58-77.48,133.75-88.06,194.94-3.13,18.09-1.46,33.37-6.47,33.04,2.97,3.45,2.19,0,0,47.99,52.03,0,49.99,1.82,52.2-4.25,23.26-63.7,77.49-199.65,66.81-197.74-.33,3.78-4.79,5.24-6.66,7.34-25.51,28.7-56.03,86.44-62.82,113.76l-2.49.34c1.12,5.71-3.84,13.76-5.75,19.34-19.17,56.12-13.53,62.92-17.39,39.64l2.09-1.92c-8.98-18.12,12.1-216.04,112.45-257.58,1.15,4.16,1.25.36,4.08.04,8.62-.95,20.88,22.94,24.63,29.41,4.02,6.96,2.83,3.7,2.83-37.38ZM152.15,971.99c-1.29,0-.98.48-.98-1.99,1.29,0,.98-.48.98,1.99ZM206.17,709.61c2.71,3.64,4.79,8.32,7.39,12,63.51,89.98,42.57,94.08,31.43,119.72-12.35,28.41-27.64,63.79-46.25,88.78-.83,1.11.02,2.49-2.58,1.89,7.78-81.77-25.08-150.42-48-172.99,6.98,22.6,30.02,83.02,23.99,165.49-2.56,13.59-1.99,14.04-1.97,1.15-2.63-1.48-2.56-.89-.1-2.06-3.09-11.04-3.8-22.64-6.19-33.81-7.28-33.98-28.8-91.79-49.72-120.01-4.49-6.06-13.41-13.62-17.45-19.81-10.35-15.86,106.21-41.74,109.45-40.34ZM267.59,485.07c-93.03.16-65.02,54.14-83.3,108.57-2.27,6.77-.4,10.37-18.03-61.24-3.8-28.66,20.45-30.61,33.79-37.02,11.45-5.5,22.26-12.72,34.71-16.27,9.77-2.79,35.15-8.58,35.39,6.9-.22.27-1.62-.93-2.56-.93ZM749.66,201c.65.33.65.67,0,1v-1ZM656.72,95.06c21.47-5.16,37.87-1.79,52.42,17.45-13.37-2.61-23.2-12.31-58.97.5-.52,3.5,25.87-5.17,55.31,15.17,24.17,16.7,41.47,41.96,43.67,71.82-.56-.77-19.5-28.55-28.97-33.51,8.86,29.36,5.81,56.42,5.65,56.86-1.1,2.89-2.74,2.97-5.37,1.89-17.58-7.25-29.86-33.25-39.88-48.15-23.48-34.9-41.25-34.57-38.41-38.08,4.85,2.85,9.99-3.97,38.93,16.56,4.63,3.28,18.95,17.45,17.03,10.97-7.11-24.05-41.93-49.01-65.97-47.54-.11-.09,6.53-19.6,24.56-23.93ZM732.15,310c-22.67-6.83-43.58-22.09-54.99-42.99.63-.48,13.9,1.97,15.55,2.94,3.42,2.01,13.18,15.81,16.85,19.66l22.6,20.38ZM632.18,161.67c.18-.71,1.64-.68,1.72-.89l-.74-1.78c18.42,7.98,33.58,23.32,44.81,39.68,9.24,13.45,15.73,36.23,47.18,51.33l-.5,1.99c-32.9-5.71-54.3-33.5-74.99-57.01.31,5.58,8.22,29.71,17.49,43.51,1.95,10.58-30.9-31.06-33.88-56.12-.32-2.7-1.46-19.2-1.08-20.72ZM625.54,102.96c-.31.71-1.95.94-2.08,1.25-.45,1,.11,3.6-1.32,6.08-1.27,2.2-6.81,6.79-8.97,8.72,4.29-18.51,3.08-38.34-4.01-55.99,4-3.5,24.14,22.4,16.38,39.95ZM591.15,157c2.11,14.43-4.53,31.16-12.17,43.33-1.65,2.62-4.33,4.68-5.82,6.68-8.77,11.74-22.8,26.14-37.99,29v1.97c18.92,2.77,47.52-9.37,66.17-47.29,14.56-49.02,5.72-28.85,14.11.55,10.31,36.14,36.76,57.55,38.65,61.56,5.03,10.67,9.68,33.63,13.56,46.22.88,2.84,3.84,3.67,1.5,7.99,3.13.27,15.62,12.35,15,24-81.31-11.14-78.63-24.56-160.22-15.74-18.4,1.99-38.27,7.98-49.36,23.57-23.77-5.54-42.58.61-46.92.26-4.58-.37-5.28-6.1-9.78-8.31-12.38-6.08-37.29-10.03-50.29-8.89-.1,0-.26-8-72.01,2.11-2.66.38-8.14-1.07-11.42,0,2.51-32.1,1.38-66.87,13.24-97.27.64-1.63,5.71-13.58,7.75-11.74.18,3.24,1.95,6.04,3.01,9,6.5,3.22,24.49,21.32,71,9.01l-19.73,17.05c-.83.72-2.64.53-3.27.94-1.39.91-2.54.74-3,1-1.04.59-3.56,3.66-4.99,4.51-.03.87.58.66,9.56-.38,13.61,4.29,37.05-.82,49.44-4.51,39.58-11.78,87.38-68.68,78.05-51.06-9.63,18.19-22.1,26.96-27.02,68-.34,2.82,1.74,1.03,2.96.44-7.58-10.88,51.52-63.74,51.68-63.77,1.19-.23,24.98-1.2,38.3-6.75,18.57-7.74,31.97-21.95,37.04-41.48h2.98ZM411.35,447.69c11.64-26.11,14.47-57.19,21.81-84.69-3.27.66-2.24-4.99-1.54-6.05,1.84-2.77,45.78-12.89,36.54,14.05.17.48.05,2.24,0,3,2.99-.59,1.79,1.45,2.14,3.3,3.73,19.67,14.26,53.58,33.86,57.71,2.47,2.36-7.98,2.91-8,4.99,11.44.64,23.4,33.94,12.96,38.54-1.04.46-13.29-.79-16.5-.58-17.14,1.14-23.77,10.13-37.23,15.77-17.32,7.25-27.27-9.08-41.94-14.51-10.91-4.05-11.1,6.93-18.29-3.21-3.64-5.13-5.01-10.93-3.72-17.22.72-3.49,6.05-13.67,8.78-16.22,2.94-2.75,9.25-3.76,8.95-8.56l2.81,1.6c-1.48,8.55-3.82,19.26-.63,12.09ZM494.16,398c-2.56.53-2.06-1.23-2.71-2.74-13.72-31.41-8.39-58.59,28.66-63.83,2.02-.28,3.91.9,5.41.61.73-.14.61-2.05,1.21-2.08,1.37-.07,3.39,1.56,5.76,1.05.79-.17.22-1.83,2.11-2.09,12.9-1.81,35.01,3.23,48.95,0,1.41,2.63.84,2.67,2.04.16,14.89,3.4,30.27.5,39.46,13.53,2.75,3.89.53,9.25,4.14,10.95-4.05,42.16-3.01,41.43-3.3,42.23-.05.14-1.44.2-1.63.95-6.98,26.77-19.09,31.06-45.54,32.29-19.07.88-56.78,1.36-72.04-10.05-5.03-3.76-11.89-14.77-12.51-20.99ZM503.16,182.99c1.11-2.02,4.87-2.74,7.03-3.46,37.68-12.45,19.9-2.59,66.97-31.52-7.18,16.1-21.35,28.13-38.22,33.27-12.49,3.8-23.01,2.7-35.78,1.71ZM250.33,230.67c-2.88,3.93-4.25,10.07-6.15,8.33-1.49-1.37-8.76-39.5,16.99-68.99-1.16-.88-10.48,2.24-12.25,3.24-2.67,1.53-3.92,4.47-6.73,5.26,9.4-33.86,43.58-60.39,76.02-70.96,11.26-3.67,13.37-1.07,23.47-1.47,39.17-1.54,78.32-27.83,63.19-22.89-7.6,2.48-18.49,4.74-26.27,3.91l-1.02,1.98c-9.88-.54-18.28,2.1-28.91,2.92-25.88-3.12-14.78-1.6-9.98-3.23,39.29-13.37,73.78-38.92,139.93-40.83l1.06,3.08c2.55-.4,6.37-2.52,8.82-2.05.72.14.58,1.84,1.34,2.02,1.96.46,4.53-.34,6.73.12,28.12,5.86,32.65,17.2,19.64-.62l-13.04-12.48c5.92.81,11.87,2.04,17.53,3.96,8.83,3,51.86,26.6,50.6,34.94l2.71.22c.22,3.61-.31,3.52,1.66.87,5.46,7,15,12.95,14,23.01-22.44-11.56-13.48-6.22-39.49-24,1.99,3.28,3.5,6.81,5.33,10.19.73,1.34,2.27,1.8,2.63,2.6.83,1.86-.08,4.61.19,4.98.46.64,2.72.83,3.35,2.17.4.85-.77,2.6-.49,2.97.29.39,2.75.28,3.72,1.35,2.57,2.82,3.92,12.79,5.26,16.72l-15.35-15.64c-37.48-38.2-93.89-33.84-138.64-11.34.55,3.31,25.61-1.79,43.56-2.1,1.81-.03,1.36,1.74,1.91,1.86,7.75,1.71,10.71-1.02,17.04-.84,26.19.75,59.96,15.57,68.47,42.06-29.93-14-62.88-6.46-64.43-7.04l-1.17,2.05c-28.54,2.56-52.86,29.4-78.07,44.82-19.49,11.92-35,15.05-24.31,13.7,40.91-5.19,52.33-19.36,82-31.01,2.2-.86,7.76-3.28,9.58-3.51,2.01-.25,4.98.93,5.26.82.13-.05.15-1.5.81-1.85,8.43-4.5,30.51-9.08,51.33-2.96-61.71,19.61-72.21,58.77-117.96,81.52-3.14,1.56-7.5,4.24-11.03,2.97,12.08-12.27,5.64-3.31,28.99-43.5-26.41,17.52-54.48,32.68-86.98,34,.08-1.17-.54-2.17.61-3.08,2.6-2.04,14.62-6.6,23.38-16.92-2.77-.16-30.04,11.3-64.97-3.54l-16.03-8.46,3.93,9.91c-14.82,6.21-28.31,17.85-37.76,30.75ZM271.53,246.67c-1.31,7.1-.73,19.05-2.58,25.63-.89,3.15-12.33,11.34-11.8,30.71-3.51-3.06-6.4-21.95-2-21.01v-.97c-4.81,2.51-2.61-33.56,19.52-45.99.45,4.13-2.46,7.98-3.14,11.65ZM282.78,351.93c2.23-12.06,4.16-10.75,14.38-12.93,2.73-.58,8.9-3,9.43-3.07,4.51-.62,10.05,1.47,14.1.87.62-.09.4-1.73.9-1.7,11.93.72,24.82-2.69,37.14-1.17,1.48.18,3.93,5.35,4.45.09l1.6,2.07c2.56-.16,8.45-1.6,10.72-1.1,24.48,5.41,42.14-1.69,38.66,36.02-.41,4.48-1.49,9.05-2.02,13.53-1.03,8.63-1.47,15.69-6.46,25.49-1.22,2.4-6.76,11.18-8.58,12.42-17.29,11.83-72.78,13.5-95.85,2.96-22.73-10.38-22.31-52.77-18.48-73.48ZM645.58,768.92c-2.37,3.75-19.07,28.98-20.66,29.86-2.73,1.51-4.61-1.49-4.77,6.22l-2.99-1.01c2.2,10.46-70.53,87.75-157.24,58.73-5.33-1.78-31.11-15.91-33.26-19.74-2.1-3.76,1.37-11.53,2.03-15.46,2.77-16.44,4.99-18.91,12.37-34.33,6.16-12.87,7.87-33.48,4.08-47.19,3.85-1.74,6.13,1.68,6.49,1.76,3.25.76,10.03.66,11.06,3.28l3.84-1.13c6.62,5.41,21.31-1.21,33.6,3.09v-3.02c24.64,2.67,76.19-40.16,78.51-41.98,110.18-86.36,104.38-124.57,111.49-123-.9,62.63,10.14,97.3-44.58,183.91ZM699.17,511.5v-1.49c2.66,0,1.92.51,1.99-2.01-6.37,1.58-2.37-11.95-9.99-19-.42,5.33,1.94,11.81-4.01,14.5l3.07,1.04c-1.66,28.61-6.88,58.94-20.9,84.12-34.67,62.27-128.99,117.45-199.71,121.35-10.65.59-50.64-2.78-58.03-8.96-2.49-2.09-4.58-6.52-6.92-9.08-4.29-4.67-25.72-24.11-27-27-1.4-3.18-.65-9.98-3.32-13.68-.41-2.88,11.63-6.38,12.79-24.81.56-8.88-9.63-51.94-30.85-76.18,3.5-7.8,14.57-1.11,20.65.4,21.82,5.44,64.15,13.73,85.61,11.18,101.31-12,93.21-15.82,102.21-16.79,5.7-.61,10.94,2.23,15.4-.66,1.09-.71,1.45-2.01,2-2.45-11.99-18.53-29.7,3.55-63.6,1.08-1.99-.15-2.43-.31-3.4-2.08-6.23.95-11.78,1.18-18.49,2.01-21.07,2.63-42.23,7.15-63.08,4.88-2.9-5.41-35.25-3.27-55.43-6.9-9.89-1.78-22.85-10.39-28.5,2-4.02-1.78-2.94-4.06-1.5-7l-4.98,1.55c-4.21-4.09-9.64-11.03-14.02-14.55-15.72-12.61-23.82-12.57-26.77-15.24-1.06-.96-14.45-19.4-15.26-21.23-7.44-16.72-5-38.76-3.96-56.53,23.38,18.83,75.88,18.33,103.5,11.02-2.27,4.41-7.25,6.49-8.51,18.98-1.32,13.11,3.13,24.95,14.68,31.82,5.73,3.41,10.03,1.96,13.32,6.18,1.5-2.25.47-1.89,2.72-1.31,20.39,5.25,33.65,29.51,56.58,17.11,4.74-2.56,9.26-7.12,13.8-10.2,2.11-1.44,5.74-.92,5.91-4.6l.99,1.99c2.49-.03,1.82.5,2.59-2.06,5.53,1.35,4.39,2.28,4.4-2.94,6.08-.46,15.49-2.03,21.05-4.47,3.21-1.41,3.12-6.12,6.96-3.52,7.18-14.26,9.89-28.53-1.58-41.92-3.5-4.09-7.76-3.57-9.42-8.07,3.66.56,7.14,2.07,10.79,2.7,21.6,3.72,65.91,4.46,86.24-3.17,21.78-8.17,27.66-19.81,32.96-41.54.22-.88.93-1.67,1-2,.13-.62,1.87-12.52,1.05-14.89l9.95-3.11c-2.94.26-6.05-.18-9.01,0,0-.1.08-18.44,2.02-27.32.17-.79,1.55-.75,2-1.4.62-.9.68-2.86,1.12-3.15,1.66-1.1,38.29,3.17,39.43,4.8,15.81,133.24,5.18,76.84,22.45,71.05-2.3-4.32,4.65-19.46,6.99-20.99v24.5c0,3.72,3.97,14.93,3.86,15.75-.44,3.21-6.45,11.79-7.9,16.21-2.68,8.21-4.5,19.62,3.03,25.54,4.18-19.3,11.16-15.94,16.45-23.06,8.36-11.26,8.66-29.45,3.07-41.94-1.59-3.54-6.73-8.3-5.01-11.98,1.02-2.18,13.54-13.46,15.93-13.09,4.73,5.99,3.81,14.12,6.07,21.07,9.12-13.61,12.2-51.45-14-35.01-1.47-1.11-1.58-1.47-1.31-3.26,1.82-12.01,17.05-15.24,23.64-5.05,15.33,23.68-14.57,82.16-22.1,107.57-3.99,13.47-5.16,32.9-16.73,42.27-9.44,7.65-17.09,2.88-22.01-6.51-.12-.23-.89-.21-.99-.5Z" fill="#112378"/><path d="M469.16,619c1.45.82,3.63-.98,4-.99-39.74.01-44.53.99-4,.99Z" fill="#112378"/><path d="M572.35,365.19c2.12-1.26,14.89,3.05,17.81,4.31,2.11.9,31,19.16,29.99,9.52-4.06-.34-15.28-16.33-32.94-21.57-17.04-5.07-50.85-10.47-67.06-2.44-2.67,1.32-12.73,10.45-14,13-.43.86-.49,3.74-1,4.99,6.86,1.7,11.4-4.84,15.75-6.74,3.09-1.34,13.6-3.84,16.71-3.24,5.46,1.06,3,9.45,7.55,11.46,4.21,1.87,13.61-.34,18.53.59,3.66-2.49,6.94-5.66,8.64-9.87Z" fill="#112378"/><path d="M301.12,383.53c6.12,3.91,31.05-15.96,46.52-16.54.84-.03-1.55,10.99,9.02,12,9.84.94,19.73,1.21,20.53-10.96,8.23.16,15.15,5.08,22.52,7.97l2.35-1.58c-.61-1.17-.51-3.58-.9-4.42-8.03-17.2-55.66-20.94-81.75-5.25-2.23,1.34-18,14.76-18.77,16.23-.71,1.35-.66,1.56.49,2.54Z" fill="#112378"/><path d="M468.16,419c-1.27-7.92-1-10.41-1-26.5,0-1.06,1.26-5.17,1-5.5h-2c-.49,10.43-.26,21.7,1,32h1Z" fill="#112378"/><path d="M564.56,813.9c19.23-21.17,39.65-71.69,47.59-90.9-19.61,19.77-63.61,108.54-47.59,90.9Z" fill="#112378"/><path d="M302.94,180.72c6.89,1.52,20.59,2.62,26.09.71,20.93-7.28,32.9-20.76,37.12-33.43-26.12,22.14-66.59,27.8-95,.51,1.37,15.7,17.1,28.97,31.79,32.21Z" fill="#112378"/><path d="M445.66,106c-18.09,0-52.49,15.89-58.49,53,44.06-58.12,99.8-53,58.49-53Z" fill="#112378"/><path d="M315.16,145.99c12.73-.1,19.88,3.22,41.32-12.17,5.86-4.2,12.73-13.18,9.67-11.34-9.18,7.76-20.65,9.64-30.99,15.02-28.96,6.91-24.34,5.31-18.99,6.01l-1.02,2.47Z" fill="#112378"/><path d="M256.18,608.51c4.89-.02,11.37-2.39,15.98-2.51v-3.01c-2.58,1.32-1.98,1.79-1.99-1.99-5.26,1.22-10.17,3.61-13.98,7.51Z" fill="#cfd3e4"/><path d="M337.62,579.87c1.73-.03,3.63-1.22,5.54-.87.42-1.7,1.8-3.46.99-6l-7.99,6c.09,0,.65.89,1.46.87Z" fill="#cfd3e4"/><path d="M151.17,970.01c0,2.44-.32,1.99.98,1.99,0-2.44.32-1.99-.98-1.99Z" fill="#cfd3e4"/><path d="M298.16,789c-3.06-7.64-6.08-16.46-11-23-41.13-90.68-71.47-90.17-81-113v3c-3.88.61-6.75-1.32-10-3,2.1,8.58,9.03,20.93,14.28,27.71,1.42,1.83,5.64,3.93,6.7,7.79-3.09,3.61-4.25-3.11-7.46-2.46l-8.51-5.04c29.94,38.29,76.5,90.24,71,142,.1-.13,1.48.08,1.95-.52,3.56-4.5,6.2-10.03,11.83-12.69l1.22-12.79c1.05-1.06,12.82,3.43,14.98-.49-2.21-3.24-4.54-7.58-6.7-11.98.84,1.55,1.73,3.05,2.72,4.48ZM287.4,766.54c.86,1.93,1.7,3.92,2.53,5.93-1.17-2.7-2.05-4.83-2.53-5.93Z" fill="#cfd3e4"/><path d="M490.15,621.99c-.77-1.44-4.48-2.98-5.99-3.54-1.15-.43-2.46-.24-3-.45-16.9-6.67-20.62-8.56-45.47-2.67l-5.52,4.16c19.54.63,14.68.87,21.99-.49-9.21-.27-11.25.89-10.99-.99h31.99c-.28,0-1.53.98-2.75,1.17l19.74,2.81Z" fill="#cfd3e4"/><path d="M470.41,619.18l-1.25-.18c.38.21.81.25,1.25.18Z" fill="#cfd3e4"/><path d="M583.15,406.01c-21.53,3.25-58.07-10.53-43.99-.01,1.84,1.38,2.34,1.77,4.13,2.29-.36-.09-.73-.19-1.13-.29,17.7,9.71,40.31,1.43,40.99-1.99ZM572.12,407.68c-1.33-.12-2.59-.24-3.82-.36,2.43.14,4.25.21,5.49.28-.68.05-1.34.11-1.67.08ZM551.15,407.01c-.45,1.36-.55,2.18-.86,2.58l.86-2.58ZM573.16,409.46c1.69-.78,2.46-1.25,2.68-1.54.13.24-.8.67-2.68,1.54ZM539.3,404.2c.51-.69,1.79-.18,3.12.04,0,0,0,0,.01,0-1.82-.22-2.72-.25-3.14-.04ZM549.66,409.89c-.73.03-2.1-.44-5-1.23,1.16.29,2.74.67,5,1.23Z" fill="#cfd3e4"/><path d="M328.16,412.01c12.51,5.55,6.12,2.98,12.99,3.99-3.52-1.76-5.94-2.47-5.73-2.86,2.81,1.47,7.74,4.9,22.26,3.95,2-.13,1.34-2.12,2.09-2.16,3.03-.2,2.66.55,6.39-.93,3.83-1.52,9.25-4.26,11-7.99-16.55,4.22-15.8,2.26-14,4.98-2.55.05-6.94.44-14.36,1.02-6.86.13-13.78-.17-20.63,0ZM368.78,410c.39,0,.84.01,1.38.01-.54,0-.99,0-1.38-.01ZM366.16,411c.05-.12.09-.23.12-.32-.03.1-.07.2-.12.32-.04.09-.06.21-.07.34-.37-.23-1.05-.34-2.2-.35.76,0,1.51,0,2.26.01ZM366.36,410.42s0,0,0,0c0,0,0,0,0,0ZM344.07,412.38c-2.48.19-5.24.38-8.28.59.89-.22,3.43-.31,8.28-.59Z" fill="#cfd3e4"/><path d="M402.17,725.49c-1.42-5.21-.57-4.3-3.01-4.49.24,1.58.93,4.05,1,5l2.01-.51Z" fill="#cfd3e4"/><path d="M325.18,604.54c-.47,4.8,6.72,17.14,10,20.94,13.42,15.54,38.57,19.28,37.98-.48-1.87,1.52-4.46.53-6.31,1.03-.84.22-.67,1.95-1.27,1.98-8.18.47-19.86-7.56-23.51-11.68.76.78,1.52,1.1,2.09,1.67-8.76-16.14-5.45-21.85-6.37-22.94.16,0,.29-.01.37-.06,1.1-.75,1.46-6.47,2-8-2.94,3.53-14.61,13.75-14.98,17.54Z" fill="#cfd3e4"/><path d="M299.15,603c1.7-7.95,1.88-13.74.21-21.7-.35-1.69-.07-3.69-2.2-4.3-.52,3.87-4.63,9.88-4.1,12.89-29.01,18.45-10.44,4.84,6.09,13.11Z" fill="#cfd3e4"/><path d="M327.16,584c-2.63-.26-3.91.19-3.96.02.13.11,1.38-.28,3.96-.02.4.04,1.05.9,1.52.92.5.02.23-1.51,1.23-1.9,1.95-.74,3.99,1.62,3.26-3.02l1.99-1.01c-4.84.59-6.46,4.05-11,4-3.35-.04-4.39-1.9-4.68-1.97-3.42-.85-6.88.31-9.32-4.03-.14,2.64-1.46,3.27-.36,7.87,2.74,11.49,7.68,5.96,14.72,1.93,1.34-.77,3.19-.32,2.64-2.81ZM323.19,583.99s0,0,0,0c0,0,0,0,0,0Z" fill="#cfd3e4"/><path d="M415.16,719c2.78,19.28,3.27,36.93-5.02,54.99-3.7-19.63-1.09-27.04-6.99-38.99.27-2.03-.21-6.81-3-6,.29,8.12-.05,14.13-2,22-4.05,16.31-14.23,29.21-31.61,38.85-10.6,5.88-14.87,2.99-3.85,7.1l20.46,1.06c-2.34,5.97-7.84,6.7-12.37,9.11-5.49,2.93-8.83,6.47-15.62,5.89,2.9,5.64,23.34,5.9,25.58,8.93-.77,4.3-.21,10.45-1.01,14.56-2.21,11.37-36.97,104.75-52.83,159.2-.1-.3-.33-.55-.75-.71-2.22,7.3-5.17,14.55-7,22-.55,2.24-.9,4.68-1,7h35c30.04-115.64,18.39-65.2,47.02-151.48,10.02-30.21,12.2-56.89,25.49-86.54,12.41-27.68,5.68-64.26-10.51-66.97ZM320.57,1017.88c.87.06.94-2.93,4.67-16.32-3.73,13.4-3.8,16.39-4.67,16.32Z" fill="#cfd3e4"/><path d="M629.18,353.58c-3.61-1.7-1.39-7.07-4.14-10.95-9.22-13.06-24.51-10.12-39.46-13.53-1.19,2.5-.63,2.47-2.04-.16-14.11,3.27-35.85-1.84-48.95,0-1.88.26-1.32,1.92-2.11,2.09-2.37.51-4.38-1.12-5.76-1.05-.6.03-.48,1.94-1.21,2.08-1.5.28-3.39-.9-5.41-.61-37.05,5.23-42.38,32.41-28.66,63.83.66,1.51.15,3.27,2.71,2.74-.03-.33.02-.67,0-1-.52-7.64.94-15.49-1-23,4.27-2.14,8.73-3.85,13-6,1.27-2.55,11.33-11.68,14-13,.69-9.2,9.72-8.63,16.22-11.08,3.26-1.23,5.17-2.59,9.78-3.92,10.93-3.15,18.47-3.67,30-3,27.2,1.58,48.95,20.03,50,48l3.02-31.42Z" fill="#cfd3e4"/><path d="M413.45,479.21c14.66,5.44,24.62,21.76,41.94,14.51,13.46-5.63,20.1-14.63,37.23-15.77,11.55-.77,26.23,7.73,18.54-18.96-.17,3.5-7.49,8-7.59,8-5.89-.23-2.22.57-4.07,1.03-2.47.61-5.48-1.48-7.67-1.06-.38.07-2.41,3.9-6.67,2.04-.18-8.94-2.7-29.77,11-29,.02-2.07,10.47-2.62,8-4.99-19.59-4.13-30.12-38.04-33.86-57.71-.35-1.85.85-3.89-2.14-3.3-.26,4.07-1.83,9.29-2,13h2c.26.33-1,4.44-1,5.5v17c0,4.39.4,7.4.94,9.5h-.94c1.11,9.05,3.6,17.99,5,27,.49,3.17,2.14,10.95,2.02,13.42-.03.6-1.76.43-1.99,1.27-3.49,12.91-10.6,21.88-25.43,23.32-.71.07-.52,1.95-1.22,2.04-9.47,1.29-17.69-5.86-25.69-9.25-2.97-1.26-6.75-1.82-9.92-2.89-.7-.23-.74-1.72-1.48-1.89-6.02-1.37-8.13,2.07-13.3,3.96,7.19,10.14,7.38-.83,18.29,3.21ZM469.02,421.58c-.24-.46-.45-.98-.62-1.56.2.61.41,1.12.62,1.56ZM471.03,424.44c0-.13-.37-.49-.85-1.09.51.57.86.8.85,1.09-.44,7.1,1.02,12.02,1.9,15.46-.88-3.4-2.34-8.29-1.9-15.46Z" fill="#cfd3e4"/><path d="M387.16,359c4.24,1.58,12.08,6.9,14,11,4,1.81,8.5-1.45,13,1,2.69-29.25-5.38-32.05-32.55-35.04-18.42-2.02-14.95,2.55-18.44-1.95-.51,5.26-2.97.1-4.45-.09-12.32-1.52-25.21,1.89-37.14,1.17-.5-.03-.27,1.6-.9,1.7-4.05.61-9.59-1.49-14.1-.87-.53.07-6.69,2.49-9.43,3.07-.9,5.49-3.28,10.56-4.57,15.96-.33,1.36.62,2.65.54,3.42-.04.33-3.65,1.87-1.96,5.61,1.55.37,2.22-1.24,3.67-3.67,9.14-9.2,19.69-12.8,32.32-15.32,40.76-3.88,58.9,9.49,60,14ZM296.34,358.05c2.09-2.85,5.52-6.21,12.05-8.88-4.56,1.95-8.66,4.77-12.05,8.88ZM309.13,348.87c.12-.05.25-.1.38-.14-.12.05-.25.09-.38.14Z" fill="#cfd3e4"/><path d="M512.16,501c.51-.59,1.24-1.08,2-2,3.39-4.08,4.55-6.14,7-11-3.84-2.6-3.74,2.12-6.96,3.52-5.56,2.44-14.97,4-21.05,4.47v4.01c-5.27-1.28-4.24-1.6-5.01.97-2.49.03-1.72.54-2.97-1.96-.18,3.68-3.8,3.16-5.91,4.6-4.54,3.08-9.05,7.64-13.8,10.2-22.94,12.4-36.19-11.86-56.58-17.11-2.25-.58-1.23-.95-2.72,1.31,6.46,8.28,9.42,8.66,16.55,14.39,7.35,5.91,19.24,18.39,28.02,20.53,3.45.84,16.62,1.78,18.04-1l2.96,1c13.55-5.9,22.07-13.67,27.34-19.42-.3,1.02,5.21-3.79,12.09-11.5-.49.06-.94.21-1.37.39,1.06-.54,1.16-.01,2.37-1.39Z" fill="#cfd3e4"/><path d="M314.16,513c3.77,2.24,11.74,7.39,15,10,3.34-5.72,5.47-9.44,7-12,7.34-6.4,13.58-13.79,20-21,4.36-4.9,8.87-10.04,13.67-14.33,9.25-15.18,8.01-12.47,8.33-15.67-2.45-4.7-3.24-.18-5.1,1.4-13.32,11.31-27.08,18.69-40.04,27.96-20.73,14.82-13.3,16.96-18.86,23.64ZM341.25,504.25c-.87.85-1.69,1.72-2.44,2.64.81-1.09,1.51-1.81,2.44-2.64Z" fill="#cfd3e4"/><path d="M466.36,369.31c.56,1.51,1.76,1.57,1.8,1.69,9.28-27.05-34.74-16.75-36.54-14.05-.7,1.06-1.73,6.7,1.54,6.05,3.78-.2,5.52-3.65,9.64-3.93,1.16-.08,8.79.2,9.82.42,1.43.31,13,5.06,13.37,5.68.55.92-.08,2.91.37,4.14Z" fill="#cfd3e4"/><path d="M595.89,556.84c-.15.25-3.93-.03-.23,3.14,2.21-.05,16.07-22.76,17.5-35.98-.11-.27-.2-.53-.29-.8.09.27.18.53.29.8,1.17-10.77.17-14.86-6-23,.06.21.14.41.2.61-3.54-4.99-9.91-10.79-21.46-17.83-3.99-2.43-8.27-2.37-10.47-3.48-1.95-.98-2.18-3.05-2.4-3.18-.1-.06-.77,1.53-40.12-19.18-.64-.34-2.07-4.79-2.7-.5,2.24,8.08,64.4,52.81,67.31,59.56.82,1.91,2.73,16.31,2.61,18.46-.11,1.9-3.66,20.39-4.24,21.38ZM612.02,517.58c-.11-2.25-.14-4.61-.69-7.21.61,2.51.6,4.89.69,7.21ZM612.82,523.07c-.07-.21-.12-.41-.18-.62.06.21.11.41.18.62ZM612.49,521.79s-.01-.05-.02-.08c0,.03.01.05.02.08Z" fill="#cfd3e4"/><path d="M582.16,542c3.22-2.64,5.34-2.46,5.01-8.29-3.64-4-6.66-6.47-9.42-7.83.14.04.27.08.4.12-9.14-6.2-20.25,1.86-27.63,7.71-3.31,1.46-7.08,2.88-11.48,4.12-1.02-1.64-3.31-.39-4.72-.17-5.7.9-11.51,1.42-17.17,2.35-3.46.56-1.79,2.84,1.4,3.08,33.91,2.48,51.61-19.61,63.6-1.08ZM566.82,525.74c-2.83,1.09-5.91,2.83-9.65,4.76,3.26-1.87,6.28-3.74,9.65-4.76ZM517.37,540.24c.68.6,2.35.79,4.49.73-1.52.2-3.5.46-4.49-.73Z" fill="#cfd3e4"/><path d="M375.69,538.02c-7.98-5.47-12.92-10.67-23.4-6.37-4.48,1.84-2.09,2.57-2.47,3.11-.45.63-1.52.95-1.66,1.24-1.44,2.93-2.52,5.22,1.5,7,5.64-12.39,18.6-3.77,28.5-2,.49-2.22-1.22-2.12-2.47-2.98Z" fill="#cfd3e4"/><path d="M761,368.66c-6.6-10.18-21.83-6.95-23.64,5.05-.27,1.8-.17,2.15,1.31,3.26,26.2-16.43,23.12,21.41,14,35.01-2.27-6.95-1.34-15.07-6.07-21.07-2.39-.37-14.92,10.92-15.93,13.09-1.72,3.68,3.43,8.44,5.01,11.98,5.59,12.49,5.29,30.68-3.07,41.94-5.29,7.12-12.26,3.76-16.45,23.06-7.53-5.92-5.71-17.33-3.03-25.54,1.44-4.42,7.46-12.99,7.9-16.21.11-.82-3.86-12.03-3.86-15.75,0-27.53,1.1-29.72-4.19-17.19-1.58,3.74-4.65,10.21-2.8,13.68-17.14,5.74-6.66,62-22.45-71.05-1.14-1.63-37.77-5.9-39.43-4.8-.44.29-.51,2.25-1.12,3.15-.45.65-1.83.61-2,1.4-.94,4.3-1.73,16.31-2.01,21.31l22,1.01c-1.15,4.08-6.38,2.92-22.95,8.09.86,2.51.33,4.42-.05,6.89l18.54,2.48c4.11,3.86,10.07,6.29,11.45,12.52-31.66-7.15-31.24-8.1-31.99-5,5.13,7.55,16.11,9.68,21.9,15.6,1.95,2,2.67,4.33,4.1,6.4,4.59,22.95,5.75,23.3-1,16-3.48-3.77-6.01-8.45-9.78-11.94-1.26-1.16-10.19-8.13-11.22-8.58-1.78-.77-1.83-.29-2.98,1.01.77,1.74,2.49,3,3.37,4.61,1.78,3.28,10.74,20.63,11.04,22.79,1.42,10.21-1.83,23.32-9.4,30.64-4.79,4.64-12.02,7.41-17.08,11.22-.45.78-.74,6.34-.58,7.53.83,6.13,3.35,7.21,3.62,13.71.33,7.82-.24,13.24-1,21-4.26,43.29-55.51,117.78-67.5,129-1.28-3.91,2.71-7.63,4-11,3.88-10.11,7.83-21.25,9.01-31.98-10.47,12.19-18.15,26.49-27.66,39.37-39.15,53.01-70.6,42.49-71.16,42.62-.79.18-.25,1.82-2.12,2.07-4.05.55-24.71.18-30.07-.01-34-1.23-48.18-18.33-66.49-43.58-1.04-1.43-1.92-2.64-2.01-4.49-.82.9-3.1,1.28-2.81,3.3,2.68,3.7,1.92,10.5,3.32,13.68,1.28,2.9,22.71,22.33,27,27,2.35,2.56,4.43,6.99,6.92,9.08,7.39,6.18,47.37,9.55,58.03,8.96,70.72-3.9,165.04-59.08,199.71-121.35,14.02-25.19,19.24-55.51,20.9-84.12l-3.07-1.04c5.95-2.7,3.58-9.17,4.01-14.5,4.48,4.15,4.7,9.97,5.99,15,1.92-.25,2.93-.03,3.46.07-1.07.07-2.4-.21-3.46-.07.72,2.82.74,4.8,3.99,4,.03,1.32.06,2.26-.08,2.92.05-.29.06-.6.09-.92-2.51,0-1.99-.38-1.99,1.5.1.29.87.27.99.5.11-.03.2-.07.29-.12-.09.05-.18.09-.29.12,4.91,9.39,12.57,14.15,22.01,6.51,11.57-9.38,12.73-28.8,16.73-42.27,7.53-25.41,37.44-83.9,22.1-107.57ZM640.84,534.43c-.2.73-.44,1.72-.72,3.03.22-1.04.29-2.12.72-3.03ZM633.24,524.3c.02.22.03.43.02.62,0-.19,0-.4-.02-.62ZM633.22,522.54c-.05.36-.05.72-.03,1.08-.02-.35-.02-.72.03-1.08.33-2.34.61-4.67.78-7.01-.17,2.34-.45,4.68-.78,7.01ZM633.24,525.2c-.02.17-.07.33-.15.46.08-.13.13-.29.15-.46ZM632.94,525.84c-.12.1-.27.18-.48.22.21-.04.36-.12.48-.22ZM660.04,527.5c-.36,4.97-.15,11-.88,16.5-.09.64-.18,1.28-.29,1.93.1-.64.2-1.29.29-1.93-4.09,7.68-5.15,16.65-8.51,24.99-1.93,4.78-5.01,9.1-6.81,13.95-14.97,24.73-35.48,44.5-37.67,44.05,5.51-20.38,23.04-40.68,29.99-63.99-.25-.13-.46-.23-.62-.4.15.17.36.27.62.4,3.4-11.4,5.55-26.57,5.43-29.59.17-.15.35-.29.57-.41,1.78-10.43,1.46-34.32,15.99-49-1.8,4.54,1.92,6.06,1.89,6.43-.24,3.75-.69,11.24.12,14.91.17.77,1.91.62,1.88,1.09-.34,7.06-1.52,14.33-2,21.07ZM635.46,562.49s.04.05.05.07c-.02-.02-.04-.04-.05-.07ZM668.38,439.51c-.73-.56-1.56-1.74-2.45-3.66.89,1.93,1.72,3.1,2.45,3.66.31.24.6.37.87.4-.27-.03-.56-.16-.87-.4ZM700.62,511.76s.02-.02.03-.03c-.01,0-.02.02-.03.03ZM701.06,510.94s-.02.08-.03.11c0-.04.02-.07.03-.11ZM701.14,501.39c.02.46.05,1.05.04,1.83-.02-.41-.04-1-.04-1.83ZM701.94,503.76c-.19.08-.39.13-.59.18.09-.24.26-.17.59-.18ZM701.52,500c-.22.08-.33.24-.37.5,0-.17,0-.31.01-.5h.35ZM699.12,500.62c-.04.08-.12.17-.24.25.12-.08.2-.17.24-.25.04-.08.04-.17,0-.25-.04-.08-.12-.17-.24-.25.12.08.2.17.24.25.04.08.04.17,0,.25ZM701.16,503.94s0,.04,0,.06c0,0,0,0-.01,0,0-.02,0-.04.02-.06Z" fill="#cfd3e4"/><path d="M515.82,582.66c1.64-1.91,2.45-7.32,6.29-7.72l-1.46-2.94c-.7,2.94-2.29.93-5.09,1.8-6.65,2.07-14.3,9.38-22.97,7.31l-.99,1.95c-3.61-1.89-3.9-.06-7.45.94-5.25,1.47-8.71,1.18-10.21,1.97,1.5-.8,4.96-.5,10.21-1.97l-28,2c-6.36-.17-13.18,1.92-19.57,1.08-1.88-.25-1.32-1.93-2.11-2.09-2.2-.47-6.47.58-13.63-.32,1.44.12,3.14.21,5.31.34-7.35-1.98-14.78-3.54-22-6-.93-.32-1.51-1.46-3-.99,18.39,35.68,87.11,36.72,114.66,4.65ZM473.71,586.13s-.08.05-.12.08c.03-.03.08-.05.12-.08Z" fill="#cfd3e4"/><path d="M690.16,585.01c-8.01-1.77,2.72,33.49-111.49,123-5.31,4.16-54.62,44.57-78.51,41.98-.03,5.49.24,1.5-8.67,1.39-7.28-.09-19.95,2.61-24.93-1.46l-3.84,1.13c-1.03-2.62-7.82-2.52-11.06-3.28-.36-.09-2.64-3.5-6.49-1.76,3.79,13.71,2.07,34.33-4.08,47.19-7.38,15.42-9.61,17.89-12.37,34.33-.66,3.93-4.13,11.7-2.03,15.46,2.14,3.83,27.92,17.95,33.26,19.74,86.78,29.04,159.43-48.31,157.24-58.73l2.99,1.01c.15-7.72,2.03-4.72,4.77-6.22,1.59-.88,49.65-64.98,62.8-126.72,4.71-22.12,1.64-31.19,2.44-87.05ZM574.6,799.94c-38,57.57,13.83-53.02,37.55-76.94-10.89,26.36-21.79,53.05-37.55,76.94Z" fill="#cfd3e4"/><path d="M698.13,166.54c1.91,6.46-12.4-7.69-17.03-10.97-28.79-20.42-34.19-13.78-38.93-16.56-1.68,2.07,4.32,3.51,5.88,4.62,42.27,30.02,44.8,70.22,72.41,81.62,2.63,1.09,4.28,1,5.37-1.89.23-.6,3.08-27.92-5.65-56.86,9.76,5.12,28.15,32.38,28.97,33.51-2.2-29.85-19.5-55.11-43.67-71.82-30-20.73-55.87-11.46-55.31-15.17,35.79-12.82,45.63-3.1,58.97-.5-14.52-19.2-30.9-22.62-52.42-17.45-18.08,4.35-24.66,23.85-24.56,23.93,24.06-1.47,58.86,23.5,65.97,47.54Z" fill="#ffd007"/><path d="M541.4,240.77c.18-.42,1.16-1.17,2.76-2.77-3.35.53-5.5.48-8.99-.03-.04-4.17.02-.07-8.01-1.96,5.51,5.74,14.55,6.56,22,6.99-.13-.15-.24-.28-.35-.41,1.02.68,2.94.78,9.35.41,1.88-5.05,1.16-4.98,2.48-1.03-1.32-3.94-.61-4.01-2.48,1.03,14.61-.85,21.89-4.81,22.85-6.16.08.09.13.16.15.16,15.07-3.96,26.89-22.84,27.99-22,8.86,22.47,25.11,42.79,29.89,66.62,2.25,11.2,2.7,23.11,4.18,33.73.45,3.23,1.75,6.37,1.94,9.65,12.84,2.56,26.06,4.23,39,6,.62-11.69-11.89-23.74-15-24,2.34-4.32-.63-5.15-1.5-7.99-3.88-12.6-8.53-35.55-13.56-46.22-1.27-2.7-11.58-12.16-14.75-16.46-28.82-39.19-25.17-56.69-29.2-75.31l-8.81,29.67c-23.9,48.59-51.81,42.64-59.94,50.1ZM547.17,240.71s.06.07.08.1c-.04-.03-.08-.04-.1-.04,0-.02.01-.04.02-.06ZM541.41,241.03c1.23.21,2.17.39,2.9.53-1.76-.22-2.68-.29-2.9-.53ZM546.42,241.87c.22-.03.34-.12.44-.3-.03.11-.07.22-.11.35-.12-.02-.21-.03-.33-.05Z" fill="#cfd3e4"/><path d="M512.84,205.23c-2.27.45-8.59,8.42-11.16,10.79-8.47,7.82-47.06,43.59-40.53,52.97,2.32-1.12,4-2.59,6-4,6.55-2.55,12.36-6.91,18-11-.96.51-1.78.96-2.5,1.37.72-.41,1.55-.86,2.5-1.37,10.63-7.7,17.07-14.01,21.93-19.17-1.37,1.5-2.69,2.93-3.93,4.17,2.98-2.07,17.04-13.6,17-17-2.09,1.45-4.25,3.45-6.4,5.64,2.07-2.15,4.08-4.02,6.4-5.64,4.78-3.33,6.19-1.08,10.32-2.02.74-.17.61-1.79,1.36-1.96,9.46-2.19,38.13-3.35,47.14-17.7,7.64-12.17,14.28-28.89,12.17-43.33h-2.98c-12.78,49.23-65.62,46.31-75.34,48.23ZM480.97,256.33c.35-.2.74-.43,1.18-.67-.43.24-.82.47-1.18.67ZM480.32,256.7c.06-.04.13-.07.2-.11-.07.04-.13.08-.2.11Z" fill="#cfd3e4"/><path d="M667.15,238.52c-9.28-13.8-17.18-37.94-17.49-43.51,20.69,23.51,42.09,51.3,74.99,57.01l.5-1.99c-31.39-15.08-38.07-38.07-47.18-51.33-11.23-16.36-26.39-31.7-44.81-39.68l.74,1.78c-.08.21-1.54.18-1.72.89-.38,1.52.76,18.02,1.08,20.72,2.95,24.83,35.84,66.8,33.88,56.12Z" fill="#ffd007"/><path d="M485.66,197c-7.43,5.97-49.48,45.98-78.5,54.61-12.4,3.69-35.83,8.8-49.44,4.51l-7.56.88c4.56,2.12,8.96,3.25,14,4,7.67,1.14,11.98,1.2,16.53.85l-1.53.15c7.7,3.39,33.35-1.42,40-3,7.75-1.84,14.83-4.61,22-8-1.27.67-6.54.06-6.82.25-11.79,7.98-15.39,4.35-15.32,6.78-.08-2.47,3.57,1.18,15.32-6.78.28-.19,5.54.39,6.82-.25,6.56-3.28,10.02-5.97,15.85-9.65,2.6-1.64,5.79-2.22,8.15-4.35,6.66-19.41,24.13-38.14,20.5-40ZM419.04,258.3s0-.05,0-.08c0,.03,0,.05,0,.08ZM419.09,258.62s0,0,0-.01c0,0,0,0,0,.01Z" fill="#cfd3e4"/><path d="M308.16,224c5.67,15.8,10.17,19.26,20.27,22.08-1.29-.33-2.69-.68-4.27-1.08,16.15,8.59,27.46,1.98,29,7,.46-.26,1.61-.09,3-1,.63-.41,2.44-.22,3.27-.94l19.73-17.05c-46.26,12.24-63.99-5.53-71-9.01ZM333.3,247.33c1.51.37,3.13.75,4.86,1.17-1.32-.28-2.87-.66-4.86-1.17ZM341.66,249.05c1.54.09,3.07.07,4.6,0-1.83.11-3.21.13-4.6,0Z" fill="#cfd3e4"/><path d="M274.67,235.02c-22.25,12.5-24.27,48.47-19.52,45.99v.97c-4.4-.93-1.51,17.95,2,21.01-.53-19.22,10.94-27.65,11.8-30.71,1.85-6.58,1.27-18.52,2.58-25.63.67-3.67,3.58-7.51,3.14-11.65Z" fill="#ffd007"/><path d="M538.94,181.28c16.87-5.14,31.04-17.17,38.22-33.27l-30.65,18.84c-16.11,8.68-41.16,12.15-43.35,16.14,12.77.99,23.29,2.1,35.78-1.71Z" fill="#ffd007"/><path d="M692.71,269.95c-1.65-.97-14.92-3.42-15.55-2.94,11.41,20.9,32.33,36.16,54.99,42.99l-22.6-20.38c-3.67-3.85-13.43-17.65-16.85-19.66Z" fill="#ffd007"/><path d="M613.17,119c2.16-1.93,7.71-6.52,8.97-8.72,1.42-2.47.87-5.07,1.32-6.08.14-.3,1.77-.54,2.08-1.25,7.76-17.56-12.39-43.44-16.38-39.95,7.09,17.65,8.29,37.49,4.01,55.99Z" fill="#ffd007"/><path d="M244.17,239c2.18,1.99,2.11-2.8,6.15-8.33,9.45-12.9,22.94-24.55,37.76-30.75-11.85-29.89,3.62,15.53,69.5,4.01,2.93-.51,17.82-7.64-5.11,8.89-3.1,2.24-8.57,4.44-10.7,6.11-1.16.91-.53,1.91-.61,3.08,76.83-3.12,111.36-75.98,67.06.3l-9.06,9.2c3.53,1.27,7.89-1.41,11.03-2.97,45.78-22.76,56.09-61.86,117.96-81.52-21.91-6.43-43.66-1.12-51.33,2.96-.67.36-.68,1.8-.81,1.85-.27.11-3.25-1.07-5.26-.82-7.76.97-46.55,22.33-60.64,27.45-8.53,3.1-34.25,9.17-33.95,6.55,44.73-15.4,68.85-54.74,105.39-58.01,1.47-2.58.42-2.33,4.04-.96.38-3.7,38.06-5.04,61.56,5.95-8.51-26.49-42.29-41.31-68.47-42.06-6.33-.18-9.3,2.54-17.04.84-.55-.12-.1-1.89-1.91-1.86-18.83.32-42.99,5.53-43.56,2.1,44.75-22.51,101.16-26.86,138.64,11.34l15.35,15.64c-1.34-3.93-2.68-13.9-5.26-16.72-.98-1.07-3.43-.96-3.72-1.35-.28-.37.89-2.12.49-2.97-.63-1.34-2.9-1.53-3.35-2.17-.27-.37.64-3.12-.19-4.98-.36-.8-1.9-1.26-2.63-2.6-1.84-3.38-3.34-6.91-5.33-10.19,26.01,17.78,17.05,12.44,39.49,24,1.01-10.05-8.54-16-14-23.01l-1.49,1.99c-.22-3.61.53-2.81-2.88-3.09,1.09-7.16-40.3-35.08-68.13-38.9,15.65,14.97,11.24,10.01,19.98,21.99-30.3-12.48-29.03-8.02-33.32-9.01-.76-.18-.62-1.88-1.34-2.02-2.45-.48-6.28,1.65-8.82,2.05l-1.06-3.08c-66.33,1.92-100.07,27.27-139.93,40.83-4.78,1.63-15.94.11,9.98,3.23,10.64-.82,19.03-3.46,28.91-2.92l1.02-1.98c7.78.84,18.67-1.43,26.27-3.91,15.17-4.95-24.02,21.35-63.19,22.89-10.1.4-12.21-2.2-23.47,1.47-32.44,10.57-66.62,37.1-76.02,70.96,2.81-.79,4.06-3.73,6.73-5.26,1.76-1.01,11.09-4.13,12.25-3.24-26.12,29.92-18.26,67.82-16.99,68.99ZM424.18,111.52c14.73-6.43,21.9-5.52,35.98-5.52-18.4,7.61-45.78,17.11-72.99,53,3.56-21.98,16.74-38.63,37.01-47.48ZM335.16,137.51c10.34-5.37,21.82-7.26,30.99-15.02,3.72-2.24-7.47,14.17-29.02,21.99-7.42,2.69-14.31,1.45-21.97,1.51l1.02-2.47c-5.35-.7-9.96.89,18.99-6.01ZM366.15,148c-4.16,12.47-15.98,26.07-37.12,33.43-5.5,1.91-19.2.81-26.09-.71-14.69-3.24-30.42-16.51-31.79-32.21,28.41,27.28,68.8,21.7,95-.51Z" fill="#ffd007"/><path d="M749.66,201v1c.65-.33.65-.67,0-1Z" fill="#cfd3e4"/></svg>