<?xml version="1.0" encoding="UTF-8"?><svg id="a" xmlns="http://www.w3.org/2000/svg" width="1024.06" height="1024.14" viewBox="0 0 1024.06 1024.14"><path d="M181.39,1024H.06V0h1024v1024h-196c.26-3.84-3.7-13.22-2.38-16.04.9-1.92,23.09-12.62,21.58-24.19-33.83-121.8-41.09-262.69-100.96-305.62-54.55-39.12-86.05-45.01-160.09-103.37-2.97-20.3.33-62.72-.82-94.27,1.11-7.53,3.94-13.79,5.04-21.45,1.23-8.59.86-21.45,2.6-29.1.95-4.16,5.26-4.47,7.72-6.42,18.35-14.51,34.25-65.66,32.63-96.02-.81-15.19-5.8-36-18.35-31.76-2.55-4.07,2.99-116.11-15.64-152.25-17-33-41.83-60.82-65.54-81.69-16.99-14.96-16.46-17.87-37.46-20.82-4.73-.66-7.22-3.9-12.27-.38-1.97,1.37-4.04,5.67-5.21,6.19-2.28,1.02-5.02-.33-8.01.98-4.34,1.91-6.4,9.12-10.49,11.27-5.5,2.89-10.05-.92-16.03,5.96-5.84,6.72-4.36,15.76-6.5,19.75-.57,1.07-4.97,3.26-6.79,6.31-2.84,4.76-2.69,10.76-4.34,14.49-1.25,2.82-10.19,12.4-12.71,15.94-31.03,43.55-28.03,85-27.99,170.52-16.17-2.2-15.32,25.5-13.89,42.33,2.2,26.02,6.49,64.36,21.93,80.1,6.43,6.55,6.06-.42,7.29,15.07,2.28,28.68,3.06,49.78,17.2,72.2,0,4.02,3.4,74.62.68,81.6-.87,2.24-23.41,18.9-26.97,21.55-127.18,94.47-139.75,71.3-168.14,162.78-20.84,67.15-32.49,141.71-53.13,209.29-2.36,13.19,8.41,19.26,14.4,24.73l-4.03,22.33Z" fill="#17c37b"/><path d="M16.06,1024l6.05-22.33c-9-5.47-25.15-11.54-21.61-24.73,30.96-67.59,48.44-142.14,79.7-209.29,23.35-50.17,36.04-64.01,86.18-87.82,27.7-13.16,201.6-88.15,206.49-96.51,4.06-6.95-1.03-77.76-1.02-81.6-21.21-22.42-22.38-43.53-25.8-72.2-1.84-15.49-1.29-8.52-10.93-15.07-23.17-15.74-29.59-54.08-32.9-80.1-2.14-16.83-3.42-44.53,20.84-42.33-.07-87.26-4.01-127.49,41.98-170.52,3.78-3.53,17.19-13.12,19.06-15.94,2.48-3.73,2.26-9.73,6.51-14.49,2.73-3.05,9.33-5.25,10.19-6.31,3.21-3.99.99-13.03,9.75-19.75,8.96-6.87,15.8-3.06,24.04-5.96,6.13-2.15,9.22-9.36,15.73-11.27,4.49-1.31,8.6.03,12.02-.98,1.75-.52,4.86-4.82,7.81-6.19,7.58-3.52,11.31-.28,18.41.38,31.49,2.94,30.7,5.86,56.18,20.82,35.56,20.87,72.8,48.69,98.31,81.69,27.77,35.93,19.98,148.55,23.45,152.25,18.83-4.24,26.31,16.57,27.53,31.76,2.43,30.36-21.43,81.51-48.95,96.02-3.69,1.95-10.16,2.26-11.58,6.42-2.62,7.65-2.06,20.51-3.9,29.1-1.64,7.65-5.88,13.91-7.55,21.45,1.75,31.91-3.26,73.78,1.23,94.27,223.05,117.22,261.97,70.47,315.95,191.56,30.99,69.52,46.25,146.93,75.63,217.44,2.27,11.64-30.96,22.18-32.37,24.19-1.98,2.82,3.96,12.21,3.57,16.04h-266c89.96-129.68,72.06-156.77,96.98-224.52,14.3-38.88,8.9-13.79,8.92-9.98.12,17.16-1.89,90.4-1.9,90.5,3.95,5.41,29.48-93.79,45.81-132.68,3.97-9.45,11.67-19.2,9.27-22.84-9.16-13.9-52.82-38.47-74.08-43-16.44-3.5-95.54,18.72-173.32,2.68-98.42,91.41-273.97,56.84-302.84-44.51-.97-3.42-1.14-13.46-4.36-13.7-20.01,8.2-39.06,18.48-58.81,27.23-138.14,61.19-145.87,50.73-186.45,155.55-21.71,56.08-36.68,114.81-61.24,169.86-1.75,10.11,63.12,38.78,72.08,42.89,7.75,3.56,8.91,2.52-74.07,2.52ZM504.05,72.99c1.19-13.9-5.73-22.54-19.99-21.99,22.95,19.15,15.26,22.92,19.99,21.99ZM482.05,78c3.07-13.18-5.85-23.06-18.99-24-.47,2.93,2.51,2.12,4.42,4.07,4.34,4.43,8.82,12.51,12.09,17.95.76,1.27-.2,2.53,2.48,1.98ZM531.05,72.99c-2.23-7.95-9.82-16.45-17.99-17.99l17.99,17.99ZM454.05,59.01c-4.47-.06-9.72,4.12-8.99,8.99,6.79,0,5.26-5.18,8.99-8.99ZM438.05,71.01c-8.41-3.1-26.29-.84-24.81,11.22.42,3.42,4.86,9.12,8.81,8.76.31-2.71-2.18-2.25-3.85-4.64-2.59-3.71-2.89-7.91.28-11.42,7.62-8.43,13.65,12.16,20.56,12.06-.94-5.23-5.62-3.69-1-15.98ZM380.06,135l.99-3.99c-11.58,1.15-37.32,32.27-40.99,35.51l1.95,3.45c-2.78.4-3.41,7.25-4.95,10.03,11.74-10.96,9.28-8.89,12.5-10.99,2.92-.91-5.23,7.97-5.53,8.47-2.98,4.9-3.02,8.22-4.24,12.76-.26.98-4.69,9.23-1.25,7.76.84-.36,2.17-3.31,3.51-1.5-7.83,14.99-7.69,12.06-4.96,15.9l-6.03,21.6c3.46.45,2.87-5.65,5.51-6.98,5.01-2.53-3.51,10.6-3.51,13.49,0,22.07-1.28,19.75,3.99,10.5.15,9.23-5.32,19.48,1.09,27.43l1.93,33.56,3.99-2.99c.27,3.83,1.82,7.9.96,12.46-.48,2.54-3.17,3.84-2.95,6.97.18,2.62,3.78,6.03,4.73,9.33,10.59,36.6,4.38,82.59,12.73,119.27,7.52,33.05,54.61,75.13,82.54,92.96,21.67,13.84,37.7,17.99,63.82,11.32,34.86-8.9,97.07-61.52,109.66-95.34,12.29-33.01,3.42-75.06,20.54-106.98,2.44-.78,2.41,1.97,2.69,3.76,2.68,17.2-6.65,35.26-2.66,52.2,30.11-6.22,62.5-84.7,41.97-106.49-12.42-13.18-30.11,13.22-31.22,24.39-3.38.25-2.65-.82-2.81,4.14-3.51.5-1.4-5.32-3.18-8.32-2.09-3.51-4.8.6-3.79-11.07.26-3.06,2.58-5.73,3-9.09,1.35-11.03-.41-32.22-.01-45.02,1.99-64.27-11.68-129.58-80.79-151.23-10.02-3.14-22.77-6.26-33.22-5.28-13.08-5.89-24.11-.64-36.46.03-13.03.71-27.68-3.1-42.08-2.07-21.45,1.54-51.48,15.75-67.46,30.04ZM336.56,199v1c.65-.33.65-.67,0-1ZM339.05,336c.83-4.6,1.24-6.09-3.77-19.73-.96-2.6-10-12.49-12.48-13.51-25.03-10.38-6.28,77.39,9.74,95.25,1.56,1.73,11.02,12.46,12.39,6.41-5.45-42.96-5.81-50.88-7.99-45.03-1.66,4.44-1.1,10.12.11,14.6-2.21,2.58-9.77-5.51-10.87-7.62-4.29-8.21,6.4-21.78,5.7-26.63-.9-6.2-11.01-10.85-12.85-16.74-5.01-.89-1.36,7.01-3.97,7.99-.31-6.83-2.71-15.59,2.49-20.98l21.49,25.99ZM618.97,593.59c-.96-6.99-6.11-12.71-6.9-22.1-1.42-16.95-.97-70.63-1.02-72.48-3.38-.75-10.07,13.99-19.48,25.01-37.59,43.98-93.04,72.58-149.73,44.7l-20.79-12.71c-3.21-5.1-13.71-13.68-18.51-18.99-5.69-6.29-10.57-13.44-16.49-19.53-6.12-8.58,1.61,51.29-4.5,77.52-1.17,5.03-6.5,16.82-6.42,20.39.28,12.17,19.06,31.44,28.44,38.59,79.34,60.47,224.07,2.55,215.39-60.39ZM587.06,664c-11.29,3.98-87.49,47.84-165.97,12.47-27.3-12.3-61.45-41.27-56.04-74.46-.95-1.08-9.06,5.46-9.99,6-3.47,2-9.32,2.5-11.24,7.26-3.35,8.31.44,25.42,3.76,33.72,26.27,65.67,125.9,88.17,188,71.03,97.22-26.83,120.12-120.78,93.49-129.01,6.52,40.83-40.07,68.65-42.01,73ZM882.05,752.49c-14.9,37.56-23.94,143.33-41.99,208.51,1.33,1.39,8.98-8.28,9.98-9.51,56.4-70.18,39.39-217.58,32.02-198.99ZM919.05,883.01c-3.73-.23-2.84,4.21-3.7,6.79-10.5,31.48-22.06,62.63-32.29,94.2,3.19.74,28.38-31.31,34.53-62.96,2.58-13.25,2.49-24.64,1.46-38.03Z" fill="#112378"/><path d="M163.06,1024c-3.83-18.41-6.45-39.14-14.14-56.36-25.13-56.19-49.32-76.63-41.74-145.02,2.82-25.41,5.45,53.52,57.87,121.38-11.82-35.22-38.2-147.75-26.48-183.01,6.84-2.03,31.07,129.85,40.5,127.5.68-26.27,14.25-49.46,23.01-73.49,11.2-1.76-6.99,48.12-2.06,157.54l4.04,51.46h-41Z" fill="#112378"/><path d="M355.06,608c6.97,49.99,53.72,86.01,100.97,95.53,45.4,9.16,118.1,2.36,151.57-33.49,1.02-1.09,5.64-6.89,4.46-8.04-8.78.11-16.58-.97-25,1.99,1.96-4.41,48.52-32.19,42.01-73,26.66,8.24,3.64,102.2-93.49,129.01-62.1,17.14-161.73-5.36-188-71.03-3.32-8.3-7.11-25.41-3.76-33.72,1.92-4.76,7.77-5.26,11.24-7.26Z" fill="#cfd3e4"/><path d="M884.04,751c14.72,49.59,4.73,152.28-34.01,200.48-.99,1.24-8.65,10.91-9.98,9.51,17.41-62.83,33.74-211.5,43.98-209.99Z" fill="#03f"/><path d="M919.05,883.01c1.04,13.39,1.12,24.79-1.46,38.03-4,20.59-17.12,45.25-31.32,60.68-7.41,8.04-2.45,2.58,29.08-91.92.86-2.58-.03-7.02,3.7-6.79Z" fill="#03f"/><path d="M526.06,107c9.81,4.42,27.6,25.61,33.41,35.09,14.28,23.29,18.91,56.4,16.57,83.4-.61,7.06-4.56,14.14-2.21,21.25,1.27,3.84,5.99,6.64,5.23,11.26-18.11-6.02-36.69-9.24-55.26-1.76-14.61,5.89-12.89,15.07-17.87,24.13-1.93,3.5-6.13,5.97-8.07,10.93-3.94,10.08-3.7,40.65-2.78,52.18,1.07,13.53,13.86,36.8-2.76,44.27-5.14,2.31-8.03-.02-13.26.26l5,5.99c-13.48-1.5-4.67-11.43-34-10-9.64-8.39-4.52-11.09-5.5-17-11.91,13.57-3.66,28.07,12.5,32,1.5,3.31,7.39-1.69,27.25,14.98,3.66,3.07,8.23,7.14,10.75,11.02-42.89-.21-33.23-6.1-85.42,2.88-4.04,2.72,9.35,24.24,38.42,31.62,37.46,9.52,41.46,10.03,69,3.5-1.26,33.63-69.09,5.65-54.66,31.16,6.11,10.8,30.07,8.66,40.9,10.1,14.54,1.93,19.59,13.61,12.94,26.42-13.86,26.7-48.92,24.88-74.18,19.32-27.93-17.83-75.01-59.92-82.54-92.96-8.35-36.68-2.14-82.68-12.73-119.27-.96-3.3-4.55-6.71-4.73-9.33-.21-3.14,2.47-4.43,2.95-6.97,2.81-14.84-26.04-131.85,35.04-186.46,15.98-14.29,46.01-28.5,67.46-30.04,14.4-1.03,29.05,2.78,42.08,2.07,12.36-.67,23.38-5.92,36.46-.03ZM460.06,272c-6.94-34.91-96.13-20.21-98.99,18l20.33-14.16c20.09-10.92,47.01-6.46,43.67,4.17-10.29.43-37.36,8.83-46.3,14.2-1.46.88-10.51,7.66-10.71,8.31-1.46,4.71,12.09-3.37,13-2.51l-3.98,8.99c4.42-3.52,8.55-3.27,13.99-3.01l-1.09-4.34c6.48-5.95,6.43,1.83,9.55,4.38,7.07,5.79,18.3,5.28,25.54-.04,4.27,1.36,6.91-3.24,10.43-2.99,2.31.16,11.5,6.1,12.57,4.99-3.75-13.16-1.91-3.88,6-4,.03-.23-.01-4.76.02-4.99,6.65,1.46,3.24,11.27,10.98,10.99,1.56-10.04-1.96-18.47-3.74-27.75-.66-3.44-.5-6.44-1.26-10.24ZM386.06,318.01c5.05,12.23,20.4,10.79,31.54,10.04,3.9-.27,16.05-1.12,16.49-5.58.58-5.84-6.1-1.71-9.54-1.47-12.43.85-26.62.68-38.48-2.98ZM394.05,451c-.17-13.29-5.06-25.56,1.12-38.38,2.17-4.5,26.7-32.16,30.92-35.08,2.75-1.9,9.42-2.69,9.03-7.02-.69-7.72-16.89,4.53-19.54,6.51-34.06,25.38-36.72,42-26.29,69.24,1.03,2.69,1.33,5.62,4.76,4.74Z" fill="#fffbeb"/><path d="M526.06,107c10.45-.98,23.21,2.14,33.22,5.28,69.11,21.65,82.78,86.96,80.79,151.23-.4,12.79,1.37,33.99.01,45.02-.41,3.36-2.73,6.03-3,9.09-1,11.54,1.86,7.83,3.79,11.07,1.78,3-.33,8.82,3.18,8.32.16-4.95-.57-3.89,2.81-4.14,1.11-11.18,18.8-37.58,31.22-24.39,20.58,21.85-11.91,100.28-41.97,106.49-3.99-16.94,5.33-35,2.66-52.2-.28-1.79-.25-4.54-2.69-3.76-17.12,31.91-8.25,73.96-20.54,106.98-12.59,33.82-74.8,86.44-109.66,95.34-26.12,6.67-42.15,2.51-63.82-11.32,25.26,5.56,60.32,7.39,74.18-19.32,6.65-12.81,1.6-24.49-12.94-26.42-10.82-1.44-34.78.7-40.9-10.1-14.45-25.54,53.39,2.58,54.66-31.16,28.28-6.7,56.8-32.56,40.21-36.71-18.49-4.63-43.05-1.19-62.21-1.29-4.3-6.61-20.64-21.25-36-25,.43-3.48-4.2-5.7-4.99-7.51-1.73-3.98,4.22,1.1,4.65,1.35,11.1,6.5,21.91,6.62,34.34,8.17.69,2.88-2.36,1.91-4.37,3.12-1.41.85-2.49,2.22-3.63,3.39-1.4,3.35,8.3-.12,9.38-.62,10.32-4.72,16.29-10.71,27.88-12.11,19.99-2.4,19.77-38.75-2.26-35.78.46,3.08,3.55,4.8,4.73,7.76,7.38,18.5-14.3,16.74-18.44,19.03-2.61,1.44-2.68,3.37-4,4.26-3.94,2.65-13.6,3.47-18.29,2.95l-5-5.99c5.23-.28,8.12,2.05,13.26-.26,16.62-7.46,3.83-30.74,2.76-44.27-.91-11.53-1.15-42.1,2.78-52.18,1.94-4.96,6.14-7.43,8.07-10.93,1.42-2.58,2.58-7,4.13-10.37,1.82.23,4.33,4,5.5,4h19c2.42,0,7.17-2.68,10.5,0-3.43,1.31-9.82,5.88-12,9-3.04.76-8.06,3.32-8.98,6.52-1.09,3.78,7.8-.76,8.98-.52-1.68,4.97-10.51,5.75-9.99,11.99,2,.5,3.37-.52,5-.99l1.92,14.33c10.27,5.96,46.18,10.46,55.38,3.74,2.72-1.99,1.21-8.34-1.29-9.58s-16.09-.52-20.02-.49l9.6-11.88,34.4,13.87c-22.19-33.95-61.26-28.22-30.94-29.43l1.94-8.56c24.42,6.09,34.17,21.45,36.01,18.49-5.73-15.87-16.43-26-32-32.05-1.39-.54-3.11-.14-4.01-.44.76-4.62-3.96-7.42-5.23-11.26-2.34-7.11,1.6-14.19,2.21-21.25,2.34-27-2.29-60.11-16.57-83.4-5.81-9.47-23.61-30.67-33.41-35.09ZM514.05,281c-8-1.49-19.68,19.96-8.48,30.99,2.39.43,1.25-1.09,1.44-2.52.68-4.95.94-11,2.33-15.69s5.54-7.75,4.71-12.78ZM675.91,315.15c-4.35-6.88-32.63,15.43-29.75,45.24.42,4.3,2.54,9.39,2.69,14.11.09,2.9-1.66,7.1-.79,10.49,10.8-3.14,15.82-19.03,14.96-29.37s-11.9-14.06-.5-25.66c2.49-2.54,4.75-2.76,7.2-4.35.48-.31.29-1.55.36-1.6,2.57-1.67,1.86,4.55,4.97,4.98l.87-13.85ZM564.06,386c25.58,18.74,46.84-22.95,39.18-43.68-3.24-8.76-17.36-17.4-26.6-16.23-5.92.75-10.86,4.4-17.95,3.83-10.31-.83-26.51-9.38-37.15-11.89-3.45,2.6.1,6.31.43,9.55.44,4.3-.45,7.69.86,12.14.94,3.18,13.63,26.04,15.77,28.23,2.59,2.66,5.08,2.39,7.77,4.02,1.61.97-.09,5.01-.87,8.01,6.94,2.98,9.49,9.32,14.04,14.02,6.79,7.03,14.46,12.94,20.03,20.98,2.93,1.23,2.76-8.1,1.96-9.98-1.35-3.16-13.29-12.63-16.55-15.47-1.16-.79-.65-3.13-.92-3.54ZM565.04,479.99c20.58-30.58,19.94-56.67,16.38-57.85-2.23-.29-5.27-.89-6.17,1.56l-12.21,55.79,1.99.5Z" fill="#cfd3e4"/><path d="M421.06,556l20.79,12.71c56.69,27.88,112.14-.72,149.73-44.7,9.45-11.06,16.08-25.77,19.48-25.01.06,2.16-.43,55.16,1.02,72.48.79,9.39,5.93,15.12,6.9,22.1,4.7,34.08-37.13,63.14-64.91,73.41,2.27-8.57,4.36-14.14-5.46-18.04-2.94-1.17-21.87-6.95-24.08-7.01-3.96-.11-33.49,16.63-44.67-2.23-9.71-16.39,11.4-9.23,13.77-12.65.57-6.5,2.2-16.22-4.56-19.57-21.39-10.59-38.28-10.84-55.97-31.03-6.34-7.24-7.66-13.51-12.03-20.47Z" fill="#cfd3e4"/><path d="M554.06,667c-47.35,17.5-108.68,18.84-150.48-13.02-9.38-7.15-28.16-26.42-28.44-38.59-.08-3.57,5.25-15.36,6.42-20.39,6.06-26.05-1.55-85.98,4.5-77.52,5.92,6.08,10.79,13.24,16.49,19.53,4.81,5.31,15.3,13.88,18.51,18.99,4.37,6.96,5.69,13.23,12.03,20.47,17.69,20.19,34.59,20.43,55.97,31.03,6.76,3.35,5.13,13.06,4.56,19.57-2.38,3.41-23.49-3.74-13.77,12.65,11.18,18.86,40.71,2.12,44.67,2.23,2.22.06,21.14,5.84,24.08,7.01,9.82,3.9,7.73,9.48,5.46,18.04Z" fill="#fffbeb"/><path d="M355.06,608c.94-.54,9.04-7.07,9.99-6-5.41,33.19,28.74,62.16,56.04,74.46,72.28,32.57,134.08-1.22,165.97-12.47,8.41-2.97,16.22-1.88,25-1.99,1.18,1.14-3.43,6.94-4.46,8.04-33.48,35.86-106.17,42.65-151.57,33.49-47.25-9.53-94-45.54-100.97-95.53Z" fill="#fffbeb"/><path d="M339.05,336l-21.49-25.99c-5.2,5.39-2.8,14.14-2.49,20.98,2.6-.97-1.02-8.88,3.97-7.99,1.84,5.89,11.94,10.53,12.85,16.74.71,4.85-9.99,18.43-5.7,26.63,1.11,2.11,8.66,10.2,10.87,7.62-1.21-4.49-1.77-10.17-.11-14.6,2.34-6.27,2.71,3.39,7.99,45.03-1.38,6.05-10.84-4.67-12.39-6.41-16.47-18.36-34.55-105.54-9.74-95.25,2.47,1.02,11.52,10.91,12.48,13.51,4.96,13.5,4.57,15.3,3.77,19.73Z" fill="#fffbeb"/><path d="M344.06,309l-3.99,2.99-1.93-33.56c-6.41-7.95-.94-18.2-1.09-27.43-5.29,9.27-3.99,11.54-3.99-10.5,0-2.89,8.52-16.02,3.51-13.49-2.64,1.33-2.05,7.44-5.51,6.98,6.66-23.87,6.85-20.44,4.1-24.32l6.89-13.18c-1.34-1.81-2.67,1.14-3.51,1.5-3.44,1.47.98-6.78,1.25-7.76,1.22-4.54,1.26-7.86,4.24-12.76.81-1.34,11.22-12.16,3.11-6.89l-10.08,9.41c1.54-2.78,2.17-9.63,4.95-10.03l-1.95-3.45c2.85-2.51,29.7-34.39,40.99-35.51l-.99,3.99c-47.91,42.83-40.11,116.29-36,174ZM343.05,186.01c-2.47,0-1.99-.31-1.99.98,2.47,0,1.99.31,1.99-.98Z" fill="#cfd3e4"/><path d="M438.05,71.01c-4.6,12.23.07,10.84,1,15.98-6.92.1-12.94-20.49-20.56-12.06-3.17,3.51-2.87,7.71-.28,11.42,1.67,2.38,4.15,1.93,3.85,4.64-3.95.36-8.39-5.33-8.81-8.76-1.47-12.06,16.4-14.33,24.81-11.22Z" fill="#cfd3e4"/><path d="M482.05,78c-2.68.55-1.72-.71-2.48-1.98-3.27-5.43-7.75-13.52-12.09-17.95-1.91-1.95-4.89-1.14-4.42-4.07,13.14.93,22.06,10.82,18.99,24Z" fill="#cfd3e4"/><path d="M504.05,72.99c-3.64.72.8-.63-11-14.49l-8.99-7.5c14.25-.55,21.18,8.09,19.99,21.99Z" fill="#cfd3e4"/><path d="M531.05,72.99l-17.99-17.99c8.17,1.54,15.76,10.04,17.99,17.99Z" fill="#cfd3e4"/><path d="M454.05,59.01c-3.73,3.81-2.2,8.99-8.99,8.99-.73-4.86,4.53-9.05,8.99-8.99Z" fill="#cfd3e4"/><path d="M586.06,665l-2,1c1.14-.52,1.14-.66,2-1Z" fill="#cfd3e4"/><path d="M336.56,199c.65.33.65.67,0,1v-1Z" fill="#cfd3e4"/><path d="M495.06,425c39.62.2,88.63-7.22,57.47,19.97-9.59,8.37-23.1,15.1-35.47,18.03-28.87,6.85-33.14,5.61-69-3.5-29.38-7.46-42.37-28.96-38.42-31.62,52.3-9,42.27-3.1,85.42-2.88ZM510.04,450.01c1.37,6.49,7.38,1.31,10.81.28,4.63-1.4,12.55-1.65,13.99-8,1.7-7.49-1.51-12.99-9.58-9.61-1.45.6-.95,2.4-1.71,2.35-1.41-.09-2.38-1.72-4.01-2-5.17-.89-11.39-.63-10.48,5.97-3.51.89-1.03-3.21-2.92-4.57-5.4-3.16-16.05,3.62-19.58,3.52-1.17-.04-18.14-9.17-21-.96h-1.47c.47-3.98-11.54-4.73-13.1-3.57l-.93,3.57c-2.93-5-10.61-5.7-14.89-2.35-.25,8.29,2.82,15.2,11.44,17.11l2.96-5.75c2.49,1.06-.62,6.42,6.28,8.72,11.44,3.81,54.55,7.74,52.25-4.09l1.96-.63Z" fill="#112378"/><path d="M579.06,258c.9.3,2.62-.1,4.01.44,15.56,6.05,26.27,16.18,32,32.05-1.83,2.95-11.62-12.4-36.01-18.49-.81-.2-1.84-1.67-3.53-1.95-6.9-1.15-23.79,1.39-30.47,3.95-3.33-2.68-8.08,0-10.5,0h-19c-1.17,0-3.68-3.77-5.5-4,3.74-8.15,4.97-10.23,13.74-13.76,18.57-7.48,37.15-4.26,55.26,1.76Z" fill="#112378"/><path d="M460.06,272l-7.47,3.04c-9.69.82-18.94-2.87-28.53-3.03.04.65-.09,1.36,0,1.99-11.99-7.53-30.62-4.72-42.67,1.83l-20.33,14.16c2.88-38.29,92.09-52.74,98.99-18Z" fill="#112378"/><path d="M425.06,280c8.72-.36,24.86,4.42,27.99,13.52.97,2.8-3.78.11-2.98,2.97,3.9,4.41,4.37,4.13,3.99,7.51-1.22.02-.53.63-7.99-2.99-20.49-9.95-8.62-4.1-21,5-7.24,5.32-18.47,5.83-25.54.04-3.11-2.55-3.07-10.34-9.55-4.38l1.09,4.34c-5.44-.27-9.57-.51-13.99,3.01l3.98-8.99c-.9-.85-14.45,7.17-13,2.51.2-.65,9.24-7.43,10.71-8.31,8.94-5.37,36.01-13.77,46.3-14.2ZM449.05,294.99c2.59-2.49-12.38-8.5-12.99-7.99-1.87,1.55,1.41,2.16,1.97,2.48,1.27.75,10.58,5.94,11.02,5.51ZM410.57,294c-2.83,2.08-2.93,6.02.97,6.99,2.65-1.35,1.88-7.67-.97-6.99Z" fill="#112378"/><path d="M502.35,391.05c1.32-.89,1.39-2.82,4-4.26,3.73-2.06,25.85-.45,18.44-19.03-1.18-2.96-4.27-4.68-4.73-7.76,22.03-2.97,22.25,33.38,2.26,35.78-11.58,1.39-17.56,7.39-27.88,12.11-1.08.5-10.78,3.97-9.38.62,1.14-1.16,2.22-2.54,3.63-3.39,2-1.21,5.06-.24,4.37-3.12-12.43-1.55-23.24-1.67-34.34-8.17-.44-.26-6.38-5.33-4.65-1.35.79,1.81,5.42,4.03,4.99,7.51-.31-.08-.69.08-1,0-.18-.42-.56-.89-1-1-16.16-3.92-24.41-18.42-12.5-32,.98,5.92-4.15,8.6,5.5,17,.77.67.89,2.3,2.68,2.8,2.57.72,6.14.04,9.37.65,5.28.99,9.56,4.65,14.46,6.53-.34-.56-.43-2.85-.51-2.98,10.8,5.9,23.45,1.97,26.29.05ZM452.56,389v1c.65-.33.65-.67,0-1Z" fill="#112378"/><path d="M394.05,451c-3.43.88-3.73-2.05-4.76-4.74-2.65-6.91-6.12-23.47-5-30.52,3.64-22.9,49.89-55.81,50.83-45.22.39,4.34-6.28,5.12-9.03,7.02-4.22,2.92-28.75,30.58-30.92,35.08-6.18,12.83-1.29,25.1-1.12,38.38Z" fill="#cfd3e4"/><path d="M424.06,274c-.09-.63.04-1.35,0-1.99,9.58.15,18.84,3.84,28.53,3.03,11.17-4.54,6.44-4.77,8.73,7.21,1.77,9.29,5.29,17.72,3.74,27.75-7.75.28-4.33-9.53-10.98-10.99-.29,2.25,1.44,3.64-4-2.52-.8-2.86,3.95-.17,2.98-2.97-3.13-9.1-19.27-13.88-27.99-13.52.7-2.23-.75-4.31-1-6Z" fill="#cfd3e4"/><path d="M386.06,318.01c11.86,3.66,26.05,3.83,38.48,2.98,3.45-.24,10.12-4.36,9.54,1.47-.44,4.45-12.59,5.31-16.49,5.58-11.13.76-26.49,2.19-31.54-10.04Z" fill="#cfd3e4"/><path d="M446.06,301l1.99,6.99c-1.07,1.11-10.25-4.82-12.57-4.99-3.52-.25-6.16,4.35-10.43,2.99,12.38-9.1.54-14.94,21-5Z" fill="#cfd3e4"/><path d="M476.06,391c.08.13.17,2.42.51,2.98-4.9-1.87-9.18-5.53-14.46-6.53-3.23-.61-6.8.07-9.37-.65-1.78-.5-1.9-2.13-2.68-2.8,8.27-.4,20.71-.82,26,7Z" fill="#cfd3e4"/><path d="M458.06,400c-.44-.12-.81-.58-1-1,.44.11.82.58,1,1Z" fill="#cfd3e4"/><path d="M561.06,383c-5.86-6.53-8.41-5.49-14-9-.09-.06.22-1.47-.68-2.02-2.7-1.63-5.18-1.36-7.77-4.02-2.14-2.2-14.83-25.05-15.77-28.23-1.31-4.45-.42-7.85-.86-12.14-.33-3.24-3.89-6.95-.43-9.55,10.64,2.5,26.84,11.06,37.15,11.89,7.09.57,12.03-3.08,17.95-3.83,9.24-1.18,23.37,7.47,26.6,16.23,9.13,24.71-19.43,66.02-42.18,40.68Z" fill="#fffbeb"/><path d="M566.06,281c4.4.59,27.86,7.35,42,28.99l-34.4-13.87-9.6,11.88c-5.73.05-11.99,2.16-17.25-.25-3.38-1.55-5.06-8.86-9.37-10.52-4.88.32-11.38,4.51-14.37,3.77-.52-6.24,8.31-7.02,9.99-11.99-1.18-.24-10.07,4.29-8.98.52,2.86-9.93,36.86-9.21,41.98-8.52Z" fill="#112378"/><path d="M675.91,315.15l-.87,13.85c-3.11-.43-2.4-6.65-4.97-4.98-.07.05.13,1.28-.36,1.6-2.44,1.59-4.7,1.81-7.2,4.35-14.6,14.85,6.27,11.81-1.58,40.42-1.65,6.01-6.68,12.8-12.88,14.61-.87-3.39.88-7.59.79-10.49-.18-5.78-9.91-26.49,7.79-48.42,2.36-2.92,15.55-16.83,19.27-10.93Z" fill="#112378"/><path d="M584.07,308.49c2.5,1.24,4.01,7.6,1.29,9.58-9.21,6.72-45.11,2.23-55.38-3.74l-1.92-14.33c3.09-.91,6.06-2.56,9.38-2.77,4.32,1.66,6,8.97,9.37,10.52,4.8,2.21,32.62-1.57,37.26.74Z" fill="#fffbeb"/><path d="M565.04,479.99l-1.99-.5,12.21-55.79c.9-2.44,3.94-1.85,6.17-1.56,3.47,1.15,4.45,26.9-16.38,57.85Z" fill="#fffbeb"/><path d="M579.06,272l-1.94,8.56c-14.22.57-31.66-.66-44.06,2.44,8.06-11.54,33.74-14.41,42.47-12.95,1.69.28,2.72,1.75,3.53,1.95Z" fill="#fffbeb"/><path d="M561.06,383c1.29,1.44,2.21,1.83,3,3,.28.41-.24,2.76.92,3.54,3.26,2.84,15.2,12.32,16.55,15.47.8,1.87.97,11.21-1.96,9.98-5.56-8.04-13.24-13.95-20.03-20.98-4.54-4.71-7.1-11.04-14.04-14.02l1.55-5.99c5.59,3.51,8.14,2.47,14,9Z" fill="#112378"/><path d="M514.05,281c.83,5.03-3.34,8.13-4.71,12.78s-1.64,10.74-2.33,15.69c-.2,1.43.94,2.95-1.44,2.52-10.86-10.7.28-32.51,8.48-30.99Z" fill="#112378"/><path d="M343.05,186.01c0,1.3.45.98-1.99.98,0-1.3-.45-.98,1.99-.98Z" fill="#112378"/><path d="M510.04,450.01l-1.96.63c2.3,11.84-40.8,7.91-52.25,4.09-6.9-2.3-3.79-7.66-6.28-8.72l-2.96,5.75c-8.62-1.91-11.69-8.82-11.44-17.11,4.28-3.35,11.96-2.65,14.89,2.35l.93-3.57c1.56-1.16,13.57-.41,13.1,3.57h1.47c2.87-8.23,19.89.92,21,.96,3.52.11,14.18-6.68,19.58-3.52,1.89,1.37-.59,5.46,2.92,4.57-.91-6.6,5.31-6.86,10.48-5.97,1.63.28,2.6,1.91,4.01,2,.76.05.27-1.75,1.71-2.35,8.08-3.38,11.29,2.12,9.58,9.61-1.45,6.35-9.36,6.6-13.99,8-3.43,1.03-9.43,6.21-10.81-.28Z" fill="#fffbeb"/><path d="M449.05,294.99c-.44.43-9.75-4.76-11.02-5.51-.56-.33-3.84-.93-1.97-2.48.61-.51,15.58,5.5,12.99,7.99Z" fill="#cfd3e4"/><path d="M410.57,294c2.85-.68,3.62,5.65.97,6.99-3.9-.97-3.8-4.91-.97-6.99Z" fill="#fffbeb"/><path d="M452.56,389c.65.33.65.67,0,1v-1Z" fill="#cfd3e4"/><path d="M562.06,384l-1-1c.31.34.73.63,1,1Z" fill="#cfd3e4"/><path d="M879.15,724.48c-9.16-13.9-52.82-38.47-74.08-43-16.44-3.5-95.54,18.72-173.32,2.68-98.42,91.41-273.97,56.84-302.84-44.51-.97-3.42-1.14-13.46-4.36-13.7-20.01,8.2-39.06,18.48-58.81,27.23-138.14,61.19-145.87,50.73-186.45,155.55-21.71,56.08-36.68,114.81-61.24,169.86-1.75,10.11,63.12,38.78,72.08,42.89,1.46.67,3.54-.21,2.93,2.52h70c-3.83-18.41-6.45-39.14-14.14-56.36-25.13-56.19-49.32-76.63-41.74-145.02,2.82-25.41,5.45,53.52,57.87,121.38-11.82-35.22-38.2-147.75-26.48-183.01,6.82-2.02,31.08,129.85,40.5,127.5.68-26.27,14.25-49.46,23.01-73.49,11.2-1.76-6.99,48.12-2.06,157.54l4.04,51.46h516c89.88-129.57,72.14-156.97,96.98-224.52,14.3-38.88,8.9-13.79,8.92-9.98.12,17.16-1.89,90.4-1.9,90.5,3.95,5.41,29.48-93.8,45.81-132.68,3.97-9.45,11.67-19.2,9.27-22.84Z" fill="#03f"/></svg>