<?xml version="1.0" encoding="UTF-8"?><svg id="a" xmlns="http://www.w3.org/2000/svg" width="1024" height="1024" viewBox="0 0 1024 1024"><path d="M0,875V0h1024v1024h-125c-29.33-47.02-88.11-76.29-152-102-11.15-4.49-.26.34-144-66.01l1.08-3.95c26.39,7.22,70.85,4.9,95.83-14.63,1.8-1.41,3.72-5.31,6.61-6.4s.76,5.94,3.46,5.98c-.29-2.47,2.45-2.05,4.07-3.42,21.07-17.88,13.05-25.02,17.14-31.38.3-.46,7.69-3.35,9.5-5.5,3.44-4.08,7.64-18.81,8.19-24.31.49-4.89-1-16.86,1.07-19.97.82-1.23,2.03-.15,4.05-4.4.13-.27-.13-.73,0-1,2.71.18,2.47-1.59,3.3-3.21,5.79-11.32,4.84-19.53,4.63-31.28-.21-11.63,13.16-21.47,6.07-33.51-.07-4.36-1.54-8.99-1-13,13.5-14.92,17.6-59.29,12-61,.87-50.95,20.62-71.13,29-114,2.07-10.57,7.76-9.76.75-53.25-2.75-17.06-9.16-30-3.23-47.72,2.21-6.61,6.99-12.77,9.45-19.55.67-1.84,2.23-2.79-.98-2.47,23.99-55.83-7.4-75.96-12.88-105.62-7.04-38.1-8.95-66.86-25.74-103.25-.75-1.62-2.25-6.54-4.38-6.13-.04-.1-1.78-10.79-6-11-5-13.86,25.08-36.39-38.75-77.69C581.17-29.57,340.18-29.91,248,137l-.99-1c-17.27,44.02-21.14,44.9-28.73,128.8-.17,1.92-1.44,3.68,1.72,3.2-.08,3.07.23.02-1.04,10.96-11.75,1.56-25.41,9.71-34.96,27.04-2.42-.53-2.07,1.23-2.82,2.63-9.4,17.6-12.19,34.05-12.17,53.9.02,21.93,16.37,90.31,20.99,92.47,15.34,50.49,53.22,54.94,61.48,75.02,4.9,11.92,18.41,112.01-33.48,195.98-14.14,22.88-51.42,53.64-53.67,54.79-3.77,1.93-8.99.88-12.62,2.33-6.22,2.48-12,8.61-17.42,11.89-1.71,1.04-121.2,73.5-134.3,79.99Z" fill="#17c37b"/><path d="M320,55c77.91-59.77,258.66-86.2,406.25,9.31,38.42,24.86-31.52-26.65-114.22-48.83C521.25-8.87,398.38.81,320,55Z" fill="#17c37b"/><path d="M814,368c3.21-.32,1.65.63.98,2.47-2.47,6.78-7.24,12.94-9.45,19.55-8.59,25.64,16.27,70.95,2.48,99.98,6.25-34-3.46-45.99-5.87-76.63-1.73-22.01,3.87-26.75,11.87-45.37Z" fill="#17c37b"/><path d="M678,849c-10.36,5.41-47.17,10.36-73.92,3.04l-1.08,3.95,143,66.01c-28.95-11.64-107.49-43.55-136.74-61.98-9.37-5.91-9.3-.95-6.25-10.03,24.39,7.27,50.48,3.98,74.99-.99Z" fill="#17c37b"/><path d="M771,153c2.13-.41,3.63,4.51,4.38,6.13,16.79,36.39,18.7,65.15,25.74,103.25,2.82,15.27,12.09,27.29,16.88,41.62-36.59-60.85-2.6-43.59-47-151Z" fill="#17c37b"/><path d="M779,605c5.68,1.73,1.36,46.23-12,61,.81-6.05,7.33-16.96,9.28-24.22,3.69-13.74,2.49-23.4,2.72-36.78Z" fill="#17c37b"/><path d="M754,747c6.24-13.48,6.98-20.72,7.04-35.55.05-12.69,7.33-9.95,6.96-32.45,7.09,12.05-6.28,21.88-6.07,33.51.21,11.75,1.16,19.96-4.63,31.28-.83,1.62-.59,3.39-3.3,3.21Z" fill="#17c37b"/><path d="M220,268c-3.16.48-1.89-1.28-1.72-3.2,4.04-44.65,6.46-83.46,27.72-123.8-7.62,21.39-24.14,52.25-26,127Z" fill="#17c37b"/><path d="M779,601c-6.57-26.11,13.86-60.8,29-110-7.78,39.78-28.44,67.13-29,110Z" fill="#17c37b"/><path d="M755.8,927.96c-1.02-.51-1.24-2-2.48-2.73-1.87-1.11-4.86-1-6.32-3.22,58.12,23.39,14.69,8.9,8.8,5.96Z" fill="#112378"/><path d="M765,142c3.59.18,4.87,7.14,6,10-2.46-2.04-4.88-6.91-6-10Z" fill="#17c37b"/><path d="M752,751c.01-1.46.57-2.57,2-3-1.01,2.12-.82,1.53-2,3Z" fill="#112378"/><path d="M248,137c-1.3,2.35-.57,2.21-1.97,1.51,1.06-2.7.66-2.85,1.97-1.51Z" fill="#17c37b"/><path d="M184,306c-24.35,44.23-8.08,102.68,6,149-2.3-1.08-2.57-4.08-3.26-6.24-15.1-47.09-28.05-98.01-5.56-140.13.75-1.4.4-3.16,2.82-2.63Z" fill="#17c37b"/><path d="M231,704c20.19-47.31,30.74-105.96,23.68-157.19-.2-1.45-1.65-3.83.32-4.81,11.24,50.15-5.42,129.43-24,162Z" fill="#17c37b"/><path d="M220,270c-.06,2.34.4,5.4,0,7.5-.83,4.4-9.89,5.29-13.25,6.75-8.09,3.5-16.37,12.98-21.75,19.75,9.41-15.46,22.57-23.53,33.96-25.04l1.04-8.96Z" fill="#17c37b"/><path d="M231,705c-3.19,7.55-7.67,14.7-13,21,12.61-20.41,9.87-21.68,13-21Z" fill="#17c37b"/><path d="M190,456l19,34c-8.79-10.14-15.04-21.19-19-34Z" fill="#112378"/><path d="M189,801c-16.38-16.72-14.95-7.46,6.47-26.03,70.29-60.9,85.99-149.9,75.49-242.31,8.08-4.56,17.41-11.49,20.05-20.66,4.15,2.07.25-.09,5.99,13.99,6.51,94.13.53,111.37,61.99,169.51,127,120.15,174.16,150.06,226.01,153.5l-23,81.48c-.29,3.99-.45,13.88,5.42,13.52,11.34-.68,15.91-33.48,19.57-34.01,3.67,16.01,7.14,28.03-7.66,38.83-33.66,24.56-103.24,11.05-141.33,1.17-30.09-50.36-26.31-113.06-43-163-13.08-39.13-35.67-61.44-57.63-94.87-43.95-66.9-43.96-105.58-54.36-113.13-.4,21.84-2.54,15.54-3.04,21.47,0,.1-2.03,33.65-5.97,53.52-7.42-1.52-4.73,80.29-85,147Z" fill="#03f"/><path d="M278,625c2.69-22.55.65-26.92,4-29-.82,9.41-1.1,20.17-4,29Z" fill="#03f"/><path d="M426,1024H0v-126c30.6-21.76,110.19-72.49,113.26-71.83,26.18,5.6,100.63,136.42,312.74,197.83Z" fill="#ccf1db"/><path d="M475.63,977.87c51.03,7.31,166.69,2.9,128.23-79.23-3.41-7.29-10.27-12.65-6.59-20.87,2.53-5.66,10.22,1.66,13.2,4.26,28.02,24.38,37.76,83.1,7.54,109.48-58.07,50.71-185.32,21.1-249.69-6.34-117.38-50.04-178.66-111.01-237.25-167.81-.45-2.57,25.72-19.73,28.65-20.21,9.18-1.51,148.35,156.73,315.91,180.72Z" fill="#ccf1db"/><path d="M320,55c107.08-74.03,299.16-69.41,417,17,10.11,7.41,24.24,20.1,28.49,32.01,4.91,13.78,1.7,19.11-1.49,31.99-.39,1.58-2.7,3.47,1,5,.09.32-.1.71,0,1,1.12,3.09,3.54,7.96,6,10,34.36,86.69,22.31,93.07,30.74,118.76,10.5,31.99,34.93,44.47,12.26,97.24-8,18.62-13.61,23.36-11.87,45.37,2.7,34.21,16.22,51.03.58,94.84-11.82,33.1-29.74,68.81-23.71,92.79-.22,17.19,1.02,26.85-2.72,40.78-1.95,7.26-8.47,18.17-9.28,24.22-.54,4.01.93,8.64,1,13,.37,22.37-6.91,19.83-6.96,32.45-.13,32.81-9.01,36.59-9.04,39.55-.33.41-1.57.67-2.05,1.4-2.07,3.11-.58,15.09-1.07,19.97-.55,5.5-4.75,20.24-8.19,24.31-1.81,2.15-9.2,5.04-9.5,5.5-4.18,6.5,4.1,13.36-17.14,31.38-1.61,1.37-4.36.95-4.07,3.42-2.7-.04-.7-7.02-3.46-5.98s-4.8,4.99-6.61,6.4c-22.19,17.35-69.9,20.63-96.9,12.58-3.05,9.08-3.17,4.09,6.25,10.03,37.74,23.78,135.23,59.96,144.06,65.2,1.24.74,1.46,2.22,2.48,2.73,3.04,1.52,102.87,31.4,143.2,96.04h-473c-218.87-63.37-299.73-207.46-315.7-197.24-36.88,23.6-74.62,45.87-110.3,71.24v-23c12.98-6.43,134.2-79.93,134.3-79.99,5.42-3.28,11.19-9.41,17.42-11.89,3.63-1.45,8.85-.39,12.62-2.33,3.1-1.59,52.47-42.16,66.67-75.79,28.41-67.33,32.12-126.76,24-163-6.22-27.74-17.21-24.71-32.47-38.03-13.98-12.19-13.6-14.1-32.53-47.97-14.83-47.89-29.76-106.84-6-150,3.39-6.16,14.56-18.21,22.75-21.75,3.37-1.46,12.42-2.35,13.25-6.75,1.74-9.19-10.85-145.87,100-222.5ZM740,398c-10.62,2.33-34.05-3.68-27-18.99-1.22-1.17-7.7,4.08-8.02,6.55-2.36,18.09,33.45,92.31,33.06,115.89-.44,26.82-36.53,51.04-60.76,37.79-1.17-.64-1.68.03-1.28-2.23,13.36-1.49,29.65-13.11,37.98-23.53,17.68-22.11,3.61-37.58-4-59.96-7.94-23.37-18.51-56-21.86-80.14-5.31-38.23,26.86-73.36,63.66-79.11,13.99-2.19,27.28-.91,41.22.72-1.44-3.84-3.82-7.23-5.46-11.03-7.59-17.51-6.56-31.98-9.85-50.15-5.41-29.94-21.32-83.02-45.16-102.84-14.76-12.27-27.38-8.15-45.02-9.98-19.77-2.05-31.64-8.52-49.5-13.5-6.28-1.75-13.33-2.35-19.79-4.21-14.19-4.08-27.85-11.64-42.22-15.78-62.97-18.18-94.47,4.64-164.97-4.47-7.79,7.68,21.04,45.19,10.48,86.98-8.77,34.7-45,46.16-63.32,73.68-20.68,31.06-24.34,107.54-21.19,112.31-9.75,52.32,0,54.7,2.49,76.99,2.16,19.24,3.15,41.11,9.74,59.27,3.04,8.37,8.66,15.32,10.77,23.74,4.13.44.8-9.17,6.98-12,6.44,35.75,24.06,56.11,27.01,53-.12-5.25,1.47-10.53,2.99-15.53.43-1.42-.63-1.77,2.01-1.47,5.99,28.88,17.76,34.79,19.02,43,2.25-1.04,6.47-11.13,10.01-8.52,1.36,4.35,1.48,8.59,2.94,13.06,2.35,7.21,13.19,23.19,20.56,25.44,3.1.95.59-8.55,5.47-10.98,3.64,14.18,2.5,30.12,12.02,42.49,1.68,2.18,8.61,8.61,11.03,7.06,2.15-1.37,7.55-23.04,7.01-26.04-18.4-20.55-14.52-33.73-15.05-39.52,1.88,3.56.75,7.91,1.45,12.05,1.87,11.12,12.33,27.64,14.55,24.94,2.19-23.24,19.38-42.98,38.01-49,7.85-2.54,5.33-.91-1.99,8,3.23-2.77,7.25-3.08,10.99-5,5.52-2.83,17.75-12.87,20.51-9,.46.78-3.62,5.05-.03,3.99,9.1-2.71,19.61-12.52,30.03-13.97l-3,7c2.33-.83,4.9-.92,7.21-1.79,5.26-1.98,10.68-7.9,16.27-7.73l-2.5,5.5c8.82-7.36,23.02-16.45,35.07-15.09,1.82.21,1.28,1.74,1.93,1.87,1.93.38,6.42.68,8.51.22,4.57,4.21,13.74,7.87,16.02,14.99,3.62-.04,15.34-19.18,31.67-11.18,24.63,18.32,37.65,17.98,62.3,43.19,4.65-46.6,36.79-88.55,34.05-136.54-1.18-20.63-11.17-40.4-9.05-61.46-15.39,9.38-9.36,10.71-30.99,6,8.79-.55,16.4-3.83,21.93-10.64-3-5.1-11.07-12.18-16.45-14.35-2.71-1.09-1.88,9.51-8.4,15.56-2.42.52-8.55,4.09-10.08,4.42ZM297,438c-.42-30.83-1.16-61.65-4.17-92.33-11.87-8.85-17.57-24.82-27.81-35.91-27.57-29.82-61.44-19.49-75.04,16.73-10.8,28.77-.77,67.93,7.09,96.94,9.23,34.06,22.56,68.94,58.24,82.76,12.99,5.03,24.17,5.24,36.67-1.18-.13,2.08.53,4.02,1.01,6,.14.59-.14,1.41,0,2l-1.99-.99c-2.64,9.17-11.97,16.1-20.05,20.66,10.5,92.41-5.2,181.4-75.49,242.31-21.43,18.57-22.85,9.31-6.47,26.03,119.47,121.93,324.24,196.05,390.33,147.83,14.8-10.8,11.33-22.82,7.66-38.83-3.66.53-8.23,33.33-19.57,34.01-5.87.35-5.71-9.53-5.42-13.52l23-81.48c-52.02-3.45-99.24-33.55-226.01-153.5-65.7-62.16-59.52-75.21-61.99-257.52ZM792.98,383c9.07-26.25,24.31-42.98-2.97-50.52-15.81-4.37-63.28.77-76.25,11.5-1.44,1.19-13.48,17.37-9.27,16.01,21.44-13.46,75.96-11.17,86.6,18.51.89,2.48-1.4,5.16,1.89,4.49ZM781.99,381.99c2.48-2.55-23.12-32.53-60.99-16.98v1.98c2.95-1.88,5.38-.06,8.45.05,39.21,1.45,28.78,3.9,52.53,14.95ZM576,607c-.07.01-.66-.84-1.32-.72-7.53,1.36-16.4,8.13-23.68,10.74l.61,2.05c26.42,10.05,54.76-1.2,81.92.9,7.65.59,15.1,4.1,22.07,4.93,12.83,1.52,25.75-4.09,38.93-2.93,13.59,1.2,32.46,15.84,34.26,2.32,1.22-9.17-17.81-29.4-26.35-32.23-14.47-4.8-28.35,8.51-43.68,1.68-11.55-5.15-10.56-8.38-26.16-6.63-19.23,2.16-40.52,16.92-56.61,19.89ZM538.03,633.48c-30.68,34.71-14.83,35.75-15,46.97-.11,7.45-4.17,16.78-4.02,24.55,1.55-.18,1.55-2.28,2.93-3.55s9.82-7.73,11.05-6.44c-1.6,30.51,16.91,43.19,18,41.99-1.13-20.36-1.62-1.29,17.92,6.6,2.82,1.14,2.28.15,1.09-1.59,5.43,5.18,9.54,7.65,20,6.99l-2.99-10.99c15.67,6.89,10.89,7.76,24.99,6,.15-.02.9,1.37,2.98.63,5.52-1.95,9.51-8.77,9.8-14.45.32-6.34-1.94-23.36-4.04-29.42-3.7-10.67-17.89-12.84-23.75-21.25-2.75-3.95-3.53-9.36-5.99-13.51,19.71,5.86,41.39,11.2,62,11,2.93,3.05,9.45,2.19,13.49,1.99,25.32-1.25,38.96-5.21,52.03-27.01.76-1.27-.2-2.53,2.48-1.97-6.08,62.01-44.52,47.78-36.52,81.03,2.1,8.71,7.92,17.68,15.89,21.89,31.09-32.17,33.15-92.47,27.98-104.72-1.09-2.59-12.46-2.82-15.56-3.48-13.11-2.82-18.51-3.7-32.32-3.77-45.53-.22-51.62-4.24-64.92-5-30.48-1.73-46.54,4.64-77.52-2.48ZM159.72,797.15c-2.93.48-29.1,17.64-28.65,20.21,56.51,54.79,118.43,117.16,237.25,167.81,64.36,27.44,191.61,57.05,249.69,6.34,30.22-26.38,20.48-85.1-7.54-109.48-2.98-2.6-10.67-9.92-13.2-4.26-3.68,8.23,3.17,13.58,6.59,20.87,38.46,82.13-77.2,86.53-128.23,79.23-167.87-24.03-306.35-182.29-315.91-180.72Z" fill="#112378"/><path d="M765,141c-3.7-1.53-1.39-3.42-1-5-.42,1.96.51,3.36,1,5Z" fill="#17c37b"/><path d="M337,356c-3.19-4.84.7-81.53,21.19-112.31,24.45-36.72,80-44.15,62.31-118.69-1.56-6.59-13.34-38.15-9.48-41.97,68.31,8.83,102.71-13.5,164.97,4.47,14.36,4.15,28.03,11.71,42.22,15.78,6.47,1.86,13.52,2.46,19.79,4.21,17.86,4.98,29.73,11.45,49.5,13.5,17.64,1.83,30.26-2.29,45.02,9.98,23.84,19.82,39.75,72.9,45.16,102.84,3.28,18.18,2.26,32.64,9.85,50.15,1.64,3.79,4.02,7.18,5.46,11.03-13.95-1.63-27.23-2.91-41.22-.72-36.79,5.75-68.97,40.88-63.66,79.11,3.35,24.14,13.92,56.76,21.86,80.14,7.6,22.38,21.68,37.85,4,59.96-8.33,10.41-24.62,22.03-37.98,23.53-.4,2.26.11,1.6,1.28,2.23,24.23,13.25,60.32-10.97,60.76-37.79.38-23.47-35.42-97.83-33.06-115.89.32-2.47,6.81-7.72,8.02-6.55-7.04,15.32,16.38,21.32,27,18.99-.48,2.4,1.06,2.25,2.75,2.71,32.67,8.88,28.32,4.17,41.24-3.71-2.12,21.06,7.87,40.83,9.05,61.46,2.74,47.99-29.4,89.94-34.05,136.54-24.8-25.36-37.5-24.74-62.3-43.19-16.39-8.03-28.01,11.14-31.67,11.18-2.28-7.13-11.45-10.79-16.02-14.99-1.56-1.43-3.15-5.25-5-7-4.61-4.38-10.88-3.36-13.02-8-2.15.02.76,2.2-4.54,2.91-11.19,1.49-32.73.32-41.33-7.52-6.88-6.27-6.55-13.14-9.11-21.39.06-1.12,3.69-19.25,7-25,4.49-6.04,10.91-9.59,15.01-10.49-4.2,11.52-12.68,29.83-5.84,40.82,6.7,10.77,14.87,1.43,22.83-2.33,13.1-6.19,27.86-12.66,43.4-10.95,10.84,1.19,21.71,10.19,32.6,1.95,13.65-10.32,9.67-22.49,6-37-3.05-12.03-24.93-105.22-32.47-114.03-3.71-4.33-6.58-4.24-12.02-3.95-28.17,1.5-50.02,61.65-110.51,75.98-5.48,1.3-11.68,3.81-16.99.51,1.67-2.63,6.57-3.77,6.67-3.84,3.26-2.53,6.75-8.08,8.33-9.66.43-.43,1.63-.67,2-1.51-2.89-4.31-19.67-3.52-31.97-8.01-1.43-.52-21.21-9.77-18.02-12.47,18.4,2.16,36.54,5.5,53-5.01,10.38-6.63,41.13-4.76,45.37-5.13,6.01-2.06-.16-25.48-2.34-30.4-7.49-16.88-24.87-22.16-42.03-24.47-10.44-34.77-64.05-28.55-90.51-28.99-23.36-.39-23.09,1.3-7.49-13.01,15.32-14.04,25.7-19.04,43.82-27.9,3.41-1.66,10.26-5.68,13.18-3.61-17.4,18.54-4.52,1.42,23.01,1.51-.56,3.17,1.6,1.77,3.48,1.97,1.79.19,41.41,8,41.52,8.03-.57,2.66,1.33,1.99,2.98,2.47,32.82,9.52,32.88,4.83,57.41,16.64,9.25,4.45,16.34,15.03,24.44,3.23,13.91-20.26-1.23-35.01-10.85-51.86,1.76-7.14,4.64-13.92,5.74-21.25,3.37-22.49-2.53-54.6-15.72-73.22-18.37-25.93-44.65-33.11-75-40,.6-2.9-1.43-1.82-3.17-2.28-34.01-8.84-66.49-3.87-100.33.32-1.88.23-4.06-1.26-3.5,1.95-12.48,1.73-11.65-2.51-10,9,5.36,37.39,26.11,91.25-21.45,117.05-23.66,12.83-45.61,21.2-62.38,44.62-2.66,3.72-10.9,22.3-12.17,22.33-.07,0,.15-1.17-.99-1-1.86,14.06-9.54,33.87-5.01,38-1.72,10.1-4.14,20-6,30ZM516.99,254.98l-.47-1.96c-21.08,6.63-69.37,28.54-68.51,33.98,27.5-1.53,55.2-4.02,82.37,2.13,26.41,5.98,65.82,30.71,88.15,31.87,13.08.68,23.68-5.94,21.23-20.26-3.93-22.96-53.43-32.51-72.57-36.42-19.52-3.99-39.38-8.22-59.18-3.32.94-2.21,8.04-4.89,8.98-6.01ZM668.74,522.75c1.85-1.94,2.01-6.8-.35-8.64-10.04-7.85-35.35-5.53-46.08.7-3.98,2.31-11.82,9.2-9.16,14.05,2.81,1.78,22.46-3.46,27.36-3.84,7.42-.58,22.76,3.48,28.23-2.27Z" fill="#03f"/><path d="M340,428c6.37,15.08,18.57,29.25,27.42,43.08,22.37,34.99,47.25,85.53,82.54,86.96,1.21,13.19,3.62,24.52,14.54,32.93,2.51-3.59,1.3-6.88,6-8.96,5.34,3.45-6.61,17.65,16.55,43.5.53,3-4.87,24.66-7.01,26.04-2.42,1.55-9.36-4.88-11.03-7.06-14.79-19.23-7.53-61.35-15.98-32.94-2.08,6.98-18.83-14.09-22.07-24.01-1.46-4.48-1.58-8.72-2.94-13.06-3.54-2.6-7.75,7.48-10.01,8.52-1.26-8.17-13.07-14.34-19.02-43-2.64-.3-1.58.05-2.01,1.47-1.52,5-3.11,10.28-2.99,15.53-2.95,3.11-20.56-17.18-27.01-53-6.17,2.83-2.85,12.44-6.98,12-2.11-8.42-7.73-15.36-10.77-23.74-6.6-18.16-7.59-40.03-9.74-59.27-.17-1.5-1.49-3.96.51-4.99Z" fill="#03f"/><path d="M639,639c47.75,4.12,43.6-.78,73.77,5.73,15.42,3.32,16.15-2.9,17.27,15.73,1.85,30.82-7.89,69.93-29.68,92.47-7.97-4.21-13.79-13.18-15.89-21.89-8.06-33.5,30.41-18.62,36.52-81.03-2.68-.56-1.72.71-2.48,1.97-13.06,21.81-26.7,25.76-52.03,27.01-4.04.2-10.56,1.06-13.49-1.99,8.74-.09,18.22-.87,25.54-4.94,7.01-3.91,9.01-5.1,6.51-13.61-3.89-13.21-29.19-12.46-46.05-19.45Z" fill="#03f"/><path d="M688,592c5.4-.78,8.58-1.89,14.45.05,8.54,2.83,27.57,23.06,26.35,32.23-1.8,13.52-20.67-1.11-34.26-2.32-13.18-1.17-26.1,4.45-38.93,2.93-6.97-.83-14.42-4.34-22.07-4.93-27.16-2.09-55.49,9.16-81.92-.9l-.61-2.05c7.28-2.61,16.15-9.38,23.68-10.74,5.81-1.05-8.15,7.59-9.68,7.72-.13.01.09-1.54-1.99-.99l-1,2.98c12.1,2.59,65.9-18.79,79.37-17.04.67.09.51,1.85,1.3,2.04,22.21,5.34,18.04,10.87,25.56,9.85,1.33-.18,15.34-6.87,17.17-7.97,1-.6.44-.68,2.59-2.87,2.1-2.14,3.7-3.35,4.99-6.51.05-1-1.45-.28-1.99-.49-.83-.33-1.62-1.4-3-1Z" fill="#03f"/><path d="M792.98,383c-3.3.66-1.01-2.01-1.89-4.49-10.65-29.72-65.23-31.93-86.6-18.51-4.21,1.36,7.83-14.82,9.27-16.01,15.27-12.63,88.78-21.31,91.7-.14,1.36,9.89-9.14,29.51-12.48,39.16Z" fill="#03f"/><path d="M549,636c-12.6,7.9-23.31,24.9-19.99,40,.6.45,4.23-4.34,5.52-2.03,1.86,3.37,2.26,12.61,4.94,18.07,3.45,7.05,11.46,13.28,14.4,18.6,4.14,7.5-.76,15.24,16.13,31.37,1.19,1.74,1.73,2.73-1.09,1.59-19.5-7.87-19.04-26.9-17.92-6.6-.88.97-19.64-10.67-18-41.99-1.23-1.29-9.69,5.19-11.05,6.44s-1.38,3.37-2.93,3.55c-.15-7.77,3.91-17.09,4.02-24.55.16-11.24-15.67-12.27,15-46.97l10.97,2.52Z" fill="#03f"/><path d="M691,593c-2.98,6.95-2.85,7.1-4,8-9.71,3.21-17.43,12.05-28,6-8.06-4.61-7.77-3.96-16.32-6.01-.79-.19-.64-1.95-1.3-2.04-5-.65-39.93,7.28-76.37,15.05,1.35-.12,9.73-5.45,11-7,16.09-2.98,37.38-17.73,56.61-19.89,15.6-1.75,14.61,1.48,26.16,6.63,13.9,6.19,24.11-3.92,32.23-.73Z" fill="#cfd3e4"/><path d="M639,639c16.37,6.79,42.21,6.42,46.05,19.45,2.51,8.51.5,9.7-6.51,13.61-32.44,18.09-107.8-14.85-109.53-13.05l.16,2.33c9.27,10.7,16.09,23.23,24.44,34.56,9.55,12.96,34.79,32.41,18.39,48.11-14.2,1.77-9.44.84-24.99-6l2.99,10.99c-10.47.66-14.61-1.85-20-6.99-16.57-15.82-12.27-24.37-16.13-31.37-2.94-5.32-10.95-11.55-14.4-18.6-2.67-5.45-3.07-14.69-4.94-18.07-1.28-2.32-4.92,2.48-5.52,2.03-3.32-15.1,7.38-32.09,19.99-40,22.18,2.57,44.31-1.3,66.54-.04,7.65.43,15.78,2.38,23.46,3.04Z" fill="#cfd3e4"/><path d="M591,666c2.46,4.15,3.24,9.56,5.99,13.51,5.86,8.41,20.04,10.58,23.75,21.25,2.1,6.07,4.36,23.09,4.04,29.42-.29,5.68-4.28,12.49-9.8,14.45-2.08.73-2.83-.65-2.98-.63,16.4-15.7-8.84-35.15-18.39-48.11-8.35-11.33-15.17-23.86-24.44-34.56l-.16-2.33c1.37-1.43,19.07,6.13,21.99,7Z" fill="#03f"/><path d="M740,398c1.53-.34,7.65-3.9,10.08-4.42,6.55-6.09,5.68-16.66,8.4-15.56,5.37,2.17,13.45,9.25,16.45,14.35-5.53,6.81-13.14,10.09-21.93,10.64-13.11-2.86-13.5-2.47-13-5Z" fill="#fff"/><path d="M781.99,381.99c-23.87-11.09-13.4-13.49-52.53-14.95-3.07-.11-5.5-1.93-8.45-.05v-1.98c36.73-15.08,64.09,13.79,60.99,16.98Z" fill="#03f"/><path d="M293,511c4.2,2.09,2.85,10.92,4-61,0,93.81,1.22,82.86-4,61Z" fill="#cfd3e4"/><path d="M297,438c.16,12.04.52,10.15-2.02,9.41v-9.41h2.02Z" fill="#cfd3e4"/><path d="M576,507c2.56,8.25,2.23,15.12,9.11,21.39,8.6,7.84,30.14,9.01,41.33,7.52,5.24-.7,2.42-2.89,4.54-2.91,2.14,4.64,8.4,3.62,13.02,8-12.22-7.01-30.43-2.91-31.5-2.91-19.29-.12-37.73-9.54-36.5-31.09Z" fill="#03f"/><path d="M618,117c7.52,5.54,13.59,11.36,19,19,14.89,28.47,20.79,63.98,8.19,94.37,14.6,16.37,24.94,34.05,12.64,51.97-8.1,11.8-15.19,1.22-24.44-3.23-30.75-14.8-57.8-17.89-75.39-22.11-16.35-3.92-29.85-13.45-60.99,0l7.98-8.51c-2.92-2.07-9.77,1.95-13.18,3.61-33.29,16.27-28.05,15.57-56.72,37.98-3.79,8.6,46.49,3.12,58.39,3.92,13.67.92,28.32,4.87,40.51,10.99,5.21,4.1,10.08,10.59,12,17-36.63-4.94-71.12,2.66-100,26-.3.24-1.58.05-2.46,1-5.92,6.41,10.42,9.97,14.46,10,8.27-1.88,12.08,2.64,19,3.99l-2.01-6.98,9-3.01c.3,22.05,52.27,35.6,51.01-7,12.89,2.79,26.91,7.47,35.94,17.5-2.88,1.8-2.5,13.79-48.95,14.51.82,3.87,13.93,1.37,23,3.99-16.45,10.51-34.59,7.17-53,5.01-3.2,2.71,16.59,11.95,18.02,12.47,10.11,3.69,20.81,3.37,30.98,6.52-2.12,6.37-6.9,6.63-11,13-1.61,1.09-3.77,1.58-4.99,3.51,5.31,3.31,11.52.79,16.99-.51,47.24-2.07,82.85-74.51,110.51-75.98,15.66-.83,15.85,9.87,24.49,39.98-1.01,9.89,14.76,59.29,20,78,4.04,14.41,7.65,26.68-6,37-2.71-.17-5,1.61-7.58,1.92-9.98,1.21-18.2-4.62-27.17-5.66-34.28-3.98-53.35,32.32-64.07,15.07-4.03-6.48-2.47-17.36-.17-24.33,6.74-20.42,17.15-26.35,0-14-9.43,5.36-7.81,9.28-9.89,7.04-2.13,4.73-9.12,17.68-4.11,16.96-.71,3.24-1.78,5.22-2,9-1.23,21.55,17.21,30.97,36.5,31.09,1.02,0,19.32-4.08,31.5,2.91,1.85,1.75,3.44,5.57,5,7-2.08.46-6.58.16-8.51-.22-.65-.13-.11-1.66-1.93-1.87-12.05-1.36-26.25,7.73-35.07,15.09l2.5-5.5c-5.59-.17-11.01,5.75-16.27,7.73-2.31.87-4.88.96-7.21,1.79l3-7c-10.42,1.45-20.93,11.27-30.03,13.97-3.59,1.07.49-3.2.03-3.99-2.76-3.86-14.99,6.17-20.51,9l-3.98-1.49c5.39-4.25-3.04-6.59-5.02-1.51-.1.03,0-.02-4.01.01l1.01.99c-19.2,8.79-33.01,26.82-35.01,48-2.2,2.67-12.62-13.48-14.55-24.94-.7-4.15.43-8.5-1.45-12.05-.15-1.64.25-2.85-1.5-3.98-4.7,2.08-3.49,5.37-6,8.96-10.92-8.41-13.33-19.74-14.54-32.93-35.57-1.44-60.83-53-82.54-86.96-23.14-36.2-43.03-47.41-30.42-115.08,12.38-66.42,8.69-54.22,12-67,1.27-.03,9.51-18.61,12.17-22.33,16.76-23.43,38.72-31.79,62.38-44.62,40.8-22.13,35.73-72.88,21.45-117.05-1.65-11.51-2.48-7.27,10-9,68.97-9.58,100-8.65,163,21Z" fill="#cfd3e4"/><path d="M526,574c1.98-5.08,10.41-2.74,5.02,1.51l3.98,1.49c-3.74,1.92-7.76,2.23-10.99,5,7.33-8.93,9.83-10.53,1.99-8Z" fill="#cfd3e4"/><path d="M525,574.01c-2.57,1.03-1.43,1.53-3.01,0h3.01Z" fill="#cfd3e4"/><path d="M446,348c13.08-3.33,24.83-10.07,37.78-13.72,18.51-5.21,48.85-7.79,67.42-2.99,3.99,1.03,22.01,7.82,22.61,11.34l-.83,3.36c-76.24-25.89-105.49,5.32-116.99,5.01l9.99,6.5-7.99,1.49c-4.04-.03-20.38-3.59-14.46-10,.88-.95,2.16-.76,2.46-1Z" fill="#03f"/><path d="M455,96c-.56-3.22,1.62-1.72,3.5-1.95,33.84-4.19,66.32-9.16,100.33-.32,1.74.45,3.77-.62,3.17,2.28-39.49-8.96-67.8-5.45-107,0Z" fill="#03f"/><path d="M448,280c-15.56,14.27-15.95,12.61,7.49,13.01,23.41.39,58.92-3.43,78.51,11.99-12.19-6.12-26.85-10.07-40.51-10.99-11.87-.8-62.18,4.68-58.39-3.92l12.9-10.09Z" fill="#03f"/><path d="M645.19,230.37c12.59-30.38,6.69-65.9-8.19-94.37,13.19,18.62,19.09,50.73,15.72,73.22-1.1,7.34-3.98,14.11-5.74,21.25,3.78,6.62,9.91,13.01-1.79-.11Z" fill="#03f"/><path d="M451,191c7.8-33.37-1.51-54.67-6-86,8.65,26.77,14.91,58.74,6,86Z" fill="#cfd3e4"/><path d="M617,272c-13.67-2.98-27.57-5.63-41.02-9.53-1.66-.48-3.55.19-2.98-2.47,13.64,3.32,31.33,6.84,44,12Z" fill="#03f"/><path d="M691,501c-10.89,8.24-21.76-.76-32.6-1.95-15.54-1.71-30.3,4.76-43.4,10.95,10.14-7.42,28.73-14.19,41.25-12.74,8.98,1.04,17.19,6.87,27.17,5.66,2.58-.31,4.87-2.09,7.58-1.92Z" fill="#03f"/><path d="M349,289c-3.14,12.14-3.91,24.7-6,37-4.51-4.11,3.15-23.9,5.01-38,1.14-.17.92,1,.99,1Z" fill="#112378"/><path d="M697,464c-5.38-19.19-21.01-68.09-20-78,7.39,25.78,14.08,51.84,20,78Z" fill="#03f"/><path d="M583,482c-2.84,4.93-3.81,10.53-5,16-5.02.72,1.96-12.19,4.11-16.96l.89.96Z" fill="#cfd3e4"/><path d="M584,403c-12.1,9.51-26.23,18.31-42,19,15.63-3.7,28.81-10.04,42-19Z" fill="#03f"/><path d="M592,488l6.01-16.49c-1.64.36-4.57,1.67-6.01,2.49,17.15-12.35,6.74-6.41,0,14Z" fill="#03f"/><path d="M558,257c-9.05-1-17.41-4.08-26.52-5.03-1.89-.2-4.04,1.2-3.48-1.97,9.85.03,20.52,4.73,30,7Z" fill="#03f"/><path d="M623,365c-19.17,18.74-16.45,17.44-5.03,3.47l5.03-3.47Z" fill="#03f"/><path d="M575,99c9,.99,32.37,10.16,43,18-13.77-6.48-28.43-13.54-43-18Z" fill="#03f"/><path d="M539,410c-1.35,2.3-5.39,7.16-7.33,8.66-.64.5-1.48.21-1.67.34,2.34-3.64,5.9-6.12,9-9Z" fill="#03f"/><path d="M540,409c1.26-3.78.68-3.48,2-1.51-.36.85-1.56,1.08-2,1.51Z" fill="#03f"/><path d="M516.99,254.98c-.94,1.12-8.05,3.8-8.98,6.01,19.8-4.9,39.66-.67,59.18,3.32,19.14,3.91,68.64,13.47,72.57,36.42,2.45,14.32-8.16,20.94-21.23,20.26-22.34-1.16-61.75-25.89-88.15-31.87-27.17-6.15-54.87-3.66-82.37-2.13-.85-5.36,47.06-27.23,68.51-33.98l.47,1.96Z" fill="#112378"/><path d="M668.74,522.75c-5.47,5.75-20.8,1.69-28.23,2.27-4.91.38-24.56,5.62-27.36,3.84-2.65-4.86,5.18-11.74,9.16-14.05,10.73-6.23,36.04-8.56,46.08-.7,2.36,1.84,2.2,6.7.35,8.64Z" fill="#112378"/><path d="M226,310c25.78,6.02,45.2,42.18,49.82,69.76,1.23,7.35-18.43,20.21-7,46.96.43,1,18.49,23.89,5.73,31.34-5,2.92-14-4.9-18.55-7.06,16.09-5.12,3.52-14.11.22-23.72s-.7-15.58,1.77-25.27c-1.14-1.14-12.19,4.3-13.93,5.56-3.36,2.42-10.7,14.87-14.14,10.02-1.07-4.68-.26-4.57-2.92-2.58.87-8.97,2.29-14.85,6.61-22.89,1.96-3.65,10.27-15.14,13.39-17.11s9.06-3.07,10.55-7.95c3.25-10.63-7.1-35.76-18.29-37.81-21.39-3.93-26.26,23.18-27.25,39.27-.24,3.83-1.25,6.34,2.98,7.49-.18.71-.92,4.34-1,5,0-4.89.65-3.99-1.99-3.99-.27,1.78,0,3.5,1.99,3.99-.97,7.87,2.35,8.78-2.99,7,.06,3.18-.1,6.39-.05,9.58.03,1.87,1.16,1.47,1.04,3.42-.04.73-1.59,5.99-1.97,7.58-.41,1.71.97,2.9-2.02,2.42.98-19.24-22.79-86.51,17.99-100.99Z" fill="#112378"/><path d="M247,375c1.31-4.89,6.29-8.85,6-14-.84-3.09-18.34-3.58-21.53-2.99-2.02.38-2.31,1.92-2.47,1.99-8.13,3.22-11.69,7.04-14,16-4.23-1.15-3.22-3.66-2.98-7.49.99-16.09,5.85-43.2,27.25-39.27,11.19,2.05,21.54,27.18,18.29,37.81-1.49,4.87-7.29,5.89-10.55,7.95Z" fill="#03f"/><path d="M226,310c-40.7,14.46-17.01,81.54-17.99,100.99,3,.48,1.62-.71,2.02-2.42.38-1.58,1.93-6.85,1.97-7.58,3.83,14.68-4,26.23,13.98,51.5-3.18,4.05-6.49-3.45-8.45-5.56-9.79-10.58-12.76-18.9-16.53-32.94,2.3-1.17.26-.96-4.03-29.51-.28-1.87,1.25-4.05-1.97-3.49-2.89-31.24.32-78.16,31-71Z" fill="#03f"/><path d="M227,415c2.66-1.98,1.85-2.1,2.92,2.58,3.44,4.85,10.77-7.61,14.14-10.02,1.75-1.25,12.8-6.7,13.93-5.56-2.47,9.69-5.21,15.27-1.77,25.27s15.87,18.6-.22,23.72c-10.48-4.97-32.09-4.14-29-36Z" fill="#03f"/><path d="M395,787c20.43,102.17,23.62,130.57,43,163-86.58-22.47-187.7-86.43-249-149,53.77-44.69,80.41-104.03,89-176,3.21-9.76,4.88-39.23,5.01-46,10.47,7.61,10.26,45.99,54.36,113.13,21.96,33.43,44.56,55.74,57.63,94.87Z" fill="#cfd3e4"/><path d="M293,511c-.47-1.98-1.14-3.92-1.01-6-12.5,6.42-23.68,6.21-36.67,1.18-35.68-13.82-49.01-48.7-58.24-82.76-7.86-29.01-17.89-68.16-7.09-96.94,13.59-36.21,47.47-46.55,75.04-16.73,10.25,11.09,15.95,27.05,27.81,35.91,3,30.68,3.75,61.5,4.17,92.33h-2.02c-.04,10.41-.89,9.15,2.02,10,0,.67-.84,54.5-1,64.5l-3-1.5ZM226,310c-45.91-10.72-36.72,106.43-8.47,136.94,1.96,2.12,5.27,9.62,8.45,5.56-17.98-25.27-10.14-36.82-13.98-51.5.02-.33,0-.67,0-1,7.25-5.82-12.16-50.72,41-39,.29,5.15-4.69,9.11-6,14-1.15.73-17.59,15.17-20,40-3.09,31.84,18.48,31.01,29,36,4.55,2.16,13.55,9.97,18.55,7.06,12.83-7.48-5.41-30.58-5.73-31.34-11.84-27.73,8.41-38.54,7-46.96-4.55-27.14-23.82-63.69-49.82-69.76Z" fill="#cfd3e4"/><path d="M414,882l-19-95c9.65,28.88,12.92,64.69,19,95Z" fill="#112378"/><path d="M274,654c-4.45,22.42-12.37,46.85-23,67,17.28-38.82,19.18-67.79,23-67Z" fill="#03f"/><path d="M195,381c3.08-.54.48-.1,6.35,28.17.3,1.46,1.56,3.86-.35,4.83-2.85-10.63-4.98-22.02-6-33Z" fill="#112378"/><path d="M214,389c-.23,3.66,1.17,8.46-2,11,0-.13-1.02-1.09-1.04-2.42-.05-3.19.11-6.4.05-9.58l2.99,1Z" fill="#03f"/><path d="M253,361c-7.74-1.71-16.11-3.45-24-1,.17-.07.46-1.61,2.47-1.99,3.19-.6,20.69-.1,21.53,2.99Z" fill="#112378"/><path d="M626,601c-19.75,3.92-53.26,17.29-64,14.99l1-2.98c2.08-.55,1.86,1.01,1.99.99l61-13Z" fill="#112378"/><path d="M659,607c10.53,6.12,18.29-2.79,28-6-.39.31-.62,1.28-1.59,1.87-1.83,1.1-15.84,7.79-17.17,7.97-4.33.59-6.52-2.3-9.24-3.83Z" fill="#112378"/><path d="M691,593c.54.21,2.04-.51,1.99.49-1.29,3.16-2.89,4.37-4.99,6.51l3-7Z" fill="#112378"/><path d="M214,381c-1.99-.49-2.27-2.21-1.99-3.99,2.63,0,1.99-.92,1.99,3.99Z" fill="#03f"/><path d="M556.17,350.61c-15.95-5.54-33.39-3.71-52.77-2.49-16.77,1.06-27.27.44-30.25,4.32-8.47,11.01,21.06,17.33,37.59,22.24,10.24,3.04,29.47,6.85,37.77.28,25.12-2.18,31.48-16.08,7.67-24.36Z" fill="#fff"/><path d="M546,322c17.16,2.31,34.54,7.59,42.03,24.47,2.18,4.92,8.35,28.35,2.34,30.4-1.45.13-35.73-1.03-45.37,5.13-8.84-2.55-22.2-.2-23-3.99,46.07-.71,46.26-12.84,48.95-14.51-9.03-10.03-23.05-14.7-35.94-17.5,1.25,42.59-50.72,29.05-51.01,7l-9,3.01,2.01,6.98c-6.91-1.35-10.73-5.87-19-3.99l7.99-1.49-9.99-6.5c13.26.36,39.11-31.46,116.99-5.01l.83-3.36c-.73-4.25-35.36-23.73-90.03-8.35-12.95,3.64-24.71,10.38-37.78,13.72,28.88-23.34,63.37-30.94,100-26Z" fill="#112378"/></svg>