<?xml version="1.0" encoding="UTF-8"?><svg id="a" xmlns="http://www.w3.org/2000/svg" width="1024" height="1024" viewBox="0 0 1024 1024"><path d="M13,1024H0V0h1024v854c-4.36-3.12-7.65-9.72-11.43-13.07-17.32-15.29-36.97-28.32-57.54-39.46-71.61-38.77-146.98-71-219.04-108.96-16.32-8.64-32.58-26.62-48.98-33.52-.13-.05-.46-1.32-1.72-1.74l-9.39-1.86c-2.8-9.41-4.94-19.14-5.88-28.91-2.1-21.86.81-45.91,2.03-67.95.9-16.14-.78-33.05,5.14-48.37,7.47-1.81,14.11-1.57,20.76-5.74,19.8-12.4,35.04-39.1,40.57-61.43,5.43-21.89,12.3-71.82,3.98-92-4.84-11.75-11.84-11.61-22.54-15.67l2.06-59.83c1.42-24.99,7.64-52.06-2.01-75.99,1.65-2.63,3.57-.41,6-.53-.98-9.12-2.77-18.38-6.82-26.67-7.52-15.39-25.06-29.1-40.17-36.34-.15-1.93,3.11-.86,4.21-.71,8.57,1.14,17.88,4.49,26.26,6.74,3.34.04-6.55-10.66-7.47-11.53-18.95-17.78-29.69-16.33-51.01-25.49,6.09-8.27,13.22-15.15,16-25.48-2.06-3.14-3.56-.81-5-.52-14.34,2.84-27.95,12.49-39.51,20.98,4.22-19.02,1.07-42.67-15.48-54.98,1.84,7.85,6.26,14.77,2.47,22.98-.64,1.19-1.76,1.31-2.9.95-1.07-.34-9.8-15.94-12.16-18.84-10.4-12.78-26.06-22.53-42.41-23.59,11.79,8.61,13.47,24.51,17.99,37.5-13.88-13.38-32.19-22.97-50.47-29.02-25.01-8.27-47.95-8.16-73.87-4.84-23.69,3.04-47.73,12.09-71.64,5.87,2.48,6.61,8.08,8.83,12.36,12.91.84.8.91.68.65,2.08-14.94,2.09-28.44,9.42-42.79,13.72-19.75,5.92-37.59,8.67-58.2,4.29.56,11.09,9.92,16.37,17.99,21.99-5.15-.6-6.76,3.88-9.81,5.69-16.75,9.92-24.91,17.49-34.84,34.13-1.5,2.51-3.5,5.1-3.33,8.19,4.1.06,5.06-3.03,7.37-4.11,3.42-1.59,9.76-2.29,13.6-3.4-1.43,4.11-6.28,4.19-8.89,6.1-6.52,4.75-12.12,11.55-18.52,16.48l-9.51,13.51c-.75,1.9,4.46,2.46,5.5,2.47,3.43.04,8.75.07,11.86-.03.33-.01,2.64-3.43,5.58-3.01,1,1.28-9.14,15.1-10.53,17.95-4.32,8.82-7.57,20.75-6.5,30.59.16,1.51.1,2.48,1.55,3.43,1.17-.03,3.41-6.38,4.26-7.69.63-.98-.1-1.79,2.24-1.28,1.2,25.13,8.71,49.47,11,74.5,1.35,14.8,1.04,29.62,1.01,44.49-.92.9-16.7-4.92-18.05,5.45-.73,5.61-.54,14.76,2.62,19.48,5.06,7.56,6.51,3.95,8.3,15.7,1.6,10.45,4.2,24.82,5.12,34.88.77,8.47-1.67,17.52-2.03,25.95-2.03,47.03,12.46,114.6,35.91,155.19,8.2,14.2,17.5,28.75,25.93,43.05,7.76,13.17,16.5,25.39,24.96,38.04l.05,43.57-3.12,2.88c-36.51,16.47-71.69,36.2-107.98,53.02-41.94,19.44-87.4,34.01-124.2,61.8-38.64,29.19-61.32,76.33-77.54,121.46-8.76,24.39-16.5,49.49-22.98,74.52Z" fill="#17c37b"/><path d="M32,1024c8.78-32.29,19.69-63.96,32.7-94.76,8.36-19.29,20.28-40.79,34.33-57.71,50.12-60.36,142.41-84.48,209.64-119.36,2.01-1.04,6.6-5.2,7.82-5.21,4.56-.05.62,13.15.46,16.5-1.66,34.9,11.4,73.58,34.32,97.25,32.09,33.15,83.82,48.51,129.26,47.33,73.87-1.92,134.74-40.86,183.01-93.46,4.13-4.5,15.62-20.55,18.91-22.62,8.91-5.6,43.25-10.93,55.18-12.82,49.04-7.8,87.06-11.03,134.88,5.84,24.78,8.74,64.72,25.97,85.41,41.59,2.74,2.07,10.27,7.22,4.99,9.89-19.3,9.75-28.44,16.59-41.88,34.08-30.41,39.57-44.54,85.48-59.3,132.7-2.16,6.92-5.37,13.58-6.74,20.76H116c-3.73-24.85-4.79-50.18-3.61-75.32.76-16.25,4.2-32.39,1.6-48.68-1.39.26-2.09,1.79-2.5,3.01-12.15,36.71-17.87,60.55-14.48,100.48l2.99,20.51h-4c2.24-4.26-.86-6.69-1.95-10.55-4.59-16.31-7.94-33.13-10.04-49.96-.49-3.91,1.75-9.43-3-11.49-.5,7.14-3.34,13.82-4.76,20.75-2.43,11.78-4.07,23.7-6.51,35.49-1.11,5.35-4.85,10.38-2.74,15.76h-35Z" fill="#ffd007"/><path d="M907,1024h-29c-.85-6.75,5.02-11.25,4.08-17.95l2.93-.06-1.59-3.05c9.27-26.31,16.82-52.89,30.76-77.26,5.96-10.42,13.76-19.74,20.32-29.69.04,36.75-7.35,74.56-20.02,108.99-2.31,6.28-6.43,12.2-7.48,19.02Z" fill="#ffd007"/><path d="M375.38,814.63c24.75,35.44,75.76,49.01,117.11,45.36,38.98-3.44,67.67-24.84,101.83-40.17,19.36-8.69,40.04-14.78,59.67-22.82l-9.97,13.52c-60.6,66.79-166.87,108.48-252.05,63-35.22-18.81-58.51-54.4-60.03-94.97-.66-17.72,5.45-28.86,13.2-43.9,1.25-2.43,4.06-3.46,2.86-7.64l3.7,8.78c6.59,29.53,5.59,52.96,23.67,78.84Z" fill="#ffd007"/><path d="M303.95,308.44c22.21-2.61,60.15-2.23,81.58,5.53,10.53,3.81,14.84,11.12,22.46,17.54,12.72,10.73,44.2,13.03,57.52,2.5,4.41-3.48,6.04-11.58,11.99-16.01,18.54-13.81,83.94-18.61,105.71-12.71,13.45,3.64,15.01,10.39,25.79,16.71h1c-1.1-9.8-2.87-19.8-5.11-29.39-.73-3.13-3.29-6.02-3.89-9.61-.04-.26-.02-4.36,0-5,.32-8.98,4.26-23.15,7-32,.12-.38.92-.73,1-1l5.05-32.47-2.05-17.53c-3.02-8.48-5.12-13.75-12-20-22.51-20.43-81.62-16.29-110.49-12.99-24.15,2.76-47.75,11.84-71.51,4.99-2.41-.69-4.72-1.92-5-2-1.02,1.97-3.48.71-5,.51-19.42-2.48-34.55-3.68-54-.51-.32.05-.68-.06-1,0l-17.2,6.3c-12.92,5.23-21.82,12.58-31.8,21.7-1.09,1-1.48,3.23-4,3-10.25,23.99-8.91,57.16-12.13,83.37-1.8,14.63-4.22,29.37-7.87,43.62,1.79,1.43,19.38-14.01,23.95-14.55Z" fill="#fffbeb"/><path d="M558,770c-11.41-13.1-17.53-12.99-34-12-2.08.13-4.58,1.59-7,1-7.93,2.7-17.16,5.15-25.51,5.99-8.6.86-14.4.07-22.49-.99-2.59-.34-6.93-.53-9-1-27.65-6.29-47.6-30.74-65-51-.3-.35-.69-.64-1-1-5.05-5.91-8.07-9.38-14-14-4.3-3.36-9.33-7.22-14-10-.81,9.01-1.01,17.95-1,27,0,1.67-.03,3.34,0,5,.02,1-.03,2,0,3,.66,20.63,3.7,41.26,1.42,62,41.48,81.68,134.2,76.35,202.58,32v-2c0-12,.4-22.55-4-34-2.04-3.51-4.32-6.93-7-10Z" fill="#fffbeb"/><path d="M345.01,480.01l1.99,2.99c1.09-.94,7.22-4.75,7.99-3.99.09,1.64-1.91,3.91-2.99,4.99l1,1c.25-.4,7.11-4.85,8-5,1.74-.3,4.09.12,6,0,1.55-.1,3-.74,4.47-.8,1.64-.07,6.88,2.23,7.53-.71.13-.59-3.58-5.31-4.31-7.67-3.85-12.37,1.3-25.72,12.82-31.81.82,3.35-3.43,6.11-4.91,9.09-5.86,11.77-1.89,21.21,11.01,23.79,7.51,1.51,9.99,1.2,17.39,5.11-.25-3.44.58-1.46,2.3-.81,7.88,2.98,9.45,7.26,18.76,5.37,3.61-.73,7.35-3.55,10.94-4.56.81-.87,2.08-2.08,3-3,4.68-4.66,10.45-8.39,14-14,.83-4.66.85-7.29,1-12-2.7-7.61-1.57-15.68-1.96-23.54-.55-11.06-2.67-22.52.96-33.46v-1c-1.4-4.58-2.27-9.62-4.24-14.26-2.42-5.7-3.43-9.22-9.76-11.25-28.34-9.08-26.38,22.18-32.72,40.29-6.55,18.72-19.89,31.74-39.79,34.21-23.14,2.87-69.74,5.04-90.19-5.79l-6.29-5.19c-1.28,11.36-2.14,25.7-.01,36.99.62,3.28,2.63,8.23,3.53,11.97,1.65,6.79.67,7.18,4.1,13.39,2.67,4.82,2.52,5.52.37,10.64,1.79-.95,2.63-4.64,5-1.47l-1.99,2.98c0,.86,9.09,2.97.97,3.51l1.02,4.99,3.49-4.99c2.79,4.42-1.19,11.31-2.77,16.28-.47,1.49-1.7,1.6-1.74,1.71-.81,2.96.42,5.58,1,8,4.02.62.77-2.73,1.25-3.8.32-.73,4.65-4.56,5.17-5.28,2.02-2.76,3.52-6.39,6.09-8.91,3.76-.03-.5,2.78-.55,4.49-.01.52,1.57.35,1.98,1.27,1.21,2.69-.86,6.05,1.05,8.24,2.02-7.27,3.62-13.52,5-21,1.09-5.9.14-9.84,3.59-15.91,3.67-6.43,21.47-19.56,28.41-23.09,4.32-2.2,8.61-3.32,12.52-5.99,2.42-.92,1.77,2.64,0,4.05-4.93,3.93-11.45,7.53-15.52,12.94-.55.73-3.21,4.79-3,4.99l4.51-2.98,1.97,2.01,2.53-3.01Z" fill="#fffbeb"/><path d="M373.99,607l1-3.99,1.14,6.85c4.43-1.42,6.69,5.08,10.38,6.14l1.48-2.99c.09,1.2-.38,2.74.22,3.79.36.63,11.96,5.3,13.19,6.12l2.12-3.92c-6.71-9.7-16.99-19.32-19.5-30.99,1.53-.34.53,1.24,1.74,1.95.55.32,3.56,1.76,4.25,2.04,1.42.58,7.83,2.76,9,3,4.2.85,15.53,2,19.5,2h17c3.14,0,8.68,1.11,13.5,1,1.87-1.68,6.33-1.15,9-1,.66.04,1.34-.03,2,0,9.09-1.29,18.07-2.92,27-5,1.77-.41,3.44-.64,5-1,2.49-1.97,7.04-4.12,10-5,.3-.09.68.08,1,0,2.07-.19,3.68-4.88,5.53-2.03,1.93,2.97-.81,5.26-2.53,7.03-5.18,5.3-9.29,10.23-14,16-2.18,2.67-4.22,7.54-7,8-1.06,2.29-2.43,4.52-3,7,.33.15.76.14.92.56l.09,4.43c1.78-.71,5.53-.91,5.01-2.97h1.97s.2,1.76.2,1.76l2.8-.79-1.99-3.98,3.99,1c-1.26-4.61,3.75-4.17,3.01-8l2.03.57.98,4.73,2.98.7-1-3.99c4.04-.61,6.65.94,8.02-4l2.5,1.01.49-14.02,3.98,7.99c2.68-3.88.83-6.65,1.02-10.99l2.48,2,.51-3.01,2.01,3.01c3.3-.48,2.82-2.59,4-4.25,3.09-4.32,5.75-9.09,8.57-13.64,1.96-3.16,5.91-8.09,5.43-.12l2-4c.28-.26,2.25,1.57,2.99,2,.17-1.82.45-3.69,1.06-5.43,3.3-9.32,8.9-21.22,10.94-30.57.07-.32-.06-.68,0-1,.32-1.77-.9-4.89,1-6,.06-3.73.79-9.06-1-12-3.53,3.75-16.7,9.94-21.93,13.57-4.87,3.38-9.47,7.92-14.58,11.42-30.72,21.02-56.35,30.49-94.98,28-21.29-1.37-31.41-8.18-48.42-19.58-13.09-8.77-25.51-18.94-38.09-28.41,1.99,6.04.57,12.87,1.28,19.22.95,8.52,3.99,13.54,6.72,20.78,1.29,3.43,3.14,7.29,3,11,3.27,1.81,3.42,6.61,4,10,2.04,3.27,6.05,6.28,7,10l2.99-3c-.8,4.82,3.24,10.05,8,11Z" fill="#fffbeb"/><path d="M550.54,429.04c32.35-1.4,51.56-4.78,58.01-39.99.6-3.26,2.75-16.64-.56-18.06-.53-.23-2.17.26-3.25-.2-.45-.19-6.37-6.53-6.6-6.97-.58-1.11.88-2.37.85-2.83-3.99-1.06-2.93-11.26-4.67-12.03-25.15-3.37-51.12-8.05-76.33-2.97-2.3,2.46-9.1,4.38-4,7,18.07-5.14,42.57-3.44,59.38,5.12,5.87,2.99,9.84,6.92,14.61,11.4-1.09,5.54-4.67-1.33-6.99,1.48-.22.27.56,2.08-.56,2.05-3.62-.56-8.07-2.45-11.44-3.05-4.27-.76-8.7-1.26-13-2-.62-.11-1.35.07-2,0-3.56,7.05-7.64,9.41-15.54,9.03-7.31-.35-9.49-4.22-12.46-10.03l-2.56-1.05-19.44,3.05c-4.3,2.11-8.63,6.56-13,3-.19.4-5.32,5.69-6.1,6.4-1.02.94-3.6.91-4.47,2.59-1.09,2.12,3.1,7.49-1.44,8.48,2.2,4.75,4.29,8.95,6.51,13.57.69,1.44-.3.82,1.46,3.7,2.33,3.81,10.6,15.37,14.04,17.26,9.27,5.1,38.44,5.52,49.54,5.04Z" fill="#fffbeb"/><path d="M289,421c19.48,11.59,72.12,11.76,93,3.5,17.48-6.92,23.56-40.69,23-57.5-.82,1.57-4.77,1.8-5,2-.11.09.36,2.05-.57,2.07-2.72-1.29-5.59-2.13-8.43-3.07,3.49,6.6-5.22,1.14-6.54,1.02-2-.19-4.3,1.9-6.46-.02-3.23,11.62-24.48,12.28-30.84,2.34-2.32-3.63-.81-5.55-5.16-7.34.62,3.67-5.08,1.53-7.33,2.02-.59.13-9.19,3.15-10.36,3.68-3,1.35-5.94,6-10.31,5.29-.2-.15,1.62-2.56,2-2.99-2.51.63-12.37,7.62-13.99,5.99.36-7.42,8.54-14.33,14.68-17.81,13.8-7.81,36.19-9.43,51.79-8.17,2.78.22,11.2,1.3,13.52,1.98l2.01-1.51c-9.06-2.81-18.56-4.51-28.01-5.49-13.4-1.39-32.82-2.26-46,0-4.68.8-10.32,3.28-13.73,6.3-.47.41-.15,1.58-.27,1.7-1.77,7.09-1.38,13.6-8,18-.11.12-1.9-.47-2.08.63-.2,1.23,1.25,4.28,1.11,6.82-.5,9.58-3.05,22.14-5.04,31.55-.07.32.05.68,0,1,1.54,3.51,4.47,5.36,7,8Z" fill="#fffbeb"/><path d="M630,464c3.71-19,7.61-51.45.95-69.45-1.48-4.01-4.7-7.42-5.95-11.55-.57-.29-1.1-1.07-2-1-2.26,19.34-6.99,44.35-28,51.5-19.92,6.77-51.2,8.74-73,7.5-1.36-.08-3.2,1.94-4-1-.66-.02-1.35.07-2,0l-.5.98-.5-.98c-.66-.07-1.34.06-2,0-4.82,1.6-8.34,4.57-6,10,6.72,1.59,5.1,9.21,7,14,.61-.79.26-1.43,1.99-.99,1.14,5.34,1.06,9.65,0,14.99,3.68.32,7.62.63,11.25,1.27,1.76.31,4.09,1.65,4.76,1.73.97.12,2.01-.05,3,0,4.7.24,8.65-1.29,13,0-1.23-1.58-2.63-3.58-4-4.99-2.03-2.1-3.87-3.56-6-6-.31-.35-.7-.64-1-1-3.47-2.38-7.97-5.46-7.99-9.99,1.74-.23,3.12.11,4.72.78,12.01,5.01,25.85,17.19,38.02,22.92,4.37,4.19,10.81,6.02,14.26,11.3,1.06,1.62,2.96,6.64,3.76,8.74.42,1.08,1.97,3.65.24,4.26,2.81,6.6,2.04,14.88,2,22-.02,3.17-1.52,6.48.5,9,1.63-2.14,2.3-4.42,5.52-4.01l-.89-4.26c2.68-2.13,2.52-5.48,4.34-7.77,2.05-2.58,1.59,2.62,4.54,2.04v-3s3,0,3,0v2c0-.15,1.02-1.13,1-2-.01-.67,0-1.33,0-2,0-1,.02-2,0-3-.04-2.27.01-4.96,0-7-.01-2,.03-4,0-6,0-.16-.91-.66-.91-1.48,0-.77.92-1.34.91-1.52-.07-2.54-2.96-11.77.5-12.97l1.5.97c2.34-2.69-.66-7.63,2.99-9-.51,1.77.6,2.79,1.01,4,2.4,1.32,3.09,3.66,4,6,.03.07.72.23,1,1,.1.29-.1.69,0,1,6.06.35,3.2-3.71,3.56-6.54.88-6.96,4.22-14.21,5.44-20.46Z" fill="#fffbeb"/><path d="M419.64,536.86c-10.31-1.16-20.75-3.49-31.07-4.77-6.75-.2-9.71,10.33-6.02,14.87,3.75,4.61,27.92,14.16,34.42,15.58,22.27,4.88,59.61.45,80.05-10.01,2.66-1.36,19.75-11.61,20.69-12.82,2.05-2.63-.51-5.78-.8-8.6-21.04,3.88-42.07,4.81-63.39,5.91-13.18.68-20.08,1.4-33.87-.16Z" fill="#fff"/><path d="M271.82,353.32c-3.73,9.12-1.3,21.09-.82,30.68,2.31.13,1.78.35,2-1.48,1.35-11.09-.35-22.82,2.99-33.51-2.03-.69-3.67,3.07-4.18,4.31Z" fill="#fffbeb"/><path d="M300.01,530.01l-5.01,13.99c1.22,2.69,1.15,3.68,3,7h1c-.84-6.1,1.5-12.12,2-18,.08-.98.6-3.31-.99-2.99Z" fill="#fffbeb"/><path d="M488.51,457.77c.55-.19.61-1.52,1.73-2.07,2.04-1,7.2-2.08,7.62-4.33.1-1.06-.48-1.87-.99-2.72-.5-.85-5.29-4.73-6.23-5.28-7.98-4.64-9.73-3.76-17.48.79-1,1.57.45,9.78,1.76,11.41,1.99,2.49,10.95,3.1,13.58,2.2Z" fill="#fffbeb"/><path d="M112.39,948.68c.76-16.25,4.2-32.39,1.6-48.68-1.39.26-2.09,1.79-2.5,3.01-12.15,36.71-17.87,60.55-14.48,100.48l2.99,20.51h16c-3.73-24.85-4.79-50.18-3.61-75.32Z" fill="#112378"/><path d="M84.01,963.49c-.49-3.91,1.75-9.43-3-11.49-.5,7.14-3.34,13.82-4.76,20.75-2.43,11.78-4.07,23.7-6.51,35.49-1.11,5.35-4.85,10.38-2.74,15.76h29c2.24-4.26-.86-6.69-1.95-10.55-4.59-16.31-7.94-33.13-10.04-49.96Z" fill="#112378"/><path d="M1012.57,840.93c-17.32-15.29-36.97-28.32-57.54-39.46-71.61-38.77-146.98-71-219.04-108.96-16.32-8.64-32.58-26.62-48.98-33.52.66.26,2.78,2.08,3,2.99-4.95.73-8.48-.54-13-2-3.49-3.2,8.7-1.51,10-.99-.13-.05-.46-1.32-1.72-1.74l-9.39-1.86c-2.8-9.41-4.94-19.14-5.88-28.91-2.1-21.86.81-45.91,2.03-67.95.9-16.14-.78-33.05,5.14-48.37,7.47-1.81,14.11-1.57,20.76-5.74,19.8-12.4,35.04-39.1,40.57-61.43,5.43-21.89,12.3-71.82,3.98-92-4.84-11.75-11.84-11.61-22.54-15.67l2.06-59.83c1.42-24.99,7.64-52.06-2.01-75.99,1.65-2.63,3.57-.41,6-.53-.98-9.12-2.77-18.38-6.82-26.67-7.52-15.39-25.05-29.1-40.17-36.34-.15-1.93,3.11-.86,4.21-.71,8.57,1.14,17.88,4.49,26.26,6.74,3.34.04-6.55-10.66-7.47-11.53-18.95-17.78-29.69-16.33-51.01-25.49-.9-.39-2.48.95-1.99-1.49l11.73-15.7,1.26-8.81c-14.34,2.84-27.95,12.49-39.51,20.98,4.22-19.02,1.07-42.67-15.48-54.98,1.84,7.85,6.26,14.77,2.47,22.98-.64,1.19-1.76,1.31-2.9.95-1.07-.34-9.8-15.94-12.16-18.84-10.4-12.78-26.06-22.53-42.41-23.59,11.79,8.61,13.47,24.51,17.99,37.5-13.88-13.38-32.19-22.97-50.47-29.02-25.01-8.27-47.95-8.16-73.87-4.84-23.69,3.04-47.73,12.09-71.64,5.87,2.48,6.61,8.08,8.83,12.36,12.91.84.8.91.68.65,2.08-14.94,2.09-28.44,9.42-42.79,13.72-19.75,5.92-37.59,8.67-58.2,4.29.56,11.09,9.92,16.37,17.99,21.99-5.15-.6-6.76,3.88-9.81,5.69-16.75,9.92-24.91,17.49-34.84,34.13-1.5,2.51-3.5,5.1-3.33,8.19,4.1.06,5.06-3.03,7.36-4.11,3.42-1.59,9.76-2.29,13.6-3.4-1.43,4.11-6.28,4.19-8.89,6.1-6.52,4.75-12.12,11.55-18.52,16.48l-9.51,13.51c-.75,1.9,4.46,2.46,5.5,2.47,3.43.04,8.75.07,11.86-.03.33-.01,2.64-3.43,5.58-3.01,1,1.28-9.14,15.1-10.53,17.95-4.32,8.82-7.57,20.75-6.5,30.59.16,1.51.1,2.48,1.55,3.43,1.17-.03,3.41-6.38,4.26-7.69.63-.98-.1-1.79,2.24-1.28,1.2,25.13,8.71,49.47,11,74.5,1.35,14.8,1.04,29.62,1.01,44.49-.92.9-16.7-4.92-18.05,5.45-.73,5.61-.54,14.76,2.62,19.48,5.06,7.56,6.51,3.95,8.3,15.7,1.6,10.45,4.2,24.82,5.12,34.88.77,8.47-1.67,17.52-2.03,25.95-2.03,47.03,12.46,114.6,35.91,155.19,8.2,14.2,17.5,28.75,25.93,43.05,7.76,13.17,16.5,25.39,24.96,38.04l.05,43.57-3.11,2.89c-36.51,16.47-71.69,36.2-107.98,53.02-41.94,19.44-87.4,34.01-124.2,61.8-38.64,29.19-61.32,76.33-77.54,121.46-8.76,24.39-16.5,49.49-22.98,74.52h19c8.78-32.29,19.69-63.96,32.7-94.76,8.36-19.29,20.28-40.79,34.33-57.71,50.12-60.36,142.41-84.48,209.64-119.36,2.01-1.04,6.6-5.2,7.82-5.21,4.56-.05.62,13.15.46,16.5-1.66,34.9,11.4,73.58,34.32,97.25,32.09,33.15,83.82,48.51,129.26,47.33,73.87-1.92,134.74-40.86,183.01-93.46,4.13-4.5,15.62-20.55,18.91-22.62,8.91-5.6,43.25-10.93,55.18-12.82,49.04-7.8,87.06-11.03,134.88,5.84,24.78,8.74,64.72,25.97,85.41,41.59,2.74,2.07,10.27,7.22,4.99,9.89-19.3,9.75-28.44,16.59-41.88,34.08-30.41,39.57-44.54,85.48-59.3,132.7-2.16,6.92-5.37,13.58-6.74,20.76h23c-.85-6.75,5.02-11.25,4.08-17.95l2.93-.06-1.59-3.05c9.27-26.31,16.82-52.89,30.76-77.26,5.96-10.42,13.77-19.74,20.32-29.69.04,36.75-7.35,74.56-20.02,108.99-2.31,6.28-6.43,12.2-7.48,19.02h117v-170c-4.36-3.12-7.65-9.72-11.43-13.07ZM673.91,465.43c.23-1.91,2.01-1.35,1.97-1.86-.38-6.09-1.74-12.87-.97-19.14.28-2.25,1.08.7,1.08-4.9,0-7.56,1.35-12.94,2-20.04.75-8.24.09-22.44,2.22-29.78.71-2.45,13.02-20.79,15.38-23.62,6.88-8.27,18.71-18.09,30.21-15.87,1.21,2.18,2.44,3.88,3.11,6.38,5.8,21.66.26,72.67-6.19,94.61-4.31,14.66-9.16,24.41-20.79,34.24-1.04.88-1.56,2.91-2.19,3.28-4.66,2.77-13.72,7.24-19.48,8.05-3.35.47-3.9.87-5.25-2.29-1.47-3.44-1.64-24.57-1.09-29.07ZM492.47,60.03c6.79,5.96,11.05,11.7,12.53,20.96l-19.68-15.81-27.61-14.39-20.7-7.78c20.7.81,39.44,2.95,55.46,17.02ZM454.99,85.52l-2.99,2.5c-1.08.89,4.18,1.21,1.99,2.98-1.31,1.06-15.93-8.13-19.01-9.48-9.6-4.2-22.03-8.12-32.37-7.6l-27.61-4.9c27.6-5.65,59.28-4.97,79.99,16.51ZM335,98.01c23.78-2.82,44.93-1.33,66.02,10.47,1.05.59,10.88,5.75,8.97,7.52-11.03-1.58-21.83-4.75-32.79-6.7-9.71-1.73-33.43-3.04-40.55-8.45-1.13-.86-2.05-1.05-1.65-2.84ZM287.87,279.37c3.22-26.21,1.87-59.38,12.13-83.37,7.85-18.37,35.63-36.72,55.52-38.98,31.96-3.63,62.3,10.34,94.86,6.86,25.09-2.68,51.93-10.41,77.06-9.84.61-.04.44-1.89,1.17-2.01,27.81-4.65,75.06,5.88,96.41,24.46,9.54,8.3,17.08,24.18,19.54,36.46,4.6,22.96-14.25,67.56-2.02,86.02,2.14,3.24,9.83,7.63,12.42,11.84,1.13,1.84,6.06,14.87,6.07,16.65-4.79,2.41-10.34,1.34-15.51,1.55-15.41.62-22.68,1.1-36.51-7.01-10.78-6.33-12.33-13.07-25.79-16.71-21.77-5.89-87.17-1.09-105.71,12.71-5.95,4.43-7.58,12.52-11.99,16.01-13.32,10.53-44.8,8.23-57.52-2.5-7.62-6.43-11.93-13.73-22.46-17.54-21.43-7.76-59.37-8.14-81.58-5.53-4.57.54-22.16,15.98-23.95,14.55,3.65-14.25,6.07-28.98,7.87-43.62ZM608.56,389.06c-6.46,35.2-25.66,38.58-58.01,39.99-11.1.48-40.27.06-49.54-5.04-9.8,1.67-15.32-7.09-19.18-14.32-6.2-11.61-11.1-27.6-11.79-41.23-.55-10.87,4.04-18.34,13.94-22.97,6.56-3.07,23.19-6.33,30.52-6.54,15.4-.44,30.99-2.29,47.05-1.97,7.06.14,17.76.97,24.66,2.33,5.04,1,16.09,6.74,19.25,10.75,2.72,3.46,7.48,17.87,2.54,20.96,3.3,1.42,1.15,14.8.56,18.06ZM289.1,349.81c.63-1.23,3.06-1.97,3.05-4.66,5.36.44,10.61-4.15,15.4-5.1,12.3-2.45,38.82-1.81,51.99-1.1,11.78.64,27.04,3.19,36.51,8.49,7.64,4.27,8.69,11.66,8.95,19.55.55,16.81-5.52,50.58-23,57.5-20.88,8.26-73.52,8.09-93-3.5-2.77-1.65-6.45-3.44-7.62-6.97-.3-.89.61-.97.62-1.03.05-.32-.07-.68,0-1-2.32-1.06-2.8-4.26-3-6.5-.76-8.37,6.2-48.06,10.1-55.68ZM271,384c-.48-9.6-2.92-21.57.82-30.68.51-1.24,2.15-4.99,4.18-4.31-3.34,10.69-1.65,22.42-2.99,33.51-.22,1.83.31,1.61-2,1.48ZM304.01,553.01l.98,7.99c-4.27.69-.77-5.85-.98-7.99ZM332.99,578.99l-3.98-9.99c.37,6.18,3.61,14.22,3.99,19.99.28,4.21-1.55,7.04-2.01,10.99-2.45-1.08-2.97-4.69-2.99-6.99-.09-13.85-2.81-26.49-1-40l-1.91-.41,3.41-13.6c2.16,0-1.11,8.77-1.1,9.52.02,1.04,1.31,2.82,1.6,4.49.2,1.21-.14,2.72,0,4v1c3.62-2.95,1.43-10.34,3.01-15,2.02-.26,1.65-.17,2.27,1.28,1.27,2.96-1.07,17.72-1.32,22.19-.24,4.15.26,8.39.03,12.54ZM347.01,626.99c-.68-3.82-3.38-6.63-5.01-9.99-.33-.69-.69-1.24-1-2-1.26-3.04-2.8-5.11-2-9h4c.03-.2,1.17-.9,1-2-.41-.18-.77-.93-1-1-.51-.15-1.37.08-2,0,.45-2.34.75-4.63,1-7,.14-1.31-2.04-7.25,1.99-7.02.44-1.72-1.47-.59-1.92-1.06-.76-.78.93-1.82.93-1.93,1.45-19.15-3.33-37.4-3.07-56.41.02-1.45-1.3-2.96-.92-4.59,1.78.27,1.59,1.79,1.99,3,12.58,9.47,25,19.64,38.09,28.41,17.01,11.4,27.13,18.21,48.42,19.58,38.63,2.49,64.26-6.99,94.98-28,5.11-3.5,9.72-8.04,14.58-11.42,5.23-3.63,18.4-9.82,21.93-13.57,2.65-2.82,2.41-4.12,0-6.99.98,0,2.59.1,3.01-1.01-.42-.18-1.39.15-2.01,0l1.02-1.99c-14.16-1.32-28.38-.3-42.44,2.06-1.73.29-3.17,1.84-4.95,2.13-10.63,1.75-23,3.02-32.37,5.71-8.47,2.44-17.41.52-26.24,1.08-.53-3.03,3.09-2.17,5.03-4.47.45-.53,7.23-13.29,7.98-7.96l-1.01,8.43c4.4.13,1.91-7.67,6.99-6l.5,3,3.01-4.99c1.78,1.3.19,5.85,3.49,4.99-1.03-4.94,2.4-9.34,6.51-11.97,1.4,3.25,4.69,4.66,6.52,6.76,1.77,2.03.22,4.3,2.45,4.21,3.69-2.03-1.11-9.64-2.48-11.98,4.32-1.11,7.39,2.38,9.01,5.98l.53-2.02-1.53-5.97c2.5,1.43,1.43,6.02,5.99,4.99l-5.98-11.5,2.97.51-.99-3.99,5.99,3.99c.93-2.93-3.22-1.23-1.98-4.49.23-.59,1.52-1.79,2.38-1.43,1.85,1.09,8.78,7.18,10.6,5.92,1.04-2.56.39-4.48,0-7-1.09-.95-4.62-1.28-3.99-4.99,1.13-.19,2.18.28,2.99.99-1.34-1.29-1.31-5.4-6.5-5.01l.02,1.99-5.6-4.61c2.37-4.89,2.85-9.17,6.08-13.37-1.9-4.79-.28-12.41-7-14h-1.99c4.13,12.16-6.85,24.24-18.57,25.94-7.38,1.07-15.6-1.04-23.26.74-9.38,2.19-14.94,9.44-23.39,13.41-.77.36-.8,1.73-1.5,1.89-3.46.78-11.15-2.2-14.04-4.28-.74-.53-.89-2.44-1.25-2.7-2.83-2.1-9.31-6.58-12-8-7.4-3.91-9.88-3.6-17.39-5.11-12.89-2.58-16.86-12.03-11.01-23.79,1.48-2.98,5.72-5.74,4.91-9.09-11.53,6.09-16.67,19.44-12.82,31.81.73,2.36,4.44,7.07,4.31,7.67-.64,2.94-5.88.65-7.53.71-1.47.06-2.92.71-4.47.8-8.39,10.45-16.27,20.03-17.99,33.99,1.79.66,3.92-3.08,4.39-4.09,1.85-4.03,5.34-13.34,8.54-16.47,1.8-1.76,3.56-.95,4.79-1.71,1.31-.8,4.46-7.17,7.78-7.72,1.68,1.05-.45,2.19-1.01,2.99-2.88,4.14-5.76,8.27-8.49,12.51l7.97-4.02-5.93,16.07.95,1.93c-1.2-4.42,3.06-4.32,4-5.49,2.51-3.11,3.44-8.31,4.5-10.95,1.25-3.1,7.39-7.69,7.51-12.05,5.88,2.82.52,8.06-1.01,12,.71-.38,2.76.01,4.27-1.01,2.6-1.77,3.76-6.88,7.73-5.98l-1,4.99c1.28-.53,2.57-.56,3.51-1.98l-.51,1.98c-.01,1.16.54.8,1,1,1.48-4.39,9.41-.18,6,3,3.76-.5,3.91,1.06,3,4-1.01,3.24-3.08,2.21-2.99,5l5.98-6,2.12,5.52c.43.64,3.18-2.14,4.38,2.57.79,3.09-1.28,3.75,1.53,6.9l2.97-1.98c.23,7.81,9.26,3.19,11.15,8.85l16.86-1.86c2.94,3.79-5.24,5.55-8.58,5.93-6.68.76-7.43-2.15-11.97-2.86-5.77-.9-13.68-.34-19.84-1.16-13.93-1.86-29.18-5.47-43.11-6.89-4.68-.48-13.14,1.86-14.99-2.01-2.56,4.21-5.13.59-7.09,4.82l-2.36-.81-1.55,3.98-.65-2.87-2.86-.13,1.03-3.47-2-.52c-2.01,4.58-3.73,9.14-5.02,14-.14.54.1,1.36,0,1.99l-3.99-.99c.14,3.43.42,5.42-2.01,8,1.55,2.47,1.56,6.15-1,8,1.42,4.57-.83,3.24-1,4-1.16,5.23-1.36,12.62-.99,18l2.98-11.99c.64,11.28-1.97,22.19,2,32.99l-3.16-5.8-1.81.32.97-5.51-2,3.99-1-4.99-1.98,1.99c-1.57-3.72.76-9.57.5-12.12-.26-2.55-2.69-4.62-2.51-7.87l-4.9-1.11c1.36-4.21-2.05-5.01-2.03-5.33.07-1.27,2.82-6.55,1.93-7.56l-4.99,3.99c-.57-2.32,1.64-3.64,1.95-5.55.35-2.13-.26-4.48.04-6.44.1-.63-.1-1.37,0-2,.22-1.45.96-2.73,1-3,.22-1.64.8-2.83,1-4,.82-4.78-2.5-7.51,1.51-11,.75-.38-.41,1.94,2.49,2l6-14c0-2.9.11-5.47,1-8,.47-1.35-.14-1.78,2.01-2.48l-2.5-2.51c-3.88,3.93-5.3,7.86-7.25,12.77-.76,1.91.68,3.16-2.26,1.22-1.38,7.48-2.98,13.73-5,21-.45,1.61-.75,3.26-1.13,4.89l-2.87.11c-.5,5.88-2.84,11.9-2,18l2.99-4-.49,10.01c-.9-2.18-2.38-4-3.5-6.01-1.85-3.32-1.78-4.31-3-7-2.04-4.5-3.78-6.89-5-12-.58-2.42-1.81-5.04-1-8-2.33.34-2.16-1.52-2.4-3.15-.69-4.77-.52-9.48-1.61-14.19-.18-.78-1.97-.63-2.01-1.24-.1-1.71,2.67-9.44,1.98-10.36l-3.96-1.07-.99,3c-1.3-10.66-4.29-21.15-3.01-31.99-2.13-11.29-1.27-25.63.01-36.99l6.29,5.19c20.45,10.83,67.04,8.66,90.19,5.79,19.91-2.47,33.24-15.49,39.79-34.21,6.34-18.12,4.37-49.37,32.72-40.29,6.33,2.03,7.34,5.55,9.76,11.25,1.97,4.64,2.84,9.68,4.24,14.26,3.1,10.12,5.83,23.55,12.34,31.66,2.54,3.16,19.41,15.44,22.59,15.9,3.07.44,5.36.55,8.4.8,3.09.26,6.98,1.37,9.68,1.63.66.06,1.34-.07,2,0,.33.03.67-.03,1,0,.65.07,1.34-.02,2,0,1.32.04,3.3-.51,4,1,21.79,1.24,53.08-.73,73-7.5,21.01-7.14,25.74-32.15,28-51.5.85-7.29-1.41-21.36,6.02-26.48,1.34-.93,13.42-4.16,15.57-4.43,4.6-.58,9.75.24,14.42-.09-.7,9.39,2.87,18.32,3.98,27.52,3.3,27.24-3.32,53.53-6.12,80.35-3.68-1.62-3.77,9.02-4.79,12.69-.45,1.61-1.74,1.5-1.98,2.25-.66,2.09-1.51,6.47-1.07,8.47.06.29,3.58,3.82,3.86,4.55,2.23,5.82,4.59,19.5,4,25.58-.25,2.58-1.53,5.04-1.9,7.6l-1.98-4.99c-.63,2.28-.52,5.1-1.09,7.26-5.84,22.26-18.98,42.34-33.53,61.63-3.42,4.52-6.85,9.11-10.9,13.1-.77-6.68-2.79-13.84.53-20.21,4.22-8.09,7.65-12.01,6.97-22.78-.06-.99.14-2-.02-2.99h-5.98c.16,7.08.37,14.26.72,21.36-1.82,2.66-3.44,4.81-3.73.15-.41-6.54-1.58-11.67-2-18.52-.7.64-1.34,1.33-2,2s-1.3,1.36-2,2c1.01,2.93,1.24,4-1.5,6l-1.5-2c0,1.98.14,4.04,0,6l2.99-2.99c-.07,2.17-1.38,4.02-1.99,5.99-1.55,4.96-1.83,8.52-2,14.49-.07,2.47-2.68,6.07.99,7.51l5.01-26v21.5c0,4.52-.61,1.52-1,3.16-.86,3.59-.95,4.16-1.92,7.11-.8,2.44-.64,5.16-2.21,7.61-1.33,2.08-3.93,2.19-3.9,4.6h-1.98c2.57-3.82.56-7.64.93-11.47.14-1.42,1.06-1.42,1.07-1.51.5-5.28,1.04-10.67.99-15.99-1.27.21-2.35,4.94-2.44,5.85-.19,1.96.78,4.09.44,6.14l-3.99-.99.51,2.97c-3.82-.98-2.79-6.59-2.43-10.4.28-3,2.71-5.18.91-8.58-1.93-1.6-2.73,10.93-3.07,12.23-2.11,8.12-5.27,19.6-9.44,27.75-.59,1.15-.92,2.77-2.47,3.02,2.58-11.55,4.92-23.07,3.98-34.99-1.81-.04-5.29,15.17-7.98,12v-4s-2.99,1.99-2.99,1.99c.32-4.46-.26-9.98-4-12.99l.98,6.99-1.99-2.26-2.03-.22c3.02,9.05,4.23,19.02,2.87,28.4l-2.86.09c1.43,3.42-.3,6.76-1.49,10.01.21-2.1-2.38-3.37-2.46-3.72-1.25-5.26-.88-12.95-2.11-18.52l-3.92-2.78,1.87-1.09-.89-3.89-3.01,4.98c-1.09.6-2.31-5.05-3.98-2.98-2.22,2.75,2.52,2.97,3,3.69.32.48,1.82,4.25,1.95,4.91.81,4.18-1.83,3.35-1.98,3.9-.37,1.4,3.55,5.75,3.98,9.08.45,3.45-1.09,5.95-1.05,8.91.06,4.25,1.55,7.01.83,11.75-.13.87-.43,3.01-1.73,2.73-4.57-9.51-2.58-20.3-9.51-28.99l-1.98,2.77-2.51-.77,4.98,17.99-5.98-9.99,6,19c4.24.92.73-4.81.98-4.99.2-.15,1.68.3,2.72-.3.67-.39-.3-2.13,1.28-1.7.94,4.8,2.91,9.21-.33,13.66-3.83,5.25-10.29,9.13-14.66,13.34-.19.18-.32,2-1.43,3.02-4.44,4.09-8.87,7.41-13.17,9.84-2.33,1.32-6.12,3.84-8.39,4.64-1.85.66-8.34,1.19-8.85,1.71-.45.46.21,2.19-.74,2.88-2.56,1.85-10.62,1.39-13.9,3.96l-.52-2.04-1.99-.02c-.01,1.01.45,2.46-.64,3.05-2.91,1.56-14.76,3.76-18.37,3.95.12.57-.05,1.35,0,1.99-7.17.61-15.3,1.73-22.44,1.91-1.2.03-2.54-.88-3.56-.9-1.75-.04-3.29.85-4.99,1.01l-1-9,2.16,1.76,1.83-.78,1,3.01c-1.05-5.37-1.45-13.07,2.51-17.01,2.56.06-3.18,12.23-2.49,12.96l2.98,1.05.51-7.01c1.62,0-1.41,7.27,2.5,6-1.44-4.16,2.07-6.47,2-10.99,0-.13-1.02-1-1.05-2.43-.04-1.77,1.14-3.7,1.05-5.57-.3-.23.78-2.43-.98-1.99l-4.01,5.98c0-1.7.94-5.95,2-6.99l-2.36.67-6.15,15.32c-1.82-4.36,2.32-8.02,2.52-12.5.09-1.99-.18-1.58-2-1.49-.96.96-2.7,10.56-3.72,12.76-.89,1.9-7.2,4.69-.27,5.76l-3.01,7.48-.02-4.99-3.57.93-.92-1.93-2.49,2-.02-13-3,1,1,2.99c-5.85-3.24-4.83,4.71-8.99,3.01l.99,4.99c-8.12.46-1.8-11.26.99-14.51l-2.98,1.51v-2.48s3.98-1.53,3.98-1.53l-2.01-2.37,3.01-8.61-4.42,4.09-6.09,20.92c-12.21-4.43-5.63-7.01-4.57-14.6.48-3.41-.22-6.95.16-10.36l2.92-1.05-4.79,1.21-5.2,13.29,2.98-.51c-.34,1.17,1.17,8.19-1.48,6.99-.3-.13-4.87-3.23-5.4-3.64-2.51-1.96-6.26-7.75-9.11-8.78-1.05-.38-2.57.66-2.91.4-.36-.27-.36-2.37-1.09-3.24-2-2.42-6.25-3.48-5.01-7.73-.48-.02-1.6-1.12-2.88-.13-3.03-4.32-.04-8.28-3.12-11.87-.61-.71-3.79-.35-4-4.58,2.76-11.83,3.66-24.26,4.01-36.41,1.69,0,1.9,3.33,2,4.49.54,6.85-.96,13.71,0,20.51.23-.28,5.12-3.43,6-4-2.78-4.36-.6-8.8-1.31-13.73-.43-2.92-1.93-10.31-2.69-13.27-.95-3.72-4.96-6.73-7-10,.06.32-.04.67,0,1,1.03,7.83.41,14.18-1,22h1l.99-1-4,24.99-3.99-11.99c-.31.87-.9,3.24-1.99,2.99ZM388.58,532.08c10.32,1.29,20.76,3.61,31.07,4.77,13.79,1.56,20.69.84,33.87.16,21.33-1.1,42.35-2.03,63.39-5.91.29,2.82,2.85,5.97.8,8.6-.94,1.21-18.03,11.46-20.69,12.82-20.44,10.46-57.78,14.89-80.05,10.01-6.5-1.42-30.67-10.97-34.42-15.58-3.69-4.54-.72-15.07,6.02-14.87ZM374.5,495v-1c.65.33.65.67,0,1ZM571.5,622v-1c.65.33.65.67,0,1ZM546.5,602v-1c.65.33.65.67,0,1ZM497.5,683v-1c.65.33.65.67,0,1ZM417,692.01v.98h-2.99v-.98h2.99ZM644.03,810.53c-60.6,66.79-166.87,108.48-252.05,63-35.22-18.81-58.51-54.4-60.03-94.97-.66-17.72,5.45-28.86,13.2-43.9,1.25-2.43,4.06-3.46,2.86-7.64l3.7,8.78c6.59,29.53,5.59,52.96,23.67,78.84,24.75,35.44,75.76,49.01,117.11,45.36,38.98-3.44,67.67-24.84,101.83-40.17,19.36-8.69,40.04-14.78,59.67-22.82l-9.97,13.52ZM678.53,698.03c-5.6,15.86-33.93,48.23-46.01,61.98-19.46,22.14-37.96,39.42-63.51,55.99-68.39,44.34-161.11,49.68-202.58-32,2.29-20.73-.76-41.36-1.42-62-1.2-1-1.2-2,0-3-.03-1.66,0-3.33,0-5l-2.98-2.02v-1.99s1.99.5,1.99.5v-.98c-.07-.92-1.75-.13-2.02-1.16-.56-2.17-.36-16.96-.03-19.9.57-5.17,1.7-2.85,4.05-1.45,4.67,2.78,9.7,6.64,14,10l10,4.01c.12.59-.18,1.74,0,1.99.97,1.29,27.19,9.11,30.78,9.72,73.6,12.5,119.08-19.23,170.74-65.75,27.08-24.38,39.17-47.72,59.33-76.66.68-.97,1.04-2.14,1.17-3.31l2.97,1.99,2-5.99c-1.4,8.21-1.96,15.08-2.04,23.54-.3,30.26.28,65.35,16.24,91.76,4.5,7.45,10.85,9.8,7.34,19.72Z" fill="#112378"/><path d="M594.99,600.01l1-5c-1.57-1.03-2.88,2.49-3,2.99-.45,1.97.08,2.32,1.99,2.01Z" fill="#112378"/><path d="M563.03,516.43c-.2,3.67.23,7.4-.05,11.05-.36,4.7-2.54,10.3-2.98,14.52-.03.33.03.67,0,1-.35,4.55.17,7.86,2.01,11.99v-6.99s5.97,6.5,5.97,6.5c-.41-6.08-4.99-16.89,1.01-20.51l6.02,34.99,2.99-17.99-.99-5.01,1.98-.99-1.98-.99c3.1.45,1.89-2.69,1.98-5.01l-2.98,2-1.04-5.99-1.82.86c.27-2.46-3.81-4.79-3.95-5.09-.56-1.23.71-3.07.37-4.84-.59-3.04-1.87-5.93-2.57-8.95-.44-1.91.16-4.81-1.01-6.99-1.58-.41-.6,1.22-1.3,1.69-.76.5-2.11.12-2.51.46-.68.57.05,2.26-.17,2.85.73.31,1.17.5,1.03,1.43Z" fill="#112378"/><path d="M382.91,497.2c-.24.51-.63,1.12-.91,1.8.59-.83.8-1.48.91-1.8Z" fill="#112378"/><path d="M383,497s-.05.09-.09.2c.03-.07.07-.14.09-.2Z" fill="#112378"/><path d="M392,495.01v.98s2-.99,2-.99c-.43.18-1.38-.15-2,0Z" fill="#112378"/><path d="M521,486c-.02-.07-.82-.84-1-1,.35.34.66.66,1,1Z" fill="#112378"/><path d="M543.5,509c.17-2.17-.32-6.11-.94-8.1-.7-2.21-1.69-.66-2.56-4.9-2.91-1.97-4.27-2.54-7.03-5.47-3.36-3.58-6.38-11.69-11.98-9.03,3.14,1.36,3.64,3.69,5.01,6.5,8.03,4.85,10.11,15.22,17.5,21Z" fill="#112378"/><path d="M543,497.99l-2.51-3.98c-2.86-.25-.72.87-.49,2,1.56,1.06.39,2.58,3,1.99Z" fill="#112378"/><path d="M529,494.99c-1.94-1.91-2.16-5.26-3-6.99-.25-.15-4.05-1.04-5-2,.23.72-.14,2.08,0,3,2.81,2.44,4.43,5.88,8,5.99Z" fill="#112378"/><path d="M688.63,450.09c-.67,1.35-3.35,9.22-2.62,9.91l3.35.02,1.62-2.01c1.18,6.93,9.47-1.63,11.99-4.53,5.32-6.15,11.26-20.83,11.11-28.96-.13-7.02-6.28-13.54-5.87-17.77.18-1.83,4.47-11,5.74-12.29,7.02-7.12,11.93,8.98,14.05,6.55.77-.88-.66-20.53-1.08-23.41-.91-6.29-7.44-12.27-13.6-8.25-.55.36-.91,1.77-1.95,2.54-1.74,1.29-3.78,1.13-4.87,4.13l-1.49-1.99c.64,3.25-1.99,3.31-3.06,4.74-4.02,5.38-12.72,21.18-13.72,27.99-.54,3.73-.13,7.52-.23,11.26,3.51.79.71-1.87.99-1.99,2.32-.95,7.09,9.77,7.04,12.43-.06,2.95-2.68,15.42-4.05,17.83-.52.91-2.22,1.5-3.36,3.81Z" fill="#112378"/><path d="M409.03,608.29l1.96-.29-.99,3c2.52,1.17,1.68-1.88,2.59-1.98,1.15-.13,5.06.66,6.92.69,1,.02,2.36-.78,2.47-.71.43.3,1.62,7.8,6.01,8l.02-7.4,1.97-.58,5.04,7.98,2.97-2,.12,2.85,4.89,1.16c-.77-1.33-2.95-4.35-2.95-4.64-.01-.67,1.02-1.53.72-2.21-.16-.36-3.46.38-.61-3.51.85-1.15,1.08-2.03,2.84-1.65.52,4.94,2.97,9.21,4.01,13.99.9.16,2.04-.14,3,0v2c1.22-.92,3.88-4.89,4.25-6.28.56-2.06-1.14-4.39.74-5.72l-.5-.98-5.5,1.99c.18,1.04,3.9,2.22,1.99,3.98-3.38,3.12-6.01-8.15-5.05-11.38l3.62-1.4,2.42,2.78,1.18-3.85c1.24-.37,2.56-.18,3.84-.14,6.99.2,6.96,0,14-2,1.85-2.83.84-1.74-1.51-2.07-2.65-.36-7.2-.82-9.49-.93-.66-.03-1.34.04-2,0-2,1.84-6.16.94-9,1-4.82.11-10.36-1-13.5-1h-17c-3.97,0-15.3-1.15-19.5-2l-.21,2.8-2.79,1.2c4.56,2.08,7.22,6.89,12.84,7.23l.2,2.06Z" fill="#112378"/><path d="M580.05,508.45c1.26,3.27.79,7.09,2.94,10.09l-2.08,1.89,2.09,22.57c.2.18-.16,1.82,1,2,1.13-1.62,3.42-2.49,3.62-3.47.12-.61-.63-1.83-.38-2.78,1.31-4.85,2.94-9.37,1.76-14.75l2.99,4.99c.04-7.12.81-15.4-2-22-.96-2.25-6.18-9.29-8.03-11.47-1.67-1.98-3.71-3.64-5.48-5.52l4.49,8.51c.4,1.25-.24,2-1.48,1.48-3.74-1.58-11.04-15.07-18.49-14.5,5.85,8.15,15.22,13.06,19.03,22.96Z" fill="#112378"/><path d="M396.51,658.99c1.47.34,4.34-5.2,4.72-6.3.6-1.74-.66-3.4.23-4.69.46-.67,2.06-.73,2.38-1.21.25-.38.31-8.28-1.35-8.79-.96,2.4-3.54,4.2-4.59,6.41-1.27,2.67.05,6.07-2.9,5.61v.98c4.65-.63-3.12,4.91,1.5,8Z" fill="#112378"/><path d="M395,643.01c-2.59-.66-1.76.92-2.6,1.87-5.07,5.72-4.09,7.45-6.34,13.68-1.86,5.14-4.9,9.43-4.57,15.42l13.51-30.97Z" fill="#112378"/><path d="M430.99,651.49c-3.28,4.35-5.04,7.94-4.98,13.51l3.97-1.05c-1.33-4.67,2.26-10.48,4.02-14.94-2.45-.55-2.17,1.37-3.01,2.48Z" fill="#112378"/><path d="M453.01,645c-.1,3.17.83,10.37,4.99,11-.1-.98.03-2.01,0-3-.02-.66-.02-1.34,0-2l-2-4-2.99-2Z" fill="#112378"/><path d="M500,657h2c-.83-2.05-.73-6.09-1.91-8.42l-3.09-.57,3,11.99c0-.34,1.28-1.74,0-3Z" fill="#112378"/><path d="M408.09,658.6c-.5,1.81,1.24,1.96,1.89,1.39,1.53-1.33,4.98-8.55,4.01-10.99-2.06,1.7-5.26,7.26-5.9,9.6Z" fill="#112378"/><rect x="555.01" y="611.01" width=".98" height="4.99" fill="#112378"/><circle cx="481.02" cy="683.98" r="1.23" fill="#112378"/><rect x="425.01" y="666" width=".98" height="2.99" fill="#112378"/><polygon points="545.01 592 545.01 593.99 547 593.99 545.01 592" fill="#112378"/><rect x="414.01" y="646.01" width=".98" height="1.99" fill="#112378"/><path d="M405.5,642v1c.65-.33.65-.67,0-1Z" fill="#112378"/><path d="M429.5,612v1c.65-.33.65-.67,0-1Z" fill="#112378"/><path d="M317,543c1.23-.47,1.06-1.91,1-3-.14.41-.76.74-1,2-.06.32.04.67,0,1Z" fill="#112378"/><path d="M346.5,493.01c-2.05,1.36-2.96,3.89-4.56,5.45-.57.56-1.76.36-1.95.55-1.14,2.58-2.26,5.91-3.58,8.92-.63,1.44-2.45,1.17.08,3.05,3.09-5.8,6.27-11.56,10.48-16.5l-.48-1.47Z" fill="#112378"/><path d="M352,484c1.08-1.08,3.08-3.35,2.99-4.99-.77-.75-6.91,3.05-7.99,3.99-3.21,2.79-2.09,6.1-6.51,7.98l-1.47-2.97c-2.6,4.36-6.75,7.74-9.4,12.11-4.61,7.58-4.52,13.65-6.87,21.13-2.73,8.67-5.35,8.39-4.74,18.76.47-1.33,2.2-2.98,2-5,.02-.33-.02-.67,0-1,.11-2.25,1.69-4.66,2.08-6.93l2.91-.07v3c1.01-.45,1.81-.98,3-1l2.74-8.77c.68-1.93-.1-4.48.26-6.23-2.1,3.66-4.3,7.69-6.99,11-1-4.85,3.74-8.83,4.75-11.74,2.73-7.81,1.63-10.4,7.3-18.47.42-.6,2.14-2.57,2.93-2.78-2.8,7.68-6.33,13.79-7.99,21.99,2.78-4.85,5.09-11.19,9-15,3.68-8.32,6.23-9.24,12-15Z" fill="#112378"/><path d="M361,480c-.89.15-7.75,4.6-8,5-.14.22-2.03,3.72-2.29,4.25-2.61,5.34-5.9,15.48-7.62,21.36-.54,1.86.5,1.48,1.89,1.39,2.82-7.04,6.37-14.62,10.6-20.91,2.55-3.78,5.76-6.05,7.92-9.09,1.25-1.76-2.02-.72-2.5-2Z" fill="#112378"/><path d="M352.02,593.42c.11-4.55-.21-9.17-.02-14.42.14-3.71-1.71-7.57-3-11-1.57,2.39.85,5.45.89,8.39.03,2.46-.7,7.44-2.89,8.61-.13,3.31.18,6.69,0,10-.02.33.02.67,0,1-.02.33.03.67,0,1-.3,3.7-1.12,10.53-2,14,.38,1.8,1.86,5.59,2,7-.43-6.86,1.95-13.26,3-20,.68-4.35,2.01-4.29,2.02-4.58Z" fill="#112378"/><path d="M514,353c-3.28.94-17.13,7.02-19.54,8.96-3.2,2.58-2.23,7.46-3.46,10.04,4.37,3.56,8.7-.89,13-3,6.25-3.07,12.52-7.2,19.87-6.88.53,1.71,1.31,3.29,2.13,4.88,2.97,5.81,5.16,9.68,12.46,10.03,7.9.38,11.98-1.98,15.54-9.03.53-1.04.47-2.78,1.08-3.92l1.38-.13c4.14,1.49,9.87.84,13.8,2.11.6.19,5.37,2.12,4.9,2.71,3.11-1.74,2.9,1.26,5.84,2.23,2.32-2.81,5.9,4.06,6.99-1.48-4.77-4.48-8.75-8.41-14.61-11.4-16.81-8.56-41.31-10.26-59.38-5.12Z" fill="#112378"/><path d="M316,372c4.29-4.91,19.88-10.51,26-8,4.35,1.78,2.84,3.71,5.16,7.34,6.35,9.94,27.6,9.28,30.84-2.34.36-1.28-.26-3.51,0-5,.66-.71,11.27,3.42,12.99,4,2.84.94,5.71,1.78,8.43,3.07.93-.02.46-1.98.57-2.07-1.61-2.19-2.73-5.16-4.77-7.01-.58-.53-12.48-7.76-13.23-7.99-2.31-.69-10.74-1.76-13.52-1.98-15.6-1.25-37.99.36-51.79,8.17-6.14,3.48-14.33,10.39-14.68,17.81,1.62,1.62,11.49-5.36,13.99-5.99Z" fill="#112378"/><path d="M611,502l-1,1c.03,2-.01,4,0,6,.91,3.76,2.5,6.03,5,9-1-3.81-1.22-7.57-2-11-.84-1.53-.62-1.78-1-3-.1-.36-.71-1.34-1-2Z" fill="#112378"/><path d="M611,502c1.41-.05.79,1.32,1,2,.25.88.67,1.55,1,3,.78,1.42,1.02,2.48,2.99,1.99l.02-7.99,4.06,1.61c.03,2.91-.33,5.86.06,8.77.46,3.39,2.87,8.06,2.93,10.08.1,3.66-1.24,8.75-1.06,13.55.15,3.85-.52.87-.99,2.67-.81,3.09.21,10.4,0,14.33-.06.99.05,2,0,3-.06,1.6.62,4.15-1,5-.03.65-.04,1.35,0,2l4-1c5.57-9.55,7.8-24.11,8-35-1.54,4.96-2.82,5.08-4,7-.56.91,1.33,3.84-1.99,3-1.02-3.86-2.97-8.24-2-12.34.51-2.17,1.51-2,.99-7.66-.02-.19-.93-1.12-1.04-2.42-.23-2.81.21-5.75.05-8.57l1.98,2.99c.56-4.09.56-7.14-.99-11-5.13-1.57-3.09-3.08-4-6-.1-.31.1-.71,0-1l-1-1c-.91-2.34-1.6-4.68-4-6,.87,2.58,1.04,4.95,3.04,7.53l-2.08,1.98,2.03,5.49-5.98-1.01c-.11-2.43,4.68.67,3.97-2.46-.15-.66-1.19-1.51-.99-2.52l-1,2.99c-.87,1.17-3.63-5.76-2.99-7l-1.5-.97c-3.46,1.2-.57,10.43-.5,12.97,1.02.36.73,1.38,1,2ZM625.87,536.89l1.38.22-1.26,7.88-1.38-.22,1.26-7.88Z" fill="#112378"/><path d="M532,481c-.52,2.44,2.39,2.54,2.84,3.22.37.58-.65,1.91-.28,2.8.33.79,7.17,9.53,7.44,4.49l-6.99-10.51c-.99-.05-2.03.12-3,0Z" fill="#112378"/><path d="M610,516c.02,1,0,2,0,3l2.01-2.49-2.01-.51Z" fill="#112378"/><path d="M637.01,505.5c-3.91.8-.81,3.86-.92,7-.17,4.67-2.74,15.17-2.12,18.96.28,1.71,1.14,2.84,3.02,2.54,5.52-12.38,2.53-26.77,2-39.99l-1.99,8.49-2-.5.76,2.96,1.25.55Z" fill="#112378"/><path d="M643.01,515.99l.99-3.99,3.99,2-1-28.99c-3.84-.79-1.31,5.8-2,7.99l-1.98-6.99c.36,3.74.37,4.9-2.09,7.43l2.09,22.56Z" fill="#112378"/><path d="M629,496.99c.75.86-1.48,17.51-2,20.01-.16.77-1.34,1.77-.99,2.99.66,0,1.33.05,1.99,0,.13,0,.27-.98.49-.98l.51.98c-.01,1.33.02,2.67,0,4,.42-.16.8-.94,1-1,.89-10.74,1.27-21.27,0-31.99-3.15-.72-2.14,4.38-3.99,5.99.81.21,2.06-.16,3,0Z" fill="#112378"/><path d="M617.01,552.01c-.16.64.11,1.43-.01,1.99-1.33,5.96-1.62,12.27-3.28,18.22-.61,2.18-5.03,7.48-.74,6.77,3.33-8.64,6.93-17.51,6.02-27-.65.06-1.33-.1-1.99.01Z" fill="#112378"/><path d="M632,524c.47-2.02,1.72-3.59,1.99-6.52.45-4.99-.29-10.43,0-15.48-1.31.48-1.76,5.34-1.87,6.62-.39,4.7.87,10.12-1.12,14.37.14.01.6.84,1,1Z" fill="#112378"/><path d="M644.5,483v1c.65-.33.65-.67,0-1Z" fill="#112378"/><path d="M580.01,543c.75.26.87-1.01.99-1-.44-4.27.61-9.44.05-13.55-.62-4.54-4.74-9.73-3.06-15.45l-1.48,1.99-5.5-3.99c-.68.73,3.33,14.73,4,16.99.87,2.96,2.19,5.72,2.07,8.95l2.47-.05.48,6.09Z" fill="#112378"/><path d="M570.57,499.92c-1.37-.96-2.93-.56-3.78-1.02-.94-.51-.95-1.5-1.05-1.55-.78-.4-2.5-.91-2.73.15l11.98,12.5c1.02-2.73-2.41-8.66-4.42-10.07Z" fill="#112378"/><path d="M550.01,500.01c1.3,3.8,4.74,7.75,7.98,9.99.85-2.28-6.72-11.25-7.98-9.99Z" fill="#112378"/><path d="M524.41,496.56c-.4-.43-.54-.97-.43-1.55h-.97s1.01,3.99,1.01,3.99h1.98s-.02-1.97-.02-1.97c-.54-.01-1.2-.05-1.57-.46Z" fill="#112378"/><rect x="540.01" y="486.01" width=".98" height="1.99" fill="#112378"/><rect x="546.37" y="492.93" width="1.23" height="7.63" transform="translate(-181.48 373.07) rotate(-32.61)" fill="#112378"/><path d="M526.49,500.02c-.99.7.54,1.37,1.02,1.96.99-.66-.47-1.32-1.02-1.96Z" fill="#112378"/><path d="M511.5,497v1c.65-.33.65-.67,0-1Z" fill="#112378"/><path d="M403.99,511c-2.6.99-3.33,3.36-2.98,6,.68.94,3.53-4.81,2.98-6Z" fill="#112378"/><polygon points="416.5 516 415 517.99 416.99 517.99 416.5 516" fill="#112378"/><rect x="342.01" y="513.01" width=".98" height="1.99" fill="#112378"/><path d="M411.5,509v1c.65-.33.65-.67,0-1Z" fill="#112378"/><path d="M404.5,509v1c.65-.33.65-.67,0-1Z" fill="#112378"/><path d="M364.5,501v1c.65-.33.65-.67,0-1Z" fill="#112378"/><path d="M611,521c.3,7.33.66,14.67,1,22,.1,2.06-1.18,5.83,1.99,4.99.13-9.59.51-18.69-2.01-27.99l-.99,1Z" fill="#112378"/><path d="M328.5,567v1c.65-.33.65-.67,0-1Z" fill="#112378"/><path d="M687,659c-1.3-.52-13.49-2.21-10,.99,4.52,1.46,8.05,2.74,13,2-.22-.91-2.34-2.73-3-2.99Z" fill="#112378"/><path d="M458,597c-2.67-.15-7.13-.68-9,1,2.84-.06,7,.84,9-1Z" fill="#cfd3e4"/><path d="M616,483c-.41-1.21-1.52-2.23-1.01-4-3.65,1.37-.65,6.31-2.99,9-.64,1.24,2.12,8.17,2.99,7l1-2.99c-.2,1.01.84,1.86.99,2.52.71,3.13-4.08.03-3.97,2.46l5.98,1.01-2.03-5.49,2.08-1.98c-2-2.57-2.17-4.95-3.04-7.53Z" fill="#cfd3e4"/><path d="M651,105c6.09-8.27,13.22-15.15,16-25.48-2.06-3.14-3.56-.81-5-.52l-1.26,8.81-11.73,15.7c-.49,2.44,1.09,1.1,1.99,1.49Z" fill="#cfd3e4"/><path d="M728.9,356.6c-.67-2.5-1.9-4.2-3.11-6.38-11.5-2.22-23.33,7.59-30.21,15.87-2.36,2.84-14.67,21.17-15.38,23.62-2.13,7.35-1.46,21.54-2.22,29.78-.65,7.1-2,12.49-2,20.04,0,5.59-.8,2.64-1.08,4.9-.77,6.27.59,13.04.97,19.14.03.51-1.74-.04-1.97,1.86-.55,4.5-.38,25.63,1.09,29.07,1.35,3.16,1.9,2.76,5.25,2.29,5.76-.81,14.82-5.29,19.48-8.05.63-.37,1.15-2.4,2.19-3.28,11.62-9.83,16.48-19.58,20.79-34.24,6.45-21.95,12-72.96,6.19-94.61ZM727.99,400.99c-2.12,2.43-7.03-13.67-14.05-6.55-1.27,1.29-5.56,10.46-5.74,12.29-.41,4.23,5.74,10.75,5.87,17.77.15,8.14-5.78,22.81-11.11,28.96-2.52,2.91-10.81,11.47-11.99,4.53l-1.62,2.01-3.35-.02c-.73-.69,1.95-8.55,2.62-9.91,1.14-2.31,2.84-2.9,3.36-3.81,1.36-2.41,3.99-14.88,4.05-17.83.05-2.67-4.72-13.38-7.04-12.43-.27.11,2.52,2.78-.99,1.99.11-3.74-.31-7.52.23-11.26.99-6.81,9.7-22.61,13.72-27.99,1.07-1.43,3.7-1.5,3.06-4.74l1.49,1.99c1.09-3,3.13-2.84,4.87-4.13,1.03-.76,1.4-2.18,1.95-2.54,6.16-4.01,12.68,1.97,13.6,8.25.42,2.87,1.85,22.53,1.08,23.41Z" fill="#cfd3e4"/><path d="M336.66,100.84c7.12,5.42,30.84,6.72,40.55,8.45,10.96,1.95,21.75,5.12,32.79,6.7,1.91-1.76-7.92-6.93-8.97-7.52-21.09-11.8-42.24-13.29-66.02-10.47-.39,1.78.52,1.98,1.65,2.84Z" fill="#cfd3e4"/><path d="M434.99,81.51c3.08,1.35,17.7,10.54,19.01,9.48,2.19-1.77-3.07-2.09-1.99-2.98l2.99-2.5c-20.7-21.48-52.39-22.16-79.99-16.51l27.61,4.9c10.35-.52,22.77,3.4,32.37,7.6Z" fill="#cfd3e4"/><path d="M485.31,65.19l19.68,15.81c-1.47-9.26-5.74-15-12.53-20.96-16.02-14.07-34.76-16.21-55.46-17.02l20.7,7.78,27.61,14.39Z" fill="#cfd3e4"/><path d="M654.95,586.55c.08-8.46.64-15.34,2.04-23.54l-2,5.99-2.97-1.99c-.13,1.17-.49,2.33-1.17,3.31-20.16,28.94-32.25,52.28-59.33,76.66-51.65,46.52-97.14,78.25-170.74,65.75-3.58-.61-29.81-8.43-30.78-9.72-.18-.24.12-1.39,0-1.99l-10-4.01c5.93,4.62,8.95,8.09,14,14,.31.36.7.65,1,1,17.4,20.26,37.35,44.71,65,51,2.07.47,6.41.66,9,1,8.09,1.06,13.88,1.85,22.49.99,8.35-.84,17.58-3.28,25.51-5.99,2.42.59,4.92-.87,7-1,16.47-.99,22.59-1.1,34,12,2.68,3.07,4.96,6.49,7,10,4.4,11.45,4,22,4,34v2c25.55-16.57,44.05-33.84,63.51-55.99,12.09-13.75,40.41-46.12,46.01-61.98,3.51-9.92-2.84-12.28-7.34-19.72-15.96-26.41-16.54-61.5-16.24-91.76Z" fill="#cfd3e4"/><path d="M383.11,677.35c.53.41,5.1,3.51,5.4,3.64,2.65,1.2,1.14-5.82,1.48-6.99l-2.98.51,5.2-13.29,4.79-1.21-2.92,1.05c-.38,3.41.32,6.95-.16,10.36-1.06,7.59-7.64,10.17,4.57,14.6l6.09-20.92,4.42-4.09-3.01,8.61,2.01,2.37-3.98,1.53v2.48s2.97-1.51,2.97-1.51c-2.79,3.25-9.11,14.97-.99,14.51l-.99-4.99c4.16,1.7,3.14-6.25,8.99-3.01l-1-2.99,3-1,.02,13,2.49-2,.92,1.93,3.57-.93.02,4.99,3.01-7.48c-6.92-1.06-.61-3.86.27-5.76,1.02-2.19,2.77-11.79,3.72-12.76,1.82-.08,2.09-.49,2,1.49-.2,4.48-4.34,8.14-2.52,12.5l6.15-15.32,2.36-.67c-1.06,1.05-1.99,5.3-2,6.99l4.01-5.98c1.77-.45.68,1.76.98,1.99.08,1.87-1.09,3.8-1.05,5.57.03,1.43,1.05,2.29,1.05,2.43.07,4.52-3.44,6.83-2,10.99-3.91,1.27-.88-6-2.5-6l-.51,7.01-2.98-1.05c-.69-.73,5.05-12.9,2.49-12.96-3.96,3.93-3.56,11.63-2.51,17.01l-1-3.01-1.83.78-2.16-1.76,1,9c1.7-.15,3.24-1.05,4.99-1.01,1.02.03,2.36.93,3.56.9,7.15-.18,15.28-1.3,22.44-1.91-.06-.65.12-1.42,0-1.99,3.6-.19,15.46-2.39,18.37-3.95,1.09-.59.63-2.04.64-3.05l1.99.02.52,2.04c3.27-2.58,11.33-2.11,13.9-3.96.95-.69.29-2.42.74-2.88.51-.52,7-1.05,8.85-1.71,2.27-.81,6.06-3.32,8.39-4.64,4.3-2.43,8.73-5.75,13.17-9.84,1.11-1.02,1.25-2.84,1.43-3.02,4.36-4.21,10.82-8.09,14.66-13.34,3.24-4.45,1.27-8.86.33-13.66-1.58-.43-.61,1.31-1.28,1.7-1.04.61-2.51.16-2.72.3-.25.18,3.25,5.91-.98,4.99l-6-19,5.98,9.99-4.98-17.99,2.51.77,1.98-2.77c6.94,8.69,4.94,19.48,9.51,28.99,1.3.28,1.6-1.86,1.73-2.73.72-4.75-.77-7.5-.83-11.75-.04-2.96,1.5-5.46,1.05-8.91-.43-3.33-4.35-7.68-3.98-9.08.15-.56,2.78.27,1.98-3.9-.13-.66-1.63-4.43-1.95-4.91-.49-.73-5.22-.94-3-3.69,1.66-2.06,2.88,3.59,3.98,2.98l3.01-4.98.89,3.89-1.87,1.09,3.92,2.78c1.23,5.57.86,13.26,2.11,18.52.08.35,2.67,1.62,2.46,3.72,1.19-3.24,2.92-6.59,1.49-10.01l2.86-.09c1.36-9.39.14-19.35-2.87-28.4l2.03.22,1.99,2.26-.98-6.99c3.74,3.01,4.32,8.53,4,12.99l2.98-1.99v4c2.71,3.17,6.19-12.04,7.99-12,.94,11.93-1.39,23.44-3.98,34.99,1.55-.25,1.88-1.87,2.47-3.02,4.17-8.15,7.33-19.62,9.44-27.75.34-1.3,1.14-13.83,3.07-12.23,1.8,3.41-.63,5.58-.91,8.58-.36,3.81-1.38,9.42,2.43,10.4l-.51-2.97,3.99.99c.34-2.06-.63-4.18-.44-6.14.09-.91,1.17-5.65,2.44-5.85.05,5.32-.49,10.71-.99,15.99.12-.5,1.43-4.02,3-2.99l-1,5c-1.92.32-2.45-.04-1.99-2.01,0,.09-.94.09-1.07,1.51-.37,3.84,1.65,7.65-.93,11.48h1.98c-.03-2.42,2.56-2.53,3.9-4.61,1.57-2.45,1.41-5.17,2.21-7.61.97-2.95,1.06-3.52,1.92-7.11.39-1.64,1,1.36,1-3.16v-21.5l-5.01,26c-3.68-1.44-1.06-5.04-.99-7.51.17-5.96.46-9.53,2-14.49.62-1.98,1.92-3.83,1.99-5.99l-2.99,2.99c.14-1.96,0-4.02,0-6l1.5,2c2.74-2,2.51-3.06,1.5-6,.7-.64,1.34-1.33,2-2s1.3-1.36,2-2c.42,6.85,1.58,11.98,2,18.52.29,4.66,1.91,2.51,3.73-.15-.36-7.09-.57-14.28-.72-21.37h5.98c.17,1-.04,2.01.02,3,.68,10.78-2.75,14.69-6.97,22.78-3.32,6.37-1.31,13.53-.53,20.21,4.05-4,7.48-8.58,10.9-13.1,14.56-19.28,27.7-39.36,33.53-61.63.56-2.16.46-4.98,1.09-7.26l1.98,4.99c.37-2.56,1.65-5.02,1.9-7.6.59-6.08-1.77-19.76-4-25.58-.28-.73-3.8-4.26-3.86-4.55-.44-2,.41-6.38,1.07-8.47.24-.75,1.53-.64,1.98-2.25,1.02-3.66,1.11-14.31,4.79-12.69,2.8-26.83,9.42-53.11,6.12-80.35-1.11-9.2-4.68-18.13-3.98-27.52-4.67.33-9.83-.49-14.42.09-2.15.27-14.22,3.5-15.57,4.43-7.42,5.13-5.16,19.2-6.02,26.48.9-.07,1.43.71,2,1,1.25,4.13,4.47,7.54,5.95,11.55,6.66,18,2.76,50.45-.95,69.45-1.22,6.24-4.56,13.5-5.44,20.46-.36,2.83,2.5,6.89-3.56,6.54.91,2.92-1.13,4.43,4,6,1.55,3.86,1.55,6.91.99,11l-1.98-2.99c.16,2.82-.28,5.76-.05,8.57.11,1.3,1.02,2.23,1.04,2.42.52,5.66-.47,5.49-.99,7.66-.97,4.1.98,8.48,2,12.34,3.31.84,1.43-2.09,1.99-3,1.18-1.92,2.46-2.04,4-7-.2,10.89-2.43,25.45-8,35l-4,1c-.04-.65-.03-1.35,0-2,1.62-.85.94-3.4,1-5,.05-1-.06-2.01,0-3,.22-3.93-.8-11.24,0-14.33.47-1.8,1.14,1.18.99-2.67-.18-4.8,1.16-9.89,1.06-13.55-.06-2.02-2.47-6.68-2.93-10.08-.39-2.91-.04-5.85-.06-8.77l-4.06-1.61-.02,7.99c-1.97.48-2.21-.57-2.99-1.99.78,3.43,1,7.19,2,11,.11.43.28.85.46,1.29-.18-.44-.35-.87-.46-1.29-2.5-2.97-4.09-5.24-5-9,.01,2.04-.04,4.73,0,7l2.01.51-2.01,2.49c0,.67-.01,1.33,0,2,.01.87-1.01,1.85-1,2v-2s-3,0-3,0v3c-2.96.58-2.5-4.62-4.55-2.04-1.82,2.29-1.66,5.64-4.34,7.77l.89,4.26c-3.22-.41-3.88,1.86-5.52,4.01-2.01-2.52-.51-5.83-.5-9l-2.99-4.99c1.18,5.38-.45,9.89-1.76,14.75-.26.95.5,2.16.38,2.78-.2.98-2.49,1.85-3.62,3.47-1.16-.18-.8-1.82-1-2l-2.09-22.57,2.08-1.89c-2.15-3.01-1.68-6.82-2.94-10.09-3.81-9.9-13.18-14.81-19.03-22.96,7.46-.56,14.76,12.92,18.49,14.5,1.23.52,1.88-.23,1.48-1.48l-4.49-8.51c1.77,1.89,3.8,3.55,5.48,5.52,1.85,2.18,7.07,9.22,8.03,11.47,1.74-.61.18-3.17-.24-4.26-.81-2.1-2.7-7.12-3.76-8.74-3.45-5.28-9.88-7.1-14.26-11.3-12.17-5.73-26.02-17.91-38.02-22.92-1.59-.67-2.97-1.01-4.72-.78.02,4.54,4.52,7.61,7.99,9.99.3.36.69.65,1,1,2.13,2.44,3.97,3.9,6,6,1.37,1.42,2.77,3.41,4,4.99-4.35-1.28-8.3.25-13,0l6.99,10.51c-.27,5.04-7.11-3.7-7.44-4.49-.37-.89.66-2.21.28-2.8-.44-.69-3.35-.79-2.84-3.22-.67-.08-2.99-1.41-4.76-1.73-3.63-.65-7.57-.96-11.25-1.27,1.06-5.34,1.14-9.65,0-14.99-1.73-.44-1.39.2-1.99.99-3.23,4.2-3.71,8.49-6.08,13.37l5.6,4.61-.02-1.99c5.19-.4,5.15,3.72,6.5,5.01-.82-.71-1.86-1.19-2.99-.99-.62,3.72,2.91,4.05,3.99,4.99-.14-.92.23-2.28,0-3,.95.96,4.75,1.85,5,2-1.37-2.81-1.87-5.14-5.01-6.5,5.6-2.66,8.62,5.45,11.98,9.03,2.76,2.93,4.12,3.51,7.03,5.47-.23-1.12-2.37-2.25.49-2l2.51,3.98c-2.61.59-1.44-.93-3-1.99.87,4.24,1.87,2.69,2.56,4.9.63,1.98,1.11,5.93.94,8.1-7.4-5.77-9.48-16.14-17.5-21,.84,1.73,1.06,5.08,3,6.99-3.57-.11-5.19-3.55-8-5.99.38,2.52,1.04,4.44,0,7-1.82,1.26-8.75-4.83-10.6-5.92-.86-.35-2.16.84-2.38,1.43-1.24,3.26,2.91,1.56,1.98,4.49l-5.99-3.99.99,3.99-2.97-.51,5.98,11.5c-4.56,1.03-3.49-3.56-5.99-4.99l1.53,5.97-.53,2.02c-1.62-3.61-4.69-7.1-9.01-5.98,1.37,2.34,6.17,9.95,2.48,11.98-2.23.09-.68-2.18-2.45-4.21-1.83-2.09-5.13-3.51-6.52-6.76-4.11,2.63-7.54,7.03-6.51,11.97-3.3.86-1.71-3.69-3.49-4.99l-3.01,4.99-.5-3c-5.08-1.67-2.59,6.13-6.99,6l1.01-8.43c-.76-5.33-7.54,7.43-7.98,7.96-1.93,2.3-5.56,1.44-5.03,4.47,8.83-.56,17.77,1.36,26.24-1.08,9.37-2.7,21.74-3.97,32.37-5.71,1.78-.29,3.23-1.84,4.95-2.13,14.06-2.36,28.28-3.38,42.44-2.06l-1.02,1.99c.62.16,1.58-.17,2.01,0,.22-.59-.5-2.27.17-2.85.4-.34,1.76.04,2.51-.46.7-.47-.28-2.1,1.3-1.69,1.18,2.18.57,5.09,1.01,6.99.7,3.02,1.98,5.91,2.57,8.95.34,1.76-.94,3.61-.37,4.84.14.3,4.22,2.62,3.95,5.09l1.82-.86,1.04,5.99,2.98-2c-.09,2.32,1.12,5.46-1.98,5.01l1.98.99-1.98.99.99,5.01-2.99,17.99-6.02-34.99c-6,3.61-1.42,14.43-1.01,20.51l-5.97-6.5v6.99c-1.83-4.13-2.35-7.45-2-11.99.03-.33-.03-.67,0-1,.44-4.22,2.62-9.81,2.98-14.52.28-3.66-.16-7.39.05-11.05.14-.93-.3-1.12-1.03-1.43-.42,1.11-2.03,1.01-3.01,1.01,2.42,2.87,2.66,4.17,0,6.99,1.79,2.94,1.06,8.27,1,12-1.9,1.11-.68,4.23-1,6-.06.32.07.68,0,1-2.04,9.35-7.64,21.26-10.94,30.57-.61,1.74-.89,3.6-1.06,5.43-.74-.43-2.71-2.26-2.99-2l-2,4c.49-7.97-3.47-3.04-5.43.12-2.82,4.55-5.48,9.31-8.57,13.64-1.19,1.66-.71,3.77-4,4.25l-2.01-3.01-.51,3.01-2.48-2c-.19,4.34,1.65,7.11-1.02,10.99l-3.98-7.99-.49,14.02-2.5-1.01c-1.36,4.94-3.98,3.39-8.02,4l1,3.99-2.98-.7-.98-4.73-2.03-.57c.73,3.83-4.28,3.39-3.01,8l-3.99-1,1.99,3.98-2.8.79-.2-1.76h-1.97c.53,2.06-3.23,2.26-5.01,2.97l-.09-4.43c-.16-.42-.58-.42-.92-.56.57-2.48,1.94-4.71,3-7,2.78-.46,4.82-5.33,7-8,4.71-5.77,8.82-10.7,14-16,1.73-1.77,4.47-4.06,2.53-7.03-1.86-2.86-3.46,1.83-5.53,2.03-.32.08-.7-.09-1,0-2.96.88-7.51,3.03-10,5-1.56.36-3.23.59-5,1-8.93,2.08-17.91,3.71-27,5,2.29.11,6.84.57,9.49.93,2.35.32,3.36-.76,1.51,2.07-7.04,2.01-7.01,2.2-14,2-1.27-.04-2.59-.23-3.84.14l-1.18,3.85-2.42-2.78-3.62,1.4c-.96,3.23,1.68,14.5,5.05,11.38,1.91-1.76-1.81-2.94-1.99-3.98l5.5-1.99.5.98c-1.89,1.33-.19,3.66-.74,5.72-.38,1.39-3.03,5.36-4.26,6.28v-2c-.96-.14-2.1.16-3,0-1.04-4.79-3.49-9.05-4.01-13.99-1.75-.38-1.99.5-2.84,1.65-2.86,3.88.45,3.15.61,3.51.3.67-.73,1.53-.72,2.21,0,.29,2.19,3.3,2.95,4.64l-4.89-1.16-.12-2.85-2.97,2-5.04-7.98-1.97.58-.02,7.4c-4.39-.2-5.58-7.7-6.01-8-.1-.07-1.47.73-2.47.71-1.86-.04-5.77-.82-6.92-.69-.91.1-.08,3.14-2.59,1.98l.99-3-1.96.29-.2-2.06c-5.62-.34-8.28-5.15-12.84-7.23l2.79-1.2.21-2.8c-1.17-.24-7.58-2.42-9-3-.69-.28-3.7-1.72-4.25-2.04-1.21-.71-.2-2.29-1.74-1.95,2.51,11.67,12.8,21.28,19.5,30.99l-2.12,3.92c-1.23-.82-12.83-5.49-13.19-6.12-.59-1.05-.13-2.59-.22-3.79l-1.48,2.99c-3.68-1.05-5.94-7.56-10.38-6.14l-1.14-6.85-1,3.99c-4.76-.94-8.81-6.18-8-11l-2.99,3c.76,2.96,2.26,10.34,2.69,13.27.72,4.93-1.46,9.37,1.31,13.73-.88.57-5.77,3.72-6,4-.95-6.79.55-13.66,0-20.51-.09-1.16-.31-4.48-2-4.49-.35,12.16-1.24,24.58-4.01,36.41.21,4.24,3.39,3.88,4,4.58,3.09,3.59.09,7.54,3.12,11.87,1.28-.98,2.4.11,2.88.13-1.24,4.24,3.01,5.31,5.01,7.73.72.87.72,2.97,1.09,3.24.34.26,1.86-.77,2.91-.4,2.85,1.03,6.6,6.82,9.11,8.78ZM644.5,483c.65.33.65.67,0,1v-1ZM643.01,486l1.98,6.99c.7-2.19-1.84-8.78,2-7.99l1,28.99-3.99-2-.99,3.99-2.09-22.56c2.45-2.53,2.45-3.68,2.09-7.43ZM638.99,494c.53,13.22,3.52,27.61-2,39.99-1.88.31-2.74-.83-3.02-2.54-.62-3.79,1.95-14.29,2.12-18.96.12-3.14-2.99-6.19.92-7l-1.25-.55-.76-2.96,2,.5,1.99-8.49ZM633.27,397.23c-.4-1.3-.81-2.68-1.27-4.07.47,1.38.87,2.77,1.27,4.07,1.09,3.56,1.87,7.29,2.4,11.14.35,2.56.58,5.18.72,7.82.4,7.94-.09,16.14-1.11,24.11,1.01-7.96,1.51-16.17,1.11-24.11-.13-2.65-.37-5.26-.72-7.82-.52-3.85-1.31-7.58-2.4-11.14ZM633.43,452c-.47,2.53-.99,5-1.52,7.4l2.07,1.58-2.07-1.58c.53-2.4,1.04-4.87,1.52-7.4ZM631.75,463.48c-.1.18-.24.34-.44.44.19-.11.33-.26.44-.44ZM628.44,527.64c-.1-.46-.19-.9-.24-1.33.05.43.15.88.24,1.33ZM628.19,525.15c-.03.1-.04.2-.04.31,0,.14,0,.28,0,.42,0-.14-.01-.28,0-.42,0-.11.02-.21.04-.31ZM628.76,530.98c.09-.66.05-1.31-.05-1.94-.05-.32-.11-.63-.17-.94.06.31.12.62.17.94.1.63.14,1.28.05,1.94ZM629,524c.02-1.33-.01-2.67,0-4l-.51-.98c-.23,0-.36.97-.49.98-.66.05-1.34-.01-1.99,0-.34-1.22.83-2.22.99-2.99.52-2.49,2.75-19.14,2-20.01-.94-.16-2.19.21-3,0,1.85-1.62.84-6.72,3.99-5.99,1.27,10.73.89,21.26,0,31.99-.2.06-.58.84-1,1ZM631,523c-.14-.01-.33-.03-.51-.04.18,0,.37.02.51.04,2-4.25.74-9.67,1.12-14.37.11-1.29.56-6.14,1.87-6.62-.29,5.04.45,10.49,0,15.48-.27,2.93-1.51,4.5-1.99,6.52-.4-.16-.86-.99-1-1ZM631.96,524.49c.01.35.08.73.09,1.06,0-.33-.07-.71-.09-1.06ZM612.98,579c-4.3.71.13-4.59.74-6.77,1.66-5.96,1.95-12.26,3.28-18.22.12-.56-.15-1.35.01-1.99.65-.11,1.33.04,1.99-.01.92,9.48-2.69,18.36-6.02,27ZM622.75,563.33c.12-.16.22-.31.32-.47.19-.32.33-.65.5-1.01-.17.36-.31.69-.5,1.01-.09.16-.2.32-.32.47-.24.31-.55.62-1,.94.45-.32.76-.62,1-.94ZM620.49,565h0c.34-.17.64-.33.89-.49-.26.16-.55.32-.89.49ZM611.99,520c2.51,9.31,2.14,18.4,2.01,27.99-3.17.83-1.9-2.93-1.99-4.99-.34-7.33-.7-14.67-1-22l.99-1ZM610.67,538.3c-.36-1.66-.65-3.39-.87-5.13.23,1.74.51,3.47.87,5.13ZM603.14,540.32c-.06-.21-.09-.42-.11-.61.02.19.05.4.11.61ZM602.81,538.08c.12.11.17.25.19.44.01.12.01.26.01.41,0,.15,0,.32,0,.5,0-.18,0-.35,0-.5,0-.15,0-.29-.01-.41-.02-.18-.07-.33-.19-.44-.12-.11-.3-.17-.59-.18.29.01.47.08.59.18ZM599.87,557.72c-.17-.29-.44-.59-.71-.93.27.33.54.64.71.93ZM540.99,487.99h-.98v-1.99h.98v1.99ZM511.5,498v-1c.65.33.65.67,0,1ZM524.02,499l-1.01-3.99h.97c-.11.58.03,1.12.43,1.55.37.41,1.03.45,1.57.46l.02,1.97h-1.98ZM527.51,501.98c-.48-.59-2.01-1.26-1.02-1.96.55.64,2.01,1.3,1.02,1.96ZM548.52,500.29l-4.11-6.43,1.03-.66,4.11,6.43-1.03.66ZM557.99,510c-3.25-2.24-6.68-6.19-7.98-9.99,1.26-1.26,8.83,7.71,7.98,9.99ZM583.86,545.3c-.16.47-.21,1.19-.32,1.85.11-.66.16-1.38.32-1.85ZM583.1,548.39c.08-.1.14-.21.19-.34-.05.13-.12.24-.19.34-.24.31-.62.43-1.03.5-.31.06-.64.09-.96.15-.21.04-.41.1-.58.18-.27.13-.48.33-.61.66.13-.33.34-.53.61-.66.18-.09.38-.14.58-.18.31-.06.64-.09.96-.15.42-.07.79-.2,1.03-.5ZM563,497.5c.23-1.06,1.95-.55,2.73-.15.11.05.11,1.04,1.05,1.55.85.46,2.41.06,3.78,1.02,2.01,1.42,5.45,7.34,4.42,10.07l-11.98-12.5ZM577.07,536.95c.13-3.23-1.2-6-2.07-8.95-.66-2.26-4.67-16.27-4-16.99l5.5,3.99,1.48-1.99c-1.68,5.72,2.44,10.9,3.06,15.45.56,4.1-.49,9.28-.05,13.55.22,0,1.39.59,1.85.89-.46-.3-1.63-.88-1.85-.89-.11,0-.24,1.26-.99,1l-.48-6.09-2.47.05ZM579.82,550.25c-.06.42-.02.99.17,1.76h0c-.19-.77-.23-1.34-.17-1.76ZM555.99,615.99h-.98v-4.99h.98v4.99ZM545.01,592l1.99,1.99h-1.99s0-1.99,0-1.99ZM500.09,648.58c1.18,2.33,1.08,6.37,1.91,8.42h-2c1.28,1.26,0,2.66,0,3l-3-11.99,3.09.57ZM481.02,685.21c-.68,0-1.23-.55-1.23-1.23s.55-1.23,1.23-1.23,1.23.55,1.23,1.23-.55,1.23-1.23,1.23ZM453.01,645l2.99,2,2,4c-.02.66-.02,1.34,0,2,.03.99-.1,2.02,0,3-4.16-.62-5.09-7.82-4.99-11ZM429.5,612c.65.33.65.67,0,1v-1ZM430.99,651.49c.84-1.12.55-3.04,3.01-2.48-1.76,4.45-5.35,10.27-4.02,14.94l-3.97,1.05c-.05-5.57,1.7-9.15,4.98-13.51ZM425.01,666h.98v2.99h-.98v-2.99ZM414.01,646.01h.98v1.99h-.98v-1.99ZM408.09,658.6c.64-2.34,3.84-7.91,5.9-9.6.97,2.44-2.48,9.66-4.01,10.99-.65.57-2.39.42-1.89-1.39ZM405.5,642c.65.33.65.67,0,1v-1ZM395.01,650.02c2.95.46,1.63-2.94,2.9-5.61,1.05-2.2,3.63-4.01,4.59-6.41,1.66.51,1.6,8.41,1.35,8.79-.32.48-1.91.55-2.38,1.21-.89,1.28.37,2.95-.23,4.69-.38,1.1-3.25,6.64-4.72,6.3-4.62-3.09,3.14-8.63-1.51-8v-.98ZM386.06,658.56c2.25-6.23,1.27-7.96,6.34-13.68.84-.95,0-2.53,2.6-1.87l-13.51,30.97c-.34-6,2.71-10.29,4.57-15.42Z" fill="#cfd3e4"/><path d="M304,193c9.98-9.12,18.88-16.47,31.8-21.7l17.2-6.3c.32-.06.68.05,1,0,19.46-3.17,34.59-1.97,54,.51,1.51.19,3.98,1.46,5-.51.28.08,2.59,1.31,5,2,23.76,6.85,47.36-2.23,71.51-4.99,28.87-3.3,87.98-7.44,110.49,12.99,6.88,6.25,8.98,11.52,12,20l2.05,17.53-5.05,32.47c-.08.27-.88.62-1,1-2.74,8.85-6.68,23.02-7,32-.02.64-.04,4.74,0,5l2.09,2.86h0l-2.09-2.86c.6,3.59,3.16,6.48,3.89,9.61,2.24,9.59,4,19.59,5.11,29.39h-1c13.83,8.11,21.1,7.64,36.51,7.01,5.18-.21,10.72.86,15.51-1.55,0-1.78-4.94-14.81-6.07-16.65-2.59-4.21-10.28-8.6-12.42-11.84-12.23-18.46,6.62-63.06,2.02-86.02-2.46-12.29-10-28.16-19.54-36.46-21.34-18.58-68.6-29.11-96.41-24.46-.73.12-.57,1.97-1.17,2.01-25.13-.57-51.97,7.16-77.06,9.84-32.56,3.47-62.9-10.5-94.86-6.86-19.88,2.26-47.67,20.62-55.52,38.98,2.52.23,2.91-2,4-3ZM610.54,240.03c.33-1.08.65-2.15.95-3.21-.31,1.06-.62,2.13-.95,3.21-.33,1.08-.67,2.18-1.01,3.29.35-1.11.69-2.21,1.01-3.29ZM609.11,249.65c-.06.76-.25,1.53-.51,2.3.26-.77.45-1.54.51-2.3ZM606.35,294.59c.13.95.29,1.94.47,2.97-.18-1.03-.34-2.02-.47-2.97ZM609.57,310.74c-.24-1.1-.49-2.22-.74-3.34.25,1.12.5,2.24.74,3.34.24,1.1.48,2.19.71,3.25.34,1.59.65,3.12.92,4.54,0,.03.05.07.13.11.05.03.12.07.2.1.08.04.16.08.25.13-.09-.05-.18-.09-.25-.13-.08-.04-.14-.07-.2-.1-.08-.05-.13-.08-.13-.11-.26-1.43-.58-2.95-.92-4.54-.23-1.06-.46-2.15-.71-3.25ZM613.85,227.54c.21-1.01.4-2.01.58-3.01-.17,1-.37,2-.58,3.01ZM614.88,221.53c.13-1,.24-1.99.32-2.99-.08,1-.19,1.99-.32,2.99ZM615.37,212.53c-.03-1.01-.08-2.03-.16-3.05.08,1.02.14,2.04.16,3.05Z" fill="#cfd3e4"/><path d="M513,440c-2.69-.27-6.58-1.38-9.68-1.63-3.04-.25-5.33-.36-8.4-.8-3.18-.46-20.05-12.74-22.59-15.9-6.51-8.11-9.24-21.54-12.34-31.66v1c-3.63,10.94-1.51,22.39-.96,33.46.39,7.86-.74,15.93,1.96,23.54-.15,4.71-.17,7.34-1,12-3.55,5.61-9.32,9.34-14,14-.92.92-2.19,2.13-3,3-3.59,1.01-7.32,3.82-10.94,4.56-9.31,1.89-10.87-2.39-18.76-5.37-1.72-.65-2.55-2.63-2.3.81,2.69,1.42,9.17,5.9,12,8,.35.26.51,2.18,1.25,2.7,2.89,2.07,10.59,5.05,14.04,4.28.7-.16.73-1.53,1.5-1.89,8.45-3.97,14.02-11.22,23.39-13.41,7.65-1.79,15.88.33,23.26-.74,11.72-1.7,22.7-13.78,18.57-25.94h1.99c-2.34-5.42,1.18-8.4,6-10ZM497.86,451.37c-.43,2.25-5.59,3.34-7.62,4.33-1.12.55-1.18,1.88-1.73,2.07-2.63.9-11.59.29-13.58-2.2-1.31-1.64-2.76-9.84-1.76-11.41,7.74-4.54,9.5-5.42,17.48-.79.94.54,5.73,4.43,6.23,5.28.5.85,1.08,1.66.99,2.72Z" fill="#cfd3e4"/><path d="M598.15,363.83c.23.44,6.15,6.77,6.6,6.97,1.08.46,2.72-.02,3.25.2,4.93-3.08.18-17.5-2.54-20.96-3.16-4.01-14.21-9.75-19.25-10.75-6.9-1.36-17.6-2.2-24.66-2.33-16.06-.31-31.65,1.53-47.05,1.97-7.33.21-23.96,3.47-30.52,6.54-9.9,4.63-14.49,12.1-13.94,22.97.69,13.63,5.59,29.62,11.79,41.23,3.86,7.23,9.38,15.99,19.18,14.32-3.44-1.89-11.72-13.44-14.04-17.26-1.76-2.88-.77-2.26-1.46-3.7-2.22-4.62-4.31-8.82-6.51-13.57,4.54-.99.35-6.37,1.44-8.48.87-1.69,3.45-1.66,4.47-2.59.77-.71,5.91-6,6.1-6.4,1.23-2.57.26-7.46,3.46-10.04,2.41-1.94,16.26-8.03,19.54-8.96-5.1-2.62,1.7-4.54,4-7,25.21-5.08,51.18-.4,76.33,2.97,1.74.77.68,10.97,4.67,12.03.02.46-1.43,1.72-.85,2.83ZM599.06,354.61c-.27-.14-.51-.29-.71-.44.2.15.44.3.71.44ZM582.26,344.94c-3.15-.44-6.52-.83-9.65-1.16-1.25-.13-2.46-.25-3.6-.36,1.14.11,2.35.23,3.6.36,3.12.33,6.5.72,9.65,1.16,1.26.18,2.48.36,3.64.55-1.16-.19-2.38-.38-3.64-.55ZM596.2,349.25c.12.19.23.38.31.57-.08-.19-.18-.38-.31-.57ZM596.63,350.11c.07.19.12.38.17.58-.05-.19-.1-.38-.17-.58ZM596.91,351.26c.05.29.1.57.17.85-.07-.28-.11-.56-.17-.85Z" fill="#cfd3e4"/><path d="M282,412c1.99-9.42,4.53-21.97,5.04-31.55.13-2.54-1.31-5.59-1.11-6.82.18-1.09,1.97-.51,2.08-.63,6.62-4.4,6.23-10.91,8-18,.12-.12-.19-1.29.27-1.7,3.41-3.02,9.05-5.5,13.73-6.3,13.18-2.26,32.6-1.39,46,0,9.45.98,18.95,2.68,28.01,5.49l-2.01,1.51c.75.22,12.66,7.46,13.23,7.99,2.03,1.85,3.16,4.82,4.77,7.01.23-.2,4.18-.43,5-2-.26-7.89-1.31-15.27-8.95-19.55-9.47-5.3-24.73-7.85-36.51-8.49-13.17-.71-39.69-1.36-51.99,1.1-4.79.96-10.04,5.54-15.4,5.1,0,2.69-2.42,3.43-3.05,4.66-3.9,7.62-10.86,47.31-10.1,55.68.2,2.24.68,5.44,3,6.5Z" fill="#cfd3e4"/><path d="M293.5,506l-3.49,4.99-1.02-4.99c8.11-.54-.97-2.65-.97-3.51l1.99-2.98c-2.37-3.17-3.21.52-5,1.47,2.15-5.12,2.29-5.82-.37-10.64-3.43-6.21-2.45-6.6-4.1-13.39-.91-3.74-2.92-8.69-3.53-11.97-1.28,10.84,1.71,21.33,3.01,31.99l.99-3,3.96,1.07c.69.92-2.08,8.65-1.98,10.36.04.61,1.83.46,2.01,1.24,1.08,4.71.92,9.42,1.61,14.19.23,1.63.07,3.49,2.4,3.15.03-.12,1.26-.23,1.74-1.71,1.58-4.97,5.56-11.86,2.77-16.28Z" fill="#cfd3e4"/><path d="M334.28,544.27c-.62-1.44-.26-1.54-2.27-1.28-1.58,4.66.62,12.06-3.01,15v-1c-.14-1.28.2-2.79,0-4-.28-1.67-1.58-3.45-1.6-4.49-.02-.75,3.26-9.52,1.1-9.52l-3.41,13.6,1.91.41c-1.81,13.51.91,26.15,1,40,.02,2.31.53,5.91,2.99,6.99.46-3.95,2.29-6.78,2.01-10.99-.38-5.77-3.62-13.82-3.99-19.99l3.98,9.99c.23-4.15-.27-8.39-.03-12.54.25-4.46,2.59-19.22,1.32-22.19ZM328.5,567c.65.33.65.67,0,1v-1Z" fill="#cfd3e4"/><path d="M301,533l2.87-.11c.38-1.63.68-3.28,1.13-4.89-1.91-2.19.15-5.55-1.05-8.24-.41-.92-2-.75-1.98-1.27.04-1.71,4.31-4.52.55-4.49-2.57,2.52-4.07,6.15-6.09,8.91-.52.72-4.85,4.55-5.17,5.28-.48,1.08,2.77,4.42-1.25,3.8,1.22,5.11,2.96,7.5,5,12l5.01-13.99c1.58-.31,1.07,2.01.99,2.99Z" fill="#cfd3e4"/><path d="M356,612h-1c1.41-7.82,2.03-14.17,1-22-.04-.33.06-.68,0-1-.58-3.39-.73-8.19-4-10-.19,5.25.12,9.87.02,14.42,0,.29-1.34.23-2.02,4.58-1.05,6.74-3.43,13.14-3,20-.14-1.41-1.62-5.2-2-7,.88-3.47,1.7-10.3,2-14,.03-.33-.02-.67,0-1,.02-.33-.02-.67,0-1,.18-3.31-.13-6.69,0-10,2.19-1.18,2.93-6.15,2.89-8.61-.04-2.94-2.46-6-.89-8.39-2.73-7.24-5.77-12.26-6.72-20.78-.71-6.35.71-13.18-1.28-19.22-.4-1.21-.21-2.73-1.99-3-.39,1.63.94,3.14.92,4.59-.25,19.01,4.52,37.26,3.07,56.41,0,.11-1.69,1.15-.93,1.93.45.47,2.36-.66,1.92,1.06-4.03-.23-1.85,5.7-1.99,7.02-.25,2.37-.55,4.66-1,7,.63.08,1.49-.15,2,0l.36.36c.19.24.41.53.64.64.17,1.1-.97,1.79-1,2h-4c-.8,3.89.75,5.96,2,9,.31.76.67,1.31,1,2,1.63,3.36,4.33,6.17,5.01,9.99,1.09.25,1.68-2.13,1.99-2.99l3.99,11.99,4-24.99-.99,1Z" fill="#cfd3e4"/><path d="M336.06,494.79c-5.68,8.07-4.57,10.66-7.3,18.47-1.01,2.9-5.76,6.89-4.75,11.74,2.69-3.31,4.89-7.34,6.99-11,1.66-8.2,5.19-14.31,7.99-21.99-.79.21-2.51,2.18-2.93,2.78Z" fill="#cfd3e4"/><path d="M338.85,520.13l.65,2.87,1.55-3.98,2.36.81c1.96-4.24,4.53-.61,7.09-4.82,1.84,3.87,10.31,1.53,14.99,2.01,13.93,1.42,29.18,5.03,43.11,6.89,6.16.82,14.07.26,19.84,1.16,4.54.71,5.3,3.62,11.97,2.86,3.34-.38,11.52-2.14,8.58-5.93l-16.86,1.86c-1.89-5.66-10.92-1.03-11.15-8.85l-2.97,1.98c-2.81-3.15-.75-3.81-1.53-6.9-1.2-4.71-3.95-1.93-4.38-2.57l-2.12-5.52-5.98,6c-.09-2.79,1.98-1.75,2.99-5,.91-2.94.76-4.5-3-4,3.41-3.18-4.52-7.39-6-3-.46-.2-1.01.16-1-1l.51-1.98c-.94,1.42-2.23,1.45-3.51,1.98l-1.99.99v-.98c.61-.16,1.56.17,1.99,0l1-4.99c-3.97-.9-5.12,4.21-7.73,5.98-1.51,1.03-3.56.63-4.27,1.01,1.53-3.94,6.9-9.18,1.01-12-.12,4.36-6.26,8.94-7.51,12.05-1.06,2.64-2,7.84-4.5,10.95-.94,1.17-5.2,1.07-4,5.49l-.95-1.93,5.93-16.07-7.97,4.02c2.73-4.24,5.61-8.37,8.49-12.51.56-.8,2.69-1.94,1.01-2.99-3.32.55-6.47,6.91-7.78,7.72-1.23.76-3-.05-4.79,1.71-3.2,3.13-6.68,12.45-8.54,16.47-.47,1.01-2.6,4.75-4.39,4.09,1.73-13.96,9.6-23.54,17.99-33.99-1.91.12-4.26-.3-6,0,.48,1.28,3.75.24,2.5,2-2.16,3.04-5.37,5.31-7.92,9.09-4.23,6.29-7.78,13.87-10.6,20.91-1.39.09-2.44.47-1.89-1.39,1.72-5.88,5.01-16.02,7.62-21.36.26-.53,2.15-4.03,2.29-4.25l-1-1c-5.77,5.76-8.32,6.68-12,15,.19-.19,1.38,0,1.95-.55,1.6-1.56,2.5-4.09,4.56-5.45l.48,1.47c-4.22,4.94-7.4,10.7-10.48,16.5-2.53-1.88-.72-1.62-.08-3.05,1.32-3.01,2.44-6.35,3.58-8.92-3.91,3.81-6.22,10.15-9,15-.35,1.74.43,4.3-.26,6.23l-2.74,8.77c-1.19.02-2,.55-3,1v-3s-2.92.07-2.92.07c-.39,2.28-1.97,4.68-2.08,6.93-.02.33.02.67,0,1,.2,2.02-1.53,3.67-2,5,.06,1.09.23,2.53-1,3,.04-.33-.06-.68,0-1,.24-1.26.86-1.59,1-2-.61-10.37,2.01-10.08,4.74-18.76,2.36-7.48,2.26-13.55,6.87-21.13,2.66-4.37,6.81-7.75,9.4-12.11l1.47,2.97c4.42-1.88,3.3-5.19,6.51-7.98l-1.99-2.99-2.53,3.01-1.97-2.01-4.51,2.98c-.21-.2,2.45-4.26,3-4.99,4.07-5.41,10.59-9.01,15.52-12.94,1.76-1.41,2.42-4.96,0-4.05-3.9,2.67-8.19,3.79-12.52,5.99-6.94,3.53-24.74,16.66-28.41,23.09-3.45,6.06-2.51,10.01-3.59,15.91,2.94,1.94,1.51.69,2.26-1.22,1.94-4.91,3.37-8.84,7.25-12.77l2.5,2.51c-2.16.7-1.54,1.13-2.01,2.48-.89,2.53-1,5.1-1,8l-6,14c-2.9-.06-1.74-2.38-2.49-2-4.01,3.48-.69,6.22-1.51,11-.2,1.17-.78,2.36-1,4-.04.27-.78,1.55-1,3-.1.63.1,1.37,0,2-.3,1.96.31,4.31-.04,6.44-.31,1.91-2.52,3.23-1.95,5.55l4.99-3.99c.9,1.01-1.85,6.29-1.93,7.56-.02.32,3.39,1.12,2.03,5.33l4.9,1.11c-.18,3.25,2.25,5.33,2.51,7.87.26,2.55-2.07,8.4-.5,12.12l1.98-1.99,1,4.99,2-3.99-.97,5.51,1.81-.32,3.16,5.8c-3.97-10.8-1.36-21.71-2-32.99l-2.98,11.99c-.37-5.38-.17-12.76.99-18,.17-.76,2.42.57,1-4,2.56-1.85,2.55-5.53,1-8,2.42-2.58,2.15-4.57,2.01-8l3.99.99c.11-.64-.14-1.45,0-1.99,1.28-4.86,3-9.42,5.02-14l2,.52-1.03,3.47,2.86.13ZM416.5,516l.49,1.99h-1.99s1.5-1.99,1.5-1.99ZM411.5,509c.65.33.65.67,0,1v-1ZM404.5,509c.65.33.65.67,0,1v-1ZM401.01,517c-.35-2.64.38-5.01,2.98-6,.55,1.19-2.3,6.94-2.98,6ZM382.91,497.2c-.11.32-.32.97-.91,1.8.28-.68.67-1.29.91-1.8ZM364.5,501c.65.33.65.67,0,1v-1ZM342.01,513.01h.98v1.99h-.98v-1.99Z" fill="#cfd3e4"/><path d="M361.95,688.45c-.32,2.94-.53,17.73.03,19.9.27,1.03,1.95.24,2.03,1.16v.98s-2-.5-2-.5v1.99s2.99,2.02,2.99,2.02c-.01-9.05.19-17.99,1-27-2.35-1.4-3.48-3.72-4.05,1.45Z" fill="#cfd3e4"/><path d="M298,551c1.12,2.01,2.6,3.83,3.5,6.01l.49-10.01-2.99,4h-1Z" fill="#cfd3e4"/><path d="M304.99,560.99l-.98-7.99c.21,2.14-3.28,8.68.98,7.99Z" fill="#cfd3e4"/><path d="M518,440c.8,2.94,2.64.92,4,1-.7-1.51-2.68-.96-4-1Z" fill="#cfd3e4"/><path d="M282,413c0,.06-.91.14-.62,1.03,1.17,3.53,4.84,5.32,7.62,6.97-2.53-2.64-5.46-4.49-7-8Z" fill="#cfd3e4"/><rect x="414" y="692.01" width="2.99" height=".98" fill="#cfd3e4"/><path d="M365,722c-.03-1,.02-2,0-3-1.2,1-1.2,2,0,3Z" fill="#cfd3e4"/><path d="M571.5,622c.65-.33.65-.67,0-1v1Z" fill="#cfd3e4"/><path d="M546.5,602c.65-.33.65-.67,0-1v1Z" fill="#cfd3e4"/><path d="M497.5,683c.65-.33.65-.67,0-1v1Z" fill="#cfd3e4"/><path d="M374.5,495c.65-.33.65-.67,0-1v1Z" fill="#cfd3e4"/><path d="M515.5,440.98l.5-.98c-.33-.03-.67.03-1,0l.5.98Z" fill="#cfd3e4"/><path d="M570.26,366.06c-3.94-1.27-9.66-.62-13.8-2.11l-1.38.13c-.61,1.14-.56,2.88-1.08,3.92.65.07,1.38-.11,2,0,4.3.74,8.73,1.24,13,2,3.37.6,7.83,2.49,11.44,3.05,1.11.03.34-1.78.56-2.05-2.94-.97-2.74-3.96-5.84-2.23.48-.59-4.3-2.52-4.9-2.71Z" fill="#cfd3e4"/><path d="M526,367c-.81-1.59-1.59-3.17-2.13-4.88-7.36-.32-13.63,3.82-19.87,6.88l19.44-3.05,2.56,1.05Z" fill="#cfd3e4"/><path d="M316,372c-.38.43-2.2,2.84-2,2.99,4.37.71,7.31-3.94,10.31-5.29,1.17-.53,9.76-3.55,10.36-3.68,2.25-.49,7.95,1.65,7.33-2.02-6.12-2.51-21.71,3.09-26,8Z" fill="#cfd3e4"/><path d="M384.46,369.02c1.32.12,10.03,5.58,6.54-1.02-1.73-.57-12.33-4.71-12.99-4-.27,1.49.35,3.72,0,5,2.17,1.91,4.46-.17,6.46.02Z" fill="#cfd3e4"/><path d="M613,507c-.33-1.45-.75-2.12-1-3,.38,1.22.16,1.47,1,3Z" fill="#cfd3e4"/><path d="M611,502c.29.66.9,1.64,1,2-.21-.68.41-2.05-1-2Z" fill="#cfd3e4"/><path d="M610,500c0,.18-.92.75-.91,1.52,0,.81.91,1.32.91,1.48l1-1c-.27-.62.02-1.64-1-2Z" fill="#cfd3e4"/><path d="M621,490c-.28-.77-.97-.93-1-1l1,1Z" fill="#cfd3e4"/><rect x="621.94" y="540.24" width="7.99" height="1.39" transform="translate(-7.05 1073.62) rotate(-80.92)" fill="#cfd3e4"/></svg>