<?xml version="1.0" encoding="UTF-8"?><svg id="a" xmlns="http://www.w3.org/2000/svg" width="900" height="900" viewBox="0 0 900 900"><path d="M315.53,558.98c16.14,15.96,37.72,28.02,58.24,38.03,58.86,28.72,105.88,36.85,165.29,2.42.82-.48.09-2.12,1.45-1.78.95,4.98-.98,9.17-1.66,13.71-1.14,7.63-1.87,15.1-4.68,22.56-12.99,34.44-72.19,33.92-102.63,30.52.09-3.57-.28-7.84-1.57-11.17-5.46-14.04-47.04-33.47-61.11-42.6-17.85-11.58-40.35-29.7-51.6-47.72-.79-1.26-1.66-2.41-1.73-3.98Z" fill="#cfd3e4"/><path d="M677.64,508.89c2,.44,3.88,2.52,5.26,3.96,0,.65-3.54,2.07-4.38,2.2-5.76.89-11.49-.58-16.53-2.37-8.98-3.2-17.63-8.82-22.13-17.42,5.77,3.07,10.1,7.45,16.45,9.91,8.41,3.26,13.89,2.1,21.32,3.73Z" fill="#17c37b"/><path d="M330.47,118.65c5.53-3.17,12.57-3.52,18.81-4.48,4.53-.7,5.84-.32,9.8-.71,1.6-.16,1.17-1.66,1.88-1.83,6.04-1.41,31.27,1.35,38.1,3.02,23.11,5.67,29.2,15.23,41.77,32.97,30.55,43.1,56.93,70.28,111.65,79.04,21.76,3.48,34.29.05,53.56,13.3,1.09.75,2.74,0,3.91,3.05-3.88,3.64-8.48-.03-12.26-.9-26.56-6.14-52.02-8.03-77.16,2.17-13.17,5.34-19.27,12.05-30.09,21.15.77-3.95,4.31-8.88,7.06-11.84,6.16-6.62,21.21-16.34,30.41-17.77,1.84-.29,3.4,2.07,4.23-1.03l3.14.35.86-2.23c-3.5.14-6.52-1.51-9.66-2.64l.56-.98-14.62-5.17c-12.7-6.79-26.84-16.36-37.79-26.37l-4.41-5.7c-3.03-2.64-5.92-5.55-8.77-8.37-25.42-25.04-31.96-55.68-72.84-63.62-20.4-3.96-37.99-1.22-58.12-1.42Z" fill="#cfd3e4"/><path d="M436.82,302.34c.03-4.52.2-12.95-5.26-14.06l-5.88,20.05-4.62,10.09c-3.73,2.07-5.98,6.04-9.43,8.38-2.78,1.89-13.63,6.66-16.66,7.06-3.79.51-7.92-.06-11.7.97l-.93-3.5,2.13.93.63-1.62,2.35.57c1.79-3.22,6.53-3.88,9.84-6.46,5.8-4.52,8.72-11.13,10.53-18.04,1.05,1.05,9.99,5.34,11.01,3.57l1.17-8.45c-2.01-1.72-3.79-5.62-5.15-8.3-6.7-13.2-8.05-17.1-23.26-22.01-17.5-5.65-50.64-6.78-68.18-2.18-8.07,2.12-7.67,14.92-9.7,21.75-1.41,4.72-2.57,12.11-2.57,18.25-.8-3.22-1.66-8.64-1.75-11.87-.21-7.65,1.31-15.34,3.76-22.59,3.94-11.67,7.61-13.89,19.63-15.53,21.65-2.94,50.3-.72,71.67,2.75,25.07,4.07,33.61,8.33,33.27,35.39-.02,1.49.56,3.91-.89,4.82Z" fill="#cfd3e4"/><path d="M489.54,318.63c-2.99-14.94-3.76-25.24-22.39-23.3-7.94.83-6.15,3.3-10.03,8.57-5.67,19.77-13.24,46.69-28.66,59.96-10.85,9.34-31.44,18.41-44.84,19.31-2.07.14-4.55-1.49-6.88-.87-.94.25.02,2.65-2.32,1.78v-1.75s-1.45,1.78-1.45,1.78l-6.97.06-2.12-1.84-.02,1.76-1.43-1.81c-2.37-.18-4.37.94-6.78.87-4.21-.12-12.78-3.12-16.21-4.25-3.18-1.05-6.54-2.14-9.86-2.72,13.15,8.57,24.14,13.09,40.43,14.06.96-1.73,1.88-1.19,3.33-1.17,8.41.11,15.01.04,23.4-.66,1.6-.13,2.56-2.09,2.27.96,1.32-.19,5.82-2.74,5.27-.45-5.78,6.13-11.91,11.81-18.14,17.46-4.45,4.04-7.36,6.6-12.15,10.26-3.12,2.38-6.65,6.04-10.13,7.02,1.32,2.64,6.79,1.86,8.98.81,12.95-6.18,22.42-14.57,33.68-25.38,4.06-3.89,7.96-8.25,11.82-12.35,1.35-6.18,8.59-17.48,14.94-19.34,2.39-7.92,6.85-12.56,10.7-19.62,8.06-14.82,12.23-30.57,19.21-45.83,5.67-3.78,14.43-3.46,18.3,2.73,3.02,4.83,6.13,12.33,8.04,17.89,1.38-.6.21-2.85,0-3.93Z" fill="#cfd3e4"/><path d="M556.86,67.17c7.9,7.51,14.49,16.78,19.86,26.29,3.35,5.93,7.98,14.56,9.77,21,.23.84,1.46,2.63-.24,2.44-16.59-29.53-44.79-53.65-75.88-66.94l-44.53-13.02c13.93-1.19,27.44-1.8,41.15,1.46,18.09,4.31,36.51,16.05,49.88,28.78Z" fill="#cfd3e4"/><path d="M541.92,133.96c10.92,9.76,22,17.41,34.93,24.39,19.65,10.62,43.19,17.53,55.94,37.21-7.32-4.55-14.71-8.9-22.53-12.62-15.88-7.57-32.43-12.51-47.7-21.73-23.93-14.45-44.81-40.94-55.49-66.68-.3-.71-1.89-2.27.04-2.24,9.9,15.24,21.23,29.54,34.8,41.67Z" fill="#cfd3e4"/><path d="M658.29,468.45c-1.01-.57-2.59-2.4-3.21-3.35-6.09-9.32-8.87-22.97-7.4-34.06.03-.27,1.09-2.46,1.53-4.62,5.32-25.89,15.61-35.41,13.52-65.67-.4-5.74-2.74-11.44-2.24-17.1,10.74,16.73,11.25,36.58,5.09,55.18-2.67,8.07-7.58,16.03-9.95,24.33-4.21,14.78-3.86,31.28,2.66,45.29Z" fill="#cfd3e4"/><path d="M431.53,108.11l-9.29-14.87c-7.06-7.67-14.12-15.09-24.76-17.42-13.49-2.97-35.79,4.35-44.87,14.66-1.02,1.16-1.11,2.3-.92-.24,7.23-16.21,28.83-25.31,45.6-21.28,17.6,4.23,32.34,21.22,34.24,39.14Z" fill="#cfd3e4"/><path d="M234.66,441.21c3.25,9.5.62,16.91.01,25.94-.51,7.58-.21,16.29-.98,23.63-1.16,11-5.29,6.3-7.76-.84-4.23-12.22-2.88-25.51.88-37.68.53-1.73,4.74-14,7.85-11.04Z" fill="#ccf1db"/><path d="M277.73,179.3c.53-.48.69-1.95,2.19-1.77,1.43-.12,1.48-.13,1.29,1.28-1.98,14.51-4.37,28.59-8.28,42.71-3.9,14.07-8.46,23.69-14.68,36.3-2.03,4.11-2.24,9.22-6,12.02-1.52,1.14-2.7,1.04-3.82,1.73-.89.54-.08,2.11-1.44,1.78-.7-2.02-.39-4.23.41-6.19.69-1.69,1.77-1.6,2.15-2.4,9.7-20.44,20.3-45.12,25.17-66.93,1.29-5.79,1.72-12.63,3.03-18.51Z" fill="#cfd3e4"/><path d="M662.69,276.85l-10.08-25.5c-6.6-11.24-15.12-21.05-24.65-29.84l-25.02-18.47c32.05,8.24,61.33,39.36,59.75,73.81Z" fill="#cfd3e4"/><path d="M320.79,48.32c-.09.11-1.48.23-2.17.87-14.13,13.18-17.89,31.61-13.65,50.11-1.15,1.01-5.93-2.65-6.68-3.82-13.14-20.82,1.91-41.37,22.07-48.9l.42,1.73Z" fill="#cfd3e4"/><path d="M674.11,210.93l-14.08-21.5c-11.83-15.84-28.96-25.37-44.8-36.49,28.07,6.65,52.86,29.53,58.88,57.99Z" fill="#cfd3e4"/><path d="M261.91,120.42l-14.34,7.18c-9.79,7.15-18.12,15.79-26.06,24.92l-11.44,16.23c3.93-23.51,26.89-48.38,51.84-48.33Z" fill="#cfd3e4"/><path d="M218.84,201.26c-1.61.2-.75-1.87-.63-2.82,2.33-18.13,14.21-37.35,28.76-48.14-4.02,11.58-10.69,22.91-17.2,33.32-3.65,5.84-8.69,11.09-10.92,17.65Z" fill="#cfd3e4"/><path d="M683.79,297.95c-2.31.19-1.45.11-1.72-1.32-1.33-7.1-.87-15.06-2.04-22.59-1.53-9.79-4.93-19.12-6.77-28.82,11.07,14.76,12.76,34.79,10.53,52.73Z" fill="#cfd3e4"/><path d="M538.77,180.18c-58.4-47.22-45.17-128.88-132.53-143.01-12.52-2.02-22.33-1.37-34.47,1.93-30.35,8.25-53.41,26.64-48.32,61.09l3.78-11.58c16.24-35.67,69.28-48.51,101.07-26.92,20.64,14.02,30.83,46.39,44.18,67.44,17.82,28.08,41.15,48.93,71.56,62.48,9.7,4.32,19.56,8.23,29.87,10.99l-35.14-22.42Z" fill="#cfd3e4"/><path d="M304.1,115.14c-1.72-.42-3.87-2.11-6.15-1.76-4.49-3.41-8.88-7.29-12.67-11.5l-7.54-14.86c-1.9,13.82,6.3,24.83,17.57,31.64,1.05.63,1.84,1.69,3.29,2.41,2.09,1.04,5.27.33,4.62,2.86.16-.02,1,.77,2.03.65,1.42-.17,3.15-1.91,5-1.54l-6.15-7.9Z" fill="#cfd3e4"/><path d="M285.64,144.14c-.47-2.26,1.1-1.8,2.4-2.39,2.17-.98,10.01-5.01,11.65-3.76l-3.47,4.88c-.6.97-2.05,1.47-2.68,2.15-3.46-1.75-4.2-2-7.91-.88Z" fill="#cfd3e4"/><path d="M286.78,284.08c-10.05-2.96-19.16,10.29-29.32,10.85-.64.6-.66,5.18-.82,6.54-.07.57.06,1.18,0,1.76,6.78-1.54,12.64-5.14,19.34-7.03,4.02-1.13,7.09-2.59,11.72-1.79l4.1,6.18c-.62-4.07.07-15.01-5.02-16.51Z" fill="#cfd3e4"/><path d="M639.4,493.07c.57.29.57.59,0,.88v-.88Z" fill="#1e888e"/><path d="M613.92,152.05c.57.29.57.59,0,.88v-.88Z" fill="#1e888e"/><path d="M711.04,311.14c1.26-.21,1.15,1.48,1.52,2.41,11.75,29.69,12.84,62.2-10.77,86.34,4.09-9.71,8.65-19.23,10.73-29.69,3.95-19.82,1.24-39.33-1.49-59.06Z" fill="#cfd3e4"/><path d="M193.36,362.99c-.16,2.23,1.01,6.26-2.63,6.15-2.92-11.09-2.04-30.71,7.45-38.68,18.22-15.31,40.29,22.99,37.85,38.73-1.71,11.06-8,11.77-2.92,25.68,1.82,4.99,9.63,12.17.19,13.77-25.45,4.31-31.43-38.51-11.82-50.04.28-.16,1.18.45,1.84-.55,2.29-3.44-6.41-12.47-9.13-14.06-.39-.23-1.26,1.07-1.92-1.05l-7.9-.17c-8.15,5.04-10.38,11.21-11.02,20.22Z" fill="#112378"/><path d="M428.03,391.99c1.66,7.03,6.08,9.54,13.45,7.89.71-.16.63-1.57,1.7-2,7.35-2.91,15.61-4.58,23.27-1.7,1.78.67,11.14,6.59,9.04,8.97-6.24,1.11-11.16-1.19-17.81.22-4.56.96-7.62,3.96-11.2,5.06-4.25,1.31-12.31-.05-16.42-1.6-8.95-3.36-13.72-12.9-11.7-22.13,1.35-6.18,8.59-17.48,14.94-19.34-.04.12.7,1.21.29,2.43-2.9,8.71-8.23,10.93-5.57,22.18Z" fill="#112378"/><path d="M193.36,362.99c.64-9.01,2.87-15.18,11.02-20.22l7.9.17c.66,2.12,1.52.82,1.92,1.05,2.72,1.6,11.42,10.62,9.13,14.06-.66,1-1.57.38-1.84.55-10.26-12.88-18.05-12.11-25.65,2.08-.66,1.23-.35,2.78-2.48,2.31Z" fill="#cfd3e4"/><path d="M399.02,389.36c-8.8,1.24-20.09,1.41-29,.88.96-1.73,1.88-1.19,3.33-1.17,8.41.11,15.01.04,23.4-.66,1.6-.13,2.56-2.09,2.27.96Z" fill="#cfd3e4"/><path d="M512.4,224.12l14.62,5.17-.56.98c-5.11-1.83-9.18-3.54-14.06-6.15Z" fill="#cfd3e4"/><path d="M474.61,197.75c-2.39-2.18-4.81-4.24-7.07-6.58-1.96-2.03-4.9-4.99-6.11-7.48,2.86,2.81,5.74,5.73,8.77,8.37l4.41,5.7Z" fill="#cfd3e4"/><path d="M370.02,443.85c4-2.72,6.83-5.2,12.3-4.39-1,7.95,4.06,8.17,8.59,12.24,5.53,1.39,11.25,1.66,16.9,1.82-.5,2.33,2.22,2.37,3.71,2.86,31.51,10.38,71.98,11.28,103.9,2.36,5.34-1.49,10.65-4.56,16.31-5.23l-1.76-2.19,1.77-2.18,1.74,2.63c1.9.7,6.71-2.4,7.98-3.95,2.69-3.31,1.44-1.72,5.12-4.49,2.41-1.81.87-3.74,5.79-3.95,8.01-.34,10.39,4.94,10.86,11.99l-4.72,4.57-4.21-3.19c-6.27,3.53-13.64,9.15-19.94,12.19-9.12,4.4-22.39,6.88-32.52,7.91-29.79,3.02-76.81,2.35-104.59-8.79-5.7-2.28-13.88-8.81-19.86-8.75-2.58.03-1.26,2.31-1.41,2.46-.42.43-1.99.51-3.09,1.33-.4.3-.2,1.4-.27,1.44-.42.26-1.76-1.43-2.62-1.75-4.61-6.05-2.6-8.57,0-14.94Z" fill="#112378"/><path d="M501.86,472.85c-1.3,7.51-2.69,15.2-8.14,20.74-.2.2-1.18-.36-1.91.33-1.42,1.34-3.24,4.6-4.89,6.17-2.06.56-2.54,1.37-3.52,1.76-.29.02-.59-.02-.88,0,.27-2.79-.39-1.28-1.97-1.21-13.25.55-24.06-.92-36.7-4.94-19.32-7.92-27.85-15.69-43.48-28.14-1.23-.98-2.33-2.12-3.1-3.5,27.78,11.14,74.8,11.81,104.59,8.79Z" fill="#17c37b"/><path d="M496.58,444.73c3.9-.62,6.91-1.12,10.98-.86,9.06.58,17.17,5.65,26.37,4.37l-.43,3.52-1.74-2.63-1.77,2.18,1.76,2.19c-5.66.67-10.97,3.74-16.31,5.23-31.92,8.92-72.39,8.03-103.9-2.36-1.49-.49-4.21-.54-3.71-2.86,2.12.06,7.34.25,9.1.03.61-.08.45-1.55,1.19-1.76,13.41-3.82,35.31-8.32,48.93-6.96,4.52.45,10.44,3.32,14.19,3.45,3.98.14,10.59-2.8,15.36-3.56Z" fill="#112378"/><path d="M370.02,443.85c-2.6,6.37-4.61,8.9,0,14.94-1.18-.43-2.22.64-4.41-2.19-5.16-6.65-.21-9.62,4.41-12.75Z" fill="#64c2ad"/><path d="M443.85,495.7c12.64,4.02,23.45,5.49,36.7,4.94,1.58-.07,2.24-1.58,1.97,1.21-15.74.88-24.32-.27-38.67-6.15Z" fill="#17c37b"/><path d="M503.61,498.34c-.84-1.69-2.96-.51-4.24-.31-3.88.61-8.8,1.06-12.45,2.06,1.65-1.57,3.47-4.83,4.89-6.17.73-.69,1.71-.13,1.91-.33,5.45-5.54,6.84-13.24,8.14-20.74,10.13-1.03,23.4-3.51,32.52-7.91-3.29,15.49-15.54,28.7-30.76,33.4Z" fill="#112378"/><path d="M503.61,498.34c-5.83,1.8-14.11,3.11-20.21,3.52.97-.39,1.46-1.19,3.52-1.76,3.66-1,8.57-1.46,12.45-2.06,1.28-.2,3.4-1.38,4.24.31Z" fill="#112378"/><path d="M614.35,369.14c-4.52,2.12-8.86,4.5-13.6,6.16-18.93,6.62-48.87,6.48-66.6-1.14-3.99-1.72-8.13-3.2-12.08-5.02,4.49,10.24,4.39,16.87.33,27-.2.5.54,1.59.37,1.86-.16.25-1.69.6-2.45,1.44-4.45,4.88-8.06,8.79-14.09,11.41-7.51,3.26-18.37,2.55-26.35,1.35-.93-.91,8.13-4.82,9.07-5.42,3.72-2.39,8.55-7.68,11.68-9.41,2.01-1.11,5.02-.2,4.75-2.73,2.86.69.2,2.79,1.3,4.38,10.54-7.38,12.01-20.02,5.2-30.68-1.16-1.82-2.89-2.44-3.88-3.6-1.85,12.38-10.08,29.24-25.1,27.32-1.56-.2-1.16-1.59-1.93-1.77-3.6-.85-8.16-.31-11.04-.96-.66-.15-.53-1.56-1.2-1.72-9.18-2.2-25.77,5.07-34.11,9.36l-6.6-4.98c1.66,7.03,6.08,9.54,13.45,7.89.71-.16.63-1.57,1.7-2,7.35-2.91,15.61-4.58,23.27-1.7,1.78.67,11.14,6.59,9.04,8.97-6.24,1.11-11.16-1.19-17.81.22-4.56.96-7.62,3.96-11.2,5.06,7,3.87,21.7,3.36,24.81,12.54.79,2.32.31,5.61.87,6.61,1.89,3.39,14.25-.35,18.73.16,2.32.27,7.81,2.34,8.77,4.43.57,1.26-1.08,9.28-3.09,10.53,3.9-.62,6.91-1.12,10.98-.86,9.06.58,17.17,5.65,26.37,4.37l-.43,3.52c1.9.7,6.71-2.4,7.98-3.95,2.69-3.31,1.44-1.72,5.12-4.49,2.41-1.81.87-3.74,5.79-3.95,8.01-.34,10.39,4.94,10.86,11.99l-4.72,4.57-4.21-3.19c-6.27,3.53-13.64,9.15-19.94,12.19-3.29,15.49-15.54,28.7-30.76,33.4-5.83,1.8-14.11,3.11-20.21,3.52-10.34,4.11-12.84,3.15-23.28,4.4-4.47.54-17.88,1.37-14.09,8.8.67,1.31,12.2,6.37,14.29,6.81,15.92,3.3,35.28-.08,49.38,9.51,12.57,8.56,6.69,19.87,4.39,32.2-9.65,18.21-24.13,23.72-42.3,30.65-1.84.7-3.96,4.42-8.11,1.65l-1.03,1.85c-4.48-2.42-4.72.66-5.34.82-2.61.67-5.6-1.3-7.61-.91-.55.1.01,1.59-4.98,1.79.54,1.88,2.29,1.63,3.78,1.94,13.82,2.88,23.66,4.43,37.87,1.48,59.6-12.35,106.63-85.22,120.69-140.34,7.73-30.32,11.08-62.05,7.28-93.35ZM571.93,417.27c-14.5-2.54-31.2-23.51-36.67-37.16-.56-2.16,2.1-.6,2.98-.34,5.48,1.65,11.34,3.95,16.92,5.06,11.82,2.35,23.82-.23,34.59,5.4,4.89,2.78,3.6,11.53,1.76,15.82-3.33,7.75-11.05,12.71-19.57,11.22Z" fill="#cfd3e4"/><path d="M407.81,306.74c-.72-.72-1.96-4.91-3.58-6.53-.91-.92-10.08-6.23-10.47-5.78,11.02,29.88-37.09,32.97-29.89,1.77-1.51-1.13-30.94,12.19-36.03,10.53-2.09-1.99,9.14-12.53,11-14.04,17.05-13.88,47.59-16.68,66.93-6.32,4.25,2.28,4.84,5.68,9.07,7.18,1.36,2.68,3.14,6.59,5.15,8.3l-1.17,8.45c-1.02,1.78-9.96-2.52-11.01-3.57Z" fill="#112378"/><path d="M0,682.03V0h900v900h-49.22c-9.31-35.47-19.45-71.17-34.73-104.58-14.71-32.15-31.59-64.87-63.16-82.78-44.85-25.43-100.5-38.83-146.27-59.55-4.29-1.94-9.69-2.94-13.66-5.49-1.25-.8-17.01-15.59-17.68-16.6-1.42-2.13-1.7-6.23-2.71-8.71-4-9.76-8.29-17.94-16.08-25.26-.35-1.49,3.63-20.22,4.76-22.18,1.27-2.22,5.12-4.88,6.98-7.08,12.02-14.23,23.97-28.8,32.08-45.71,19.76,18.69,51.85,14.06,72.33-1.04,2.24-1.65,5.01-3.13,5.88-5.99.84-.13,4.37-1.55,4.38-2.2-1.38-1.44-3.26-3.52-5.26-3.96,3.76-1.18,7.41-1.16,11.42-2.2,12.62-3.28,24.75-10.69,31.63-21.97-2.61-3.33-6.67-1.64-10-2.29-7.71-1.5-15.71-5.12-20.74-11.33,9.73,3.63,19.98,3.54,29.84.39,7.86-2.51,17.8-10.46,20.15-18.54.46-1.6-1.11-1.57-2.09-1.62-9.3-.45-19.59,2.26-25.22-8.63-7.17-13.86,9.13-23.48,16.45-32.24,15.46-18.54,19.49-46.28,10.53-68.55-1.68-4.18-8.63-15.01-7.35-18.76.4-1.16,8.39-6.31,10.12-7.93,8.29-7.76,19.97-23,21.31-34.5.18-1.58.13-3.17.1-4.74-14.6-.38-29.16-2.92-42.51-8.91l-15.51-8.66h16.26c1.42,0,9.11-2.38,10.98-3.09,11.09-4.21,23.89-16.03,24.62-28.55-14.4,1.36-28.53,1.84-42.18-3.53l18.92-3.47c13.68-4.73,22.33-16.04,18.85-30.79-13.09,11.73-34.02,14.25-48.27,3.01-10.7-8.44-21.39-42.24-28.59-55.79-7.51-14.12-22.68-31.79-36.59-39.87-16.74-9.73-36.52-14.96-50.96-29.02-16.25-15.82-18.11-20.2-39.26-31.02-37.28-19.06-60.25-12.5-99.95-10.75-16.51.73-31.61-3.41-47.65-4.11-17.01-.74-38.86,1.95-54.77,8.04-3.33,1.27-8.2,4.89-11.2,5.5-5.38,1.1-11.59-.03-17.85,1.49-4.53,1.1-9.18,4.82-12.05,5.53-2.23.55-4.53-.12-6.72.31-17.53,3.5-39.99,15.91-49.04,31.82-1.94,3.41-4.8,13.58-6.25,15.29-1.63,1.92-15.2,9.87-18.63,12.57-34.48,27.15-56.19,69.05-53.23,113.84,1.79,26.95,15.14,53.25,14.09,80.82-.45,11.68-4.75,10.9-9.49,19.51-2.61,4.75-4.86,11.48-6.08,16.77-10.18,44.26,6.06,97.01,42.63,124.65-2.81,13.19-3.71,28.66-.46,41.88,1.93,7.83,9.52,19.31,18.01,20.67,21.46,3.44,23.93-33.37,23.94-47.52l6.16-4.13c4.04,9.52,4.69,16.5,4.4,26.8-.37,12.8-2.67,25.66-2.81,38.5-9.35,8.44-17.47,14.58-22.83,26.39-2.58,5.7-3.8,14.94-8.85,18.45-3.42,2.37-7.61,3.52-10.75,6.77-5.66,5.84-7.97,13.45-16.24,16.27-1.7.58-3.69.26-5.33.82-15.92,5.45-29.82,11.7-46.28,17.88-16.01,6-32.49,10.81-47.51,19.37-40.72-7.92-80.12,10.36-104.81,42.33Z" fill="#17c37b"/><path d="M431.54,664.45c-41.66-4.65-101.54-31.8-132.73-60.19-10.04-9.14-25.15-25.28-27.01-38.91-1.42-10.38,2.48-21.45,3.27-31.43.71-8.88-1-18,.9-26.79l17.2,26.29c7.39,8.59,14.28,17.59,22.34,25.56.06,1.57.94,2.72,1.73,3.98,11.25,18.02,33.75,36.14,51.6,47.72,14.08,9.13,55.65,28.56,61.11,42.6,1.3,3.33,1.66,7.6,1.57,11.17Z" fill="#fffbeb"/><path d="M275.98,296.19c4.02-1.13,7.09-2.59,11.72-1.79l4.1,6.18c5.19,33.96,7.47,55.83,37.79,75.59,13.15,8.57,24.14,13.09,40.43,14.06,8.92.53,20.2.36,29-.88,1.32-.19,5.82-2.74,5.27-.45-5.78,6.13-11.91,11.81-18.14,17.46-4.45,4.04-7.36,6.6-12.15,10.26-3.12,2.38-6.65,6.04-10.13,7.02,1.32,2.64,6.79,1.86,8.98.81,12.95-6.18,22.42-14.57,33.68-25.38,4.06-3.89,7.96-8.25,11.82-12.35-2.02,9.24,2.75,18.78,11.7,22.13,4.12,1.54,12.17,2.91,16.42,1.6,7,3.87,21.7,3.36,24.81,12.54.79,2.32.31,5.61.87,6.61,1.89,3.39,14.25-.35,18.73.16,2.32.27,7.81,2.34,8.77,4.43.57,1.26-1.08,9.28-3.09,10.53-4.77.76-11.38,3.7-15.36,3.56-3.75-.13-9.67-3-14.19-3.45-13.63-1.36-35.53,3.14-48.93,6.96-.74.21-.58,1.68-1.19,1.76-1.76.22-6.98.03-9.1-.03-5.65-.16-11.36-.43-16.9-1.82-4.53-4.08-9.6-4.3-8.59-12.24-5.47-.8-8.3,1.68-12.3,4.39-4.62,3.14-9.57,6.1-4.41,12.75,2.19,2.83,3.23,1.76,4.41,2.19.86.32,2.2,2.01,2.62,1.75.06-.04-.14-1.14.27-1.44,1.09-.82,2.67-.89,3.09-1.33.14-.15-1.17-2.43,1.41-2.46,5.99-.06,14.17,6.47,19.86,8.75.77,1.37,1.87,2.52,3.1,3.5,15.64,12.46,24.17,20.23,43.48,28.14,14.35,5.88,22.93,7.03,38.67,6.15.29-.02.59.02.88,0-10.34,4.11-12.84,3.15-23.28,4.4-4.47.54-17.88,1.37-14.09,8.8.67,1.31,12.2,6.37,14.29,6.81,15.92,3.3,35.28-.08,49.38,9.51,12.57,8.56,6.69,19.87,4.39,32.2-9.65,18.21-24.13,23.72-42.3,30.65-1.84.7-3.96,4.42-8.11,1.65l-1.03,1.85c-4.48-2.42-4.72.66-5.34.82-2.61.67-5.6-1.3-7.61-.91-.55.1.01,1.59-4.98,1.79-10.64.41-24.58-4.36-34.73-7.89-63.62-22.15-114.43-57.99-137.25-123.78-5.14-14.82-6.97-31.06-14.79-44.97.3,5.17,3.02,13.78,2.01,18.68-.47,2.3-6.95,15.03-10.35,12.06,2.49-9.98.06-31.31-13.63-30.83-12.04.42-16.04,19.3-18.44,19.31-29.43-23.12-45.4-66.15-37.1-102.91,2.87-12.68,12.17-33.28,27.42-33.27,12.24,0,25.39,12.71,31.18,22.67,3.73,6.41,5.21,17.21,14.42,17.87,3.63-6.23,1.15-13.09,1.39-19.88.27-7.43,1.05-15.83,1.79-23.25,6.78-1.54,12.64-5.14,19.34-7.03ZM221.48,358.59c-19.61,11.53-13.63,54.35,11.82,50.04,9.44-1.6,1.63-8.78-.19-13.77-5.09-13.91,1.21-14.62,2.92-25.68,2.44-15.75-19.62-54.05-37.85-38.73-9.49,7.98-10.37,27.6-7.45,38.68,3.64.11,2.47-3.92,2.63-6.15,2.12.47,1.82-1.08,2.48-2.31,7.59-14.19,15.38-14.96,25.65-2.08Z" fill="#fffbeb"/><path d="M526.46,230.27c-5.11-1.83-9.18-3.54-14.06-6.15-12.7-6.79-26.84-16.36-37.79-26.37-2.39-2.18-4.81-4.24-7.07-6.58-1.96-2.03-4.9-4.99-6.11-7.48-25.42-25.04-31.96-55.68-72.84-63.62-20.4-3.96-37.99-1.22-58.12-1.42-7.84-.08-18.71-1.63-26.37-3.52l6.15,7.9c-1.85-.37-3.58,1.37-5,1.54-1.03.12-1.87-.67-2.03-.65-10.96,1.43-18.39,10.84-26.87,17.52l-6.52,9.73c4.92-2.17,10.74-5.5,15.81-7.03-.47-2.26,1.1-1.8,2.4-2.39,2.17-.98,10.01-5.01,11.65-3.76l-3.47,4.88c-.6.97-2.05,1.47-2.68,2.15-12.46,13.52-25.17,29.36-32.11,46.55-.29.72-.98,2.38.03,2.66,6.04-4.31,10.88-10.06,16.26-14.94.53-.48.69-1.95,2.19-1.77,1.43-.12,1.48-.13,1.29,1.28-1.98,14.51-4.37,28.59-8.28,42.71-3.9,14.07-8.46,23.69-14.68,36.3-2.03,4.11-2.24,9.22-6,12.02,5.16-1.58,9.68-5.29,14.33-8.08,1.32-.79,3.43-.84,5.19-1.87,3.02-1.75,6.73-7.31,9.54-8.89,7.18-4.03,18.1-4.6,25.17-7.34,5.61-2.17,10.82-8.12,18.25-10.76,23.86-8.46,94.73-5.22,111.58,15.9,4.24,5.31,10.09,14.45,15.87,18.4,1.33.91,2.02,1.23,3.57,1.7,5.85,1.81,23.72,2.15,29.48.38,3.26-1,3.33-2.29,5.19-3.85.77-3.95,4.31-8.88,7.06-11.84,6.16-6.62,21.21-16.34,30.41-17.77,1.84-.29,3.4,2.07,4.23-1.03l3.14.35.86-2.23c-3.5.14-6.52-1.51-9.66-2.64Z" fill="#fffbeb"/><path d="M414.84,293.55c-4.23-1.5-4.82-4.9-9.07-7.18-19.35-10.37-49.88-7.56-66.93,6.32-1.86,1.51-13.09,12.05-11,14.04,5.09,1.65,34.52-11.66,36.03-10.53-7.2,31.2,40.91,28.11,29.89-1.77.39-.45,9.56,4.86,10.47,5.78,1.62,1.62,2.86,5.81,3.58,6.53-1.81,6.9-4.72,13.52-10.53,18.04-3.31,2.58-8.06,3.24-9.84,6.46l-2.35-.57-.63,1.62-2.13-.93.93,3.5c3.78-1.03,7.91-.47,11.7-.97,3.03-.4,13.88-5.17,16.66-7.06,3.45-2.35,5.7-6.31,9.43-8.38l4.62-10.09,5.88-20.05c5.46,1.1,5.29,9.54,5.26,14.06-.1,14.12-9.95,42.14-21.44,50.61-20.17,14.85-56.95,15.14-79.09,4.66-9.6-4.55-15.33-12-19.68-21.63-3.21-7.12-5.48-18.78-5.48-26.6,0-6.14,1.16-13.53,2.57-18.25,2.03-6.83,1.63-19.64,9.7-21.75,17.54-4.6,50.68-3.47,68.18,2.18,15.21,4.91,16.56,8.81,23.26,22.01Z" fill="#fffbeb"/><path d="M433.3,367.38c2.39-7.92,6.85-12.56,10.7-19.62,8.06-14.82,12.23-30.57,19.21-45.83,5.67-3.78,14.43-3.46,18.3,2.73,3.02,4.83,6.13,12.33,8.04,17.89,5.53,16.11,6.91,28.7,18.46,42.19-1.85,12.38-10.08,29.24-25.1,27.32-1.56-.2-1.16-1.59-1.93-1.77-3.6-.85-8.16-.31-11.04-.96-.66-.15-.53-1.56-1.2-1.72-9.18-2.2-25.77,5.07-34.11,9.36l-6.6-4.98c-2.66-11.25,2.66-13.47,5.57-22.18.41-1.22-.33-2.31-.29-2.43Z" fill="#fffbeb"/><path d="M584.47,312.89l.88,1.74c-2.15-.1-2.56,1.74-3.52,2.66-1.56,1.99-6.73.57-6.16,3.51,5.31.23,10.06,2.73,14.95,4.4,8.05,6.09,9.04,15.55,5.89,24.78-1.33,3.9-5.4,7.35-6.76,11.25-15.05,3.97-47.15,3.98-59.77-6.15-2.05-1.64-12.15-13.56-13.08-15.66-1.96-4.42-2.07-9.45-1.86-14.22,11.58.28,23.35-1,34.71,1.78l.37-2.56c-4.64-1.3-9.27-3.05-13.98-4.12-4.32-.99-3.92-.22-8.6-2.04-3.41-1.33-7.93-1.63-9.86-5.35,4.43-.3,10.78-3.12,15.66-4.12,10.55-2.16,21.36-3.01,32-.92,7.17,1.41,11.32,4.67,19.14,5.03Z" fill="#fffbeb"/><path d="M589.75,390.23c4.89,2.78,3.6,11.53,1.76,15.82-3.33,7.75-11.05,12.71-19.57,11.22-14.5-2.54-31.2-23.51-36.67-37.16-.56-2.16,2.1-.6,2.98-.34,5.48,1.65,11.34,3.95,16.92,5.06,11.82,2.35,23.82-.23,34.59,5.4Z" fill="#fffbeb"/><path d="M554.59,275.98c5.55-.08,12.23.23,17.58,1.76,11.95,3.41,15.42,12.23,8.79,22.85-15.75-7.46-46.65-8.93-62.4-.88-1.77-.54,0-2.63.43-3.53,6.63-14.16,20.25-19.99,35.61-20.2Z" fill="#fffbeb"/><path d="M614.8,271.58c-.99-.83-1.43-2.13-3.08-1.75,2.72,2.54,5.26,6.95,6.57,10.56.83,2.27,4.12,15.36,4.06,16.23-.16,2.71-1.6,3.77-1.8,5.32-1.13,8.89-1.23,17.89-3.94,26.82-1,3.28-3.62,8.6-5.76,11.37-.37-3.75-.46-8.09-1-11.75-.85-5.76-4-15.67-4.23-20.39-.23-4.71,3.92-18.79,4.33-25.44.28-4.47.9-14.02-4.32-15.84-5.7-1.99-18.05-3.53-24.24-3.91-17.52-1.07-46.65-.96-61.95,5.01-8.19,3.19-12.38,6.06-14.69,15.02-6,23.3,1.6,54.05,20.42,69.59,1.4,1.16,2.96,2.35,4.81,2.66-2.05-1.64-12.15-13.56-13.08-15.66-1.96-4.42-2.07-9.45-1.86-14.22,11.58.28,23.35-1,34.71,1.78l.37-2.56c-4.64-1.3-9.27-3.05-13.98-4.12-4.32-.99-3.92-.22-8.6-2.04-3.41-1.33-7.93-1.63-9.86-5.35-12.21.82-5.98-9.68.88-13.18-1.77-.54,0-2.63.43-3.53,6.63-14.16,20.25-19.99,35.61-20.2,5.55-.08,12.23.23,17.58,1.76,11.95,3.41,15.42,12.23,8.79,22.85,1.68.8,3.72,2.86,5.37,3.86,2.58,1.56,11.04,3.25,4.61,7.44-2.82,1.84-3.83,1.13-6.46,1.01l.88,1.74c-2.15-.1-2.56,1.74-3.51,2.66-.17.17-.36.33-.55.48-1.96,1.27-6.12.37-5.6,3.03,5.31.23,10.06,2.73,14.95,4.4,8.05,6.09,9.04,15.55,5.89,24.78-1.33,3.9-5.4,7.35-6.76,11.25,3.31-.88,11.73-4.83,14.87-6.66,11.71-6.82,19.57-23.48,21.8-37.08,2.64-16.11,1.72-34.66-11.61-45.91Z" fill="#cfd3e4"/><path d="M0,682.03c24.68-31.98,64.09-50.26,104.81-42.33,15.01-8.56,31.49-13.37,47.51-19.37,16.46-6.17,30.37-12.43,46.28-17.88,1.64-.56,3.63-.24,5.33-.82,8.28-2.83,10.59-10.44,16.24-16.27,3.15-3.25,7.33-4.4,10.75-6.77,5.05-3.5,6.27-12.74,8.85-18.45,5.35-11.81,13.48-17.95,22.83-26.39.14-12.84,2.44-25.7,2.81-38.5.3-10.3-.35-17.28-4.4-26.8l-6.16,4.13c-.01,14.15-2.48,50.96-23.94,47.52-8.5-1.36-16.09-12.84-18.01-20.67-3.25-13.22-2.35-28.69.46-41.88-36.57-27.64-52.81-80.39-42.63-124.65,1.22-5.29,3.46-12.03,6.08-16.77,4.74-8.61,9.04-7.83,9.49-19.51,1.05-27.57-12.3-53.87-14.09-80.82-2.97-44.79,18.75-86.69,53.23-113.84,3.43-2.7,17-10.65,18.63-12.57,1.45-1.71,4.31-11.88,6.25-15.29,9.05-15.91,31.5-28.32,49.04-31.82,2.18-.44,4.49.24,6.72-.31,2.87-.71,7.52-4.44,12.05-5.53,6.26-1.51,12.47-.39,17.85-1.49,3-.61,7.87-4.22,11.2-5.5,15.91-6.09,37.76-8.77,54.77-8.04,16.04.69,31.14,4.83,47.65,4.11,39.69-1.75,62.67-8.31,99.95,10.75,21.14,10.81,23,15.19,39.26,31.02,14.44,14.06,34.22,19.29,50.96,29.02,13.91,8.09,29.08,25.75,36.59,39.87,7.2,13.55,17.89,47.35,28.59,55.79,14.25,11.24,35.17,8.72,48.27-3.01,3.48,14.76-5.17,26.07-18.85,30.79l-18.92,3.47c13.65,5.37,27.79,4.89,42.18,3.53-.73,12.52-13.53,24.34-24.62,28.55-1.87.71-9.56,3.09-10.98,3.09h-16.26l15.51,8.66c13.35,5.99,27.91,8.53,42.51,8.91.03,1.58.08,3.16-.1,4.74-1.34,11.5-13.02,26.74-21.31,34.5-1.74,1.63-9.73,6.77-10.12,7.93-1.28,3.74,5.66,14.58,7.35,18.76,8.97,22.27,4.94,50.01-10.53,68.55-7.31,8.77-23.61,18.38-16.45,32.24,5.63,10.89,15.92,8.18,25.22,8.63.98.05,2.55.02,2.09,1.62-2.34,8.08-12.28,16.04-20.15,18.54-9.86,3.14-20.11,3.24-29.84-.39,5.04,6.21,13.03,9.82,20.74,11.33,3.33.65,7.4-1.04,10,2.29-6.88,11.28-19.01,18.69-31.63,21.97-4.01,1.04-7.66,1.02-11.42,2.2-7.43-1.63-12.91-.47-21.32-3.73-6.35-2.46-10.69-6.84-16.45-9.91,4.5,8.6,13.14,14.22,22.13,17.42,5.03,1.79,10.77,3.26,16.53,2.37-.87,2.86-3.64,4.34-5.88,5.99-20.49,15.1-52.58,19.74-72.33,1.04-8.11,16.92-20.06,31.48-32.08,45.71-1.86,2.2-5.71,4.86-6.98,7.08-1.12,1.96-5.1,20.69-4.76,22.18,7.79,7.31,12.08,15.5,16.08,25.26,1.02,2.48,1.29,6.58,2.71,8.71.67,1.01,16.43,15.8,17.68,16.6,3.97,2.54,9.38,3.55,13.66,5.49,45.77,20.72,101.41,34.11,146.27,59.55,31.58,17.91,48.46,50.62,63.16,82.78,15.28,33.41,25.41,69.11,34.73,104.58h-126.56c.37-2.84-.48-5.4-1.13-8.1-2.98-12.21-7.74-27.19-11.8-39.18-12.53-37-30.31-74.26-53.42-105.64-2.17-.03-1.17,13.09-1.33,15.35-2.27,31.75-10.39,67.2-26.53,94.76-9.45,16.14-22.42,29.2-34.99,42.8h-104.59l22.64-5.92c45.19-13.48,87.27-41,105.69-85.91,13.46-32.82,14.01-69.71-.02-102.4-1.65-.18-.71,1.84-.62,2.81,8.1,85.31-57,155.63-142.25,154.53-105.64-1.37-223.37-100.93-260.09-196.91-5.84-15.27-10.58-30.9-10.57-47.46-18.98,7.68-38.59,13.78-57.53,21.57-4.92,2.02-12.99,4.85-17.23,7.35-.8.48-1.73-.44-1.25,1.83,20.82,8.51,39.17,26.89,52.2,44.93,22.93,31.76,35.33,73.91,38.32,112.85,1.87,24.39,1.24,49.06-6.13,72.5,20.72-16.08,27.16-40.92,29.88-65.92,2.29,1.75,3.64,5.98,4.81,8.8,10.69,25.8,3.2,57.09-15.37,77.33h-84.38c-14.34-37.29-36.78-71.49-66.78-98.01-3.69-3.26-25.74-18.68-26.37-20.21-.68-1.66,1.02-1.28,1.92-1.55,5.08-1.54,15.87-1.38,21.34-.61,30.43,4.27,56.74,26.05,74.3,50.06,1.89-.06-.41-4.21-.74-4.98-11.65-27.34-51.45-70.38-78.19-83.53-11.22-5.52-21.48-6.06-32.08-10.1-3.89-1.49-8.25-4.09-2.01-6.04,63.92-19.99,126.29,46.54,144.45,101.78l7.22,24.85c4.63-38.28-.91-80.95-15.65-116.61-21.81-52.76-73.05-100.25-132.89-69.29-19.05,9.85-29.87,24.67-43.05,40.89v-24.61ZM538.77,180.18c-58.4-47.22-45.17-128.88-132.53-143.01-12.52-2.02-22.33-1.37-34.47,1.93-30.35,8.25-53.41,26.64-48.32,61.09l3.78-11.58c16.24-35.67,69.28-48.51,101.07-26.92,20.64,14.02,30.83,46.39,44.18,67.44,17.82,28.08,41.15,48.93,71.56,62.48,9.7,4.32,19.56,8.23,29.87,10.99l-35.14-22.42ZM556.86,67.17c-13.38-12.73-31.79-24.47-49.88-28.78-13.71-3.26-27.22-2.66-41.15-1.46l44.53,13.02c31.09,13.29,59.29,37.42,75.88,66.94,1.7.2.48-1.6.24-2.44-1.8-6.44-6.42-15.06-9.77-21-5.37-9.51-11.96-18.78-19.86-26.29ZM320.79,48.32l-.42-1.73c-20.16,7.53-35.21,28.07-22.07,48.9.74,1.18,5.53,4.84,6.68,3.82-4.24-18.51-.49-36.93,13.65-50.11.69-.64,2.08-.76,2.17-.87ZM431.53,108.11c-1.89-17.92-16.63-34.91-34.24-39.14-16.77-4.03-38.37,5.06-45.6,21.28-.2,2.53-.1,1.39.92.24,9.08-10.31,31.37-17.62,44.87-14.66,10.64,2.34,17.7,9.76,24.76,17.42l9.29,14.87ZM295.31,118.65c1.05.63,1.84,1.69,3.29,2.41,2.09,1.04,5.27.33,4.62,2.86-10.96,1.43-18.39,10.84-26.87,17.52l-6.52,9.73c4.92-2.17,10.74-5.5,15.81-7.03,3.71-1.12,4.45-.87,7.91.88-12.46,13.52-25.17,29.36-32.11,46.55-.29.72-.98,2.38.03,2.66,6.04-4.31,10.88-10.06,16.26-14.94-1.3,5.88-1.74,12.72-3.03,18.51-4.87,21.82-15.47,46.49-25.17,66.93-.38.8-1.46.71-2.15,2.4-.8,1.97-1.1,4.18-.41,6.19,1.36.33.55-1.23,1.44-1.78,1.12-.69,2.3-.6,3.82-1.73,5.16-1.58,9.68-5.29,14.33-8.08,1.32-.79,3.43-.84,5.19-1.87,3.02-1.75,6.73-7.31,9.54-8.89,7.18-4.03,18.1-4.6,25.17-7.34,5.61-2.17,10.82-8.12,18.25-10.76,23.86-8.46,94.73-5.22,111.58,15.9,4.24,5.31,10.09,14.45,15.87,18.4,1.33.91,2.02,1.23,3.57,1.7,5.85,1.81,23.72,2.15,29.48.38,3.26-1,3.33-2.29,5.19-3.85,10.82-9.09,16.92-15.8,30.09-21.15,25.13-10.2,50.6-8.31,77.16-2.17,3.79.88,8.39,4.55,12.26.9-1.17-3.04-2.82-2.3-3.91-3.05-19.27-13.25-31.79-9.82-53.56-13.3-54.72-8.76-81.1-35.94-111.65-79.04-12.58-17.74-18.66-27.3-41.77-32.97-6.83-1.68-32.07-4.43-38.1-3.02-.71.17-.28,1.67-1.88,1.83-3.96.39-5.27.01-9.8.71-6.24.96-13.28,1.31-18.81,4.48-7.84-.08-18.71-1.63-26.37-3.52-1.72-.42-3.87-2.11-6.15-1.76-4.49-3.41-8.88-7.29-12.67-11.5l-7.54-14.86c-1.9,13.82,6.3,24.83,17.57,31.64ZM541.92,133.96c-13.57-12.13-24.9-26.43-34.8-41.67-1.93-.03-.34,1.52-.04,2.24,10.68,25.73,31.57,52.23,55.49,66.68,15.27,9.22,31.82,14.16,47.7,21.73,7.81,3.73,15.2,8.07,22.53,12.62-12.76-19.68-36.29-26.59-55.94-37.21-12.93-6.99-24.01-14.63-34.93-24.39ZM261.91,120.42c-24.96-.06-47.91,24.82-51.84,48.33l11.44-16.23c7.93-9.12,16.27-17.77,26.06-24.92l14.34-7.18ZM218.84,201.26c2.23-6.55,7.27-11.81,10.92-17.65,6.51-10.42,13.18-21.74,17.2-33.32-14.54,10.79-26.42,30.01-28.76,48.14-.12.95-.98,3.02.63,2.82ZM613.92,152.05v.88c.57-.29.57-.59,0-.88ZM674.11,210.93c-6.01-28.46-30.81-51.34-58.88-57.99,15.84,11.12,32.97,20.65,44.8,36.49l14.08,21.5ZM662.69,276.85c1.58-34.45-27.7-65.57-59.75-73.81l25.02,18.47c9.53,8.8,18.05,18.6,24.65,29.84l10.08,25.5ZM683.79,297.95c2.22-17.94.54-37.97-10.53-52.73,1.83,9.7,5.24,19.03,6.77,28.82,1.18,7.53.71,15.49,2.04,22.59.27,1.43-.59,1.52,1.72,1.32ZM436.82,302.34c1.46-.91.88-3.34.89-4.82.34-27.06-8.2-31.32-33.27-35.39-21.37-3.47-50.01-5.69-71.67-2.75-12.02,1.63-15.69,3.86-19.63,15.53-2.45,7.25-3.97,14.94-3.76,22.59.09,3.23.95,8.65,1.75,11.87,0,7.82,2.27,19.47,5.48,26.6,4.35,9.64,10.08,17.09,19.68,21.63,22.13,10.49,58.92,10.2,79.09-4.66,11.49-8.46,21.34-36.49,21.44-50.61ZM589.75,361.23c3.31-.88,11.73-4.83,14.87-6.66,11.71-6.82,19.57-23.48,21.8-37.08,2.64-16.11,1.72-34.66-11.61-45.91-.99-.83-1.43-2.13-3.08-1.75,2.72,2.54,5.26,6.95,6.57,10.56.83,2.27,4.12,15.36,4.06,16.23-.16,2.71-1.6,3.77-1.8,5.32-1.13,8.89-1.23,17.89-3.95,26.82-1,3.28-3.62,8.6-5.76,11.37-.37-3.75-.46-8.09-1-11.75-.85-5.76-4-15.67-4.23-20.39-.23-4.71,3.92-18.79,4.33-25.44.28-4.47.9-14.02-4.32-15.84-5.7-1.99-18.05-3.53-24.24-3.91-17.52-1.07-46.65-.96-61.95,5.01-8.19,3.19-12.38,6.06-14.69,15.02-6,23.3,1.6,54.05,20.42,69.59,1.4,1.16,2.96,2.35,4.81,2.66,12.61,10.13,44.72,10.13,59.77,6.15ZM256.64,301.46c-.07.57.06,1.18,0,1.76-.74,7.42-1.53,15.82-1.79,23.25-.24,6.79,2.23,13.65-1.39,19.88-9.21-.66-10.69-11.46-14.42-17.87-5.79-9.96-18.93-22.67-31.18-22.67-15.25,0-24.56,20.59-27.42,33.27-8.31,36.76,7.67,79.79,37.1,102.91,2.4-.01,6.4-18.9,18.44-19.31,13.69-.47,16.12,20.86,13.63,30.83,3.4,2.97,9.88-9.76,10.35-12.06,1-4.9-1.71-13.5-2.01-18.68,7.81,13.91,9.65,30.15,14.79,44.97,22.83,65.79,73.64,101.63,137.25,123.78,10.15,3.53,24.1,8.3,34.73,7.89.54,1.88,2.29,1.63,3.78,1.94,13.82,2.88,23.66,4.43,37.87,1.48,59.6-12.35,106.63-85.22,120.69-140.34,7.73-30.32,11.08-62.05,7.28-93.35-4.52,2.12-8.86,4.5-13.6,6.16-18.93,6.62-48.87,6.48-66.6-1.14-3.99-1.72-8.13-3.2-12.08-5.02,4.49,10.24,4.39,16.87.33,27-.2.5.54,1.59.37,1.86-.16.25-1.69.6-2.45,1.44-4.45,4.88-8.06,8.79-14.09,11.41-7.51,3.26-18.37,2.55-26.35,1.35-.93-.91,8.13-4.82,9.07-5.42,3.72-2.39,8.55-7.68,11.68-9.41,2.01-1.11,5.02-.2,4.75-2.73,2.86.69.2,2.79,1.3,4.38,10.54-7.38,12.01-20.02,5.2-30.68-1.16-1.82-2.89-2.44-3.88-3.6-11.55-13.49-12.93-26.08-18.46-42.19,1.38-.6.21-2.85,0-3.93-2.99-14.94-3.76-25.24-22.39-23.3-7.94.83-6.15,3.3-10.03,8.57-5.67,19.77-13.24,46.69-28.66,59.96-10.85,9.34-31.44,18.41-44.84,19.31-2.07.14-4.55-1.49-6.88-.87-.94.25.02,2.65-2.32,1.78v-1.75s-1.45,1.78-1.45,1.78l-6.97.06-2.12-1.84-.02,1.76-1.43-1.81c-2.37-.18-4.37.94-6.78.87-4.21-.12-12.78-3.12-16.21-4.25-3.18-1.05-6.54-2.14-9.86-2.72-30.32-19.76-32.61-41.62-37.79-75.59-.62-4.07.07-15.01-5.02-16.51-10.05-2.96-19.16,10.29-29.32,10.85-.64.6-.66,5.18-.82,6.54ZM711.04,311.14c2.72,19.73,5.44,39.24,1.49,59.06-2.09,10.46-6.64,19.98-10.73,29.69,23.61-24.13,22.51-56.64,10.77-86.34-.37-.93-.26-2.62-1.52-2.41ZM658.29,468.45c-6.52-14-6.86-30.51-2.66-45.29,2.36-8.3,7.28-16.26,9.95-24.33,6.16-18.6,5.65-38.45-5.09-55.18-.5,5.66,1.84,11.36,2.24,17.1,2.09,30.26-8.2,39.77-13.52,65.67-.44,2.16-1.49,4.36-1.53,4.62-1.46,11.09,1.32,24.74,7.4,34.06.62.94,2.2,2.77,3.21,3.35ZM234.66,441.21c-3.11-2.96-7.32,9.32-7.85,11.04-3.76,12.17-5.11,25.47-.88,37.68,2.47,7.14,6.61,11.84,7.76.84.77-7.34.47-16.05.98-23.63.61-9.03,3.23-16.45-.01-25.94ZM639.4,493.07v.88c.57-.29.57-.59,0-.88ZM315.53,558.98c-8.06-7.97-14.95-16.97-22.34-25.56l-17.2-26.29c-1.91,8.78-.19,17.91-.9,26.79-.8,9.98-4.69,21.05-3.27,31.43,1.86,13.63,16.96,29.77,27.01,38.91,31.19,28.39,91.06,55.54,132.73,60.19,30.45,3.4,89.64,3.92,102.63-30.52,2.82-7.47,3.54-14.94,4.68-22.56.68-4.54,2.61-8.73,1.66-13.71-1.37-.34-.63,1.3-1.45,1.78-59.41,34.43-106.44,26.29-165.29-2.42-20.52-10.01-42.1-22.08-58.24-38.03ZM283.32,614.05c-8.5-8.7-23.12-29.1-26.72-40.51-.6-1.9-1.49-11.02-3.03-11.02-8.71,11.16-4.96,32.33.01,44.79,34.77,87.1,212.96,138.34,285.61,74.7,10.55-9.24,20.47-24.81,21.54-39.11.07-.97.65-3.27-.86-3.05-8.91,31.85-46.11,47.27-76.27,51.61-54.61,7.87-118.56-20.59-163.6-49.49-11.44-7.34-27.3-18.31-36.68-27.92ZM247.17,658.08l4.17.69,6.04-6.02c-10.46-19.29-18.96-38.68-23.14-60.37-1.56,1.36-2.69,2.75-3.03,4.88-1.1,6.92.96,15.06,2.07,20.61,2.25,11.22,5.81,24.31,11.02,34.53.61,1.19,3.41,1.88,2.87,5.67ZM244.34,665.32c.96-1.06-6.19-12.98-7.17-15.23-6.43-14.78-9.55-30.5-12.6-46.28-6.63,8.48-4.65,20.16-2.82,30.06,1.26,6.81,8.48,32.2,13.35,35.93.45.35.7.89,1.38.46,3.03-1.31,4.25-5.19,7.86-4.94ZM584.47,705.77c1.85-13.87.92-30.34-4.6-43.3-.74-1.74-1.4-4.23-3.3-5.04.12,9.21,1.54,18.47.91,27.72-.21,3.16-2.77,13.21-2.46,14.8.42,2.19,8.49,6.78,9.45,5.82ZM280.74,684.3c-6.19-7.5-11.68-15.55-17.97-22.98l-1.13-.27-8.08,6.93c10.07,16.47,21.83,31.82,34.74,46.18.66.59,1.07.35,1.74,0,2.11-1.09,8.33-6.82,7.93-9.65s-14.22-16.58-17.22-20.22ZM588,661.82c1.31,9.47,4.03,18.94,4.33,28.54.23,7.47-1.05,14.42-.64,21.81,11.73,11.23,10.71,1.85,10.39-8.66-.35-11.49-4.78-27.77-10.73-37.58-.69-1.14-2.19-3.52-3.35-4.11ZM246.75,672.52c-.77.2-6.97,4.49-7.28,5.11-.87,1.75-.25,2.58.27,4.14,2.21,6.65,24,38.77,29.32,44.51,4.88,5.26,11.56-3.68,14.76-7.66l-34.8-46.18c-.78-.29-1.5-.12-2.27.08ZM548.8,702.61c-52.12,59.74-141.25,46.85-202.78,9.13l-43.68-27.94c20.96,27.75,51.09,48.72,82.91,62.54,28.38,12.32,53.23,16.91,84.28,11.92,36.03-5.8,79.49-28.27,88.14-66.54-3.22,3.46-5.77,7.34-8.87,10.9ZM570.95,744.99c3.06-4.82,11.37-23.39,11.61-28.49.11-2.44-4.37-6.47-6.44-6.82-4.23-.7-5.41,7.21-6.9,9.86-5.08,9.03-11.91,19.5-18.62,27.51-1.5,1.79-4.17,2.34-4.69,5.02,2.19,4.65,4.78,7.85,9.1,10.65,2.29-1.45,4.32-3.1,6.17-5.09,2.48-2.67,7.83-9.59,9.76-12.64ZM340.72,740.34c-6.97-5.7-15.31-10.5-22.13-16.11-2.93-2.41-8.8-11.37-12.91-10.38-3.26.78-7.7,5.16-10.32,7.39-.41,1.95,9.23,9.24,10.97,10.87,7.31,6.89,14.91,14.18,23.07,20.24,5.03,3.74,10.49,7.01,15.75,10.43,2.46.4,6.82-9.82,6.89-12.29-.59-2.48-7.47-5.98-9.71-7.83-.74-.61-1.01-1.83-1.6-2.31ZM599.22,725.28c-.29-.52-8.9-6.33-10.39-5.07-4.87,9.81-7.45,21.21-14.27,29.74-2.64,7.16-9.65,11.5-13.49,18.21l-.2,1.2c3.06,5.37,7.52,9.31,12.63,12.82,6.85-9.81,14.22-19.07,19.03-30.12,1.79-4.09,8.68-23.26,6.69-26.78ZM298.28,734.42c-1.45-1.43-4.4-5.4-5.58-6.17-3.75-2.44-16.25,6.56-11.91,11.74,10.58,9.07,19.3,20.06,29.9,29.05,2.24,1.9,6.37,5.16,8.81,7.01,4.45,3.35,9.44,8.65,14.82,5.2,1.52-.98,7.99-10.37,7.17-12.19-9.24-6.87-18.33-13.87-27.3-21.1-5.66-4.56-10.55-8.24-15.91-13.54ZM360.03,755.92c-.62.21-6.07,10.19-6.36,11.36-.1.4-.35.76-.22,1.2,9.96,7.17,22.12,13.36,33.56,18.29,4.72,2.03,15.23,6.98,19.72,7.59,1.33.18,2.28.54,3.3-.7,1.25-1.53,4.56-14.5,1.25-16.22-12.41-5.22-25.21-9.68-37.46-15.27-3.11-1.42-11.07-7.18-13.79-6.25ZM544.56,763.28c-2.64-2.52-5.88-6.3-9.54-5.51-3.01.65-14.16,8.72-18.2,10.85-7.05,3.72-14.27,6.9-21.87,9.32-1.46,2.36,5.33,13.39,6.17,16.44,3.45,2.17,24.87-9,29.14-11.45,4.58-2.63,11.28-6.9,15.35-10.16.66-.53,3.99-3.36,3.67-4.11-1.57-1.81-2.99-3.75-4.71-5.39ZM757.61,889.45c14.05-35.81,11.98-72.61-3.76-107.41l-11.16-20.02c4.71,20.68,8.27,41.71,10.53,62.84,2.2,20.52,2.73,40.95,3.52,61.53.04,1.07-.66,3.27.87,3.06ZM349.09,774.48l-9.76,14.46c-.2,1.13,1.32,2.29,2.13,2.95,4.55,3.73,15.38,9.49,20.94,12.46,12.57,6.71,25.79,12.05,39.04,17.3,1.05.34,1.71.07,2.44-.72,1.9-2.04,5.09-18.72,3.08-20.71l-57.87-25.74ZM565.74,790.75c.79-.91,1.29-2.02.75-3.22-.65-1.44-8.49-9.77-10.12-11.03-1.01-.77-2.52-2.32-3.85-2.05-13.5,11.96-30.1,19.45-46.62,26.33l-1.26,1.93c.12,2.16,7.83,16.99,9.55,17.77,2.96,1.34,10.74-3.03,13.91-4.53,10.23-4.86,22.59-12.46,31.3-19.68,1.38-1.14,5.46-4.49,6.34-5.51ZM426.94,780.77c-9.25-4.02-8.77,13-8.55,18.12,15.94,2.98,34.26,4.73,50.53,3.59,3.87-.27,19.67-2.44,22.61-3.55,1.6-.61,1.27-2.8.88-4.1-.24-.81-5.44-10.88-5.99-11.67s-.89-1.34-1.88-1.64c-3.28-1.01-16.27,2.21-20.93,2.46-7.75.43-31.48-.95-36.67-3.21ZM418.51,805.74l-1.01-1.53c-2.41,2.39-5.2,15.31-5,18.81.16,2.89,5.01,4.03,7.44,4.66,13.54,3.48,47.8,5.89,61.11,2.88.66-.15.54-1.58,1.2-1.73,4.74-1.07,23.73.83,22.11-7.27-.26-1.31-6.64-15.89-7.32-16.49-1.62-1.44-9-.6-11.24,0-1.6.44.67,1.42-5.23,2-11.55,1.14-24.74,3.15-36.22,2.4-8.65-.56-17.16-3.32-25.84-3.74Z" fill="#112378"/><path d="M232.91,900c18.57-20.24,26.06-51.53,15.37-77.33-1.17-2.82-2.53-7.05-4.81-8.8-2.72,25-9.17,49.84-29.88,65.92,7.38-23.44,8.01-48.11,6.13-72.5-2.99-38.94-15.39-81.1-38.32-112.85-13.03-18.04-31.37-36.42-52.2-44.93-.47-2.28.45-1.36,1.25-1.83,4.24-2.51,12.31-5.33,17.23-7.35,18.94-7.79,38.55-13.89,57.53-21.57-.01,16.55,4.73,32.19,10.57,47.46,36.72,95.98,154.45,195.55,260.09,196.91,85.24,1.1,150.35-69.22,142.25-154.53-.09-.97-1.04-2.99.62-2.81,14.04,32.69,13.48,69.58.02,102.4-18.42,44.91-60.5,72.44-105.69,85.91l-22.64,5.92H232.91ZM298.46,807.21c-44.65-42.98-71.46-97.94-111.27-144.04-1.22-1.42-2.72-3.07-4.36-3.98,7.49,15.53,18.07,29.5,25.94,44.81,4.14,8.06,7.1,16.82,11.09,24.94,28.72,58.35,71.51,113.94,138.38,128.81l7.39-.8c-2.58-.17-4.83-1.85-6.95-3.16-21.91-13.55-41.7-28.75-60.22-46.57Z" fill="#ccf1db"/><path d="M0,706.64c13.18-16.22,24-31.03,43.05-40.89,59.84-30.96,111.09,16.53,132.89,69.29,14.74,35.66,20.28,78.33,15.65,116.61l-7.22-24.85c-18.16-55.23-80.53-121.77-144.45-101.78-6.24,1.95-1.88,4.55,2.01,6.04,10.6,4.05,20.86,4.59,32.08,10.1,26.74,13.15,66.54,56.19,78.19,83.53.33.77,2.62,4.92.74,4.98-17.56-24.02-43.87-45.79-74.3-50.06-5.47-.77-16.26-.93-21.34.61-.9.27-2.59-.11-1.92,1.55.63,1.54,22.69,16.96,26.37,20.21,30,26.52,52.44,60.72,66.78,98.01H0v-193.36Z" fill="#ccf1db"/><path d="M724.22,900h-129.2c12.56-13.6,25.53-26.66,34.99-42.8,16.14-27.56,24.26-63.01,26.53-94.76.16-2.27-.84-15.39,1.33-15.35,23.11,31.38,40.89,68.64,53.42,105.64,4.06,11.99,8.81,26.96,11.8,39.18.66,2.69,1.5,5.25,1.13,8.1Z" fill="#ccf1db"/><path d="M283.32,614.05c9.39,9.61,25.24,20.58,36.68,27.92,45.04,28.9,109,57.36,163.6,49.49,30.17-4.35,67.37-19.76,76.27-51.61,1.51-.22.93,2.08.86,3.05-1.08,14.3-11,29.87-21.54,39.11-72.65,63.64-250.83,12.4-285.61-74.7-4.97-12.46-8.72-33.63-.01-44.79,1.54,0,2.43,9.12,3.03,11.02,3.61,11.41,18.23,31.82,26.72,40.51Z" fill="#ccf1db"/><path d="M548.8,702.61c3.1-3.55,5.65-7.43,8.87-10.9-8.65,38.27-52.11,60.74-88.14,66.54-31.05,4.99-55.9.41-84.28-11.92-31.82-13.82-61.95-34.79-82.91-62.54l43.68,27.94c61.53,37.72,150.66,50.62,202.78-9.13Z" fill="#ccf1db"/><path d="M418.51,805.74c8.68.42,17.19,3.17,25.84,3.74,11.48.75,24.67-1.27,36.22-2.4,5.9-.58,3.62-1.56,5.23-2,2.23-.61,9.62-1.44,11.24,0,.67.6,7.06,15.17,7.32,16.49,1.61,8.1-17.38,6.19-22.11,7.27-.66.15-.54,1.58-1.2,1.73-13.3,3.01-47.57.6-61.11-2.88-2.43-.62-7.28-1.77-7.44-4.66-.2-3.49,2.59-16.42,5-18.81l1.01,1.53Z" fill="#17c37b"/><path d="M349.09,774.48l57.87,25.74c2.01,1.98-1.18,18.66-3.08,20.71-.73.79-1.39,1.06-2.44.72-13.25-5.24-26.47-10.59-39.04-17.3-5.56-2.97-16.39-8.72-20.94-12.46-.81-.66-2.33-1.82-2.13-2.95l9.76-14.46Z" fill="#cfd3e4"/><path d="M426.94,780.77c5.19,2.25,28.92,3.63,36.67,3.21,4.66-.26,17.65-3.48,20.93-2.46.99.31,1.33.86,1.88,1.64s5.75,10.85,5.99,11.67c.39,1.31.72,3.5-.88,4.1-2.94,1.11-18.74,3.28-22.61,3.55-16.27,1.15-34.6-.61-50.53-3.59-.22-5.12-.7-22.13,8.55-18.12Z" fill="#17c37b"/><path d="M565.74,790.75c-.88,1.02-4.96,4.36-6.34,5.51-8.71,7.22-21.07,14.82-31.3,19.68-3.17,1.51-10.95,5.88-13.91,4.53-1.73-.78-9.43-15.61-9.55-17.77l1.26-1.93c16.53-6.88,33.12-14.36,46.62-26.33,1.33-.26,2.84,1.28,3.85,2.05,1.64,1.26,9.48,9.59,10.12,11.03.54,1.2.03,2.32-.75,3.22Z" fill="#cfd3e4"/><path d="M298.28,734.42c5.37,5.29,10.26,8.97,15.91,13.54,8.97,7.24,18.06,14.23,27.3,21.1.82,1.82-5.64,11.21-7.17,12.19-5.38,3.44-10.38-1.85-14.82-5.2-2.45-1.85-6.57-5.11-8.81-7.01-10.6-8.98-19.32-19.98-29.9-29.05-4.34-5.18,8.16-14.19,11.91-11.74,1.18.77,4.13,4.74,5.58,6.17Z" fill="#17c37b"/><path d="M757.61,889.45c-1.53.21-.83-2-.87-3.06-.79-20.57-1.33-41.01-3.52-61.53-2.26-21.13-5.82-42.17-10.53-62.84l11.16,20.02c15.74,34.8,17.81,71.6,3.76,107.41Z" fill="#ccf1db"/><path d="M360.03,755.92c2.72-.94,10.68,4.83,13.79,6.25,12.25,5.59,25.05,10.06,37.46,15.27,3.3,1.72,0,14.69-1.25,16.22-1.02,1.24-1.97.89-3.3.7-4.49-.61-15-5.56-19.72-7.59-11.44-4.93-23.6-11.12-33.56-18.29-.12-.44.13-.8.22-1.2.29-1.17,5.74-11.15,6.36-11.36Z" fill="#cfd3e4"/><path d="M599.22,725.28c1.99,3.52-4.9,22.69-6.69,26.78-4.82,11.04-12.19,20.31-19.03,30.12-5.11-3.51-9.56-7.45-12.63-12.82l.2-1.2c3.84-6.71,10.85-11.04,13.49-18.21,6.82-8.53,9.4-19.93,14.27-29.74,1.48-1.27,10.09,4.55,10.39,5.07Z" fill="#17c37b"/><path d="M544.56,763.28c1.72,1.64,3.14,3.58,4.71,5.39.32.75-3.01,3.58-3.67,4.11-4.07,3.26-10.77,7.52-15.35,10.16-4.26,2.45-25.69,13.62-29.14,11.45-.84-3.06-7.63-14.09-6.17-16.44,7.6-2.43,14.82-5.61,21.87-9.32,4.04-2.13,15.19-10.2,18.2-10.85,3.66-.79,6.9,3,9.54,5.51Z" fill="#cfd3e4"/><path d="M340.72,740.34c.59.48.86,1.7,1.6,2.31,2.24,1.85,9.12,5.35,9.71,7.83-.07,2.47-4.43,12.69-6.89,12.29-5.26-3.42-10.72-6.69-15.75-10.43-8.16-6.06-15.76-13.36-23.07-20.24-1.73-1.63-11.38-8.92-10.97-10.87,2.62-2.23,7.07-6.61,10.32-7.39,4.11-.98,9.99,7.98,12.91,10.38,6.82,5.61,15.16,10.4,22.13,16.11Z" fill="#17c37b"/><path d="M246.75,672.52c.77-.2,1.49-.37,2.27-.08l34.8,46.18c-3.2,3.98-9.88,12.92-14.76,7.66-5.33-5.74-27.11-37.85-29.32-44.51-.52-1.56-1.15-2.39-.27-4.14.31-.63,6.51-4.92,7.28-5.11Z" fill="#cfd3e4"/><path d="M280.74,684.3c3,3.64,16.81,17.31,17.22,20.22s-5.81,8.55-7.93,9.65c-.68.35-1.08.58-1.74,0-12.91-14.36-24.67-29.71-34.74-46.18l8.08-6.93,1.13.27c6.29,7.43,11.78,15.48,17.97,22.98Z" fill="#cfd3e4"/><path d="M570.95,744.99c-1.94,3.04-7.28,9.97-9.76,12.64-1.85,1.99-3.88,3.64-6.17,5.09-4.32-2.8-6.91-6-9.1-10.65.52-2.68,3.19-3.23,4.69-5.02,6.7-8.01,13.54-18.48,18.62-27.51,1.49-2.64,2.67-10.56,6.9-9.86,2.07.34,6.55,4.38,6.44,6.82-.23,5.1-8.55,23.68-11.61,28.49Z" fill="#17c37b"/><path d="M244.34,665.32c-3.61-.25-4.83,3.64-7.86,4.94-.68.43-.93-.12-1.38-.46-4.86-3.73-12.09-29.12-13.35-35.93-1.83-9.9-3.81-21.58,2.82-30.06,3.05,15.77,6.17,31.5,12.6,46.28.98,2.25,8.13,14.17,7.17,15.23Z" fill="#17c37b"/><path d="M247.17,658.08c.54-3.79-2.26-4.48-2.87-5.67-5.22-10.22-8.78-23.31-11.02-34.53-1.11-5.54-3.17-13.69-2.07-20.61.34-2.13,1.47-3.52,3.03-4.88,4.19,21.69,12.68,41.08,23.14,60.37l-6.04,6.02-4.17-.69Z" fill="#17c37b"/><path d="M588,661.82c1.16.59,2.66,2.97,3.35,4.11,5.95,9.81,10.38,26.1,10.73,37.58.32,10.51,1.34,19.89-10.39,8.66-.41-7.4.86-14.34.64-21.81-.29-9.6-3.02-19.06-4.33-28.54Z" fill="#cfd3e4"/><path d="M584.47,705.77c-.96.97-9.03-3.63-9.45-5.82-.31-1.59,2.24-11.65,2.46-14.8.63-9.25-.78-18.51-.91-27.72,1.9.81,2.56,3.31,3.3,5.04,5.52,12.96,6.45,29.43,4.6,43.3Z" fill="#cfd3e4"/><path d="M298.46,807.21c18.52,17.82,38.31,33.02,60.22,46.57,2.12,1.31,4.37,2.99,6.95,3.16l-7.39.8c-66.87-14.87-109.66-70.46-138.38-128.81-4-8.12-6.95-16.88-11.09-24.94-7.87-15.3-18.45-29.28-25.94-44.81,1.63.92,3.14,2.56,4.36,3.98,39.81,46.1,66.62,101.06,111.27,144.04Z" fill="#112378"/><path d="M561.62,279.49c8.08,2.33,20.23,9.71,24.65,17.11,1.7,2.84,3.54,8.53.78,10.94l-1.67.07c-.47-3.53-4.88-3.62-7.28-5.23-3.08-2.06-6.5-5.05-10.08-7.04-2.02-1.12-4.39-1.6-5.95-3.53-1.75,2.11,1.09,5.78.96,7.45-.02.31-2.07,5.49-2.27,5.73-.34.4-8.03,5.3-8.94,5.56-9.27,2.67-17-.09-21.82-8.2-1.31-2.21-1.68-4.22-3.1-6.15-3.13-.34-4.92,4.41-5.93,5.04s-2.82.24-3.96.84c-1.58.82-2.87,3.63-6.62,2.77-4.36-2.04-1.26-7.42.79-10.33,1.6-2.27,8.57-8.65,10.91-9.74,3.28-1.53,12.82-4.4,16.46-5.09,1.57-.3,7.12-.86,9.41-1.12,3.26-.37,10.53.03,13.69.94Z" fill="#112378"/></svg>