<?xml version="1.0" encoding="UTF-8"?><svg id="a" xmlns="http://www.w3.org/2000/svg" width="800" height="800" viewBox="0 0 800 800"><path d="M79.69,800H0V0h800v800h-56.25l-6.24-40.24c-4.89-56.09-6.81-112.64-19-167.72-12.1-54.65-33.96-118.96-85.15-148.44-11.48-6.61-27.86-9.55-29.05-25.64,13.02,9.56,32.14,16.84,47.84,9.55.59-.27,1.49-.12.97-1.33-1.03-2.39-16.25-13.42-19.54-16.41-60.45-54.89-61.43-151.85-81.46-225.57-14.27-52.5-41.11-110.11-87.49-141.42-16.62-11.22-45.11-24.38-63.47-10.94-7.53-7.62-17.79-9.4-28.12-9.97-84.27-4.61-139.85,84.3-162.31,154.08-17.65,54.84-18.99,110.09-40.83,163.85-9.49,23.35-22.63,54.56-39.03,73.47-7.11,8.2-16.24,14.68-22.27,23.83-.26,1.73.26.91,1.17,1.14,9.07,2.24,20.89.5,30.07-.75-2.42,2.93-19.24,24.45-17.19,26.55,15.16,2.21,29.82.43,44.18-4.65,1.25-.44,3.65-3.14,3.47-.44l-17.16,28.92c1.69,2.29,4.81.43,7.01,1.55-22.35,26.46-31.85,60.19-37.36,93.88-8.82,53.89-8.24,107.17-24.14,160.23-5.7,19-14.32,37.16-18.96,56.43Z" fill="#17c37b"/><path d="M457.03,495.31c-2.3,5.28-7.71,10.98-12.09,14.86-13.34,11.84-21.38,12.72-36.35,19.51,4.54-7.14,13.02-6.64,19.5-10.58s16.39-13.41,22.7-18.71c2.77-2.33,2.85-4.77,6.24-5.09Z" fill="#03f"/><path d="M591.41,451.56c10.86,1.92,16.09,1.39,26.73,6.47,12.04,5.75,36.41,26.89,42.02,38.84.98,2.08,1.5,4.95,2.34,7.03.42,1.03,1.02,2.15,1.56,3.12v.78c28.88,68.06,28.19,145.41,33.6,218.35.14,1.89.63,5,1.55,6.65.3,6.5.19,12.91.78,19.53,1.44,16.16,4.43,32.02,8.59,47.66h-87.5c-2.02-13.35-4.57-26.66-7.41-39.85-5.22-24.27-12.24-48.18-17.39-72.45-5.88-27.67-8.56-55.71-18.94-82.23-2.46-6.28-5.82-14.85-9.93-20.11-.5-.64.02-1.44-1.78-.98l-4.69,28.9c-4.96-4.09-11.37-8.15-16.78-11.74-16.2-10.76-34.32-20.33-52.76-26.55,2.22-7.7.85-9.39-5.71-12.64-15.79-7.81-54.5-12.46-72.81-13.91-9.26-.73-43.91-2.52-50.02,3.09-4.25,3.91-.49,8.85-10.21,10.89-3.17.66-27.46,3.46-28.43,2.42.32-4.73-2.42-9.58-7.41-10.17-14.8-1.75-35.8,2.45-50.42,5.87-29.55,6.9-62.26,19.12-82.41,42.59-4.89-13.37-6.33-28.81-8.2-42.96-1.8-.38-1.25.19-1.76,1-1.86,2.95-3.41,9.47-4.49,13.06-.24.79-.56,1.52-.78,2.34-1.4,5.13-2.8,10.33-3.54,15.62-.17,1.19-1.1,3.13.41,3.91-.2,1.05-.57,2.08-.78,3.12-.47,2.29-1.56,7.6-1.56,9.77v34.38c0,1.49,1.02,3.9.78,6.64-.61,7.09-4.39,16.04-5.37,23.93-2.04,16.44.73,35.29,7.72,50.29l-15.62,75.78h-55.47c9.46-30.24,20.18-60.18,26.19-91.39,11.91-61.89,6.03-151.55,48.05-201.95,12.01-14.4,19.53-14.83,36.11-20.92,2.99-1.1,6.49-3.3,9.18-3.32l-12.49,16.01c12.95,2.52,27.14,1.19,38.8-5.33,10.6-5.92,22.18-20.99,26.82-32.17l1.56.78c-2.07,6.31-2.89,17.24-2.37,23.86s2.74,11.83,3.42,18.61c.97,9.56,24.28,30.26,33.03,34,4.89,2.09,9.48,3.85,14.36,5.95,23.24,9.97,54.05.07,76.98-7.38,5.33-1.73,8.96-4.95,13.64-7.07,14.97-6.79,23-7.67,36.35-19.51,4.38-3.88,9.79-9.59,12.09-14.86,4.12-.38,8.59.33,12.8-.09,6.42-.65,12.37-3.53,18.45-5.37.61.56-2.25,3.85-2.81,4.6-1.88,2.52-8.04,8.62-8.9,10.64-.79,1.85,3.41,1.21,4.28,1.15,16.25-1.12,38.6-11.8,50.02-23.42,1.85-.33.98.84,1.13,1.96.43,3.31,1.23,6.45,1.6,9.75.39.4,4.1-1.31,4.96-1.68,4.09-1.77,12.14-6.46,14.57-9.26,4.9-.4,10.55-4.78,14.44-7.83,8.74-6.84,14.13-14.41,21-22.76.94-1.14.59-1.94,2.84-1.44Z" fill="#cfd3e4"/><path d="M700,752.34l9.38,47.66h-.78c-4.17-15.63-7.15-31.5-8.59-47.66Z" fill="#207e7a"/><path d="M715.64,746.47c-7.18-77.61-8.83-163.15-46.11-233.19-.52-.97-1.05-2.11-1.56-3.12-.86-1.7-.88-4.52-3.12-5.47-.23-.53-.55-1.03-.78-1.56-.97-2.19-1.54-5.13-3.91-6.25.98,2.08,1.5,4.95,2.34,7.03.42,1.03,1.02,2.15,1.56,3.12v.78c28.88,68.06,28.19,145.41,33.61,218.35.14,1.89.63,5,1.55,6.65.3,6.5.19,12.91.78,19.53l9.38,47.66h14.06l-7.8-53.53Z" fill="#03f"/><path d="M169.53,574.22c1.08-3.59,2.63-10.11,4.49-13.06.5-.8-.04-1.37,1.76-1,1.88,14.15,3.31,29.59,8.2,42.96,20.15-23.46,52.86-35.69,82.41-42.59,14.62-3.41,35.62-7.61,50.42-5.87,4.99.59,7.73,5.44,7.41,10.17.98,1.04,25.26-1.76,28.43-2.42,9.72-2.04,5.95-6.98,10.21-10.89,6.11-5.62,40.76-3.82,50.02-3.09,18.31,1.45,57.02,6.1,72.81,13.91,6.56,3.25,7.93,4.93,5.71,12.64,18.44,6.21,36.56,15.79,52.76,26.55,5.41,3.59,11.82,7.65,16.78,11.74.77.63,10.04,11.26,10.93,10.16.77-6.2,2.74-12.4,5.48-17.97,10.39,26.52,13.07,54.56,18.94,82.23,5.15,24.27,12.17,48.18,17.39,72.45,2.84,13.2,5.39,26.5,7.41,39.85h-15.62c-1.06-25.76-7.45-50.68-12.51-75.78-1.25.17-1.62,2.83-1.95,3.9-3.67,11.9-7.3,26.1-10.17,38.27-2.72,11.54-2.83,19.39-4.29,30.48-.07.51-1.4,1.88-.78,3.12h-43.75c-13.44-9.56-31.05-13-46.88-17.19-38.3-10.14-78.01-17.66-117.58-21.09-9.22-.8-18.62-.3-27.72-1.57l-7.03,39.85h-155.47l6.21-47.22c-5.03-9.82-12.48-18.54-17.14-28.56-6.98-15.01-9.76-33.86-7.72-50.29.98-7.89,4.76-16.84,5.37-23.93,1.72-.77,1.13-2.94,1.56-3.91.46-1.02,2.08-2.39,2.34-3.91.07-.44.03-1.09,0-1.56l9.43-16.76c-4.01-12.5-7.55-25.45-7.08-38.71-.04-2.6.05-5.22,0-7.81-.02-1.03.39-2.58-.78-3.12ZM364.84,574.22c-17.24.68-34.39,3.75-51.56,5.47h-.78c.14-4.36,1.2-11.93-5.07-11.79-10.16,2.14-20.73,2.42-30.9,4.34-21.64,4.09-63.99,20.55-78.07,37.55-5.87,7.08-6.19,10.49-5.49,19.9-13.93,16.11-21.25,40.16-19.52,61.32,1.73,21.07,18.48,41.48,30.12,58.2,21.03-13.46,45.83-20.94,70.65-23.43l-7.03-32.02c12.67-3.55,25.67-6.2,38.77-7.72,12.14-1.41,23.25-1.66,35.45-1.66h1.56c.07,5.63-.35,11.64,0,17.19-.73,3.46-1.5,8.6-1.59,12.07-.08,3.06-.16,6.09.82,9.02,20.96-3.08,43.36-1.5,64.44.78,25.49,2.77,50.32,8.36,75.4,13.27.25.05.53-.05.78,0,5.07,2.8,11.5,3.4,17.19,5.08,13.41,3.97,27.83,9.58,40.63,15.23,7.64,3.37,14.96,7.65,22.65,10.94l9.46-25.41-33.67-23.03h-.78v-.78l3.12-5.47c.21-.26.53-.47.78-.78,2.17-2.76,4.47-5.96,5.47-9.38.19-.28.59-.49.78-.78,2.38-3.66,5.19-7.79,7.03-11.72.1-.21-.1-.57,0-.78,1.82-1.53,6.04-7.33,5.11-9.35-.93-2.03-12.56-12.06-15.11-14.04-4.71-3.67-11.85-8.61-16.94-11.79-1.12-.7-2.14-1.48-3.54-1.53-.27-.23-.51-.53-.78-.78-1.61-1.44-3.19-2.86-5.47-3.12-.28-.23-.51-.54-.78-.78-1.16-1.03-4.2-2.89-4.34-3.11-1.29-1.99,4.74-9.51,6.04-11.99,2.08-3.96,7.67-16.18,5.73-20.06-.34-.68-9.53-7.34-11.09-8.44-12.58-8.92-28.08-16.53-43.21-19.68,5.51-10.1,5.46-10.95-5.46-14.46-20.11-6.48-64.93-13.29-85.35-10.33-8.89,1.29-12.06,6.48-15.44,13.86ZM318.75,738.28c-3.53.07-7.51-.32-10.94,0-4.06.38-6.33,1.48-10.94,1.56-28.17.52-61.82,7.12-85.94,23.07-.9.6-2.02-.2-1.55,1.93,30.16-9.35,61.54-13.69,92.96-16.41l34.73-2.38c26.53,1.05,52.95-2.65,79.33.81l-10.93-4.29c-12.35-2.82-24.85-3.89-37.5-4.29-2.08-.07-4.17.04-6.25,0h-42.97Z" fill="#112378"/><path d="M485.16,782.81c.36,5.79,1.63,11.43,0,17.19h-152.34l7.03-39.85c9.11,1.27,18.5.77,27.72,1.57,39.57,3.42,79.28,10.95,117.58,21.09Z" fill="#112378"/><path d="M177.34,800h-26.56l15.62-75.78c4.66,10.02,12.11,18.73,17.14,28.56l-6.21,47.22Z" fill="#03f"/><path d="M605.47,800h-25.78l-.79-12.5-1.58,9.75-.76-.38c1.46-11.09,1.56-18.94,4.29-30.48,2.87-12.17,6.5-26.37,10.17-38.27.33-1.07.69-3.74,1.95-3.9,5.06,25.1,11.45,50.02,12.51,75.78Z" fill="#17c37b"/><path d="M170.31,585.16c-.47,13.26,3.07,26.21,7.08,38.71l-9.43,16.76c-.03-.49-1.31-2.51-.89-3.84l-2.23-.06v-30.08c0-.22.73-1.07.74-2.23.02-1.44-1.25-3.43-.74-5.19.22-1.05.58-2.07.78-3.12.97-5.18,2.59-10.34,3.13-15.62l1.55,4.68Z" fill="#03f"/><path d="M560.94,613.28l4.69-28.9c1.8-.45,1.29.35,1.78.98,4.11,5.25,7.47,13.83,9.93,20.11-2.73,5.57-4.71,11.77-5.48,17.97-.89,1.11-10.16-9.52-10.93-10.16Z" fill="#03f"/><path d="M164.84,599.22c-.51,1.76.76,3.75.74,5.19-.01,1.16-.74,2.01-.74,2.23v30.08l2.23.06c-.42,1.33.86,3.35.89,3.84s.07,1.12,0,1.56l-3.12-2.34.77,6.25c-.43.97.16,3.14-1.56,3.91.24-2.74-.78-5.15-.78-6.64v-34.38c0-2.16,1.09-7.48,1.56-9.77Z" fill="#207e7a"/><path d="M170.31,577.34c.05,2.6-.04,5.21,0,7.81l-1.55-4.68c-.54,5.28-2.16,10.44-3.13,15.62-1.51-.78-.58-2.72-.41-3.91.73-5.29,2.14-10.49,3.54-15.62l1.56.78Z" fill="#207e7a"/><path d="M170.31,577.34l-1.56-.78c.22-.82.55-1.56.78-2.34,1.17.54.76,2.1.78,3.12Z" fill="#2c8284"/><path d="M312.5,579.69c-.24,7.66-2.05,16.16-2.38,23.8-.37,8.76.25,17.49.8,26.19-.54.53-9.05,0-10.15,2.35-.26.02-.52-.02-.78,0-13.55,1-27.05,4.08-40.62,4.69-.26.01-.52-.01-.78,0-.52.03-1.04-.04-1.56,0-.44,2.42.67,4.71.78,7.04.07,1.55-.11,3.14,0,4.69.39,5.48.9,10.96,1.56,16.41.97,8.03,2.84,15.92,3.81,23.93.7,5.81.52,11.74,1.66,17.48-4.46-5.4-5.76-12.49-8.59-18.75-.06-.24.06-.54,0-.78-2.89-11.16-6.54-22.19-8.59-33.59-.04-.25.04-.53,0-.78-2.56-16.32-6.47-32.66-7.03-49.22-1.22-1.21-15.61,5.16-17.97,6.25-9.82,4.57-22.83,12.38-29.69,20.31-.7-9.41-.38-12.81,5.49-19.9,14.08-17,56.44-33.46,78.07-37.55,10.17-1.92,20.74-2.2,30.9-4.34,6.26-.14,5.21,7.43,5.07,11.79Z" fill="#fff"/><path d="M471.09,585.16c-7.21,13.2-19.4,29.21-29.29,40.64-.34.4-1.72,2.3-1.96.77l14.91-34.54,7.74-12.34c-7.6-.95-15.91-5.26-23.47-5.96-1.18-.11-1.45.49-1.53.48-.26-.03-.52.03-.78,0-8.97-3.37-19.63-3.03-29.2-3.16-.94.15-.35,1.45-.49,1.6-.25.27-.54.49-.78.78-2.16,2.57-4.78,5.18-5.47,8.59-.26.26-.52.52-.78.78-2.56,2.52-7.45,11.5-9.51,15.1s-4.04,6.89-5.33,10.68c-.19.27-.57.48-.78.78-5.29,7.57-11.73,21.97-15.76,30.72-11.12,24.14-21.35,49.33-22.52,76.31-1.73-.63-2.98-12.48-3.12-14.84-.35-5.54.07-11.56,0-17.19-.03-2.6-.03-5.22,0-7.81.01-1.04-.02-2.08,0-3.12,1.44-6.03,2.09-12.32,3.03-18.46,1.71-11.23,4.48-23.15,4.78-34.67,0-.26,0-.52,0-.78,2.35-1.28.78-2.77.78-3.12,0-.26.02-.52,0-.78,1.09-.72,1.48-1.89,1.56-3.12.04-.52-.02-1.04,0-1.56,2.39-7.44,3.84-15.22,6.25-22.66,1.46-4.5,3.5-9.77,5.47-14.06,3.38-7.38,6.55-12.57,15.44-13.86,20.42-2.96,65.24,3.86,85.35,10.33,10.92,3.52,10.97,4.36,5.46,14.46Z" fill="#fff"/><path d="M405.47,742.57c-12.35-2.82-24.85-3.89-37.5-4.29h-60.16c-4.06.38-6.33,1.48-10.94,1.56-28.17.52-61.82,7.12-85.94,23.07-.9.6-2.02-.2-1.55,1.93,30.16-9.35,61.54-13.69,92.96-16.41l34.73-2.38c26.53,1.05,52.95-2.65,79.33.81l-10.93-4.29Z" fill="#fff"/><path d="M318.75,738.28c14.1-.3,28.87-.3,42.97,0,2.08.04,4.17-.07,6.25,0h-60.16c3.42-.32,7.4.07,10.94,0Z" fill="#31878a"/><path d="M361.72,738.28c-14.1-.3-28.87-.3-42.97,0h42.97Z" fill="#2c8284"/><path d="M165.62,646.09l-.77-6.25,3.12,2.34c-.26,1.51-1.89,2.88-2.34,3.91Z" fill="#2c8284"/><polygon points="538.28 719.53 539.06 719.53 538.67 720.3 538.28 719.53" fill="#17c37b"/><path d="M539.06,719.53l-.39.77-.39-.77v-.78l3.12-5.47c.21-.26.54-.47.78-.78,2.17-2.76,4.47-5.96,5.47-9.38.19-.28.59-.49.78-.78,2.38-3.66,5.19-7.79,7.03-11.72.1-.21-.1-.57,0-.78,1.82-1.53,6.04-7.33,5.11-9.35-.93-2.03-12.56-12.06-15.11-14.04-4.71-3.67-11.85-8.61-16.94-11.79-1.12-.7-2.14-1.48-3.54-1.53-.27-.23-.51-.53-.78-.78-1.61-1.44-3.19-2.86-5.47-3.12-.28-.23-.51-.54-.78-.78-1.16-1.03-4.2-2.89-4.34-3.11-1.29-1.99,4.74-9.51,6.04-11.99,2.08-3.96,7.67-16.18,5.73-20.06-.34-.68-9.53-7.34-11.09-8.44-12.58-8.92-28.08-16.53-43.21-19.68-7.21,13.2-19.4,29.21-29.29,40.64-.34.4-1.72,2.3-1.96.77l14.91-34.54,7.74-12.34c-7.6-.95-15.91-5.26-23.47-5.96-1.18-.11-1.45.49-1.53.48-.26-.03-.52.03-.78,0-8.97-3.37-19.63-3.03-29.2-3.16-.94.15-.35,1.45-.49,1.6-.25.27-.54.49-.78.78-2.16,2.57-4.78,5.18-5.47,8.59-.26.26-.52.52-.78.78-2.56,2.52-7.45,11.5-9.51,15.1-1.97,3.45-4.04,6.89-5.33,10.68-.19.27-.57.48-.78.78-5.29,7.57-11.73,21.97-15.76,30.72-11.12,24.14-21.35,49.33-22.52,76.31-1.73-.63-2.98-12.48-3.12-14.84-.73,3.46-1.5,8.6-1.59,12.07-.08,3.06-.16,6.09.82,9.02,20.96-3.08,43.36-1.5,64.44.78,25.49,2.77,50.32,8.36,75.4,13.27.25.05.53-.05.78,0,5.07,2.8,11.5,3.4,17.19,5.08,13.41,3.97,27.83,9.58,40.63,15.23,7.64,3.37,14.96,7.65,22.65,10.94l9.46-25.41-33.67-23.03ZM555.67,688.65c-.03.26-.05.5-.08.7.03-.2.05-.44.08-.7ZM473.05,726.44c-.12-.05-.24-.08-.38-.08h0c.13,0,.26.03.38.08ZM471.49,713.16c-.12-.05-.24-.08-.38-.08h0c.13,0,.26.03.38.08ZM457.42,728.78c-.12-.05-.24-.08-.38-.08h0c.13,0,.26.03.38.08ZM456.08,729.67c0-.27.11-.51.28-.68-.17.17-.28.42-.28.68s.11.51.28.68c-.17-.17-.28-.42-.28-.68ZM457.05,730.64h0c.13,0,.26-.03.38-.08-.12.05-.24.08-.38.08ZM468.38,728.84c.16,0,.29.02.36.07-.07-.05-.2-.08-.36-.07ZM470.15,714.05c0-.27.11-.51.28-.68-.17.17-.28.42-.28.68s.11.51.28.68c-.17-.17-.28-.42-.28-.68ZM471.11,715.01h0c.13,0,.26-.03.38-.08-.12.05-.24.08-.38.08ZM471.71,727.33c0-.27.11-.51.28-.68-.17.17-.28.42-.28.68s.11.51.28.68c-.17-.17-.28-.42-.28-.68ZM472.67,728.29h0c.13,0,.26-.03.38-.08-.12.05-.24.08-.38.08ZM476.82,725.42c.44.2.92.34,1.44.42-.52-.07-1-.22-1.44-.42ZM505.08,665.5c-.12-.05-.24-.08-.38-.08h0c.13,0,.26.03.38.08ZM501.17,663.94c-.12-.05-.24-.08-.38-.08h0c.13,0,.26.03.38.08ZM496.49,687.38c-.12-.05-.24-.08-.38-.08h0c.13,0,.26.03.38.08ZM488.63,693.76h0s.6,1.17.6,1.17l-.6-1.17ZM495.15,688.27c0-.27.11-.51.28-.68-.17.17-.28.42-.28.68s.11.51.28.68c-.17-.17-.28-.42-.28-.68ZM496.11,689.23h0c.13,0,.26-.03.38-.08-.12.05-.24.08-.38.08ZM497.45,681.13c.32.04.67-.03,1.01-.24-.34.21-.69.28-1.01.24ZM499.83,664.83c0-.27.11-.51.28-.68-.17.17-.28.42-.28.68s.11.51.28.68c-.17-.17-.28-.42-.28-.68ZM500.8,665.79h0c.13,0,.26-.03.38-.08-.12.05-.24.08-.38.08ZM503.74,666.39c0-.27.11-.51.28-.68-.17.17-.28.42-.28.68s.11.51.28.68c-.17-.17-.28-.42-.28-.68ZM504.7,667.35h0c.13,0,.26-.03.38-.08-.12.05-.24.08-.38.08Z" fill="#fff"/><path d="M364.84,574.22c-17.24.68-34.39,3.75-51.56,5.47h-.78c-.24,7.66-2.05,16.16-2.38,23.8-.37,8.76.25,17.49.8,26.19-.54.53-9.05,0-10.15,2.35-.26.02-.52-.02-.78,0-13.55,1-27.05,4.08-40.62,4.69-.26.01-.52-.01-.78,0-.52.03-1.04-.04-1.56,0-.44,2.42.67,4.71.78,7.04.07,1.55-.11,3.14,0,4.69.39,5.48.9,10.96,1.56,16.41.97,8.03,2.84,15.92,3.81,23.93.7,5.81.52,11.74,1.66,17.48-4.46-5.4-5.76-12.49-8.59-18.75-.06-.24.06-.54,0-.78-2.89-11.16-6.54-22.19-8.59-33.59-.04-.25.04-.53,0-.78-2.56-16.32-6.47-32.66-7.03-49.22-1.22-1.21-15.61,5.16-17.97,6.25-9.82,4.57-22.83,12.38-29.69,20.31-13.93,16.11-21.25,40.16-19.52,61.32,1.73,21.07,18.48,41.48,30.12,58.2,21.03-13.46,45.83-20.94,70.65-23.43l-7.03-32.02c12.67-3.55,25.67-6.2,38.77-7.72,12.14-1.41,23.25-1.66,35.45-1.66h1.56c-.03-2.6-.03-5.22,0-7.81.01-1.04-.02-2.08,0-3.12,1.44-6.03,2.09-12.32,3.03-18.46,1.71-11.23,4.48-23.15,4.78-34.67,0-.26,0-.52,0-.78,2.35-1.28.78-2.78.78-3.12,0-.26.02-.52,0-.78,1.09-.72,1.48-1.89,1.56-3.12.04-.52-.02-1.04,0-1.56,2.39-7.44,3.84-15.22,6.25-22.66,1.46-4.5,3.5-9.77,5.47-14.06Z" fill="#fff"/><path d="M79.69,800c4.64-19.28,13.26-37.43,18.96-56.43,15.9-53.07,15.32-106.35,24.14-160.23,5.52-33.69,15.01-67.42,37.36-93.88-2.2-1.12-5.31.74-7.01-1.55l17.16-28.92c.18-2.71-2.22,0-3.47.44-14.36,5.08-29.02,6.86-44.18,4.65-2.05-2.1,14.77-23.62,17.19-26.55-9.18,1.26-21,2.99-30.07.75-.91-.22-1.42.59-1.17-1.14,6.02-9.15,15.15-15.63,22.27-23.83,16.4-18.91,29.54-50.12,39.03-73.47,21.84-53.76,23.18-109.02,40.83-163.85,22.46-69.78,78.04-158.69,162.31-154.08,10.33.57,20.59,2.35,28.12,9.97,18.36-13.44,46.85-.28,63.47,10.94,46.38,31.3,73.22,88.91,87.49,141.42,20.04,73.72,21.02,170.68,81.46,225.57,3.29,2.98,18.5,14.02,19.54,16.41.52,1.21-.38,1.06-.97,1.33-15.71,7.28-34.83,0-47.84-9.55,1.2,16.09,17.57,19.02,29.05,25.64,51.19,29.49,73.05,93.79,85.15,148.44,12.19,55.08,14.1,111.63,19,167.72l6.24,40.24h-20.31l-7.8-53.53c-7.18-77.61-8.83-163.15-46.11-233.19-.52-.97-1.05-2.11-1.56-3.12-.86-1.7-.88-4.52-3.12-5.47-.23-.53-.55-1.03-.78-1.56-.97-2.19-1.54-5.13-3.91-6.25-5.61-11.95-29.98-33.09-42.02-38.84-10.64-5.08-15.87-4.56-26.73-6.47-2.15-.38-6.44-1.34-8.64-1.91-1.76-.46-3.34-3.39-6.23-1.62-.57.35-5.06,10.07-6.1,11.87-5.68,9.81-10.01,15.27-17.32,23.69-2.43,2.8-10.47,7.49-14.57,9.26-.85.37-4.57,2.08-4.96,1.68-.37-3.3-1.16-6.43-1.6-9.75-.15-1.12.72-2.3-1.13-1.96-11.42,11.62-33.78,22.29-50.02,23.42-.87.06-5.07.7-4.28-1.15.86-2.02,7.02-8.12,8.9-10.64.56-.75,3.42-4.04,2.81-4.6-6.08,1.84-12.03,4.72-18.45,5.37-4.2.42-8.68-.29-12.8.09-3.39.32-3.47,2.76-6.24,5.09-6.31,5.3-16.25,14.78-22.7,18.71s-14.95,3.44-19.5,10.58c-4.67,2.12-8.3,5.34-13.64,7.07-22.93,7.45-53.74,17.35-76.98,7.38-4.89-2.1-9.47-3.86-14.36-5.95-8.75-3.74-32.06-24.44-33.03-34-.69-6.77-2.92-12.18-3.42-18.61s.3-17.55,2.37-23.86c1.32-4.02,3.58-7.32,6.53-10.09,1.97-1.85-3.83-3.17-5.75-3.19-.29.3-.13,6.89-.64,8.27-.36.97-1.29,3.22-1.71,4.23-4.64,11.17-16.22,26.24-26.82,32.17-11.67,6.52-25.86,7.85-38.8,5.33l12.49-16.01c-2.69.02-6.19,2.22-9.18,3.32-16.58,6.09-24.1,6.52-36.11,20.92-42.02,50.4-36.14,140.06-48.05,201.95-6.01,31.21-16.73,61.15-26.19,91.39h-15.62ZM384.38,81.25c.33-5.12,2.47-10.78,4.31-15.61,3.79-9.94,9.13-19.32,13.65-28.92-6.21,6.16-11.19,15.86-14.72,23.94-2.65,6.05-4.87,12.59-6.36,19.03-2.8-.31-10.81,1.37-13.94,2.08-40.82,9.22-69.1,40.44-83.71,78.39,10.64-1.56,23.75-.01,34.55,1.77,16.36,2.71,37.13,8.46,43.26,25.63,7.79-3.7,14.82-3.99,23-1.21,5.31-10.11,12.68-13.87,23.4-16.44,14.51-3.48,26.07-3.07,40.63-1.95,1.93.15,3.91-.18,5.85,0,3.56.34,12.31,2.61,14.87,2.36.78-.08,1.72-.52,1.89-1.25.35-1.47-8.71-19.72-10.25-22.46-5.7-10.11-15.23-23.13-22.89-31.8-2.53-2.86-6.87-7.87-10.57-8.57-10.92-13.59-27.85-18.85-42.97-25ZM365.62,39.07c-38.72-4.1-67.87,24.36-88.13,53.65-7.08,10.23-14.69,21.56-17.32,33.84l10.29-15.87c20.26-28.62,44.82-54.52,78.56-66.76l16.61-4.86ZM492.18,103.12c.99-1.04-8.45-16.52-9.83-18.68-14.1-22.12-39.62-52.91-69.06-39.52l17.38,3.52c1.91,3.29,5.7,2.98,8.92,4.54,3.79,1.84,9.05,4.45,10.4,8.73-14.08-6.42-30.08-9.31-45.31-5.46,1.89,2.98,6.2,1.96,9.24,2.87,4.57,1.36,12.41,4.57,16.84,6.6,7.85,3.6,13.97,7.49,18.45,15.14-2.32.26-5.27-2.69-7.82-3.9-7.84-3.72-23.15-8.81-31.67-9.02-1.05-.03-4.7.22-5.04,1.58,15.53,4.62,28.58,16.39,39.46,28.12,18.73,20.19,32.24,42.77,46.09,66.41.94-1.46.29-3.76-.15-5.32-2.83-10.21-13.28-30.25-19.15-39.45-2.01-3.15-8.38-9.83-9.21-12.66-1.14-3.88,4.91,1.75,5.48,2.34,5.72,5.89,12.3,12.94,16.4,19.94l1.56-.4c-3.77-13.83-10.14-26.71-17.07-39.19l-11.07-15.88c.64-.63,6.46,3.95,7.39,4.71,7.64,6.23,18.63,16.16,25.09,23.34.79.87,1.17,1.95,2.66,1.63ZM362.5,62.51c-15.3,1.69-30.39,3.07-44.44,9.85-20.79,10.04-41.75,37.09-51.8,57.58-2.74,5.59-6.47,12.3-6.1,18.5,8.76-10.84,16.1-23.1,25.01-33.96,15.75-19.19,38.03-39.42,62.08-47.3,4.34-1.42,8.42-1.89,12.55-3.07,1.06-.3,2.42-.09,2.7-1.59ZM260.6,226.11c22.66,44.79,98.03,26.13,94.12-26.53-.5-6.76-2.14-14.5-7.47-19.09-15.28-13.16-58-14.76-77.24-12.43-2.29.28-9.23,1.5-11.08,2.2-4.83,1.85-4.38,8.71-4.27,12.98.2,7.72,2.29,35.43,4.6,41.46.39,1.01,1.19,1.12,1.34,1.41ZM473.44,244.53c.3-.22.51-.54.78-.78,1.51-1.36,1.14-1.81,1.56-2.34.22-.28.58-.49.78-.78,2.52-3.72,5.05-7.69,4.69-12.5l9.41-40.22c-.14-1.07-.25-2.54-1.01-3.33-.65-.68-8.76-3.87-9.95-4.1-12.9-4.17-26.03-4.37-39.44-4.69s-31.25-1.68-42.84,6.4c-19.73,13.76-9.11,52.57,7.27,65.88,15.78,12.82,31.04,12.89,50.18,7.98,6.11-1.57,15.61-5.82,18.58-11.5ZM194.52,332.03c22.7-46.82,29.91-99.07,38.28-149.99l-10.94,27.72c-11.61,38.71-21.61,78.94-27.91,118.96-.13.84-.91,3.44.57,3.31ZM350.78,237.5c-1.5,2.68-4.5,5.51-5.47,8.59-3.84,1.29-6.89,4.59-5.47,8.59.77,2.16,1.09,2.05,3.39,3.25,5.34,2.8,11.15,3.08,15.68,7.76,1.35,1.4,1.92,3.72,3.61,4.99,7.83,5.85,15.39-4.64,22.65-7.01,3.13-1.02,9.33-.68,10.97-2.31,1.97-1.96,1.96-7.31,1.17-9.85-.23-.75-5.59-8.46-6.71-10.31-6.33-10.44-8.05-15.94-10.04-28.42-.24-1.51.21-3.3-.07-4.48-.21-.87-1.52-.42-1.59-.51-.76-1.01-.38-2.08-2.38-3.48-6.16-4.32-12.33-1.22-15.19,5.06-4.07,8.95-5.51,19.07-10.56,28.11ZM535.55,223.44v.78c.51-.26.51-.52,0-.78ZM546.09,264.84c-1.06-4.68-1.53-10.58-2.54-15.04-1.87-8.28-5.02-16.32-6.06-24.81-2.01-.29-1.64.31-1.55,1.94,1.2,24.23,10.66,51.76,11.83,76.47,3.26,35.01,21.54,69.63,24.88,104.03.61,6.32.49,13.52.79,19.91.93,1.23,1.43.02,1.56-1.15,2.24-19.03-.96-44.06-4.69-62.91-.85-9.83-3.23-20.25-5.7-29.85-.54-2.09-1.02-5.63-2.9-6.87-2.1-9.36-4.05-18.82-6.25-28.12-2.45-10.39-5.2-20.71-7.58-31.13-.32-1.38.41-2.92-1.79-2.46ZM458.59,264.84c-14.01-.23-28.96,2.33-42.97-2.34-2.2-.73-8.47-5.06-10.44-4.75-4.39,10.29-13.92,10.53-22.11,14.77-7.27,3.76-10.69,9.84-20.57,6.38-2.64-.93-6.13-4.76-7.81-7.03-.3-.41-.37-1.99-1.2-3.08-3.24-4.28-9.1-1.76-13.98-2.44-5.34-.75-8.11-7.69-9.04-12.45-5.86,2.74-13.79.93-18.74,4.69-13.04,0-22.22,1.11-34.12-5.33-3.44-1.86-7.02-5.37-10.24-6.95-.78-.38-2.27-1.4-2.93-.25-1.07,25.58,1.47,56.14,11.54,79.92,11.52,27.19,56.98,62.37,86.53,64.64.26.02.52-.02.78,0,.81,1.3,2.97.78,4.29.79,6.45.08,12.1.12,18.37-.79,27.63-4.05,58.89-20.86,76.96-42.18,7.99-9.43,11.99-22.01,15.43-33.79,6.71-22.97,8.94-46.98,8.38-70.9-1.82-.49-1.31.43-1.79.99-1.68,1.95-2.79,4.51-4.48,6.41-5.81,6.54-14.15,10.04-21.86,13.69ZM531.25,388.28c-1.81.96-1.45-.95-1.67-1.81-4.87-19.12-7.49-39.83-11.61-59.12-.11-1.47.6-3.81-.78-4.69-.14-.68.12-1.62,0-2.34,0-2.57-1.8-17.24-3.12-17.97s-1.41-.04-1.56,1.16c-1.47,11.76-.5,23.72-.78,35.56-1.51,29.27-1.62,58.63-7.03,87.5-.37-.03-.62.01-.77.4l-7.68,23.57-11.08,19c.86.86,6.22-4.94,7.05-5.83,15.97-17.15,26.68-36.73,29.67-60.18.18-1.41-.31-1.28,1.55-1.17,3.28,17.04,1.85,31.98-3.69,48.26-2.03,5.97-6.7,13.85-7.94,19.41-.36,1.6,1.26,1.44,2.11.89,1.1-.7,8.29-13.69,9.42-15.94,11.22-22.41,16.32-46.39,17.69-71.37,1.41,2.01,1.68,5.74,1.95,8.21,1.7,15.43.95,31.36,2.36,46.86.13,1.46.76,2.83.78,4.3l1.18-.77c9-26.05,7.86-52.87,3.5-79.7-3.87-23.83-9.87-50.29-17.97-72.66l-.22-5.64-3.69-15.06c.22,4.94-.27,9.94-.03,14.87.39,8.02,1.96,16.19,2.37,24.19,1.29,25.04-2.11,50.19-.81,75.02.09,1.73.66,3.34.81,5.05ZM160.94,424.21c2.09,2.03,20.97-17.19,23.05-19.52,22.47-25.15,30.73-50.59,39.22-82.66,3.88-14.67,7.23-29.73,9.59-44.7-1.51.24-1.23,1.7-1.63,2.66-18.47,44.04-32.93,89.08-61.51,128.34l-8.73,15.88ZM200.51,429.41c14.15-15.05,30.56-46.75,35.07-66.89,3.03-13.51,4.51-28.38,5.04-42.21l-14.46,42.95c-7.83,22.49-25.43,46.33-32.03,68.76-.24.81-.92,2.63,0,3.13,1.55-2.26,4.7-3.96,6.37-5.74ZM369.53,405.47c-19.48-2.64-38.87-12.25-55.66-21.86l-12.31-10.17c-.87,7.83,1.6,15.47,2.33,23.05,1.45,15.06,2.3,30.24,3.18,45.35-.37,3.05-4.49,4.15-6.3,7.37-.69,1.23-.5,1.22-.78,2.34-5.21,20.69,9.68,41.42,28.7,48.25,10.66,3.83,35.59,1.24,47.36-.71,13.93-2.3,18.07-5.54,28.69-13.5,8.22-6.16,17.08-7.14,24.52-12.98,5.92-4.64,12.29-12.63,15.25-19.51l.78-.78c14.17-28.76,19.54-61.94,22.65-93.75-5.98,5.77-11.27,12.51-17.59,17.95-19.35,16.62-55.12,32.41-80.84,28.93ZM491.91,413.03c1.94-8.37,2.97-18.13,2.62-26.71-.04-.95.59-2.9-.77-2.72-2.36,19.8-10.98,38.85-19.41,56.76l-11.06,19.01c12.18-4.73,16.91-12.69,21.48-24.21,2.34-5.89,5.84-16.51,7.14-22.13ZM289.06,456.25c-1.88-.04-4.08.14-5.84.8-2.32.87-2.79,3.09-4.97,2.49-2.59,2.43-2.97,20.51-2.49,24.47s3.58,6.7,3.93,10.53c1.18.32,1.29-.31,1.95-.77.98-.68,10.15-10.76,10.37-11.5,1.74-5.77-4.71-19.17-2.96-26.02ZM454.67,485.9c.22-1.24.1-1.78-.76-2.7-.53-.56-12.15-5.61-13.07-5.7-4.01-.43-8.88,5.05-12.71,6.11-.6.86,5.48,7.58,6.62,8.6,8.61,7.75,7.7,2.51,13.75-2.7,1.67-1.44,3.95-3.17,6.17-3.6ZM432.37,501.27c-3.24-5.46-8.18-9.8-13.34-13.61-1.35-.27-12.19,4.9-12.78,5.91-.3.52-.57,1.94-.34,2.54,4.63,5.79,7.26,13.22,13.34,17.83,5.36-2.36,9.88-7.37,14.32-11.24.53-1.27-.97-1.04-1.21-1.44ZM279.19,501.83c-.6.56-1.81,2.37-1.71,3.11,1.65,3.08,8.2,10.46,11.87,9.74,1.06-.21,15.37-13.92,15.37-15.08l-9-11.14c-4.4,1.95-6.74,6.13-10.16,9.2-1.31,1.17-5.12,2.99-6.37,4.17ZM399.13,500.09l-15.16,7.71-.37,7.42,1.51,12.55,5.71.16,20.06-9.26c1.42-2.01-11.19-15.22-11.76-18.59ZM312.26,527.89c1.07-1.21,7.91-16.26,7.78-17.36l-9.5-7.43-14.99,12.77c-3.81,4.96,9.52,15.29,13.05,14.29.46-.13,3.32-1.89,3.65-2.26ZM325.03,514.09l-6.27,17.6c.06,1.75,5.77,5,7.63,5.58,10.63,3.31,35.51-1.13,46.42-4.69,1.98-.65,6.14-1.56,6.71-3.44.62-2.05-.9-14.95-1.42-17.81-.16-.89-.29-1.58-1.26-1.91l-51.82,4.66Z" fill="#112378"/><path d="M326.56,415.62c9.97,8.72,18.12,15.17,29.69,21.88,4.31,2.5,8.54,5.37,13.28,7.03.23.08.55-.09.78,0,9.27,5.42,21.81,9.4,32.52,10.84,13.71,1.85,27.98-1.08,41.7-2.25-2.96,6.88-9.34,14.88-15.25,19.51-7.45,5.84-16.3,6.82-24.52,12.98-10.62,7.95-14.77,11.19-28.69,13.5-11.76,1.94-36.7,4.53-47.36.71-19.02-6.83-33.92-27.56-28.7-48.25,1.87.56,8.72,12.65,10.15,10.93,2.28-15.77,2.17-32-.78-47.65-.04-.52.03-1.05,0-1.56-.3-4.8-1.15-10.18-2.34-14.84.21-1.38.57-.44,1.17-.02,4.83,3.44,10.43,10.99,15.22,15.27,1.06.95,2.46,1.34,3.14,1.93Z" fill="#cfd3e4"/><path d="M445.31,452.34c-12.55-.09-25.31,3.23-37.88,2.33-11.61-.83-26.14-6.05-37.12-10.15-.23-.09-.55.08-.78,0-.39-2.94-5.85-3.53-8.04-4.69-.59-.31-3.33-4.49-5.24-2.34-11.57-6.7-19.71-13.15-29.69-21.88,1.99-.38,4.54,3.69,5.87,1.57,1.07-1.32-.43-3.06-.23-4.22.08-.44,4.1-5.96,5.01-7.44s3.32-1.04,1.21-5.34l1.09-1.73c1.45-.42,12.3,4.48,15,5.21,3.29.9,7.65,1.64,11.08,2.22,1.2.2,3.17,1.03,3.93-.43,25.72,3.48,61.49-12.3,80.84-28.93,6.32-5.43,11.61-12.17,17.59-17.95-3.11,31.81-8.48,64.99-22.65,93.75Z" fill="#03f"/><path d="M492.18,103.12c-1.49.32-1.87-.76-2.66-1.63-6.47-7.19-17.46-17.12-25.09-23.34-.93-.76-6.76-5.34-7.39-4.71l11.07,15.88c6.93,12.47,13.3,25.36,17.07,39.19l-1.56.4c-4.1-6.99-10.68-14.04-16.4-19.94-.57-.59-6.62-6.22-5.48-2.34.83,2.84,7.21,9.51,9.21,12.66,5.86,9.2,16.31,29.24,19.15,39.45.43,1.56,1.08,3.87.15,5.32-13.85-23.65-27.35-46.22-46.09-66.41-10.88-11.73-23.93-23.51-39.46-28.12.34-1.36,3.99-1.61,5.04-1.58,8.51.21,23.83,5.3,31.67,9.02,2.55,1.21,5.5,4.17,7.82,3.9-4.48-7.65-10.6-11.54-18.45-15.14-4.42-2.03-12.27-5.24-16.84-6.6-3.03-.9-7.35.12-9.24-2.87,15.23-3.85,31.23-.96,45.31,5.46-1.36-4.28-6.61-6.89-10.4-8.73-3.22-1.56-7.01-1.25-8.92-4.54l-17.38-3.52c29.44-13.39,54.96,17.4,69.06,39.52,1.38,2.16,10.82,17.64,9.83,18.68Z" fill="#cfd3e4"/><path d="M160.94,424.21l8.73-15.88c28.57-39.25,43.04-84.3,61.51-128.34.4-.95.12-2.42,1.63-2.66-2.35,14.97-5.71,30.03-9.59,44.7-8.49,32.07-16.75,57.5-39.22,82.66-2.08,2.33-20.96,21.55-23.05,19.52Z" fill="#cfd3e4"/><path d="M325.03,514.09l51.82-4.66c.97.33,1.1,1.01,1.26,1.91.52,2.86,2.04,15.76,1.42,17.81-.57,1.88-4.73,2.79-6.71,3.44-10.92,3.56-35.8,8-46.42,4.69-1.86-.58-7.57-3.83-7.63-5.58l6.27-17.6Z" fill="#17c37b"/><path d="M194.52,332.03c-1.48.13-.7-2.47-.57-3.31,6.3-40.03,16.31-80.25,27.91-118.96l10.94-27.72c-8.37,50.92-15.58,103.17-38.28,149.99Z" fill="#cfd3e4"/><path d="M300.78,449.22c1.8-3.22,5.93-4.32,6.3-7.37-.88-15.11-1.74-30.3-3.18-45.35-.73-7.58-3.2-15.23-2.33-23.05l12.31,10.17c16.79,9.61,36.17,19.22,55.66,21.86-.76,1.47-2.74.63-3.93.43-3.43-.58-7.78-1.32-11.08-2.22-2.69-.73-13.54-5.63-15-5.21l-1.09,1.73c2.1,4.3-.31,3.87-1.21,5.34s-4.93,7-5.01,7.44c-.21,1.16,1.3,2.9.23,4.22-1.33,2.12-3.88-1.95-5.87-1.57-.68-.59-2.08-.99-3.14-1.93-4.8-4.28-10.4-11.83-15.22-15.27-.6-.43-.97-1.37-1.17.02-3.38,3.79-.14,3.93-.01,4.43.43,1.74.47,5.43.82,7.68.23,1.45-.99,3.17,1.53,2.73.03.52-.04,1.05,0,1.56.31,4.5.66,10.39.81,15.2.13,4.06.42,27.83-1.61,29.33-3.33-.52-1.76-2.47-2.5-3.72-.65-1.1-6.05-3.64-5.3-6.44Z" fill="#03f"/><path d="M362.5,62.51c-.27,1.5-1.63,1.29-2.7,1.59-4.13,1.18-8.21,1.65-12.55,3.07-24.05,7.88-46.33,28.1-62.08,47.3-8.91,10.86-16.25,23.12-25.01,33.96-.37-6.2,3.36-12.9,6.1-18.5,10.05-20.48,31.01-47.53,51.8-57.58,14.04-6.78,29.14-8.16,44.44-9.85Z" fill="#cfd3e4"/><path d="M200.51,429.41c-1.67,1.78-4.81,3.48-6.37,5.74-.92-.49-.24-2.31,0-3.13,6.6-22.42,24.2-46.26,32.03-68.76l14.46-42.95c-.53,13.83-2.02,28.7-5.04,42.21-4.51,20.13-20.91,51.83-35.07,66.89Z" fill="#cfd3e4"/><path d="M365.62,39.07l-16.61,4.86c-33.74,12.23-58.3,38.14-78.56,66.76l-10.29,15.87c2.63-12.27,10.25-23.6,17.32-33.84,20.26-29.29,49.41-57.76,88.13-53.65Z" fill="#cfd3e4"/><path d="M399.13,500.09c.57,3.37,13.18,16.58,11.76,18.59l-20.06,9.26-5.71-.16-1.51-12.55.37-7.42,15.16-7.71Z" fill="#17c37b"/><path d="M289.06,456.25c-1.74,6.84,4.71,20.25,2.96,26.02-.22.74-9.39,10.82-10.37,11.5-.66.46-.77,1.09-1.95.77-.35-3.83-3.47-6.76-3.93-10.53-.48-3.96-.11-22.03,2.49-24.47,2.18.6,2.65-1.61,4.97-2.49,1.75-.66,3.96-.84,5.84-.8Z" fill="#17c37b"/><path d="M432.37,501.27c.24.4,1.73.17,1.21,1.44-4.44,3.87-8.96,8.88-14.32,11.24-6.09-4.6-8.71-12.04-13.34-17.83-.22-.6.04-2.03.34-2.54.58-1.01,11.43-6.18,12.78-5.91,5.16,3.81,10.1,8.15,13.34,13.61Z" fill="#17c37b"/><path d="M312.26,527.89c-.33.38-3.19,2.13-3.65,2.26-3.53,1-16.86-9.32-13.05-14.29l14.99-12.77,9.5,7.43c.12,1.1-6.71,16.16-7.78,17.36Z" fill="#17c37b"/><path d="M491.91,413.03c-1.3,5.61-4.8,16.23-7.14,22.13-4.58,11.52-9.3,19.48-21.48,24.21l11.06-19.01c8.43-17.91,17.06-36.96,19.41-56.76,1.36-.18.73,1.77.77,2.72.35,8.59-.68,18.34-2.62,26.71Z" fill="#cfd3e4"/><path d="M279.19,501.83c1.25-1.17,5.06-2.99,6.37-4.17,3.42-3.07,5.76-7.25,10.16-9.2l9,11.14c0,1.15-14.31,14.87-15.37,15.08-3.67.72-10.22-6.66-11.87-9.74-.1-.74,1.11-2.55,1.71-3.11Z" fill="#17c37b"/><path d="M591.41,451.56c-2.25-.5-1.9.3-2.84,1.44-6.88,8.35-12.27,15.92-21,22.76-3.89,3.05-9.53,7.43-14.44,7.83,7.31-8.42,11.64-13.88,17.32-23.69,1.04-1.8,5.53-11.52,6.1-11.87,2.88-1.77,4.47,1.16,6.23,1.62,2.19.57,6.49,1.53,8.64,1.91Z" fill="#03f"/><path d="M454.67,485.9c-2.22.44-4.5,2.16-6.17,3.6-6.04,5.2-5.13,10.45-13.75,2.7-1.14-1.02-7.21-7.74-6.62-8.6,3.83-1.05,8.7-6.53,12.71-6.11.92.1,12.54,5.14,13.07,5.7.86.92.98,1.46.76,2.7Z" fill="#17c37b"/><path d="M384.38,81.25c-1.02-.42-1.53-1.39-3.12-1.56,1.49-6.44,3.71-12.98,6.36-19.03,3.54-8.08,8.52-17.78,14.72-23.94-4.52,9.6-9.86,18.98-13.65,28.92-1.84,4.83-3.98,10.49-4.31,15.61Z" fill="#cfd3e4"/><path d="M445.31,452.34l-.78.78c-13.72,1.17-27.99,4.1-41.7,2.25-10.71-1.45-23.25-5.42-32.52-10.84,10.98,4.09,25.51,9.32,37.12,10.15,12.57.9,25.33-2.42,37.88-2.33Z" fill="#03f"/><path d="M267.97,460.94c.42-1.01,1.35-3.26,1.71-4.23.51-1.38.35-7.97.64-8.27,1.91.02,7.71,1.34,5.75,3.19-2.95,2.78-5.21,6.08-6.53,10.09l-1.56-.78Z" fill="#03f"/><path d="M570.31,363.28c-.85-9.83-3.23-20.25-5.7-29.85-.54-2.09-1.02-5.63-2.9-6.87-2.1-9.36-4.05-18.82-6.25-28.12-2.45-10.39-5.2-20.71-7.58-31.13-.32-1.38.41-2.92-1.79-2.46-1.06-4.68-1.53-10.58-2.54-15.04-1.87-8.28-5.02-16.32-6.06-24.81-2.01-.29-1.64.31-1.55,1.94,1.2,24.23,10.66,51.76,11.83,76.47,3.26,35.01,21.54,69.63,24.88,104.03.61,6.32.49,13.52.79,19.91.93,1.23,1.43.02,1.56-1.15,2.24-19.03-.96-44.06-4.69-62.91ZM548.62,276.29c-.29-1.3-.57-2.61-.86-3.9.28,1.29.57,2.59.86,3.9.29,1.3.58,2.61.88,3.92-.3-1.31-.59-2.62-.88-3.92ZM553.77,296.26c-.09-.31-.17-.63-.27-.93-.38-1.18-.74-2.38-1.09-3.61.35,1.23.72,2.44,1.09,3.61.1.31.18.62.27.93.09.31.18.61.31.89-.13-.28-.22-.58-.31-.89Z" fill="#cfd3e4"/><path d="M532.81,289.84l-.22-5.64-3.69-15.06c.22,4.94-.27,9.94-.03,14.87.39,8.02,1.96,16.19,2.37,24.19,1.29,25.04-2.11,50.19-.81,75.02.09,1.73.66,3.34.81,5.05-1.81.96-1.45-.95-1.67-1.81-4.87-19.12-7.49-39.83-11.61-59.12-.36-1.7-.47-3.24-.78-4.69-.14-.68.12-1.62,0-2.34,0-2.57-1.8-17.24-3.12-17.97-1.34-.73-1.41-.04-1.56,1.16-1.47,11.76-.5,23.72-.78,35.56-1.51,29.27-1.62,58.63-7.03,87.5-.37-.03-.62.01-.77.4l-7.68,23.57-11.08,18.99c.86.86,6.22-4.94,7.05-5.83,15.97-17.15,26.68-36.73,29.67-60.18.18-1.41-.31-1.28,1.55-1.17,3.28,17.04,1.85,31.98-3.69,48.26-2.03,5.97-6.7,13.85-7.94,19.41-.36,1.6,1.26,1.44,2.11.89,1.1-.7,8.29-13.69,9.42-15.94,11.22-22.41,16.32-46.39,17.69-71.37,1.41,2.01,1.68,5.74,1.95,8.21,1.7,15.43.95,31.36,2.36,46.86.13,1.46.76,2.83.78,4.3l1.18-.77c9-26.05,7.86-52.87,3.5-79.7-3.87-23.83-9.87-50.29-17.97-72.66Z" fill="#cfd3e4"/><path d="M385.94,390.62c-6.27.92-11.92.87-18.37.79-1.32-.02-3.47.5-4.29-.79,7.44.46,15.19-.34,22.66,0Z" fill="#03f"/><path d="M517.97,327.34c-.36-1.7-.47-3.24-.78-4.69,1.38.88.67,3.22.78,4.69Z" fill="#03f"/><path d="M309.38,414.84c2.95,15.65,3.06,31.89.78,47.65-1.43,1.72-8.28-10.37-10.15-10.93.28-1.12.09-1.12.78-2.34-.75,2.8,4.65,5.34,5.3,6.44.74,1.25-.83,3.2,2.5,3.72,2.03-1.5,1.74-25.27,1.61-29.33-.15-4.81-.51-10.7-.81-15.2Z" fill="#03f"/><path d="M535.55,223.44c.51.26.51.52,0,.78v-.78Z" fill="#207e7a"/><path d="M309.38,413.28c-2.53.44-1.31-1.28-1.53-2.73-.35-2.25-.39-5.94-.82-7.68-.13-.5-3.37-.64.01-4.43,1.19,4.67,2.05,10.04,2.34,14.84Z" fill="#03f"/><path d="M356.25,437.5c1.91-2.15,4.65,2.03,5.24,2.34,2.18,1.16,7.65,1.76,8.04,4.69-4.74-1.66-8.97-4.54-13.28-7.03Z" fill="#03f"/><path d="M311.72,258.59c2.12,0,4.11-1.22,6.5,0l.54,1.95c-7.53,8.62-18.71,13.16-24.37,24.08-5.06,9.74.08,15.53,6.79,22.4,1.03.23,1.44-.57,1.78-1.34,1.57-3.55.86-11.6,1.93-16.04,2.63-10.96,15.92-19.65,25.98-23.19,7.61,4.57,14.9,6.29,23.82,5.42,1.68,2.27,5.17,6.11,7.81,7.03.86,5.65,9.78.24,6.25,8.59-1.8,0-3.33,1.17-4.69,1.56-5.65,1.62-14.37-2.97-20.92-3.69-11.94-1.32-22.65,3.91-33.77,6.82,5.68,14.93,12.07,31.57,24.63,42.16,1.96,1.65,10.12,7.33,12.09,7.84-.88,6.82,3.75,9.34,9.38,10.94,11.21,3.19,22.19-.76,33.59,1.56,3.99.81,5.99,2.7,9.59,3.01,14.72-11.23,25.91-27.93,28.04-46.65.29-.39,1.2.02,1.44-.1,16.92,2.66,9.19-17.56,3.12-25-.1-.22.1-.57,0-.78-1.61-3.57-3.36-3.9-5.47-6.25-.25-.27-.53-.51-.78-.78-1.62-1.75-2.47-4.25-4.69-5.47-.3-.5-.5-1.06-.78-1.56-.76-1.35-1.51-2.32-2.34-3.91-.76-1.44-1.36-2.97-2.33-4.31l.76-.38c14.01,4.67,28.95,2.12,42.97,2.34.51,0,1.1-.08,1.56,0-.43,1.76,1.01,1.78,2.34,2.34.26.24.53.53.78.78,3.34,3.87,2.68,10.95,2.24,15.91-.94,10.54-4.72,21.93-8.49,31.74-8.26,21.48-19.25,39.11-37.58,53.43-3.25,2.54-20.07,11.78-20.23,12.97-10.11,4.71-19.62,6-30.47,7.03-2.12.2-4.61-.23-6.25,1.56-29.55-2.27-75.02-37.45-86.53-64.64-10.07-23.78-12.61-54.34-11.54-79.92.67-1.16,2.15-.13,2.93.25,3.22,1.57,6.8,5.09,10.24,6.95,11.9,6.44,21.08,5.33,34.12,5.33Z" fill="#cfd3e4"/><path d="M381.25,79.69c1.59.18,2.1,1.15,3.12,1.56,15.12,6.15,32.05,11.41,42.97,25,13.05,16.25,19.67,41.23,21.09,61.72-14.56-1.12-26.12-1.54-40.63,1.95-10.72,2.57-18.09,6.32-23.4,16.44-8.19-2.78-15.21-2.49-23,1.21-6.12-17.17-26.89-22.93-43.26-25.63-10.79-1.78-23.91-3.33-34.55-1.77,14.61-37.95,42.89-69.17,83.71-78.39,3.13-.71,11.13-2.39,13.94-2.08Z" fill="#cfd3e4"/><path d="M415.62,262.5l-.76.38c.97,1.33,1.57,2.87,2.33,4.31l-.74.43c.29,1.7,1.1,3.51,3.09,3.47.28.51.49,1.07.78,1.56.12.2-.14,1.28.44,2.29.37.64,3.25,2.92,4.24,3.17.25.27.54.51.78.78.41,2.77,2.75,5.73,5.47,6.25.1.22-.1.56,0,.78,1.88,4.26,4.95,10.12,5.39,14.53,1.08,10.91-1.51,6.87-8.51,10.47-.23.12-1.14-.29-1.44.1-2.13,18.73-13.32,35.43-28.04,46.65-3.6-.3-5.6-2.19-9.59-3.01.47-2.67-4.49-1.77-5.83-2.38l-27.76.81c-5.62-1.6-10.25-4.11-9.38-10.94,5.58,1.43,25.4,1.53,31.44.58,16.74-2.61,34.37-18.25,44.32-31.46,1.38-1.83,7.94-11.03,6.26-12.87-5.25.98-11.93-1.27-17.19-2.72-8.71-2.41-13.2-4.87-22.64-5.87-.55-1.78-2.02-1.52-3.47-1.61-4.7-.27-11.82-.76-16.06-.74,3.53-8.35-5.39-2.94-6.25-8.59,9.88,3.46,13.3-2.62,20.57-6.38,8.2-4.25,17.73-4.48,22.11-14.77,1.97-.3,8.24,4.02,10.44,4.75Z" fill="#03f"/><path d="M260.6,226.11c-.15-.29-.95-.39-1.34-1.41-2.31-6.03-4.4-33.74-4.6-41.46-.11-4.27-.56-11.13,4.27-12.98,1.85-.71,8.79-1.93,11.08-2.2,19.25-2.32,61.97-.73,77.24,12.43,5.33,4.6,6.97,12.33,7.47,19.09,3.92,52.66-71.46,71.32-94.12,26.53ZM277.66,238.74c19.37,14.59,65.53,1.79,68.33-22.82.82-7.19,1.52-18.45-.25-25.34-2.09-8.14-13.98-11.21-21.37-13.01-16.46-4-36.3-4.95-52.67,0-5.43,1.64-5.43,4.17-6.08,9.55-1.87,15.58-1.86,41.16,12.03,51.62Z" fill="#17c37b"/><path d="M378.91,207.81c-1.27,6.56-1.8,13.27-1.6,19.96.1,3.38.67,10.95,1.76,13.86,2.98,7.95,14.9,2.91,17.47,12.27-.46,1.06-5.13,3.87-6.44,4.55-7.44,3.81-15.98,3.9-24.08,3.26-1.22-.1-2.42.89-3.73.64s-5-3.69-7.18-4.57c-4.97-2-10.29-1-15.27-3.09-1.42-4,1.63-7.31,5.47-8.59.99-.33,5.9-.51,6.21-.82l-.74-7.77c5.05-9.04,6.49-19.17,10.56-28.11,2.86-6.28,9.03-9.38,15.19-5.06,1.99,1.4,1.62,2.48,2.38,3.48Z" fill="#cfd3e4"/><path d="M448.44,167.97c-1.43-20.48-8.04-45.47-21.09-61.72,3.7.7,8.04,5.71,10.57,8.57,7.66,8.67,17.19,21.69,22.89,31.8,1.55,2.74,10.6,20.99,10.25,22.46-.17.73-1.12,1.17-1.89,1.25-2.56.25-11.31-2.01-14.87-2.36-1.94-.19-3.92.14-5.85,0Z" fill="#03f"/><path d="M311.72,258.59c4.95-3.76,12.88-1.95,18.74-4.69.94,4.76,3.71,11.71,9.04,12.45,4.89.69,10.75-1.84,13.98,2.44.82,1.09.89,2.67,1.2,3.08-8.92.88-16.22-.85-23.82-5.42-10.06,3.54-23.35,12.24-25.98,23.19-1.07,4.45-.36,12.49-1.93,16.04-.34.77-.75,1.56-1.78,1.34-6.71-6.87-11.85-12.66-6.79-22.4,5.67-10.92,16.84-15.47,24.37-24.08l-.54-1.95c-2.39-1.22-4.38,0-6.5,0Z" fill="#03f"/><path d="M378.91,207.81c.06.08,1.38-.36,1.59.51.28,1.17-.17,2.97.07,4.48,1.99,12.48,3.7,17.98,10.04,28.42,1.12,1.85,6.48,9.56,6.71,10.31.79,2.54.8,7.9-1.17,9.85-1.65,1.63-7.85,1.29-10.97,2.31-7.26,2.37-14.82,12.86-22.65,7.01-1.69-1.26-2.25-3.59-3.61-4.99-4.53-4.68-10.34-4.97-15.68-7.76-2.29-1.2-2.62-1.09-3.39-3.25,4.97,2.09,10.29,1.09,15.27,3.09,2.18.88,5.82,4.31,7.18,4.57s2.51-.73,3.73-.64c8.1.63,16.64.55,24.08-3.26,1.31-.67,5.99-3.48,6.44-4.55-2.56-9.37-14.49-4.33-17.47-12.27-1.09-2.91-1.66-10.48-1.76-13.86-.2-6.69.33-13.4,1.6-19.96Z" fill="#03f"/><path d="M350.78,237.5l.74,7.77c-.31.31-5.22.49-6.21.82.96-3.09,3.97-5.91,5.47-8.59Z" fill="#03f"/><path d="M490.66,187.9c-.14-1.07-.25-2.54-1.01-3.33-.65-.68-8.76-3.87-9.95-4.1-12.9-4.17-26.03-4.37-39.44-4.69-13.35-.32-31.25-1.68-42.84,6.4-19.73,13.76-9.11,52.57,7.27,65.88,15.78,12.82,31.04,12.89,50.18,7.98,6.11-1.57,15.61-5.82,18.58-11.5.3-.22.51-.54.78-.78l1.56-2.34c.22-.28.58-.49.78-.78,2.52-3.72,5.05-7.69,4.69-12.5l9.41-40.22ZM475.78,232.81c-3.84,10.39-17.88,17.29-28.1,19.95-25.73,6.7-53.02-10.1-54.71-37.53-.6-9.82-.47-25.14,9.72-30.11,7.66-3.74,34.67-4.51,43.82-3.9,8.22.55,18.26,2.52,26.14,4.72,6.23,11.57,5.62,25.84,4.69,39.06-.12,1.74-.66,2.45-.78,3.12-.28,1.57-.16,3.01-.78,4.69Z" fill="#17c37b"/><path d="M474.22,243.75l1.56-2.34c-.42.54-.05.99-1.56,2.34Z" fill="#31878a"/><path d="M364.06,289.06c6.75,1.08,13.76-.4,20.76-.03,1.54.08,2.6.72,3.46.81,9.45,1,13.93,3.46,22.64,5.87,5.27,1.46,11.94,3.7,17.19,2.72,1.68,1.85-4.88,11.04-6.26,12.87-9.95,13.21-27.58,28.85-44.32,31.46-6.05.94-25.86.84-31.44-.58-1.97-.5-10.13-6.18-12.09-7.84-12.56-10.59-18.95-27.23-24.63-42.16,11.11-2.91,21.82-8.15,33.77-6.82,6.55.72,15.27,5.31,20.92,3.69ZM332.03,297.66c-1.27-.05-10.16-.26-10.16.4,5.3,10.69,15.26,14.16,26.24,16.73,18.97,4.44,45.72,4.41,61.27-8.54-.04-.92-15.34-6.13-17.21-6.62-11.6-3.02-20.28.13-31.66-.37-9.42-.41-19.01-4.27-28.48-1.6ZM379.68,328.91c-12.12.74-23.94-2.11-35.93-3.12,8.48,9.09,23.13,8.18,34.12,4.77,1.26-.39,2.21.64,1.82-1.65Z" fill="#112378"/><path d="M355.47,353.12l27.76-.81c1.34.6,6.3-.29,5.83,2.38-11.4-2.33-22.38,1.63-33.59-1.56Z" fill="#03f"/><path d="M399.22,382.03c0,.07.69.42.8.75-9.52,3.79-20.83,8.88-31.27,6.28,10.85-1.03,20.36-2.32,30.47-7.03Z" fill="#03f"/><path d="M368.75,287.5c4.24-.02,11.36.47,16.06.74,1.46.08,2.93-.18,3.47,1.61-.86-.09-1.92-.73-3.46-.81-7-.37-14.01,1.12-20.76.03,1.36-.39,2.88-1.55,4.69-1.56Z" fill="#03f"/><path d="M486.71,243.75c-1.82-.49-1.31.43-1.79.99-1.68,1.95-2.79,4.51-4.48,6.41-5.81,6.54-14.15,10.04-21.86,13.69.51,0,1.1-.08,1.56,0-.43,1.76,1.01,1.78,2.34,2.34.26.24.53.53.78.78,3.34,3.87,2.68,10.95,2.24,15.91-.94,10.54-4.72,21.93-8.49,31.74-8.26,21.48-19.25,39.11-37.58,53.43-3.25,2.54-20.07,11.78-20.23,12.97,0,.07.69.41.8.75-9.52,3.79-20.83,8.88-31.27,6.28-2.12.2-4.61-.23-6.25,1.56.26.02.52-.02.78,0,7.44.46,15.19-.34,22.66,0,27.63-4.05,58.89-20.86,76.96-42.18,7.99-9.43,11.99-22.01,15.43-33.79,6.71-22.97,8.94-46.98,8.38-70.9Z" fill="#03f"/><path d="M428.12,310.94c16.92,2.66,9.19-17.56,3.12-25,1.88,4.26,4.95,10.12,5.39,14.53,1.08,10.91-1.51,6.87-8.51,10.47Z" fill="#03f"/><path d="M431.25,285.16c-1.61-3.57-3.36-3.9-5.47-6.25.41,2.77,2.75,5.73,5.47,6.25Z" fill="#03f"/><path d="M425,278.12c-1.62-1.75-2.47-4.25-4.69-5.47.12.2-.14,1.28.44,2.29.37.64,3.25,2.92,4.24,3.17Z" fill="#03f"/><path d="M419.53,271.09c-.76-1.35-1.51-2.32-2.34-3.91l-.74.43c.29,1.7,1.1,3.51,3.09,3.47Z" fill="#03f"/><path d="M277.66,238.74c-13.88-10.46-13.9-36.04-12.03-51.62.65-5.38.65-7.91,6.08-9.55,16.36-4.94,36.21-4,52.67,0,7.39,1.8,19.28,4.87,21.37,13.01,1.77,6.89,1.07,18.15.25,25.34-2.8,24.61-48.97,37.41-68.33,22.82ZM305.46,182.04l-31.94,1.64c-2.2,1.88.13,28.55.67,33.15.14,1.18.03,1.94,1.2,2.69l30.07-37.48Z" fill="#112378"/><path d="M472.66,185.94c6.23,11.57,5.62,25.84,4.69,39.06l-.78,3.12c-.28,1.57-.16,3.01-.78,4.69-3.84,10.39-17.88,17.29-28.1,19.95-25.73,6.7-53.02-10.1-54.71-37.53-.6-9.82-.47-25.14,9.72-30.11,7.66-3.74,34.67-4.51,43.82-3.9,8.22.55,18.26,2.52,26.14,4.72ZM432.81,189.84h-16.02c-1.81,0-8.71,1.82-10.55,2.73-4.27,2.11-5.04,6.57-5.53,10.94l2.8,21.49c3-5.62,6.42-11.14,10.57-16,5.21-6.11,12.4-11.19,17.58-16.79.71-.77,1.42-1.1,1.15-2.37Z" fill="#112378"/><path d="M476.56,228.12l.78-3.12c-.12,1.74-.66,2.45-.78,3.12Z" fill="#31878a"/><path d="M332.03,297.66c9.64.37,18.65,3.24,27.75,3.89,7.92.57,16.03-1.46,24.19-.76,8.69.75,16.71,5.2,25.4,5.46-15.55,12.95-42.3,12.98-61.27,8.54-10.97-2.57-20.93-6.04-26.24-16.73,0-.65,8.9-.45,10.16-.4Z" fill="#fffbeb"/><path d="M409.38,306.25c-8.69-.25-16.72-4.7-25.4-5.46-8.17-.71-16.28,1.33-24.19.76-9.1-.66-18.1-3.53-27.75-3.89,9.47-2.67,19.06,1.19,28.48,1.6,11.38.5,20.06-2.65,31.66.37,1.87.49,17.16,5.7,17.21,6.62Z" fill="#03f"/><path d="M379.68,328.91c.39,2.29-.55,1.26-1.82,1.65-10.98,3.41-25.64,4.32-34.12-4.77,12,1.01,23.82,3.86,35.93,3.12Z" fill="#cfd3e4"/><path d="M305.46,182.04l-30.07,37.48c-1.17-.75-1.06-1.51-1.2-2.69-.54-4.59-2.87-31.27-.67-33.15l31.94-1.64Z" fill="#fff"/><path d="M432.81,189.84c.28,1.27-.43,1.59-1.15,2.37-5.18,5.6-12.37,10.69-17.58,16.79-4.15,4.87-7.57,10.38-10.57,16l-2.8-21.49c.49-4.37,1.26-8.83,5.53-10.94,1.85-.91,8.74-2.73,10.55-2.73h16.02Z" fill="#fff"/><path d="M365.56,700.86c-.7-3.24-3.44-6.21-6.86-6.66-2.88-.38-5.77-.58-8.67-.7,0-.31,0-.61-.04-.9-.26-2.02-1.07-4.06-2.6-5.47.05-.05.1-.09.14-.14,1.17-1.3.65-3.55-.95-4.24-4.64-2-9.76-2.12-14.73-1.73-2.47.19-4.92.52-7.37.81-2.44.29-4.88.46-7.32.7-5.7.55-11.37,1.24-17.09,1.54-5.7.3-11.4.52-17.08,1.09-2.84.29-5.67.68-8.49,1.13-2.67.43-5.49,1.17-7.18,3.46-.28.38-.46.83-.53,1.29-.95.14-1.91.28-2.86.43-1.46.22-2.62,1.41-2.49,2.95,0,.05.02.09.03.14-.06.05-.11.1-.17.15-.41.65-.82,1.3-1.24,1.94-.78,1.7-.91,3.59-.52,5.4.38,1.78,1.31,3.33,2.59,4.51-1.68,1.72-2.83,3.95-3.25,6.37-.32,1.84.04,3.69.88,5.34.8,1.58,2.26,3.34,4,3.94.25.09.49.16.72.24.85,1.24,1.98,2.29,3.39,2.86l2.13.66c1.28.22,2.54.13,3.78-.21,1.9-.3,3.82-.36,5.74-.38,2.28-.03,4.54-.12,6.81-.28,5.08-.36,10.16-.58,15.24-.83,9.77-.48,19.58-1.56,29.37-1.3,4.78.13,9.62.6,14.23-1.06,2.1-.75,3.99-2.47,4.93-4.5.49-1.05.76-2.35.77-3.63,1.4-.2,2.8-.46,4.2-.79,2.48-.57,5.05-1.6,7.02-3.23,1.18-.97,2.29-2.08,2.94-3.49.78-1.7.91-3.59.52-5.4Z" fill="#fff"/></svg>