<?xml version="1.0" encoding="UTF-8"?><svg id="a" xmlns="http://www.w3.org/2000/svg" width="28" height="28" viewBox="0 0 28 28"><path d="M26,0H1.99C.89,0,0,.91,0,2.02v23.96c0,1.11.89,2.02,1.99,2.02h24.01c1.1,0,2-.91,2-2.02V2.02C28,.91,27.1,0,26,0ZM8.46,24h-4.15v-13.36h4.16v13.36h0ZM6.39,8.81c-1.33,0-2.41-1.08-2.41-2.41s1.07-2.41,2.41-2.41,2.41,1.08,2.41,2.41-1.07,2.41-2.41,2.41ZM24.02,24h-4.15v-6.5c0-1.55-.03-3.54-2.16-3.54s-2.49,1.69-2.49,3.43v6.61h-4.15v-13.36h3.98v1.82h.06c.56-1.05,1.91-2.16,3.93-2.16,4.2,0,4.98,2.77,4.98,6.37v7.33Z" fill="#112378"/></svg>