<?xml version="1.0" encoding="UTF-8"?><svg id="a" xmlns="http://www.w3.org/2000/svg" width="28" height="24.64" viewBox="0 0 28 24.64"><path d="M6.07,1.66c3.21,2.4,6.67,7.29,7.93,9.91,1.27-2.62,4.72-7.5,7.93-9.91,2.32-1.74,6.07-3.08,6.07,1.2s-.49,7.18-.78,8.21c-1,3.56-4.64,4.48-7.88,3.92,5.66.96,7.1,4.15,3.99,7.34-5.91,6.06-8.49-1.52-9.15-3.46h0c-.09-.27-.14-.43-.18-.43s-.09.17-.18.43h0c-.66,1.94-3.25,9.52-9.15,3.46-3.11-3.19-1.67-6.38,3.99-7.34-3.24.56-6.88-.36-7.88-3.93-.29-1.03-.78-7.35-.78-8.21C0-1.42,3.75-.08,6.07,1.66h0Z" fill="#112378"/></svg>