<?xml version="1.0" encoding="UTF-8"?><svg id="a" xmlns="http://www.w3.org/2000/svg" width="900" height="247.85" xmlns:xlink="http://www.w3.org/1999/xlink" viewBox="0 0 900 247.85"><defs><clipPath id="b"><rect width="900" height="247.85" fill="none"/></clipPath></defs><g clip-path="url(#b)"><path d="M142,0h101.86c2.07,0,3.75,1.68,3.75,3.75v155.67c0,3.73-4.85,5.17-6.89,2.05L138.86,5.81c-1.63-2.5.16-5.81,3.14-5.81Z" fill="#246dff"/><path d="M105.61,0H3.75C1.68,0,0,1.68,0,3.75v155.67c0,3.73,4.85,5.17,6.89,2.05L108.75,5.81c1.63-2.5-.16-5.81-3.14-5.81Z" fill="#20a34e"/><path d="M122.06,124.63L6.35,241.22c-2.35,2.37-.67,6.39,2.66,6.39h229.69c3.32,0,5.01-4,2.68-6.38l-113.98-116.59c-1.46-1.5-3.87-1.51-5.35-.02Z" fill="#f86606"/><path d="M795.93,34.06h-43.34c-13.56,0-19.37,6.78-19.37,19.13v11.87h63.15s36.08,83.3,36.08,83.3l36.08-83.3h31.48l-75.55,174.11h-31l23.25-53.76-43.21-94.2h-40.28v96.38h-30.99v-96.38h-33.66v-26.15h33.66v-17.92c0-23.73,13.07-37.78,40.92-37.78h52.79v24.7Z" fill="#1f2123"/><path d="M549.24,62.4c31.96,0,58.12,23.97,58.12,63.93s-26.15,63.93-58.12,63.93c-26.64,0-39.96-16.47-42.38-21.31v69.98h-30.51V65.06h30.75v19.37c2.18-4.6,15.5-22.04,42.14-22.04ZM541.25,89.52c-21.07,0-34.63,15.74-34.63,36.81s13.56,36.81,34.63,36.81c21.31,0,34.87-15.98,34.87-36.81s-13.56-36.81-34.87-36.81Z" fill="#1f2123" fill-rule="evenodd"/><path d="M395.96,61.91c38.02,0,59.08,19.86,59.08,48.91v41.41c0,7.26,2.66,10.65,9.69,11.14v24.94h-9.69c-15.25-.24-25.18-6.05-28.57-16.95-6.05,8.72-18.65,18.89-39.71,18.89-28.82,0-50.61-16.47-50.61-41.41,0-24.7,18.65-38.02,48.91-38.02h40.2c0-14.77-11.38-24.21-29.3-24.21-16.95,0-23.73,9.2-25.43,12.35h-31.24c2.42-13.08,18.16-37.05,56.66-37.05ZM390.15,131.89c-14.29,0-23.49,5.33-23.49,16.47,0,11.87,11.14,18.89,26.64,18.89,17.44,0,31.96-8.72,31.96-24.94v-10.41h-35.11Z" fill="#1f2123" fill-rule="evenodd"/><path d="M653.8,187.59h-30.99v-122.53h30.99v122.53Z" fill="#1f2123"/><path d="M654.29,45.45h-32.21V8.64h32.21v36.81Z" fill="#1f2123"/></g></svg>