<?xml version="1.0" encoding="UTF-8"?><svg id="a" xmlns="http://www.w3.org/2000/svg" width="900" height="286.41" viewBox="0 0 900 286.41"><path d="M677.67,117.66c-22.7,0-39.45,17.22-39.45,41.02s16.75,41.33,40.08,41.33c14.25,0,27.87-6.89,34.91-17.06l-14.09-9.08c-3.91,6.73-11.74,11.27-20.19,11.27-11.9,0-20.98-8.92-22.7-21.76h60.74c.16-1.57.31-3.44.31-4.7,0-23.8-16.91-41.02-39.61-41.02ZM657.01,150.07c2.82-10.49,10.65-17.53,20.66-17.53s18,7.04,20.82,17.53h-41.49Z" fill-rule="evenodd"/><path d="M603.57,199.74c0,7.59-1.16,12.87-3.3,16.01-2.15,2.97-5.94,4.46-11.39,4.46l4.95,16.34c9.08,0,16.17-2.81,21.29-8.58,4.46-4.79,6.6-12.87,6.6-23.93v-84.32h-18.15v80.03Z" fill-rule="evenodd"/><path d="M612.61,78.42c-6.3,0-11.41,5.11-11.41,11.41s5.11,11.41,11.41,11.41,11.41-5.11,11.41-11.41-5.11-11.41-11.41-11.41Z" fill-rule="evenodd"/><polygon points="757.23 197.97 757.23 134.57 773.04 134.57 773.04 119.7 757.23 119.7 757.23 89.82 739.07 89.82 739.07 119.7 726.29 119.7 726.29 134.57 739.07 134.57 739.07 197.97 757.23 197.97" fill-rule="evenodd"/><path d="M333.08,197.97h18.76l14.68-29.72h55.82l14.5,29.72h18.94l-61.35-125.51-61.35,125.51ZM374.13,152.7l20.3-41.36,20.3,41.36h-40.6Z" fill-rule="evenodd"/><path d="M520.11,158.83c0,23.8,17.06,41.17,40.7,41.17,9.84,0,18.53-3.07,25.36-8.3v-20.59c-5.68,7.23-12.54,13.24-25.36,13.24s-23.01-10.8-23.01-25.52,9.71-25.53,23.01-25.53,19.67,5.87,25.36,13.12v-20.58c-6.81-5.2-15.55-8.18-25.36-8.18-23.64,0-40.7,17.22-40.7,41.17Z" fill-rule="evenodd"/><path d="M493.19,119.92c-2.36,1.11-5.26,3.4-8.75,7.31v-7.5h-18.11v78.24h18.11v-40.53c0-14.82,4.94-22.23,14.82-22.23,3.29,0,6.59,1.15,10.05,3.62l8.23-16.47c-5.11-3.13-11.22-4.61-14.85-4.61s-6.71.85-9.5,2.16Z" fill-rule="evenodd"/><path d="M232.48,133.78c-3.17-12.39-5.71-22.64-10.43-43.95-4.73,21.32-7.27,31.57-10.43,43.95-1.07,4.17-4.33,7.43-8.49,8.49-12.39,3.17-22.64,5.7-43.95,10.43,21.32,4.73,31.56,7.27,43.95,10.43,4.17,1.07,7.43,4.33,8.49,8.49,3.17,12.39,5.71,22.64,10.43,43.95,4.73-21.32,7.27-31.57,10.43-43.95,1.07-4.17,4.33-7.43,8.49-8.49,12.39-3.17,22.64-5.7,43.95-10.43-21.32-4.73-31.56-7.27-43.95-10.43-4.17-1.07-7.43-4.33-8.49-8.49Z" fill-rule="evenodd"/><path d="M22.24,152.45c-7,.08-14.4.16-22.24.25,7.96.09,15.46.18,22.56.25,48.08.53,77.92.86,109.59,3.19l3.44-3.44-3.44-3.44c-31.74,2.33-61.65,2.66-109.91,3.19Z" fill-rule="evenodd"/><path d="M751.15,0h-.08c-.38,0-.77,0-1.15,0,78.52.66,141.98,64.52,141.98,143.2s-63.45,142.54-141.98,143.2c.39,0,.78,0,1.16,0h.05c77.14-.01,148.86-64.95,148.86-143.2S828.29.02,751.15,0Z" fill-rule="evenodd"/></svg>