<?xml version="1.0" encoding="UTF-8"?><svg id="a" xmlns="http://www.w3.org/2000/svg" width="900" height="145.45" xmlns:xlink="http://www.w3.org/1999/xlink" viewBox="0 0 900 145.45"><defs><clipPath id="b"><rect y="-.19" width="900" height="145.84" fill="none"/></clipPath><clipPath id="c"><rect y="11.96" width="105.41" height="105.22" fill="none"/></clipPath></defs><g clip-path="url(#b)"><g clip-path="url(#c)"><path d="M104.27,110.91L56.03,14.43c-.95-2.09-1.9-2.47-3.04-2.47-.95,0-2.09.38-3.23,2.28-6.84,10.83-9.88,23.36-9.88,36.47,0,18.23,9.31,35.33,22.98,62.87,1.52,3.04,2.66,3.61,5.32,3.61h33.43c2.47,0,3.8-.95,3.8-2.85,0-.95-.19-1.52-1.14-3.42ZM34.19,65.33c-3.8-5.7-4.94-6.08-5.89-6.08s-1.52.38-3.23,3.8L.95,111.29c-.76,1.52-.95,2.09-.95,2.85,0,1.52,1.33,3.04,4.18,3.04h34c2.28,0,3.99-1.9,4.94-5.51,1.14-4.56,1.52-8.55,1.52-13.29,0-13.29-5.89-26.21-10.45-33.05Z" fill="#1868db"/></g><path d="M489.7,49.15c0,13.55,6.13,24.19,30.97,29.03,14.51,3.23,17.74,5.48,17.74,10.32s-3.23,7.74-13.55,7.74c-11.93,0-26.13-4.19-35.48-9.68v21.93c7.42,3.55,17.1,7.74,35.48,7.74,25.8,0,35.8-11.61,35.8-28.39M560.66,88.18c0-16.13-8.39-23.55-32.58-28.71-13.23-2.9-16.45-5.81-16.45-10,0-5.16,4.84-7.42,13.55-7.42,10.65,0,20.97,3.23,30.97,7.74v-20.97c-7.1-3.55-17.74-6.13-30.32-6.13-23.87,0-36.13,10.32-36.13,27.1" fill="#1868db"/><path d="M820.01,23.35v91.93h19.68V45.28l8.06,18.39,27.74,51.61h24.51V23.35h-19.35v59.35l-7.42-17.42-22.26-41.93h-30.96Z" fill="#1868db"/><path d="M695.49,23.35h-21.29v91.93h21.29V23.35Z" fill="#1868db"/><path d="M649.69,87.86c0-16.13-8.39-23.55-32.58-28.71-13.23-2.9-16.45-5.81-16.45-10,0-5.16,4.84-7.42,13.55-7.42,10.64,0,20.96,3.23,30.96,7.74v-20.97c-7.09-3.55-17.74-6.13-30.32-6.13-23.87,0-36.13,10.32-36.13,27.1,0,13.55,6.13,24.19,30.96,29.03,14.52,3.23,17.74,5.48,17.74,10.32s-3.22,7.74-13.55,7.74c-11.94,0-26.13-4.19-35.49-9.68v21.93c7.42,3.55,17.1,7.74,35.49,7.74,25.48,0,35.8-11.61,35.8-28.71Z" fill="#1868db"/><path d="M323.9,23.35v91.93h43.87l6.78-20h-29.35V23.35h-21.29Z" fill="#1868db"/><path d="M237.13,23.35v19.68h23.55v72.25h21.61V43.02h25.48v-19.68h-70.64Z" fill="#1868db"/><path d="M205.84,23.35h-28.06l-31.93,91.93h24.52l4.52-15.48c5.48,1.61,11.29,2.58,17.1,2.58s11.61-.97,17.1-2.58l4.52,15.48h24.52c-.32,0-32.26-91.93-32.26-91.93ZM191.65,83.02c-4.19,0-8.06-.65-11.61-1.61l11.61-40,11.61,40c-3.55.97-7.42,1.61-11.61,1.61Z" fill="#1868db"/><path d="M443.57,23.35h-28.07l-32.26,91.93h24.51l4.52-15.48c5.48,1.61,11.29,2.58,17.09,2.58s11.61-.97,17.1-2.58l4.51,15.48h24.52l-31.93-91.93ZM429.38,83.02c-4.19,0-8.06-.65-11.61-1.61l11.61-40,11.61,40c-3.55.97-7.42,1.61-11.61,1.61Z" fill="#1868db"/><path d="M772.59,23.35h-28.06l-31.93,91.93h24.51l4.52-15.48c5.48,1.61,11.29,2.58,17.09,2.58s11.61-.97,17.1-2.58l4.52,15.48h24.52l-32.26-91.93ZM758.72,83.02c-4.19,0-8.06-.65-11.61-1.61l11.61-40,11.61,40c-3.55.97-7.74,1.61-11.61,1.61Z" fill="#1868db"/></g></svg>