<svg width="357" height="80" viewBox="0 0 357 80" fill="none" xmlns="http://www.w3.org/2000/svg">
<path d="M21.8817 14.9858C26.3514 7.27621 37.3655 7.27622 41.835 14.9858L41.9973 15.2658C44.0596 18.8225 47.8184 21.0188 51.893 21.0477L52.2141 21.05C61.0465 21.1126 66.5535 30.7655 62.1906 38.5377L62.0322 38.8199C60.0195 42.4055 60.0195 46.7983 62.0322 50.3838L62.1906 50.6659C66.5535 58.4383 61.0465 68.091 52.2141 68.1537L51.893 68.1558C47.8184 68.1848 44.0596 70.3813 41.9973 73.9378L41.835 74.2178C37.3655 81.9275 26.3514 81.9275 21.8817 74.2178L21.7193 73.9378C19.6573 70.3813 15.8982 68.1848 11.8236 68.1558L11.5028 68.1537C2.67046 68.091 -2.83652 58.4383 1.52607 50.6659L1.68453 50.3838C3.69714 46.7983 3.69714 42.4055 1.68453 38.8199L1.52607 38.5377C-2.83652 30.7655 2.67046 21.1126 11.5028 21.05L11.8236 21.0477C15.8982 21.0188 19.6573 18.8225 21.7193 15.2658L21.8817 14.9858Z" fill="#485AFF"/>
<path fill-rule="evenodd" clip-rule="evenodd" d="M162.724 0C162.392 0 162.124 0.268628 162.124 0.599999V21.7539H151.396C151.065 21.7539 150.796 22.0225 150.796 22.3539V34.5409C150.796 34.8722 151.065 35.1409 151.396 35.1409H162.124V73.0283C162.124 73.3597 162.392 73.6283 162.724 73.6283H174.911C175.242 73.6283 175.511 73.3597 175.511 73.0283V35.1409H186.303C186.634 35.1409 186.903 34.8722 186.903 34.5409V22.3539C186.903 22.0225 186.634 21.7539 186.303 21.7539H175.511V0.6C175.511 0.268629 175.242 0 174.911 0H162.724ZM145.583 66.015V72.9651C145.583 73.3594 145.264 73.679 144.869 73.679H133.603C133.296 73.679 133.023 73.4824 132.926 73.1909L132.14 70.1262C128.011 72.5535 123.421 73.6283 118.809 73.6283C104.035 73.6283 92.0354 61.327 92.0354 46.5257C92.0354 31.7245 104.035 19.4232 118.809 19.4232C133.584 19.4232 145.583 31.7245 145.583 46.5257V66.0053L145.583 66.015ZM125.306 57.9486L125.384 57.9011C127.553 56.5801 129.835 56.6469 131.7 57.4409V46.6868C131.7 39.4181 125.771 33.5157 118.809 33.5157C111.848 33.5157 105.918 39.4181 105.918 46.6868C105.918 53.9556 111.848 59.8579 118.809 59.8579C121.146 59.8579 123.447 59.1703 125.23 57.9988L125.306 57.9486ZM243.962 56.9109C245.368 53.5119 246.071 49.8514 246.071 45.9294C246.071 41.746 245.368 37.9547 243.962 34.5557C242.557 31.124 240.645 28.1989 238.227 25.7803C235.808 23.3291 232.965 21.4498 229.696 20.1425C226.461 18.8025 222.98 18.1325 219.254 18.1325C215.561 18.1325 212.08 18.8352 208.812 20.2405C205.576 21.6459 202.733 23.5906 200.282 26.0745C197.863 28.5257 195.951 31.4508 194.546 34.8499C193.14 38.2489 192.438 41.9421 192.438 45.9294C192.438 49.8514 193.14 53.5119 194.546 56.9109C195.951 60.2772 197.863 63.2024 200.282 65.6863C202.733 68.1375 205.576 70.0822 208.812 71.5202C212.08 72.9256 215.561 73.6283 219.254 73.6283C222.98 73.6283 226.461 72.9256 229.696 71.5202C232.965 70.0822 235.808 68.1375 238.227 65.6863C240.645 63.2024 242.557 60.2772 243.962 56.9109ZM231.51 40.0955C232.229 41.8277 232.589 43.7723 232.589 45.9294C232.589 48.0538 232.229 49.9984 231.51 51.7633C230.824 53.5282 229.876 55.0316 228.667 56.2736C227.458 57.5155 226.036 58.4797 224.402 59.166C222.8 59.8524 221.084 60.1955 219.254 60.1955C217.424 60.1955 215.692 59.836 214.057 59.117C212.456 58.3653 211.051 57.3521 209.841 56.0775C208.665 54.8028 207.733 53.2994 207.047 51.5672C206.361 49.835 206.017 47.9557 206.017 45.9294C206.017 43.7723 206.361 41.8277 207.047 40.0955C207.733 38.3306 208.665 36.8272 209.841 35.5852C211.051 34.3106 212.456 33.3464 214.057 32.6928C215.692 32.0064 217.424 31.6633 219.254 31.6633C221.084 31.6633 222.8 32.0064 224.402 32.6928C226.036 33.3464 227.458 34.3106 228.667 35.5852C229.876 36.8272 230.824 38.3306 231.51 40.0955ZM264.474 73.0284C264.474 73.3597 264.206 73.6284 263.874 73.6284H251.691C251.359 73.6284 251.091 73.3598 251.091 73.0284V22.1231C251.091 21.5708 251.538 21.1231 252.091 21.1231H263.479C264.207 21.1231 264.604 21.8127 264.446 22.3951C264.967 22.1488 265.5 21.9209 266.043 21.7114C268.788 20.6329 271.648 20.0936 274.622 20.0936C277.825 20.0936 280.848 20.7146 283.692 21.9565C286.535 23.1658 289.019 24.849 291.144 27.006C293.268 29.1304 294.935 31.6307 296.144 34.5068C297.386 37.3502 298.007 40.3897 298.007 43.6254V73.0284C298.007 73.3597 297.738 73.6284 297.407 73.6284H285.223C284.892 73.6284 284.623 73.3598 284.623 73.0284V43.6254C284.623 42.2527 284.362 40.9617 283.839 39.7524C283.316 38.5105 282.597 37.4319 281.682 36.5168C280.767 35.6017 279.705 34.8827 278.495 34.3597C277.286 33.8368 275.995 33.5753 274.622 33.5753C273.217 33.5753 271.893 33.8368 270.651 34.3597C269.409 34.8827 268.331 35.6017 267.416 36.5168C266.501 37.4319 265.782 38.5105 265.259 39.7524C264.736 40.9617 264.474 42.2527 264.474 43.6254V73.0284ZM354.552 56.9109C355.957 53.5119 356.66 49.8514 356.66 45.9294C356.66 41.746 355.957 37.9547 354.552 34.5557C353.147 31.124 351.235 28.1989 348.816 25.7803C346.398 23.3291 343.554 21.4498 340.286 20.1425C337.05 18.8025 333.569 18.1325 329.844 18.1325C326.15 18.1325 322.67 18.8352 319.401 20.2405C316.166 21.6459 313.322 23.5906 310.871 26.0745C308.453 28.5257 306.541 31.4508 305.135 34.8499C303.73 38.2489 303.027 41.9421 303.027 45.9294C303.027 49.8514 303.73 53.5119 305.135 56.9109C306.541 60.2772 308.453 63.2024 310.871 65.6863C313.322 68.1375 316.166 70.0822 319.401 71.5202C322.67 72.9256 326.15 73.6283 329.844 73.6283C333.569 73.6283 337.05 72.9256 340.286 71.5202C343.554 70.0822 346.398 68.1375 348.816 65.6863C351.235 63.2024 353.147 60.2772 354.552 56.9109ZM342.1 40.0955C342.819 41.8277 343.178 43.7723 343.178 45.9294C343.178 48.0538 342.819 49.9984 342.1 51.7633C341.413 53.5282 340.466 55.0316 339.256 56.2736C338.047 57.5155 336.625 58.4797 334.991 59.166C333.39 59.8524 331.674 60.1955 329.844 60.1955C328.013 60.1955 326.281 59.836 324.647 59.117C323.046 58.3653 321.64 57.3521 320.431 56.0775C319.254 54.8028 318.323 53.2994 317.636 51.5672C316.95 49.835 316.607 47.9557 316.607 45.9294C316.607 43.7723 316.95 41.8277 317.636 40.0955C318.323 38.3306 319.254 36.8272 320.431 35.5852C321.64 34.3106 323.046 33.3464 324.647 32.6928C326.281 32.0064 328.013 31.6633 329.844 31.6633C331.674 31.6633 333.39 32.0064 334.991 32.6928C336.625 33.3464 338.047 34.3106 339.256 35.5852C340.466 36.8272 341.413 38.3306 342.1 40.0955Z" fill="#14141A"/>
</svg>
