<?xml version="1.0" encoding="UTF-8"?><svg id="a" xmlns="http://www.w3.org/2000/svg" width="900" height="262.72" viewBox="0 0 900 262.72"><path d="M287.95,164.99c0-28.24,23.43-38.91,52.92-38.91h28.66c2.09,0,3.14-1.05,3.14-3.14v-4.39c0-15.27-11.5-22.59-28.45-22.59-13.18,0-22.17,4.4-26.99,13.81-1.67,3.35-3.14,4.6-6.69,4.6h-12.34c-3.97,0-5.86-2.09-5.86-5.23,0-1.47.42-3.56,2.09-7.11,7.95-16.52,23.43-27.19,52.3-27.19,32.21,0,51.25,14.23,51.25,45.39v51.67c0,5.23,1.88,6.49,6.27,6.49h.21c4.18,0,6.27,2.09,6.27,6.27v10.46c0,4.18-2.09,6.27-6.27,6.27h-7.32c-11.93,0-17.99-3.14-21.76-11.3-.63-1.47-1.05-1.88-1.88-1.88s-1.47.42-3.14,1.88c-9.41,8.37-21.13,12.76-36.82,12.76-23.85,0-45.6-11.09-45.6-37.86h0ZM372.67,150.77v-2.09c0-2.09-1.05-3.14-3.14-3.14h-31.38c-14.64,0-24.89,5.44-24.89,18.41s10.46,18.41,23.01,18.41c19.46,0,36.4-12.13,36.4-31.59h0Z"/><path d="M421.2,146.79v-64.22c0-4.18,2.09-6.27,6.27-6.27h12.76c4.18,0,6.27,2.09,6.27,6.27v61.92c0,20.08,7.32,34.93,28.24,34.93,22.17,0,32.63-17.57,32.63-37.86v-58.99c0-4.18,2.09-6.27,6.27-6.27h12.76c4.18,0,6.27,2.09,6.27,6.27v112.54c0,4.18-2.09,6.27-6.27,6.27h-11.5c-3.77,0-5.86-1.88-6.49-5.65l-1.05-5.65c-.21-1.26-.84-1.88-1.88-1.88-.83,0-1.46.42-2.51,1.47-8.58,7.74-19.04,13.18-34.52,13.18-32.84,0-47.28-23.64-47.28-56.06h0Z"/><path d="M556.12,167.29V40.53c0-4.18,2.09-6.27,6.27-6.27h12.76c4.18,0,6.27,2.09,6.27,6.27v32.63c0,2.09,1.05,3.14,3.14,3.14h37.03c4.18,0,6.27,2.09,6.27,6.27v10.46c0,4.18-2.09,6.28-6.27,6.28h-37.03c-2.09,0-3.14,1.05-3.14,3.14v62.55c0,9.2,4.18,13.39,13.59,13.39h29.08c4.18,0,6.27,2.09,6.27,6.27v10.46c0,4.18-2.09,6.27-6.27,6.27h-30.33c-26.15,0-37.65-10.46-37.65-34.1h0Z"/><path d="M647.74,195.11V40.53c0-4.18,2.09-6.27,6.27-6.27h12.76c4.18,0,6.27,2.09,6.27,6.27v48.74c0,1.26.83,2.09,1.88,2.09.63,0,1.25-.21,3.14-1.88,9.2-8.37,19.24-14.64,36.19-14.64,32.63,0,47.28,23.01,47.28,56.9v63.38c0,4.18-2.09,6.27-6.27,6.27h-12.76c-4.18,0-6.27-2.09-6.27-6.27v-62.13c0-19.46-7.53-34.73-28.03-34.73-21.97,0-35.14,17.78-35.14,42.88v53.97c0,4.18-2.09,6.27-6.27,6.27h-12.76c-4.18,0-6.27-2.09-6.27-6.27h0Z"/><path d="M777.43,117.93c0-56.69,21.96-85.14,61.29-85.14s61.28,28.45,61.28,85.14-21.96,84.93-61.28,84.93-61.29-28.45-61.29-84.93ZM808.18,136.96l55.43-61.5c.84-1.05,1.25-1.67,1.25-3.14,0-1.05-.21-2.3-1.67-4.19-5.65-6.9-13.59-11.92-24.47-11.92-23.01,0-35.98,20.92-35.98,61.92,0,5.85.21,11.09,1.05,18.2.21,1.26.83,2.09,1.88,2.09.63,0,1.47-.21,2.51-1.46h0ZM874.69,117.51c0-5.86-.21-11.09-1.05-18.2-.21-1.26-.83-2.09-1.88-2.09-.63,0-1.47.21-2.51,1.47l-55.43,61.5c-.83,1.05-1.25,1.67-1.25,3.14,0,1.05.21,2.3,1.67,4.18,5.65,6.9,13.59,11.92,24.48,11.92,23.01,0,35.98-20.92,35.98-61.92h0Z"/><path d="M13.87,112.2c43.07-7.09,76.83-40.85,83.92-83.92l3.45-20.95c.66-4.05-2.66-7.63-6.76-7.31C61.69,2.56,30.78,13.41,13.71,20.41,5.42,23.81,0,31.87,0,40.84v66.21c0,3.89,3.48,6.86,7.33,6.23l6.54-1.07h0Z"/><path d="M118.57,28.28c7.09,43.07,40.85,76.83,83.92,83.92l6.54,1.07c3.85.63,7.33-2.33,7.33-6.23V40.84c0-8.97-5.42-17.02-13.71-20.42C185.58,13.41,154.66,2.56,121.88.03c-4.1-.32-7.44,3.25-6.76,7.31l3.45,20.95h0Z"/><path d="M202.49,132.96c-43.07,7.09-76.83,40.85-83.92,83.92l-4.3,40.88c-.39,3.69,3.7,6.29,6.79,4.22.03-.02.05-.03.08-.05,27.01-18.22,88.63-65.91,94.73-125.48.3-2.93-2.3-5.33-5.2-4.86l-8.17,1.34-.02.02h0Z"/><path d="M97.79,216.88c-7.09-43.07-40.85-76.83-83.92-83.92l-8.78-1.45c-2.59-.43-4.9,1.72-4.65,4.33,5.78,59.9,68.26,107.89,95.51,126.14h0c2.82,1.87,6.55-.38,6.19-3.75l-4.35-41.36h0Z"/></svg>