<?xml version="1.0" encoding="UTF-8"?><svg id="a" xmlns="http://www.w3.org/2000/svg" width="900" height="538.16" viewBox="0 0 900 538.16"><path d="M253.61,195.35c0,11.18,1.13,20.08,3.4,26.71,2.27,6.64,5.5,13.8,9.69,21.47,1.39,2.45,2.1,4.71,2.1,6.81,0,3.14-1.92,6.11-5.76,8.91l-18.85,12.57c-2.8,1.74-5.42,2.62-7.86,2.62-3.14,0-6.11-1.39-8.9-4.19-4.19-4.19-7.77-8.81-10.74-13.88-2.97-5.06-6.02-10.91-9.17-17.54-23.4,27.59-52.72,41.37-87.98,41.37-25.14,0-45.04-7.15-59.7-21.47-14.67-14.31-22-33.52-22-57.61,0-25.48,9.08-45.99,27.24-61.54,18.15-15.53,42.59-23.3,73.32-23.3,10.12,0,20.69.79,31.68,2.36,11,1.57,22.43,3.76,34.3,6.55v-22c0-22.69-4.71-38.67-14.14-47.92-9.43-9.25-25.66-13.88-48.71-13.88-10.47,0-21.21,1.31-32.21,3.93-11,2.62-21.74,6.02-32.21,10.21-4.89,2.09-8.38,3.4-10.47,3.93-2.09.52-3.66.78-4.71.78-4.19,0-6.29-3.14-6.29-9.43v-14.66c0-4.88.7-8.38,2.1-10.47,1.39-2.1,4.19-4.19,8.38-6.28,10.47-5.24,23.04-9.77,37.71-13.62,14.66-3.84,30.2-5.76,46.61-5.76,35.61,0,61.71,8.12,78.3,24.35,16.58,16.23,24.88,40.77,24.88,73.58v97.41ZM132.1,240.91c9.77,0,20.07-1.84,30.9-5.5,10.82-3.66,20.24-10.03,28.28-19.12,4.89-5.58,8.29-11.96,10.21-19.12,1.92-7.15,2.88-15.79,2.88-25.92v-12.57c-8.73-2.1-17.9-3.75-27.5-4.97-9.61-1.22-18.94-1.83-28.02-1.83-19.9,0-34.75,4.02-44.52,12.04-9.78,8.04-14.67,19.56-14.67,34.56,0,13.97,3.67,24.53,11,31.69,7.33,7.16,17.81,10.74,31.42,10.74ZM372.49,273.38c-5.24,0-9.08-.96-11.52-2.88-2.45-1.91-4.54-5.84-6.29-11.78L284.51,27.23c-1.75-5.93-2.62-9.95-2.62-12.05,0-4.88,2.44-7.33,7.33-7.33h29.33c5.58,0,9.51.97,11.78,2.88,2.27,1.92,4.27,5.85,6.02,11.78l50.28,197.97,46.61-197.97c1.39-5.93,3.31-9.86,5.76-11.78,2.44-1.91,6.46-2.88,12.04-2.88h24.09c5.58,0,9.6.97,12.05,2.88,2.44,1.92,4.36,5.85,5.76,11.78l47.13,200.59,51.85-200.59c1.74-5.93,3.75-9.86,6.02-11.78,2.27-1.91,6.19-2.88,11.78-2.88h27.76c4.89,0,7.33,2.45,7.33,7.33,0,1.4-.18,2.97-.52,4.71-.35,1.75-1.05,4.19-2.1,7.33l-72.27,231.48c-1.75,5.94-3.85,9.87-6.29,11.78-2.45,1.92-6.28,2.88-11.52,2.88h-25.66c-5.59,0-9.61-1.05-12.05-3.14-2.45-2.1-4.37-6.11-5.76-12.05l-46.61-192.73-46.09,192.73c-1.4,5.94-3.32,9.95-5.76,12.05-2.45,2.1-6.46,3.14-12.05,3.14h-25.66ZM756.9,281.24c-15.71,0-31.08-1.75-46.09-5.24-15.02-3.49-26.54-7.51-34.56-12.05-4.89-2.79-7.95-5.58-9.17-8.38-1.23-2.79-1.83-5.58-1.83-8.38v-15.19c0-6.28,2.27-9.43,6.81-9.43,1.74,0,3.57.35,5.5,1.05,1.91.7,4.45,1.75,7.6,3.14,10.12,4.54,21.12,8.04,32.99,10.47,11.87,2.45,23.74,3.67,35.61,3.67,18.85,0,33.43-3.31,43.73-9.95,10.29-6.63,15.45-16.06,15.45-28.28,0-8.38-2.71-15.36-8.12-20.95-5.42-5.58-15.45-10.82-30.11-15.71l-43.47-13.62c-22-6.98-37.97-17.1-47.92-30.38-9.95-13.26-14.93-27.76-14.93-43.47,0-12.57,2.7-23.65,8.12-33.26,5.41-9.6,12.57-17.81,21.47-24.62,8.9-6.81,19.29-11.96,31.16-15.45,11.87-3.48,24.44-5.24,37.71-5.24,6.63,0,13.35.44,20.16,1.31,6.81.88,13.27,2.01,19.38,3.4,6.11,1.4,11.78,2.97,17.02,4.71,5.24,1.75,9.43,3.5,12.57,5.24,4.19,2.45,7.15,4.89,8.9,7.33,1.74,2.45,2.62,5.76,2.62,9.95v14.14c0,6.28-2.28,9.43-6.81,9.43-2.45,0-6.28-1.22-11.52-3.67-17.11-7.68-36.32-11.52-57.61-11.52-17.11,0-30.38,2.8-39.8,8.38-9.43,5.59-14.14,14.49-14.14,26.71,0,8.38,2.96,15.45,8.9,21.21,5.93,5.76,16.93,11.26,33,16.5l42.42,13.62c21.64,6.99,37.1,16.59,46.35,28.8,9.25,12.23,13.88,26.19,13.88,41.9,0,12.92-2.62,24.53-7.86,34.83-5.24,10.3-12.49,19.12-21.73,26.45-9.25,7.33-20.34,12.92-33.26,16.76-12.92,3.84-27.06,5.76-42.42,5.76ZM799.18,403.75c-110.47,46.86-230.51,69.52-339.72,69.52-161.89,0-318.64-44.42-445.39-118.17-11.09-6.45-19.32,4.92-10.09,13.26,117.48,106.08,272.73,169.8,445.13,169.8,123.01,0,265.86-38.67,364.4-111.38,16.3-12.05,2.33-30.09-14.32-23.02ZM828.6,492.31c-3.61,8.98,4.13,12.6,12.26,5.81,52.85-44.22,66.52-136.88,55.7-150.25-10.74-13.27-103.16-24.7-159.57,14.91-8.67,6.09-7.18,14.5,2.44,13.34,31.77-3.81,102.46-12.29,115.07,3.84,12.61,16.15-14.01,82.65-25.91,112.35Z" fill="#161d26"/></svg>