<?xml version="1.0" encoding="UTF-8"?><svg id="a" xmlns="http://www.w3.org/2000/svg" width="900" height="306.36" viewBox="0 0 900 306.36"><path d="M213.38,83.41L52.86,153.88l160.53,70.42v61.82L0,183.13v-58.54L213.38,21.39v62.02Z" fill="#34495e"/><path d="M686.57,83.41V21.39l213.43,103.19v58.54l-213.43,102.99v-61.82l160.53-70.22-160.53-70.68Z" fill="#34495e"/><path d="M318.84,115.07c5.86-10.76,14.17-19.99,24.26-26.93,9.33-6.05,20.24-9.19,31.36-9.01,25.64,0,45.37,9.78,59.2,29.35,13.83,19.56,20.76,47.64,20.79,84.22,0,36.08-6.83,64.03-20.49,83.86-12.65,19.33-34.5,30.61-57.59,29.75-12.07.36-23.96-2.88-34.18-9.31-10.26-7.03-18.35-16.8-23.36-28.19v32.07h-56.43V0h56.43v115.07ZM397.62,193.15c0-20.87-3.47-37.23-10.42-49.08-5.44-10.92-16.6-17.8-28.79-17.77-12.24-.02-23.45,6.85-28.99,17.77-7.08,11.85-10.62,28.21-10.62,49.08s3.54,37.23,10.62,49.08c5.54,10.92,16.75,17.79,28.99,17.77,12.2.03,23.36-6.85,28.79-17.77,6.95-11.88,10.42-28.24,10.42-49.08Z" fill="#25ae5f"/><path d="M637.54,289.7c-9.6,5.58-19.94,9.78-30.71,12.48-11.53,2.82-23.37,4.21-35.24,4.13-33.36,0-59.43-10.07-78.23-30.2-18.79-20.14-28.22-47.92-28.29-83.36,0-35.67,9.46-63.59,28.39-83.76,18.93-20.17,45.07-30.24,78.43-30.2,11.3-.03,22.56,1.34,33.53,4.08,11.19,2.87,21.99,7.08,32.17,12.53v51.75c-8.06-6.94-17.25-12.44-27.18-16.26-9.76-3.78-20.14-5.71-30.61-5.69-18.42,0-32.59,5.86-42.49,17.57-9.9,11.71-14.93,28.39-15.1,50.04,0,21.65,5.03,38.26,15.1,49.83s24.23,17.37,42.49,17.37c10.49.09,20.9-1.77,30.71-5.49,9.93-3.92,19.09-9.58,27.03-16.71v51.9Z" fill="#2981bb"/></svg>