<?xml version="1.0" encoding="UTF-8"?><svg xmlns="http://www.w3.org/2000/svg" width="900" height="196.82" viewBox="0 0 900 196.82"><g id="a" shape-rendering="crispEdges"><g id="b"><rect x="0" y=".05" width="52.84" height="52.84" rx="8.81" ry="8.81"/><rect x="70.45" y=".05" width="52.84" height="52.84" rx="8.81" ry="8.81"/><rect x="140.9" y=".05" width="52.84" height="52.84" rx="8.81" ry="8.81"/><rect x="0" y="70.5" width="52.84" height="52.84" rx="8.81" ry="8.81"/><rect x="70.45" y="70.5" width="52.84" height="52.84" rx="8.81" ry="8.81"/><rect x="140.9" y="70.5" width="52.84" height="52.84" rx="8.81" ry="8.81"/><rect x="0" y="140.95" width="52.84" height="52.84" rx="8.81" ry="8.81"/><rect x="70.45" y="140.95" width="52.84" height="52.84" rx="8.81" ry="8.81"/><rect x="140.9" y="140.95" width="52.84" height="52.84" rx="8.81" ry="8.81"/></g><path d="M319.44,196.76c-18.27,0-31.73-7.28-40.59-17.81v8.56c0,3.46-2.8,6.28-6.26,6.28h-19.76c-3.45,0-6.25-2.81-6.25-6.28V6.33c0-3.46,2.8-6.28,6.25-6.28h19.76c3.45,0,6.26,2.81,6.26,6.28v60.92c8.86-10.52,22.32-17.81,40.59-17.81,39.53,0,62.11,33.46,62.11,73.66s-22.58,73.66-62.11,73.66ZM278.02,119.05v8.37c0,26.18,15.05,41.03,34.95,41.03,23.39,0,36.02-18.34,36.02-45.33s-12.63-45.33-36.02-45.33c-19.9,0-34.95,14.58-34.95,41.29v-.02ZM441.42,6.33v181.2c0,3.46-2.8,6.28-6.26,6.28h-19.76c-3.45,0-6.25-2.81-6.25-6.28V6.33c0-3.46,2.8-6.28,6.25-6.28h19.76c3.45,0,6.26,2.81,6.26,6.28ZM605.18,123.09c0,43.98-28.23,73.66-68.02,73.66s-68.02-29.68-68.02-73.66,28.23-73.66,68.02-73.66,68.02,29.68,68.02,73.66ZM501.67,123.09c0,28.87,13.72,46.41,35.49,46.41s35.5-17.53,35.5-46.41-13.72-46.41-35.5-46.41-35.49,17.55-35.49,46.41ZM656.35,123.09c0,28.87,15.05,45.6,37.11,45.6,14.68,0,24.48-8.25,29.54-20.4,1.42-3.41,5.34-4.98,8.63-3.31l16.24,8.23c2.98,1.51,4.24,5.1,2.91,8.16-8.79,20.21-29.21,35.4-57.31,35.4-40.33,0-69.36-29.95-69.36-73.66s29.03-73.66,69.36-73.66c27.87,0,47.83,14.54,56.75,34.45,1.35,3.01.19,6.56-2.7,8.14l-15.93,8.7c-3.24,1.78-7.2.26-8.65-3.15-5.08-11.96-14.84-20.35-29.47-20.35-22.04,0-37.11,17-37.11,45.88l-.02-.04Z"/><path d="M807.29,104.57V6.33c0-3.46-2.8-6.28-6.25-6.28h-19.76c-3.45,0-6.26,2.81-6.26,6.28v181.16c0,3.46,2.8,6.28,6.26,6.28h19.76c3.45,0,6.25-2.81,6.25-6.28v-37.65c0-.72.3-1.42.81-1.95l15.35-15.63c1.25-1.27,3.31-1.06,4.29.42l38.46,58.28c1.15,1.76,3.1,2.81,5.2,2.81h22.34c4.99,0,7.97-5.59,5.2-9.76l-49.81-74.98c-.74-1.09-.59-2.53.32-3.48l41.38-42.78c3.86-3.97,1.03-10.64-4.48-10.64h-21.99c-1.75,0-3.42.74-4.61,2.04l-47.62,52.3c-1.72,1.88-4.84.67-4.84-1.88Z"/></g></svg>