<?xml version="1.0" encoding="UTF-8"?>
<svg width="1200px" height="600px" viewBox="0 0 1200 600" version="1.1" xmlns="http://www.w3.org/2000/svg" xmlns:xlink="http://www.w3.org/1999/xlink">
    <title>crVertical--dark</title>
    <g id="crVertical--dark" stroke="none" stroke-width="1" fill="none" fill-rule="evenodd">
        <g id="verticalDark" transform="translate(-0.000000, 0.000000)" fill="#081828" fill-rule="nonzero">
            <path d="M0,547.767836 L0,547.47763 C0,518.607014 21.6154776,494.95526 52.382104,494.95526 C68.0483675,494.95526 78.355502,499.598549 87.2019346,506.41838 C89.0931076,507.864571 90.6892383,510.336155 90.6892383,513.528416 C90.6892383,518.457074 86.766626,522.234583 81.8379683,522.234583 C79.371221,522.234583 77.6251511,521.35913 76.464329,520.488513 C69.504232,514.829505 61.9540507,511.351875 52.2321644,511.351875 C32.9383312,511.351875 18.7182587,527.308344 18.7182587,547.187425 L18.7182587,547.47763 C18.7182587,567.356711 32.7932285,583.458283 52.2321644,583.458283 C62.9697702,583.458283 70.2249093,579.975816 77.6251511,573.741234 C78.9310762,572.580411 80.8222493,571.709795 82.998791,571.709795 C87.4969769,571.709795 91.409915,575.47763 91.409915,579.975816 C91.409915,582.732769 90.1088273,584.914148 88.5078598,586.360339 C78.9310762,594.7763 68.0483675,600 51.6517532,600 C22.0556227,600 0,576.928658 0,547.767836 M128.996372,504.822249 C128.996372,499.888755 132.90931,495.97098 137.987908,495.97098 C142.921403,495.97098 146.839177,499.888755 146.839177,504.822249 L146.839177,538.916566 L195.303506,538.916566 L195.303506,504.822249 C195.303506,499.888755 199.221282,495.97098 204.154776,495.97098 C209.228536,495.97098 213.151149,499.888755 213.151149,504.822249 L213.151149,590.133011 C213.151149,595.066505 209.228536,598.984281 204.154776,598.984281 C199.221282,598.984281 195.303506,595.066505 195.303506,590.133011 L195.303506,555.458283 L146.839177,555.458283 L146.839177,590.133011 C146.839177,595.066505 142.921403,598.984281 137.987908,598.984281 C132.90931,598.984281 128.996372,595.066505 128.996372,590.133011 L128.996372,504.822249 M317.334945,557.925031 L299.49214,516.86578 L281.639661,557.925031 L317.334945,557.925031 Z M250.882708,586.650545 L288.609431,502.500605 C290.64087,498.002419 294.26844,495.245466 299.3422,495.245466 L300.212817,495.245466 C305.291415,495.245466 308.778718,498.002419 310.80532,502.500605 L348.532043,586.650545 C349.257557,587.961306 349.547762,589.262394 349.547762,590.423216 C349.547762,595.216445 345.920193,598.984281 341.131802,598.984281 C336.92382,598.984281 334.021765,596.517534 332.425635,592.744861 L324.154776,573.741234 L274.824667,573.741234 L266.258766,593.325272 C264.812575,596.952842 261.765417,598.984281 257.992744,598.984281 C253.349455,598.984281 249.721886,595.356711 249.721886,590.713422 C249.721886,589.407497 250.152358,588.101572 250.882708,586.650545 L250.882708,586.650545 Z M387.279322,504.822249 C387.279322,499.888755 391.197098,495.97098 396.270858,495.97098 C401.209189,495.97098 405.122128,499.888755 405.122128,504.822249 L405.122128,590.133011 C405.122128,595.066505 401.209189,598.984281 396.270858,598.984281 C391.197098,598.984281 387.279322,595.066505 387.279322,590.133011 L387.279322,504.822249 M449.668681,505.112455 C449.668681,500.17896 453.586457,496.116083 458.665054,496.116083 L460.55139,496.116083 C464.904473,496.116083 467.371221,498.292624 469.837968,501.339783 L520.619104,567.066506 L520.619104,504.677147 C520.619104,499.888755 524.541716,495.97098 529.325271,495.97098 C534.263603,495.97098 538.176541,499.888755 538.176541,504.677147 L538.176541,589.987909 C538.176541,594.921403 534.403868,598.844015 529.470374,598.844015 L528.74486,598.844015 C524.541716,598.844015 521.929866,596.662636 519.458282,593.470375 L467.226118,525.862153 L467.226118,590.278114 C467.226118,595.066505 463.308343,598.984281 458.519951,598.984281 C453.586457,598.984281 449.668681,595.066505 449.668681,590.278114 L449.668681,505.112455 M686.616685,547.047159 C699.385733,547.047159 707.511485,540.367594 707.511485,530.065297 L707.511485,529.775091 C707.511485,518.897219 699.675937,512.948005 686.47158,512.948005 L660.498186,512.948005 L660.498186,547.047159 L686.616685,547.047159 Z M642.65538,505.692866 C642.65538,500.614269 646.568319,496.696494 651.646916,496.696494 L687.922611,496.696494 C700.691653,496.696494 710.703751,500.469166 717.233373,506.848852 C722.602175,512.367594 725.649335,519.912939 725.649335,528.759372 L725.649335,529.049577 C725.649335,545.301089 716.217651,555.168078 702.577992,559.376058 L722.021761,583.898428 C723.75816,586.070133 724.923823,587.961306 724.923823,590.713422 C724.923823,595.646917 720.710999,598.984281 716.362756,598.984281 C712.29988,598.984281 709.688028,597.097945 707.65659,594.340992 L682.989118,562.858525 L660.498186,562.858525 L660.498186,590.133011 C660.498186,595.066505 656.585247,598.984281 651.646916,598.984281 C646.568319,598.984281 642.65538,595.066505 642.65538,590.133011 L642.65538,505.692866 L642.65538,505.692866 Z M764.977025,589.262394 L764.977025,505.692866 C764.977025,500.614269 768.88996,496.696494 773.968558,496.696494 L833.025392,496.696494 C837.378478,496.696494 841.006045,500.324063 841.006045,504.677147 C841.006045,509.170496 837.378478,512.6578 833.025392,512.6578 L782.819829,512.6578 L782.819829,539.061669 L826.495769,539.061669 C830.848848,539.061669 834.476423,542.689239 834.476423,547.187425 C834.476423,551.540508 830.848848,555.022975 826.495769,555.022975 L782.819829,555.022975 L782.819829,582.302298 L833.750904,582.302298 C838.10399,582.302298 841.731557,585.929867 841.731557,590.278114 C841.731557,594.7763 838.10399,598.258767 833.750904,598.258767 L773.968558,598.258767 C768.88996,598.258767 764.977025,594.340992 764.977025,589.262394 M940.251513,557.925031 L922.408703,516.86578 L904.556227,557.925031 L940.251513,557.925031 Z M873.799276,586.650545 L911.525994,502.500605 C913.557432,498.002419 917.185006,495.245466 922.258768,495.245466 L923.129385,495.245466 C928.207977,495.245466 931.695282,498.002419 933.72672,502.500605 L971.448608,586.650545 C972.17412,587.961306 972.464331,589.262394 972.464331,590.423216 C972.464331,595.216445 968.836757,598.984281 964.048369,598.984281 C959.840387,598.984281 956.938332,596.517534 955.342196,592.744861 L947.071339,573.741234 L897.74123,573.741234 L889.18017,593.325272 C887.729139,596.952842 884.681985,598.984281 880.909313,598.984281 C876.266023,598.984281 872.638449,595.356711 872.638449,590.713422 C872.638449,589.407497 873.068921,588.101572 873.799276,586.650545 L873.799276,586.650545 Z M1000.3289,547.767836 L1000.3289,547.47763 C1000.3289,518.607014 1021.94921,494.95526 1052.711,494.95526 C1068.37726,494.95526 1078.6844,499.598549 1087.53083,506.41838 C1089.42201,507.864571 1091.01814,510.336155 1091.01814,513.528416 C1091.01814,518.457074 1087.09552,522.234583 1082.16686,522.234583 C1079.70012,522.234583 1077.95888,521.35913 1076.79806,520.488513 C1069.83313,514.829505 1062.28779,511.351875 1052.5659,511.351875 C1033.27206,511.351875 1019.04716,527.308344 1019.04716,547.187425 L1019.04716,547.47763 C1019.04716,567.356711 1033.12213,583.458283 1052.5659,583.458283 C1063.3035,583.458283 1070.55864,579.975816 1077.95888,573.741234 C1079.25997,572.580411 1081.15115,571.709795 1083.32769,571.709795 C1087.82588,571.709795 1091.73881,575.47763 1091.73881,579.975816 C1091.73881,582.732769 1090.43773,584.914148 1088.84159,586.360339 C1079.25997,594.7763 1068.37726,600 1051.98549,600 C1022.38936,600 1000.3289,576.928658 1000.3289,547.767836 M1154.27811,513.238211 L1129.61548,513.238211 C1124.97219,513.238211 1121.34462,509.465538 1121.34462,504.967352 C1121.34462,500.469166 1124.97219,496.696494 1129.61548,496.696494 L1197.08343,496.696494 C1201.58162,496.696494 1205.20919,500.469166 1205.20919,504.967352 C1205.20919,509.465538 1201.58162,513.238211 1197.08343,513.238211 L1172.27086,513.238211 L1172.27086,590.133011 C1172.27086,595.066505 1168.20798,598.984281 1163.27448,598.984281 C1158.34099,598.984281 1154.27811,595.066505 1154.27811,590.133011 L1154.27811,513.238211 M776.570735,178.916565 C823.168075,178.916565 860.943165,217.185005 860.943165,264.382103 C860.943165,311.584038 823.168075,349.852478 776.570735,349.852478 C729.973395,349.852478 692.203141,311.584038 692.203141,264.382103 C692.203141,259.496976 692.628776,254.708584 693.407494,250.050785 C699.516321,213.417169 728.619102,184.725513 765.165656,179.719467 C768.894798,179.201934 772.701327,178.916565 776.570735,178.916565 Z M422.945583,178.916565 C426.819827,178.916565 430.62152,179.201934 434.355498,179.719467 C470.897215,184.725513 499.999996,213.417169 506.11366,250.050785 C506.887542,254.708584 507.318013,259.496976 507.318013,264.382103 C507.318013,311.584038 469.538086,349.852478 422.945583,349.852478 C376.348243,349.852478 338.573152,311.584038 338.573152,264.382103 C338.573152,217.185005 376.348243,178.916565 422.945583,178.916565 Z M755.2503,213.310761 C752.899635,213.310761 750.747277,213.866988 748.841593,214.964932 C742.529622,218.597339 740.13059,227.477629 742.099151,239.961305 C742.269405,241.052478 742.476805,242.165319 742.711446,243.2924 L742.892379,244.140265 L742.689235,244.493349 C729.702537,248.440144 720.517531,254.984279 720.454111,263.995162 C720.406285,271.35671 726.800481,277.891172 738.457071,282.413542 C739.806527,282.935912 741.228534,283.429261 742.689235,283.89359 C742.331315,285.402659 742.021763,286.887544 741.775088,288.333736 C739.642077,300.793228 741.920191,309.702538 748.183794,313.422006 C750.133008,314.573155 752.348244,315.163239 754.77146,315.163239 C760.852611,315.163239 768.191766,311.235468 775.677688,304.427139 L776.101569,304.038693 L776.507857,304.038693 C783.680771,310.906891 791.163238,315.458282 797.896007,315.458282 C800.241835,315.458282 802.39903,314.902054 804.304713,313.80411 C810.616684,310.166867 813.01088,301.291414 811.047155,288.807738 C810.876901,287.716565 810.666406,286.603723 810.430527,285.471689 L810.24909,284.619104 L810.452234,284.270858 C823.44377,280.324062 832.628776,273.779927 832.687359,264.764207 C832.735185,257.407496 826.345826,250.868197 814.689235,246.350664 C813.334943,245.828294 811.917773,245.334945 810.452234,244.870616 C810.810154,243.366384 811.119707,241.876662 811.366382,240.430471 C813.499393,227.975815 811.221279,219.066504 804.957676,215.347036 C803.013298,214.191051 800.798062,213.600966 798.370009,213.600966 C792.288859,213.605714 784.949704,217.533574 777.463781,224.341903 L777.0399,224.73035 L776.633613,224.725513 C769.465536,217.862151 761.983069,213.310761 755.2503,213.310761 Z M401.620311,213.310761 C399.274482,213.310761 397.117288,213.866988 395.211605,214.964932 C388.899634,218.597339 386.505438,227.477629 388.469162,239.961305 C388.643285,241.052478 388.848364,242.165319 389.081921,243.2924 L389.26239,244.140265 L389.059247,244.493349 C376.072548,248.440144 366.887542,254.984279 366.828846,263.995162 C366.776296,271.35671 373.170492,277.891172 384.827082,282.413542 C386.181375,282.935912 387.598545,283.429261 389.064083,283.89359 C388.706163,285.402659 388.396611,286.887544 388.145099,288.333736 C386.016925,300.793228 388.295039,309.702538 394.558642,313.422006 C396.503019,314.573155 398.718255,315.163239 401.146308,315.163239 C407.227458,315.163239 414.566613,311.235468 422.052536,304.427139 L422.476417,304.038693 L422.882705,304.038693 C430.055619,310.906891 437.538086,315.458282 444.266018,315.458282 C446.616683,315.458282 448.769041,314.902054 450.674724,313.80411 C456.986695,310.166867 459.380891,301.291414 457.417166,288.807738 C457.246913,287.716565 457.039513,286.603723 456.804872,285.471689 L456.623938,284.619104 L456.827082,284.270858 C469.813781,280.324062 478.998787,273.779927 479.062207,264.764207 C479.110033,257.407496 472.715837,250.868197 461.064083,246.350664 C459.709791,245.828294 458.287784,245.334945 456.827082,244.870616 C457.180165,243.366384 457.494555,241.876662 457.74123,240.430471 C459.874241,227.975815 457.596127,219.066504 451.327687,215.347036 C449.38331,214.191051 447.168074,213.600966 444.744857,213.600966 C438.663707,213.605714 431.319892,217.533574 423.833798,224.341903 L423.409912,224.73035 L423.00846,224.725513 C415.835547,217.862151 408.35308,213.310761 401.620311,213.310761 Z M451.690447,285.649335 L452.053203,285.886336 C454.577992,297.634824 453.513905,306.655381 448.333736,309.634824 C447.134219,310.331318 445.765417,310.665054 444.266021,310.665054 C439.416976,310.665054 433.202236,307.171846 426.687043,301.100445 L426.287787,300.725513 L426.273276,300.290205 C429.406207,297.012817 432.522284,293.276173 435.550723,289.123531 L436.198307,288.227327 L436.411124,288.106408 C441.736396,287.603385 446.897218,286.781136 451.690447,285.649335 Z M805.315595,285.649335 L805.68319,285.886336 C808.207978,297.634824 807.143894,306.655381 801.963722,309.634824 C800.75937,310.331318 799.390567,310.665054 797.89601,310.665054 C793.046962,310.665054 786.82758,307.171846 780.316751,301.100445 L779.917774,300.725513 L779.898429,300.290205 C783.031357,297.012817 786.147434,293.276173 789.179804,289.123531 L789.828292,288.227327 L790.036274,288.106408 C795.361544,287.603385 800.527207,286.781136 805.315595,285.649335 Z M393.915357,285.257557 C398.325836,286.368077 403.102878,287.217369 408.112777,287.793636 L409.189842,287.912938 L409.40266,288.033857 C412.215421,292.061017 415.226003,295.906842 418.354517,299.381119 L419.139056,300.241838 L419.114872,300.672309 C412.440145,306.824667 406.070133,310.365175 401.146312,310.365175 C399.593712,310.365175 398.186214,310.016928 396.952841,309.286578 C391.883781,306.277568 390.895598,297.452838 393.441334,285.987536 L393.552599,285.494559 L393.915357,285.257557 Z M747.545342,285.257556 C751.955822,286.368076 756.732863,287.217368 761.742762,287.793635 L762.819828,287.912937 L763.027809,288.033856 C765.84057,292.061016 768.855274,295.906841 771.980617,299.381118 L772.764205,300.241837 L772.744858,300.672309 C766.065294,306.824667 759.700118,310.365174 754.77146,310.365174 C753.218861,310.365174 751.811364,310.016927 750.582827,309.286577 C745.513767,306.277568 744.525584,297.452837 747.066685,285.987535 L747.177748,285.494558 L747.545342,285.257556 Z M416.174123,288.474002 C417.915356,288.566868 419.672067,288.644256 421.449209,288.678926 L422.785973,288.696493 L423.758161,288.70133 C425.162031,288.70133 426.571341,288.674123 427.975891,288.627871 L429.378476,288.575574 L429.625151,289.078597 C427.635792,291.63821 425.626844,294.001934 423.619462,296.155666 L422.950422,296.86578 L422.505441,296.86578 C420.524788,294.724063 418.540217,292.370786 416.579936,289.823579 L415.927448,288.967352 L416.174123,288.474002 Z M769.80411,288.474002 C771.545344,288.566868 773.302054,288.644256 775.07672,288.678926 L776.411124,288.696493 L777.383314,288.70133 C778.79081,288.70133 780.198305,288.674123 781.603763,288.627871 L783.008466,288.575574 L783.255138,289.078597 C781.265781,291.63821 779.252915,294.001934 777.24475,296.155666 L776.575574,296.86578 L776.135429,296.86578 C774.154778,294.724063 772.170203,292.370786 770.2064,289.823579 L769.552602,288.967352 L769.80411,288.474002 Z M775.758161,244.856106 L776.701328,244.860943 C779.917771,244.882104 783.056453,245.018062 786.104406,245.255857 L787.405078,245.363966 L787.632405,245.499395 C789.586457,248.415961 791.501814,251.487303 793.320434,254.737605 C794.915958,257.573156 796.367061,260.401299 797.689944,263.199355 L798.249091,264.396614 L798.249091,264.667473 C796.73519,267.830713 795.056832,271.037484 793.19468,274.258766 C791.561065,277.077388 789.864495,279.758993 788.130896,282.319783 L787.385733,283.409915 L787.153564,283.540507 C784.389965,283.747884 781.544891,283.870088 778.634551,283.897398 L777.383314,283.903265 L776.440141,283.903265 C773.227929,283.877871 770.086078,283.741384 767.034028,283.503523 L765.731561,283.395405 L765.509071,283.264812 C763.550182,280.348247 761.644498,277.276904 759.821042,274.031439 C758.229744,271.195888 756.775465,268.367744 755.451723,265.569689 L754.892378,264.37243 L754.897221,264.101572 C756.406286,260.938331 758.08948,257.731559 759.946795,254.510277 C761.58041,251.687424 763.280684,249.00529 765.015208,246.441193 L765.760578,245.349455 L765.992741,245.218863 C769.151147,244.986698 772.415961,244.856106 775.758161,244.856106 Z M422.13301,244.856106 L423.076178,244.860943 C426.288391,244.882104 429.430244,245.018062 432.479056,245.255857 L433.779927,245.363966 L434.007255,245.499395 C435.961305,248.415961 437.871826,251.487303 439.695284,254.737605 C441.286577,257.573156 442.740855,260.401299 444.064597,263.199355 L444.623941,264.396614 L444.619104,264.667473 C443.110035,267.830713 441.43168,271.037484 439.564691,274.258766 C437.935308,277.077388 436.239268,279.758993 434.505734,282.319783 L433.76058,283.409915 L433.528415,283.540507 C430.76058,283.747884 427.918681,283.870088 425.009201,283.897398 L423.758161,283.903265 L422.814994,283.903265 C419.598548,283.877871 416.456166,283.741384 413.407289,283.503523 L412.106408,283.395405 L411.87908,283.264812 C409.92503,280.348247 408.014509,277.276904 406.191051,274.031439 C404.599758,271.195888 403.149184,268.367744 401.826368,265.569689 L401.267231,264.37243 L401.267231,264.101572 C402.781136,260.938331 404.459491,257.731559 406.321644,254.510277 C407.955259,251.687424 409.651829,249.00529 411.388669,246.441193 L412.135429,245.349455 L412.362756,245.218863 C415.525997,244.986698 418.785973,244.856106 422.13301,244.856106 Z M446.834337,270.83434 L447.380891,270.868197 C448.706163,274.229745 449.823454,277.489721 450.718255,280.614267 L450.718255,280.614267 L450.490927,281.001208 C447.366381,281.741232 444.00967,282.350664 440.469162,282.824666 L440.469162,282.824666 L440.169283,282.355501 C441.349452,280.517532 442.519948,278.640869 443.65175,276.681982 C444.773878,274.737605 445.823455,272.78839 446.834337,270.83434 L446.834337,270.83434 Z M800.459494,270.834341 L801.006048,270.868198 C802.198791,273.893591 803.226986,276.836711 804.069485,279.672875 L804.343411,280.614268 L804.120921,281.001209 C801.339242,281.659008 798.381774,282.213623 795.272287,282.661657 L794.09915,282.824667 L793.799275,282.355502 C794.97944,280.517533 796.145104,278.64087 797.276901,276.681982 C798.399032,274.737606 799.453444,272.788391 800.459494,270.834341 Z M752.59976,270.510278 C753.581616,272.474002 754.607011,274.442563 755.704955,276.401451 C756.563965,277.929866 757.469407,279.461378 758.4089,280.983603 L759.11971,282.123337 L758.814992,282.592503 C755.628533,282.131076 752.594871,281.552116 749.742209,280.869726 L748.798064,280.638452 L748.58041,280.251511 C749.420554,277.443773 750.448751,274.526336 751.647377,271.537987 L752.053206,270.539298 L752.59976,270.510278 Z M398.974607,270.510278 C399.956469,272.474002 400.977025,274.442563 402.074969,276.401451 C402.937847,277.929866 403.844062,279.461378 404.781233,280.983603 L405.489721,282.123337 L405.189842,282.592503 C402.003385,282.131076 398.969722,281.552116 396.117059,280.869726 L395.172913,280.638452 L394.95526,280.251511 C395.795404,277.443773 396.819685,274.526336 398.017523,271.537987 L398.423216,270.539298 L398.974607,270.510278 Z M809.51874,249.59613 C820.817412,253.257557 827.995162,258.698911 827.956781,264.735187 C827.913558,270.681676 820.860738,275.951153 809.792407,279.454333 L809.315601,279.603385 L808.928654,279.400241 C807.678193,274.980733 806.014822,270.371624 804.005389,265.69482 L803.569524,264.691656 L803.569524,264.444982 C805.691252,259.7817 807.471693,255.173193 808.844004,250.741366 L809.131799,249.794437 L809.51874,249.59613 Z M455.888754,249.59613 C467.19226,253.257557 474.370012,258.698911 474.326872,264.735187 C474.288337,270.681676 467.235586,275.951153 456.162619,279.454333 L455.68561,279.603385 L455.303506,279.400241 C454.054931,275.003282 452.40182,270.418651 450.406136,265.766399 L449.93954,264.691656 L449.944377,264.444982 C452.066102,259.7817 453.846545,255.173193 455.218855,250.741366 L455.50665,249.794437 L455.888754,249.59613 Z M390.200725,249.155985 L390.582829,249.359129 C391.831404,253.765071 393.484515,258.346174 395.480199,263.001748 L395.946795,264.077388 L395.946795,264.324063 C393.82507,268.982829 392.044626,273.591035 390.672317,278.022843 L390.384522,278.96977 L390.002418,279.168077 C378.698911,275.50665 371.52116,270.065296 371.559544,264.02902 C371.603385,257.997581 378.858525,252.662636 390.200725,249.155985 Z M743.830711,249.155985 L744.212815,249.359129 C745.461393,253.765071 747.114502,258.346174 749.110186,263.001748 L749.576781,264.077388 L749.571945,264.324063 C747.461048,268.95906 745.692123,273.544011 744.323272,277.954995 L744.014512,278.96977 L743.627565,279.168077 C732.324063,275.50665 725.15115,270.065296 725.189531,264.02902 C725.228535,257.997581 732.483677,252.662636 743.830711,249.155985 Z M422.945586,255.453446 C418.074969,255.453446 414.128173,259.453446 414.128173,264.382103 C414.128173,269.315598 418.074969,273.315598 422.945586,273.315598 C427.816203,273.315598 431.762998,269.315598 431.762998,264.382103 C431.762998,259.453446 427.816203,255.453446 422.945586,255.453446 Z M776.570738,255.453446 C771.704958,255.453446 767.753327,259.453446 767.753327,264.382103 C767.753327,269.315598 771.704958,273.315598 776.570738,273.315598 C781.441354,273.315598 785.388149,269.315598 785.388149,264.382103 C785.388149,259.453446 781.441354,255.453446 776.570738,255.453446 Z M794.326477,246.166868 C797.508583,246.628295 800.545728,247.211173 803.40266,247.894345 L804.348248,248.125755 L804.565902,248.512696 C803.725757,251.320435 802.697555,254.241789 801.498933,257.230921 L801.093105,258.229746 L800.546551,258.258766 C799.559853,256.295042 798.539301,254.326481 797.44135,252.367594 C796.578476,250.835308 795.672262,249.303022 794.732614,247.778167 L794.021765,246.636034 L794.326477,246.166868 Z M440.696493,246.166868 C443.88295,246.628295 446.920531,247.211173 449.773977,247.894345 L450.718258,248.125755 L450.935912,248.512696 C450.095768,251.320435 449.067569,254.241789 447.872473,257.230921 L447.467956,258.229746 L446.916565,258.258766 C445.934703,256.295042 444.90931,254.326481 443.811366,252.367594 C442.952357,250.835308 442.043821,249.303022 441.105567,247.778167 L440.396614,246.636034 L440.696493,246.166868 Z M759.051997,245.93954 L759.351873,246.408706 C758.166865,248.246674 757.001208,250.128174 755.864568,252.087061 C754.966868,253.638694 754.1156,255.199613 753.293427,256.762389 L752.681982,257.934704 L752.135428,257.900846 C750.942684,254.875453 749.914484,251.928416 749.071989,249.087942 L748.798064,248.145103 L749.020555,247.762999 C752.149936,247.022974 755.506652,246.408706 759.051997,245.93954 Z M405.422006,245.93954 L405.721886,246.408706 C404.541716,248.246674 403.37122,250.128174 402.239419,252.087061 C401.341716,253.638694 400.490447,255.199613 399.668275,256.762389 L399.056832,257.934704 L398.505441,257.900846 C397.312696,254.875453 396.288415,251.928416 395.446703,249.087942 L395.172913,248.145103 L395.395404,247.762999 C398.524788,247.022974 401.881499,246.408706 405.422006,245.93954 Z M444.74486,218.403869 C446.29746,218.403869 447.704957,218.752116 448.933494,219.482466 C454.002554,222.491476 454.990737,231.311505 452.449636,242.776674 L452.338573,243.269649 L451.975815,243.506651 C447.560821,242.391616 442.783479,241.546236 437.77356,240.966579 L436.696493,240.846432 L436.483676,240.725514 C433.670914,236.702818 430.660332,232.857336 427.535622,229.38689 L426.752115,228.527207 L426.776299,228.096735 C433.451027,221.944377 439.816203,218.403869 444.74486,218.403869 Z M798.370008,218.403869 C799.922612,218.403869 801.330111,218.752116 802.563481,219.482466 C807.627773,222.491476 808.615886,231.311505 806.07942,242.776674 L805.968558,243.269649 L805.600969,243.506651 C801.185972,242.391616 796.40863,241.546236 791.398709,240.966579 L790.321642,240.846432 L790.11366,240.725514 C787.300903,236.702818 784.2862,232.857336 781.164661,229.38689 L780.382106,228.527207 L780.401451,228.096735 C787.076179,221.944377 793.441351,218.403869 798.370008,218.403869 Z M401.620314,218.10399 C406.469359,218.10399 412.688745,221.597198 419.199571,227.668598 L419.598548,228.04353 L419.617895,228.478839 C416.484965,231.756227 413.368888,235.488657 410.340449,239.636806 L409.692865,240.532043 L409.480048,240.652962 C404.539644,241.120055 399.732694,241.866569 395.229594,242.877015 L394.195888,243.114873 L393.833132,242.873035 C391.31318,231.129383 392.37243,222.113664 397.5526,219.129383 C398.756952,218.437726 400.120918,218.10399 401.620314,218.10399 Z M755.245465,218.10399 C760.094507,218.10399 766.313895,221.597198 772.829276,227.668598 L773.228538,228.04353 L773.243046,228.478839 C770.114632,231.756227 766.994644,235.488657 763.965663,239.636806 L763.318019,240.532043 L763.110037,240.652962 C758.165138,241.120055 753.35787,241.866569 748.858618,242.877015 L747.825874,243.114873 L747.458285,242.873035 C744.938327,231.129383 746.002418,222.113664 751.182589,219.129383 C752.386942,218.437726 753.750909,218.10399 755.245465,218.10399 Z M776.565902,231.898428 L777.006046,231.903265 C778.99105,234.044982 780.972137,236.394341 782.935204,238.940764 L783.588873,239.796856 L783.337366,240.290205 C781.596131,240.19347 779.839421,240.118403 778.067232,240.084817 L776.735188,240.067714 L775.758161,240.062878 C774.354293,240.062878 772.947701,240.087364 771.54451,240.134295 L770.142681,240.188633 L769.89601,239.68561 C772.10157,236.841596 774.34099,234.244256 776.565902,231.898428 Z M422.940749,231.898428 L423.380894,231.903265 C425.361547,234.044982 427.346118,236.394341 429.306399,238.940764 L429.958887,239.796856 L429.707376,240.290205 C427.966142,240.19347 426.212527,240.118403 424.4391,240.084817 L423.105199,240.067714 L422.13301,240.062878 C420.725514,240.062878 419.318017,240.087364 417.9146,240.134295 L416.512696,240.188633 L416.266021,239.68561 C418.471583,236.841596 420.711003,234.244256 422.940749,231.898428 Z M599.758161,0 C646.355501,0 684.130594,38.2684401 684.130594,85.4703746 C684.130594,89.8186213 683.801694,94.0894799 683.182585,98.2587662 C677.866987,134.162031 650.505441,162.732769 615.501813,169.426844 C610.399032,170.403869 605.141474,170.935913 599.758161,170.935913 C594.374848,170.935913 589.11729,170.403869 584.014509,169.426844 C549.015719,162.732769 521.649334,134.162031 516.328899,98.2587662 C515.709793,94.0894799 515.385731,89.8186213 515.385731,85.4703746 C515.385731,38.2684401 553.160822,0 599.758161,0 Z M578.432889,34.3941959 C576.087061,34.3941959 573.934703,34.9504232 572.02902,36.0483675 C565.712212,39.6807738 563.318016,48.561064 565.28174,61.04474 C565.430471,61.987908 565.606408,62.9446795 565.80343,63.9150543 L566.007255,64.8899635 L565.547762,65.6783552 C552.735187,69.6348247 543.70012,76.1451026 543.641537,85.0834337 C543.593712,92.4401453 549.983071,98.9794435 561.639661,103.496977 C562.993953,104.024184 564.411124,104.512696 565.876662,104.972189 C565.518742,106.486094 565.209189,107.970979 564.962514,109.417171 C562.829504,121.876663 565.107617,130.785973 571.371221,134.505441 C573.320435,135.661427 575.53567,136.246674 577.958887,136.246674 C583.971435,136.246674 591.213157,132.405506 598.615115,125.741858 L599.042321,125.354293 L599.941958,125.359129 C607.037484,132.091898 614.428052,136.541717 621.083433,136.541717 C623.429262,136.541717 625.581619,135.985489 627.487303,134.892382 C633.804111,131.255139 636.198307,122.379686 634.229745,109.891173 C634.074969,108.885127 633.886142,107.863603 633.67317,106.824125 L633.509068,106.041112 L633.96856,105.25272 C646.781136,101.301088 655.816203,94.7908098 655.874785,85.8476419 C655.922611,78.4909309 649.528415,71.951632 637.876661,67.4340988 C636.522369,66.9068923 635.100362,66.4183798 633.639661,65.9588877 C633.997581,64.4498187 634.307134,62.9649334 634.553808,61.5187423 C636.686819,49.0592502 634.408705,40.1547763 628.140265,36.4304715 C626.200725,35.274486 623.985489,34.6892381 621.557436,34.6892381 C615.544887,34.6892381 608.303165,38.5304068 600.905776,45.1986229 L600.478839,45.586457 L599.574364,45.5767835 C592.478838,38.8440145 585.08827,34.3941959 578.432889,34.3941959 Z M628.149939,106.819831 L628.948004,107.3422 C631.366384,118.906892 630.273276,127.767835 625.146311,130.723095 C623.946795,131.414752 622.577992,131.748489 621.083433,131.748489 C616.302741,131.748489 610.18998,128.355658 603.777235,122.44295 L603.376057,122.070133 L603.3422,121.107618 C606.362273,117.920516 609.369705,114.307865 612.293713,110.30899 L612.918983,109.446191 L613.383312,109.175332 C618.519951,108.68682 623.501813,107.893591 628.149939,106.819831 Z M571.085851,106.43289 C575.339091,107.48834 579.925967,108.293562 584.730304,108.8563 L585.842805,108.981862 L586.307133,109.252721 C589.026136,113.128081 591.930596,116.842712 594.940623,120.210206 L595.695283,121.04474 L595.646916,122.016928 C589.07376,128.009673 582.81983,131.453446 577.958887,131.453446 C576.406287,131.453446 574.99879,131.100362 573.765416,130.370012 C568.754603,127.390223 567.73371,118.728673 570.174643,107.438127 L570.28295,106.945587 L571.085851,106.43289 Z M593.784764,109.600967 C595.221281,109.673519 596.668681,109.729746 598.131045,109.759447 L599.598548,109.779927 L600.570737,109.784764 C602.181378,109.784764 603.787182,109.750907 605.392986,109.692866 C605.96856,109.673518 606.29746,110.345828 605.93954,110.800484 C604.225513,112.971584 602.496674,114.998261 600.772464,116.874036 L600.033856,117.668682 L599.056831,117.663845 C597.107617,115.540508 595.158403,113.214027 593.228536,110.698912 C592.875452,110.239419 593.214026,109.571947 593.784764,109.600967 Z M598.945585,65.9443772 L599.888754,65.949214 C603.045948,65.9703746 606.136486,66.1026297 609.134446,66.3297779 L610.413542,66.4328896 L610.916565,66.7327688 C612.836758,69.6009675 614.718258,72.6287785 616.507859,75.8258767 C618.07376,78.610641 619.502644,81.391702 620.807473,84.1431379 L621.359128,85.3204354 L621.359128,85.9153569 C619.86457,89.0253928 618.210398,92.1789601 616.377267,95.3422005 C614.773276,98.1142681 613.110035,100.753023 611.406986,103.274666 L610.674727,104.348247 L610.166867,104.643289 C607.505268,104.833995 604.769044,104.950078 601.973425,104.979352 L600.570737,104.986699 L599.627569,104.986699 C596.470374,104.965538 593.376133,104.82958 590.377248,104.601506 L589.097944,104.498186 L588.590084,104.198307 C586.674727,101.330109 584.798065,98.3071339 583.003626,95.1148732 C581.441958,92.3258767 580.0099,89.5442866 578.707451,86.7960249 L578.157194,85.6203146 L578.162031,85.025393 C579.651753,81.9105197 581.305924,78.756953 583.134219,75.5937119 C584.742442,72.8216443 586.409915,70.1791868 588.113956,67.6566185 L588.846432,66.5828296 L589.354292,66.2877872 C592.459491,66.0652961 595.661426,65.9443772 598.945585,65.9443772 Z M624.488512,92.7110035 C625.491535,95.2968558 626.368651,97.827161 627.11338,100.279238 L627.424425,101.325272 L626.931075,102.171705 C624.140265,102.81983 621.185006,103.366384 618.074969,103.801693 C617.509068,103.879081 617.107617,103.255139 617.41717,102.766626 C618.447399,101.141475 619.467956,99.4824665 620.464328,97.7654169 C621.451027,96.0628778 622.379685,94.350665 623.274486,92.6336154 C623.540507,92.1209188 624.280532,92.1741233 624.488512,92.7110035 Z M576.145102,92.3095527 C577.020556,94.0411122 577.92503,95.7629986 578.887545,97.4848851 C579.835549,99.1680775 580.836758,100.851269 581.876662,102.524788 C582.181378,103.018138 581.770253,103.646917 581.204352,103.559855 C578.444175,103.138519 575.802468,102.629286 573.296218,102.042346 L572.362756,101.818621 L571.87908,100.957678 C572.720676,98.1910519 573.74607,95.3131802 574.931075,92.3724303 C575.148729,91.8355501 575.888754,91.7968561 576.145102,92.3095527 Z M633.05925,70.8004836 C644.154775,74.4522372 651.182587,79.8452238 651.139456,85.8186215 C651.10092,91.7019172 644.196726,96.9225764 633.331015,100.42904 L632.856105,100.580411 L632.01451,100.130593 C630.788391,95.8773534 629.1911,91.453125 627.269109,86.9624672 L626.81983,85.9250299 L626.824667,85.3784761 C628.854723,80.9051651 630.567825,76.4818989 631.909754,72.2171114 L632.212817,71.2357923 L633.05925,70.8004836 Z M566.65538,70.355502 L567.501813,70.8053205 C568.72344,75.0585591 570.324581,79.4827874 572.247145,83.9734452 L572.696493,85.0108825 L572.691656,85.5574363 C570.661599,90.0307479 568.948498,94.4540136 567.606568,98.7188016 L567.303506,99.7001208 L566.457073,100.135429 C555.361547,96.4788391 548.333735,91.0858524 548.376866,85.1172916 C548.41596,79.14873 555.52116,73.8573156 566.65538,70.355502 Z M599.758161,76.5368803 C594.887544,76.5368803 590.940749,80.5368803 590.940749,85.4703746 C590.940749,90.3990323 594.887544,94.3990327 599.758161,94.3990327 C604.628778,94.3990327 608.575574,90.3990323 608.575574,85.4703746 C608.575574,80.5368803 604.628778,76.5368803 599.758161,76.5368803 Z M618.209037,67.3631623 L618.307133,67.3712213 C621.067311,67.7925569 623.712839,68.3017901 626.219939,68.8921266 L627.153566,69.1172912 L627.637242,69.9733979 C626.795646,72.7448606 625.770253,75.6227329 624.585247,78.568319 C624.367593,79.1003623 623.627569,79.139057 623.37122,78.6263604 C622.495767,76.8996371 621.591293,75.1729138 620.623941,73.451028 C619.675937,71.7678356 618.674727,70.0846432 617.63966,68.4062876 C617.370794,67.9752472 617.655476,67.4312372 618.114929,67.3690081 L618.209037,67.3631623 Z M582.10399,68.1644498 C581.068923,69.7896008 580.048367,71.4486091 579.051994,73.1704955 C578.065296,74.8778714 577.136638,76.5900842 576.241837,78.3022977 C575.970979,78.8149937 575.235791,78.766626 575.027811,78.2297458 C574.008867,75.5985488 573.119858,73.028498 572.36758,70.5399752 L572.091897,69.6106405 L572.585247,68.7593713 C575.371221,68.1112452 578.336154,67.5646914 581.44619,67.1293834 C582.012091,67.0519954 582.413542,67.6807741 582.10399,68.1644498 Z M621.557436,39.4824667 C623.110036,39.4824667 624.517533,39.8355501 625.750906,40.5659008 C630.76172,43.54569 631.782612,52.2072392 629.346312,63.4931534 L629.23821,63.9854897 L628.430471,64.4981864 C624.177232,63.4472275 619.586185,62.638156 614.781252,62.0748446 L613.668681,61.949214 L613.204352,61.6783554 C610.48535,57.802995 607.585011,54.0924851 604.575618,50.725625 L603.821039,49.8911729 L603.869407,48.9189842 C610.442562,42.9310761 616.701329,39.4824667 621.557436,39.4824667 Z M578.432889,39.1874244 C583.213582,39.1874244 589.326343,42.5848963 595.739087,48.4977933 L596.140265,48.8706166 L596.174123,49.828295 C593.158564,53.0153969 590.151433,56.6280478 587.227445,60.6229903 L586.602175,61.4848851 L586.137847,61.7557436 C581.396334,62.2066784 576.782581,62.9172527 572.444953,63.8722497 L571.366384,64.1160823 L570.568319,63.5888753 C568.145102,52.0290205 569.243046,43.1680773 574.365175,40.2176541 C575.569528,39.5211608 576.93833,39.1874244 578.432889,39.1874244 Z M599.482466,53.2672309 L600.459491,53.2769044 C602.408705,55.395405 604.357919,57.7218862 606.287787,60.2370011 C606.636033,60.6916565 606.29746,61.3591293 605.726722,61.3349455 C604.290205,61.2587666 602.842804,61.2016323 601.384522,61.1717049 L599.922611,61.1511486 L598.945585,61.1463119 C597.339782,61.1463119 595.729141,61.1801692 594.123337,61.2382104 C593.552599,61.2575574 593.223699,60.5852478 593.58162,60.1305924 C595.53567,57.6493349 597.513905,55.3615477 599.482466,53.2672309 Z" id="opaque"></path>
            <path d="M693.407494,250.050786 C680.735189,212.604594 652.091898,183.027811 615.501813,169.426844 C650.505441,162.732769 677.866987,134.162031 683.182585,98.2587662 C696.488514,136.822249 726.747279,166.98428 765.165656,179.719468 C728.619104,184.725514 699.516323,213.41717 693.407494,250.050786 M506.113663,250.050786 C499.999999,213.41717 470.897218,184.725514 434.355502,179.719468 C472.773881,166.98428 503.027811,136.822249 516.328899,98.2587662 C521.649334,134.162031 549.015719,162.732769 584.014509,169.426844 C547.424425,183.027811 518.781136,212.604594 506.113663,250.050786" id="transparent" opacity="0.4"></path>
        </g>
    </g>
</svg>