<svg xmlns="http://www.w3.org/2000/svg" width="960" height="200.8" viewBox="0 0 960 200.8"><path d="M73.49,100.5a23.9,23.9,0,1,1,23.9,23.91A23.9,23.9,0,0,1,73.49,100.5ZM97.39.1A100.39,100.39,0,0,0,.13,75.62a4,4,0,0,0-.13,1,4.78,4.78,0,0,0,4.78,4.78H45.25a4.8,4.8,0,0,0,4.34-2.79h0a52.6,52.6,0,1,1,0,43.82h0a4.8,4.8,0,0,0-4.34-2.79H4.78A4.77,4.77,0,0,0,0,124.41a4.26,4.26,0,0,0,.12,1A100.4,100.4,0,1,0,97.39.1ZM359.94,124H346.29a2.92,2.92,0,0,0-2.33,1.15,44.13,44.13,0,1,1,0-49.38A2.93,2.93,0,0,0,346.29,77h13.65a2.93,2.93,0,0,0,2.63-4.26,61.79,61.79,0,1,0,0,55.6,2.93,2.93,0,0,0-2.63-4.26ZM401.13,18.12A11.77,11.77,0,1,1,389.37,6.35,11.76,11.76,0,0,1,401.13,18.12ZM398.19,156.4V41.66H380.54V156.4a2.94,2.94,0,0,0,2.94,2.94h11.77A2.94,2.94,0,0,0,398.19,156.4ZM474.74,38.79c-17.81.84-32,9.34-41.24,22.34V44.59a2.94,2.94,0,0,0-2.94-2.93H418.79a2.94,2.94,0,0,0-2.94,2.93h0V156.4a2.94,2.94,0,0,0,2.94,2.94h11.77a2.94,2.94,0,0,0,2.94-2.94V100.5a44.14,44.14,0,0,1,41.19-44,3,3,0,0,0,2.95-2.95V41.73A3,3,0,0,0,474.74,38.79ZM592,124H578.32a2.9,2.9,0,0,0-2.33,1.15,44.13,44.13,0,1,1,0-49.38A2.93,2.93,0,0,0,578.32,77H592A3,3,0,0,0,594.92,74a2.81,2.81,0,0,0-.33-1.32,61.79,61.79,0,1,0,0,55.6,2.81,2.81,0,0,0,.33-1.32A2.94,2.94,0,0,0,592,124ZM627.28,3.41H615.52a3,3,0,0,0-2.95,2.94V156.4a3,3,0,0,0,2.95,2.94h11.76a3,3,0,0,0,3-2.94V6.35A3,3,0,0,0,627.28,3.41Zm82.39,35.31a61.79,61.79,0,1,0,55.17,89.58,2.8,2.8,0,0,0,.32-1.32,2.94,2.94,0,0,0-2.94-2.94H748.56a2.92,2.92,0,0,0-2.36,1.21,44.13,44.13,0,0,1-80.27-18.87h102.5a2.94,2.94,0,0,0,2.94-2.79c0-1,.08-2,.08-3.09A61.78,61.78,0,0,0,709.67,38.72Zm-42.54,50a44.13,44.13,0,0,1,85.07,0ZM942.35.47A17.65,17.65,0,1,0,960,18.12,17.65,17.65,0,0,0,942.35.47Zm14.71,41.19V156.4a2.94,2.94,0,0,1-2.94,2.94H930.58a2.94,2.94,0,0,1-2.94-2.94V41.66ZM850.89,162.29a61.8,61.8,0,0,0,59.86-46.48,2.9,2.9,0,0,0,.07-.6,2.94,2.94,0,0,0-2.93-2.94H883a2.92,2.92,0,0,0-2.67,1.72h0a32.37,32.37,0,1,1,0-27h0A2.93,2.93,0,0,0,883,88.73h24.91a2.94,2.94,0,0,0,2.93-2.94,2.88,2.88,0,0,0-.07-.59,61.79,61.79,0,1,0-59.86,77.09Z" transform="translate(0 -0.1)" fill="#171717"/></svg>