<svg width="79" height="45" viewBox="0 0 79 45" fill="none" xmlns="http://www.w3.org/2000/svg">
<path d="M1.66268 31.5L10.5106 0.5H37.5V31.5H1.66268Z" stroke="#FF4844"/>
<path d="M78.357 31.5L70.4779 0.5H42.5V31.5H78.357Z" stroke="#FF4844"/>
<line x1="57" y1="9.5" x2="73" y2="9.5" stroke="#FF4844"/>
<line x1="42.3311" y1="21.5" x2="58.3311" y2="21.5" stroke="#FF4844"/>
<line x1="22" y1="15.5" x2="38" y2="15.5" stroke="#FF4844"/>
<path d="M5.016 41.004V42.012H1.992V41.004H0.996V36.984H1.992V35.988H5.016V36.984H6.012V38.004H4.992V37.008H2.016V40.992H4.992V39.984H6.012V41.004H5.016ZM12.0238 41.004V42.012H8.99981V41.004H8.00381V36.984H8.99981V35.988H12.0238V36.984H13.0198V41.004H12.0238ZM11.9998 37.008H9.02381V40.992H11.9998V37.008ZM16.0076 42.012V41.004H15.0116V36.984H16.0076V35.988H19.0076V33.984H20.0276V42.012H16.0076ZM19.0076 37.008H16.0316V40.992H19.0076V37.008ZM23.0154 35.004V33.984H24.0354V35.004H23.0154ZM23.0154 42.012V37.008H22.0194V35.988H24.0354V42.012H23.0154ZM30.0233 42.012V37.008H27.0473V42.012H26.0273V35.988H30.0473V36.984H31.0433V42.012H30.0233ZM37.0551 43.008V44.016H34.0311V42.996H37.0311V42.012H34.0311V41.004H33.0351V36.984H34.0311V35.988H38.0511V43.008H37.0551ZM37.0311 37.008H34.0551V40.992H37.0311V37.008ZM43.0549 41.004V42.012H41.0389V41.004H40.0429V39.984H41.0629V40.992H43.0429V40.008H42.0349V39.012H41.0389V38.004H40.0429V36.984H41.0389V35.988H43.0549V36.984H44.0629V38.004H43.0429V37.008H41.0629V37.992H42.0589V38.988H43.0549V39.984H44.0629V41.004H43.0549ZM50.0629 41.004V42.012H47.0389V41.004H46.0429V36.984H47.0389V35.988H50.0629V36.984H51.0589V38.004H50.0389V37.008H47.0629V40.992H50.0389V39.984H51.0589V41.004H50.0629ZM54.0467 42.012V41.004H53.0507V38.988H54.0467V37.992H57.0467V37.008H54.0467V35.988H57.0707V36.984H58.0667V42.012H54.0467ZM57.0467 39.012H54.0707V40.992H57.0467V39.012ZM64.0785 41.004V42.012H61.0785V44.016H60.0585V35.988H64.0785V36.984H65.0745V41.004H64.0785ZM64.0545 37.008H61.0785V40.992H64.0545V37.008ZM71.0863 41.004V42.012H68.0623V41.004H67.0663V36.984H68.0623V35.988H71.0863V36.984H72.0823V39.012H68.0863V40.992H71.0623V39.984H72.0823V41.004H71.0863ZM71.0623 37.008H68.0863V37.992H71.0623V37.008ZM73.0661 43.008V41.988H78.0941V43.008H73.0661Z" fill="#FF4844"/>
</svg>
