<?xml version="1.0" encoding="UTF-8"?><svg id="a" xmlns="http://www.w3.org/2000/svg" width="900" height="83.96" viewBox="0 0 900 83.96"><path d="M539.25,14.52V0h-69.65l-18.91,14.52v19.94l18.91,14.52h60.7v20.47h-75.85v14.51h71.53l18.92-14.51v-20.47l-18.92-14.52h-60.7V14.52h73.97Z" stroke-width="0"/><path d="M174.68,0h-13.29l-48.73,83.96h16.85l38.56-66.4,38.51,66.4h16.84L174.68,0Z" stroke-width="0"/><path d="M319.55,0h-94.21v14.52h39.81v69.44h14.58V14.52h39.81V0Z" stroke-width="0"/><path d="M662.51,0h-94.19v14.52h39.8v69.44h14.59V14.52h39.8V0Z" stroke-width="0"/><path d="M75.29,0H0v83.96h75.29l18.91-14.52V14.52L75.29,0ZM14.59,14.52h65.02v54.93H14.59V14.52Z" stroke-width="0"/><path d="M834.81,41.98l-8.43-14.52v.02l-15.94-27.47h-16.85l24.37,41.98-24.37,41.98h16.85l15.94-27.46,8.43-14.52Z" stroke-width="0"/><path d="M858.78,41.98l8.43-14.52v.02l15.96-27.47h16.84l-24.36,41.98,24.36,41.98h-16.84l-15.96-27.46-8.43-14.52Z" stroke-width="0"/><path d="M370.21,0h13.29l48.73,83.96h-16.85l-38.56-66.4-38.51,66.4h-16.84L370.21,0Z" stroke-width="0"/><path d="M713.16,0h13.29l48.73,83.96h-16.84l-38.57-66.4-38.49,66.4h-16.85L713.16,0Z" stroke-width="0"/></svg>