<?xml version="1.0" encoding="UTF-8"?><svg id="a" xmlns="http://www.w3.org/2000/svg" width="500.02" height="171.39" xmlns:xlink="http://www.w3.org/1999/xlink" viewBox="0 0 500.02 171.39"><defs><clipPath id="b"><rect x="0" y="0" width="500" height="171.38" fill="none"/></clipPath></defs><g clip-path="url(#b)"><path d="M172.05,89.8c.02-6.98-2.13-13.8-6.14-19.51-4.01-5.72-9.69-10.05-16.25-12.42.6-3.05.9-6.14.9-9.25,0-10.28-3.25-20.29-9.29-28.61-6.04-8.31-14.57-14.49-24.35-17.66-9.78-3.16-20.31-3.14-30.08.06-9.77,3.2-18.27,9.42-24.28,17.75-4.44-3.44-9.87-5.34-15.48-5.41s-11.09,1.69-15.61,5.01c-4.52,3.32-7.84,8.03-9.44,13.41-1.61,5.38-1.42,11.13.54,16.39-6.58,2.4-12.28,6.76-16.31,12.49C2.22,67.79.04,74.62,0,81.63c-.02,7.01,2.14,13.84,6.17,19.57,4.03,5.73,9.74,10.07,16.33,12.43-.58,3.05-.88,6.14-.89,9.24,0,10.27,3.24,20.27,9.28,28.57,6.04,8.3,14.56,14.47,24.34,17.61,9.77,3.14,20.29,3.1,30.04-.12,9.75-3.22,18.22-9.45,24.2-17.8,4.42,3.45,9.85,5.36,15.45,5.44,5.61.08,11.09-1.66,15.61-4.98,4.52-3.31,7.84-8.01,9.46-13.38,1.61-5.37,1.43-11.12-.52-16.38,6.59-2.4,12.28-6.75,16.32-12.49,4.04-5.73,6.22-12.56,6.25-19.57" fill="#fff"/><path d="M67.64,73.82l37.65,17.19,38-33.28c.55-2.75.82-5.54.81-8.34,0-9.07-2.9-17.89-8.29-25.19-5.38-7.3-12.95-12.68-21.61-15.36-8.66-2.68-17.95-2.52-26.51.46-8.56,2.98-15.95,8.62-21.07,16.09l-6.33,32.74,7.35,15.69Z" fill="#fec514"/><path d="M28.67,113.69c-.56,2.79-.83,5.63-.83,8.47,0,9.1,2.92,17.97,8.33,25.29,5.41,7.32,13.02,12.72,21.72,15.4,8.7,2.68,18.03,2.5,26.62-.52,8.59-3.01,15.99-8.7,21.11-16.23l6.27-32.67-8.37-16-37.79-17.22-37.05,33.48Z" fill="#02bcb7"/><path d="M28.44,48.54l25.8,6.09,5.65-29.34c-3.51-2.66-7.79-4.11-12.19-4.14-4.4-.03-8.7,1.37-12.24,3.99-3.54,2.62-6.14,6.31-7.41,10.53-1.27,4.22-1.13,8.73.38,12.87Z" fill="#f04e98"/><path d="M26.2,54.68c-5.66,1.91-10.59,5.54-14.09,10.38-3.5,4.84-5.41,10.65-5.46,16.62,0,5.77,1.75,11.41,5.03,16.17,3.28,4.75,7.92,8.4,13.32,10.44l36.2-32.72-6.65-14.2-28.35-6.69Z" fill="#1ba9f5"/><path d="M112.23,146.1c3.5,2.65,7.77,4.09,12.16,4.11,4.39.02,8.67-1.37,12.2-3.98,3.53-2.61,6.12-6.29,7.39-10.5,1.27-4.2,1.14-8.71-.37-12.83l-25.78-6-5.61,29.2Z" fill="#9adc30"/><path d="M117.47,110.11l28.38,6.63c5.66-1.91,10.59-5.53,14.1-10.37,3.5-4.84,5.41-10.65,5.45-16.63,0-5.76-1.76-11.39-5.04-16.13-3.28-4.74-7.92-8.37-13.3-10.41l-37.12,32.5,7.53,14.41Z" fill="#0b64dd"/><path d="M240.56,120.41l3.44-.35.24,7c-7.65,1.16-15.38,1.79-23.12,1.9-8.53,0-14.58-2.47-18.14-7.41s-5.34-12.63-5.33-23.06c0-20.78,8.26-31.17,24.78-31.18,8,0,13.97,2.23,17.9,6.7,3.93,4.47,5.91,11.47,5.92,21l-.47,6.76h-39.12c0,6.56,1.19,11.42,3.56,14.58,2.37,3.16,6.5,4.74,12.38,4.74,5.89.02,11.88-.21,17.96-.68ZM237.36,94.69c0-7.27-1.16-12.41-3.49-15.41-2.33-3-6.12-4.5-11.38-4.51-5.26,0-9.21,1.58-11.86,4.74-2.65,3.16-4.01,8.22-4.09,15.18h30.82Z" fill="#1c1e23"/><path d="M258.65,128.49V50.49h8.89v78h-8.89Z" fill="#1c1e23"/><path d="M323.53,86.39v29.9c0,3,7.38,2.84,7.38,2.84l-.45,7.86c-6.25,0-11.42.52-14.52-2.49-6.71,2.98-13.99,4.5-21.33,4.45-5.45,0-9.6-1.54-12.45-4.63-2.85-3.09-4.28-7.52-4.27-13.31,0-5.77,1.46-10.02,4.39-12.75,2.93-2.73,7.51-4.39,13.75-5l18.61-1.77v-5.1c0-4-.87-6.89-2.6-8.66-.95-.89-2.07-1.58-3.29-2.03-1.22-.45-2.52-.64-3.83-.57h-23.36v-7.83h22.77c6.72,0,11.6,1.54,14.64,4.63,3.04,3.09,4.56,7.91,4.56,14.46ZM287,110.57c0,7.27,3,10.91,9,10.91,5.41,0,10.79-.93,15.89-2.73l2.72-.95v-19.56l-17.51,1.66c-3.56.32-6.13,1.35-7.71,3.08-1.58,1.73-2.38,4.26-2.39,7.59Z" fill="#1c1e23"/><path d="M358.24,75.25c-8.62,0-12.93,3-12.93,9,0,2.77,1,4.73,3,5.87s6.5,2.33,13.51,3.56c7.04,1.23,12.02,2.95,14.94,5.16,2.92,2.21,4.38,6.35,4.39,12.44,0,6.09-1.96,10.56-5.87,13.4-3.91,2.84-9.62,4.26-17.13,4.27-4.9,0-21.26-1.82-21.26-1.82l.48-7.7c9.4.9,16.19,1.57,20.78,1.57s8.08-.73,10.49-2.19c2.41-1.46,3.61-3.91,3.61-7.35s-1-5.77-3.08-7c-2.08-1.23-6.56-2.39-13.51-3.5-6.95-1.11-11.9-2.73-14.82-4.86-2.92-2.13-4.39-6.09-4.39-11.86s2-10,6.11-12.8c4.11-2.8,9.15-4.15,15.23-4.15,4.82,0,21.55,1.23,21.55,1.23v7.75c-8.83-.39-16.05-1.02-21.1-1.02Z" fill="#1c1e23"/><path d="M424,76.19h-18.85v28.34c0,6.79.49,11.26,1.48,13.39,1,2.14,3.34,3.2,7.05,3.2l10.55-.71.6,7.35c-3.99.74-8.04,1.18-12.1,1.31-6.16,0-10.43-1.5-12.8-4.51-2.37-3.01-3.56-8.74-3.55-17.19v-31.18h-8.38v-7.7h8.42v-18.14h8.77v18.14h18.81v7.7Z" fill="#1c1e23"/><path d="M436.36,60.92v-10.32h8.89v10.32h-8.89ZM436.36,128.49v-60h8.89v60h-8.89Z" fill="#1c1e23"/><path d="M483.76,67.3c4.44.19,8.86.67,13.24,1.43l2.84.35-.35,7.23c-4.65-.59-9.32-.94-14-1.06-6.72,0-11.28,1.6-13.69,4.8-2.41,3.2-3.61,9.13-3.62,17.78,0,8.67,1.13,14.69,3.38,18.08s6.95,5.09,14.1,5.1l14-1.06.36,7.35c-5.45.92-10.95,1.48-16.48,1.66-9.24,0-15.62-2.37-19.14-7.12-3.52-4.75-5.28-12.75-5.28-24s1.9-19.16,5.69-23.71c3.79-4.55,10.11-6.82,18.95-6.83Z" fill="#1c1e23"/></g></svg>