<?xml version="1.0" encoding="UTF-8"?><svg id="a" xmlns="http://www.w3.org/2000/svg" width="900" height="268.94" xmlns:xlink="http://www.w3.org/1999/xlink" viewBox="0 0 900 268.94"><defs><clipPath id="b"><rect x="0" y="33.29" width="272.2" height="235.65" fill="none"/></clipPath><clipPath id="c"><rect x="28.37" y=".01" width="290.04" height="251.29" fill="none"/></clipPath></defs><g clip-path="url(#b)"><path d="M134.69,35.66L0,268.94h269.37L134.69,35.66,0,268.94h269.37L134.69,35.66Z" fill="#ffde59"/></g><g clip-path="url(#c)"><path d="M318.24,250.62H28.85L173.55,0l5,8.67,134.69,233.29,5,8.66ZM48.87,239.07h249.36L173.55,23.12,48.87,239.07Z"/></g><path d="M411.07,139.86h36.89v49.71c-6.1,7.26-13.48,13.2-22.14,17.79-8.67,4.57-18.1,6.86-28.28,6.86-9.18,0-17.84-1.86-26-5.56-8.16-3.7-15.24-8.71-21.25-15.02-5.98-6.3-10.73-13.65-14.25-22.05-3.5-8.43-5.24-17.4-5.24-26.94s1.75-18.39,5.24-26.85c3.52-8.48,8.27-15.88,14.25-22.19,6.01-6.3,13.09-11.31,21.25-15.02,8.16-3.7,16.82-5.56,26-5.56,8.39,0,16.34,1.66,23.85,4.98,7.53,3.32,14.3,7.65,20.3,13l-11.88,15.1c-4.21-4.45-9.09-8.03-14.61-10.76-5.54-2.75-11.42-4.12-17.66-4.12s-12.62,1.38-18.29,4.12c-5.65,2.72-10.58,6.44-14.79,11.16-4.21,4.7-7.53,10.13-9.95,16.32s-3.63,12.8-3.63,19.81,1.21,13.58,3.63,19.77,5.74,11.61,9.95,16.27c4.21,4.64,9.14,8.29,14.79,10.98,5.67,2.67,11.77,3.99,18.29,3.99,5.97,0,11.58-1.18,16.81-3.54,5.22-2.35,9.87-5.51,13.94-9.46v-24.25h-17.21v-18.56Z"/><path d="M514.5,214.58c-6.63,0-12.85-1.24-18.65-3.72-5.8-2.48-10.87-5.88-15.19-10.22-4.34-4.33-7.74-9.42-10.22-15.28-2.49-5.85-3.72-12.1-3.72-18.74s1.17-12.88,3.5-18.74c2.35-5.85,5.54-10.95,9.55-15.28,4.03-4.33,8.72-7.73,14.07-10.22,5.35-2.48,11.08-3.72,17.21-3.72s12.01,1.1,17.3,3.27c5.29,2.15,9.87,5.54,13.76,10.13,3.88,4.57,6.9,10.4,9.05,17.48,2.17,7.06,3.27,15.49,3.27,25.28h-68.04c.9,3.32,2.3,6.41,4.21,9.28,1.9,2.87,4.17,5.37,6.77,7.49,2.6,2.1,5.52,3.71,8.79,4.84,3.25,1.14,6.66,1.7,10.22,1.7,4.84,0,9.33-.87,13.49-2.64,4.15-1.79,7.69-4.15,10.62-7.08l11.43,11.47c-4.46,4.46-9.89,8.02-16.32,10.71-6.43,2.66-13.47,3.99-21.11,3.99ZM511.05,135.47c-2.94,0-5.71.58-8.34,1.75-2.6,1.14-5.02,2.72-7.26,4.75-2.22,2.04-4.12,4.46-5.74,7.26-1.59,2.81-2.76,5.87-3.5,9.19h48.32c-.25-3.07-.94-6.01-2.11-8.79-1.14-2.8-2.72-5.26-4.75-7.35-2.04-2.12-4.43-3.78-7.17-4.98-2.76-1.22-5.91-1.84-9.46-1.84Z"/><path d="M590.57,212.29h-18.56v-91.53h14.75l3.81,8.02c3.05-2.92,6.73-5.35,11.07-7.26,4.33-1.9,9.05-2.87,14.16-2.87,3.32,0,7.06.52,11.25,1.52,4.21,1.02,8.12,2.94,11.74,5.74,3.64,2.78,6.7,6.67,9.19,11.65,2.48,4.96,3.72,11.38,3.72,19.27v55.44h-17.57v-55.62c0-3.94-.62-7.27-1.84-10-1.2-2.75-2.78-4.94-4.75-6.59-1.97-1.67-4.2-2.85-6.68-3.54-2.49-.72-5.06-1.08-7.75-1.08-2.04,0-4.37.39-6.99,1.17-2.6.75-5.05,1.99-7.35,3.72-2.31,1.7-4.25,3.88-5.83,6.5-1.59,2.6-2.38,5.82-2.38,9.64v55.8Z"/><path d="M764.89,174.24c0,5.74-1.15,11.07-3.45,16-2.31,4.91-5.68,9.19-10.13,12.86-8.79,7.42-20.07,11.12-33.84,11.12-10.7,0-20.38-2.2-29.04-6.59-8.67-4.41-15.04-10.32-19.09-17.7l16.99-8.79c2.53,4.57,6.57,8.11,12.1,10.62,5.56,2.49,11.9,3.72,19.05,3.72,18.47,0,27.7-7.08,27.7-21.25,0-2.66-.48-4.94-1.43-6.86-.93-1.9-2.35-3.69-4.26-5.33-4.61-3.82-12.84-7.27-24.7-10.35-7.12-1.76-13.17-3.72-18.15-5.87-4.96-2.17-9.1-4.73-12.42-7.66-8.01-6.51-12.01-15.12-12.01-25.82,0-5.35,1.04-10.33,3.14-14.97,2.08-4.66,5.04-8.72,8.87-12.19,3.94-3.43,8.56-6.01,13.85-7.71,5.29-1.73,11.13-2.6,17.53-2.6,9.29,0,17.85,1.79,25.68,5.38,7.82,3.56,13.78,8.58,17.88,15.06l-15.51,9.59c-3.68-4.48-7.93-7.63-12.77-9.46-4.84-1.85-9.94-2.78-15.28-2.78-3.83,0-7.34.65-10.53,1.93-3.2,1.26-5.87,2.78-8.02,4.57-1.79,1.52-3.12,3.41-3.94,5.65-.81,2.22-1.21,4.59-1.21,7.13,0,1.68.25,3.38.76,5.11.5,1.7,1.71,3.48,3.63,5.33,1.9,1.86,4.71,3.65,8.38,5.38,3.7,1.7,8.74,3.38,15.1,5.02,7.64,1.92,14.09,3.99,19.32,6.23,5.22,2.22,9.61,4.86,13.18,7.93,8.43,6.88,12.64,15.98,12.64,27.3Z"/><path d="M851.64,139.46l48.36,72.84h-23.89l-36.31-54.68-36.49,54.68h-23.89l48.32-72.84-41.64-62.66h23.89l29.81,44.73,29.63-44.73h23.89l-41.68,62.66Z"/></svg>