<?xml version="1.0" encoding="UTF-8"?><svg id="a" xmlns="http://www.w3.org/2000/svg" width="900.03" height="885.2" viewBox="0 0 900.03 885.2"><path d="M450.92,0C201.02,0,0,202.87,0,453.69c0,201.02,129.1,370.7,307.99,430.63,22.13,4.61,30.43-10.14,30.43-22.13,0-10.14-.92-47.03-.92-83.91-125.41,26.74-151.23-54.41-151.23-54.41-20.29-52.56-49.79-66.39-49.79-66.39-40.57-27.66,2.77-27.66,2.77-27.66,45.18,2.77,69.16,47.03,69.16,47.03,40.57,69.16,105.12,49.79,130.94,37.81,3.69-29.51,15.68-49.79,28.59-60.86-99.59-10.14-204.71-49.79-204.71-224.08,0-49.79,17.52-90.37,46.11-121.72-4.61-11.07-20.29-58.09,4.61-119.88,0,0,37.81-11.99,123.57,47.03,35.96-10.14,74.69-14.75,112.5-14.75s76.54,5.53,112.5,14.75c85.76-59.02,123.57-47.03,123.57-47.03,24.9,62.7,9.22,108.81,4.61,119.88,29.51,31.35,46.11,71.93,46.11,121.72,0,174.28-105.12,213.01-205.63,224.08,16.6,13.83,30.43,41.5,30.43,83.91,0,60.86-.92,109.73-.92,124.49,0,11.99,8.3,26.74,30.43,22.13,179.81-59.94,308.91-229.61,308.91-430.63C900.92,202.87,698.97,0,450.92,0Z" fill="#1b1f24"/></svg>