<?xml version="1.0" encoding="UTF-8"?><svg id="a" xmlns="http://www.w3.org/2000/svg" width="1459.9" height="323.8" viewBox="0 0 1459.9 323.8"><g isolation="isolate"><path d="M17,323.8l18-88.4H0v-30.9h41.3l15.4-75.3H0v-30.9h62.9L80.9,9.3h31.1l-18,89h65.3l18-89h31.3l-18,89h35.9v30.9h-42.1l-15.6,75.3h57.7v30.9h-63.9l-18,88.4h-31.1l17.8-88.4h-65.1l-18,88.4h-31.2,0ZM72.4,204.5h65.1l15.6-75.3h-65.3l-15.4,75.3Z" fill="#425066"/></g><g isolation="isolate"><path d="M332.1,223.4l5.8,39.8,8.5-35.9,59.7-210.8h33.6l58.3,210.8,8.3,36.5,6.4-40.7,46.9-206.6h40l-73.2,302h-36.3l-62.2-220.1-4.8-23-4.8,23-64.5,220.1h-36.3L244.5,16.6h39.8l47.7,206.8h.1Z" fill="#425066"/></g><g isolation="isolate"><path d="M724.6,322.8c-30.4,0-55.2-10-74.3-30s-28.6-46.7-28.6-80.2v-7.1c0-22.3,4.3-42.1,12.8-59.6s20.4-31.2,35.7-41.1,31.8-14.8,49.7-14.8c29.2,0,51.9,9.6,68,28.8,16.2,19.2,24.3,46.7,24.3,82.6v16h-152.1c.6,22.1,7,40,19.4,53.6s28.1,20.4,47.2,20.4,25-2.8,34.4-8.3,17.6-12.9,24.7-22l23.4,18.3c-18.8,28.9-47,43.4-84.6,43.4h0ZM719.8,121.6c-15.5,0-28.5,5.6-39,16.9s-17,27.1-19.5,47.4h112.4v-2.9c-1.1-19.5-6.4-34.6-15.8-45.3-9.4-10.7-22.1-16.1-38.2-16.1h.1Z" fill="#425066"/><path d="M1046.5,208.9c0,34.3-7.9,61.9-23.6,82.7-15.8,20.8-36.9,31.2-63.5,31.2s-50.3-10-65.8-30.1l-1.9,25.9h-35.3V0h38.4v118.9c15.5-19.2,36.9-28.8,64.1-28.8s48.6,10.3,64.2,30.9,23.3,48.8,23.3,84.6v3.3h.1ZM1008.2,204.5c0-26.1-5.1-46.3-15.1-60.6-10.1-14.2-24.6-21.4-43.6-21.4s-43.5,11.8-54.6,35.3v97.1c11.8,23.5,30.1,35.3,55,35.3s32.7-7.1,42.9-21.4c10.2-14.2,15.4-35.7,15.4-64.3h0Z" fill="#425066"/></g><g isolation="isolate"><path d="M1275.6,257.6h-110.8l-21.1,63.2h-67.2L1190.7,14h58.6l114.8,306.8h-67.2l-21.3-63.2h0ZM1181.8,206.4h76.7l-38.6-114.8-38.1,114.8Z" fill="#ff8700"/><path d="M1459.9,320.8h-63.2V14.1h63.2v306.8-.1Z" fill="#ff8700"/></g></svg>