<?xml version="1.0" encoding="UTF-8"?><svg id="a" xmlns="http://www.w3.org/2000/svg" width="900" height="142.55" viewBox="0 0 900 142.55"><path d="M900,27.85h-27.55l-17.45,50.58-17.29-50.58h-28.17l28.78,74.89h6.59l-1.43,3.82-.19.44c-1.59,3.74-2.7,5.01-4.21,6.52-1.59,1.44-4.4,2.31-8.01,2.31h-17.26v23.68h21.35c8.26,0,14.66-1.2,19.73-4.97,5.06-3.76,8.82-10.16,11.72-18.2l33.4-88.48h0Z" fill="#2c2b29"/><path d="M406.51,27.96h-23.57V0h-25.26v27.96h-33.55l-12.71,49.21-13.46-48.6h-21.27l-13.62,48.6-12.7-49.2h-26.64l24.34,78.99h27.87l11.17-40.39,11.63,40.39h28.01l16.89-56.61h14.04v30.83c0,17.93,7.81,25.67,25.87,25.67h22.96v-22.63h-23.57v-33.87h23.57v-22.38h0Z" fill="#2c2b29"/><path d="M461.96,24.81c-9.8,0-17.3,3.8-22.19,11.09V0h-25.56v106.84h25.56v-42.53c0-10.18,4.75-16.25,13.16-16.25s11.78,4.56,11.78,15.19v43.59h25.56v-48c0-22.33-10.26-34.03-28.32-34.03Z" fill="#2c2b29"/><path d="M772.5,24.81c-1.81,0-3.59.1-5.34.3-.19.02-.39.05-.58.08-.38.05-.76.09-1.13.15-6.87,1.04-13.12,3.57-18.52,7.22l-19.12-4.71h-.01v111.65h25.27v-34.79c4.36,2.05,9.15,3.5,14.25,4.1,1.7.2,3.43.3,5.19.3,25.09,0,42.86-17.77,42.86-42.23s-17.76-42.08-42.86-42.08h0ZM752.45,66.89c0-10.29,7.32-17.89,17.51-18.36.33-.01.66-.02.99-.02,10.72,0,18.53,7.75,18.53,18.38s-7.81,18.53-18.53,18.53c-.33,0-.65,0-.98-.02-10.19-.48-17.52-8.21-17.52-18.51Z" fill="#2c2b29"/><path d="M538.53,24.8c-8.47,0-16.09,2.1-22.44,5.86-12.13,7.17-19.64,20.38-19.64,36.52,0,17.69,8.38,31.61,23.1,38.04,5.76,2.52,12.49,3.89,20.07,3.89,15.92,0,29.85-6.99,37.81-18.23l-20.36-13.98c-3.21,7.44-7.96,11.69-16.99,11.69-1.69,0-3.3-.15-4.8-.44-6.52-1.31-11.1-5.59-12.34-13.98h55.4c.31-2.88.46-5.62.46-8.21,0-24.76-15.92-41.17-40.25-41.17h-.01ZM523.07,58.54c1.38-6.49,5-10.94,10.01-12.75,1.67-.6,3.5-.92,5.45-.92,8.27,0,13.16,5.47,13.77,13.67h-29.23Z" fill="#2c2b29"/><path d="M85.11,27.8l-19.58,4.71c-5.48-3.95-12.06-6.59-19.26-7.45-1.67-.2-3.37-.3-5.1-.3C17.6,24.76,0,41.62,0,64.71s17.45,39.8,40.41,39.8c.9,0,1.81-.03,2.73-.08,6.39-.35,13-1.92,17.97-4.45.3,1.33.45,2.74.45,4.2,0,9.47-6.5,15.94-15.69,16.72-.61.05-1.24.08-1.87.08-6.29,0-11.35-2.81-14.54-7.33-.01-.02-.03-.05-.05-.07-.11-.15-.2-.3-.3-.46-1.3-2.12-1.91-4.71-1.91-4.71h-.02l-24.31,6.19c.45,1.92,1.14,3.86,1.55,4.95.37,1,.78,1.95,1.43,3.09,6.55,13.02,21.37,19.9,38.14,19.9,3.72,0,7.28-.36,10.65-1.06,18.16-3.76,30.51-17.36,30.51-37.31V27.8h-.03ZM43.04,82.21c-10.1,0-17.45-7.29-17.45-17.31s7.34-17.31,17.45-17.31c.62,0,1.24.03,1.85.08,9.13.82,15.58,7.69,15.58,17.23s-6.89,16.86-16.5,17.29c-.31.01-.62.02-.93.02Z" fill="#2c2b29"/><path d="M719.47,27.85l-21.26,5.31c-6.74-5.31-15.15-8.35-24.8-8.35-3.81,0-7.44.43-10.88,1.25-18.54,4.42-31.07,20.21-31.07,40.97,0,22.3,14.08,38.74,33.93,41.62,2.06.3,4.17.45,6.34.45,6.51,0,16.86-1.11,24.62-7.52l.07-.06c3.86,4.14,9.21,6.94,15.31,7.55,2.66.26,5.26.09,7.74-.47V27.85h-.02.01ZM657.49,67.03c0-9.63,6.53-16.89,15.74-18.18.94-.13,1.92-.2,2.93-.2,10.72,0,18.52,7.75,18.52,18.37s-7.81,18.38-18.52,18.38c-.67,0-1.32-.03-1.97-.09-9.7-.89-16.7-8.32-16.7-18.3h0Z" fill="#2c2b29"/><path d="M194.99,26.22c-3.58-.84-7.36-1.28-11.29-1.28-25.1,0-44.08,17.93-44.08,42.23s18.98,42.08,44.08,42.08c1.57,0,3.12-.07,4.64-.21,22.79-2.06,39.6-19.23,39.6-41.87,0-20.38-13.62-36.43-32.96-40.95h0ZM165.34,67.18c0-10.48,7.81-18.23,18.37-18.23.99,0,1.95.07,2.89.2,9.09,1.28,15.62,8.53,15.62,18.03,0,10.48-7.8,18.22-18.51,18.23-10.56,0-18.36-7.75-18.36-18.23h0Z" fill="#2c2b29"/><path d="M125.44,48.92c11.65,0,21.1-9.38,21.1-20.94h-53.05v78.99h25.26l.03-59.12c1.56.52,3.22.85,4.92.99.57.05,1.15.07,1.74.07h0Z" fill="#2c2b29"/><path d="M621.79,48.49c9.62-1.95,16.85-10.39,16.85-20.51h-53.04v78.99h25.25l.02-59.12c2.09.69,4.32,1.06,6.65,1.06,1.46,0,2.88-.15,4.25-.42Z" fill="#2c2b29"/></svg>