<?xml version="1.0" encoding="UTF-8"?><svg id="a" xmlns="http://www.w3.org/2000/svg" width="353.22" height="50.02" viewBox="0 0 353.22 50.02"><path d="M54.47,17.76c.4,0,.8.3,1,.7.2.4.1.9-.2,1.2l-25,25c-6.9,6.9-18.2,6.9-25.1,0-6.9-6.9-6.9-18.2,0-25.1l14.4-14.4C23.67,1.06,29.27-.54,34.58.16c.4.1.7.3.9.7.1.4,0,.8-.3,1.1l-3.2,3.2c-.5.5-1.1.8-1.7.9-2.4.4-4.7,1.5-6.5,3.3l-14.4,14.4c-4.6,4.6-4.6,12.1,0,16.7,4.6,4.6,12.1,4.6,16.7,0l17.9-17.9-2.9-2.9c-.3-.3-.4-.8-.2-1.2.2-.4.6-.7,1-.7h12.6ZM28.67,32.26c.4,0,.8-.3,1-.7s.1-.9-.2-1.2l-2.9-2.9,17.9-17.9c4.6-4.6,12.1-4.6,16.7,0,4.6,4.6,4.6,12.1,0,16.7l-14.5,14.4c-1.8,1.8-4.1,2.9-6.5,3.3-.7.1-1.3.4-1.7.9l-3.2,3.2c-.3.3-.4.7-.3,1.1.1.4.5.7.9.7,5.3.7,10.9-.9,15-5l14.4-14.4c6.9-6.9,6.9-18.2,0-25.1-6.9-6.9-18.2-6.9-25.1,0L15.18,30.36c-.3.3-.4.8-.2,1.2.2.4.6.7,1,.7h12.7Z" fill="#04c" stroke-width="0"/><polygon points="114.78 20.66 96.32 20.66 96.32 4.7 88.51 4.7 88.51 44.66 96.32 44.66 96.32 27.84 114.78 27.84 114.78 44.66 122.59 44.66 122.59 4.76 114.78 4.76 114.78 20.66" fill="#141412" stroke-width="0"/><path d="M151.78,17.41c-2.24-1.29-4.83-1.94-7.75-1.94s-5.45.65-7.7,1.94c-2.24,1.25-3.99,3-5.24,5.24-1.25,2.24-1.88,4.83-1.88,7.75s.63,5.51,1.88,7.75c1.29,2.24,3.06,4.01,5.3,5.3,2.28,1.25,4.86,1.88,7.75,1.88s5.43-.63,7.64-1.88c2.24-1.29,3.99-3.06,5.24-5.3,1.25-2.24,1.88-4.83,1.88-7.75s-.63-5.51-1.88-7.75c-1.25-2.24-3-3.99-5.24-5.24ZM150.29,34.57c-.57,1.18-1.39,2.11-2.45,2.79-1.06.68-2.3,1.03-3.7,1.03s-2.66-.34-3.76-1.03c-1.1-.68-1.96-1.61-2.57-2.79-.61-1.22-.91-2.6-.91-4.16s.3-2.93.91-4.1c.61-1.22,1.44-2.17,2.51-2.85,1.1-.68,2.34-1.03,3.71-1.03s2.64.34,3.7,1.03c1.1.68,1.96,1.63,2.57,2.85.61,1.18.91,2.55.91,4.1s-.3,2.95-.91,4.16Z" fill="#141412" stroke-width="0"/><path d="M185.47,17.41c-2.24-1.29-4.83-1.94-7.75-1.94s-5.45.65-7.7,1.94c-2.24,1.25-3.99,3-5.24,5.24-1.25,2.24-1.88,4.83-1.88,7.75s.63,5.51,1.88,7.75c1.29,2.24,3.06,4.01,5.3,5.3,2.28,1.25,4.86,1.88,7.75,1.88s5.43-.63,7.64-1.88c2.24-1.29,3.99-3.06,5.24-5.3,1.25-2.24,1.88-4.83,1.88-7.75s-.63-5.51-1.88-7.75c-1.25-2.24-3-3.99-5.24-5.24ZM183.98,34.57c-.57,1.18-1.39,2.11-2.45,2.79-1.06.68-2.3,1.03-3.71,1.03s-2.66-.34-3.76-1.03c-1.1-.68-1.96-1.61-2.57-2.79-.61-1.22-.91-2.6-.91-4.16s.3-2.93.91-4.1c.61-1.22,1.44-2.17,2.51-2.85,1.1-.68,2.34-1.03,3.71-1.03s2.64.34,3.7,1.03c1.1.68,1.96,1.63,2.57,2.85.61,1.18.91,2.55.91,4.1s-.3,2.95-.91,4.16Z" fill="#141412" stroke-width="0"/><polygon points="224.34 16.16 215.4 16.16 205.65 26.9 205.65 4.76 198.12 4.76 198.12 44.66 205.65 44.66 205.65 37.04 208.76 33.57 216.36 44.66 225.2 44.66 213.57 28.19 224.34 16.16" fill="#141412" stroke-width="0"/><path d="M247.76,19.98c-.71-1.06-1.53-1.97-2.51-2.68-1.63-1.22-3.65-1.82-6.04-1.82-2.62,0-4.9.61-6.84,1.82-1.9,1.22-3.38,2.95-4.45,5.19-1.06,2.2-1.6,4.84-1.6,7.92s.53,5.68,1.6,7.92,2.55,3.97,4.45,5.19c1.94,1.22,4.22,1.82,6.84,1.82,2.39,0,4.41-.61,6.04-1.82,1.03-.75,1.88-1.71,2.61-2.84l.3,3.98h7.12V4.76h-7.52v15.22ZM244.56,37.42c-.99.68-2.13,1.03-3.42,1.03-1.37,0-2.58-.34-3.65-1.03-1.03-.68-1.84-1.63-2.45-2.85s-.91-2.6-.91-4.16.3-2.95.91-4.16,1.42-2.15,2.45-2.79c1.03-.68,2.22-1.03,3.59-1.03s2.49.34,3.48,1.03c1.03.65,1.82,1.58,2.39,2.79.42.91.69,1.91.8,3v2.32c-.11,1.09-.37,2.1-.8,3-.57,1.22-1.37,2.17-2.39,2.85Z" fill="#141412" stroke-width="0"/><path d="M287.58,23.23c-1.25-2.55-2.95-4.46-5.07-5.76-2.09-1.33-4.39-1.99-6.9-1.99-2.89,0-5.45.65-7.7,1.94-2.2,1.25-3.95,3-5.24,5.24-1.25,2.24-1.88,4.83-1.88,7.75s.61,5.51,1.82,7.75c1.25,2.24,2.96,4.01,5.13,5.3,2.17,1.25,4.66,1.88,7.47,1.88,2.24,0,4.24-.3,5.99-.91,1.75-.61,3.25-1.48,4.5-2.62,1.29-1.18,2.34-2.57,3.14-4.16l-6.73-2.62c-.53,1.06-1.29,1.94-2.28,2.62-.99.65-2.26.97-3.82.97-1.29,0-2.51-.27-3.65-.8-1.1-.57-2.01-1.37-2.74-2.39-.57-.89-.89-1.9-.98-3.02h20.88c0-3.61-.65-6.67-1.94-9.18ZM272.59,22.43c.99-.38,1.92-.57,2.79-.57s1.77.19,2.68.57c.95.38,1.75.99,2.39,1.82.53.66.83,1.52.93,2.57h-12.34c.1-1.04.42-1.91.98-2.57.72-.84,1.58-1.44,2.57-1.82Z" fill="#141412" stroke-width="0"/><path d="M311.56,37.19c-1.1.72-2.34,1.08-3.7,1.08s-2.66-.34-3.76-1.03c-1.1-.68-1.96-1.6-2.57-2.74-.61-1.18-.91-2.55-.91-4.1s.3-2.93.91-4.1c.61-1.18,1.44-2.09,2.51-2.74,1.06-.68,2.3-1.03,3.71-1.03s2.6.34,3.71,1.03c1.14.65,1.98,1.52,2.51,2.62l7.07-2.51c-1.06-2.66-2.77-4.69-5.13-6.1s-4.96-2.11-7.81-2.11-5.59.65-7.87,1.94c-2.28,1.25-4.07,3-5.36,5.24s-1.94,4.83-1.94,7.75.65,5.47,1.94,7.75c1.29,2.24,3.1,4.01,5.42,5.3,2.32,1.25,4.96,1.88,7.92,1.88s5.49-.74,7.81-2.22c2.36-1.48,4.08-3.57,5.19-6.27l-7.12-2.51c-.53,1.18-1.37,2.13-2.51,2.85Z" fill="#141412" stroke-width="0"/><polygon points="344.39 44.66 353.22 44.66 341.6 28.19 352.37 16.16 343.42 16.16 333.67 26.9 333.67 4.76 326.15 4.76 326.15 44.66 333.67 44.66 333.67 37.04 336.78 33.57 344.39 44.66" fill="#141412" stroke-width="0"/></svg>