<?xml version="1.0" encoding="UTF-8"?><svg id="a" xmlns="http://www.w3.org/2000/svg" width="900" height="392.51" viewBox="0 0 900 392.51"><g id="b"><g id="c"><path id="d" d="M352.1,0c66.97,0,121.26,54.29,121.26,121.26s-54.29,121.26-121.26,121.26-121.26-54.29-121.26-121.26S285.13,0,352.1,0ZM548.01,0c66.91,0,121.16,54.29,121.16,121.26s-54.24,121.26-121.16,121.26c-31.68,0-60.52-12.17-82.1-32.09,12.93-16.6,22.31-36.12,26.99-57.4,10.99,19.05,31.56,31.88,55.12,31.88,35.12,0,63.6-28.5,63.6-63.65s-28.47-63.65-63.6-63.65c-23.72,0-44.41,13-55.34,32.27-4.83-21.23-14.34-40.68-27.39-57.2C486.92,12.41,516.02,0,548.01,0ZM352.1,57.61c-35.15,0-63.65,28.5-63.65,63.65s28.5,63.65,63.65,63.65,63.65-28.5,63.65-63.65-28.5-63.65-63.65-63.65Z" fill="#e73536"/><path id="e" d="M576.09,300v18.4h-46.13v19.06h41.49v17.6h-41.49v19.19h47.59v18.26h-68.26v-92.51h66.81ZM467.02,317.87v74.65h-20.56v-74.65h-26.1v-17.87h72.75v17.87h-26.1ZM384.43,300h20.66v92.51h-20.66v-92.51ZM340.44,300h20.64v92.51h-20.64l-44.05-57.97v57.97h-20.64v-92.51h19.31l45.38,59.56v-59.56ZM232.63,300h20.66v92.51h-20.66v-92.51ZM216.47,300v18.13h-43.05v19.99h40.92v18.13h-40.92v36.26h-20.73v-92.51h63.77ZM107.81,300h20.64v92.51h-20.64l-44.05-57.97v57.97h-20.64v-92.51h19.31l45.38,59.56v-59.56ZM0,300h20.66v92.51H0v-92.51ZM709.15,330.71c0,14.82-5.87,24.4-17.6,28.72l23.42,33.09h-25.4l-20.51-29.51h-14.29v29.51h-20.64v-92.51h35.06c14.38,0,24.63,2.43,30.76,7.28,6.13,4.85,9.2,12.66,9.2,23.43ZM683.71,341.53c2.56-2.29,3.84-5.93,3.84-10.92s-1.32-8.4-3.97-10.26c-2.65-1.85-7.28-2.78-13.89-2.78h-15.48v27.4h15.08c7.06,0,11.86-1.15,14.42-3.44ZM797.04,300v18.4h-46.13v19.06h41.49v17.6h-41.49v19.19h47.59v18.26h-68.26v-92.51h66.81ZM886.82,312.11c8.78,8.07,13.18,19.3,13.18,33.68s-4.28,25.76-12.85,34.15c-8.56,8.38-21.63,12.57-39.2,12.57h-31.49v-92.51h32.54c16.43,0,29.03,4.04,37.81,12.11ZM872.01,366.67c5.05-4.76,7.58-11.69,7.58-20.78s-2.53-16.08-7.58-20.98c-5.05-4.9-12.8-7.35-23.25-7.35h-11.46v56.25h13.04c9.4,0,16.62-2.38,21.67-7.15Z" fill="#1e1b1a"/></g></g></svg>