<?xml version="1.0" encoding="UTF-8"?><svg id="a" xmlns="http://www.w3.org/2000/svg" width="804.88" height="248.78" viewBox="0 0 804.88 248.78"><path d="M195.62,195.62c-13.61,13.6-40.22,21.7-71.21,21.7s-57.63-8.1-71.2-21.7-21.76-40.22-21.76-71.21,8.15-57.59,21.75-71.2,40.25-21.75,71.25-21.75,57.6,8.14,71.21,21.75,21.7,40.22,21.7,71.2-8.18,57.6-21.74,71.21ZM248.78,124.39C248.78,55.69,193.09,0,124.39,0S0,55.69,0,124.39s55.69,124.39,124.39,124.39,124.39-55.69,124.39-124.39h0Z" fill="#ff5a00" stroke-width="0"/><path d="M148.39,107v34c.02,3.89-3.11,7.05-7,7.08h-34.1c-3.87.03-7.02-3.08-7.05-6.95,0-.04,0-.09,0-.13v-34c-.02-3.9,3.13-7.07,7.03-7.09,0,0,.01,0,.02,0h34.06c3.9.01,7.05,3.18,7.04,7.08,0,0,0,0,0,.01Z" fill="#ff5a00" stroke-width="0"/><path d="M182.62,65.69c-9.64-9.64-32.53-15.88-58.32-15.88h0c-25.79,0-48.68,6.24-58.32,15.88s-15.87,32.56-15.87,58.36,6.19,48.72,15.87,58.37,32.53,15.87,58.32,15.87h0c25.79,0,48.68-6.24,58.32-15.87s15.88-32.57,15.88-58.37-6.19-48.77-15.88-58.36ZM160.1,159.61c-2,2-8.15,8.14-36,8.14s-34-6.11-36-8.14-8.14-8.14-8.14-36,6.11-34,8.14-36,8.1-8.1,36-8.1,33.94,6.07,36,8.1,8.09,8.14,8.09,36-6.1,33.94-8.09,35.96v.04Z" fill="#ff5a00" stroke-width="0"/><path d="M396.27,86.16c-10.33,0-18.66,3.39-25,10.17l-3.39-8.32h-21.55v76.3h27.12v-40.85c0-9.09,5.7-15.11,14.18-15.11,6.51-.12,11.88,5.06,12,11.57,0,.2,0,.41,0,.61v43.78h27.13v-48.25c0-8.78-2.77-15.87-8.48-21.42-5.67-5.71-12.92-8.48-22.01-8.48Z" fill="#373a3b" stroke-width="0"/><rect x="304.56" y="52.75" width="27.13" height="27.13" fill="#373a3b" stroke-width="0"/><rect x="304.56" y="88.01" width="27.13" height="76.3" fill="#373a3b" stroke-width="0"/><path d="M794.89,97.4c-6.64-7.54-15.11-11.22-25.43-11.22-9.28,0-16.81,2.91-22.68,8.91l-3.41-7.09h-21.54v108.38h27.09v-37.46c5.79,4.73,13.05,7.3,20.53,7.25,10.32,0,18.79-3.73,25.43-11.1,6.6-7.57,10-17.13,10-28.84.02-11.86-3.43-21.42-9.99-28.83ZM762.21,144.86c-8.18,0-13.73-6.15-13.73-14.62v-8c0-8.62,5.55-14.78,13.73-14.78,8.79,0,15.1,7.7,15.1,18.79s-6.31,18.61-15.1,18.61Z" fill="#373a3b" stroke-width="0"/><path d="M693.61,52.4c-8.79,0-15.42,6.47-15.42,15.57-.18,8.33,6.42,15.23,14.74,15.41.23,0,.45,0,.68,0,9.24,0,15.56-6.63,15.56-15.41s-6.32-15.57-15.56-15.57Z" fill="#373a3b" stroke-width="0"/><rect x="680.04" y="88.01" width="27.13" height="76.3" fill="#373a3b" stroke-width="0"/><path d="M566.91,97.4c-8-7.54-18.51-11.22-31.27-11.22s-23.13,3.68-31.31,11.22c-8.18,7.54-12.19,17.13-12.19,28.83s4,21.27,12.19,28.84c8.18,7.37,18.51,11.1,31.31,11.1s23.25-3.73,31.27-11.1c8.18-7.57,12.19-17.13,12.19-28.84s-4.01-21.42-12.19-28.83ZM535.64,145.19c-9.28,0-15.76-7.86-15.76-19s6.48-19.11,15.76-19.11,15.88,7.85,15.88,19.11-6.65,19-15.88,19Z" fill="#373a3b" stroke-width="0"/><path d="M481.04,75.52c3,.06,6,.37,8.95.93l3.39-20c-6.2-1.66-12.59-2.49-19-2.47-8.48,0-15.42,2.47-20.81,7.4-5.24,4.93-7.86,11.41-7.86,19.58v7.09h-12.76v20.5h12.8v55.8h27.13v-55.8h15.72v-20.5h-15.72v-4.36c0-5.09,3.23-8.17,8.16-8.17Z" fill="#373a3b" stroke-width="0"/><path d="M660.14,97.4c-6.6-7.54-15.11-11.22-25.43-11.22-7.47-.11-14.74,2.45-20.5,7.21v-37.59h-27.13v108.51h21.58l3.41-7.09c5.83,6,13.4,9,22.64,9,10.32,0,18.83-3.73,25.43-11.1,6.64-7.57,10-17.13,10-28.84.05-11.91-3.36-21.47-10-28.88ZM627.5,144.86c-8.18,0-13.73-6.15-13.73-14.62v-8c0-8.62,5.55-14.78,13.73-14.78,8.75,0,15.06,7.7,15.06,18.79s-6.31,18.61-15.06,18.61Z" fill="#373a3b" stroke-width="0"/></svg>