<?xml version="1.0" encoding="UTF-8"?><svg id="a" xmlns="http://www.w3.org/2000/svg" width="2.61in" height=".54in" viewBox="0 0 187.97 38.69"><path d="M5.27,32.07c-7.03-7.03-7.03-18.43,0-25.46C12.3-.41,25.07-1.87,34.97,2.38l-4.24,4.24c7.03,7.03,7.03,18.43,0,25.46-7.03,7.03-19.8,8.48-29.7,4.24l4.24-4.24ZM25.07,12.27c-3.91-3.9-10.24-3.9-14.14,0-3.91,3.91-3.91,10.24,0,14.14h0c3.91,3.91,10.24,3.91,14.14,0,3.91-3.91,3.91-10.24,0-14.14h0Z" fill="#1f2937" fill-rule="evenodd"/><path d="M187.68,32.35h-3.42c-2.7,0-4.14-1.51-4.14-4.07v-11.45h-2.92v-3.2h1.58c1.3,0,1.73-.54,1.73-1.84v-3.28h3.53v5.11h3.92v3.2h-3.92v12.31h3.64v3.2Z" fill="#1f2937"/><path d="M162.12,32.35h-3.92V13.63h3.92v3.1h.18c.79-2.02,2.38-3.53,5.26-3.53,3.82,0,6.08,2.66,6.08,7.27v11.88h-3.92v-11.38c0-2.92-1.12-4.39-3.53-4.39-2.05,0-4.07,1.04-4.07,3.24v12.53Z" fill="#1f2937"/><path d="M145.54,32.78c-5.33,0-8.6-3.82-8.6-9.79s3.28-9.79,8.6-9.79,8.32,4.14,8.32,9.32v1.48h-12.85v.61c0,2.88,1.76,4.93,4.93,4.93,2.3,0,3.85-1.08,4.93-2.81l2.3,2.27c-1.4,2.27-4.14,3.78-7.63,3.78ZM145.54,16.25c-2.7,0-4.54,2.02-4.54,4.9v.25h8.71v-.36c0-2.88-1.58-4.79-4.18-4.79Z" fill="#1f2937"/><path d="M110.37,32.35h-3.92V13.63h3.92v3.1h.18c.76-1.94,2.16-3.53,5-3.53,2.52,0,4.64,1.22,5.54,3.82h.11c.68-2.09,2.63-3.82,5.65-3.82,3.71,0,5.9,2.66,5.9,7.27v11.88h-3.92v-11.41c0-2.88-1.08-4.36-3.46-4.36-1.98,0-3.82,1.04-3.82,3.2v12.56h-3.92v-11.41c0-2.92-1.12-4.36-3.42-4.36-1.94,0-3.85,1.04-3.85,3.2v12.56Z" fill="#1f2937"/><path d="M93.47,32.78c-5.22,0-8.6-3.82-8.6-9.79s3.38-9.79,8.6-9.79,8.6,3.82,8.6,9.79-3.38,9.79-8.6,9.79ZM93.47,29.54c2.66,0,4.46-1.66,4.46-4.97v-3.17c0-3.31-1.8-4.97-4.46-4.97s-4.46,1.66-4.46,4.97v3.17c0,3.31,1.8,4.97,4.46,4.97Z" fill="#1f2937"/><path d="M57.1,32.35V7.22h4.82l6.73,12.78h.22l6.73-12.78h4.61v25.13h-3.89V13.12h-.18l-1.98,4.07-5.51,10.04-5.51-10.04-1.98-4.07h-.18v19.22h-3.89Z" fill="#1f2937"/></svg>