<?xml version="1.0" encoding="UTF-8"?><svg id="a" xmlns="http://www.w3.org/2000/svg" width="900" height="281.25" viewBox="0 0 900 281.25"><g id="b"><path d="M559.29,52.59c-9.63,0-17.44-7.81-17.44-17.44s7.81-17.44,17.44-17.44,17.44,7.81,17.44,17.44-7.81,17.44-17.44,17.44M559.29,0C539.88,0,524.14,15.74,524.14,35.15v105.48c0,38.78-31.55,70.33-70.33,70.33s-70.33-31.55-70.33-70.33V35.15C383.48,15.74,367.74,0,348.33,0s-35.15,15.74-35.15,35.15v105.48c0,77.54,63.08,140.63,140.62,140.63s140.63-63.08,140.63-140.63V35.15c0-19.41-15.74-35.15-35.15-35.15"/><path d="M864.85,263.54c-9.63,0-17.44-7.81-17.44-17.44s7.81-17.44,17.44-17.44,17.44,7.81,17.44,17.44-7.81,17.44-17.44,17.44M709.67,140.63l-80.62,80.62c-13.73,13.73-13.73,35.98,0,49.71,13.73,13.73,35.98,13.73,49.71,0l80.62-80.62,80.62,80.62c13.73,13.73,35.98,13.73,49.71,0,13.73-13.73,13.73-35.98,0-49.71l-80.62-80.62h0s80.62-80.62,80.62-80.62c13.73-13.73,13.73-35.98,0-49.71-13.73-13.73-35.98-13.73-49.71,0l-80.62,80.62-80.62-80.62c-13.73-13.73-35.98-13.73-49.71,0-13.73,13.73-13.73,35.98,0,49.71l80.62,80.62h0Z"/><path d="M246.1,263.54c-9.63,0-17.44-7.81-17.44-17.44s7.81-17.44,17.44-17.44,17.44,7.81,17.44,17.44-7.81,17.44-17.44,17.44M259.55,2.68c-13.13-5.44-28.25-2.43-38.3,7.62l-80.62,80.62L60,10.3C49.95.24,34.83-2.76,21.7,2.68,8.56,8.12,0,20.93,0,35.15v210.95c0,19.41,15.74,35.15,35.15,35.15s35.15-15.74,35.15-35.15v-126.1l45.47,45.47c13.73,13.73,35.98,13.73,49.71,0l45.47-45.47v126.1c0,19.41,15.74,35.15,35.15,35.15s35.15-15.74,35.15-35.15V35.15c0-14.22-8.56-27.03-21.7-32.47"/></g></svg>