<?xml version="1.0" encoding="UTF-8"?><svg id="a" xmlns="http://www.w3.org/2000/svg" width="900" height="365.85" xmlns:xlink="http://www.w3.org/1999/xlink" viewBox="0 0 900 365.85"><defs><clipPath id="b"><rect width="900" height="365.85" fill="none"/></clipPath></defs><g clip-path="url(#b)"><path d="M206.43,363.93v-92.17l1.92-1.92h19.2l1.92,1.92v92.17l-1.92,1.92h-19.2l-1.92-1.92Z" fill="#05bdba"/><path d="M206.43,94.08V1.92l1.92-1.92h19.2l1.92,1.92v92.16l-1.92,1.92h-19.2l-1.92-1.92Z" fill="#05bdba"/><path d="M122.97,297.49h-2.71l-13.57-13.58v-2.72l31.7-31.69h14.37s1.93,1.92,1.93,1.92v14.38l-31.71,31.69Z" fill="#05bdba"/><path d="M122.95,68.36h-2.71l-13.57,13.58v2.71l31.7,31.69h14.37s1.93-1.92,1.93-1.92v-14.37l-31.71-31.69Z" fill="#05bdba"/><path d="M1.92,171.4h130.57l1.92,1.92v19.2l-1.92,1.92H1.92l-1.92-1.92v-19.2l1.92-1.92Z" fill="#05bdba"/><path d="M775.19,171.4h122.89l1.92,1.92v19.2l-1.92,1.92h-130.57l-1.92-1.92,7.67-19.2,1.92-1.92Z" fill="#05bdba"/><path d="M372.75,191.12l-1.92,1.92h-59.56l-1.92,1.92c0,3.84,3.84,15.37,19.21,15.37,5.77,0,11.52-1.92,13.45-5.77l1.92-1.92h23.06l1.92,1.92c-1.92,11.53-11.52,28.82-40.35,28.82-32.66,0-48.04-23.06-48.04-49.95s15.37-49.95,46.11-49.95,46.11,23.06,46.11,49.95v7.69h0ZM343.93,171.91c0-1.92-1.92-15.37-17.29-15.37s-17.29,13.45-17.29,15.37l1.92,1.92h30.74l1.92-1.92Z" fill="#014847"/><path d="M426.55,202.65c0,3.84,1.92,5.77,5.77,5.77h17.29l1.92,1.92v19.21l-1.92,1.92h-17.29c-17.29,0-32.66-7.69-32.66-28.82v-42.27l-1.92-1.92h-13.45l-1.92-1.92v-19.21l1.92-1.92h13.45l1.92-1.92v-17.29l1.92-1.92h23.06l1.92,1.92v17.29l1.92,1.92h21.13l1.92,1.92v19.21l-1.92,1.92h-21.13l-1.92,1.92v42.27h0Z" fill="#014847"/><path d="M497.64,231.47h-23.06l-1.92-1.92V98.9l1.92-1.92h23.06l1.92,1.92v130.65l-1.92,1.92Z" fill="#014847"/><path d="M549.51,120.04h-23.06l-1.92-1.92v-19.21l1.92-1.92h23.06l1.92,1.92v19.21l-1.92,1.92ZM549.51,231.47h-23.06l-1.92-1.92v-92.22l1.92-1.92h23.06l1.92,1.92v92.22l-1.92,1.92Z" fill="#014847"/><path d="M639.81,98.9v19.21l-1.92,1.92h-17.29c-3.84,0-5.77,1.92-5.77,5.77v7.69l1.92,1.92h19.21l1.92,1.92v19.21l-1.92,1.92h-19.21l-1.92,1.92v69.16l-1.92,1.92h-23.06l-1.92-1.92v-69.16l-1.92-1.92h-13.45l-1.92-1.92v-19.21l1.92-1.92h13.45l1.92-1.92v-7.69c0-21.13,15.37-28.82,32.66-28.82h17.29l1.92,1.92h0Z" fill="#014847"/><path d="M710.89,233.39c-7.69,19.21-15.37,30.74-42.27,30.74h-9.61l-1.92-1.92v-19.21l1.92-1.92h9.61c9.6,0,11.52-1.92,13.45-7.69v-1.92l-30.74-74.93v-19.21l1.92-1.92h17.29l1.92,1.92,23.06,65.33h1.92l23.06-65.33,1.92-1.92h17.29l1.92,1.92v19.21l-30.74,76.85h0Z" fill="#014847"/><path d="M238.1,231.47l-1.92-1.92v-55.67c.01-9.6-3.76-17.05-15.36-17.29-5.96-.15-12.78-.01-20.07.3l-1.09,1.12v71.55s-1.91,1.92-1.91,1.92h-23.05l-1.92-1.92v-93.25l1.92-1.92,51.87-.47c25.99,0,36.5,17.86,36.5,38.01v57.63l-1.92,1.92h-23.06Z" fill="#014847"/></g></svg>