<svg xmlns="http://www.w3.org/2000/svg" width="737.94" height="132.02" viewBox="0 0 737.94 132.02"><path d="M258,104,237.77,61.66C233,51.66,228,40.3,226.31,35l-.39.39c.65,7.55.78,17.06.91,25l.52,43.63H212.64V13.86h16.93l21.88,44A163.7,163.7,0,0,1,260.7,81l.39-.39c-.39-4.56-1.3-17.45-1.3-25.66l-.26-41.15h14.2V104Z" transform="translate(0.01 0)"/><path d="M300.54,74.94v1c0,9.12,3.39,18.75,16.28,18.75,6.12,0,11.46-2.21,16.41-6.51l5.6,8.73a35.62,35.62,0,0,1-23.7,8.73c-18.62,0-30.34-13.41-30.34-34.51,0-11.59,2.47-19.28,8.21-25.79,5.34-6.12,11.85-8.86,20.19-8.86a25.45,25.45,0,0,1,18.1,6.77c5.73,5.21,8.6,13.28,8.6,28.65v3Zm12.63-27.61c-8.07,0-12.5,6.38-12.5,17.06H325C325,53.73,320.34,47.33,313.17,47.33Z" transform="translate(0.01 0)"/><path d="M416.1,104.24H402.64L394.57,73.9c-2.08-7.81-4.3-18-4.3-18H390a188.21,188.21,0,0,1-4.3,18.62l-7.94,29.69H364.35L346.35,39l14.2-2,7.16,31.91c1.82,8.2,3.39,17.32,3.39,17.32h.39a178.78,178.78,0,0,1,3.78-17.71L383.74,38h14.07l7.43,29.72c2.74,10.68,4.17,18.75,4.17,18.75h.39s1.56-10,3.26-17.71L419.83,38h14.85Z" transform="translate(0.01 0)"/><path d="M518.15,104,510.34,90C504.1,79,499.92,72.73,495,67.73A7.65,7.65,0,0,0,489.1,65V104H474.39V13.86h27.48c20.19,0,29.3,11.72,29.3,25.79,0,12.89-8.33,24.75-22.4,24.75,3.26,1.69,9.25,10.42,13.93,18L536,104ZM497.31,26H489.1V54.5h7.68c7.81,0,12-1,14.72-3.78,2.47-2.47,4-6.25,4-10.94,0-9.12-4.9-13.81-18.19-13.81Z" transform="translate(0.01 0)"/><path d="M555.65,74.94v1c0,9.12,3.39,18.75,16.28,18.75,6.12,0,11.46-2.21,16.41-6.51l5.6,8.73a35.62,35.62,0,0,1-23.7,8.73c-18.62,0-30.34-13.41-30.34-34.51,0-11.59,2.47-19.28,8.21-25.79,5.34-6.12,11.85-8.86,20.19-8.86a25.45,25.45,0,0,1,18.1,6.77c5.73,5.21,8.6,13.28,8.6,28.65v3Zm12.64-27.61c-8.07,0-12.5,6.38-12.5,17.06H580.1C580.1,53.73,575.45,47.33,568.29,47.33Z" transform="translate(0.01 0)"/><path d="M621.81,105.42c-14.46,0-14.46-13-14.46-18.62V30.66a106.21,106.21,0,0,0-1.25-19.27l14.72-3.26c1,4,1.17,9.51,1.17,18.1V82.1c0,8.86.39,10.29,1.43,11.85a4,4,0,0,0,4.69,1l2.34,8.86A22.43,22.43,0,0,1,621.81,105.42Z" transform="translate(0.01 0)"/><path d="M646.68,28.32a9.34,9.34,0,0,1-9.25-9.43v-.08a9.44,9.44,0,1,1,9.37,9.51ZM639.52,104V39.13L654,36.52V104Z" transform="translate(0.01 0)"/><path d="M695,105.68c-18,0-28-12.63-28-33.86,0-24,14.33-35.42,29-35.42,7.16,0,12.37,1.69,18.23,7.16l-7.13,9.5C703.19,49.54,699.81,48,696,48a11.2,11.2,0,0,0-10.42,6.64c-2,4-2.73,10.16-2.73,18.36,0,9,1.43,14.72,4.43,18A11.57,11.57,0,0,0,696,94.76c4.56,0,9-2.21,13.28-6.51L716.09,97C710.1,102.94,703.85,105.68,695,105.68Z" transform="translate(0.01 0)"/><path d="M728.31,105.43a9.67,9.67,0,1,1,9.62-9.72v.05a9.63,9.63,0,0,1-9.59,9.67Zm0-17.42a7.78,7.78,0,1,0,7.43,8.11c0-.12,0-.24,0-.36A7.55,7.55,0,0,0,728.41,88h-.1Zm1.9,13.11c-.42-.73-.6-1-1-1.8-1.07-1.95-1.4-2.5-1.79-2.65a.81.81,0,0,0-.34-.08v4.53H725V90.27h4a3,3,0,0,1,3.2,2.79,2.41,2.41,0,0,1,0,.38,2.78,2.78,0,0,1-2.42,3,2.45,2.45,0,0,1,.44.47c.62.78,2.6,4.21,2.6,4.21Zm-1.11-9a4.59,4.59,0,0,0-1.22-.16h-.78V95h.73c.94,0,1.35-.11,1.64-.37a1.52,1.52,0,0,0,.42-1.09A1.28,1.28,0,0,0,729.1,92.17Z" transform="translate(0.01 0)"/><path d="M161.82,48.55C154.17,13.4,112-7.27,67.66,2.37s-74.11,46-66.47,81.1S51,139.3,95.34,129.65,169.46,83.73,161.82,48.55ZM81.51,98.41A32.4,32.4,0,1,1,113.91,66h0A32.41,32.41,0,0,1,81.51,98.41Z" transform="translate(0.01 0)" fill="#008c99"/><path d="M88.67,20.65A46.52,46.52,0,1,0,135.2,67.17,46.52,46.52,0,0,0,88.67,20.65ZM81.5,94.31A28.3,28.3,0,1,1,109.8,66a28.3,28.3,0,0,1-28.3,28.3Z" transform="translate(0.01 0)" fill="#70ccd3"/></svg>