<?xml version="1.0" encoding="UTF-8"?><svg id="a" xmlns="http://www.w3.org/2000/svg" width="900" height="295.31" viewBox="0 0 900 295.31"><path d="M815.6,194.27c-25.1,0-42.84-19.57-42.84-45.24s17.75-45.25,42.84-45.25,42.34,19.57,42.34,45.25-17.49,45.24-42.34,45.24ZM811.54,221.21c20.29,0,37.52-7.87,48.41-24.39,2.03,16.01,13.69,21.86,28.39,21.86h11.66v-25.42h-5.06c-8.36,0-10.4-4.07-10.4-13.48v-100.4h-26.86v20.59c-9.13-14.49-26.36-23.13-46.14-23.13-35.23,0-67.69,29.49-67.69,72.19s32.45,72.19,67.69,72.19ZM673.14,186.38c0,22.87,14.2,32.28,31.17,32.28h32.7v-25.42h-23.83c-9.88,0-11.91-3.82-11.91-13.48v-74.98h35.74v-25.42h-35.74v-46.75h-28.14v153.77ZM545.13,218.66h28.14v-59.73h9.38l47.91,59.73h35.49l-61.09-75.74,46.89-63.54h-31.68l-38.28,53.63h-8.62V32.62h-28.14v186.05ZM453.87,76.84c-39.29,0-71.73,29.49-71.73,72.19s32.44,72.19,71.73,72.19,71.73-29.49,71.73-72.19-32.44-72.19-71.73-72.19ZM453.87,194.25c-25.1,0-42.84-19.57-42.84-45.25s17.75-45.24,42.84-45.24,42.84,19.57,42.84,45.24-17.75,45.25-42.84,45.25Z"/><path d="M163.19,1.85l-6.08,74.93c-2.88-.35-5.8-.53-8.78-.53-3.7,0-7.34.27-10.89.82l-3.47-36.33c-.11-1.13.8-2.13,1.94-2.11h6.22l-3-36.77c-.1-1.13.8-2.1,1.93-2.1h20.17c1.13,0,2.02.97,1.93,2.1h.03ZM112.28,5.56c-.3-1.09-1.47-1.69-2.54-1.31l-18.96,6.89c-1.07.39-1.57,1.6-1.1,2.64l15.42,33.52-5.86,2.11c-1.07.39-1.6,1.62-1.1,2.66l15.71,32.96c5.7-3.13,11.87-5.48,18.39-6.97L112.28,5.56ZM65.74,26.43l43.63,61.29c-5.53,3.59-10.53,7.92-14.87,12.85l-26.09-25.63c-.82-.81-.76-2.14.11-2.87l4.77-3.98-25.98-26.24c-.8-.81-.74-2.11.14-2.85l15.44-12.94c.87-.73,2.18-.56,2.84.36ZM29.14,61.92c-.93-.63-2.22-.35-2.79.62l-10.08,17.43c-.57.98-.17,2.24.85,2.72l33.42,15.8-3.13,5.37c-.57.99-.17,2.26.87,2.73l33.3,15.18c2.42-6.18,5.63-11.93,9.57-17.13L29.14,61.92ZM4.52,109.28c.2-1.12,1.3-1.83,2.41-1.54l72.92,18.99c-1.88,6.14-2.94,12.64-3.09,19.37l-36.51-2.92c-1.15-.09-1.96-1.14-1.76-2.27l1.1-6.1-36.81-3.44c-1.13-.11-1.93-1.16-1.73-2.27l3.49-19.81h-.01ZM1.76,158.39c-1.13.11-1.93,1.16-1.73,2.27l3.5,19.81c.2,1.12,1.31,1.83,2.41,1.54l35.78-9.32,1.07,6.1c.2,1.13,1.33,1.84,2.43,1.53l35.29-9.72c-2.08-6.1-3.37-12.55-3.7-19.27L1.76,158.39ZM13.43,210.46c-.57-.98-.17-2.24.85-2.72l68.09-32.19c2.59,6.09,6.02,11.75,10.12,16.82l-29.84,21.17c-.93.67-2.24.37-2.8-.61l-3.1-5.38-30.42,20.97c-.93.65-2.22.36-2.79-.62l-10.1-17.43ZM95.93,196.34l-52.97,53.5c-.8.81-.74,2.11.14,2.85l15.46,12.93c.87.73,2.18.56,2.84-.36l21.39-30.08,4.76,4c.87.73,2.21.56,2.86-.39l20.77-30.04c-5.63-3.43-10.76-7.62-15.25-12.4ZM85.47,282.23c-1.07-.39-1.57-1.6-1.1-2.64l31.41-68.34c5.78,2.95,12.02,5.15,18.57,6.44l-9.21,35.33c-.29,1.11-1.47,1.73-2.54,1.33l-5.85-2.14-9.8,35.56c-.3,1.09-1.47,1.69-2.54,1.31l-18.96-6.87v.02ZM139.57,218.53l-6.08,74.94c-.09,1.13.8,2.1,1.93,2.1h20.17c1.13,0,2.03-.97,1.93-2.1l-3-36.76h6.22c1.15.01,2.04-.97,1.94-2.11l-3.47-36.33c-3.55.53-7.19.82-10.89.82-2.97,0-5.88-.2-8.76-.55h.01ZM212.31,15.71c.47-1.03-.04-2.24-1.1-2.64l-18.96-6.87c-1.06-.39-2.24.21-2.54,1.31l-9.8,35.56-5.85-2.14c-1.07-.4-2.26.22-2.54,1.33l-9.21,35.33c6.56,1.29,12.79,3.49,18.57,6.44l31.43-68.33h0ZM253.71,45.49l-52.97,53.5c-4.48-4.8-9.6-8.99-15.25-12.42l20.77-30.04c.65-.93,1.98-1.12,2.85-.37l4.76,4,21.39-30.08c.66-.92,1.97-1.09,2.84-.36l15.46,12.93c.87.73.93,2.05.14,2.85ZM282.39,87.59c1.03-.48,1.42-1.74.85-2.72l-10.1-17.43c-.57-.98-1.86-1.27-2.79-.62l-30.42,20.97-3.1-5.38c-.57-.99-1.88-1.28-2.8-.61l-29.84,21.17c4.1,5.08,7.53,10.73,10.12,16.82l68.09-32.19ZM293.14,114.86l3.5,19.81c.2,1.13-.61,2.17-1.73,2.27l-75.04,7.02c-.34-6.71-1.62-13.16-3.7-19.27l35.29-9.71c1.1-.31,2.23.41,2.43,1.53l1.06,6.1,35.78-9.32c1.1-.29,2.21.42,2.41,1.54h.01ZM289.74,187.59c1.1.29,2.21-.42,2.41-1.54l3.49-19.81c.2-1.12-.61-2.16-1.73-2.28l-36.81-3.44,1.1-6.1c.2-1.13-.61-2.17-1.76-2.27l-36.51-2.92c-.15,6.74-1.21,13.23-3.09,19.38l72.92,18.98h-.01ZM270.32,232.79c-.57.97-1.86,1.26-2.79.62l-62.03-42.72c3.94-5.2,7.17-10.95,9.57-17.13l33.3,15.19c1.05.47,1.46,1.75.87,2.73l-3.13,5.37,33.42,15.8c1.02.48,1.42,1.74.85,2.72l-10.08,17.43h.02ZM187.3,207.6l43.63,61.3c.66.92,1.96,1.09,2.84.36l15.45-12.94c.87-.73.93-2.05.14-2.85l-25.98-26.24,4.77-3.98c.87-.73.93-2.06.11-2.86l-26.09-25.63c-4.34,4.92-9.34,9.25-14.87,12.84h0ZM186.93,291.07c-1.06.38-2.24-.21-2.54-1.31l-19.97-72.49c6.52-1.49,12.69-3.85,18.39-6.97l15.71,32.96c.5,1.03-.01,2.28-1.1,2.66l-5.86,2.11,15.42,33.52c.47,1.03-.04,2.24-1.1,2.63l-18.96,6.89h.01Z" fill-rule="evenodd"/></svg>