<?xml version="1.0" encoding="UTF-8"?><svg id="a" xmlns="http://www.w3.org/2000/svg" width="900" height="150.17" viewBox="0 0 900 150.17"><path d="M175.01,150.17c-17.74,0-31.84-4.95-42.29-14.85-10.45-10.04-15.68-24.48-15.68-43.32v-33.83c0-18.84,5.23-33.21,15.68-43.11,10.45-10.04,24.55-15.06,42.29-15.06s31.83,5.02,42.29,15.06c10.59,9.9,15.88,24.27,15.88,43.11v33.83c0,18.84-5.29,33.28-15.88,43.32-10.45,9.9-24.55,14.85-42.29,14.85ZM175.01,130.16c11.41,0,20.21-3.3,26.4-9.9,6.19-6.74,9.28-15.88,9.28-27.43v-35.48c0-11.55-3.09-20.63-9.28-27.23-6.19-6.74-14.99-10.11-26.4-10.11s-19.87,3.37-26.2,10.11c-6.33,6.6-9.49,15.68-9.49,27.23v35.48c0,11.55,3.16,20.7,9.49,27.43,6.33,6.6,15.06,9.9,26.2,9.9Z" fill="#191919"/><path d="M251.92,147.28V45.59h20.83v15.26h3.3c1.93-4.13,5.36-7.98,10.31-11.55,4.95-3.58,12.31-5.36,22.07-5.36,7.7,0,14.51,1.72,20.42,5.16,6.05,3.44,10.79,8.32,14.23,14.65,3.44,6.19,5.16,13.68,5.16,22.48v61.06h-21.25v-59.41c0-8.8-2.2-15.26-6.6-19.39-4.4-4.26-10.45-6.39-18.15-6.39-8.8,0-15.88,2.89-21.25,8.66-5.23,5.78-7.84,14.16-7.84,25.17v51.36h-21.25Z" fill="#191919"/><path d="M417.19,150.17c-10.31,0-19.32-2.13-27.02-6.39-7.7-4.4-13.75-10.52-18.15-18.36-4.26-7.98-6.4-17.19-6.4-27.64v-2.48c0-10.59,2.13-19.8,6.4-27.64,4.26-7.98,10.18-14.1,17.74-18.36,7.7-4.4,16.57-6.6,26.61-6.6s18.29,2.2,25.58,6.6c7.43,4.26,13.2,10.24,17.33,17.95,4.13,7.7,6.19,16.71,6.19,27.02v8.04h-78.18c.27,8.94,3.23,16.09,8.87,21.45,5.78,5.23,12.93,7.84,21.45,7.84,7.98,0,13.96-1.79,17.95-5.36,4.13-3.58,7.29-7.7,9.49-12.38l17.53,9.08c-1.93,3.85-4.74,7.91-8.46,12.17-3.58,4.26-8.32,7.84-14.23,10.73-5.91,2.89-13.48,4.33-22.69,4.33ZM387.49,86.02h56.31c-.55-7.7-3.3-13.68-8.25-17.95-4.95-4.4-11.41-6.6-19.39-6.6s-14.51,2.2-19.6,6.6c-4.95,4.26-7.98,10.24-9.08,17.95Z" fill="#191919"/><path d="M541.57,150.17c-9.9,0-17.53-1.79-22.9-5.36-5.22-3.58-9.14-7.56-11.76-11.96h-3.3v14.44h-20.83V2.89h21.25v56.52h3.3c1.65-2.75,3.85-5.36,6.6-7.84,2.75-2.61,6.39-4.74,10.93-6.39s10.11-2.48,16.71-2.48c8.53,0,16.36,2.06,23.51,6.19,7.15,4.13,12.86,10.11,17.12,17.95s6.39,17.19,6.39,28.05v3.09c0,11-2.2,20.42-6.6,28.26-4.26,7.7-9.97,13.61-17.12,17.74-7.01,4.13-14.78,6.19-23.31,6.19ZM535.38,131.6c9.21,0,16.78-2.96,22.69-8.87,6.05-5.91,9.08-14.37,9.08-25.37v-1.86c0-10.86-2.96-19.25-8.87-25.17-5.91-5.91-13.55-8.87-22.9-8.87s-16.64,2.96-22.69,8.87c-5.91,5.91-8.87,14.3-8.87,25.17v1.86c0,11,2.96,19.46,8.87,25.37,6.05,5.91,13.61,8.87,22.69,8.87Z" fill="#191919"/><path d="M606.68,147.28V45.59h20.83v11.96h3.3c1.65-4.26,4.26-7.36,7.84-9.28,3.71-2.06,8.25-3.09,13.61-3.09h12.17v19.18h-13c-6.87,0-12.51,1.93-16.91,5.78-4.4,3.71-6.6,9.49-6.6,17.33v59.82h-21.25Z" fill="#191919"/><path d="M769.34,150.17c-10.31,0-19.32-2.13-27.02-6.39-7.7-4.4-13.75-10.52-18.15-18.36-4.26-7.98-6.39-17.19-6.39-27.64v-2.48c0-10.59,2.13-19.8,6.39-27.64,4.26-7.98,10.18-14.1,17.74-18.36,7.7-4.4,16.57-6.6,26.61-6.6s18.29,2.2,25.58,6.6c7.43,4.26,13.2,10.24,17.33,17.95,4.13,7.7,6.19,16.71,6.19,27.02v8.04h-78.18c.27,8.94,3.23,16.09,8.87,21.45,5.78,5.23,12.93,7.84,21.45,7.84,7.98,0,13.96-1.79,17.95-5.36,4.13-3.58,7.29-7.7,9.49-12.38l17.53,9.08c-1.93,3.85-4.75,7.91-8.46,12.17-3.58,4.26-8.32,7.84-14.23,10.73-5.91,2.89-13.48,4.33-22.69,4.33ZM739.64,86.02h56.31c-.55-7.7-3.3-13.68-8.25-17.95-4.95-4.4-11.41-6.6-19.39-6.6s-14.51,2.2-19.6,6.6c-4.95,4.26-7.98,10.24-9.08,17.95Z" fill="#191919"/><path d="M849.46,147.28V63.53h-28.47v-17.95h28.47v-22.28c0-6.19,1.86-11.14,5.57-14.85,3.71-3.71,8.66-5.57,14.85-5.57h26.2v17.95h-19.39c-3.99,0-5.98,2.06-5.98,6.19v18.56h29.29v17.95h-29.29v83.75h-21.25Z" fill="#191919"/><path d="M681.5,148.31V48.06h21.83v100.25h-21.83ZM681.5,28.21V2.83h21.83v25.37h-21.83Z" fill="#191919"/><path d="M0,29.05V3.51c0-.38.31-.68.68-.68h74.46c.61,0,.91.73.49,1.16L29.13,50.55c-.43.43-1.17.13-1.17-.48v-19.67c0-.38-.31-.68-.68-.68H.68c-.38,0-.68-.3-.68-.68Z" fill="#019eff"/><path d="M56.61,86.01h25.75c.38,0,.68-.3.68-.68V10.58c0-.6-.74-.91-1.17-.48l-46.96,46.54c-.43.43-.13,1.16.48,1.16h19.85c.38,0,.68.3.68.68v26.85c0,.37.31.68.68.68Z" fill="#019eff"/></svg>