<?xml version="1.0" encoding="UTF-8"?><svg id="a" xmlns="http://www.w3.org/2000/svg" width="900" height="224.47" viewBox="0 0 900 224.47"><path d="M36.15,124.8c8.28-4.78,8.3-20.26.03-34.58-8.27-14.32-21.68-22.04-29.96-17.26-8.28,4.78-8.3,20.26-.03,34.58,8.27,14.32,21.68,22.04,29.96,17.26ZM36.2,155.46c8.27,14.32,8.25,29.8-.03,34.58-8.28,4.78-21.7-2.95-29.96-17.26-8.27-14.32-8.25-29.8.03-34.58,8.28-4.78,21.7,2.95,29.96,17.26ZM92.65,188.09c8.27,14.32,8.25,29.8-.03,34.58-8.28,4.78-21.7-2.95-29.96-17.26-8.27-14.32-8.25-29.8.03-34.58,8.28-4.78,21.7,2.95,29.96,17.26ZM92.63,122.86c8.27,14.32,8.25,29.8-.03,34.58-8.28,4.78-21.7-2.95-29.96-17.26-8.27-14.32-8.25-29.8.03-34.58,8.28-4.78,21.7,2.95,29.96,17.26Z" fill="#f26e7e" fill-rule="evenodd"/><path d="M205.54,107.58c8.26-14.32,8.25-29.8-.03-34.58-8.28-4.78-21.7,2.95-29.96,17.26-8.27,14.32-8.25,29.8.03,34.58,8.28,4.78,21.7-2.95,29.96-17.26ZM205.54,138.22c8.28,4.78,8.3,20.26.03,34.58-8.27,14.32-21.68,22.04-29.96,17.26-8.28-4.78-8.3-20.26-.03-34.58,8.27-14.32,21.68-22.04,29.96-17.26ZM149.11,170.79c8.28,4.78,8.3,20.26.03,34.58-8.27,14.31-21.68,22.04-29.96,17.26s-8.3-20.26-.03-34.58c8.27-14.32,21.68-22.04,29.96-17.26ZM149.08,105.57c8.28,4.78,8.3,20.26.03,34.58-8.27,14.32-21.68,22.04-29.96,17.26-8.28-4.78-8.3-20.26-.03-34.58,8.27-14.32,21.68-22.04,29.96-17.26Z" fill="#8a3391" fill-rule="evenodd"/><path d="M135.79,17.46c0,9.56-13.4,17.32-29.93,17.32s-29.93-7.75-29.93-17.32S89.32.14,105.86.14s29.93,7.75,29.93,17.32ZM79.36,50c0,9.56-13.4,17.32-29.93,17.32s-29.93-7.75-29.93-17.32,13.4-17.32,29.93-17.32,29.93,7.75,29.93,17.32ZM162.36,67.32c16.53,0,29.93-7.75,29.93-17.32s-13.4-17.32-29.93-17.32-29.93,7.75-29.93,17.32,13.4,17.32,29.93,17.32ZM135.79,82.62c0,9.56-13.4,17.32-29.93,17.32s-29.93-7.75-29.93-17.32,13.4-17.32,29.93-17.32,29.93,7.75,29.93,17.32Z" fill="#f7bf2a" fill-rule="evenodd"/><path d="M538.34,40.37h11.13c3.45,0,5.37,1.92,5.37,5.37v129.22c0,3.45-1.92,5.37-5.37,5.37h-11.13c-3.45,0-5.37-1.92-5.37-5.37V45.75c0-3.45,1.92-5.37,5.37-5.37ZM324.33,180.33c3.45,0,5.37-1.92,5.37-5.37v-43.26h22.54c28.59,0,46.53-17.08,46.53-42.78s-17.94-42.78-46.53-42.78h-39.81c-3.45,0-5.37,1.92-5.37,5.37v123.46c0,3.45,1.92,5.37,5.37,5.37h11.89ZM329.7,65.22h21.1c16.12,0,25.23,9.31,25.23,23.69s-9.11,23.79-25.23,23.79h-21.1v-47.49ZM414.89,86.42v55.83c0,24.46,15.83,40.29,39.72,40.29,12.66,0,23.5-6.24,30.22-15.35v7.77c0,3.45,1.92,5.37,5.37,5.37h11.22c3.45,0,5.37-1.92,5.37-5.37v-88.54c0-3.45-1.92-5.37-5.37-5.37h-11.22c-3.45,0-5.37,1.92-5.37,5.37v48.73c0,16.5-11.89,28.11-25.71,28.11s-22.35-9.4-22.35-22.83v-54.01c0-3.45-1.92-5.37-5.37-5.37h-11.13c-3.45,0-5.37,1.92-5.37,5.37ZM579.21,86.42v55.83c0,24.46,15.83,40.29,39.71,40.29,12.66,0,23.5-6.24,30.22-15.35v7.77c0,3.45,1.92,5.37,5.37,5.37h11.22c3.45,0,5.37-1.92,5.37-5.37v-88.54c0-3.45-1.92-5.37-5.37-5.37h-11.22c-3.45,0-5.37,1.92-5.37,5.37v48.73c0,16.5-11.89,28.11-25.71,28.11s-22.35-9.4-22.35-22.83v-54.01c0-3.45-1.92-5.37-5.37-5.37h-11.13c-3.45,0-5.37,1.92-5.37,5.37ZM851.08,119.13v55.93c0,3.45-1.92,5.37-5.37,5.37h-11.22c-3.45,0-5.37-1.92-5.37-5.37v-54.01c0-13.43-8.35-22.83-20.63-22.83s-24.08,12.47-24.08,27.53v49.31c0,3.45-1.92,5.37-5.37,5.37h-11.22c-3.45,0-5.37-1.92-5.37-5.37v-54.01c0-13.43-8.35-22.83-20.62-22.83s-24.08,11.32-24.08,27.53v49.31c0,3.45-1.92,5.37-5.37,5.37h-11.22c-3.45,0-5.37-1.92-5.37-5.37v-88.64c0-3.45,1.92-5.37,5.37-5.37h11.22c3.45,0,5.37,1.92,5.37,5.37v7.58c7-9.21,17.08-15.25,28.68-15.25,14.97,0,27.53,7.77,33.77,20.63,6.52-12.47,18.61-20.63,32.81-20.63,21.59,0,38.08,15.92,38.08,40.39ZM900,54c0-7.58-5.95-13.43-13.62-13.43s-13.53,5.85-13.53,13.43,5.85,13.33,13.53,13.33,13.62-5.85,13.62-13.33ZM897.31,86.42c0-3.45-1.92-5.37-5.37-5.37h-11.13c-3.45,0-5.37,1.92-5.37,5.37v88.54c0,3.45,1.92,5.37,5.37,5.37h11.13c3.45,0,5.37-1.92,5.37-5.37v-88.54Z" fill-rule="evenodd"/></svg>