<?xml version="1.0" encoding="UTF-8"?><svg id="a" xmlns="http://www.w3.org/2000/svg" width="7.85in" height="2.13in" viewBox="0 0 565.02 153.48"><path d="M54.13,76.42c-15.83,0-28.66,12.83-28.66,28.66v48.4H0v-48.4c0-29.9,24.24-54.13,54.13-54.13h7.01v25.47h-7.01Z" fill="#103761" fill-rule="evenodd"/><path d="M71.58,102.77c0,28.01,22.7,50.71,50.71,50.71v-24.86c-14.28,0-25.85-11.58-25.85-25.85s11.57-25.85,25.85-25.85c9.57,0,17.92,5.2,22.39,12.93h-22.39v25.36h49.18c1-3.98,1.53-8.14,1.53-12.43,0-28.01-22.7-50.71-50.71-50.71s-50.71,22.7-50.71,50.71Z" fill="#103761"/><path d="M208.91,0v102.21c0,14.25,11.55,25.79,25.79,25.79s25.79-11.55,25.79-25.79-11.55-25.79-25.79-25.79h-6.37v-25.47h6.37c28.31,0,51.27,22.95,51.27,51.27s-22.95,51.27-51.27,51.27-51.26-22.95-51.26-51.27V0h25.47Z" fill="#103761" fill-rule="evenodd"/><path d="M347.35,128c13.6-.17,24.84-11.36,24.84-25.47s-11.41-25.47-25.15-25.47-24.81,10.92-25.15,24.84h-25.48c.34-27.84,22.88-50.31,50.62-50.31s50.63,22.81,50.63,50.95-22.5,50.77-50.31,50.95v-25.48Z" fill="#103761"/><path d="M408.11,101.89c0,.21,0,.42,0,.64,0,28.14,22.67,50.95,50.63,50.95s50.63-22.81,50.63-50.95-22.49-50.77-50.31-50.95v25.47c13.6.17,24.84,11.36,24.84,25.47s-11.41,25.47-25.15,25.47-25.15-11.25-25.15-25.47c0-.21,0-.43,0-.64h-25.48Z" fill="#103761"/><path d="M545.28,100.08c0,12.71,8.28,23.49,19.74,27.24v26.16c-25.65-4.25-45.22-26.54-45.22-53.4V27.39h25.47v23.98h19.74v25.47h-19.74v23.23Z" fill="#103761"/></svg>