<?xml version="1.0" encoding="UTF-8"?><svg id="a" xmlns="http://www.w3.org/2000/svg" width="900" height="170.89" viewBox="0 0 900 170.89"><path d="M168.42,39.96c-.02-.58-.08-1.14-.13-1.71-.01-.14-.01-.29-.04-.43-.04-.35-.09-.69-.14-1.04-.05-.36-.09-.71-.14-1.06-.04-.25-.09-.5-.14-.74-.08-.44-.15-.89-.24-1.33-.08-.35-.16-.69-.24-1.04-.07-.34-.15-.66-.23-1-.09-.35-.2-.69-.3-1.04-.09-.33-.18-.64-.28-.96-.11-.35-.24-.7-.36-1.05-.1-.3-.2-.6-.3-.9-.16-.44-.34-.86-.5-1.29-.09-.21-.16-.41-.25-.63-.2-.46-.4-.91-.61-1.36-.08-.16-.15-.34-.23-.5-.2-.43-.43-.84-.64-1.25-.1-.19-.19-.38-.29-.56-.25-.46-.53-.93-.79-1.38-.08-.13-.14-.25-.21-.38-.29-.48-.59-.94-.9-1.4-.06-.1-.13-.2-.19-.3-.38-.55-.76-1.1-1.16-1.64-.38-.5-.76-1-1.16-1.49-.03-.04-.05-.08-.09-.11C151.15,5.99,139.46.04,126.38.03v-.03l-.04.03h.01c-3.63,0-7.16.46-10.53,1.33-2.02.51-3.98,1.19-5.87,1.98-.63.26-1.25.55-1.87.84-12.43,5.98-21.45,17.9-23.44,32.06h-.03c-.88,6.07-2.74,11.81-5.4,17.1h.09c-9.24,18.32-28.22,30.9-50.16,30.9-9.79,0-18.98-2.5-26.99-6.9-.94-.51-2.08.16-2.08,1.23v5.67h-.09v84.19h84.24v-42.1h.09v-21.05c0-11.63,9.43-21.05,21.06-21.05h21.06c3.61,0,7.1-.46,10.44-1.33,2.02-.53,3.98-1.19,5.87-1.98.63-.26,1.25-.55,1.87-.84,12.88-6.21,22.12-18.79,23.64-33.64.14-1.41.21-2.85.21-4.31,0-.73-.01-1.45-.05-2.16Z"/><path d="M313.29,28.65c28.93,0,47.75,16.32,47.75,42.56,0,19.21-11.06,33.46-28.42,39.56l34,58.06h-25.21l-31.73-55.07h-35.03v55.07h-21.7V28.65h60.36-.03ZM274.63,48.17v46.28h37.63c17.26,0,26.14-9.61,26.14-23.24s-8.89-23.04-26.14-23.04h-37.63Z"/><path d="M421.87,67.59c28.94,0,47.75,21.49,47.75,48.03,0,3.1-.21,6.31-.82,9.5h-77c.93,14.88,13.65,26.54,30.8,26.54,12.41,0,22.32-5.27,29.76-16.95l15.09,10.95c-9.2,16.53-27.28,25.21-44.85,25.21-29.97,0-51.98-22.1-51.98-51.55s21.19-51.75,51.26-51.75M448.84,109.83c-1.24-13.94-12.92-23.77-27.18-23.77-15.19,0-26.77,9.81-29.35,23.77h56.53Z"/><path d="M488.62,168.83v-99.17h20.57v12.5c3.31-5.06,12.71-14.57,30.49-14.57,27.28,0,41.65,16.95,41.65,41.01v60.22h-20.46v-55.89c0-16.42-8.99-25.93-24.39-25.93s-27.38,9.5-27.38,25.93v55.89h-20.49Z"/><path d="M648,67.59c16.84,0,28.01,6.19,35.34,15.59V23.38h20.46v145.45h-20.46v-13.53c-7.34,9.4-18.5,15.59-35.34,15.59-28.21,0-49.82-21.69-49.82-52.16s21.6-51.14,49.82-51.14ZM618.66,118.73c0,18.28,12.71,33.78,31.82,33.78s32.77-15.49,32.77-33.78-13.75-32.75-32.77-32.75-31.82,14.47-31.82,32.75Z"/><path d="M772.42,67.59c28.94,0,47.76,21.49,47.76,48.03,0,3.1-.21,6.31-.83,9.5h-77c.93,14.88,13.65,26.54,30.8,26.54,12.41,0,22.33-5.27,29.76-16.95l15.09,10.95c-9.2,16.53-27.28,25.21-44.85,25.21-29.97,0-51.98-22.1-51.98-51.55s21.19-51.75,51.26-51.75M799.39,109.83c-1.24-13.94-12.92-23.77-27.18-23.77-15.19,0-26.77,9.81-29.35,23.77h56.53Z"/><path d="M839.94,168.83v-99.17h20.57v13.53c5.58-10.85,14.99-15.59,25.84-15.59,7.75,0,13.65,2.48,13.65,2.48l-2.17,18.8c-1.14-.41-5.58-2.28-12.09-2.28-10.95,0-25.21,5.78-25.21,28.21v54.03h-20.58Z"/></svg>