<?xml version="1.0" encoding="UTF-8"?><svg id="a" xmlns="http://www.w3.org/2000/svg" width="399.9" height="88.08" viewBox="0 0 399.9 88.08"><path d="M57.9,4.52C55.24.1,49.5-1.32,45.08,1.34c-1.3.79-2.39,1.88-3.18,3.18l-13.16,22.54c20.46,10.21,33.97,30.51,35.5,53.32h-9.24c-1.53-19.55-13.29-36.84-30.92-45.44l-12.18,21.06c9.9,4.44,16.85,13.61,18.46,24.34H9.14c-.84-.06-1.47-.79-1.41-1.62.01-.21.07-.41.17-.6l5.88-10c-1.99-1.66-4.27-2.95-6.72-3.8l-5.82,10c-2.53,4.33-1.06,9.89,3.27,12.42.04.02.07.04.11.06,1.38.78,2.94,1.19,4.52,1.2h29.06c1.1-13.55-4.97-26.68-16-34.62l4.62-8c13.92,9.56,21.76,25.77,20.6,42.62h24.62c1.17-25.53-11.33-49.76-32.82-63.6l9.34-16c.43-.73,1.37-.97,2.1-.54,1.06.58,40.58,69.54,41.32,70.34.41.73.15,1.66-.59,2.07-.24.13-.5.2-.77.19h-9.52c.12,2.55.12,5.09,0,7.62h9.56c5.07.03,9.21-4.05,9.24-9.12,0-.03,0-.07,0-.1,0-1.6-.43-3.18-1.24-4.56L57.9,4.52ZM248.54,56.56l-29.52-38.12h-7.36v51.1h7.46V30.38l30.36,39.16h6.52V18.44h-7.46v38.12ZM174.2,47.08h26.46v-6.64h-26.48v-15.38h29.86v-6.64h-37.46v51.12h37.84v-6.64h-30.24l.02-15.82ZM143.08,40.6h0c-10.3-2.48-13.18-4.44-13.18-9.2,0-4.28,3.78-7.18,9.42-7.18,5.14.15,10.09,1.94,14.14,5.1l4-5.66c-5.13-4.02-11.49-6.14-18-6-10.12,0-17.18,6-17.18,14.54,0,9.2,6,12.38,16.92,15.04,9.72,2.24,12.7,4.32,12.7,8.98s-4,7.54-10.18,7.54c-6.15-.03-12.07-2.35-16.6-6.52l-4.5,5.38c5.8,4.98,13.19,7.72,20.84,7.7,10.96,0,18-5.9,18-15.02-.06-7.72-4.62-11.86-16.38-14.7ZM391.3,18.44l-15.38,24-15.28-24h-8.92l20.18,30.9v20.22h7.68v-20.46l20.32-30.66h-8.6ZM262.04,25.36h16.74v44.2h7.68V25.36h16.74v-6.92h-41.14l-.02,6.92ZM338.72,49.6c7.72-2.14,12-7.54,12-15.26,0-9.82-7.18-16-18.76-16h-22.72v51.18h7.6v-18.36h12.9l12.96,18.4h8.88l-14-19.64,1.14-.32ZM316.82,44.6v-19.4h14.34c7.48,0,11.76,3.54,11.76,9.68s-4.58,9.72-11.68,9.72h-14.42Z" fill="#362d59" stroke-width="0"/></svg>