<svg id="Layer_1" data-name="Layer 1" xmlns="http://www.w3.org/2000/svg" viewBox="0 0 480 156.54"><defs><style>.cls-1{fill:#f62459;}.cls-2{fill:#595d60;}</style></defs><path class="cls-1" d="M72.26,83.48,64,91.76a4.79,4.79,0,0,1-3.89,1.36,22.9,22.9,0,0,1,2.4-45.67h45.8a16.91,16.91,0,0,1-16.91,16.9H62.22a2.37,2.37,0,0,0-1.67,4.05L72.26,80.12A2.37,2.37,0,0,1,72.26,83.48Z"/><path class="cls-1" d="M102.37,77.06a22.9,22.9,0,0,1-16.19,39.09H40.38A16.92,16.92,0,0,1,57.29,99.24H86.45a2.37,2.37,0,0,0,1.67-4L76.41,83.48a2.38,2.38,0,0,1,0-3.36l8.28-8.28a4.79,4.79,0,0,1,3.89-1.37A22.8,22.8,0,0,1,102.37,77.06Z"/><path class="cls-2" d="M156.33,81.62c-5.41-1.76-10.08-3.28-10.08-7.87,0-3.43,3.26-5.91,7.76-5.91a16,16,0,0,1,10.74,3.89,1.1,1.1,0,0,0,.92.28,1.08,1.08,0,0,0,.78-.54l2.15-3.8a1.11,1.11,0,0,0-.17-1.3c-2.42-2.52-7.51-5.2-14.52-5.2-9.1,0-15.21,5.09-15.21,12.68,0,9.58,8.09,12.2,14.59,14.3,5.18,1.68,9.65,3.13,9.65,7.31,0,5-4.71,6.79-8.73,6.79s-9.61-1.82-11.89-4.74a1.07,1.07,0,0,0-.84-.42,1.12,1.12,0,0,0-.86.38l-2.83,3.31a1.11,1.11,0,0,0-.08,1.32c2.39,3.63,9.82,6.82,15.91,6.82,10.25,0,16.87-5.36,16.87-13.66C170.49,86.23,163,83.78,156.33,81.62Z"/><path class="cls-2" d="M201,100a1.1,1.1,0,0,0-.72-.64,1.11,1.11,0,0,0-.95.18,11,11,0,0,1-6.35,2.12c-6,0-8.73-3.74-8.73-12.14V69h16.52a1.1,1.1,0,0,0,1.1-1.1V63.14a1.1,1.1,0,0,0-1.1-1.1H184.23V51a1.1,1.1,0,0,0-1.1-1.1h-5.06A1.1,1.1,0,0,0,177,51V90.3c0,12.33,4.85,18.33,14.82,18.33a17.31,17.31,0,0,0,10.52-3.36,1.12,1.12,0,0,0,.33-1.28Z"/><path class="cls-2" d="M248,66.11a34.5,34.5,0,0,0-18-4.94c-14.44,0-25.34,10.26-25.34,23.87,0,14.28,9.21,23.88,22.91,23.88a22.31,22.31,0,0,0,13.7-5.07V107a1.09,1.09,0,0,0,1.09,1.09h5.06a1.09,1.09,0,0,0,1.1-1.09V67A1.1,1.1,0,0,0,248,66.11Zm-18.12,2a23.87,23.87,0,0,1,11.37,2.76v25a18.6,18.6,0,0,1-12.92,6c-10,0-16.14-6.4-16.14-16.71C212.23,75.48,219.84,68.13,229.92,68.13Z"/><path class="cls-2" d="M282.81,100a1.1,1.1,0,0,0-.72-.64,1.11,1.11,0,0,0-.95.18,11,11,0,0,1-6.35,2.12c-6,0-8.73-3.74-8.73-12.14V69h16.52a1.1,1.1,0,0,0,1.1-1.1V63.14a1.1,1.1,0,0,0-1.1-1.1H266.06V51a1.1,1.1,0,0,0-1.1-1.1H259.9a1.1,1.1,0,0,0-1.1,1.1V90.3c0,12.33,4.85,18.33,14.82,18.33a17.31,17.31,0,0,0,10.52-3.36,1.12,1.12,0,0,0,.33-1.28Z"/><path class="cls-2" d="M309.36,61.17c-14.15,0-23.29,9.37-23.29,23.87,0,14.28,9.79,23.88,24.36,23.88,6.69,0,13-2.46,16.95-6.57a1.09,1.09,0,0,0,.22-1.19l-1.66-3.89a1.06,1.06,0,0,0-.81-.65,1.08,1.08,0,0,0-1,.31c-3,3.1-8.15,5-13.43,5-9.62,0-15.94-5.61-16.74-14.74h34.94a1.11,1.11,0,0,0,1.09-.92,25.56,25.56,0,0,0,.3-4.27C330.31,69.74,321.7,61.17,309.36,61.17Zm13.55,19.66H293.77c1.28-7.87,7-12.7,15.1-12.7S322.31,72.85,322.91,80.83Z"/><path class="cls-2" d="M354.8,40.38c-7.38,0-16.19,3.34-16.19,19.21V107a1.09,1.09,0,0,0,1.1,1.09h5.06a1.09,1.09,0,0,0,1.1-1.09V69h15.65a1.09,1.09,0,0,0,1.09-1.1V63.14a1.09,1.09,0,0,0-1.09-1.1H345.87V60.46c0-5.62,1-13.11,9.71-13.11a12.12,12.12,0,0,1,8,2.58,1.1,1.1,0,0,0,.92.22,1.11,1.11,0,0,0,.75-.58l1.95-3.9a1.1,1.1,0,0,0-.26-1.32C364,41.83,359.6,40.38,354.8,40.38Z"/><path class="cls-2" d="M408.32,62h-5.06a1.1,1.1,0,0,0-1.1,1.1V95.08c-2.71,3.36-8.05,6.87-13.7,6.87-8.6,0-12.44-4.46-12.44-14.47V63.14a1.09,1.09,0,0,0-1.09-1.1h-5.06a1.1,1.1,0,0,0-1.1,1.1V88.55c0,16.83,9.7,20.37,17.84,20.37a23.42,23.42,0,0,0,15.55-6.14V107a1.09,1.09,0,0,0,1.1,1.09h5.06a1.1,1.1,0,0,0,1.1-1.09V63.14A1.1,1.1,0,0,0,408.32,62Z"/><path class="cls-2" d="M439.56,104.28l-1.26-4a1.1,1.1,0,0,0-1.7-.56,9.86,9.86,0,0,1-5.48,1.93c-3.14,0-5.23-1.48-5.23-8.73V41.48a1.1,1.1,0,0,0-1.1-1.1h-5.06a1.1,1.1,0,0,0-1.1,1.1V95.65c0,8.61,3.58,13,10.64,13a16.59,16.59,0,0,0,9.91-3.15A1.09,1.09,0,0,0,439.56,104.28Z"/></svg>