<?xml version="1.0" encoding="UTF-8"?><svg id="a" xmlns="http://www.w3.org/2000/svg" width="900" height="183.91" viewBox="0 0 900 183.91"><g id="b"><path id="c" d="M253.65,130.31c-6.64,0-13.09-.97-19.55-3.11-6.06-2.01-11.62-5.33-16.32-9.73l8.54-14.79c4.74,3.31,9.3,5.84,13.85,7.78,4.36,1.95,8.73,2.72,12.9,2.72,3.04,0,5.5-.58,7.21-1.75,1.71-.97,2.47-2.73,2.47-4.87,0-1.95-.95-3.89-3.23-5.06-3.57-1.75-7.33-3.06-11.2-3.89l-13.28-4.48c-3.61-1.56-6.45-3.11-8.73-4.87-2.28-1.56-3.98-3.7-4.93-5.84-1.03-2.46-1.55-5.11-1.52-7.78-.11-7.66,3.17-14.96,8.92-19.85,2.66-2.34,6.07-4.09,9.87-5.45,3.8-1.36,7.97-1.95,12.34-1.95,5.88,0,11.39.78,16.51,2.34,5.12,1.75,10.06,4.67,14.8,8.95l-9.3,14.6c-3.67-2.7-7.62-4.98-11.77-6.81-3.61-1.56-6.83-2.14-10.25-2.14-2.47,0-4.74.39-6.45,1.56-1.9.97-2.66,2.72-2.66,5.06s.95,3.89,2.85,5.06c1.9,1.17,5.69,2.34,10.82,3.7,4.76,1.23,9.44,2.72,14.04,4.48,3.79,1.56,6.83,3.31,9.3,5.06,4.67,3.52,7.24,9.25,6.83,15.18,0,7.98-2.85,14.21-8.73,18.88-5.69,4.67-13.28,7.01-23.34,7.01ZM347.58,124.66c-3.23,1.36-7.02,2.72-11.2,3.89-4.17,1.17-8.35,1.95-12.71,1.95-3.04,0-5.69-.39-8.35-1.17-2.58-.77-4.98-2.1-7.02-3.89-1.9-1.56-3.42-3.89-4.56-6.42-1.14-2.72-1.9-6.03-1.9-9.93v-41.84h-9.87v-18.29h10.06v-25.49h23.53v25.3h15.94v18.49h-15.94v33.47c0,2.53.57,4.48,1.9,5.84,1.33.97,3.04,1.56,4.93,1.56s3.79-.19,5.5-.97c1.9-.58,3.61-1.17,4.93-1.95l4.55,19.46h.19ZM391.99,130.31c-6.04.11-12.04-1.02-17.65-3.31-9.88-4.01-17.61-12.15-21.25-22.38-3.73-10.16-3.73-21.37,0-31.53,3.64-10.23,11.38-18.37,21.25-22.38,5.12-2.14,11.01-3.31,17.65-3.31,11.55-.56,22.77,4.06,30.74,12.65,3.61,3.7,6.26,8.17,8.16,13.04,3.88,10.2,3.88,21.52,0,31.72-3.67,10.1-11.31,18.16-21.06,22.19-5.67,2.32-11.74,3.44-17.84,3.31ZM374.91,89.05c0,6.23,1.52,11.29,4.74,14.99,3.42,3.89,7.59,5.84,12.52,5.84,4.77.09,9.31-2.06,12.33-5.84,1.52-1.95,2.66-3.89,3.61-6.62.95-2.53,1.33-5.45,1.33-8.37,0-6.42-1.71-11.48-4.93-15.18-3.23-3.89-7.4-5.84-12.33-5.84-4.75-.01-9.26,2.12-12.34,5.84-1.52,1.95-2.85,3.89-3.8,6.62-.86,2.77-1.24,5.66-1.14,8.56ZM495.03,69.78c-5.69,0-11.01.97-15.75,2.92-4.18,1.44-7.73,4.33-10.06,8.17v48.07h-23.72V48.96h21.82v15.96c2.66-5.45,6.07-9.73,10.44-12.65,4.17-3.11,8.54-4.67,13.28-4.87h2.47l1.52.19v22.19ZM505.47,140.82c3.3,1.18,6.76,1.83,10.25,1.95,2.85,0,5.12-.97,6.83-2.92,1.52-1.95,2.85-5.84,4.17-10.9l-29.6-79.99h24.48l18.03,58.97,15.75-58.97h22.2l-29.79,92.83c-4.67,15.77-20.34,25.24-36.06,21.8-1.9-.39-4.17-.97-6.26-1.95v-20.82ZM633.76,130.31c-5.88,0-11.2-1.17-15.56-3.89-4.43-2.5-8.11-6.2-10.63-10.7v13.23h-20.69V17.63h23.91v44.37c5.19-9.32,14.97-14.93,25.43-14.6,4.93,0,9.49.97,13.66,3.31,4.17,1.95,7.59,5.06,10.82,8.76,9.34,13.29,11.88,30.38,6.83,45.93-1.9,5.06-4.55,9.54-7.78,13.23-6.66,7.49-16.11,11.73-26,11.68ZM627.11,109.87c7.7.02,14.57-4.99,17.08-12.46,2.78-7.84,1.42-16.6-3.61-23.16-2.97-4.01-7.62-6.32-12.52-6.23-3.61,0-7.02,1.36-10.25,3.89-3.04,2.72-5.5,6.03-7.21,10.12v16.74c3.06,6.62,9.55,10.86,16.7,10.9l-.19.19ZM681.77,17.63h23.72v82.71c0,6.23,2.47,9.15,7.59,9.15,2.71,0,5.38-.66,7.78-1.95l3.23,18.1c-6.65,2.98-13.81,4.57-21.06,4.67-6.83,0-12.15-1.95-15.75-5.45-3.8-3.89-5.69-8.95-5.69-15.96V17.63h.19ZM768.87,130.31c-6.04.11-12.04-1.02-17.65-3.31-9.93-3.98-17.74-12.13-21.44-22.38-5.49-15.3-2.43-32.44,7.97-44.76,3.8-3.89,7.97-6.81,13.28-9.15,5.12-2.14,11.01-3.31,17.65-3.31,11.55-.56,22.77,4.06,30.74,12.65,3.79,3.7,6.26,8.17,8.16,13.04,5.7,15.28,2.63,32.54-7.97,44.76-3.61,3.89-7.97,7.01-13.28,9.15-5.61,2.29-11.61,3.42-17.65,3.31h.19ZM751.6,89.05c0,6.23,1.52,11.29,4.74,14.99,3.42,3.89,7.59,5.84,12.52,5.84,4.76.07,9.29-2.08,12.33-5.84,1.52-1.95,2.66-3.89,3.61-6.62.95-2.53,1.33-5.45,1.33-8.37,0-6.42-1.71-11.48-4.93-15.18-3.23-3.89-7.4-5.84-12.33-5.84-4.75-.01-9.26,2.12-12.34,5.84-1.52,1.95-2.85,3.89-3.8,6.62-.95,2.72-1.14,5.45-1.14,8.56ZM874.77,128.95l-20.31-32.31-8.35,8.95v23.35h-23.72V17.63h23.72v64.42l26.38-33.08h25.24l-28.09,34.45,30.36,45.54h-25.23Z" fill="#1f1f1f"/><path id="d" d="M0,14.95C0,6.69,6.69,0,14.95,0h134.55c8.26,0,14.95,6.69,14.95,14.95v134.55c0,8.26-6.69,14.95-14.95,14.95H62.31l-22.33,18.44c-2.9,2.39-7.27.33-7.27-3.43v-15.01H14.95c-8.26,0-14.95-6.69-14.95-14.95V14.95ZM32.7,27.17h71.87c15.52,0,28.1,12.58,28.1,28.1,0,12.44-8.08,22.99-19.28,26.69,13.09,2.39,23.02,13.86,23.02,27.65,0,15.52-12.58,28.1-28.1,28.1H32.7v-54.34h0V27.17ZM92.47,52.46h-33.61v16.86h33.61c4.66,0,8.43-3.77,8.43-8.43s-3.77-8.43-8.43-8.43ZM58.86,89.93h36.41c5.17,0,9.37,4.19,9.37,9.37s-4.2,9.37-9.37,9.37h-36.41v-18.74Z" fill="#1f1f1f" fill-rule="evenodd"/></g></svg>