<svg class="overflow-visible" viewBox="0 0 109 21" fill="none" xmlns="http://www.w3.org/2000/svg"><g transform-origin="21.922627985477448px 10.317114785313606px" style="transform: none; transform-origin: 21.9226px 10.3171px;"><path d="M7.30976 16.7002C7.8212 16.7103 8.33201 16.6593 8.83132 16.5479C9.17175 16.4682 9.49427 16.3255 9.78229 16.1272C10.0085 15.9723 10.1839 15.754 10.2863 15.4995C10.3876 15.2381 10.4392 14.9598 10.4385 14.6794C10.4349 14.3622 10.3511 14.0511 10.1947 13.775C10.0384 13.499 9.81475 13.2669 9.54454 13.1007C8.9486 12.6887 7.92393 12.241 6.47052 11.7575C5.83655 11.534 5.20255 11.2773 4.56857 10.9873C3.94972 10.7091 3.3747 10.3422 2.86158 9.89835C2.35349 9.45171 1.93687 8.91072 1.6348 8.30546C1.29954 7.59497 1.13661 6.81549 1.15933 6.03022C1.14589 5.19789 1.31723 4.37293 1.66097 3.61476C1.99253 2.90492 2.48014 2.27913 3.08743 1.78412C3.75077 1.2564 4.51068 0.863135 5.3246 0.626304C6.28602 0.34289 7.28464 0.205845 8.28689 0.219767C9.42789 0.199047 10.5661 0.339926 11.6676 0.638199C12.4796 0.863918 13.2659 1.17304 14.0141 1.56064L12.7565 4.99605C12.177 4.70076 11.5743 4.45347 10.9545 4.25667C10.1832 4.02781 9.38122 3.91955 8.57693 3.93571C7.53245 3.93571 6.78276 4.07995 6.32788 4.36839C6.10473 4.50725 5.92331 4.70383 5.80275 4.93738C5.68223 5.17092 5.62708 5.4327 5.64318 5.69502C5.6278 6.01334 5.71262 6.32845 5.88568 6.59607C6.07625 6.86107 6.31895 7.08437 6.5989 7.25222C6.93471 7.46293 7.28976 7.64116 7.65923 7.78474C8.06023 7.94335 8.50322 8.10567 8.98823 8.27213C9.99467 8.64469 10.8704 9.01225 11.6153 9.37523C12.2966 9.69355 12.9221 10.1199 13.4672 10.6376C13.9579 11.1158 14.3355 11.6974 14.5727 12.3399C14.8324 13.1051 14.9555 13.9097 14.9366 14.7173C14.9366 16.5242 14.3026 17.9253 13.0345 18.9206C11.7667 19.9161 9.85837 20.4146 7.30976 20.4161C6.53436 20.4213 5.75961 20.3697 4.99175 20.2616C4.37416 20.1745 3.76273 20.0481 3.16113 19.8836C2.69429 19.7566 2.23675 19.5978 1.79172 19.408C1.41133 19.2394 1.0785 19.0823 0.828857 18.9326L2.05801 15.4686C2.73957 15.827 3.45668 16.1128 4.19768 16.3222C5.21207 16.5941 6.25977 16.7214 7.30976 16.7002Z" fill="currentColor"/><path d="M32.8078 0.504883V4.33495H26.9354V20.1639H22.5942V4.33495H16.4675V0.504883H32.8078Z" fill="currentColor"/><path d="M43.0164 6.20798L40.639 10.5136C39.467 8.46901 36.1219 2.60854 35.0496 0.490234H40.0899L43.0164 6.20798Z" fill="currentColor"/></g><g transform-origin="75.36165237426758px 10.351672947406769px" style="transform: none; transform-origin: 75.3617px 10.3517px;"><path d="M41.8943 12.6264V20.144H46.2163V12.6264C47.4813 10.6341 52.5927 1.45487 53.0683 0.503906H48.0423C47.2577 1.8947 41.8943 12.6264 41.8943 12.6264Z" fill="currentColor"/><path d="M71.7668 0.504883V4.33495H65.9064V20.1639H61.5532V4.33495H55.4265V0.504883H71.7668Z" fill="currentColor"/><path d="M82.9195 20.4301C79.8717 20.4301 77.5504 19.5584 75.956 17.8149C74.3616 16.0715 73.5635 13.5879 73.562 10.364C73.5374 8.90466 73.7849 7.45339 74.2919 6.08469C74.7352 4.89966 75.4165 3.81791 76.2937 2.90605C77.1473 2.03773 78.1814 1.36737 79.3224 0.94229C80.5388 0.488127 81.8282 0.260883 83.1263 0.271864C83.8516 0.266788 84.5756 0.327248 85.2898 0.452549C85.8661 0.557326 86.4352 0.69707 86.9945 0.870979C87.4152 1.00266 87.8246 1.16803 88.2189 1.36547C88.5447 1.53191 88.7776 1.66265 88.932 1.75538L87.7148 5.26685C87.0742 4.92664 86.3992 4.65566 85.7012 4.45853C84.8497 4.22344 83.9693 4.11058 83.086 4.12331C82.4374 4.12413 81.7938 4.23756 81.1839 4.45853C80.5591 4.68562 79.9945 5.05329 79.5342 5.53312C79.0226 6.07996 78.6315 6.72786 78.3858 7.43507C78.0753 8.35322 77.9289 9.31906 77.953 10.288C77.9448 11.1257 78.0365 11.9612 78.2265 12.7772C78.3929 13.4975 78.7062 14.1757 79.1466 14.7695C79.5854 15.3396 80.1566 15.7941 80.8107 16.0937C81.5931 16.4393 82.4426 16.6057 83.2976 16.5811C83.8497 16.585 84.4011 16.5475 84.9475 16.4693C85.385 16.4064 85.8186 16.3175 86.2456 16.2031C86.5873 16.1168 86.9217 16.0046 87.2466 15.8678C87.535 15.7364 87.7965 15.615 88.0311 15.5041L89.2055 18.9799C88.4183 19.4305 87.5714 19.7682 86.6901 19.9832C85.4589 20.2998 84.1908 20.4501 82.9195 20.4301Z" fill="currentColor"/><path d="M104.233 0.533203H108.829V20.1994H104.233V11.7713H96.8277V20.1994H92.4841V0.533203H96.8277V7.93888H104.233V0.533203Z" fill="currentColor"/></g></svg>