<svg aria-label="tbd-logo" viewBox="0 0 160 70" fill="currentColor" xmlns="http://www.w3.org/2000/svg" class="h-[42px] w-[96px] fill-primary-black dark:fill-primary-yellow desktop:h-[70px] desktop:w-[160px]"><path d="M10 10h10v10H10zM50 10h10v10H50zM160 10h-10v10h10zM50 0h10v10H50zM160 0h-10v10h10zM10 20h10v10H10zM50 20h10v10H50zM160 20h-10v10h10zM10 30h10v10H10zM50 30h10v10H50zM160 30h-10v10h10zM90 30h10v10H90zM120 30h-10v10h10zM10 40h10v10H10zM50 40h10v10H50zM160 40h-10v10h10zM90 40h10v10H90zM120 40h-10v10h10zM10 50h10v10H10zM50 50h10v10H50zM160 50h-10v10h10zM90 50h10v10H90zM120 50h-10v10h10zM20 60h10v10H20zM60 60h10v10H60zM150 60h-10v10h10zM60 20h10v10H60zM150 20h-10v10h10zM30 60h10v10H30zM70 60h10v10H70zM140 60h-10v10h10zM70 20h10v10H70zM140 20h-10v10h10zM80 60h10v10H80zM130 60h-10v10h10zM80 20h10v10H80zM130 20h-10v10h10zM20 20h10v10H20zM30 20h10v10H30zM0 20h10v10H0z"/></svg>