<svg xmlns="http://www.w3.org/2000/svg" width="900" height="270.81" viewBox="0 0 900 270.81"><path d="M130,101.6a28,28,0,1,1-28-28A28.12,28.12,0,0,1,130,101.6Zm-28,38.82a28,28,0,1,0,28,28A28.12,28.12,0,0,0,102,140.42ZM270.81,135A135.41,135.41,0,1,1,135.41-.41,135.23,135.23,0,0,1,270.81,135Zm-36.11,0a99.3,99.3,0,1,0-99.29,99.3A99,99,0,0,0,234.7,135Zm-65.89,5.42a28,28,0,1,0,28,28A28.12,28.12,0,0,0,168.81,140.42Zm0-66.8a28,28,0,1,0,28,28A28.12,28.12,0,0,0,168.81,73.62ZM634.6,52.85c.91,0,1.81.91,2.71,1.81V83.55a2.87,2.87,0,0,1-2.71,2.7H586.76a2.88,2.88,0,0,1-2.71-2.7v-28a2.89,2.89,0,0,1,2.71-2.71Zm-.9,40.63H541.62a2.87,2.87,0,0,0-2.7,2.7l-11.74,45.14-.9,2.71L511.84,96.18a4.07,4.07,0,0,0-2.71-2.7H473a2.88,2.88,0,0,0-2.71,2.7l-13.54,45.14-.9,2.71-.91-2.71-5.41-22.57-5.42-22.57a4.05,4.05,0,0,0-2.71-2.7H369.21V54.66a2.67,2.67,0,0,0-3.61-1.81L320.46,67.3A2.4,2.4,0,0,0,317.75,70V94.38H306a2.88,2.88,0,0,0-2.71,2.71v34.3A2.88,2.88,0,0,0,306,134.1h11.73v42.42c0,29.79,16.25,43.33,46,43.33,12.64,0,24.37-2.7,32.5-7.22V176.52c0-1.8-1.81-2.7-2.71-1.8a35.56,35.56,0,0,1-12.64,2.71c-8.12,0-12.64-3.61-12.64-12.64V134.1h26.18a2.89,2.89,0,0,0,2.71-2.71V102.5l34.3,113.74A4.07,4.07,0,0,0,434.2,219h37.92a2.88,2.88,0,0,0,2.7-2.71l16.25-50.55,8.13,26.18,7.22,24.37a4,4,0,0,0,2.71,2.71H547a2.88,2.88,0,0,0,2.71-2.71l34.3-113.74V216.24a2.88,2.88,0,0,0,2.71,2.71h46a2.88,2.88,0,0,0,2.71-2.71V96.18C635.51,95.28,634.6,93.48,633.7,93.48Zm60.48-40.63h-46a2.88,2.88,0,0,0-2.7,2.71V215.34a2.88,2.88,0,0,0,2.7,2.71h46a2.88,2.88,0,0,0,2.71-2.71V54.66C696.89,53.76,696,52.85,694.18,52.85Zm61.39,0H707.72A2.89,2.89,0,0,0,705,55.56v28a2.88,2.88,0,0,0,2.71,2.7h47.85a2.87,2.87,0,0,0,2.7-2.7V54.66C758.27,53.76,757.37,52.85,755.57,52.85Zm-.91,40.63h-46a2.87,2.87,0,0,0-2.71,2.7V214.44a2.88,2.88,0,0,0,2.71,2.71h46a2.89,2.89,0,0,0,2.71-2.71V96.18A2.88,2.88,0,0,0,754.66,93.48ZM900,154.86c0,34.3-28.89,64.09-69.51,64.09-39.72,0-68.6-29.79-68.6-64.09s28.88-64.09,69.5-64.09C871.11,90.77,900,120.56,900,154.86Zm-48.75.9c0-12.64-9-22.57-19.86-21.66-11.73,0-19.86,9.93-19.86,21.66s9,21.67,19.86,21.67C843.13,177.43,851.25,167.5,851.25,155.76Z" transform="translate(0 0.41)" fill="#f22f46"/></svg>