<?xml version="1.0" encoding="UTF-8"?><svg id="a" xmlns="http://www.w3.org/2000/svg" width="900" height="312.28" viewBox="0 0 900 312.28"><path d="M121.49,271.05c42.54,0,75.44-32.9,75.44-81.58V0h46.05v307.02h-45.61v-28.51c-20.62,21.49-49.12,33.77-81.14,33.77C50.44,312.28,0,264.48,0,192.11V0h46.05v189.48c0,49.56,32.45,81.58,75.44,81.58"/><path d="M277.19,0h44.3v111.84c20.18-20.62,48.25-33.33,79.39-33.33,65.79,0,117.54,52.19,117.54,117.11s-51.76,116.67-117.54,116.67c-31.14,0-59.65-12.72-79.83-33.33v28.07h-43.86V0ZM397.81,273.25c42.11,0,76.75-34.65,76.75-77.63s-34.65-77.63-76.75-77.63-77.19,34.21-77.19,77.63,34.21,77.63,77.19,77.63"/><path d="M650.88,78.95c64.47,0,111.84,49.56,111.84,116.23v14.47h-182.02c6.14,36.4,36.4,63.6,74.12,63.6,25.88,0,47.81-10.53,64.47-32.9l32.02,23.69c-22.37,29.82-55.7,47.81-96.49,47.81-67.11,0-118.86-50-118.86-116.67,0-63.16,49.56-116.23,114.91-116.23M581.58,174.56h136.4c-7.46-34.21-35.09-57.02-67.98-57.02s-60.52,22.81-68.42,57.02"/><path d="M881.58,122.81c-28.95,0-50,22.37-50,57.02v127.19h-44.3V83.33h43.86v27.63c10.97-17.98,28.95-29.39,53.51-29.39h15.35v41.23h-18.42Z"/></svg>