<?xml version="1.0" encoding="UTF-8"?><svg id="a" xmlns="http://www.w3.org/2000/svg" width="900" height="453.71" viewBox="0 0 900 453.71"><rect width="900" height="453.71" fill="#fdb728"/><path d="M157.37,234.55l-44.87-122.27h35.16l28.68,82.81,27.52-82.81h35.38l-45.11,122.27h-36.78,0Z" fill="#192f3a"/><path d="M304.25,109.98c7.86,0,14.34,1.26,19.42,3.81s8.99,5.27,11.68,8.19c2.7,2.92,4.35,4.92,4.98,6h1.84v-15.69h35.16v122.26h-35.16v-15.69h-1.84c-.62,1.08-2.28,3.08-4.98,6s-6.58,5.66-11.68,8.19c-5.08,2.54-11.57,3.81-19.42,3.81-9.11,0-17-1.82-23.71-5.42-6.71-3.62-12.3-8.46-16.77-14.54-4.47-6.08-7.83-12.88-10.07-20.42-2.24-7.53-3.36-15.23-3.36-23.07s1.11-15.52,3.36-23.07c2.24-7.53,5.58-14.34,10.07-20.42,4.47-6.08,10.07-10.92,16.77-14.54,6.71-3.62,14.61-5.42,23.71-5.42h0ZM314.43,138.36c-6.33,0-11.61,1.73-15.84,5.19-4.25,3.46-7.39,7.89-9.48,13.26-2.08,5.38-3.12,10.92-3.12,16.6s1.04,11.23,3.12,16.6c2.08,5.38,5.24,9.81,9.48,13.26,4.25,3.46,9.53,5.19,15.84,5.19s11.59-1.72,15.84-5.19c4.25-3.46,7.39-7.88,9.48-13.26,2.08-5.38,3.12-10.92,3.12-16.6s-1.04-11.22-3.12-16.6-5.25-9.81-9.48-13.26c-4.25-3.46-9.53-5.19-15.84-5.19Z" fill="#192f3a"/><path d="M404.85,234.55v-122.27h35.16v17.54h1.15c1.39-2.46,3.44-5.22,6.13-8.31,2.7-3.08,6.31-5.76,10.88-8.07,4.54-2.31,10.37-3.46,17.46-3.46,9.55,0,17.34,2.19,23.36,6.57s10.41,10,13.19,16.84,4.17,14.04,4.17,21.57v79.59h-35.16v-73.59c0-5.85-1.59-11-4.74-15.45-3.16-4.46-8.21-6.69-15.15-6.69-5.25,0-9.4,1.23-12.49,3.69s-5.32,5.61-6.71,9.45c-1.39,3.85-2.09,7.92-2.09,12.23v70.36h-35.16Z" fill="#192f3a"/><path d="M605.16,261.69c0,15.17-2.67,27.81-8.01,37.93s-11.85,18.27-19.53,24.45c-7.68,6.18-15.87,10.59-24.59,13.2s-16.53,3.93-23.46,3.93c-12.73,0-24.87-3-36.39-8.99s-21.12-13.95-28.8-23.88l28.65-28.38c3.75,6,8.61,10.68,14.61,14.05,5.98,3.38,12.18,5.05,18.54,5.05,4.3,0,8.52-.79,12.64-2.38s7.81-3.88,11.1-6.88c3.27-3,5.89-6.64,7.88-10.95,1.96-4.3,2.96-9.27,2.96-14.89V112.52h44.38v149.19h.02Z" fill="#fff"/><path d="M787.5,277.98c0,8.43-1.83,16.44-5.48,24.01-3.64,7.59-8.76,14.28-15.31,20.08-6.55,5.8-14.32,10.44-23.32,13.91-8.98,3.46-18.91,5.21-29.78,5.21-9.73,0-18.49-.55-26.27-1.68-7.77-1.12-15.07-2.89-21.91-5.34-6.84-2.43-13.39-5.57-19.66-9.41-6.29-3.84-12.78-8.47-19.53-13.91l30.9-31.18c8.98,7.5,17.79,12.78,26.41,15.87,8.61,3.09,17.98,4.63,28.1,4.63,4.12,0,8.01-.6,11.65-1.83,3.64-1.21,6.84-2.85,9.55-4.92,2.71-2.05,4.88-4.5,6.46-7.3s2.38-5.89,2.38-9.27c0-3.55-.66-6.75-1.96-9.55s-3.64-5.52-7.02-8.14-8.05-5.29-14.05-8.01-13.68-5.76-23.04-9.13c-8.25-3-16.15-6.42-23.74-10.26s-14.23-8.47-19.95-13.91c-5.71-5.43-10.3-11.8-13.77-19.11-3.46-7.31-5.19-15.92-5.19-25.84s1.92-18.36,5.76-26.42,9.07-14.94,15.73-20.66c6.64-5.71,14.41-10.15,23.32-13.35,8.89-3.18,18.49-4.77,28.8-4.77,17.23,0,31.76,2.25,43.54,6.75,11.8,4.5,22.29,11.06,31.47,19.67l-30.35,30.63c-5.62-5.43-11.89-9.6-18.82-12.51-6.93-2.9-15.07-4.35-24.45-4.35-4.3,0-8.29.66-11.94,1.96-3.66,1.31-6.79,3.04-9.42,5.21s-4.72,4.68-6.31,7.59c-1.59,2.91-2.38,5.96-2.38,9.14,0,3.56.75,6.79,2.25,9.69,1.5,2.91,4.02,5.71,7.59,8.43,3.55,2.71,8.29,5.43,14.19,8.14s13.24,5.67,22.05,8.85c11.23,3.93,20.88,8.25,28.94,12.93s14.61,9.84,19.67,15.45c5.05,5.62,8.8,11.94,11.23,18.96s3.66,14.94,3.66,23.75h0Z" fill="#fff"/></svg>