<?xml version="1.0" encoding="UTF-8"?><svg id="a" xmlns="http://www.w3.org/2000/svg" width="900" height="252.63" viewBox="0 0 900 252.63"><path d="M26.94,3.64c23.99-11.64,52.87-1.63,64.51,22.35l33.78,69.59,34.32-69.81C171.31,1.84,200.25-8.02,224.18,3.75c23.93,11.76,33.79,40.7,22.02,64.63l-77.93,158.5c-8.14,16.56-25,27.02-43.45,26.98-18.45-.05-35.26-10.6-43.31-27.2L4.58,68.15C-7.06,44.16,2.95,15.28,26.94,3.64ZM372.02-1.21c18.45.05,35.26,10.6,43.31,27.2l76.93,158.5c7.26,14.96,6.31,32.61-2.52,46.7-8.83,14.09-24.29,22.65-40.92,22.65h-154.86c-16.67,0-32.17-8.61-40.98-22.76-8.81-14.15-9.7-31.86-2.34-46.82L328.57,25.77c8.14-16.55,25-27.02,43.45-26.98ZM548.11,47.07c0-26.66,21.62-48.28,48.28-48.28h68.32c1.34,0,2.68.06,4.02.17l19.2,1.6c5.77.48,15.97,1.86,26.71,7.54,55.92,29.56,55.92,110.33,0,139.89-10.74,5.68-20.95,7.05-26.71,7.54l-19.2,1.6c-1.34.11-2.68.17-4.02.17h-20.04v48.28c0,26.66-21.62,48.28-48.28,48.28s-48.28-21.62-48.28-48.28V47.07ZM851.45-1.21c26.66,0,48.28,21.62,48.28,48.28v158.5c0,26.66-21.62,48.28-48.28,48.28s-48.28-21.62-48.28-48.28V47.07c0-26.66,21.62-48.28,48.28-48.28ZM371.5,157.29h.22l-.11-.23-.11.23Z" fill-rule="evenodd"/></svg>