<?xml version="1.0" encoding="UTF-8"?>
<svg id="Layer_1" xmlns="http://www.w3.org/2000/svg" viewBox="0 0 900 900">
  <defs>
    <style>
      .cls-1 {
        fill: #4747eb;
      }
    </style>
  </defs>
  <path class="cls-1" d="M152.12,295.63c-71.3,0-129.12,57.8-129.12,129.12s57.82,129.13,129.12,129.13c27.6,0,53.17-8.65,74.16-23.41,11.88-8.35,22.31-18.65,30.77-30.45,15.24-21.18,24.21-47.19,24.21-75.27,0-71.32-57.82-129.12-129.14-129.12ZM225.43,477.63c-5.94,8.27-13.26,15.51-21.6,21.37-14.73,10.35-32.68,16.42-52.05,16.42-50.05,0-90.63-40.57-90.63-90.63s40.58-90.63,90.63-90.63,90.64,40.58,90.64,90.63c0,19.71-6.3,37.97-16.99,52.84Z"/>
  <path class="cls-1" d="M360.83,770.35c0,71.32,57.82,129.12,129.12,129.12s129.12-57.8,129.12-129.12c0-46.52-24.59-87.3-61.49-110.02-12.18-7.52-25.73-13.05-40.15-16.18-8.85-1.92-18.04-2.93-27.48-2.93-28.25,0-54.38,9.07-75.64,24.47-11.78,8.52-22.05,18.98-30.34,30.9-14.58,20.91-23.14,46.34-23.14,73.75Z"/>
  <path class="cls-1" d="M748.2.53c-71.3,0-129.12,57.82-129.12,129.12,0,45.73,23.77,85.9,59.63,108.84,12.06,7.71,25.5,13.49,39.86,16.87,9.52,2.23,19.44,3.41,29.63,3.41,71.32,0,129.13-57.8,129.13-129.12S819.52.53,748.2.53ZM822.06,182.07c-5.94,8.28-13.26,15.51-21.61,21.37-14.72,10.36-32.67,16.43-52.04,16.43-50.05,0-90.63-40.57-90.63-90.63s40.58-90.63,90.63-90.63,90.64,40.57,90.64,90.63c0,19.71-6.3,37.96-16.99,52.83Z"/>
  <path class="cls-1" d="M517.43,644.16c14.43,3.13,27.97,8.66,40.15,16.18l160.99-404.97c-14.37-3.38-27.8-9.16-39.86-16.88l-161.28,405.67Z"/>
  <path class="cls-1" d="M225.93,530.52l158.04,166.08c8.29-11.92,18.57-22.38,30.34-30.9l-157.61-165.63c-8.46,11.79-18.89,22.1-30.78,30.45Z"/>
</svg>