<?xml version="1.0" encoding="UTF-8"?><svg id="a" xmlns="http://www.w3.org/2000/svg" width="900" height="205.06" viewBox="0 0 900 205.06"><path d="M121.34,0h89.21c14.43,0,26.15,12.06,26.15,26.94v104.58c0,14.88-11.71,26.94-26.15,26.94h-127.66L121.34,0Z"/><path d="M97.78,30.34H25.93C11.61,30.34,0,42.39,0,57.27v104.59c0,14.88,11.61,26.94,25.92,26.94h88.45l3.54-14.74h-54.71L97.78,30.34ZM343.42,158.72l-39.33-128.35h22.22l27.83,98.04,30.14-98.04h20.94l30.13,98.04,27.58-98.04h22.73l-39.59,128.35h-21.19l-30.13-97.53-30.14,97.53h-21.19ZM583.64,75.2c0-17.58-12.52-28.78-31.42-28.78-17.61,0-30.13,10.44-31.92,27.75l-20.16-3.82c3.83-25.46,25.02-42.02,52.09-42.02,31.16,0,52.87,18.33,52.87,48.12v82.25h-21.45v-21.9c-7.41,14.76-24.27,23.94-42.9,23.94-25.79,0-43.42-15.79-43.42-37.95,0-24.7,20.18-38.2,61.29-42.27l25.03-2.8v-2.54ZM519.03,122.56c0,11.96,10.22,20.37,25.03,20.37,25.03,0,39.59-16.55,39.59-42.27v-6.12l-25.03,2.8c-26.05,2.8-39.59,11.71-39.59,25.21ZM751.22,73.93l-21.7,4.07c-1.03-19.09-13.02-30.04-32.43-30.04-23.75,0-39.08,21.38-39.08,55.77v55h-21.7V30.37h21.7v25.22c9.46-18.34,25.28-27.25,44.18-27.25,28.61,0,48.02,17.83,49.03,45.58ZM774.35,205.06V30.37h21.71v18.59c6.89-11.71,23.74-20.62,42.39-20.62,39.58,0,61.54,28.52,61.54,66.2s-22.47,66.2-62.05,66.2c-16.35,0-33.2-8.15-41.88-19.86v64.17h-21.71ZM835.91,141.4c25.53,0,42.13-18.59,42.13-46.86s-16.6-46.86-42.13-46.86-41.63,18.59-41.63,46.86,16.6,46.86,41.63,46.86Z"/></svg>