<?xml version="1.0" encoding="UTF-8"?><svg id="a" xmlns="http://www.w3.org/2000/svg" width="900" height="228.82" viewBox="0 0 900 228.82"><path d="M373.86,1.62c3.33-.15,5.11-.26,6.89-.29,2.08-.04,4.17,0,7.18,0,3.39,10.26,6.76,20.41,10.11,30.57,3.37,10.2,6.72,20.41,10.64,32.34,7.03-16.78,13.41-32.02,19.97-47.7h12.38c6.13,14.95,12.43,30.31,19.48,47.52,7.55-21.81,14.47-41.8,21.53-62.17h13.78c-9.21,28.39-19.8,55.9-29.48,84.09h-9.68c-7.15-16.6-14.36-33.36-22.32-51.85-7.82,18.34-14.95,35.09-22.15,51.98h-9.74c-9.45-27.92-18.85-55.69-28.6-84.48" fill="#233427"/><path d="M557.43,75.11c18.39.18,32.68-13.3,32.81-30.96.13-17.67-14.01-31.26-32.49-31.22-18.33.04-31.85,12.87-32.09,30.45-.25,18.11,13.21,31.54,31.77,31.72M603.41,44.36c-.13,24.94-19.51,43.49-45.49,43.52-26.4.03-45.94-18.91-45.68-44.28C512.49,18.54,531.79.07,557.77,0c26.21-.06,45.77,18.95,45.64,44.36" fill="#233427"/><path d="M643.03,41.98c9.99,0,19.26.4,28.47-.13,7.66-.44,12.41-5.63,12.92-12.61.51-6.89-3.52-12.99-10.98-14.36-9.97-1.83-20.1-1.01-30.42-.45v27.54ZM681.02,53.61c6.98,10.83,13.58,21.08,21.21,32.93-4.75,0-7.9-.21-11,.05-3.8.32-6.1-1.33-8.02-4.47-4.53-7.42-9.48-14.59-13.92-22.07-2.27-3.82-5.09-5.37-9.5-5.12-5.32.3-10.66.07-16.88.07v30.79h-12.06c-1.77-6.28-2.37-70.16-.67-83.8,2.14-.21,4.43-.63,6.72-.64,10.8-.07,21.6-.12,32.4,0,13.79.15,24.21,7.24,27.76,18.67,3.82,12.33-.57,22.87-13.06,31.39-.73.5-1.43,1.05-2.98,2.2" fill="#233427"/><path d="M898.27,15.95c-2.83,2.7-5.59,5.34-8.51,8.13-2.66-2.39-4.56-4.29-6.66-5.95-8.22-6.5-17.43-7.56-27.22-4.51-4.89,1.52-8.67,4.31-8.96,9.99-.25,4.72,2.35,8.22,8.34,10.38,4.21,1.52,8.69,2.28,13.02,3.5,6.34,1.79,12.99,2.93,18.89,5.69,14.81,6.92,17.16,24.45,5.23,35.71-4.98,4.7-11.1,7.16-17.75,8.17-17.71,2.69-33.3-.91-45.75-15.7,2.97-3.57,5.56-6.69,8.54-10.28,2.51,2.42,4.42,4.24,6.3,6.09,8.24,8.1,18.27,9.91,29.19,8.03,2.6-.45,5.26-1.45,7.54-2.8,7.95-4.73,7.81-13.76-.58-17.56-5.12-2.32-10.95-3-16.37-4.72-6.82-2.16-14.1-3.66-20.2-7.16-12.74-7.31-13.73-24.78-2.68-34.51,14.03-12.35,41.89-10.92,54.54,2.85.97,1.06,1.62,2.41,3.09,4.66" fill="#233427"/><path d="M769.72,36.41c12.88,16.4,25.41,32.35,38.81,49.42-3.93.28-6.47.33-8.98.67-5.31.72-8.88-1.3-12.06-5.7-7.22-9.97-14.97-19.55-22.54-29.27-1.45-1.86-3.06-3.59-5.25-6.15-5.38,4.72-10.69,8.98-15.46,13.79-1.41,1.42-1.71,4.35-1.78,6.6-.23,6.54-.08,13.09-.08,20.15h-12.5V1.83h12.16c.11,6.57.27,13.32.32,20.08.06,6.83.01,13.67.01,21.89,2.71-1.86,4.43-2.8,5.86-4.07,11.22-9.99,22.9-19.52,33.38-30.24,7.36-7.53,15.19-9.82,26.42-7.18-13.01,11.57-25.4,22.6-38.33,34.1" fill="#233427"/><path d="M433.26,146.48c4.15,0,7.93.12,11.71-.03,4.16-.17,6.54-2.28,6.81-5.71.27-3.32-1.96-6.22-5.92-6.62-4.07-.41-8.21-.09-12.6-.09v12.46ZM459.54,166.22c-5.14,1.56-8.07-.05-9.92-4.11-.57-1.25-1.68-2.27-2.18-3.53-2.66-6.82-7.89-7.16-14.46-5.65v13.51h-5.78v-38.05c3.42-.06,6.82-.15,10.21-.18,2.78-.03,5.55-.08,8.33.02,5.67.2,9.83,3.13,11.59,8.04,1.78,4.96.34,9.61-4.18,13.4-.78.66-1.63,1.22-2.83,2.12,3.04,4.76,5.98,9.36,9.22,14.43" fill="#233427"/><path d="M472.44,128.41h26.81c.13,1.63.24,3.08.41,5.24h-21.24v10.31h17.87v5.72h-17.85v10.88c6.7.77,13.61-.1,20.79.52v5.37h-26.78v-38.03Z" fill="#233427"/><path d="M846.16,160.68c.28,1.48.5,2.14.5,2.8,0,.84-.16,1.69-.3,2.89h-27.11c-.12-12.56-.2-25.09.08-37.9h26.94c.16.88.36,1.53.37,2.19.01.83-.12,1.66-.24,2.98h-20.75v10.15h17.63v6.1h-17.81v10.8h20.68Z" fill="#233427"/><path d="M654.77,160.17c1.77-2.09,2.86-3.39,4.11-4.87,1.49,1.28,2.74,2.44,4.09,3.49,4.54,3.53,9.58,4.03,14.68,1.7,1.45-.66,2.82-2.65,3.18-4.26.45-2.02-1.22-3.54-3.19-4.17-2.31-.73-4.7-1.19-7.01-1.89-2.81-.85-5.78-1.45-8.32-2.83-6.8-3.66-7.15-12.25-.89-16.77,7.22-5.21,18.5-3.7,24.74,3.63-1,1.19-2.06,2.44-3.35,3.98-1.4-1.08-2.56-2.02-3.78-2.89-3.69-2.62-7.74-2.87-11.92-1.54-2.1.67-3.68,1.98-3.73,4.46-.05,2.45,1.34,3.92,3.5,4.59,2.47.78,5.03,1.3,7.54,1.98,2.17.6,4.38,1.11,6.45,1.94,3.62,1.46,6.23,3.96,6.32,8.11.09,4.09-1.68,7.38-5.14,9.67-6.18,4.08-17.5,3.38-23.62-1.45-1.09-.86-2.16-1.73-3.64-2.91" fill="#233427"/><path d="M751.7,135.08c-2.4,5.89-4.4,10.77-6.58,16.11h13.18c-2.17-5.29-4.16-10.17-6.6-16.11M748.59,128.37h6.63c5.31,12.52,10.63,25.07,16.16,38.11h-6.26c-1.27-2.74-2.63-5.68-4.09-8.84h-18.57c-1.31,2.75-2.71,5.69-4.22,8.85h-5.85c5.27-12.92,10.74-25.34,16.2-38.12" fill="#233427"/><path d="M521.15,151.27h13.29c-2.25-5.4-4.33-10.37-6.71-16.08-2.34,5.73-4.29,10.5-6.58,16.08M547.48,166.52h-6.25c-1.39-2.96-2.77-5.9-4.19-8.94h-18.52c-1.39,2.96-2.77,5.9-4.19,8.93h-5.96c5.55-13,10.88-25.52,16.24-38.08h6.7c5.28,12.46,10.54,24.85,16.15,38.1" fill="#233427"/><path d="M644.39,128.5v5.15h-20.81v10.12h17.7c.11,2.21.2,3.83.31,6.1h-18.18v10.9h20.97c.1,2.12.18,3.61.25,5.04-3.88,1.13-19.36,1.38-27.24.41-.25-12.41-.1-24.93-.1-37.73h27.1Z" fill="#233427"/><path d="M707.53,133.82h-12.04c-.16-1.85-.28-3.31-.44-5.21h30.31c.17.21.54.46.56.73.07,1.2.03,2.4.03,4.27h-12.37v32.84h-6.05v-32.63Z" fill="#233427"/><path d="M808.58,133.88h-12.45v32.48c-2.07.16-3.69.28-6,.46-.43-5.63-.15-10.95-.2-16.24-.05-5.36-.01-10.71-.01-16.65h-11.96c-.1-2.04-.18-3.5-.28-5.36h30.59c.09,1.52.17,2.98.3,5.31" fill="#233427"/><path d="M557.95,128.41h5.53v32.32h20.88v5.75h-26.4v-38.07Z" fill="#233427"/><path d="M140.73,83.52c-.46-.84-.87-1.6-1.3-2.35-7.06-12.22-14.18-24.41-21.16-36.68-9.13-16.06-1.51-35.98,15.96-41.99,3.19-1.1,6.47-1.52,9.82-1.52,4.6,0,9.2.07,13.8-.04,1.71-.04,2.68.48,3.56,2.01,13.86,24.13,27.79,48.22,41.71,72.32,9,15.59,18.01,31.17,27.01,46.75.38.66.8,1.3,1.4,2.27,7.8-13.5,15.44-26.72,23.15-40.08-.66-.51-1.21-.93-1.76-1.35-15.21-11.4-21.7-26.7-18.21-45.24,3.48-18.48,15.17-30.26,33.35-35.27,3.32-.92,6.88-1.24,10.35-1.31,8.88-.18,17.77-.07,26.65-.06.46,0,.92.08,1.79.17-43.86,76.01-87.57,151.77-131.36,227.67-.64-.32-1.13-.53-1.59-.8-.47-.27-.91-.6-1.57-1.05,14.09-24.41,28.14-48.75,42.48-73.58-.99.36-1.48.5-1.94.71-14.33,6.66-30.19,1.79-38.12-11.84-10.21-17.54-20.32-35.14-30.48-52.71-.39-.68-.81-1.34-1.38-2.29-.53.84-.94,1.46-1.32,2.11-10.19,17.64-20.38,35.29-30.58,52.93-3.82,6.6-9.34,11.15-16.62,13.43-13.06,4.08-26.91-1.31-33.84-13.2-8.46-14.53-16.83-29.1-25.24-43.66-10.43-18.06-20.88-36.1-31.28-54.18C-2.35,33.62-1.07,20.3,7.33,10.83,13.18,4.23,20.63,1.03,29.44.98c4.76-.03,9.52.08,14.28-.05,1.7-.05,2.52.63,3.32,2.01,12.77,22.2,25.59,44.37,38.39,66.55,10.07,17.44,20.14,34.88,30.21,52.32.43.74.89,1.47,1.51,2.51,7.96-13.79,15.76-27.28,23.58-40.81" fill="#233427"/></svg>