<?xml version="1.0" encoding="UTF-8"?><svg id="a" xmlns="http://www.w3.org/2000/svg" width="900" height="175.94" viewBox="0 0 900 175.94"><path d="M897.83,54.05c-.5-1.18-1.2-2.21-2.09-3.11-.9-.89-1.93-1.59-3.11-2.09s-2.44-.75-3.8-.75-2.61.25-3.8.75c-1.18.5-2.21,1.2-3.11,2.09-.9.9-1.59,1.93-2.1,3.11-.5,1.18-.75,2.44-.75,3.8s.25,2.61.75,3.8c.5,1.18,1.2,2.21,2.1,3.11.89.9,1.93,1.59,3.11,2.09,1.18.5,2.44.75,3.8.75s2.61-.25,3.8-.75c1.18-.5,2.21-1.2,3.11-2.09.9-.9,1.59-1.93,2.09-3.11s.75-2.44.75-3.8-.25-2.61-.75-3.8ZM895.69,61.84c-.71,1.2-1.67,2.15-2.88,2.88-1.2.71-2.54,1.08-3.99,1.08s-2.8-.36-3.99-1.08c-1.2-.71-2.15-1.67-2.88-2.88-.71-1.2-1.08-2.54-1.08-3.99s.36-2.8,1.08-3.99c.71-1.2,1.67-2.15,2.88-2.88,1.2-.71,2.54-1.08,3.99-1.08s2.8.36,3.99,1.08c1.2.71,2.15,1.67,2.88,2.88.71,1.2,1.08,2.54,1.08,3.99s-.36,2.8-1.08,3.99Z" fill="#002447"/><path d="M891.08,58.66s.02,0,.03,0c.44-.24.81-.58,1.09-1.02.29-.44.43-.97.43-1.58s-.14-1.13-.42-1.54c-.28-.42-.64-.74-1.06-.95s-.87-.32-1.32-.32h-4.1c-.12,0-.21.09-.21.21v8.58c0,.12.09.21.21.21h1.15c.12,0,.21-.09.21-.21v-3.02h2.48l1.63,3.12c.03.07.11.11.19.11h1.29c.15,0,.25-.16.18-.3l-1.76-3.28h0ZM890.43,57.33c-.33.3-.7.45-1.12.45h-2.23v-3.31h2.27c.39,0,.75.12,1.08.36.33.25.49.65.49,1.22s-.16.98-.49,1.27Z" fill="#002447"/><path d="M327.59,47.27h-19.55c-.4,0-.75.27-.83.66-1.32,6.17-11.38,53.37-11.94,57.33-.04.3-.23.3-.27,0-.63-3.96-11.51-51.23-12.92-57.35-.08-.38-.43-.65-.82-.65h-18.24c-.4,0-.74.26-.82.65-1.42,6.12-12.33,53.39-12.94,57.35-.06.36-.27.36-.33,0-.58-3.96-10.6-51.15-11.92-57.33-.08-.39-.42-.67-.83-.67h-19.55c-.56,0-.97.53-.82,1.07l21.26,79.61c.1.37.43.63.82.63h20.56c.39,0,.73-.26.82-.64,1.29-5.44,10.33-43.53,12.37-52.45.1-.44.72-.44.82,0,2.07,8.91,11.22,47.02,12.52,52.45.09.38.43.64.82.64h20.51c.38,0,.72-.25.82-.63l21.26-79.61c.14-.53-.26-1.07-.82-1.07h.02Z" fill="#002447"/><path d="M390.86,50.81c-4.44-2.37-9.71-3.55-15.83-3.55h-31.61c-.47,0-.85.38-.85.85v79.61c0,.47.38.85.85.85h17.56c.47,0,.85-.38.85-.85v-24.53h12.65c6.22,0,11.59-1.16,16.1-3.49,4.51-2.32,7.99-5.56,10.42-9.71,2.43-4.15,3.66-9.02,3.66-14.62s-1.2-10.46-3.58-14.68c-2.38-4.22-5.79-7.51-10.23-9.88h0ZM384.83,81.97c-1.02,1.89-2.54,3.37-4.59,4.42-2.04,1.05-4.56,1.59-7.58,1.59h-10.81v-25.1h10.76c3.02,0,5.56.51,7.61,1.53,2.05,1.02,3.59,2.47,4.61,4.34,1.02,1.87,1.53,4.09,1.53,6.63s-.51,4.72-1.53,6.61h0Z" fill="#002447"/><path d="M493.83,57.33c-3.16-3.19-6.73-5.56-10.69-7.12-3.96-1.56-8.08-2.34-12.37-2.34-6.8,0-12.77,1.75-17.91,5.24-5.15,3.49-9.15,8.29-12.01,14.38-2.87,6.1-4.29,13.09-4.29,20.95s1.46,14.83,4.37,20.88c2.91,6.06,7.03,10.79,12.37,14.21,5.33,3.42,11.65,5.13,18.96,5.13,5.26,0,9.91-.85,13.97-2.55,4.05-1.7,7.41-3.94,10.09-6.74,2.44-2.55,4.27-5.29,5.5-8.23.19-.46-.07-.98-.53-1.13l-7.41-2.36c-.42-.13-.85.08-1.03.47-.92,2.02-2.23,3.89-3.93,5.62-1.88,1.93-4.22,3.49-6.98,4.65-2.77,1.16-5.97,1.75-9.6,1.75-5.35,0-10-1.26-13.93-3.81-3.94-2.54-6.97-6.1-9.12-10.69-2-4.28-3.05-9.24-3.19-14.84h57.1c.47,0,.85-.38.85-.85v-3.27c0-6.61-.91-12.36-2.72-17.25-1.82-4.89-4.31-8.93-7.47-12.12l-.02.02ZM449.17,70.63c2.07-4.28,4.96-7.73,8.66-10.34,3.7-2.6,8.02-3.91,12.96-3.91s9.24,1.28,12.78,3.84c3.54,2.56,6.26,6.06,8.17,10.47,1.55,3.6,2.47,7.58,2.76,11.94h-48.37c.25-4.32,1.26-8.32,3.04-12.01Z" fill="#002447"/><path d="M568.55,51.18c-3.98-2.21-8.63-3.32-13.93-3.32-5.91,0-11.16,1.51-15.75,4.54-3.66,2.42-6.54,6.06-8.64,10.88l-.05-13.53c0-.47-.38-.85-.85-.85h-7.46c-.47,0-.85.38-.85.85v76.38c0,.47.38.85.85.85h7.8c.47,0,.85-.38.85-.85v-47.83c0-4.47.94-8.35,2.82-11.63,1.88-3.28,4.46-5.79,7.72-7.54,3.26-1.75,6.94-2.62,11.03-2.62,6,0,10.8,1.85,14.38,5.56,3.59,3.7,5.38,8.74,5.38,15.12v48.95c0,.47.38.85.85.85h7.73c.47,0,.85-.38.85-.85v-49.64c0-6.19-1.13-11.41-3.38-15.65-2.26-4.23-5.38-7.46-9.35-9.67h0Z" fill="#002447"/><path d="M663.17,48.91h-7.52c-.47,0-.85.38-.85.85v14.16h-.98c-1.03-2.37-2.5-4.81-4.44-7.29-1.93-2.49-4.48-4.57-7.65-6.25-3.16-1.68-7.12-2.51-11.87-2.51-6.38,0-11.99,1.68-16.84,5.03-4.84,3.35-8.62,8.02-11.31,14-2.7,5.98-4.05,12.96-4.05,20.91s1.37,14.81,4.12,20.53c2.75,5.72,6.53,10.13,11.35,13.2,4.82,3.07,10.32,4.61,16.51,4.61,4.66,0,8.57-.75,11.73-2.27,3.16-1.51,5.74-3.44,7.72-5.79s3.48-4.74,4.5-7.16h.91v17.53c0,7.17-2.09,12.47-6.28,15.89-4.19,3.43-9.73,5.13-16.62,5.13-4.33,0-7.99-.59-10.97-1.78-2.98-1.19-5.41-2.72-7.3-4.61-1.65-1.65-3.01-3.35-4.07-5.1-.25-.4-.76-.53-1.16-.3l-6.4,3.88c-.38.24-.53.73-.31,1.13,1.5,2.78,3.52,5.27,6.06,7.46,2.75,2.37,6.13,4.25,10.16,5.62,4.03,1.37,8.69,2.06,14,2.06,6.24,0,11.81-1.03,16.69-3.1s8.73-5.25,11.53-9.53c2.79-4.28,4.19-9.73,4.19-16.34V49.75c0-.47-.38-.85-.85-.85h.02ZM651.88,103.69c-1.87,4.5-4.55,7.94-8.07,10.34-3.52,2.4-7.76,3.6-12.75,3.6s-9.38-1.26-12.92-3.81c-3.54-2.54-6.24-6.06-8.1-10.58-1.87-4.51-2.79-9.73-2.79-15.65s.92-11.08,2.76-15.78c1.84-4.7,4.53-8.44,8.07-11.21,3.54-2.77,7.87-4.16,12.99-4.16s9.35,1.34,12.85,4.01c3.49,2.68,6.16,6.35,8,11.03,1.84,4.68,2.76,10.04,2.76,16.1s-.93,11.6-2.79,16.1h0Z" fill="#002447"/><path d="M697.12,48.91h-7.8c-.47,0-.85.38-.85.85v76.38c0,.47.38.85.85.85h7.8c.47,0,.85-.38.85-.85V49.75c0-.47-.38-.85-.85-.85Z" fill="#002447"/><path d="M693.21,37.84c2.97,0,5.37-2.4,5.37-5.37s-2.4-5.37-5.37-5.37-5.37,2.4-5.37,5.37,2.4,5.37,5.37,5.37Z" fill="#002447"/><path d="M770.63,51.18c-3.98-2.21-8.63-3.32-13.93-3.32-5.91,0-11.16,1.51-15.75,4.54-3.66,2.42-6.54,6.06-8.64,10.88l-.05-13.53c0-.47-.38-.85-.85-.85h-7.46c-.47,0-.85.38-.85.85v76.38c0,.47.38.85.85.85h7.8c.47,0,.85-.38.85-.85v-47.83c0-4.47.94-8.35,2.82-11.63,1.88-3.28,4.46-5.79,7.72-7.54,3.26-1.75,6.94-2.62,11.03-2.62,6,0,10.8,1.85,14.38,5.56,3.59,3.7,5.38,8.74,5.38,15.12v48.95c0,.47.38.85.85.85h7.73c.47,0,.85-.38.85-.85v-49.64c0-6.19-1.13-11.41-3.38-15.65-2.26-4.23-5.38-7.46-9.35-9.67h0Z" fill="#002447"/><path d="M857.55,57.33c-3.16-3.19-6.73-5.56-10.69-7.12s-8.08-2.34-12.37-2.34c-6.8,0-12.77,1.75-17.91,5.24-5.15,3.49-9.15,8.29-12.01,14.38-2.87,6.1-4.29,13.09-4.29,20.95s1.46,14.83,4.37,20.88c2.91,6.06,7.03,10.79,12.37,14.21,5.33,3.42,11.65,5.13,18.96,5.13,5.26,0,9.91-.85,13.97-2.55,4.05-1.7,7.41-3.94,10.09-6.74,2.44-2.55,4.27-5.29,5.5-8.23.19-.46-.07-.98-.53-1.13l-7.41-2.36c-.42-.13-.85.08-1.03.47-.92,2.02-2.23,3.89-3.93,5.62-1.88,1.93-4.22,3.49-6.98,4.65-2.77,1.16-5.97,1.75-9.6,1.75-5.35,0-10-1.26-13.93-3.81-3.94-2.54-6.97-6.1-9.12-10.69-2-4.28-3.05-9.24-3.19-14.84h57.1c.47,0,.85-.38.85-.85v-3.27c0-6.61-.91-12.36-2.72-17.25-1.82-4.89-4.31-8.93-7.47-12.12l-.02.02ZM812.89,70.63c2.07-4.28,4.96-7.73,8.66-10.34,3.7-2.6,8.02-3.91,12.96-3.91s9.24,1.28,12.78,3.84c3.54,2.56,6.26,6.06,8.17,10.47,1.55,3.6,2.47,7.58,2.76,11.94h-48.37c.25-4.32,1.26-8.32,3.04-12.01Z" fill="#002447"/><path d="M111.38,176.18c1.41,0,2.54-1.14,2.54-2.54v-36.05c0-1.35-.53-2.65-1.49-3.6l-10.59-10.59c-.96-.96-2.25-1.49-3.6-1.49h-22.92c-1.35,0-2.65.53-3.6,1.49l-10.59,10.59c-.96.96-1.49,2.25-1.49,3.6v36.05c0,1.41,1.14,2.54,2.54,2.54h49.2Z" fill="#0ecad4"/><path d="M132.79,62.32l-10.59,10.59c-.96.96-1.49,2.25-1.49,3.6v22.92c0,1.35.53,2.65,1.49,3.6l10.59,10.59c.96.96,2.25,1.49,3.6,1.49h36.05c1.41,0,2.54-1.14,2.54-2.54v-49.19c0-1.41-1.14-2.54-2.54-2.54h-36.05c-1.35,0-2.65.53-3.6,1.49h0Z" fill="#0ecad4"/><path d="M62.19-.24c-1.41,0-2.54,1.14-2.54,2.54v36.05c0,1.35.53,2.65,1.49,3.6l10.59,10.59c.96.96,2.25,1.49,3.6,1.49h22.92c1.35,0,2.65-.53,3.6-1.49l10.59-10.59c.96-.96,1.49-2.25,1.49-3.6V2.31c0-1.41-1.14-2.54-2.54-2.54h-49.2Z" fill="#0ecad4"/><path d="M172.45,121.9h-36.05c-1.35,0-2.65.53-3.6,1.49l-10.59,10.59c-.96.96-1.49,2.25-1.49,3.6v36.05c0,1.41,1.14,2.54,2.54,2.54h49.19c1.41,0,2.54-1.14,2.54-2.54v-49.19c0-1.41-1.14-2.54-2.54-2.54Z" fill="#0ecad4"/><path d="M50.32-.24H14.26c-1.36,0-2.65.53-3.6,1.49L.07,11.84c-.96.96-1.49,2.25-1.49,3.6v36.05c0,1.41,1.14,2.54,2.54,2.54h36.05c1.35,0,2.65-.53,3.6-1.49l10.59-10.59c.96-.96,1.49-2.25,1.49-3.6V2.31c0-1.41-1.14-2.54-2.54-2.54Z" fill="#0ecad4"/><path d="M120.71,2.31v36.05c0,1.35.53,2.65,1.49,3.6l10.59,10.59c.96.96,2.25,1.49,3.6,1.49h36.05c1.41,0,2.54-1.14,2.54-2.54V2.31c0-1.41-1.14-2.54-2.54-2.54h-49.19c-1.41,0-2.54,1.14-2.54,2.54Z" fill="#0ecad4"/><path d="M86.79,101.54c-7.5,0-13.57-6.07-13.57-13.57s6.08-13.57,13.57-13.57,13.57,6.07,13.57,13.57-6.08,13.57-13.57,13.57Z" fill="#0ecad4"/><path d="M-1.42,124.44v49.19c0,1.41,1.14,2.54,2.54,2.54h49.19c1.41,0,2.54-1.14,2.54-2.54v-36.05c0-1.35-.53-2.65-1.49-3.6l-10.59-10.59c-.96-.96-2.25-1.49-3.6-1.49H1.12c-1.41,0-2.54,1.14-2.54,2.54Z" fill="#0ecad4"/><path d="M51.37,72.91l-10.59-10.59c-.96-.96-2.25-1.49-3.6-1.49H1.12c-1.41,0-2.54,1.14-2.54,2.55v49.19c0,1.41,1.14,2.54,2.54,2.54h36.64c1.35,0,2.65-.53,3.6-1.49l10.01-10c.96-.96,1.49-2.25,1.49-3.6v-23.51c0-1.35-.53-2.65-1.49-3.6h0Z" fill="#0ecad4"/></svg>